<svg width="375" height="37" viewBox="0 0 375 37" fill="none" xmlns="http://www.w3.org/2000/svg">
<rect x="0.5" y="0.5" width="374" height="36" fill="#F4F4F5"/>
<path d="M32.3828 24H34.2344L30.1641 12.7266H28.2734L24.2031 24H26.0234L27.0547 20.9531H31.3516L32.3828 24ZM29.1797 14.6016H29.2266L30.9062 19.5469H27.5L29.1797 14.6016ZM42.2694 18.6094C42.1209 16.9922 40.8319 15.6328 38.7147 15.6328C36.3787 15.6328 34.8475 17.2812 34.8475 19.8906C34.8475 22.5469 36.3787 24.1562 38.7303 24.1562C40.7069 24.1562 42.1053 22.9688 42.285 21.2188H40.66C40.4647 22.1719 39.785 22.7422 38.7459 22.7422C37.4334 22.7422 36.5662 21.6953 36.5662 19.8906C36.5662 18.125 37.4256 17.0391 38.7303 17.0391C39.8319 17.0391 40.4881 17.7344 40.66 18.6094H42.2694ZM50.695 18.6094C50.5466 16.9922 49.2575 15.6328 47.1403 15.6328C44.8044 15.6328 43.2731 17.2812 43.2731 19.8906C43.2731 22.5469 44.8044 24.1562 47.1559 24.1562C49.1325 24.1562 50.5309 22.9688 50.7106 21.2188H49.0856C48.8903 22.1719 48.2106 22.7422 47.1716 22.7422C45.8591 22.7422 44.9919 21.6953 44.9919 19.8906C44.9919 18.125 45.8512 17.0391 47.1559 17.0391C48.2575 17.0391 48.9137 17.7344 49.0856 18.6094H50.695ZM55.5972 24.1562C57.9487 24.1562 59.4956 22.5391 59.4956 19.8906C59.4956 17.25 57.9409 15.6328 55.5972 15.6328C53.2534 15.6328 51.6987 17.25 51.6987 19.8906C51.6987 22.5391 53.2456 24.1562 55.5972 24.1562ZM55.5972 22.7656C54.2769 22.7656 53.4175 21.7188 53.4175 19.8906C53.4175 18.0703 54.2769 17.0234 55.5972 17.0234C56.9175 17.0234 57.7769 18.0703 57.7769 19.8906C57.7769 21.7188 56.9253 22.7656 55.5972 22.7656ZM60.9603 24H62.6478V19.2109C62.6478 17.9375 63.4134 17.0938 64.6009 17.0938C65.7728 17.0938 66.3509 17.7734 66.3509 19.0078V24H68.0462V18.6797C68.0462 16.7969 67.0072 15.6406 65.1947 15.6406C63.9291 15.6406 63.0541 16.2188 62.6087 17.1562H62.5697V15.7812H60.9603V24ZM70.3312 13.8359V15.7812H69.1359V17.1172H70.3312V21.8359C70.3312 23.4219 70.9797 24.0547 72.6437 24.0547C73.0187 24.0547 73.3937 24.0234 73.5812 23.9766V22.6406C73.4719 22.6641 73.1984 22.6797 73.0266 22.6797C72.3391 22.6797 72.0266 22.3594 72.0266 21.6484V17.1172H73.5891V15.7812H72.0266V13.8359H70.3312ZM81.4247 22.8047C80.5184 22.8047 79.9247 22.3359 79.9247 21.6172C79.9247 20.9141 80.495 20.4688 81.5028 20.3984L83.5262 20.2734V20.9219C83.5262 21.9922 82.6044 22.8047 81.4247 22.8047ZM80.9559 24.1406C82.0341 24.1406 83.0731 23.5625 83.5497 22.6484H83.5887V24H85.2059V18.3359C85.2059 16.6875 83.9325 15.6328 81.9403 15.6328C79.9091 15.6328 78.6434 16.7266 78.5497 18.2109H80.1434C80.2919 17.4766 80.9012 17.0078 81.8778 17.0078C82.9091 17.0078 83.5262 17.5547 83.5262 18.4688V19.1016L81.2762 19.2344C79.3231 19.3438 78.2216 20.2266 78.2216 21.6641C78.2216 23.1406 79.3466 24.1406 80.9559 24.1406ZM94.0612 18.6094C93.9128 16.9922 92.6237 15.6328 90.5066 15.6328C88.1706 15.6328 86.6394 17.2812 86.6394 19.8906C86.6394 22.5469 88.1706 24.1562 90.5222 24.1562C92.4987 24.1562 93.8972 22.9688 94.0769 21.2188H92.4519C92.2566 22.1719 91.5769 22.7422 90.5378 22.7422C89.2253 22.7422 88.3581 21.6953 88.3581 19.8906C88.3581 18.125 89.2175 17.0391 90.5222 17.0391C91.6237 17.0391 92.28 17.7344 92.4519 18.6094H94.0612ZM102.487 18.6094C102.338 16.9922 101.049 15.6328 98.9322 15.6328C96.5963 15.6328 95.065 17.2812 95.065 19.8906C95.065 22.5469 96.5963 24.1562 98.9478 24.1562C100.924 24.1562 102.323 22.9688 102.503 21.2188H100.878C100.682 22.1719 100.003 22.7422 98.9634 22.7422C97.6509 22.7422 96.7838 21.6953 96.7838 19.8906C96.7838 18.125 97.6431 17.0391 98.9478 17.0391C100.049 17.0391 100.706 17.7344 100.878 18.6094H102.487ZM107.295 16.9922C108.475 16.9922 109.272 17.875 109.311 19.1328H105.202C105.287 17.8906 106.116 16.9922 107.295 16.9922ZM109.303 21.5859C109.077 22.3047 108.366 22.7891 107.405 22.7891C106.053 22.7891 105.194 21.8438 105.194 20.4141V20.3125H110.998V19.7344C110.998 17.2422 109.577 15.6328 107.295 15.6328C104.975 15.6328 103.491 17.3516 103.491 19.9297C103.491 22.5234 104.952 24.1562 107.366 24.1562C109.248 24.1562 110.67 23.0859 110.905 21.5859H109.303ZM112.323 18.1094C112.323 19.2578 113.073 20.0312 114.557 20.3906L116.026 20.75C116.885 20.9688 117.198 21.2578 117.198 21.7812C117.198 22.4453 116.573 22.8672 115.557 22.8672C114.526 22.8672 113.916 22.4297 113.783 21.6406H112.112C112.244 23.1484 113.533 24.1562 115.479 24.1562C117.494 24.1562 118.893 23.125 118.893 21.625C118.893 20.4141 118.268 19.7891 116.612 19.3906L115.229 19.0703C114.377 18.8594 113.971 18.5156 113.971 18.0078C113.971 17.3594 114.58 16.9141 115.494 16.9141C116.44 16.9141 117.041 17.375 117.119 18.1172H118.705C118.651 16.6562 117.369 15.6328 115.541 15.6328C113.619 15.6328 112.323 16.6406 112.323 18.1094ZM120.217 18.1094C120.217 19.2578 120.967 20.0312 122.451 20.3906L123.92 20.75C124.779 20.9688 125.092 21.2578 125.092 21.7812C125.092 22.4453 124.467 22.8672 123.451 22.8672C122.42 22.8672 121.811 22.4297 121.678 21.6406H120.006C120.139 23.1484 121.428 24.1562 123.373 24.1562C125.389 24.1562 126.787 23.125 126.787 21.625C126.787 20.4141 126.162 19.7891 124.506 19.3906L123.123 19.0703C122.272 18.8594 121.865 18.5156 121.865 18.0078C121.865 17.3594 122.475 16.9141 123.389 16.9141C124.334 16.9141 124.936 17.375 125.014 18.1172H126.6C126.545 16.6562 125.264 15.6328 123.436 15.6328C121.514 15.6328 120.217 16.6406 120.217 18.1094Z" fill="#6B7280"/>
<rect x="0.5" y="0.5" width="374" height="36" stroke="#E5E7EB"/>
</svg>
