<svg width="327" height="49" viewBox="0 0 327 49" fill="none" xmlns="http://www.w3.org/2000/svg">
<mask id="path-1-inside-1_228_5103" fill="white">
<path d="M0 0H327V49H0V0Z"/>
</mask>
<path d="M0 0H327V49H0V0Z" fill="white"/>
<path d="M8.42188 30H9.89844L5.74219 18.7266H4.35156L0.195312 30H1.67188L2.80469 26.7734H7.28906L8.42188 30ZM5.02344 20.4375H5.07031L6.875 25.5781H3.21875L5.02344 20.4375ZM17.7303 24.5391C17.5584 23.0781 16.3475 21.7344 14.3162 21.7344C12.0741 21.7344 10.5819 23.375 10.5819 25.9375C10.5819 28.5547 12.0819 30.1406 14.3319 30.1406C16.1756 30.1406 17.535 29 17.7459 27.3828H16.41C16.1756 28.3594 15.4491 28.9453 14.3397 28.9453C12.9334 28.9453 11.9647 27.8281 11.9647 25.9375C11.9647 24.0938 12.9178 22.9297 14.3241 22.9297C15.5194 22.9297 16.2069 23.6562 16.4022 24.5391H17.7303ZM25.9059 24.5391C25.7341 23.0781 24.5231 21.7344 22.4919 21.7344C20.2497 21.7344 18.7575 23.375 18.7575 25.9375C18.7575 28.5547 20.2575 30.1406 22.5075 30.1406C24.3512 30.1406 25.7106 29 25.9216 27.3828H24.5856C24.3512 28.3594 23.6247 28.9453 22.5153 28.9453C21.1091 28.9453 20.1403 27.8281 20.1403 25.9375C20.1403 24.0938 21.0934 22.9297 22.4997 22.9297C23.695 22.9297 24.3825 23.6562 24.5778 24.5391H25.9059ZM30.5894 22.9141C31.8706 22.9141 32.7222 23.8828 32.7534 25.2422H28.3394C28.4253 23.8906 29.3159 22.9141 30.5894 22.9141ZM32.7222 27.6719C32.4956 28.4375 31.7378 28.9609 30.7066 28.9609C29.2456 28.9609 28.3316 27.9375 28.3316 26.3828V26.3047H34.1597V25.7891C34.1597 23.3281 32.8081 21.7344 30.6128 21.7344C28.3706 21.7344 26.9331 23.4453 26.9331 25.9688C26.9331 28.5234 28.3472 30.1406 30.6753 30.1406C32.4487 30.1406 33.8237 29.0938 34.0581 27.6719H32.7222ZM35.5541 24.1172C35.5541 25.2266 36.2572 25.9609 37.6869 26.3281L39.1166 26.6953C40.0306 26.9375 40.3666 27.25 40.3666 27.8281C40.3666 28.5625 39.6869 29.0312 38.5853 29.0312C37.4837 29.0312 36.8431 28.5781 36.6947 27.7344H35.3353C35.4759 29.1719 36.7181 30.1406 38.4994 30.1406C40.3978 30.1406 41.7337 29.1406 41.7337 27.7266C41.7337 26.5312 41.14 25.9375 39.4994 25.5234L38.2416 25.2188C37.3197 24.9844 36.89 24.6094 36.89 24.0469C36.89 23.3359 37.5462 22.8438 38.5384 22.8438C39.5384 22.8438 40.1712 23.3281 40.265 24.1094H41.5619C41.4994 22.7344 40.265 21.7344 38.5853 21.7344C36.7962 21.7344 35.5541 22.7266 35.5541 24.1172ZM43.3781 30H44.7375V21.875H43.3781V30ZM44.0578 20.5078C44.5266 20.5078 44.9094 20.125 44.9094 19.6641C44.9094 19.1953 44.5266 18.8203 44.0578 18.8203C43.5969 18.8203 43.2141 19.1953 43.2141 19.6641C43.2141 20.125 43.5969 20.5078 44.0578 20.5078ZM50.7725 30.1406C52.8506 30.1406 54.2256 28.4922 54.2256 25.9375C54.2256 23.3906 52.8428 21.7344 50.7959 21.7344C49.6475 21.7344 48.7022 22.3047 48.1944 23.2344H48.1631V18.7266H46.8037V30H48.1006V28.625H48.1319C48.6553 29.5625 49.585 30.1406 50.7725 30.1406ZM50.5069 22.9297C51.9444 22.9297 52.835 24.0938 52.835 25.9375C52.835 27.7969 51.9444 28.9453 50.5069 28.9453C49.1319 28.9453 48.1553 27.75 48.1553 25.9375C48.1553 24.1328 49.1319 22.9297 50.5069 22.9297ZM55.8387 30H57.1981V21.875H55.8387V30ZM56.5184 20.5078C56.9872 20.5078 57.37 20.125 57.37 19.6641C57.37 19.1953 56.9872 18.8203 56.5184 18.8203C56.0575 18.8203 55.6747 19.1953 55.6747 19.6641C55.6747 20.125 56.0575 20.5078 56.5184 20.5078ZM59.2644 30H60.6237V18.7266H59.2644V30ZM62.69 30H64.0494V21.875H62.69V30ZM63.3697 20.5078C63.8384 20.5078 64.2212 20.125 64.2212 19.6641C64.2212 19.1953 63.8384 18.8203 63.3697 18.8203C62.9087 18.8203 62.5259 19.1953 62.5259 19.6641C62.5259 20.125 62.9087 20.5078 63.3697 20.5078ZM66.4828 19.9141V21.875H65.2719V22.9922H66.4828V27.8906C66.4828 29.4531 67.0609 30.0625 68.5531 30.0625C68.8734 30.0625 69.2484 30.0391 69.4125 30V28.8594C69.3187 28.875 69.0062 28.8984 68.85 28.8984C68.1547 28.8984 67.8422 28.5625 67.8422 27.8203V22.9922H69.4203V21.875H67.8422V19.9141H66.4828ZM71.7053 33.0391C73.1741 33.0391 73.8459 32.4688 74.5413 30.5703L77.7366 21.875H76.3069L74.0569 28.6406H74.0334L71.7834 21.875H70.3303L73.3303 30.0078L73.1428 30.5781C72.8303 31.5234 72.4084 31.8906 71.6506 31.8906C71.4788 31.8906 71.2678 31.8828 71.1194 31.8516V32.9922C71.2678 33.0234 71.5413 33.0391 71.7053 33.0391Z" fill="#111827"/>
<path d="M320.62 29.0467C320.493 29.0467 320.367 29 320.267 28.9C320.073 28.7067 320.073 28.3867 320.267 28.1933L323.96 24.5L320.267 20.8067C320.073 20.6133 320.073 20.2933 320.267 20.1C320.46 19.9067 320.78 19.9067 320.973 20.1L325.02 24.1467C325.213 24.34 325.213 24.66 325.02 24.8533L320.973 28.9C320.873 29 320.747 29.0467 320.62 29.0467Z" fill="#111827"/>
<path d="M324.553 25H313.333C313.06 25 312.833 24.7733 312.833 24.5C312.833 24.2267 313.06 24 313.333 24H324.553C324.827 24 325.053 24.2267 325.053 24.5C325.053 24.7733 324.827 25 324.553 25Z" fill="#111827"/>
<path d="M327 48H0V50H327V48Z" fill="#E5E7EB" mask="url(#path-1-inside-1_228_5103)"/>
</svg>
