<svg width="327" height="187" viewBox="0 0 327 187" fill="none" xmlns="http://www.w3.org/2000/svg">
<rect y="2.5" width="40" height="40" rx="8" fill="#5865F2"/>
<path d="M6 18.6C6 15.2397 6 13.5595 6.65396 12.2761C7.2292 11.1471 8.14708 10.2292 9.27606 9.65396C10.5595 9 12.2397 9 15.6 9H24.4C27.7603 9 29.4405 9 30.7239 9.65396C31.8529 10.2292 32.7708 11.1471 33.346 12.2761C34 13.5595 34 15.2397 34 18.6V27.4C34 30.7603 34 32.4405 33.346 33.7239C32.7708 34.8529 31.8529 35.7708 30.7239 36.346C29.4405 37 27.7603 37 24.4 37H15.6C12.2397 37 10.5595 37 9.27606 36.346C8.14708 35.7708 7.2292 34.8529 6.65396 33.7239C6 32.4405 6 30.7603 6 27.4V18.6Z" fill="#5865F2"/>
<path d="M27.6361 16.34C26.212 15.714 24.6892 15.259 23.0973 15C22.9018 15.3321 22.6734 15.7787 22.5159 16.1341C20.8236 15.895 19.1469 15.895 17.4857 16.1341C17.3283 15.7787 17.0946 15.3321 16.8974 15C15.3037 15.259 13.7793 15.7157 12.3552 16.3433C9.48276 20.4213 8.70409 24.3981 9.09342 28.3184C10.9986 29.6551 12.8449 30.467 14.66 30.9983C15.1082 30.4189 15.5079 29.8029 15.8523 29.1536C15.1964 28.9195 14.5683 28.6306 13.9748 28.2951C14.1323 28.1856 14.2863 28.071 14.4351 27.9531C18.0551 29.5438 21.9881 29.5438 25.5649 27.9531C25.7154 28.071 25.8694 28.1856 26.0251 28.2951C25.4299 28.6322 24.8 28.9211 24.1442 29.1553C24.4885 29.8029 24.8865 30.4205 25.3364 31C27.1533 30.4687 29.0013 29.6567 30.9065 28.3184C31.3633 23.7738 30.1261 19.8335 27.6361 16.34ZM16.3454 25.9075C15.2587 25.9075 14.3676 24.9543 14.3676 23.7937C14.3676 22.6331 15.2397 21.6783 16.3454 21.6783C17.4511 21.6783 18.3422 22.6314 18.3232 23.7937C18.325 24.9543 17.4511 25.9075 16.3454 25.9075ZM23.6545 25.9075C22.5678 25.9075 21.6767 24.9543 21.6767 23.7937C21.6767 22.6331 22.5488 21.6783 23.6545 21.6783C24.7602 21.6783 25.6514 22.6314 25.6323 23.7937C25.6323 24.9543 24.7602 25.9075 23.6545 25.9075Z" fill="white"/>
<path d="M59.1377 5.31738H57.1689V13.5439C57.1689 16.2773 59.1201 18.2109 62.3018 18.2109C65.4834 18.2109 67.4346 16.2773 67.4346 13.5439V5.31738H65.4746V13.377C65.4746 15.1875 64.3232 16.4619 62.3018 16.4619C60.2803 16.4619 59.1377 15.1875 59.1377 13.377V5.31738ZM71.9212 18V5.31738H69.9525V18H71.9212ZM74.9577 20.707L79.4577 5.31738H77.7702L73.2702 20.707H74.9577ZM82.8281 5.31738H80.8593V13.5439C80.8593 16.2773 82.8105 18.2109 85.9921 18.2109C89.1738 18.2109 91.125 16.2773 91.125 13.5439V5.31738H89.165V13.377C89.165 15.1875 88.0136 16.4619 85.9921 16.4619C83.9707 16.4619 82.8281 15.1875 82.8281 13.377V5.31738ZM92.8606 18H95.0403L98.2395 13.166H98.3011L101.456 18H103.759L99.5403 11.707V11.6543L103.838 5.31738H101.615L98.4505 10.2217H98.3802L95.2513 5.31738H92.9046L97.0706 11.584V11.6455L92.8606 18ZM109.419 5.31738V18H113.893C117.672 18 119.895 15.6445 119.895 11.6367C119.895 7.6377 117.663 5.31738 113.893 5.31738H109.419ZM111.388 7.01367H113.708C116.389 7.01367 117.883 8.66602 117.883 11.6543C117.883 14.6514 116.397 16.2949 113.708 16.2949H111.388V7.01367ZM125.595 10.1162C126.922 10.1162 127.819 11.1094 127.863 12.5244H123.239C123.336 11.127 124.268 10.1162 125.595 10.1162ZM127.854 15.2842C127.599 16.0928 126.799 16.6377 125.718 16.6377C124.198 16.6377 123.231 15.5742 123.231 13.9658V13.8516H129.761V13.2012C129.761 10.3975 128.161 8.58691 125.595 8.58691C122.985 8.58691 121.315 10.5205 121.315 13.4209C121.315 16.3389 122.958 18.1758 125.674 18.1758C127.792 18.1758 129.392 16.9717 129.656 15.2842H127.854ZM131.251 11.373C131.251 12.665 132.094 13.5352 133.764 13.9395L135.417 14.3438C136.383 14.5898 136.735 14.915 136.735 15.5039C136.735 16.251 136.032 16.7256 134.889 16.7256C133.729 16.7256 133.044 16.2334 132.894 15.3457H131.013C131.163 17.042 132.613 18.1758 134.801 18.1758C137.069 18.1758 138.642 17.0156 138.642 15.3281C138.642 13.9658 137.939 13.2627 136.076 12.8145L134.52 12.4541C133.562 12.2168 133.105 11.8301 133.105 11.2588C133.105 10.5293 133.791 10.0283 134.819 10.0283C135.882 10.0283 136.559 10.5469 136.647 11.3818H138.431C138.37 9.73828 136.928 8.58691 134.872 8.58691C132.71 8.58691 131.251 9.7207 131.251 11.373ZM140.36 18H142.259V8.75391H140.36V18ZM141.309 7.40039C141.925 7.40039 142.417 6.91699 142.417 6.31934C142.417 5.71289 141.925 5.22949 141.309 5.22949C140.703 5.22949 140.211 5.71289 140.211 6.31934C140.211 6.91699 140.703 7.40039 141.309 7.40039ZM148.319 16.4619C146.86 16.4619 145.91 15.2842 145.91 13.3506C145.91 11.4258 146.86 10.2041 148.319 10.2041C149.804 10.2041 150.779 11.4521 150.779 13.3506C150.779 15.2578 149.804 16.4619 148.319 16.4619ZM148.336 21.4805C150.973 21.4805 152.678 20.0391 152.678 17.833V8.75391H150.832V10.3359H150.797C150.235 9.26367 149.162 8.60449 147.853 8.60449C145.48 8.60449 143.968 10.4326 143.968 13.3418C143.968 16.2246 145.488 18.0352 147.809 18.0352C149.127 18.0352 150.217 17.376 150.736 16.374H150.771V17.8945C150.771 19.1602 149.892 20.0039 148.406 20.0039C147.325 20.0039 146.482 19.4941 146.209 18.7207H144.302C144.539 20.3203 146.156 21.4805 148.336 21.4805ZM154.739 18H156.637V12.6123C156.637 11.1797 157.499 10.2305 158.834 10.2305C160.153 10.2305 160.803 10.9951 160.803 12.3838V18H162.71V12.0146C162.71 9.89648 161.542 8.5957 159.502 8.5957C158.079 8.5957 157.094 9.24609 156.593 10.3008H156.549V8.75391H154.739V18ZM168.595 10.1162C169.922 10.1162 170.818 11.1094 170.862 12.5244H166.239C166.336 11.127 167.267 10.1162 168.595 10.1162ZM170.853 15.2842C170.598 16.0928 169.799 16.6377 168.718 16.6377C167.197 16.6377 166.23 15.5742 166.23 13.9658V13.8516H172.761V13.2012C172.761 10.3975 171.161 8.58691 168.595 8.58691C165.984 8.58691 164.314 10.5205 164.314 13.4209C164.314 16.3389 165.958 18.1758 168.674 18.1758C170.792 18.1758 172.391 16.9717 172.655 15.2842H170.853ZM174.417 18H176.316V12.4629C176.316 11.1533 177.071 10.3359 178.293 10.3359C178.662 10.3359 178.996 10.3799 179.146 10.4414V8.6748C179.005 8.64844 178.768 8.60449 178.495 8.60449C177.405 8.60449 176.579 9.24609 176.272 10.3271H176.228V8.75391H174.417V18Z" fill="#111827"/>
<path d="M56.8203 31.5449V40H59.6621C62.1758 40 63.6523 38.4355 63.6523 35.7695C63.6523 33.1094 62.1699 31.5449 59.6621 31.5449H56.8203ZM57.875 32.4941H59.5918C61.5137 32.4941 62.5742 33.666 62.5742 35.7812C62.5742 37.8789 61.5078 39.0508 59.5918 39.0508H57.875V32.4941ZM64.9794 40H65.9989V33.9062H64.9794V40ZM65.4891 32.8809C65.8407 32.8809 66.1278 32.5938 66.1278 32.248C66.1278 31.8965 65.8407 31.6152 65.4891 31.6152C65.1434 31.6152 64.8563 31.8965 64.8563 32.248C64.8563 32.5938 65.1434 32.8809 65.4891 32.8809ZM67.3904 35.5879C67.3904 36.4199 67.9177 36.9707 68.99 37.2461L70.0623 37.5215C70.7478 37.7031 70.9998 37.9375 70.9998 38.3711C70.9998 38.9219 70.49 39.2734 69.6638 39.2734C68.8377 39.2734 68.3572 38.9336 68.2459 38.3008H67.2263C67.3318 39.3789 68.2634 40.1055 69.5994 40.1055C71.0232 40.1055 72.0252 39.3555 72.0252 38.2949C72.0252 37.3984 71.5798 36.9531 70.3494 36.6426L69.406 36.4141C68.7146 36.2383 68.3923 35.957 68.3923 35.5352C68.3923 35.002 68.8845 34.6328 69.6287 34.6328C70.3787 34.6328 70.8533 34.9961 70.9236 35.582H71.8962C71.8494 34.5508 70.9236 33.8008 69.6638 33.8008C68.322 33.8008 67.3904 34.5449 67.3904 35.5879ZM78.2682 35.9043C78.1393 34.8086 77.2311 33.8008 75.7077 33.8008C74.026 33.8008 72.9069 35.0312 72.9069 36.9531C72.9069 38.916 74.0319 40.1055 75.7194 40.1055C77.1022 40.1055 78.1217 39.25 78.2799 38.0371H77.278C77.1022 38.7695 76.5573 39.209 75.7252 39.209C74.6705 39.209 73.944 38.3711 73.944 36.9531C73.944 35.5703 74.6588 34.6973 75.7135 34.6973C76.61 34.6973 77.1256 35.2422 77.2721 35.9043H78.2682ZM81.8628 40.1055C83.5445 40.1055 84.6812 38.8926 84.6812 36.9531C84.6812 35.0078 83.5445 33.8008 81.8628 33.8008C80.1753 33.8008 79.0386 35.0078 79.0386 36.9531C79.0386 38.8926 80.1753 40.1055 81.8628 40.1055ZM81.8628 39.209C80.7847 39.209 80.0757 38.3887 80.0757 36.9531C80.0757 35.5176 80.7847 34.6973 81.8628 34.6973C82.9409 34.6973 83.6441 35.5176 83.6441 36.9531C83.6441 38.3887 82.9409 39.209 81.8628 39.209ZM85.8324 40H86.852V36.2031C86.852 35.3418 87.3676 34.7734 88.1586 34.7734C88.4047 34.7734 88.6215 34.8027 88.7035 34.832V33.8418C88.6215 33.8301 88.4691 33.8008 88.2934 33.8008C87.5785 33.8008 87.016 34.2285 86.8168 34.9023H86.7934V33.9062H85.8324V40ZM91.6712 40.1055C92.5501 40.1055 93.2473 39.6719 93.6399 38.9688H93.6575V40H94.6302V31.5449H93.6106V34.8965H93.5872C93.2239 34.2285 92.5208 33.8008 91.6477 33.8008C90.1126 33.8008 89.0638 35.043 89.0638 36.9531C89.0638 38.8633 90.1184 40.1055 91.6712 40.1055ZM91.8645 34.6973C92.9134 34.6973 93.6165 35.5938 93.6165 36.9531C93.6165 38.3184 92.9134 39.209 91.8645 39.209C90.7864 39.209 90.1067 38.3359 90.1067 36.9531C90.1067 35.5762 90.7864 34.6973 91.8645 34.6973ZM100.94 38.5059C101.919 38.5059 102.722 37.7031 102.722 36.7246C102.722 35.7461 101.919 34.9434 100.94 34.9434C99.962 34.9434 99.1592 35.7461 99.1592 36.7246C99.1592 37.7031 99.962 38.5059 100.94 38.5059ZM106.782 38.0137C106.782 39.2969 107.766 40.1992 109.173 40.1992C110.731 40.1992 111.657 39.25 111.657 37.6445V31.5449H110.602V37.6387C110.602 38.6699 110.098 39.2266 109.167 39.2266C108.399 39.2266 107.854 38.7285 107.831 38.0137H106.782ZM115.269 39.2383C114.537 39.2383 114.05 38.8574 114.05 38.2773C114.05 37.7031 114.519 37.3398 115.34 37.2871L116.968 37.1875V37.6855C116.968 38.5645 116.23 39.2383 115.269 39.2383ZM115.041 40.1055C115.861 40.1055 116.634 39.6484 116.998 38.9512H117.021V40H117.988V35.7871C117.988 34.5742 117.086 33.8008 115.656 33.8008C114.215 33.8008 113.312 34.6094 113.242 35.6641H114.226C114.355 35.0664 114.847 34.6973 115.632 34.6973C116.476 34.6973 116.968 35.1426 116.968 35.8867V36.3965L115.222 36.4961C113.816 36.5781 113.013 37.2344 113.013 38.2773C113.013 39.373 113.828 40.1055 115.041 40.1055ZM120.475 36.6133V31.5449H119.456V40H120.475V37.7031L121.044 37.1641L123.305 40H124.489L121.764 36.5371L124.407 33.9062H123.17L120.475 36.6133ZM127.357 39.2383C126.624 39.2383 126.138 38.8574 126.138 38.2773C126.138 37.7031 126.607 37.3398 127.427 37.2871L129.056 37.1875V37.6855C129.056 38.5645 128.318 39.2383 127.357 39.2383ZM127.128 40.1055C127.949 40.1055 128.722 39.6484 129.085 38.9512H129.109V40H130.076V35.7871C130.076 34.5742 129.173 33.8008 127.744 33.8008C126.302 33.8008 125.4 34.6094 125.33 35.6641H126.314C126.443 35.0664 126.935 34.6973 127.72 34.6973C128.564 34.6973 129.056 35.1426 129.056 35.8867V36.3965L127.31 36.4961C125.904 36.5781 125.101 37.2344 125.101 38.2773C125.101 39.373 125.915 40.1055 127.128 40.1055ZM131.491 40H132.51V36.2031C132.51 35.3418 133.026 34.7734 133.817 34.7734C134.063 34.7734 134.28 34.8027 134.362 34.832V33.8418C134.28 33.8301 134.127 33.8008 133.951 33.8008C133.237 33.8008 132.674 34.2285 132.475 34.9023H132.451V33.9062H131.491V40ZM135.642 32.4355V33.9062H134.734V34.7441H135.642V38.418C135.642 39.5898 136.075 40.0469 137.195 40.0469C137.435 40.0469 137.716 40.0293 137.839 40V39.1445C137.769 39.1562 137.534 39.1738 137.417 39.1738C136.896 39.1738 136.661 38.9219 136.661 38.3652V34.7441H137.845V33.9062H136.661V32.4355H135.642ZM140.947 39.2383C140.215 39.2383 139.729 38.8574 139.729 38.2773C139.729 37.7031 140.197 37.3398 141.018 37.2871L142.647 37.1875V37.6855C142.647 38.5645 141.908 39.2383 140.947 39.2383ZM140.719 40.1055C141.539 40.1055 142.313 39.6484 142.676 38.9512H142.699V40H143.666V35.7871C143.666 34.5742 142.764 33.8008 141.334 33.8008C139.893 33.8008 138.99 34.6094 138.92 35.6641H139.904C140.033 35.0664 140.525 34.6973 141.311 34.6973C142.154 34.6973 142.647 35.1426 142.647 35.8867V36.3965L140.9 36.4961C139.494 36.5781 138.691 37.2344 138.691 38.2773C138.691 39.373 139.506 40.1055 140.719 40.1055ZM145.778 41.6816L146.581 38.6992H145.497L144.929 41.6816H145.778ZM151.456 40V31.5449H150.401V40H151.456ZM153.058 40H154.078V36.4141C154.078 35.3828 154.705 34.7031 155.666 34.7031C156.603 34.7031 157.066 35.2422 157.066 36.2266V40H158.086V36.0449C158.086 34.6621 157.312 33.8008 155.976 33.8008C155.033 33.8008 154.382 34.2227 154.043 34.8789H154.019V33.9062H153.058V40ZM161.815 40.1055C162.694 40.1055 163.391 39.6719 163.784 38.9688H163.801V40H164.774V31.5449H163.754V34.8965H163.731C163.368 34.2285 162.665 33.8008 161.791 33.8008C160.256 33.8008 159.207 35.043 159.207 36.9531C159.207 38.8633 160.262 40.1055 161.815 40.1055ZM162.008 34.6973C163.057 34.6973 163.76 35.5938 163.76 36.9531C163.76 38.3184 163.057 39.209 162.008 39.209C160.93 39.209 160.25 38.3359 160.25 36.9531C160.25 35.5762 160.93 34.6973 162.008 34.6973ZM168.796 40.1055C170.478 40.1055 171.615 38.8926 171.615 36.9531C171.615 35.0078 170.478 33.8008 168.796 33.8008C167.109 33.8008 165.972 35.0078 165.972 36.9531C165.972 38.8926 167.109 40.1055 168.796 40.1055ZM168.796 39.209C167.718 39.209 167.009 38.3887 167.009 36.9531C167.009 35.5176 167.718 34.6973 168.796 34.6973C169.874 34.6973 170.577 35.5176 170.577 36.9531C170.577 38.3887 169.874 39.209 168.796 39.209ZM172.766 40H173.785V36.4141C173.785 35.3828 174.412 34.7031 175.373 34.7031C176.311 34.7031 176.774 35.2422 176.774 36.2266V40H177.793V36.0449C177.793 34.6621 177.02 33.8008 175.684 33.8008C174.74 33.8008 174.09 34.2227 173.75 34.8789H173.727V33.9062H172.766V40ZM181.657 34.6855C182.618 34.6855 183.257 35.4121 183.28 36.4316H179.97C180.034 35.418 180.702 34.6855 181.657 34.6855ZM183.257 38.2539C183.087 38.8281 182.519 39.2207 181.745 39.2207C180.65 39.2207 179.964 38.4531 179.964 37.2871V37.2285H184.335V36.8418C184.335 34.9961 183.321 33.8008 181.675 33.8008C179.993 33.8008 178.915 35.084 178.915 36.9766C178.915 38.8926 179.976 40.1055 181.722 40.1055C183.052 40.1055 184.083 39.3203 184.259 38.2539H183.257ZM185.381 35.5879C185.381 36.4199 185.908 36.9707 186.98 37.2461L188.053 37.5215C188.738 37.7031 188.99 37.9375 188.99 38.3711C188.99 38.9219 188.48 39.2734 187.654 39.2734C186.828 39.2734 186.348 38.9336 186.236 38.3008H185.217C185.322 39.3789 186.254 40.1055 187.59 40.1055C189.014 40.1055 190.016 39.3555 190.016 38.2949C190.016 37.3984 189.57 36.9531 188.34 36.6426L187.396 36.4141C186.705 36.2383 186.383 35.957 186.383 35.5352C186.383 35.002 186.875 34.6328 187.619 34.6328C188.369 34.6328 188.844 34.9961 188.914 35.582H189.887C189.84 34.5508 188.914 33.8008 187.654 33.8008C186.312 33.8008 185.381 34.5449 185.381 35.5879ZM191.249 40H192.268V33.9062H191.249V40ZM191.759 32.8809C192.11 32.8809 192.397 32.5938 192.397 32.248C192.397 31.8965 192.11 31.6152 191.759 31.6152C191.413 31.6152 191.126 31.8965 191.126 32.248C191.126 32.5938 191.413 32.8809 191.759 32.8809ZM195.775 39.2383C195.043 39.2383 194.556 38.8574 194.556 38.2773C194.556 37.7031 195.025 37.3398 195.845 37.2871L197.474 37.1875V37.6855C197.474 38.5645 196.736 39.2383 195.775 39.2383ZM195.547 40.1055C196.367 40.1055 197.14 39.6484 197.504 38.9512H197.527V40H198.494V35.7871C198.494 34.5742 197.592 33.8008 196.162 33.8008C194.72 33.8008 193.818 34.6094 193.748 35.6641H194.732C194.861 35.0664 195.353 34.6973 196.138 34.6973C196.982 34.6973 197.474 35.1426 197.474 35.8867V36.3965L195.728 36.4961C194.322 36.5781 193.519 37.2344 193.519 38.2773C193.519 39.373 194.334 40.1055 195.547 40.1055Z" fill="#374151"/>
<path d="M317.5 21.8999H312.5C312.09 21.8999 311.75 21.5599 311.75 21.1499C311.75 20.7399 312.09 20.3999 312.5 20.3999H317.5C317.91 20.3999 318.25 20.7399 318.25 21.1499C318.25 21.5599 317.91 21.8999 317.5 21.8999Z" fill="#111827"/>
<path d="M307.93 33.25C307.51 33.25 307.12 33.15 306.77 32.95C306 32.5 305.56 31.59 305.56 30.46V16.36C305.56 13.82 307.63 11.75 310.17 11.75H319.82C322.36 11.75 324.43 13.82 324.43 16.36V30.45C324.43 31.58 323.99 32.49 323.22 32.94C322.45 33.39 321.44 33.34 320.45 32.79L315.57 30.08C315.28 29.92 314.71 29.92 314.42 30.08L309.54 32.79C309 33.09 308.45 33.25 307.93 33.25ZM310.18 13.25C308.47 13.25 307.07 14.65 307.07 16.36V30.45C307.07 31.04 307.24 31.48 307.54 31.65C307.84 31.83 308.31 31.77 308.82 31.48L313.7 28.77C314.44 28.36 315.56 28.36 316.3 28.77L321.18 31.48C321.69 31.77 322.16 31.83 322.46 31.65C322.76 31.47 322.93 31.03 322.93 30.45V16.36C322.93 14.65 321.53 13.25 319.82 13.25H310.18Z" fill="#111827"/>
<rect y="61" width="69.75" height="26" rx="13" fill="#D6E4FF"/>
<path d="M17.875 78V74.3379H21.6191V73.4004H17.875V70.4941H21.9531V69.5449H16.8203V78H17.875ZM28.1259 71.9062H27.1063V75.4863C27.1063 76.5234 26.5087 77.2031 25.5184 77.2031C24.5751 77.2031 24.1122 76.6699 24.1122 75.6797V71.9062H23.0927V75.8613C23.0927 77.2441 23.872 78.1055 25.202 78.1055C26.1395 78.1055 26.7723 77.7129 27.1356 77.0098H27.1591V78H28.1259V71.9062ZM29.6228 78H30.6423V69.5449H29.6228V78ZM32.192 78H33.2116V69.5449H32.192V78ZM35.0366 70.4355V71.9062H34.1284V72.7441H35.0366V76.418C35.0366 77.5898 35.4702 78.0469 36.5894 78.0469C36.8296 78.0469 37.1109 78.0293 37.2339 78V77.1445C37.1636 77.1562 36.9292 77.1738 36.812 77.1738C36.2905 77.1738 36.0562 76.9219 36.0562 76.3652V72.7441H37.2398V71.9062H36.0562V70.4355H35.0366ZM38.5023 78H39.5219V71.9062H38.5023V78ZM39.0121 70.8809C39.3637 70.8809 39.6508 70.5938 39.6508 70.248C39.6508 69.8965 39.3637 69.6152 39.0121 69.6152C38.6664 69.6152 38.3793 69.8965 38.3793 70.248C38.3793 70.5938 38.6664 70.8809 39.0121 70.8809ZM41.0188 78H42.0384V74.1797C42.0384 73.3359 42.6243 72.7031 43.4329 72.7031C44.1887 72.7031 44.6809 73.1836 44.6809 73.916V78H45.7005V74.127C45.7005 73.3008 46.2688 72.7031 47.0774 72.7031C47.8802 72.7031 48.343 73.1953 48.343 74.0273V78H49.3626V73.793C49.3626 72.5859 48.5833 71.8008 47.3762 71.8008C46.5208 71.8008 45.8059 72.2344 45.4661 72.9609H45.4427C45.179 72.2227 44.5637 71.8008 43.7317 71.8008C42.9114 71.8008 42.2903 72.2344 42.0032 72.8789H41.9798V71.9062H41.0188V78ZM53.2267 72.6855C54.1877 72.6855 54.8263 73.4121 54.8498 74.4316H51.5392C51.6037 73.418 52.2716 72.6855 53.2267 72.6855ZM54.8263 76.2539C54.6564 76.8281 54.088 77.2207 53.3146 77.2207C52.2189 77.2207 51.5334 76.4531 51.5334 75.2871V75.2285H55.9045V74.8418C55.9045 72.9961 54.8908 71.8008 53.2443 71.8008C51.5627 71.8008 50.4845 73.084 50.4845 74.9766C50.4845 76.8926 51.5451 78.1055 53.2912 78.1055C54.6213 78.1055 55.6525 77.3203 55.8283 76.2539H54.8263Z" fill="#3366FF"/>
<rect x="81.75" y="61" width="69.75" height="26" rx="13" fill="#D6E4FF"/>
<path d="M99.625 70.4824H101.6C102.689 70.4824 103.346 71.0859 103.346 72.0996C103.346 73.1367 102.73 73.7227 101.646 73.7227H99.625V70.4824ZM99.625 74.6543H101.646L103.457 78H104.693L102.736 74.4902C103.797 74.1562 104.436 73.2422 104.436 72.0645C104.436 70.541 103.369 69.5449 101.74 69.5449H98.5703V78H99.625V74.6543ZM108.171 72.6855C109.132 72.6855 109.77 73.4121 109.794 74.4316H106.483C106.548 73.418 107.216 72.6855 108.171 72.6855ZM109.77 76.2539C109.6 76.8281 109.032 77.2207 108.259 77.2207C107.163 77.2207 106.477 76.4531 106.477 75.2871V75.2285H110.849V74.8418C110.849 72.9961 109.835 71.8008 108.188 71.8008C106.507 71.8008 105.429 73.084 105.429 74.9766C105.429 76.8926 106.489 78.1055 108.235 78.1055C109.565 78.1055 110.597 77.3203 110.772 76.2539H109.77ZM112 78H113.019V74.1797C113.019 73.3359 113.605 72.7031 114.414 72.7031C115.17 72.7031 115.662 73.1836 115.662 73.916V78H116.681V74.127C116.681 73.3008 117.25 72.7031 118.058 72.7031C118.861 72.7031 119.324 73.1953 119.324 74.0273V78H120.344V73.793C120.344 72.5859 119.564 71.8008 118.357 71.8008C117.502 71.8008 116.787 72.2344 116.447 72.9609H116.424C116.16 72.2227 115.545 71.8008 114.713 71.8008C113.892 71.8008 113.271 72.2344 112.984 72.8789H112.961V71.9062H112V78ZM124.29 78.1055C125.971 78.1055 127.108 76.8926 127.108 74.9531C127.108 73.0078 125.971 71.8008 124.29 71.8008C122.602 71.8008 121.465 73.0078 121.465 74.9531C121.465 76.8926 122.602 78.1055 124.29 78.1055ZM124.29 77.209C123.212 77.209 122.503 76.3887 122.503 74.9531C122.503 73.5176 123.212 72.6973 124.29 72.6973C125.368 72.6973 126.071 73.5176 126.071 74.9531C126.071 76.3887 125.368 77.209 124.29 77.209ZM128.587 70.4355V71.9062H127.679V72.7441H128.587V76.418C128.587 77.5898 129.021 78.0469 130.14 78.0469C130.38 78.0469 130.662 78.0293 130.785 78V77.1445C130.714 77.1562 130.48 77.1738 130.363 77.1738C129.841 77.1738 129.607 76.9219 129.607 76.3652V72.7441H130.791V71.9062H129.607V70.4355H128.587ZM134.268 72.6855C135.229 72.6855 135.868 73.4121 135.891 74.4316H132.58C132.645 73.418 133.313 72.6855 134.268 72.6855ZM135.868 76.2539C135.698 76.8281 135.129 77.2207 134.356 77.2207C133.26 77.2207 132.575 76.4531 132.575 75.2871V75.2285H136.946V74.8418C136.946 72.9961 135.932 71.8008 134.286 71.8008C132.604 71.8008 131.526 73.084 131.526 74.9766C131.526 76.8926 132.586 78.1055 134.332 78.1055C135.662 78.1055 136.694 77.3203 136.87 76.2539H135.868Z" fill="#3366FF"/>
<path d="M233.779 69.5449V78H234.834V74.9824H236.785C238.373 74.9824 239.504 73.8633 239.504 72.2578C239.504 70.6582 238.385 69.5449 236.797 69.5449H233.779ZM234.834 70.4824H236.521C237.734 70.4824 238.42 71.1387 238.42 72.2578C238.42 73.3828 237.728 74.0449 236.521 74.0449H234.834V70.4824ZM242.911 78.1055C244.593 78.1055 245.729 76.8926 245.729 74.9531C245.729 73.0078 244.593 71.8008 242.911 71.8008C241.223 71.8008 240.087 73.0078 240.087 74.9531C240.087 76.8926 241.223 78.1055 242.911 78.1055ZM242.911 77.209C241.833 77.209 241.124 76.3887 241.124 74.9531C241.124 73.5176 241.833 72.6973 242.911 72.6973C243.989 72.6973 244.692 73.5176 244.692 74.9531C244.692 76.3887 243.989 77.209 242.911 77.209ZM246.775 73.5879C246.775 74.4199 247.302 74.9707 248.375 75.2461L249.447 75.5215C250.132 75.7031 250.384 75.9375 250.384 76.3711C250.384 76.9219 249.875 77.2734 249.049 77.2734C248.222 77.2734 247.742 76.9336 247.631 76.3008H246.611C246.716 77.3789 247.648 78.1055 248.984 78.1055C250.408 78.1055 251.41 77.3555 251.41 76.2949C251.41 75.3984 250.965 74.9531 249.734 74.6426L248.791 74.4141C248.099 74.2383 247.777 73.957 247.777 73.5352C247.777 73.002 248.269 72.6328 249.013 72.6328C249.763 72.6328 250.238 72.9961 250.308 73.582H251.281C251.234 72.5508 250.308 71.8008 249.049 71.8008C247.707 71.8008 246.775 72.5449 246.775 73.5879ZM252.919 70.4355V71.9062H252.01V72.7441H252.919V76.418C252.919 77.5898 253.352 78.0469 254.471 78.0469C254.711 78.0469 254.993 78.0293 255.116 78V77.1445C255.045 77.1562 254.811 77.1738 254.694 77.1738C254.172 77.1738 253.938 76.9219 253.938 76.3652V72.7441H255.122V71.9062H253.938V70.4355H252.919ZM258.599 72.6855C259.56 72.6855 260.199 73.4121 260.222 74.4316H256.912C256.976 73.418 257.644 72.6855 258.599 72.6855ZM260.199 76.2539C260.029 76.8281 259.46 77.2207 258.687 77.2207C257.591 77.2207 256.906 76.4531 256.906 75.2871V75.2285H261.277V74.8418C261.277 72.9961 260.263 71.8008 258.617 71.8008C256.935 71.8008 255.857 73.084 255.857 74.9766C255.857 76.8926 256.917 78.1055 258.664 78.1055C259.994 78.1055 261.025 77.3203 261.201 76.2539H260.199ZM264.737 78.1055C265.616 78.1055 266.313 77.6719 266.705 76.9688H266.723V78H267.696V69.5449H266.676V72.8965H266.653C266.289 72.2285 265.586 71.8008 264.713 71.8008C263.178 71.8008 262.129 73.043 262.129 74.9531C262.129 76.8633 263.184 78.1055 264.737 78.1055ZM264.93 72.6973C265.979 72.6973 266.682 73.5938 266.682 74.9531C266.682 76.3184 265.979 77.209 264.93 77.209C263.852 77.209 263.172 76.3359 263.172 74.9531C263.172 73.5762 263.852 72.6973 264.93 72.6973ZM271.744 71.9824V71.9883H272.764V71.9824C272.764 71.0391 273.514 70.3242 274.504 70.3242C275.436 70.3242 276.18 70.9746 276.18 71.7891C276.18 72.4922 275.91 72.9434 274.774 74.1387L271.797 77.2734V78H277.375V77.0625H273.256V77.0391L275.395 74.8301C276.807 73.3711 277.234 72.668 277.234 71.7246C277.234 70.4297 276.045 69.4043 274.533 69.4043C272.94 69.4043 271.744 70.5059 271.744 71.9824ZM283.58 78.1055C284.459 78.1055 285.156 77.6719 285.549 76.9688H285.566V78H286.539V69.5449H285.519V72.8965H285.496C285.133 72.2285 284.43 71.8008 283.556 71.8008C282.021 71.8008 280.973 73.043 280.973 74.9531C280.973 76.8633 282.027 78.1055 283.58 78.1055ZM283.773 72.6973C284.822 72.6973 285.525 73.5938 285.525 74.9531C285.525 76.3184 284.822 77.209 283.773 77.209C282.695 77.209 282.015 76.3359 282.015 74.9531C282.015 73.5762 282.695 72.6973 283.773 72.6973ZM290.046 77.2383C289.313 77.2383 288.827 76.8574 288.827 76.2773C288.827 75.7031 289.296 75.3398 290.116 75.2871L291.745 75.1875V75.6855C291.745 76.5645 291.007 77.2383 290.046 77.2383ZM289.817 78.1055C290.637 78.1055 291.411 77.6484 291.774 76.9512H291.798V78H292.764V73.7871C292.764 72.5742 291.862 71.8008 290.432 71.8008C288.991 71.8008 288.089 72.6094 288.018 73.6641H289.003C289.132 73.0664 289.624 72.6973 290.409 72.6973C291.253 72.6973 291.745 73.1426 291.745 73.8867V74.3965L289.999 74.4961C288.592 74.5781 287.79 75.2344 287.79 76.2773C287.79 77.373 288.604 78.1055 289.817 78.1055ZM294.683 80.2793C295.785 80.2793 296.289 79.8516 296.81 78.4277L299.207 71.9062H298.134L296.447 76.9805H296.429L294.742 71.9062H293.652L295.902 78.0059L295.761 78.4336C295.527 79.1426 295.211 79.418 294.642 79.418C294.513 79.418 294.355 79.4121 294.244 79.3887V80.2441C294.355 80.2676 294.56 80.2793 294.683 80.2793ZM300.03 73.5879C300.03 74.4199 300.557 74.9707 301.629 75.2461L302.702 75.5215C303.387 75.7031 303.639 75.9375 303.639 76.3711C303.639 76.9219 303.129 77.2734 302.303 77.2734C301.477 77.2734 300.997 76.9336 300.885 76.3008H299.866C299.971 77.3789 300.903 78.1055 302.239 78.1055C303.663 78.1055 304.665 77.3555 304.665 76.2949C304.665 75.3984 304.219 74.9531 302.989 74.6426L302.045 74.4141C301.354 74.2383 301.032 73.957 301.032 73.5352C301.032 73.002 301.524 72.6328 302.268 72.6328C303.018 72.6328 303.493 72.9961 303.563 73.582H304.536C304.489 72.5508 303.563 71.8008 302.303 71.8008C300.961 71.8008 300.03 72.5449 300.03 73.5879ZM310.436 77.2383C309.703 77.2383 309.217 76.8574 309.217 76.2773C309.217 75.7031 309.686 75.3398 310.506 75.2871L312.135 75.1875V75.6855C312.135 76.5645 311.397 77.2383 310.436 77.2383ZM310.207 78.1055C311.028 78.1055 311.801 77.6484 312.164 76.9512H312.188V78H313.155V73.7871C313.155 72.5742 312.252 71.8008 310.823 71.8008C309.381 71.8008 308.479 72.6094 308.408 73.6641H309.393C309.522 73.0664 310.014 72.6973 310.799 72.6973C311.643 72.6973 312.135 73.1426 312.135 73.8867V74.3965L310.389 74.4961C308.983 74.5781 308.18 75.2344 308.18 76.2773C308.18 77.373 308.994 78.1055 310.207 78.1055ZM317.048 77.1504C315.999 77.1504 315.314 76.2949 315.314 74.9297C315.314 73.5645 315.999 72.6973 317.048 72.6973C318.109 72.6973 318.818 73.5879 318.818 74.9297C318.818 76.2715 318.109 77.1504 317.048 77.1504ZM317.083 80.2969C318.765 80.2969 319.837 79.3301 319.837 77.877V71.9062H318.864V72.9316H318.847C318.443 72.2227 317.728 71.8008 316.866 71.8008C315.29 71.8008 314.271 73.0195 314.271 74.9297C314.271 76.8223 315.29 78.0469 316.843 78.0469C317.698 78.0469 318.419 77.6133 318.794 76.9512H318.818V77.9121C318.818 78.8203 318.179 79.4297 317.124 79.4297C316.362 79.4297 315.759 79.0605 315.56 78.5039H314.511C314.681 79.541 315.741 80.2969 317.083 80.2969ZM323.812 78.1055C325.494 78.1055 326.631 76.8926 326.631 74.9531C326.631 73.0078 325.494 71.8008 323.812 71.8008C322.125 71.8008 320.988 73.0078 320.988 74.9531C320.988 76.8926 322.125 78.1055 323.812 78.1055ZM323.812 77.209C322.734 77.209 322.025 76.3887 322.025 74.9531C322.025 73.5176 322.734 72.6973 323.812 72.6973C324.891 72.6973 325.594 73.5176 325.594 74.9531C325.594 76.3887 324.891 77.209 323.812 77.209Z" fill="#374151"/>
<rect x="26" y="111" width="24" height="24" rx="12" fill="#3366FF"/>
<path d="M37.8418 127H38.8613V118.545H37.8301L35.5801 120.162V121.275L37.8184 119.664H37.8418V127Z" fill="#F4F4F5"/>
<path d="M22.517 157C24.3158 157 25.3822 156.115 25.3822 154.627C25.3822 153.502 24.6439 152.693 23.4955 152.547V152.5C24.3099 152.354 24.9545 151.533 24.9545 150.654C24.9545 149.389 23.9759 148.545 22.5287 148.545H19.3236V157H22.517ZM20.3783 149.477H22.2884C23.3138 149.477 23.888 149.939 23.888 150.777C23.888 151.691 23.2084 152.189 21.9603 152.189H20.3783V149.477ZM20.3783 156.068V153.098H22.2591C23.6068 153.098 24.2982 153.596 24.2982 154.574C24.2982 155.553 23.6302 156.068 22.3587 156.068H20.3783ZM26.592 157H27.6116V150.906H26.592V157ZM27.1018 149.881C27.4534 149.881 27.7405 149.594 27.7405 149.248C27.7405 148.896 27.4534 148.615 27.1018 148.615C26.7561 148.615 26.469 148.896 26.469 149.248C26.469 149.594 26.7561 149.881 27.1018 149.881ZM31.6339 157.105C33.3155 157.105 34.4523 155.893 34.4523 153.953C34.4523 152.008 33.3155 150.801 31.6339 150.801C29.9464 150.801 28.8097 152.008 28.8097 153.953C28.8097 155.893 29.9464 157.105 31.6339 157.105ZM31.6339 156.209C30.5558 156.209 29.8468 155.389 29.8468 153.953C29.8468 152.518 30.5558 151.697 31.6339 151.697C32.712 151.697 33.4152 152.518 33.4152 153.953C33.4152 155.389 32.712 156.209 31.6339 156.209ZM37.9121 157.105C38.791 157.105 39.4883 156.672 39.8809 155.969H39.8984V157H40.8711V148.545H39.8516V151.896H39.8281C39.4648 151.229 38.7617 150.801 37.8887 150.801C36.3535 150.801 35.3047 152.043 35.3047 153.953C35.3047 155.863 36.3594 157.105 37.9121 157.105ZM38.1055 151.697C39.1543 151.697 39.8574 152.594 39.8574 153.953C39.8574 155.318 39.1543 156.209 38.1055 156.209C37.0273 156.209 36.3477 155.336 36.3477 153.953C36.3477 152.576 37.0273 151.697 38.1055 151.697ZM44.3778 156.238C43.6454 156.238 43.1591 155.857 43.1591 155.277C43.1591 154.703 43.6278 154.34 44.4481 154.287L46.077 154.188V154.686C46.077 155.564 45.3387 156.238 44.3778 156.238ZM44.1493 157.105C44.9696 157.105 45.743 156.648 46.1063 155.951H46.1298V157H47.0966V152.787C47.0966 151.574 46.1942 150.801 44.7645 150.801C43.3231 150.801 42.4208 151.609 42.3505 152.664H43.3348C43.4637 152.066 43.9559 151.697 44.7411 151.697C45.5848 151.697 46.077 152.143 46.077 152.887V153.396L44.3309 153.496C42.9247 153.578 42.122 154.234 42.122 155.277C42.122 156.373 42.9364 157.105 44.1493 157.105ZM48.8396 149.436V150.906H47.9314V151.744H48.8396V155.418C48.8396 156.59 49.2732 157.047 50.3923 157.047C50.6326 157.047 50.9138 157.029 51.0369 157V156.145C50.9666 156.156 50.7322 156.174 50.615 156.174C50.0935 156.174 49.8591 155.922 49.8591 155.365V151.744H51.0427V150.906H49.8591V149.436H48.8396ZM54.1452 156.238C53.4127 156.238 52.9264 155.857 52.9264 155.277C52.9264 154.703 53.3952 154.34 54.2155 154.287L55.8444 154.188V154.686C55.8444 155.564 55.1061 156.238 54.1452 156.238ZM53.9166 157.105C54.737 157.105 55.5104 156.648 55.8737 155.951H55.8971V157H56.8639V152.787C56.8639 151.574 55.9616 150.801 54.5319 150.801C53.0905 150.801 52.1881 151.609 52.1178 152.664H53.1022C53.2311 152.066 53.7233 151.697 54.5084 151.697C55.3522 151.697 55.8444 152.143 55.8444 152.887V153.396L54.0983 153.496C52.692 153.578 51.8893 154.234 51.8893 155.277C51.8893 156.373 52.7038 157.105 53.9166 157.105Z" fill="#3366FF"/>
<line x1="107.5" y1="137" x2="84.5" y2="137" stroke="#3366FF" stroke-linecap="round" stroke-dasharray="3 3"/>
<rect x="142" y="111" width="24" height="24" rx="12" fill="#3366FF"/>
<path d="M151.133 120.982V120.988H152.152V120.982C152.152 120.039 152.902 119.324 153.893 119.324C154.824 119.324 155.568 119.975 155.568 120.789C155.568 121.492 155.299 121.943 154.162 123.139L151.186 126.273V127H156.764V126.062H152.645V126.039L154.783 123.83C156.195 122.371 156.623 121.668 156.623 120.725C156.623 119.43 155.434 118.404 153.922 118.404C152.328 118.404 151.133 119.506 151.133 120.982Z" fill="#F4F4F5"/>
<path d="M125.561 157V149.494H128.227V148.545H121.84V149.494H124.506V157H125.561ZM128.399 159.279C129.501 159.279 130.005 158.852 130.526 157.428L132.923 150.906H131.851L130.163 155.98H130.146L128.458 150.906H127.368L129.618 157.006L129.478 157.434C129.243 158.143 128.927 158.418 128.358 158.418C128.23 158.418 128.071 158.412 127.96 158.389V159.244C128.071 159.268 128.276 159.279 128.399 159.279ZM136.81 150.801C135.926 150.801 135.217 151.252 134.842 151.938H134.818V150.906H133.851V159.033H134.871V156.01H134.894C135.258 156.678 135.961 157.105 136.834 157.105C138.369 157.105 139.418 155.863 139.418 153.953C139.418 152.043 138.363 150.801 136.81 150.801ZM136.611 156.209C135.568 156.209 134.865 155.312 134.865 153.953C134.865 152.6 135.568 151.697 136.611 151.697C137.695 151.697 138.375 152.576 138.375 153.953C138.375 155.336 137.695 156.209 136.611 156.209ZM143.013 151.686C143.973 151.686 144.612 152.412 144.636 153.432H141.325C141.389 152.418 142.057 151.686 143.013 151.686ZM144.612 155.254C144.442 155.828 143.874 156.221 143.1 156.221C142.005 156.221 141.319 155.453 141.319 154.287V154.229H145.69V153.842C145.69 151.996 144.677 150.801 143.03 150.801C141.348 150.801 140.27 152.084 140.27 153.977C140.27 155.893 141.331 157.105 143.077 157.105C144.407 157.105 145.438 156.32 145.614 155.254H144.612ZM151.948 157.105C153.629 157.105 154.766 155.893 154.766 153.953C154.766 152.008 153.629 150.801 151.948 150.801C150.26 150.801 149.124 152.008 149.124 153.953C149.124 155.893 150.26 157.105 151.948 157.105ZM151.948 156.209C150.87 156.209 150.161 155.389 150.161 153.953C150.161 152.518 150.87 151.697 151.948 151.697C153.026 151.697 153.729 152.518 153.729 153.953C153.729 155.389 153.026 156.209 151.948 156.209ZM156.246 157H157.265V151.744H158.507V150.906H157.259V150.232C157.259 149.629 157.523 149.336 158.074 149.336C158.244 149.336 158.414 149.354 158.537 149.371V148.545C158.39 148.521 158.144 148.498 157.915 148.498C156.79 148.498 156.246 149.055 156.246 150.227V150.906H155.396V151.744H156.246V157ZM170.015 150.906H169.007L167.788 155.863H167.765L166.382 150.906H165.398L164.021 155.863H163.997L162.779 150.906H161.765L163.47 157H164.507L165.878 152.283H165.902L167.279 157H168.316L170.015 150.906ZM173.498 157.105C175.18 157.105 176.316 155.893 176.316 153.953C176.316 152.008 175.18 150.801 173.498 150.801C171.811 150.801 170.674 152.008 170.674 153.953C170.674 155.893 171.811 157.105 173.498 157.105ZM173.498 156.209C172.42 156.209 171.711 155.389 171.711 153.953C171.711 152.518 172.42 151.697 173.498 151.697C174.576 151.697 175.279 152.518 175.279 153.953C175.279 155.389 174.576 156.209 173.498 156.209ZM177.468 157H178.487V153.203C178.487 152.342 179.003 151.773 179.794 151.773C180.04 151.773 180.257 151.803 180.339 151.832V150.842C180.257 150.83 180.104 150.801 179.929 150.801C179.214 150.801 178.651 151.229 178.452 151.902H178.429V150.906H177.468V157ZM182.363 153.613V148.545H181.344V157H182.363V154.703L182.931 154.164L185.193 157H186.377L183.652 153.537L186.295 150.906H185.058L182.363 153.613Z" fill="#3366FF"/>
<line x1="223.5" y1="137" x2="200.5" y2="137" stroke="#9CA3AF" stroke-linecap="round" stroke-dasharray="3 3"/>
<path d="M268.408 123.098H269.469C270.676 123.098 271.426 123.713 271.426 124.709C271.426 125.594 270.623 126.227 269.504 126.227C268.367 126.227 267.646 125.629 267.553 124.762H266.539C266.615 126.162 267.746 127.141 269.516 127.141C271.174 127.141 272.498 126.127 272.498 124.674C272.498 123.484 271.678 122.693 270.4 122.617V122.594C271.455 122.406 272.135 121.645 272.135 120.584C272.135 119.312 270.992 118.404 269.48 118.404C267.893 118.404 266.826 119.324 266.709 120.76H267.723C267.816 119.875 268.461 119.318 269.434 119.318C270.506 119.318 271.074 119.887 271.074 120.725C271.074 121.58 270.395 122.207 269.422 122.207H268.408V123.098Z" fill="#9CA3AF"/>
<rect x="258.5" y="111.5" width="23" height="23" rx="11.5" stroke="#9CA3AF"/>
<path d="M230.873 148.545H229.819V154.035C229.819 155.84 231.079 157.141 233.176 157.141C235.274 157.141 236.534 155.84 236.534 154.035V148.545H235.479V153.965C235.479 155.242 234.641 156.168 233.176 156.168C231.711 156.168 230.873 155.242 230.873 153.965V148.545ZM241.095 150.801C240.21 150.801 239.501 151.252 239.126 151.938H239.103V150.906H238.136V159.033H239.156V156.01H239.179C239.542 156.678 240.245 157.105 241.118 157.105C242.654 157.105 243.702 155.863 243.702 153.953C243.702 152.043 242.648 150.801 241.095 150.801ZM240.896 156.209C239.853 156.209 239.15 155.312 239.15 153.953C239.15 152.6 239.853 151.697 240.896 151.697C241.98 151.697 242.659 152.576 242.659 153.953C242.659 155.336 241.98 156.209 240.896 156.209ZM244.906 157H245.926V148.545H244.906V157ZM249.948 157.105C251.63 157.105 252.767 155.893 252.767 153.953C252.767 152.008 251.63 150.801 249.948 150.801C248.261 150.801 247.124 152.008 247.124 153.953C247.124 155.893 248.261 157.105 249.948 157.105ZM249.948 156.209C248.87 156.209 248.161 155.389 248.161 153.953C248.161 152.518 248.87 151.697 249.948 151.697C251.026 151.697 251.73 152.518 251.73 153.953C251.73 155.389 251.026 156.209 249.948 156.209ZM255.928 156.238C255.195 156.238 254.709 155.857 254.709 155.277C254.709 154.703 255.178 154.34 255.998 154.287L257.627 154.188V154.686C257.627 155.564 256.889 156.238 255.928 156.238ZM255.699 157.105C256.519 157.105 257.293 156.648 257.656 155.951H257.68V157H258.646V152.787C258.646 151.574 257.744 150.801 256.314 150.801C254.873 150.801 253.971 151.609 253.9 152.664H254.885C255.014 152.066 255.506 151.697 256.291 151.697C257.135 151.697 257.627 152.143 257.627 152.887V153.396L255.881 153.496C254.475 153.578 253.672 154.234 253.672 155.277C253.672 156.373 254.486 157.105 255.699 157.105ZM262.37 157.105C263.249 157.105 263.946 156.672 264.339 155.969H264.356V157H265.329V148.545H264.309V151.896H264.286C263.923 151.229 263.22 150.801 262.346 150.801C260.811 150.801 259.762 152.043 259.762 153.953C259.762 155.863 260.817 157.105 262.37 157.105ZM262.563 151.697C263.612 151.697 264.315 152.594 264.315 153.953C264.315 155.318 263.612 156.209 262.563 156.209C261.485 156.209 260.805 155.336 260.805 153.953C260.805 152.576 261.485 151.697 262.563 151.697ZM272.366 150.801C271.481 150.801 270.772 151.252 270.397 151.938H270.374V150.906H269.407V159.033H270.426V156.01H270.45C270.813 156.678 271.516 157.105 272.389 157.105C273.924 157.105 274.973 155.863 274.973 153.953C274.973 152.043 273.919 150.801 272.366 150.801ZM272.167 156.209C271.124 156.209 270.42 155.312 270.42 153.953C270.42 152.6 271.124 151.697 272.167 151.697C273.251 151.697 273.93 152.576 273.93 153.953C273.93 155.336 273.251 156.209 272.167 156.209ZM278.65 157.105C280.331 157.105 281.468 155.893 281.468 153.953C281.468 152.008 280.331 150.801 278.65 150.801C276.962 150.801 275.826 152.008 275.826 153.953C275.826 155.893 276.962 157.105 278.65 157.105ZM278.65 156.209C277.572 156.209 276.863 155.389 276.863 153.953C276.863 152.518 277.572 151.697 278.65 151.697C279.728 151.697 280.431 152.518 280.431 153.953C280.431 155.389 279.728 156.209 278.65 156.209ZM282.619 157H283.639V153.203C283.639 152.342 284.155 151.773 284.946 151.773C285.192 151.773 285.409 151.803 285.491 151.832V150.842C285.409 150.83 285.256 150.801 285.08 150.801C284.366 150.801 283.803 151.229 283.604 151.902H283.58V150.906H282.619V157ZM286.771 149.436V150.906H285.862V151.744H286.771V155.418C286.771 156.59 287.204 157.047 288.323 157.047C288.564 157.047 288.845 157.029 288.968 157V156.145C288.898 156.156 288.663 156.174 288.546 156.174C288.025 156.174 287.79 155.922 287.79 155.365V151.744H288.974V150.906H287.79V149.436H286.771ZM290.512 157H291.531V151.744H292.774V150.906H291.525V150.232C291.525 149.629 291.789 149.336 292.34 149.336C292.51 149.336 292.68 149.354 292.803 149.371V148.545C292.656 148.521 292.41 148.498 292.182 148.498C291.057 148.498 290.512 149.055 290.512 150.227V150.906H289.662V151.744H290.512V157ZM296.181 157.105C297.862 157.105 298.999 155.893 298.999 153.953C298.999 152.008 297.862 150.801 296.181 150.801C294.493 150.801 293.356 152.008 293.356 153.953C293.356 155.893 294.493 157.105 296.181 157.105ZM296.181 156.209C295.102 156.209 294.394 155.389 294.394 153.953C294.394 152.518 295.102 151.697 296.181 151.697C297.259 151.697 297.962 152.518 297.962 153.953C297.962 155.389 297.259 156.209 296.181 156.209ZM300.203 157H301.222V148.545H300.203V157ZM302.772 157H303.792V150.906H302.772V157ZM303.282 149.881C303.634 149.881 303.921 149.594 303.921 149.248C303.921 148.896 303.634 148.615 303.282 148.615C302.936 148.615 302.649 148.896 302.649 149.248C302.649 149.594 302.936 149.881 303.282 149.881ZM307.814 157.105C309.496 157.105 310.632 155.893 310.632 153.953C310.632 152.008 309.496 150.801 307.814 150.801C306.127 150.801 304.99 152.008 304.99 153.953C304.99 155.893 306.127 157.105 307.814 157.105ZM307.814 156.209C306.736 156.209 306.027 155.389 306.027 153.953C306.027 152.518 306.736 151.697 307.814 151.697C308.892 151.697 309.595 152.518 309.595 153.953C309.595 155.389 308.892 156.209 307.814 156.209Z" fill="#111827"/>
<rect x="0.5" y="99.5" width="326" height="74" rx="7.5" stroke="#D1D5DB"/>
<path d="M0 186L327 186" stroke="#E5E7EB"/>
</svg>
