<svg width="327" height="263" viewBox="0 0 327 263" fill="none" xmlns="http://www.w3.org/2000/svg">
<path d="M10.4785 19H12.793L7.70508 4.9082H5.3418L0.253906 19H2.5293L3.81836 15.1914H9.18945L10.4785 19ZM6.47461 7.25195H6.5332L8.63281 13.4336H4.375L6.47461 7.25195ZM17.8758 19.1758C19.3699 19.1758 20.5418 18.4238 21.1473 17.252H21.1863V19H23.2371V4.9082H21.118V10.4355H21.0789C20.5027 9.30273 19.3309 8.56055 17.8562 8.56055C15.2781 8.56055 13.5594 10.6211 13.5594 13.8633C13.5594 17.1055 15.2781 19.1758 17.8758 19.1758ZM18.4324 10.3379C20.0535 10.3379 21.1375 11.7344 21.1375 13.8633C21.1375 16.0117 20.0535 17.3887 18.4324 17.3887C16.7625 17.3887 15.7176 16.0312 15.7176 13.8633C15.7176 11.7051 16.7625 10.3379 18.4324 10.3379ZM29.4625 19.1758C30.9566 19.1758 32.1285 18.4238 32.734 17.252H32.773V19H34.8238V4.9082H32.7047V10.4355H32.6656C32.0895 9.30273 30.9176 8.56055 29.443 8.56055C26.8648 8.56055 25.1461 10.6211 25.1461 13.8633C25.1461 17.1055 26.8648 19.1758 29.4625 19.1758ZM30.0191 10.3379C31.6402 10.3379 32.7242 11.7344 32.7242 13.8633C32.7242 16.0117 31.6402 17.3887 30.0191 17.3887C28.3492 17.3887 27.3043 16.0312 27.3043 13.8633C27.3043 11.7051 28.3492 10.3379 30.0191 10.3379ZM46.8059 8.56055C45.3215 8.56055 44.1398 9.3125 43.5344 10.4941H43.4953V8.72656H41.4543V22.3984H43.5637V17.3105H43.6125C44.1984 18.4531 45.3703 19.1758 46.8449 19.1758C49.423 19.1758 51.132 17.1152 51.132 13.8633C51.132 10.6113 49.4133 8.56055 46.8059 8.56055ZM46.2492 17.3887C44.6281 17.3887 43.5539 16.002 43.5539 13.8633C43.5539 11.7441 44.6379 10.3379 46.2492 10.3379C47.9191 10.3379 48.9641 11.7148 48.9641 13.8633C48.9641 16.0215 47.9191 17.3887 46.2492 17.3887ZM57.377 19.1953C60.3164 19.1953 62.25 17.1738 62.25 13.8633C62.25 10.5625 60.3066 8.54102 57.377 8.54102C54.4473 8.54102 52.5039 10.5625 52.5039 13.8633C52.5039 17.1738 54.4375 19.1953 57.377 19.1953ZM57.377 17.457C55.7266 17.457 54.6523 16.1484 54.6523 13.8633C54.6523 11.5879 55.7266 10.2793 57.377 10.2793C59.0273 10.2793 60.1016 11.5879 60.1016 13.8633C60.1016 16.1484 59.0371 17.457 57.377 17.457ZM64.0809 19H66.1902V12.8477C66.1902 11.3926 67.0301 10.4844 68.3875 10.4844C68.7977 10.4844 69.1688 10.5332 69.3348 10.6016V8.63867C69.1785 8.60938 68.9148 8.56055 68.6121 8.56055C67.4012 8.56055 66.4832 9.27344 66.1414 10.4746H66.0926V8.72656H64.0809V19ZM71.4586 6.29492V8.72656H69.9645V10.3965H71.4586V16.2949C71.4586 18.2773 72.2691 19.0684 74.3492 19.0684C74.818 19.0684 75.2867 19.0293 75.5211 18.9707V17.3008C75.3844 17.3301 75.0426 17.3496 74.8277 17.3496C73.9684 17.3496 73.5777 16.9492 73.5777 16.0605V10.3965H75.5309V8.72656H73.5777V6.29492H71.4586ZM78.0844 19H80.2035V10.3965H82.2543V8.74609H80.1742V7.7793C80.1742 6.87109 80.6039 6.41211 81.5219 6.41211C81.8051 6.41211 82.0883 6.43164 82.2934 6.4707V4.9082C82.0199 4.85938 81.5414 4.81055 81.1117 4.81055C79.0219 4.81055 78.0844 5.74805 78.0844 7.74023V8.74609H76.6684V10.3965H78.0844V19ZM88.0988 19.1953C91.0383 19.1953 92.9719 17.1738 92.9719 13.8633C92.9719 10.5625 91.0285 8.54102 88.0988 8.54102C85.1691 8.54102 83.2258 10.5625 83.2258 13.8633C83.2258 17.1738 85.1594 19.1953 88.0988 19.1953ZM88.0988 17.457C86.4484 17.457 85.3742 16.1484 85.3742 13.8633C85.3742 11.5879 86.4484 10.2793 88.0988 10.2793C89.7492 10.2793 90.8234 11.5879 90.8234 13.8633C90.8234 16.1484 89.759 17.457 88.0988 17.457ZM94.8809 19H96.9902V4.9082H94.8809V19ZM99.4266 19H101.536V8.72656H99.4266V19ZM100.481 7.22266C101.165 7.22266 101.712 6.68555 101.712 6.02148C101.712 5.34766 101.165 4.81055 100.481 4.81055C99.8074 4.81055 99.2605 5.34766 99.2605 6.02148C99.2605 6.68555 99.8074 7.22266 100.481 7.22266ZM108.308 19.1953C111.248 19.1953 113.181 17.1738 113.181 13.8633C113.181 10.5625 111.238 8.54102 108.308 8.54102C105.379 8.54102 103.435 10.5625 103.435 13.8633C103.435 17.1738 105.369 19.1953 108.308 19.1953ZM108.308 17.457C106.658 17.457 105.584 16.1484 105.584 13.8633C105.584 11.5879 106.658 10.2793 108.308 10.2793C109.959 10.2793 111.033 11.5879 111.033 13.8633C111.033 16.1484 109.968 17.457 108.308 17.457ZM119.353 19H121.462V13.0625C121.462 11.4414 122.419 10.3672 123.982 10.3672C125.466 10.3672 126.228 11.2754 126.228 12.7891V19H128.347V12.3789C128.347 10.0547 126.999 8.55078 124.743 8.55078C123.181 8.55078 122.058 9.24414 121.491 10.4453H121.443V4.9082H119.353V19ZM134.885 10.2402C136.359 10.2402 137.355 11.3438 137.404 12.916H132.268C132.375 11.3633 133.41 10.2402 134.885 10.2402ZM137.395 15.9824C137.111 16.8809 136.223 17.4863 135.021 17.4863C133.332 17.4863 132.258 16.3047 132.258 14.5176V14.3906H139.514V13.668C139.514 10.5527 137.736 8.54102 134.885 8.54102C131.984 8.54102 130.129 10.6895 130.129 13.9121C130.129 17.1543 131.955 19.1953 134.973 19.1953C137.326 19.1953 139.104 17.8574 139.396 15.9824H137.395ZM141.354 19H143.464V12.8477C143.464 11.3926 144.304 10.4844 145.661 10.4844C146.071 10.4844 146.442 10.5332 146.608 10.6016V8.63867C146.452 8.60938 146.188 8.56055 145.886 8.56055C144.675 8.56055 143.757 9.27344 143.415 10.4746H143.366V8.72656H141.354V19ZM151.964 10.2402C153.439 10.2402 154.435 11.3438 154.484 12.916H149.347C149.455 11.3633 150.49 10.2402 151.964 10.2402ZM154.474 15.9824C154.191 16.8809 153.302 17.4863 152.101 17.4863C150.412 17.4863 149.337 16.3047 149.337 14.5176V14.3906H156.593V13.668C156.593 10.5527 154.816 8.54102 151.964 8.54102C149.064 8.54102 147.209 10.6895 147.209 13.9121C147.209 17.1543 149.035 19.1953 152.052 19.1953C154.406 19.1953 156.183 17.8574 156.476 15.9824H154.474Z" fill="#111827"/>
<rect x="0.75" y="40.75" width="325.5" height="221.5" rx="7.25" fill="#ECF2FF"/>
<rect x="135.5" y="56" width="56" height="56" rx="28" fill="#D6E4FF"/>
<path d="M174.833 81.5867H170.98C167.82 81.5867 165.247 79.0133 165.247 75.8533V72C165.247 71.2667 164.647 70.6667 163.913 70.6667H158.26C154.153 70.6667 150.833 73.3333 150.833 78.0933V89.9067C150.833 94.6667 154.153 97.3333 158.26 97.3333H168.74C172.847 97.3333 176.167 94.6667 176.167 89.9067V82.92C176.167 82.1867 175.567 81.5867 174.833 81.5867ZM162.873 86.04C162.673 86.24 162.42 86.3333 162.167 86.3333C161.913 86.3333 161.66 86.24 161.46 86.04L160.5 85.08V90.6667C160.5 91.2133 160.047 91.6667 159.5 91.6667C158.953 91.6667 158.5 91.2133 158.5 90.6667V85.08L157.54 86.04C157.153 86.4267 156.513 86.4267 156.127 86.04C155.74 85.6533 155.74 85.0133 156.127 84.6267L158.793 81.96C158.887 81.88 158.98 81.8133 159.087 81.76C159.113 81.7467 159.153 81.7333 159.18 81.72C159.26 81.6933 159.34 81.68 159.433 81.6667C159.473 81.6667 159.5 81.6667 159.54 81.6667C159.647 81.6667 159.753 81.6933 159.86 81.7333C159.873 81.7333 159.873 81.7333 159.887 81.7333C159.993 81.7733 160.1 81.8533 160.18 81.9333C160.193 81.9467 160.207 81.9467 160.207 81.96L162.873 84.6267C163.26 85.0133 163.26 85.6533 162.873 86.04Z" fill="#3366FF"/>
<path d="M170.74 79.7467C172.007 79.76 173.767 79.76 175.273 79.76C176.033 79.76 176.433 78.8667 175.9 78.3333C173.98 76.4 170.54 72.92 168.567 70.9467C168.02 70.4 167.073 70.7733 167.073 71.5333V76.1867C167.073 78.1333 168.727 79.7467 170.74 79.7467Z" fill="#3366FF"/>
<path d="M81.9284 133.317H79.9596V141.544C79.9596 144.277 81.9108 146.211 85.0924 146.211C88.2741 146.211 90.2252 144.277 90.2252 141.544V133.317H88.2653V141.377C88.2653 143.188 87.1139 144.462 85.0924 144.462C83.0709 144.462 81.9284 143.188 81.9284 141.377V133.317ZM97.331 136.604C95.9951 136.604 94.9316 137.281 94.3867 138.345H94.3515V136.754H92.5146V149.059H94.413V144.479H94.457C94.9843 145.508 96.039 146.158 97.3662 146.158C99.6865 146.158 101.225 144.304 101.225 141.377C101.225 138.45 99.6777 136.604 97.331 136.604ZM96.83 144.55C95.3711 144.55 94.4043 143.302 94.4043 141.377C94.4043 139.47 95.3798 138.204 96.83 138.204C98.333 138.204 99.2734 139.443 99.2734 141.377C99.2734 143.319 98.333 144.55 96.83 144.55ZM102.943 146H104.841V133.317H102.943V146ZM110.945 146.176C113.59 146.176 115.331 144.356 115.331 141.377C115.331 138.406 113.582 136.587 110.945 136.587C108.308 136.587 106.559 138.406 106.559 141.377C106.559 144.356 108.299 146.176 110.945 146.176ZM110.945 144.611C109.46 144.611 108.493 143.434 108.493 141.377C108.493 139.329 109.46 138.151 110.945 138.151C112.43 138.151 113.397 139.329 113.397 141.377C113.397 143.434 112.439 144.611 110.945 144.611ZM120.213 144.655C119.193 144.655 118.525 144.128 118.525 143.319C118.525 142.528 119.167 142.027 120.301 141.948L122.577 141.808V142.537C122.577 143.741 121.54 144.655 120.213 144.655ZM119.685 146.158C120.898 146.158 122.067 145.508 122.603 144.479H122.647V146H124.467V139.628C124.467 137.773 123.034 136.587 120.793 136.587C118.508 136.587 117.084 137.817 116.978 139.487H118.771C118.938 138.661 119.624 138.134 120.723 138.134C121.883 138.134 122.577 138.749 122.577 139.777V140.489L120.046 140.639C117.849 140.762 116.609 141.755 116.609 143.372C116.609 145.033 117.875 146.158 119.685 146.158ZM129.964 146.158C131.309 146.158 132.364 145.481 132.908 144.427H132.944V146H134.789V133.317H132.882V138.292H132.847C132.328 137.272 131.274 136.604 129.947 136.604C127.626 136.604 126.079 138.459 126.079 141.377C126.079 144.295 127.626 146.158 129.964 146.158ZM130.465 138.204C131.924 138.204 132.9 139.461 132.9 141.377C132.9 143.311 131.924 144.55 130.465 144.55C128.962 144.55 128.022 143.328 128.022 141.377C128.022 139.435 128.962 138.204 130.465 138.204ZM141.671 149.445C143.596 149.445 144.501 148.725 145.292 146.483L148.764 136.754H146.76L144.413 144.277H144.387L142.04 136.754H139.983L143.323 146.009C143.323 146.018 143.156 146.562 143.156 146.58C142.866 147.529 142.4 147.898 141.513 147.898C141.354 147.898 141.038 147.898 140.897 147.863V149.401C141.038 149.428 141.521 149.445 141.671 149.445ZM153.769 146.176C156.414 146.176 158.154 144.356 158.154 141.377C158.154 138.406 156.405 136.587 153.769 136.587C151.132 136.587 149.383 138.406 149.383 141.377C149.383 144.356 151.123 146.176 153.769 146.176ZM153.769 144.611C152.283 144.611 151.317 143.434 151.317 141.377C151.317 139.329 152.283 138.151 153.769 138.151C155.254 138.151 156.221 139.329 156.221 141.377C156.221 143.434 155.263 144.611 153.769 144.611ZM167.73 136.754H165.832V142.142C165.832 143.583 165.005 144.532 163.634 144.532C162.325 144.532 161.657 143.776 161.657 142.37V136.754H159.758V142.739C159.758 144.857 160.989 146.167 163.001 146.167C164.417 146.167 165.357 145.543 165.867 144.436H165.911V146H167.73V136.754ZM169.791 146H171.689V140.463C171.689 139.153 172.445 138.336 173.667 138.336C174.036 138.336 174.37 138.38 174.519 138.441V136.675C174.379 136.648 174.141 136.604 173.869 136.604C172.779 136.604 171.953 137.246 171.645 138.327H171.601V136.754H169.791V146ZM183.686 146.176C186.332 146.176 188.072 144.356 188.072 141.377C188.072 138.406 186.323 136.587 183.686 136.587C181.049 136.587 179.3 138.406 179.3 141.377C179.3 144.356 181.041 146.176 183.686 146.176ZM183.686 144.611C182.201 144.611 181.234 143.434 181.234 141.377C181.234 139.329 182.201 138.151 183.686 138.151C185.171 138.151 186.138 139.329 186.138 141.377C186.138 143.434 185.18 144.611 183.686 144.611ZM190.273 134.565V136.754H188.929V138.257H190.273V143.565C190.273 145.35 191.003 146.062 192.875 146.062C193.297 146.062 193.719 146.026 193.929 145.974V144.471C193.806 144.497 193.499 144.515 193.305 144.515C192.532 144.515 192.18 144.154 192.18 143.354V138.257H193.938V136.754H192.18V134.565H190.273ZM195.753 146H197.651V140.656C197.651 139.197 198.513 138.23 199.919 138.23C201.255 138.23 201.941 139.048 201.941 140.41V146H203.848V140.041C203.848 137.949 202.635 136.596 200.605 136.596C199.198 136.596 198.188 137.22 197.678 138.301H197.634V133.317H195.753V146ZM209.732 138.116C211.059 138.116 211.956 139.109 211.999 140.524H207.376C207.473 139.127 208.405 138.116 209.732 138.116ZM211.991 143.284C211.736 144.093 210.936 144.638 209.855 144.638C208.334 144.638 207.368 143.574 207.368 141.966V141.852H213.898V141.201C213.898 138.397 212.298 136.587 209.732 136.587C207.122 136.587 205.452 138.521 205.452 141.421C205.452 144.339 207.095 146.176 209.811 146.176C211.929 146.176 213.529 144.972 213.792 143.284H211.991ZM215.554 146H217.453V140.463C217.453 139.153 218.209 138.336 219.43 138.336C219.8 138.336 220.134 138.38 220.283 138.441V136.675C220.142 136.648 219.905 136.604 219.633 136.604C218.543 136.604 217.717 137.246 217.409 138.327H217.365V136.754H215.554V146ZM226.031 146H227.938V138.257H229.784V136.771H227.912V135.901C227.912 135.084 228.298 134.671 229.124 134.671C229.379 134.671 229.634 134.688 229.819 134.724V133.317C229.573 133.273 229.142 133.229 228.755 133.229C226.874 133.229 226.031 134.073 226.031 135.866V136.771H224.756V138.257H226.031V146ZM231.519 146H233.418V136.754H231.519V146ZM232.468 135.4C233.084 135.4 233.576 134.917 233.576 134.319C233.576 133.713 233.084 133.229 232.468 133.229C231.862 133.229 231.37 133.713 231.37 134.319C231.37 134.917 231.862 135.4 232.468 135.4ZM235.61 146H237.509V133.317H235.61V146ZM243.507 138.116C244.834 138.116 245.731 139.109 245.775 140.524H241.152C241.248 139.127 242.18 138.116 243.507 138.116ZM245.766 143.284C245.511 144.093 244.711 144.638 243.63 144.638C242.11 144.638 241.143 143.574 241.143 141.966V141.852H247.673V141.201C247.673 138.397 246.074 136.587 243.507 136.587C240.897 136.587 239.227 138.521 239.227 141.421C239.227 144.339 240.87 146.176 243.586 146.176C245.704 146.176 247.304 144.972 247.568 143.284H245.766Z" fill="#111827"/>
<path d="M122.587 172V163.545H121.362L118.444 170.6H118.397L115.479 163.545H114.255V172H115.239V165.484H115.28L117.975 171.941H118.866L121.561 165.484H121.602V172H122.587ZM126.023 171.238C125.291 171.238 124.804 170.857 124.804 170.277C124.804 169.703 125.273 169.34 126.093 169.287L127.722 169.188V169.686C127.722 170.564 126.984 171.238 126.023 171.238ZM125.794 172.105C126.615 172.105 127.388 171.648 127.751 170.951H127.775V172H128.742V167.787C128.742 166.574 127.839 165.801 126.41 165.801C124.968 165.801 124.066 166.609 123.996 167.664H124.98C125.109 167.066 125.601 166.697 126.386 166.697C127.23 166.697 127.722 167.143 127.722 167.887V168.396L125.976 168.496C124.57 168.578 123.767 169.234 123.767 170.277C123.767 171.373 124.582 172.105 125.794 172.105ZM132.313 169.68L133.772 172H134.903L132.875 168.912L134.932 165.906H133.795L132.348 168.191H132.325L130.86 165.906H129.723L131.762 168.953L129.688 172H130.819L132.289 169.68H132.313ZM136.775 172.059C137.15 172.059 137.443 171.766 137.443 171.391C137.443 171.016 137.15 170.723 136.775 170.723C136.4 170.723 136.107 171.016 136.107 171.391C136.107 171.766 136.4 172.059 136.775 172.059ZM141.403 172H142.423V166.744H143.665V165.906H142.417V165.232C142.417 164.629 142.681 164.336 143.231 164.336C143.401 164.336 143.571 164.354 143.694 164.371V163.545C143.548 163.521 143.302 163.498 143.073 163.498C141.948 163.498 141.403 164.055 141.403 165.227V165.906H140.554V166.744H141.403V172ZM144.893 172H145.912V165.906H144.893V172ZM145.402 164.881C145.754 164.881 146.041 164.594 146.041 164.248C146.041 163.896 145.754 163.615 145.402 163.615C145.057 163.615 144.769 163.896 144.769 164.248C144.769 164.594 145.057 164.881 145.402 164.881ZM147.462 172H148.481V163.545H147.462V172ZM152.422 166.686C153.383 166.686 154.021 167.412 154.045 168.432H150.734C150.799 167.418 151.466 166.686 152.422 166.686ZM154.021 170.254C153.851 170.828 153.283 171.221 152.509 171.221C151.414 171.221 150.728 170.453 150.728 169.287V169.229H155.099V168.842C155.099 166.996 154.086 165.801 152.439 165.801C150.758 165.801 149.679 167.084 149.679 168.977C149.679 170.893 150.74 172.105 152.486 172.105C153.816 172.105 154.847 171.32 155.023 170.254H154.021ZM158.726 167.588C158.726 168.42 159.253 168.971 160.326 169.246L161.398 169.521C162.083 169.703 162.335 169.938 162.335 170.371C162.335 170.922 161.826 171.273 160.999 171.273C160.173 171.273 159.693 170.934 159.581 170.301H158.562C158.667 171.379 159.599 172.105 160.935 172.105C162.359 172.105 163.361 171.355 163.361 170.295C163.361 169.398 162.915 168.953 161.685 168.643L160.742 168.414C160.05 168.238 159.728 167.957 159.728 167.535C159.728 167.002 160.22 166.633 160.964 166.633C161.714 166.633 162.189 166.996 162.259 167.582H163.232C163.185 166.551 162.259 165.801 160.999 165.801C159.658 165.801 158.726 166.545 158.726 167.588ZM164.594 172H165.614V165.906H164.594V172ZM165.104 164.881C165.455 164.881 165.742 164.594 165.742 164.248C165.742 163.896 165.455 163.615 165.104 163.615C164.758 163.615 164.471 163.896 164.471 164.248C164.471 164.594 164.758 164.881 165.104 164.881ZM166.982 172H171.529V171.162H168.159V171.145L171.511 166.65V165.906H166.988V166.744H170.357V166.762L166.982 171.273V172ZM175.053 166.686C176.014 166.686 176.652 167.412 176.676 168.432H173.365C173.43 167.418 174.098 166.686 175.053 166.686ZM176.652 170.254C176.482 170.828 175.914 171.221 175.141 171.221C174.045 171.221 173.359 170.453 173.359 169.287V169.229H177.731V168.842C177.731 166.996 176.717 165.801 175.07 165.801C173.389 165.801 172.311 167.084 172.311 168.977C172.311 170.893 173.371 172.105 175.117 172.105C176.447 172.105 177.479 171.32 177.654 170.254H176.652ZM183.642 172H184.662V163.545H183.631L181.381 165.162V166.275L183.619 164.664H183.642V172ZM189.885 172.141C191.854 172.141 192.991 170.436 192.991 167.764C192.991 165.109 191.848 163.404 189.885 163.404C187.923 163.404 186.768 165.121 186.768 167.77C186.768 170.441 187.911 172.141 189.885 172.141ZM189.885 171.221C188.561 171.221 187.829 169.873 187.829 167.764C187.829 165.701 188.579 164.33 189.885 164.33C191.192 164.33 191.93 165.689 191.93 167.77C191.93 169.879 191.204 171.221 189.885 171.221ZM205.372 172V163.545H204.147L201.229 170.6H201.182L198.264 163.545H197.04V172H198.024V165.484H198.065L200.76 171.941H201.651L204.346 165.484H204.387V172H205.372ZM210.326 172C212.124 172 213.191 171.115 213.191 169.627C213.191 168.502 212.452 167.693 211.304 167.547V167.5C212.119 167.354 212.763 166.533 212.763 165.654C212.763 164.389 211.785 163.545 210.337 163.545H207.132V172H210.326ZM208.187 164.477H210.097C211.122 164.477 211.697 164.939 211.697 165.777C211.697 166.691 211.017 167.189 209.769 167.189H208.187V164.477ZM208.187 171.068V168.098H210.068C211.415 168.098 212.107 168.596 212.107 169.574C212.107 170.553 211.439 171.068 210.167 171.068H208.187Z" fill="#6B7280"/>
<rect x="16.5" y="201.5" width="294" height="41" rx="20.5" fill="#D6E4FF"/>
<path d="M137.717 230.542H132.284C128.192 230.542 126.442 228.792 126.442 224.7V224.592C126.442 220.892 127.9 219.108 131.167 218.8C131.5 218.775 131.817 219.025 131.85 219.367C131.884 219.708 131.634 220.017 131.284 220.05C128.667 220.292 127.692 221.525 127.692 224.6V224.708C127.692 228.1 128.892 229.3 132.284 229.3H137.717C141.109 229.3 142.309 228.1 142.309 224.708V224.6C142.309 221.508 141.317 220.275 138.65 220.05C138.309 220.017 138.05 219.717 138.084 219.375C138.117 219.033 138.409 218.775 138.759 218.808C142.075 219.092 143.559 220.883 143.559 224.608V224.717C143.559 228.792 141.809 230.542 137.717 230.542Z" fill="#3366FF"/>
<path d="M135 225.125C134.658 225.125 134.375 224.842 134.375 224.5V215.017C134.375 214.675 134.658 214.392 135 214.392C135.342 214.392 135.625 214.675 135.625 215.017V224.5C135.625 224.842 135.342 225.125 135 225.125Z" fill="#3366FF"/>
<path d="M137.792 217.5C137.633 217.5 137.475 217.442 137.35 217.317L135 214.967L132.65 217.317C132.408 217.558 132.008 217.558 131.767 217.317C131.525 217.075 131.525 216.675 131.767 216.433L134.558 213.642C134.8 213.4 135.2 213.4 135.442 213.642L138.233 216.433C138.475 216.675 138.475 217.075 138.233 217.317C138.117 217.442 137.95 217.5 137.792 217.5Z" fill="#3366FF"/>
<path d="M162.486 227H164.106L160.544 217.136H158.89L155.328 227H156.921L157.823 224.334H161.583L162.486 227ZM159.683 218.776H159.724L161.194 223.104H158.213L159.683 218.776ZM167.664 227.123C168.71 227.123 169.53 226.597 169.954 225.776H169.981V227H171.417V217.136H169.933V221.005H169.906C169.503 220.212 168.682 219.692 167.65 219.692C165.845 219.692 164.642 221.135 164.642 223.404C164.642 225.674 165.845 227.123 167.664 227.123ZM168.053 220.937C169.188 220.937 169.947 221.914 169.947 223.404C169.947 224.908 169.188 225.872 168.053 225.872C166.884 225.872 166.153 224.922 166.153 223.404C166.153 221.894 166.884 220.937 168.053 220.937ZM175.774 227.123C176.82 227.123 177.641 226.597 178.064 225.776H178.092V227H179.527V217.136H178.044V221.005H178.017C177.613 220.212 176.793 219.692 175.761 219.692C173.956 219.692 172.753 221.135 172.753 223.404C172.753 225.674 173.956 227.123 175.774 227.123ZM176.164 220.937C177.299 220.937 178.058 221.914 178.058 223.404C178.058 224.908 177.299 225.872 176.164 225.872C174.995 225.872 174.264 224.922 174.264 223.404C174.264 221.894 174.995 220.937 176.164 220.937ZM184.599 227H186.083V220.978H187.518V219.822H186.062V219.146C186.062 218.51 186.363 218.188 187.006 218.188C187.204 218.188 187.402 218.202 187.546 218.229V217.136C187.354 217.102 187.019 217.067 186.718 217.067C185.256 217.067 184.599 217.724 184.599 219.118V219.822H183.608V220.978H184.599V227ZM188.868 227H190.345V219.809H188.868V227ZM189.606 218.756C190.085 218.756 190.468 218.38 190.468 217.915C190.468 217.443 190.085 217.067 189.606 217.067C189.135 217.067 188.752 217.443 188.752 217.915C188.752 218.38 189.135 218.756 189.606 218.756ZM192.05 227H193.527V217.136H192.05V227ZM198.192 220.868C199.224 220.868 199.922 221.641 199.956 222.741H196.36C196.435 221.654 197.16 220.868 198.192 220.868ZM199.949 224.888C199.751 225.517 199.129 225.94 198.288 225.94C197.105 225.94 196.353 225.113 196.353 223.862V223.773H201.432V223.268C201.432 221.087 200.188 219.679 198.192 219.679C196.162 219.679 194.863 221.183 194.863 223.438C194.863 225.708 196.141 227.137 198.254 227.137C199.901 227.137 201.145 226.2 201.35 224.888H199.949Z" fill="#3366FF"/>
<rect x="16.5" y="201.5" width="294" height="41" rx="20.5" stroke="#3366FF"/>
<rect x="0.75" y="40.75" width="325.5" height="221.5" rx="7.25" stroke="#3366FF" stroke-width="1.5" stroke-dasharray="5 5"/>
</svg>
