<svg width="303" height="45" viewBox="0 0 303 45" fill="none" xmlns="http://www.w3.org/2000/svg">
<rect y="2.5" width="40" height="40" rx="8" fill="#105DFB"/>
<circle cx="20" cy="23" r="14" fill="#105DFB"/>
<path fill-rule="evenodd" clip-rule="evenodd" d="M10.876 28.9595V16.7435H16.5232C18.3372 16.7435 19.8076 18.2139 19.8076 20.0278C19.8076 21.1805 19.4532 21.8945 18.1536 22.627C19.7088 23.3356 20.1407 24.3177 20.1407 25.6875C20.1407 27.5406 18.4944 28.9595 16.6414 28.9595H10.876ZM13.2657 18.7656V21.7031H16.0625C16.0625 21.7031 17.4219 21.7031 17.4219 20.2344C17.4219 18.7656 16.0625 18.7656 16.0625 18.7656H13.2657ZM13.2657 26.8906V23.7188H16.2657C16.75 23.7188 17.7657 23.9688 17.7657 25.4688C17.7657 26.5813 16.7657 26.8802 16.2657 26.8906H13.2657Z" fill="white"/>
<path fill-rule="evenodd" clip-rule="evenodd" d="M25.25 20.1094C23.5313 20.1094 20.9844 21.3438 20.9844 24.625C20.9844 26.623 22.0782 29.1875 25.3594 29.1875C27.9844 29.1875 29.1927 27.2604 29.4688 26.2969H27C26.875 26.7344 26.3907 27.2188 25.3594 27.2188C23.8594 27.2188 23.3282 25.9375 23.25 25.2969H29.4688V24.625C29.4688 21.3438 26.9688 20.1094 25.25 20.1094ZM25.25 21.9844C23.85 21.9844 23.3334 23.1406 23.25 23.7188H27C27 23.1406 26.65 21.9844 25.25 21.9844Z" fill="white"/>
<path d="M22.2657 17.4375V18.9531H28.1563V17.4375H22.2657Z" fill="white"/>
<path d="M56.334 14.748C56.334 16.8574 57.8896 18.2812 60.1748 18.2812C62.6445 18.2812 64.1211 16.8223 64.1211 14.3086V5.31738H62.1523V14.2998C62.1523 15.75 61.4492 16.5234 60.1572 16.5234C59.0586 16.5234 58.2939 15.8027 58.2676 14.748H56.334ZM74.3646 8.75391H72.4661V14.1416C72.4661 15.583 71.64 16.5322 70.2689 16.5322C68.9593 16.5322 68.2913 15.7764 68.2913 14.3701V8.75391H66.3929V14.7393C66.3929 16.8574 67.6234 18.167 69.6361 18.167C71.0511 18.167 71.9915 17.543 72.5013 16.4355H72.5452V18H74.3646V8.75391ZM76.4254 18H78.3239V12.6123C78.3239 11.1797 79.1852 10.2305 80.5211 10.2305C81.8395 10.2305 82.4899 10.9951 82.4899 12.3838V18H84.3971V12.0146C84.3971 9.89648 83.2282 8.5957 81.1891 8.5957C79.7653 8.5957 78.7809 9.24609 78.2799 10.3008H78.236V8.75391H76.4254V18ZM86.4755 18H88.374V8.75391H86.4755V18ZM87.4248 7.40039C88.04 7.40039 88.5322 6.91699 88.5322 6.31934C88.5322 5.71289 88.04 5.22949 87.4248 5.22949C86.8183 5.22949 86.3261 5.71289 86.3261 6.31934C86.3261 6.91699 86.8183 7.40039 87.4248 7.40039ZM94.469 18.1758C97.1145 18.1758 98.8548 16.3564 98.8548 13.377C98.8548 10.4062 97.1057 8.58691 94.469 8.58691C91.8323 8.58691 90.0833 10.4062 90.0833 13.377C90.0833 16.3564 91.8235 18.1758 94.469 18.1758ZM94.469 16.6113C92.9837 16.6113 92.0169 15.4336 92.0169 13.377C92.0169 11.3291 92.9837 10.1514 94.469 10.1514C95.9544 10.1514 96.9212 11.3291 96.9212 13.377C96.9212 15.4336 95.9632 16.6113 94.469 16.6113ZM100.503 18H102.401V12.4629C102.401 11.1533 103.157 10.3359 104.379 10.3359C104.748 10.3359 105.082 10.3799 105.231 10.4414V8.6748C105.09 8.64844 104.853 8.60449 104.581 8.60449C103.491 8.60449 102.665 9.24609 102.357 10.3271H102.313V8.75391H100.503V18ZM112.622 5.31738H110.654V13.5439C110.654 16.2773 112.605 18.2109 115.786 18.2109C118.968 18.2109 120.919 16.2773 120.919 13.5439V5.31738H118.959V13.377C118.959 15.1875 117.808 16.4619 115.786 16.4619C113.765 16.4619 112.622 15.1875 112.622 13.377V5.31738ZM125.406 18V5.31738H123.437V18H125.406ZM131.76 5.31738V18H136.234C140.013 18 142.237 15.6445 142.237 11.6367C142.237 7.6377 140.004 5.31738 136.234 5.31738H131.76ZM133.729 7.01367H136.049C138.73 7.01367 140.224 8.66602 140.224 11.6543C140.224 14.6514 138.738 16.2949 136.049 16.2949H133.729V7.01367ZM147.936 10.1162C149.263 10.1162 150.16 11.1094 150.204 12.5244H145.581C145.677 11.127 146.609 10.1162 147.936 10.1162ZM150.195 15.2842C149.94 16.0928 149.14 16.6377 148.059 16.6377C146.539 16.6377 145.572 15.5742 145.572 13.9658V13.8516H152.102V13.2012C152.102 10.3975 150.502 8.58691 147.936 8.58691C145.326 8.58691 143.656 10.5205 143.656 13.4209C143.656 16.3389 145.299 18.1758 148.015 18.1758C150.133 18.1758 151.733 16.9717 151.997 15.2842H150.195ZM153.592 11.373C153.592 12.665 154.435 13.5352 156.105 13.9395L157.758 14.3438C158.724 14.5898 159.076 14.915 159.076 15.5039C159.076 16.251 158.373 16.7256 157.23 16.7256C156.07 16.7256 155.385 16.2334 155.235 15.3457H153.354C153.504 17.042 154.954 18.1758 157.142 18.1758C159.41 18.1758 160.983 17.0156 160.983 15.3281C160.983 13.9658 160.28 13.2627 158.417 12.8145L156.861 12.4541C155.903 12.2168 155.446 11.8301 155.446 11.2588C155.446 10.5293 156.132 10.0283 157.16 10.0283C158.223 10.0283 158.9 10.5469 158.988 11.3818H160.772C160.711 9.73828 159.269 8.58691 157.213 8.58691C155.051 8.58691 153.592 9.7207 153.592 11.373ZM162.701 18H164.6V8.75391H162.701V18ZM163.651 7.40039C164.266 7.40039 164.758 6.91699 164.758 6.31934C164.758 5.71289 164.266 5.22949 163.651 5.22949C163.044 5.22949 162.552 5.71289 162.552 6.31934C162.552 6.91699 163.044 7.40039 163.651 7.40039ZM170.66 16.4619C169.201 16.4619 168.251 15.2842 168.251 13.3506C168.251 11.4258 169.201 10.2041 170.66 10.2041C172.145 10.2041 173.121 11.4521 173.121 13.3506C173.121 15.2578 172.145 16.4619 170.66 16.4619ZM170.677 21.4805C173.314 21.4805 175.019 20.0391 175.019 17.833V8.75391H173.173V10.3359H173.138C172.576 9.26367 171.503 8.60449 170.194 8.60449C167.821 8.60449 166.309 10.4326 166.309 13.3418C166.309 16.2246 167.83 18.0352 170.15 18.0352C171.468 18.0352 172.558 17.376 173.077 16.374H173.112V17.8945C173.112 19.1602 172.233 20.0039 170.748 20.0039C169.666 20.0039 168.823 19.4941 168.55 18.7207H166.643C166.88 20.3203 168.498 21.4805 170.677 21.4805ZM177.08 18H178.978V12.6123C178.978 11.1797 179.84 10.2305 181.176 10.2305C182.494 10.2305 183.144 10.9951 183.144 12.3838V18H185.052V12.0146C185.052 9.89648 183.883 8.5957 181.844 8.5957C180.42 8.5957 179.435 9.24609 178.934 10.3008H178.89V8.75391H177.08V18ZM190.936 10.1162C192.263 10.1162 193.159 11.1094 193.203 12.5244H188.58C188.677 11.127 189.609 10.1162 190.936 10.1162ZM193.194 15.2842C192.94 16.0928 192.14 16.6377 191.059 16.6377C189.538 16.6377 188.571 15.5742 188.571 13.9658V13.8516H195.102V13.2012C195.102 10.3975 193.502 8.58691 190.936 8.58691C188.325 8.58691 186.655 10.5205 186.655 13.4209C186.655 16.3389 188.299 18.1758 191.015 18.1758C193.133 18.1758 194.733 16.9717 194.996 15.2842H193.194ZM196.758 18H198.657V12.4629C198.657 11.1533 199.413 10.3359 200.634 10.3359C201.003 10.3359 201.337 10.3799 201.487 10.4414V8.6748C201.346 8.64844 201.109 8.60449 200.836 8.60449C199.747 8.60449 198.92 9.24609 198.613 10.3271H198.569V8.75391H196.758V18Z" fill="#111827"/>
<path d="M60.0137 40C61.8125 40 62.8789 39.1152 62.8789 37.627C62.8789 36.502 62.1406 35.6934 60.9922 35.5469V35.5C61.8066 35.3535 62.4512 34.5332 62.4512 33.6543C62.4512 32.3887 61.4727 31.5449 60.0254 31.5449H56.8203V40H60.0137ZM57.875 32.4766H59.7852C60.8105 32.4766 61.3848 32.9395 61.3848 33.7773C61.3848 34.6914 60.7051 35.1895 59.457 35.1895H57.875V32.4766ZM57.875 39.0684V36.0977H59.7559C61.1035 36.0977 61.7949 36.5957 61.7949 37.5742C61.7949 38.5527 61.127 39.0684 59.8555 39.0684H57.875ZM66.4794 34.6855C67.4403 34.6855 68.079 35.4121 68.1024 36.4316H64.7919C64.8563 35.418 65.5243 34.6855 66.4794 34.6855ZM68.079 38.2539C67.9091 38.8281 67.3407 39.2207 66.5673 39.2207C65.4716 39.2207 64.786 38.4531 64.786 37.2871V37.2285H69.1571V36.8418C69.1571 34.9961 68.1434 33.8008 66.497 33.8008C64.8153 33.8008 63.7372 35.084 63.7372 36.9766C63.7372 38.8926 64.7977 40.1055 66.5438 40.1055C67.8739 40.1055 68.9052 39.3203 69.0809 38.2539H68.079ZM70.3611 40H71.3806V36.4492C71.3806 35.3945 72.0076 34.7031 73.0212 34.7031C73.9763 34.7031 74.4627 35.2832 74.4627 36.25V40H75.4822V36.0625C75.4822 34.7031 74.6736 33.8008 73.3377 33.8008C72.4119 33.8008 71.7439 34.1992 71.4041 34.8789H71.3806V31.5449H70.3611V40ZM78.9069 39.2383C78.1745 39.2383 77.6881 38.8574 77.6881 38.2773C77.6881 37.7031 78.1569 37.3398 78.9772 37.2871L80.6061 37.1875V37.6855C80.6061 38.5645 79.8678 39.2383 78.9069 39.2383ZM78.6784 40.1055C79.4987 40.1055 80.2721 39.6484 80.6354 38.9512H80.6588V40H81.6256V35.7871C81.6256 34.5742 80.7233 33.8008 79.2936 33.8008C77.8522 33.8008 76.9498 34.6094 76.8795 35.6641H77.8639C77.9928 35.0664 78.485 34.6973 79.2702 34.6973C80.1139 34.6973 80.6061 35.1426 80.6061 35.8867V36.3965L78.86 36.4961C77.4538 36.5781 76.651 37.2344 76.651 38.2773C76.651 39.373 77.4655 40.1055 78.6784 40.1055ZM83.0405 40H84.0601V36.4141C84.0601 35.3828 84.687 34.7031 85.648 34.7031C86.5855 34.7031 87.0484 35.2422 87.0484 36.2266V40H88.0679V36.0449C88.0679 34.6621 87.2945 33.8008 85.9585 33.8008C85.0152 33.8008 84.3648 34.2227 84.0249 34.8789H84.0015V33.9062H83.0405V40ZM94.5512 35.9043C94.4223 34.8086 93.5141 33.8008 91.9906 33.8008C90.309 33.8008 89.1898 35.0312 89.1898 36.9531C89.1898 38.916 90.3148 40.1055 92.0023 40.1055C93.3852 40.1055 94.4047 39.25 94.5629 38.0371H93.5609C93.3852 38.7695 92.8402 39.209 92.0082 39.209C90.9535 39.209 90.227 38.3711 90.227 36.9531C90.227 35.5703 90.9418 34.6973 91.9965 34.6973C92.893 34.6973 93.4086 35.2422 93.5551 35.9043H94.5512ZM98.0638 34.6855C99.0247 34.6855 99.6634 35.4121 99.6868 36.4316H96.3763C96.4407 35.418 97.1087 34.6855 98.0638 34.6855ZM99.6634 38.2539C99.4934 38.8281 98.9251 39.2207 98.1516 39.2207C97.0559 39.2207 96.3704 38.4531 96.3704 37.2871V37.2285H100.741V36.8418C100.741 34.9961 99.7278 33.8008 98.0813 33.8008C96.3997 33.8008 95.3216 35.084 95.3216 36.9766C95.3216 38.8926 96.3821 40.1055 98.1282 40.1055C99.4583 40.1055 100.49 39.3203 100.665 38.2539H99.6634ZM106.706 38.5059C107.685 38.5059 108.487 37.7031 108.487 36.7246C108.487 35.7461 107.685 34.9434 106.706 34.9434C105.728 34.9434 104.925 35.7461 104.925 36.7246C104.925 37.7031 105.728 38.5059 106.706 38.5059ZM112.718 37.6738C112.817 39.168 114.059 40.1406 115.852 40.1406C117.798 40.1406 119.016 39.1738 119.016 37.627C119.016 36.4141 118.307 35.7402 116.555 35.3008L115.671 35.0664C114.522 34.7676 114.054 34.3867 114.054 33.748C114.054 32.9219 114.815 32.3535 115.911 32.3535C117.013 32.3535 117.745 32.9102 117.839 33.8184H118.893C118.846 32.4004 117.628 31.4043 115.946 31.4043C114.188 31.4043 112.958 32.3887 112.958 33.7949C112.958 34.9434 113.649 35.6289 115.208 36.0273L116.292 36.3086C117.429 36.6016 117.927 37.041 117.927 37.7559C117.927 38.5879 117.095 39.1914 115.952 39.1914C114.745 39.1914 113.878 38.5879 113.778 37.6738H112.718ZM125.213 33.9062H124.193V37.4863C124.193 38.5234 123.595 39.2031 122.605 39.2031C121.662 39.2031 121.199 38.6699 121.199 37.6797V33.9062H120.179V37.8613C120.179 39.2441 120.959 40.1055 122.289 40.1055C123.226 40.1055 123.859 39.7129 124.222 39.0098H124.246V40H125.213V33.9062ZM126.657 40H127.676V36.2031C127.676 35.3418 128.192 34.7734 128.983 34.7734C129.229 34.7734 129.446 34.8027 129.528 34.832V33.8418C129.446 33.8301 129.294 33.8008 129.118 33.8008C128.403 33.8008 127.84 34.2285 127.641 34.9023H127.618V33.9062H126.657V40ZM132.372 39.2383C131.64 39.2383 131.154 38.8574 131.154 38.2773C131.154 37.7031 131.622 37.3398 132.443 37.2871L134.072 37.1875V37.6855C134.072 38.5645 133.333 39.2383 132.372 39.2383ZM132.144 40.1055C132.964 40.1055 133.738 39.6484 134.101 38.9512H134.124V40H135.091V35.7871C135.091 34.5742 134.189 33.8008 132.759 33.8008C131.318 33.8008 130.415 34.6094 130.345 35.6641H131.33C131.458 35.0664 131.951 34.6973 132.736 34.6973C133.58 34.6973 134.072 35.1426 134.072 35.8867V36.3965L132.326 36.4961C130.919 36.5781 130.117 37.2344 130.117 38.2773C130.117 39.373 130.931 40.1055 132.144 40.1055ZM137.578 36.6133V31.5449H136.559V40H137.578V37.7031L138.147 37.1641L140.409 40H141.592L138.868 36.5371L141.51 33.9062H140.274L137.578 36.6133ZM144.46 39.2383C143.728 39.2383 143.241 38.8574 143.241 38.2773C143.241 37.7031 143.71 37.3398 144.53 37.2871L146.159 37.1875V37.6855C146.159 38.5645 145.421 39.2383 144.46 39.2383ZM144.232 40.1055C145.052 40.1055 145.825 39.6484 146.189 38.9512H146.212V40H147.179V35.7871C147.179 34.5742 146.277 33.8008 144.847 33.8008C143.405 33.8008 142.503 34.6094 142.433 35.6641H143.417C143.546 35.0664 144.038 34.6973 144.823 34.6973C145.667 34.6973 146.159 35.1426 146.159 35.8867V36.3965L144.413 36.4961C143.007 36.5781 142.204 37.2344 142.204 38.2773C142.204 39.373 143.019 40.1055 144.232 40.1055ZM148.594 40H149.613V36.2031C149.613 35.3418 150.129 34.7734 150.92 34.7734C151.166 34.7734 151.383 34.8027 151.465 34.832V33.8418C151.383 33.8301 151.231 33.8008 151.055 33.8008C150.34 33.8008 149.777 34.2285 149.578 34.9023H149.555V33.9062H148.594V40ZM152.745 32.4355V33.9062H151.837V34.7441H152.745V38.418C152.745 39.5898 153.179 40.0469 154.298 40.0469C154.538 40.0469 154.819 40.0293 154.942 40V39.1445C154.872 39.1562 154.638 39.1738 154.52 39.1738C153.999 39.1738 153.765 38.9219 153.765 38.3652V34.7441H154.948V33.9062H153.765V32.4355H152.745ZM158.051 39.2383C157.318 39.2383 156.832 38.8574 156.832 38.2773C156.832 37.7031 157.301 37.3398 158.121 37.2871L159.75 37.1875V37.6855C159.75 38.5645 159.012 39.2383 158.051 39.2383ZM157.822 40.1055C158.642 40.1055 159.416 39.6484 159.779 38.9512H159.803V40H160.769V35.7871C160.769 34.5742 159.867 33.8008 158.437 33.8008C156.996 33.8008 156.094 34.6094 156.023 35.6641H157.008C157.137 35.0664 157.629 34.6973 158.414 34.6973C159.258 34.6973 159.75 35.1426 159.75 35.8867V36.3965L158.004 36.4961C156.598 36.5781 155.795 37.2344 155.795 38.2773C155.795 39.373 156.609 40.1055 157.822 40.1055ZM162.882 41.6816L163.684 38.6992H162.6L162.032 41.6816H162.882ZM168.559 40V31.5449H167.504V40H168.559ZM170.161 40H171.181V36.4141C171.181 35.3828 171.808 34.7031 172.769 34.7031C173.706 34.7031 174.169 35.2422 174.169 36.2266V40H175.189V36.0449C175.189 34.6621 174.415 33.8008 173.079 33.8008C172.136 33.8008 171.486 34.2227 171.146 34.8789H171.122V33.9062H170.161V40ZM178.918 40.1055C179.797 40.1055 180.494 39.6719 180.887 38.9688H180.905V40H181.877V31.5449H180.858V34.8965H180.834C180.471 34.2285 179.768 33.8008 178.895 33.8008C177.36 33.8008 176.311 35.043 176.311 36.9531C176.311 38.8633 177.365 40.1055 178.918 40.1055ZM179.112 34.6973C180.16 34.6973 180.864 35.5938 180.864 36.9531C180.864 38.3184 180.16 39.209 179.112 39.209C178.033 39.209 177.354 38.3359 177.354 36.9531C177.354 35.5762 178.033 34.6973 179.112 34.6973ZM185.9 40.1055C187.581 40.1055 188.718 38.8926 188.718 36.9531C188.718 35.0078 187.581 33.8008 185.9 33.8008C184.212 33.8008 183.075 35.0078 183.075 36.9531C183.075 38.8926 184.212 40.1055 185.9 40.1055ZM185.9 39.209C184.821 39.209 184.112 38.3887 184.112 36.9531C184.112 35.5176 184.821 34.6973 185.9 34.6973C186.978 34.6973 187.681 35.5176 187.681 36.9531C187.681 38.3887 186.978 39.209 185.9 39.209ZM189.869 40H190.889V36.4141C190.889 35.3828 191.516 34.7031 192.477 34.7031C193.414 34.7031 193.877 35.2422 193.877 36.2266V40H194.896V36.0449C194.896 34.6621 194.123 33.8008 192.787 33.8008C191.844 33.8008 191.193 34.2227 190.854 34.8789H190.83V33.9062H189.869V40ZM198.761 34.6855C199.722 34.6855 200.36 35.4121 200.384 36.4316H197.073C197.138 35.418 197.806 34.6855 198.761 34.6855ZM200.36 38.2539C200.19 38.8281 199.622 39.2207 198.849 39.2207C197.753 39.2207 197.067 38.4531 197.067 37.2871V37.2285H201.438V36.8418C201.438 34.9961 200.425 33.8008 198.778 33.8008C197.097 33.8008 196.018 35.084 196.018 36.9766C196.018 38.8926 197.079 40.1055 198.825 40.1055C200.155 40.1055 201.186 39.3203 201.362 38.2539H200.36ZM202.484 35.5879C202.484 36.4199 203.011 36.9707 204.084 37.2461L205.156 37.5215C205.842 37.7031 206.094 37.9375 206.094 38.3711C206.094 38.9219 205.584 39.2734 204.758 39.2734C203.931 39.2734 203.451 38.9336 203.34 38.3008H202.32C202.426 39.3789 203.357 40.1055 204.693 40.1055C206.117 40.1055 207.119 39.3555 207.119 38.2949C207.119 37.3984 206.674 36.9531 205.443 36.6426L204.5 36.4141C203.808 36.2383 203.486 35.957 203.486 35.5352C203.486 35.002 203.978 34.6328 204.722 34.6328C205.472 34.6328 205.947 34.9961 206.017 35.582H206.99C206.943 34.5508 206.017 33.8008 204.758 33.8008C203.416 33.8008 202.484 34.5449 202.484 35.5879ZM208.352 40H209.372V33.9062H208.352V40ZM208.862 32.8809C209.214 32.8809 209.501 32.5938 209.501 32.248C209.501 31.8965 209.214 31.6152 208.862 31.6152C208.516 31.6152 208.229 31.8965 208.229 32.248C208.229 32.5938 208.516 32.8809 208.862 32.8809ZM212.878 39.2383C212.146 39.2383 211.66 38.8574 211.66 38.2773C211.66 37.7031 212.128 37.3398 212.949 37.2871L214.578 37.1875V37.6855C214.578 38.5645 213.839 39.2383 212.878 39.2383ZM212.65 40.1055C213.47 40.1055 214.244 39.6484 214.607 38.9512H214.63V40H215.597V35.7871C215.597 34.5742 214.695 33.8008 213.265 33.8008C211.824 33.8008 210.921 34.6094 210.851 35.6641H211.835C211.964 35.0664 212.457 34.6973 213.242 34.6973C214.085 34.6973 214.578 35.1426 214.578 35.8867V36.3965L212.832 36.4961C211.425 36.5781 210.623 37.2344 210.623 38.2773C210.623 39.373 211.437 40.1055 212.65 40.1055Z" fill="#374151"/>
</svg>
