<svg width="327" height="88" viewBox="0 0 327 88" fill="none" xmlns="http://www.w3.org/2000/svg">
<path d="M80.9227 26.2812C84.8133 26.2812 87.4617 24.2305 88.1062 20.7383H85.493C84.9656 22.7773 83.2898 23.9844 80.9344 23.9844C77.8289 23.9844 75.8602 21.4883 75.8602 17.5391C75.8602 13.625 77.8523 11.1055 80.9227 11.1055C83.2195 11.1055 85.0242 12.5234 85.493 14.6914H88.0945C87.6492 11.1641 84.7547 8.80859 80.9227 8.80859C76.2 8.80859 73.1766 12.1836 73.1766 17.5391C73.1766 22.9297 76.1766 26.2812 80.9227 26.2812ZM90.5025 26H93.0337V18.875C93.0337 16.9297 94.1822 15.6406 96.0572 15.6406C97.8384 15.6406 98.7525 16.7305 98.7525 18.5469V26H101.295V18.0547C101.295 15.2656 99.6783 13.4609 96.9712 13.4609C95.0962 13.4609 93.7486 14.293 93.0689 15.7344H93.0103V9.08984H90.5025V26ZM109.141 15.4883C110.91 15.4883 112.106 16.8125 112.164 18.6992H106C106.129 16.8359 107.371 15.4883 109.141 15.4883ZM112.153 22.3789C111.813 23.457 110.746 24.1836 109.305 24.1836C107.278 24.1836 105.989 22.7656 105.989 20.6211V20.4688H114.696V19.6016C114.696 15.8633 112.563 13.4492 109.141 13.4492C105.66 13.4492 103.434 16.0273 103.434 19.8945C103.434 23.7852 105.625 26.2344 109.246 26.2344C112.071 26.2344 114.203 24.6289 114.555 22.3789H112.153ZM127.486 17.9141C127.264 15.4883 125.33 13.4492 122.154 13.4492C118.65 13.4492 116.354 15.9219 116.354 19.8359C116.354 23.8203 118.65 26.2344 122.178 26.2344C125.143 26.2344 127.24 24.4531 127.51 21.8281H125.072C124.779 23.2578 123.76 24.1133 122.201 24.1133C120.232 24.1133 118.932 22.543 118.932 19.8359C118.932 17.1875 120.221 15.5586 122.178 15.5586C123.83 15.5586 124.815 16.6016 125.072 17.9141H127.486ZM132.191 18.957H132.168V9.08984H129.637V26H132.168V21.5703L133.223 20.5273L137.406 26H140.348L135.039 18.9805L140.148 13.6719H137.172L132.191 18.957ZM148.234 30.5938C150.8 30.5938 152.007 29.6328 153.062 26.6445L157.691 13.6719H155.019L151.89 23.7031H151.855L148.726 13.6719H145.984L150.437 26.0117C150.437 26.0234 150.214 26.75 150.214 26.7734C149.827 28.0391 149.206 28.5312 148.023 28.5312C147.812 28.5312 147.39 28.5312 147.202 28.4844V30.5352C147.39 30.5703 148.035 30.5938 148.234 30.5938ZM164.364 26.2344C167.892 26.2344 170.212 23.8086 170.212 19.8359C170.212 15.875 167.88 13.4492 164.364 13.4492C160.849 13.4492 158.517 15.875 158.517 19.8359C158.517 23.8086 160.837 26.2344 164.364 26.2344ZM164.364 24.1484C162.384 24.1484 161.095 22.5781 161.095 19.8359C161.095 17.1055 162.384 15.5352 164.364 15.5352C166.345 15.5352 167.634 17.1055 167.634 19.8359C167.634 22.5781 166.357 24.1484 164.364 24.1484ZM182.979 13.6719H180.448V20.8555C180.448 22.7773 179.347 24.043 177.518 24.043C175.772 24.043 174.882 23.0352 174.882 21.1602V13.6719H172.35V21.6523C172.35 24.4766 173.991 26.2227 176.675 26.2227C178.561 26.2227 179.815 25.3906 180.495 23.9141H180.554V26H182.979V13.6719ZM185.727 26H188.258V18.6172C188.258 16.8711 189.266 15.7812 190.895 15.7812C191.387 15.7812 191.833 15.8398 192.032 15.9219V13.5664C191.844 13.5312 191.528 13.4727 191.165 13.4727C189.712 13.4727 188.61 14.3281 188.2 15.7695H188.141V13.6719H185.727V26ZM209.996 23.7266H201.887V18.4766H209.563V16.2969H201.887V11.3516H209.996V9.08984H199.262V26H209.996V23.7266ZM212.627 26H215.158V18.3828C215.158 16.8008 216.225 15.6289 217.725 15.6289C219.154 15.6289 220.057 16.5312 220.057 17.9492V26H222.541V18.3008C222.541 16.7422 223.584 15.6289 225.084 15.6289C226.584 15.6289 227.439 16.543 227.439 18.1367V26H229.982V17.5273C229.982 15.0781 228.389 13.4609 225.951 13.4609C224.193 13.4609 222.74 14.375 222.107 15.875H222.049C221.557 14.3398 220.314 13.4609 218.603 13.4609C216.939 13.4609 215.65 14.375 215.1 15.7461H215.041V13.6719H212.627V26ZM236.984 24.207C235.625 24.207 234.734 23.5039 234.734 22.4258C234.734 21.3711 235.59 20.7031 237.101 20.5977L240.136 20.4102V21.3828C240.136 22.9883 238.754 24.207 236.984 24.207ZM236.281 26.2109C237.898 26.2109 239.457 25.3438 240.172 23.9727H240.23V26H242.656V17.5039C242.656 15.0312 240.746 13.4492 237.757 13.4492C234.711 13.4492 232.812 15.0898 232.672 17.3164H235.062C235.285 16.2148 236.199 15.5117 237.664 15.5117C239.211 15.5117 240.136 16.332 240.136 17.7031V18.6523L236.761 18.8516C233.832 19.0156 232.179 20.3398 232.179 22.4961C232.179 24.7109 233.867 26.2109 236.281 26.2109ZM245.439 26H247.97V13.6719H245.439V26ZM246.705 11.8672C247.525 11.8672 248.181 11.2227 248.181 10.4258C248.181 9.61719 247.525 8.97266 246.705 8.97266C245.896 8.97266 245.24 9.61719 245.24 10.4258C245.24 11.2227 245.896 11.8672 246.705 11.8672ZM250.894 26H253.425V9.08984H250.894V26Z" fill="#111827"/>
<path d="M20.3334 53.0547H20.4116L23.0131 62H24.3412L27.4116 50.7266H25.9428L23.685 59.9297H23.6225L21.0834 50.7266H19.6616L17.1225 59.9297H17.06L14.8022 50.7266H13.3334L16.4037 62H17.7319L20.3334 53.0547ZM31.2044 54.9141C32.4856 54.9141 33.3372 55.8828 33.3684 57.2422H28.9544C29.0403 55.8906 29.9309 54.9141 31.2044 54.9141ZM33.3372 59.6719C33.1106 60.4375 32.3528 60.9609 31.3216 60.9609C29.8606 60.9609 28.9466 59.9375 28.9466 58.3828V58.3047H34.7747V57.7891C34.7747 55.3281 33.4231 53.7344 31.2278 53.7344C28.9856 53.7344 27.5481 55.4453 27.5481 57.9688C27.5481 60.5234 28.9622 62.1406 31.2903 62.1406C33.0637 62.1406 34.4387 61.0938 34.6731 59.6719H33.3372ZM39.8212 62H41.1806V57.2656C41.1806 55.8594 42.0166 54.9375 43.3681 54.9375C44.6416 54.9375 45.29 55.7109 45.29 57V62H46.6494V56.75C46.6494 54.9375 45.5712 53.7344 43.79 53.7344C42.5556 53.7344 41.665 54.2656 41.2119 55.1719H41.1806V50.7266H39.8212V62ZM51.2156 60.9844C50.2391 60.9844 49.5906 60.4766 49.5906 59.7031C49.5906 58.9375 50.2156 58.4531 51.3094 58.3828L53.4812 58.25V58.9141C53.4812 60.0859 52.4969 60.9844 51.2156 60.9844ZM50.9109 62.1406C52.0047 62.1406 53.0359 61.5312 53.5203 60.6016H53.5516V62H54.8406V56.3828C54.8406 54.7656 53.6375 53.7344 51.7312 53.7344C49.8094 53.7344 48.6062 54.8125 48.5125 56.2188H49.825C49.9969 55.4219 50.6531 54.9297 51.7 54.9297C52.825 54.9297 53.4812 55.5234 53.4812 56.5156V57.1953L51.1531 57.3281C49.2781 57.4375 48.2078 58.3125 48.2078 59.7031C48.2078 61.1641 49.2937 62.1406 50.9109 62.1406ZM63.3912 53.875H61.9772L59.7272 60.5547H59.6959L57.4537 53.875H56.0241L59.0162 62H60.4069L63.3912 53.875ZM67.645 54.9141C68.9262 54.9141 69.7778 55.8828 69.8091 57.2422H65.395C65.4809 55.8906 66.3716 54.9141 67.645 54.9141ZM69.7778 59.6719C69.5512 60.4375 68.7934 60.9609 67.7622 60.9609C66.3012 60.9609 65.3872 59.9375 65.3872 58.3828V58.3047H71.2153V57.7891C71.2153 55.3281 69.8637 53.7344 67.6684 53.7344C65.4262 53.7344 63.9887 55.4453 63.9887 57.9688C63.9887 60.5234 65.4028 62.1406 67.7309 62.1406C69.5044 62.1406 70.8794 61.0938 71.1137 59.6719H69.7778ZM76.0509 56.1172C76.0509 57.2266 76.7541 57.9609 78.1837 58.3281L79.6134 58.6953C80.5275 58.9375 80.8634 59.25 80.8634 59.8281C80.8634 60.5625 80.1837 61.0312 79.0822 61.0312C77.9806 61.0312 77.34 60.5781 77.1916 59.7344H75.8322C75.9728 61.1719 77.215 62.1406 78.9962 62.1406C80.8947 62.1406 82.2306 61.1406 82.2306 59.7266C82.2306 58.5312 81.6369 57.9375 79.9962 57.5234L78.7384 57.2188C77.8166 56.9844 77.3869 56.6094 77.3869 56.0469C77.3869 55.3359 78.0431 54.8438 79.0353 54.8438C80.0353 54.8438 80.6681 55.3281 80.7619 56.1094H82.0587C81.9962 54.7344 80.7619 53.7344 79.0822 53.7344C77.2931 53.7344 76.0509 54.7266 76.0509 56.1172ZM87.0625 54.9141C88.3438 54.9141 89.1953 55.8828 89.2266 57.2422H84.8125C84.8984 55.8906 85.7891 54.9141 87.0625 54.9141ZM89.1953 59.6719C88.9688 60.4375 88.2109 60.9609 87.1797 60.9609C85.7188 60.9609 84.8047 59.9375 84.8047 58.3828V58.3047H90.6328V57.7891C90.6328 55.3281 89.2812 53.7344 87.0859 53.7344C84.8438 53.7344 83.4062 55.4453 83.4062 57.9688C83.4062 60.5234 84.8203 62.1406 87.1484 62.1406C88.9219 62.1406 90.2969 61.0938 90.5312 59.6719H89.1953ZM92.1678 62H93.5272V57.2188C93.5272 55.8438 94.3631 54.9375 95.6444 54.9375C96.8944 54.9375 97.5116 55.6562 97.5116 56.9688V62H98.8709V56.7266C98.8709 54.8828 97.8397 53.7344 96.0584 53.7344C94.8006 53.7344 93.9334 54.2969 93.4803 55.1719H93.4491V53.875H92.1678V62ZM101.203 51.9141V53.875H99.9919V54.9922H101.203V59.8906C101.203 61.4531 101.781 62.0625 103.273 62.0625C103.593 62.0625 103.968 62.0391 104.132 62V60.8594C104.039 60.875 103.726 60.8984 103.57 60.8984C102.875 60.8984 102.562 60.5625 102.562 59.8203V54.9922H104.14V53.875H102.562V51.9141H101.203ZM111.874 60.9844C110.898 60.9844 110.249 60.4766 110.249 59.7031C110.249 58.9375 110.874 58.4531 111.968 58.3828L114.14 58.25V58.9141C114.14 60.0859 113.156 60.9844 111.874 60.9844ZM111.57 62.1406C112.663 62.1406 113.695 61.5312 114.179 60.6016H114.21V62H115.499V56.3828C115.499 54.7656 114.296 53.7344 112.39 53.7344C110.468 53.7344 109.265 54.8125 109.171 56.2188H110.484C110.656 55.4219 111.312 54.9297 112.359 54.9297C113.484 54.9297 114.14 55.5234 114.14 56.5156V57.1953L111.812 57.3281C109.937 57.4375 108.867 58.3125 108.867 59.7031C108.867 61.1641 109.952 62.1406 111.57 62.1406ZM120.827 62H122.187V56.9375C122.187 55.7891 122.874 55.0312 123.929 55.0312C124.257 55.0312 124.546 55.0703 124.655 55.1094V53.7891C124.546 53.7734 124.343 53.7344 124.108 53.7344C123.155 53.7344 122.405 54.3047 122.14 55.2031H122.108V53.875H120.827V62ZM128.792 54.9141C130.073 54.9141 130.925 55.8828 130.956 57.2422H126.542C126.628 55.8906 127.518 54.9141 128.792 54.9141ZM130.925 59.6719C130.698 60.4375 129.94 60.9609 128.909 60.9609C127.448 60.9609 126.534 59.9375 126.534 58.3828V58.3047H132.362V57.7891C132.362 55.3281 131.011 53.7344 128.815 53.7344C126.573 53.7344 125.136 55.4453 125.136 57.9688C125.136 60.5234 126.55 62.1406 128.878 62.1406C130.651 62.1406 132.026 61.0938 132.261 59.6719H130.925ZM133.757 56.1172C133.757 57.2266 134.46 57.9609 135.889 58.3281L137.319 58.6953C138.233 58.9375 138.569 59.25 138.569 59.8281C138.569 60.5625 137.889 61.0312 136.788 61.0312C135.686 61.0312 135.046 60.5781 134.897 59.7344H133.538C133.678 61.1719 134.921 62.1406 136.702 62.1406C138.6 62.1406 139.936 61.1406 139.936 59.7266C139.936 58.5312 139.342 57.9375 137.702 57.5234L136.444 57.2188C135.522 56.9844 135.092 56.6094 135.092 56.0469C135.092 55.3359 135.749 54.8438 136.741 54.8438C137.741 54.8438 138.374 55.3281 138.467 56.1094H139.764C139.702 54.7344 138.467 53.7344 136.788 53.7344C134.999 53.7344 133.757 54.7266 133.757 56.1172ZM144.768 54.9141C146.049 54.9141 146.901 55.8828 146.932 57.2422H142.518C142.604 55.8906 143.495 54.9141 144.768 54.9141ZM146.901 59.6719C146.674 60.4375 145.917 60.9609 144.885 60.9609C143.424 60.9609 142.51 59.9375 142.51 58.3828V58.3047H148.338V57.7891C148.338 55.3281 146.987 53.7344 144.792 53.7344C142.549 53.7344 141.112 55.4453 141.112 57.9688C141.112 60.5234 142.526 62.1406 144.854 62.1406C146.628 62.1406 148.003 61.0938 148.237 59.6719H146.901ZM150.311 51.9141V53.875H149.1V54.9922H150.311V59.8906C150.311 61.4531 150.889 62.0625 152.381 62.0625C152.702 62.0625 153.077 62.0391 153.241 62V60.8594C153.147 60.875 152.834 60.8984 152.678 60.8984C151.983 60.8984 151.67 60.5625 151.67 59.8203V54.9922H153.248V53.875H151.67V51.9141H150.311ZM162.248 53.7344C161.068 53.7344 160.123 54.3359 159.623 55.25H159.592V53.875H158.303V64.7109H159.662V60.6797H159.693C160.178 61.5703 161.115 62.1406 162.279 62.1406C164.326 62.1406 165.725 60.4844 165.725 57.9375C165.725 55.3906 164.318 53.7344 162.248 53.7344ZM161.982 60.9453C160.592 60.9453 159.654 59.75 159.654 57.9375C159.654 56.1328 160.592 54.9297 161.982 54.9297C163.428 54.9297 164.334 56.1016 164.334 57.9375C164.334 59.7812 163.428 60.9453 161.982 60.9453ZM169.939 60.9844C168.963 60.9844 168.314 60.4766 168.314 59.7031C168.314 58.9375 168.939 58.4531 170.033 58.3828L172.205 58.25V58.9141C172.205 60.0859 171.221 60.9844 169.939 60.9844ZM169.635 62.1406C170.728 62.1406 171.76 61.5312 172.244 60.6016H172.275V62H173.564V56.3828C173.564 54.7656 172.361 53.7344 170.455 53.7344C168.533 53.7344 167.33 54.8125 167.236 56.2188H168.549C168.721 55.4219 169.377 54.9297 170.424 54.9297C171.549 54.9297 172.205 55.5234 172.205 56.5156V57.1953L169.877 57.3281C168.002 57.4375 166.932 58.3125 166.932 59.7031C166.932 61.1641 168.018 62.1406 169.635 62.1406ZM175.31 56.1172C175.31 57.2266 176.013 57.9609 177.443 58.3281L178.873 58.6953C179.787 58.9375 180.123 59.25 180.123 59.8281C180.123 60.5625 179.443 61.0312 178.342 61.0312C177.24 61.0312 176.599 60.5781 176.451 59.7344H175.092C175.232 61.1719 176.474 62.1406 178.256 62.1406C180.154 62.1406 181.49 61.1406 181.49 59.7266C181.49 58.5312 180.896 57.9375 179.256 57.5234L177.998 57.2188C177.076 56.9844 176.646 56.6094 176.646 56.0469C176.646 55.3359 177.302 54.8438 178.295 54.8438C179.295 54.8438 179.927 55.3281 180.021 56.1094H181.318C181.256 54.7344 180.021 53.7344 178.342 53.7344C176.552 53.7344 175.31 54.7266 175.31 56.1172ZM182.923 56.1172C182.923 57.2266 183.627 57.9609 185.056 58.3281L186.486 58.6953C187.4 58.9375 187.736 59.25 187.736 59.8281C187.736 60.5625 187.056 61.0312 185.955 61.0312C184.853 61.0312 184.212 60.5781 184.064 59.7344H182.705C182.845 61.1719 184.087 62.1406 185.869 62.1406C187.767 62.1406 189.103 61.1406 189.103 59.7266C189.103 58.5312 188.509 57.9375 186.869 57.5234L185.611 57.2188C184.689 56.9844 184.259 56.6094 184.259 56.0469C184.259 55.3359 184.916 54.8438 185.908 54.8438C186.908 54.8438 187.541 55.3281 187.634 56.1094H188.931C188.869 54.7344 187.634 53.7344 185.955 53.7344C184.166 53.7344 182.923 54.7266 182.923 56.1172ZM201.013 53.875H199.669L198.044 60.4844H198.013L196.169 53.875H194.857L193.021 60.4844H192.99L191.365 53.875H190.013L192.287 62H193.669L195.497 55.7109H195.529L197.365 62H198.747L201.013 53.875ZM205.658 62.1406C207.9 62.1406 209.415 60.5234 209.415 57.9375C209.415 55.3438 207.9 53.7344 205.658 53.7344C203.408 53.7344 201.892 55.3438 201.892 57.9375C201.892 60.5234 203.408 62.1406 205.658 62.1406ZM205.658 60.9453C204.22 60.9453 203.275 59.8516 203.275 57.9375C203.275 56.0234 204.22 54.9297 205.658 54.9297C207.095 54.9297 208.033 56.0234 208.033 57.9375C208.033 59.8516 207.095 60.9453 205.658 60.9453ZM210.95 62H212.31V56.9375C212.31 55.7891 212.997 55.0312 214.052 55.0312C214.38 55.0312 214.669 55.0703 214.778 55.1094V53.7891C214.669 53.7734 214.466 53.7344 214.232 53.7344C213.278 53.7344 212.528 54.3047 212.263 55.2031H212.232V53.875H210.95V62ZM218.735 62.1406C219.907 62.1406 220.837 61.5625 221.36 60.625H221.384V62H222.681V50.7266H221.321V55.1953H221.29C220.806 54.3047 219.868 53.7344 218.704 53.7344C216.657 53.7344 215.259 55.3906 215.259 57.9375C215.259 60.4844 216.665 62.1406 218.735 62.1406ZM218.993 54.9297C220.392 54.9297 221.329 56.125 221.329 57.9375C221.329 59.7578 220.392 60.9453 218.993 60.9453C217.556 60.9453 216.649 59.7812 216.649 57.9375C216.649 56.1016 217.556 54.9297 218.993 54.9297ZM228.555 51.9141V53.875H227.344V54.9922H228.555V59.8906C228.555 61.4531 229.133 62.0625 230.626 62.0625C230.946 62.0625 231.321 62.0391 231.485 62V60.8594C231.391 60.875 231.079 60.8984 230.923 60.8984C230.227 60.8984 229.915 60.5625 229.915 59.8203V54.9922H231.493V53.875H229.915V51.9141H228.555ZM236.239 62.1406C238.481 62.1406 239.997 60.5234 239.997 57.9375C239.997 55.3438 238.481 53.7344 236.239 53.7344C233.989 53.7344 232.473 55.3438 232.473 57.9375C232.473 60.5234 233.989 62.1406 236.239 62.1406ZM236.239 60.9453C234.801 60.9453 233.856 59.8516 233.856 57.9375C233.856 56.0234 234.801 54.9297 236.239 54.9297C237.676 54.9297 238.614 56.0234 238.614 57.9375C238.614 59.8516 237.676 60.9453 236.239 60.9453ZM245.645 65.0391C247.113 65.0391 247.785 64.4688 248.481 62.5703L251.676 53.875H250.246L247.996 60.6406H247.973L245.723 53.875H244.27L247.27 62.0078L247.082 62.5781C246.77 63.5234 246.348 63.8906 245.59 63.8906C245.418 63.8906 245.207 63.8828 245.059 63.8516V64.9922C245.207 65.0234 245.481 65.0391 245.645 65.0391ZM256.047 62.1406C258.289 62.1406 259.805 60.5234 259.805 57.9375C259.805 55.3438 258.289 53.7344 256.047 53.7344C253.797 53.7344 252.281 55.3438 252.281 57.9375C252.281 60.5234 253.797 62.1406 256.047 62.1406ZM256.047 60.9453C254.609 60.9453 253.664 59.8516 253.664 57.9375C253.664 56.0234 254.609 54.9297 256.047 54.9297C257.484 54.9297 258.422 56.0234 258.422 57.9375C258.422 59.8516 257.484 60.9453 256.047 60.9453ZM268.012 53.875H266.652V58.6484C266.652 60.0312 265.855 60.9375 264.535 60.9375C263.277 60.9375 262.66 60.2266 262.66 58.9062V53.875H261.301V59.1484C261.301 60.9922 262.34 62.1406 264.113 62.1406C265.363 62.1406 266.207 61.6172 266.691 60.6797H266.723V62H268.012V53.875ZM269.937 62H271.297V56.9375C271.297 55.7891 271.984 55.0312 273.039 55.0312C273.367 55.0312 273.656 55.0703 273.765 55.1094V53.7891C273.656 53.7734 273.453 53.7344 273.218 53.7344C272.265 53.7344 271.515 54.3047 271.25 55.2031H271.218V53.875H269.937V62ZM281.734 54.9141C283.015 54.9141 283.867 55.8828 283.898 57.2422H279.484C279.57 55.8906 280.46 54.9141 281.734 54.9141ZM283.867 59.6719C283.64 60.4375 282.882 60.9609 281.851 60.9609C280.39 60.9609 279.476 59.9375 279.476 58.3828V58.3047H285.304V57.7891C285.304 55.3281 283.952 53.7344 281.757 53.7344C279.515 53.7344 278.077 55.4453 278.077 57.9688C278.077 60.5234 279.492 62.1406 281.82 62.1406C283.593 62.1406 284.968 61.0938 285.202 59.6719H283.867ZM286.839 62H288.198V56.9062C288.198 55.7812 288.98 54.9375 290.058 54.9375C291.066 54.9375 291.722 55.5781 291.722 56.5547V62H293.081V56.8359C293.081 55.7344 293.839 54.9375 294.917 54.9375C295.987 54.9375 296.605 55.5938 296.605 56.7031V62H297.964V56.3906C297.964 54.7812 296.925 53.7344 295.316 53.7344C294.175 53.7344 293.222 54.3125 292.769 55.2812H292.737C292.386 54.2969 291.566 53.7344 290.456 53.7344C289.362 53.7344 288.534 54.3125 288.152 55.1719H288.12V53.875H286.839V62ZM302.538 60.9844C301.562 60.9844 300.913 60.4766 300.913 59.7031C300.913 58.9375 301.538 58.4531 302.632 58.3828L304.804 58.25V58.9141C304.804 60.0859 303.819 60.9844 302.538 60.9844ZM302.233 62.1406C303.327 62.1406 304.358 61.5312 304.843 60.6016H304.874V62H306.163V56.3828C306.163 54.7656 304.96 53.7344 303.054 53.7344C301.132 53.7344 299.929 54.8125 299.835 56.2188H301.147C301.319 55.4219 301.976 54.9297 303.022 54.9297C304.147 54.9297 304.804 55.5234 304.804 56.5156V57.1953L302.476 57.3281C300.601 57.4375 299.53 58.3125 299.53 59.7031C299.53 61.1641 300.616 62.1406 302.233 62.1406ZM308.12 62H309.479V53.875H308.12V62ZM308.8 52.5078C309.268 52.5078 309.651 52.125 309.651 51.6641C309.651 51.1953 309.268 50.8203 308.8 50.8203C308.339 50.8203 307.956 51.1953 307.956 51.6641C307.956 52.125 308.339 52.5078 308.8 52.5078ZM311.546 62H312.905V50.7266H311.546V62ZM139.879 81.9844C138.903 81.9844 138.254 81.4766 138.254 80.7031C138.254 79.9375 138.879 79.4531 139.973 79.3828L142.145 79.25V79.9141C142.145 81.0859 141.161 81.9844 139.879 81.9844ZM139.575 83.1406C140.668 83.1406 141.7 82.5312 142.184 81.6016H142.215V83H143.504V77.3828C143.504 75.7656 142.301 74.7344 140.395 74.7344C138.473 74.7344 137.27 75.8125 137.176 77.2188H138.489C138.661 76.4219 139.317 75.9297 140.364 75.9297C141.489 75.9297 142.145 76.5234 142.145 77.5156V78.1953L139.817 78.3281C137.942 78.4375 136.872 79.3125 136.872 80.7031C136.872 82.1641 137.958 83.1406 139.575 83.1406ZM148.469 83.1406C149.641 83.1406 150.571 82.5625 151.094 81.625H151.118V83H152.414V71.7266H151.055V76.1953H151.024C150.539 75.3047 149.602 74.7344 148.438 74.7344C146.391 74.7344 144.993 76.3906 144.993 78.9375C144.993 81.4844 146.399 83.1406 148.469 83.1406ZM148.727 75.9297C150.125 75.9297 151.063 77.125 151.063 78.9375C151.063 80.7578 150.125 81.9453 148.727 81.9453C147.289 81.9453 146.383 80.7812 146.383 78.9375C146.383 77.1016 147.289 75.9297 148.727 75.9297ZM157.488 83.1406C158.66 83.1406 159.59 82.5625 160.113 81.625H160.137V83H161.434V71.7266H160.074V76.1953H160.043C159.559 75.3047 158.621 74.7344 157.457 74.7344C155.41 74.7344 154.012 76.3906 154.012 78.9375C154.012 81.4844 155.418 83.1406 157.488 83.1406ZM157.746 75.9297C159.145 75.9297 160.082 77.125 160.082 78.9375C160.082 80.7578 159.145 81.9453 157.746 81.9453C156.309 81.9453 155.402 80.7812 155.402 78.9375C155.402 77.1016 156.309 75.9297 157.746 75.9297ZM163.43 83H164.789V77.9375C164.789 76.7891 165.477 76.0312 166.531 76.0312C166.859 76.0312 167.148 76.0703 167.258 76.1094V74.7891C167.148 74.7734 166.945 74.7344 166.711 74.7344C165.758 74.7344 165.008 75.3047 164.742 76.2031H164.711V74.875H163.43V83ZM171.394 75.9141C172.676 75.9141 173.527 76.8828 173.558 78.2422H169.144C169.23 76.8906 170.121 75.9141 171.394 75.9141ZM173.527 80.6719C173.301 81.4375 172.543 81.9609 171.512 81.9609C170.051 81.9609 169.137 80.9375 169.137 79.3828V79.3047H174.965V78.7891C174.965 76.3281 173.613 74.7344 171.418 74.7344C169.176 74.7344 167.738 76.4453 167.738 78.9688C167.738 81.5234 169.152 83.1406 171.48 83.1406C173.254 83.1406 174.629 82.0938 174.863 80.6719H173.527ZM176.359 77.1172C176.359 78.2266 177.062 78.9609 178.492 79.3281L179.922 79.6953C180.836 79.9375 181.172 80.25 181.172 80.8281C181.172 81.5625 180.492 82.0312 179.39 82.0312C178.289 82.0312 177.648 81.5781 177.5 80.7344H176.14C176.281 82.1719 177.523 83.1406 179.304 83.1406C181.203 83.1406 182.539 82.1406 182.539 80.7266C182.539 79.5312 181.945 78.9375 180.304 78.5234L179.047 78.2188C178.125 77.9844 177.695 77.6094 177.695 77.0469C177.695 76.3359 178.351 75.8438 179.343 75.8438C180.343 75.8438 180.976 76.3281 181.07 77.1094H182.367C182.304 75.7344 181.07 74.7344 179.39 74.7344C177.601 74.7344 176.359 75.7266 176.359 77.1172ZM183.972 77.1172C183.972 78.2266 184.675 78.9609 186.105 79.3281L187.535 79.6953C188.449 79.9375 188.785 80.25 188.785 80.8281C188.785 81.5625 188.105 82.0312 187.003 82.0312C185.902 82.0312 185.261 81.5781 185.113 80.7344H183.753C183.894 82.1719 185.136 83.1406 186.918 83.1406C188.816 83.1406 190.152 82.1406 190.152 80.7266C190.152 79.5312 189.558 78.9375 187.918 78.5234L186.66 78.2188C185.738 77.9844 185.308 77.6094 185.308 77.0469C185.308 76.3359 185.964 75.8438 186.957 75.8438C187.957 75.8438 188.589 76.3281 188.683 77.1094H189.98C189.918 75.7344 188.683 74.7344 187.003 74.7344C185.214 74.7344 183.972 75.7266 183.972 77.1172Z" fill="#6B7280"/>
</svg>
