<svg width="327" height="400" viewBox="0 0 327 400" fill="none" xmlns="http://www.w3.org/2000/svg">
<rect x="0.5" y="0.5" width="326" height="84" rx="7.5" fill="#E0EBFF"/>
<rect x="0.5" y="0.5" width="326" height="84" rx="7.5" stroke="#84A9FF"/>
<path d="M27.9997 30.8335C21.5713 30.8335 16.333 36.0718 16.333 42.5002C16.333 48.9285 21.5713 54.1668 27.9997 54.1668C34.428 54.1668 39.6663 48.9285 39.6663 42.5002C39.6663 36.0718 34.428 30.8335 27.9997 30.8335ZM33.5763 39.8168L26.9613 46.4318C26.798 46.5952 26.5763 46.6885 26.343 46.6885C26.1097 46.6885 25.888 46.5952 25.7247 46.4318L22.423 43.1302C22.0847 42.7918 22.0847 42.2318 22.423 41.8935C22.7613 41.5552 23.3213 41.5552 23.6597 41.8935L26.343 44.5768L32.3397 38.5802C32.678 38.2418 33.238 38.2418 33.5763 38.5802C33.9147 38.9185 33.9147 39.4668 33.5763 39.8168Z" fill="#3366FF"/>
<path d="M55.0391 16.7266V28H56.7891V24.1484H59.2109C61.4219 24.1484 62.9766 22.6328 62.9766 20.4297C62.9766 18.2344 61.4531 16.7266 59.2656 16.7266H55.0391ZM56.7891 18.2031H58.8047C60.3203 18.2031 61.1875 19.0156 61.1875 20.4375C61.1875 21.8594 60.3203 22.6797 58.7969 22.6797H56.7891V18.2031ZM67.5428 20.9922C68.7225 20.9922 69.5194 21.875 69.5584 23.1328H65.4491C65.535 21.8906 66.3631 20.9922 67.5428 20.9922ZM69.5506 25.5859C69.3241 26.3047 68.6131 26.7891 67.6522 26.7891C66.3006 26.7891 65.4412 25.8438 65.4412 24.4141V24.3125H71.2459V23.7344C71.2459 21.2422 69.8241 19.6328 67.5428 19.6328C65.2225 19.6328 63.7381 21.3516 63.7381 23.9297C63.7381 26.5234 65.1991 28.1562 67.6131 28.1562C69.4959 28.1562 70.9178 27.0859 71.1522 25.5859H69.5506ZM72.7184 28H74.4059V23.0781C74.4059 21.9141 75.0778 21.1875 76.1637 21.1875C76.4919 21.1875 76.7887 21.2266 76.9216 21.2812V19.7109C76.7966 19.6875 76.5856 19.6484 76.3434 19.6484C75.3747 19.6484 74.6403 20.2188 74.3669 21.1797H74.3278V19.7812H72.7184V28ZM77.98 22.1094C77.98 23.2578 78.73 24.0312 80.2144 24.3906L81.6831 24.75C82.5425 24.9688 82.855 25.2578 82.855 25.7812C82.855 26.4453 82.23 26.8672 81.2144 26.8672C80.1831 26.8672 79.5737 26.4297 79.4409 25.6406H77.7691C77.9019 27.1484 79.1909 28.1562 81.1362 28.1562C83.1519 28.1562 84.5503 27.125 84.5503 25.625C84.5503 24.4141 83.9253 23.7891 82.2691 23.3906L80.8862 23.0703C80.0347 22.8594 79.6284 22.5156 79.6284 22.0078C79.6284 21.3594 80.2378 20.9141 81.1519 20.9141C82.0972 20.9141 82.6987 21.375 82.7769 22.1172H84.3628C84.3081 20.6562 83.0269 19.6328 81.1987 19.6328C79.2769 19.6328 77.98 20.6406 77.98 22.1094ZM89.5541 28.1562C91.9056 28.1562 93.4525 26.5391 93.4525 23.8906C93.4525 21.25 91.8978 19.6328 89.5541 19.6328C87.2103 19.6328 85.6556 21.25 85.6556 23.8906C85.6556 26.5391 87.2025 28.1562 89.5541 28.1562ZM89.5541 26.7656C88.2337 26.7656 87.3744 25.7188 87.3744 23.8906C87.3744 22.0703 88.2337 21.0234 89.5541 21.0234C90.8744 21.0234 91.7337 22.0703 91.7337 23.8906C91.7337 25.7188 90.8822 26.7656 89.5541 26.7656ZM94.9172 28H96.6047V23.2109C96.6047 21.9375 97.3703 21.0938 98.5578 21.0938C99.7297 21.0938 100.308 21.7734 100.308 23.0078V28H102.003V22.6797C102.003 20.7969 100.964 19.6406 99.1516 19.6406C97.8859 19.6406 97.0109 20.2188 96.5656 21.1562H96.5266V19.7812H94.9172V28ZM106.671 26.8047C105.765 26.8047 105.171 26.3359 105.171 25.6172C105.171 24.9141 105.741 24.4688 106.749 24.3984L108.772 24.2734V24.9219C108.772 25.9922 107.851 26.8047 106.671 26.8047ZM106.202 28.1406C107.28 28.1406 108.319 27.5625 108.796 26.6484H108.835V28H110.452V22.3359C110.452 20.6875 109.179 19.6328 107.187 19.6328C105.155 19.6328 103.89 20.7266 103.796 22.2109H105.39C105.538 21.4766 106.147 21.0078 107.124 21.0078C108.155 21.0078 108.772 21.5547 108.772 22.4688V23.1016L106.522 23.2344C104.569 23.3438 103.468 24.2266 103.468 25.6641C103.468 27.1406 104.593 28.1406 106.202 28.1406ZM112.315 28H114.003V16.7266H112.315V28ZM119.51 16.7266V28H123.487C126.846 28 128.823 25.9062 128.823 22.3438C128.823 18.7891 126.838 16.7266 123.487 16.7266H119.51ZM121.26 18.2344H123.323C125.706 18.2344 127.034 19.7031 127.034 22.3594C127.034 25.0234 125.713 26.4844 123.323 26.4844H121.26V18.2344ZM133.889 20.9922C135.069 20.9922 135.866 21.875 135.905 23.1328H131.795C131.881 21.8906 132.709 20.9922 133.889 20.9922ZM135.897 25.5859C135.67 26.3047 134.959 26.7891 133.998 26.7891C132.647 26.7891 131.787 25.8438 131.787 24.4141V24.3125H137.592V23.7344C137.592 21.2422 136.17 19.6328 133.889 19.6328C131.569 19.6328 130.084 21.3516 130.084 23.9297C130.084 26.5234 131.545 28.1562 133.959 28.1562C135.842 28.1562 137.264 27.0859 137.498 25.5859H135.897ZM139.557 17.8359V19.7812H138.362V21.1172H139.557V25.8359C139.557 27.4219 140.205 28.0547 141.869 28.0547C142.244 28.0547 142.619 28.0234 142.807 27.9766V26.6406C142.698 26.6641 142.424 26.6797 142.252 26.6797C141.565 26.6797 141.252 26.3594 141.252 25.6484V21.1172H142.815V19.7812H141.252V17.8359H139.557ZM147.115 26.8047C146.209 26.8047 145.615 26.3359 145.615 25.6172C145.615 24.9141 146.186 24.4688 147.193 24.3984L149.217 24.2734V24.9219C149.217 25.9922 148.295 26.8047 147.115 26.8047ZM146.647 28.1406C147.725 28.1406 148.764 27.5625 149.24 26.6484H149.279V28H150.897V22.3359C150.897 20.6875 149.623 19.6328 147.631 19.6328C145.6 19.6328 144.334 20.7266 144.24 22.2109H145.834C145.982 21.4766 146.592 21.0078 147.568 21.0078C148.6 21.0078 149.217 21.5547 149.217 22.4688V23.1016L146.967 23.2344C145.014 23.3438 143.912 24.2266 143.912 25.6641C143.912 27.1406 145.037 28.1406 146.647 28.1406ZM152.752 28H154.439V19.7812H152.752V28ZM153.596 18.5781C154.143 18.5781 154.58 18.1484 154.58 17.6172C154.58 17.0781 154.143 16.6484 153.596 16.6484C153.057 16.6484 152.619 17.0781 152.619 17.6172C152.619 18.1484 153.057 18.5781 153.596 18.5781ZM156.388 28H158.076V16.7266H156.388V28ZM159.822 22.1094C159.822 23.2578 160.572 24.0312 162.056 24.3906L163.525 24.75C164.384 24.9688 164.697 25.2578 164.697 25.7812C164.697 26.4453 164.072 26.8672 163.056 26.8672C162.025 26.8672 161.416 26.4297 161.283 25.6406H159.611C159.744 27.1484 161.033 28.1562 162.978 28.1562C164.994 28.1562 166.392 27.125 166.392 25.625C166.392 24.4141 165.767 23.7891 164.111 23.3906L162.728 23.0703C161.877 22.8594 161.47 22.5156 161.47 22.0078C161.47 21.3594 162.08 20.9141 162.994 20.9141C163.939 20.9141 164.541 21.375 164.619 22.1172H166.205C166.15 20.6562 164.869 19.6328 163.041 19.6328C161.119 19.6328 159.822 20.6406 159.822 22.1094Z" fill="#111827"/>
<path d="M55.875 50V46.3379H59.6191V45.4004H55.875V42.4941H59.9531V41.5449H54.8203V50H55.875ZM66.1259 43.9062H65.1063V47.4863C65.1063 48.5234 64.5087 49.2031 63.5184 49.2031C62.5751 49.2031 62.1122 48.6699 62.1122 47.6797V43.9062H61.0927V47.8613C61.0927 49.2441 61.872 50.1055 63.202 50.1055C64.1395 50.1055 64.7723 49.7129 65.1356 49.0098H65.1591V50H66.1259V43.9062ZM67.6228 50H68.6423V41.5449H67.6228V50ZM70.192 50H71.2116V41.5449H70.192V50ZM75.2895 50H76.309V46.4141C76.309 45.3828 76.9359 44.7031 77.8969 44.7031C78.8344 44.7031 79.2973 45.2422 79.2973 46.2266V50H80.3168V46.0449C80.3168 44.6621 79.5434 43.8008 78.2074 43.8008C77.2641 43.8008 76.6137 44.2227 76.2738 44.8789H76.2504V43.9062H75.2895V50ZM83.7473 49.2383C83.0149 49.2383 82.5286 48.8574 82.5286 48.2773C82.5286 47.7031 82.9973 47.3398 83.8177 47.2871L85.4466 47.1875V47.6855C85.4466 48.5645 84.7083 49.2383 83.7473 49.2383ZM83.5188 50.1055C84.3391 50.1055 85.1126 49.6484 85.4759 48.9512H85.4993V50H86.4661V45.7871C86.4661 44.5742 85.5637 43.8008 84.1341 43.8008C82.6927 43.8008 81.7903 44.6094 81.72 45.6641H82.7044C82.8333 45.0664 83.3255 44.6973 84.1106 44.6973C84.9544 44.6973 85.4466 45.1426 85.4466 45.8867V46.3965L83.7005 46.4961C82.2942 46.5781 81.4915 47.2344 81.4915 48.2773C81.4915 49.373 82.3059 50.1055 83.5188 50.1055ZM87.881 50H88.9005V46.1797C88.9005 45.3359 89.4865 44.7031 90.2951 44.7031C91.0509 44.7031 91.5431 45.1836 91.5431 45.916V50H92.5627V46.127C92.5627 45.3008 93.131 44.7031 93.9396 44.7031C94.7423 44.7031 95.2052 45.1953 95.2052 46.0273V50H96.2248V45.793C96.2248 44.5859 95.4455 43.8008 94.2384 43.8008C93.383 43.8008 92.6681 44.2344 92.3283 44.9609H92.3048C92.0412 44.2227 91.4259 43.8008 90.5939 43.8008C89.7736 43.8008 89.1525 44.2344 88.8654 44.8789H88.842V43.9062H87.881V50ZM100.089 44.6855C101.05 44.6855 101.689 45.4121 101.712 46.4316H98.4014C98.4659 45.418 99.1338 44.6855 100.089 44.6855ZM101.689 48.2539C101.519 48.8281 100.95 49.2207 100.177 49.2207C99.0811 49.2207 98.3955 48.4531 98.3955 47.2871V47.2285H102.767V46.8418C102.767 44.9961 101.753 43.8008 100.106 43.8008C98.4248 43.8008 97.3467 45.084 97.3467 46.9766C97.3467 48.8926 98.4073 50.1055 100.153 50.1055C101.483 50.1055 102.515 49.3203 102.69 48.2539H101.689ZM104.615 51.6816L105.418 48.6992H104.334L103.766 51.6816H104.615ZM111.523 44.6855C112.484 44.6855 113.123 45.4121 113.146 46.4316H109.836C109.9 45.418 110.568 44.6855 111.523 44.6855ZM113.123 48.2539C112.953 48.8281 112.384 49.2207 111.611 49.2207C110.515 49.2207 109.83 48.4531 109.83 47.2871V47.2285H114.201V46.8418C114.201 44.9961 113.187 43.8008 111.541 43.8008C109.859 43.8008 108.781 45.084 108.781 46.9766C108.781 48.8926 109.841 50.1055 111.588 50.1055C112.918 50.1055 113.949 49.3203 114.125 48.2539H113.123ZM115.352 50H116.372V46.1797C116.372 45.3359 116.958 44.7031 117.766 44.7031C118.522 44.7031 119.014 45.1836 119.014 45.916V50H120.034V46.127C120.034 45.3008 120.602 44.7031 121.411 44.7031C122.213 44.7031 122.676 45.1953 122.676 46.0273V50H123.696V45.793C123.696 44.5859 122.917 43.8008 121.71 43.8008C120.854 43.8008 120.139 44.2344 119.799 44.9609H119.776C119.512 44.2227 118.897 43.8008 118.065 43.8008C117.245 43.8008 116.624 44.2344 116.336 44.8789H116.313V43.9062H115.352V50ZM127.126 49.2383C126.394 49.2383 125.908 48.8574 125.908 48.2773C125.908 47.7031 126.376 47.3398 127.197 47.2871L128.826 47.1875V47.6855C128.826 48.5645 128.087 49.2383 127.126 49.2383ZM126.898 50.1055C127.718 50.1055 128.492 49.6484 128.855 48.9512H128.878V50H129.845V45.7871C129.845 44.5742 128.943 43.8008 127.513 43.8008C126.072 43.8008 125.169 44.6094 125.099 45.6641H126.083C126.212 45.0664 126.705 44.6973 127.49 44.6973C128.333 44.6973 128.826 45.1426 128.826 45.8867V46.3965L127.08 46.4961C125.673 46.5781 124.871 47.2344 124.871 48.2773C124.871 49.373 125.685 50.1055 126.898 50.1055ZM131.313 50H132.332V43.9062H131.313V50ZM131.823 42.8809C132.174 42.8809 132.461 42.5938 132.461 42.248C132.461 41.8965 132.174 41.6152 131.823 41.6152C131.477 41.6152 131.19 41.8965 131.19 42.248C131.19 42.5938 131.477 42.8809 131.823 42.8809ZM133.882 50H134.902V41.5449H133.882V50ZM137.096 51.6816L137.899 48.6992H136.815L136.246 51.6816H137.096ZM144.519 43.8008C143.635 43.8008 142.926 44.252 142.551 44.9375H142.527V43.9062H141.56V52.0332H142.58V49.0098H142.603C142.967 49.6777 143.67 50.1055 144.543 50.1055C146.078 50.1055 147.127 48.8633 147.127 46.9531C147.127 45.043 146.072 43.8008 144.519 43.8008ZM144.32 49.209C143.277 49.209 142.574 48.3125 142.574 46.9531C142.574 45.5996 143.277 44.6973 144.32 44.6973C145.404 44.6973 146.084 45.5762 146.084 46.9531C146.084 48.3359 145.404 49.209 144.32 49.209ZM148.331 50H149.35V46.4492C149.35 45.3945 149.977 44.7031 150.991 44.7031C151.946 44.7031 152.432 45.2832 152.432 46.25V50H153.452V46.0625C153.452 44.7031 152.643 43.8008 151.307 43.8008C150.382 43.8008 149.714 44.1992 149.374 44.8789H149.35V41.5449H148.331V50ZM157.392 50.1055C159.074 50.1055 160.211 48.8926 160.211 46.9531C160.211 45.0078 159.074 43.8008 157.392 43.8008C155.705 43.8008 154.568 45.0078 154.568 46.9531C154.568 48.8926 155.705 50.1055 157.392 50.1055ZM157.392 49.209C156.314 49.209 155.605 48.3887 155.605 46.9531C155.605 45.5176 156.314 44.6973 157.392 44.6973C158.47 44.6973 159.173 45.5176 159.173 46.9531C159.173 48.3887 158.47 49.209 157.392 49.209ZM161.362 50H162.381V46.4141C162.381 45.3828 163.008 44.7031 163.969 44.7031C164.907 44.7031 165.37 45.2422 165.37 46.2266V50H166.389V46.0449C166.389 44.6621 165.616 43.8008 164.28 43.8008C163.336 43.8008 162.686 44.2227 162.346 44.8789H162.323V43.9062H161.362V50ZM170.253 44.6855C171.214 44.6855 171.853 45.4121 171.876 46.4316H168.566C168.63 45.418 169.298 44.6855 170.253 44.6855ZM171.853 48.2539C171.683 48.8281 171.115 49.2207 170.341 49.2207C169.245 49.2207 168.56 48.4531 168.56 47.2871V47.2285H172.931V46.8418C172.931 44.9961 171.917 43.8008 170.271 43.8008C168.589 43.8008 167.511 45.084 167.511 46.9766C167.511 48.8926 168.572 50.1055 170.318 50.1055C171.648 50.1055 172.679 49.3203 172.855 48.2539H171.853ZM176.663 50H177.683V46.4141C177.683 45.3828 178.31 44.7031 179.271 44.7031C180.208 44.7031 180.671 45.2422 180.671 46.2266V50H181.691V46.0449C181.691 44.6621 180.917 43.8008 179.581 43.8008C178.638 43.8008 177.987 44.2227 177.648 44.8789H177.624V43.9062H176.663V50ZM188.115 43.9062H187.096V47.4863C187.096 48.5234 186.498 49.2031 185.508 49.2031C184.564 49.2031 184.102 48.6699 184.102 47.6797V43.9062H183.082V47.8613C183.082 49.2441 183.861 50.1055 185.191 50.1055C186.129 50.1055 186.762 49.7129 187.125 49.0098H187.148V50H188.115V43.9062ZM189.559 50H190.579V46.1797C190.579 45.3359 191.165 44.7031 191.974 44.7031C192.729 44.7031 193.222 45.1836 193.222 45.916V50H194.241V46.127C194.241 45.3008 194.809 44.7031 195.618 44.7031C196.421 44.7031 196.884 45.1953 196.884 46.0273V50H197.903V45.793C197.903 44.5859 197.124 43.8008 195.917 43.8008C195.061 43.8008 194.347 44.2344 194.007 44.9609H193.983C193.72 44.2227 193.104 43.8008 192.272 43.8008C191.452 43.8008 190.831 44.2344 190.544 44.8789H190.52V43.9062H189.559V50ZM202.353 50.1055C203.912 50.1055 204.943 48.8691 204.943 46.9531C204.943 45.043 203.906 43.8008 202.371 43.8008C201.51 43.8008 200.801 44.2285 200.42 44.9258H200.396V41.5449H199.377V50H200.349V48.9688H200.373C200.765 49.6719 201.463 50.1055 202.353 50.1055ZM202.154 44.6973C203.232 44.6973 203.9 45.5703 203.9 46.9531C203.9 48.3477 203.232 49.209 202.154 49.209C201.123 49.209 200.39 48.3125 200.39 46.9531C200.39 45.5996 201.123 44.6973 202.154 44.6973ZM208.544 44.6855C209.505 44.6855 210.143 45.4121 210.167 46.4316H206.856C206.921 45.418 207.589 44.6855 208.544 44.6855ZM210.143 48.2539C209.973 48.8281 209.405 49.2207 208.631 49.2207C207.536 49.2207 206.85 48.4531 206.85 47.2871V47.2285H211.221V46.8418C211.221 44.9961 210.208 43.8008 208.561 43.8008C206.88 43.8008 205.801 45.084 205.801 46.9766C205.801 48.8926 206.862 50.1055 208.608 50.1055C209.938 50.1055 210.969 49.3203 211.145 48.2539H210.143ZM212.373 50H213.392V46.2031C213.392 45.3418 213.908 44.7734 214.699 44.7734C214.945 44.7734 215.162 44.8027 215.244 44.832V43.8418C215.162 43.8301 215.009 43.8008 214.834 43.8008C214.119 43.8008 213.556 44.2285 213.357 44.9023H213.334V43.9062H212.373V50ZM216.307 51.6816L217.11 48.6992H216.026L215.457 51.6816H216.307ZM222.781 49.2383C222.049 49.2383 221.563 48.8574 221.563 48.2773C221.563 47.7031 222.031 47.3398 222.852 47.2871L224.481 47.1875V47.6855C224.481 48.5645 223.742 49.2383 222.781 49.2383ZM222.553 50.1055C223.373 50.1055 224.147 49.6484 224.51 48.9512H224.533V50H225.5V45.7871C225.5 44.5742 224.598 43.8008 223.168 43.8008C221.727 43.8008 220.824 44.6094 220.754 45.6641H221.738C221.867 45.0664 222.36 44.6973 223.145 44.6973C223.988 44.6973 224.481 45.1426 224.481 45.8867V46.3965L222.735 46.4961C221.328 46.5781 220.526 47.2344 220.526 48.2773C220.526 49.373 221.34 50.1055 222.553 50.1055ZM226.915 50H227.935V46.4141C227.935 45.3828 228.562 44.7031 229.523 44.7031C230.46 44.7031 230.923 45.2422 230.923 46.2266V50H231.942V46.0449C231.942 44.6621 231.169 43.8008 229.833 43.8008C228.89 43.8008 228.239 44.2227 227.899 44.8789H227.876V43.9062H226.915V50ZM235.672 50.1055C236.551 50.1055 237.248 49.6719 237.641 48.9688H237.658V50H238.631V41.5449H237.611V44.8965H237.588C237.225 44.2285 236.521 43.8008 235.648 43.8008C234.113 43.8008 233.064 45.043 233.064 46.9531C233.064 48.8633 234.119 50.1055 235.672 50.1055ZM235.865 44.6973C236.914 44.6973 237.617 45.5938 237.617 46.9531C237.617 48.3184 236.914 49.209 235.865 49.209C234.787 49.209 234.107 48.3359 234.107 46.9531C234.107 45.5762 234.787 44.6973 235.865 44.6973ZM243.213 52.2793C244.314 52.2793 244.818 51.8516 245.34 50.4277L247.736 43.9062H246.664L244.976 48.9805H244.959L243.271 43.9062H242.181L244.431 50.0059L244.291 50.4336C244.056 51.1426 243.74 51.418 243.172 51.418C243.043 51.418 242.884 51.4121 242.773 51.3887V52.2441C242.884 52.2676 243.09 52.2793 243.213 52.2793ZM251.014 50.1055C252.696 50.1055 253.833 48.8926 253.833 46.9531C253.833 45.0078 252.696 43.8008 251.014 43.8008C249.327 43.8008 248.19 45.0078 248.19 46.9531C248.19 48.8926 249.327 50.1055 251.014 50.1055ZM251.014 49.209C249.936 49.209 249.227 48.3887 249.227 46.9531C249.227 45.5176 249.936 44.6973 251.014 44.6973C252.092 44.6973 252.795 45.5176 252.795 46.9531C252.795 48.3887 252.092 49.209 251.014 49.209ZM259.988 43.9062H258.968V47.4863C258.968 48.5234 258.371 49.2031 257.38 49.2031C256.437 49.2031 255.974 48.6699 255.974 47.6797V43.9062H254.955V47.8613C254.955 49.2441 255.734 50.1055 257.064 50.1055C258.001 50.1055 258.634 49.7129 258.997 49.0098H259.021V50H259.988V43.9062ZM261.432 50H262.451V46.2031C262.451 45.3418 262.967 44.7734 263.758 44.7734C264.004 44.7734 264.221 44.8027 264.303 44.832V43.8418C264.221 43.8301 264.069 43.8008 263.893 43.8008C263.178 43.8008 262.616 44.2285 262.416 44.9023H262.393V43.9062H261.432V50ZM56.6719 67.2383C55.9395 67.2383 55.4531 66.8574 55.4531 66.2773C55.4531 65.7031 55.9219 65.3398 56.7422 65.2871L58.3711 65.1875V65.6855C58.3711 66.5645 57.6328 67.2383 56.6719 67.2383ZM56.4434 68.1055C57.2637 68.1055 58.0371 67.6484 58.4004 66.9512H58.4238V68H59.3906V63.7871C59.3906 62.5742 58.4883 61.8008 57.0586 61.8008C55.6172 61.8008 54.7148 62.6094 54.6445 63.6641H55.6289C55.7578 63.0664 56.25 62.6973 57.0352 62.6973C57.8789 62.6973 58.3711 63.1426 58.3711 63.8867V64.3965L56.625 64.4961C55.2188 64.5781 54.416 65.2344 54.416 66.2773C54.416 67.373 55.2305 68.1055 56.4434 68.1055ZM63.1141 68.1055C63.993 68.1055 64.6903 67.6719 65.0829 66.9688H65.1005V68H66.0731V59.5449H65.0536V62.8965H65.0302C64.6669 62.2285 63.9637 61.8008 63.0907 61.8008C61.5555 61.8008 60.5067 63.043 60.5067 64.9531C60.5067 66.8633 61.5614 68.1055 63.1141 68.1055ZM63.3075 62.6973C64.3563 62.6973 65.0595 63.5938 65.0595 64.9531C65.0595 66.3184 64.3563 67.209 63.3075 67.209C62.2294 67.209 61.5497 66.3359 61.5497 64.9531C61.5497 63.5762 62.2294 62.6973 63.3075 62.6973ZM69.8787 68.1055C70.7576 68.1055 71.4548 67.6719 71.8474 66.9688H71.865V68H72.8377V59.5449H71.8181V62.8965H71.7947C71.4314 62.2285 70.7283 61.8008 69.8552 61.8008C68.3201 61.8008 67.2712 63.043 67.2712 64.9531C67.2712 66.8633 68.3259 68.1055 69.8787 68.1055ZM70.072 62.6973C71.1209 62.6973 71.824 63.5938 71.824 64.9531C71.824 66.3184 71.1209 67.209 70.072 67.209C68.9939 67.209 68.3142 66.3359 68.3142 64.9531C68.3142 63.5762 68.9939 62.6973 70.072 62.6973ZM74.3346 68H75.3541V64.2031C75.3541 63.3418 75.8698 62.7734 76.6608 62.7734C76.9069 62.7734 77.1237 62.8027 77.2057 62.832V61.8418C77.1237 61.8301 76.9713 61.8008 76.7955 61.8008C76.0807 61.8008 75.5182 62.2285 75.319 62.9023H75.2955V61.9062H74.3346V68ZM80.3081 62.6855C81.2691 62.6855 81.9077 63.4121 81.9312 64.4316H78.6206C78.6851 63.418 79.353 62.6855 80.3081 62.6855ZM81.9077 66.2539C81.7378 66.8281 81.1695 67.2207 80.396 67.2207C79.3003 67.2207 78.6148 66.4531 78.6148 65.2871V65.2285H82.9859V64.8418C82.9859 62.9961 81.9722 61.8008 80.3257 61.8008C78.6441 61.8008 77.5659 63.084 77.5659 64.9766C77.5659 66.8926 78.6265 68.1055 80.3726 68.1055C81.7027 68.1055 82.7339 67.3203 82.9097 66.2539H81.9077ZM84.0316 63.5879C84.0316 64.4199 84.559 64.9707 85.6313 65.2461L86.7035 65.5215C87.3891 65.7031 87.641 65.9375 87.641 66.3711C87.641 66.9219 87.1313 67.2734 86.3051 67.2734C85.4789 67.2734 84.9984 66.9336 84.8871 66.3008H83.8676C83.973 67.3789 84.9047 68.1055 86.2406 68.1055C87.6645 68.1055 88.6664 67.3555 88.6664 66.2949C88.6664 65.3984 88.2211 64.9531 86.9906 64.6426L86.0473 64.4141C85.3559 64.2383 85.0336 63.957 85.0336 63.5352C85.0336 63.002 85.5258 62.6328 86.2699 62.6328C87.0199 62.6328 87.4945 62.9961 87.5648 63.582H88.5375C88.4906 62.5508 87.5648 61.8008 86.3051 61.8008C84.9633 61.8008 84.0316 62.5449 84.0316 63.5879ZM89.7415 63.5879C89.7415 64.4199 90.2688 64.9707 91.3411 65.2461L92.4134 65.5215C93.0989 65.7031 93.3509 65.9375 93.3509 66.3711C93.3509 66.9219 92.8411 67.2734 92.0149 67.2734C91.1888 67.2734 90.7083 66.9336 90.597 66.3008H89.5774C89.6829 67.3789 90.6145 68.1055 91.9505 68.1055C93.3743 68.1055 94.3763 67.3555 94.3763 66.2949C94.3763 65.3984 93.9309 64.9531 92.7005 64.6426L91.7571 64.4141C91.0657 64.2383 90.7434 63.957 90.7434 63.5352C90.7434 63.002 91.2356 62.6328 91.9798 62.6328C92.7298 62.6328 93.2044 62.9961 93.2747 63.582H94.2473C94.2005 62.5508 93.2747 61.8008 92.0149 61.8008C90.6731 61.8008 89.7415 62.5449 89.7415 63.5879Z" fill="#6B7280"/>
<path d="M305.025 48.1834C304.867 48.1834 304.709 48.1251 304.584 48.0001C304.342 47.7584 304.342 47.3584 304.584 47.1168L309.2 42.5001L304.584 37.8834C304.342 37.6418 304.342 37.2418 304.584 37.0001C304.825 36.7584 305.225 36.7584 305.467 37.0001L310.525 42.0584C310.767 42.3001 310.767 42.7001 310.525 42.9418L305.467 48.0001C305.342 48.1251 305.184 48.1834 305.025 48.1834Z" fill="#111827"/>
<path d="M309.942 43.125H295.917C295.575 43.125 295.292 42.8417 295.292 42.5C295.292 42.1583 295.575 41.875 295.917 41.875H309.942C310.284 41.875 310.567 42.1583 310.567 42.5C310.567 42.8417 310.284 43.125 309.942 43.125Z" fill="#111827"/>
<path d="M163.5 85L163.5 105" stroke="#84A9FF"/>
<rect x="0.5" y="105.5" width="326" height="84" rx="7.5" fill="#E0EBFF"/>
<rect x="0.5" y="105.5" width="326" height="84" rx="7.5" stroke="#84A9FF"/>
<path d="M27.9997 135.833C21.5713 135.833 16.333 141.072 16.333 147.5C16.333 153.928 21.5713 159.167 27.9997 159.167C34.428 159.167 39.6663 153.928 39.6663 147.5C39.6663 141.072 34.428 135.833 27.9997 135.833ZM33.5763 144.817L26.9613 151.432C26.798 151.595 26.5763 151.688 26.343 151.688C26.1097 151.688 25.888 151.595 25.7247 151.432L22.423 148.13C22.0847 147.792 22.0847 147.232 22.423 146.893C22.7613 146.555 23.3213 146.555 23.6597 146.893L26.343 149.577L32.3397 143.58C32.678 143.242 33.238 143.242 33.5763 143.58C33.9147 143.918 33.9147 144.467 33.5763 144.817Z" fill="#3366FF"/>
<path d="M62.1953 131.484H56.7891V127.984H61.9062V126.531H56.7891V123.234H62.1953V121.727H55.0391V133H62.1953V131.484ZM67.035 133.141C68.2303 133.141 69.1678 132.539 69.6522 131.602H69.6834V133H71.3241V121.727H69.6287V126.148H69.5975C69.1366 125.242 68.1991 124.648 67.0194 124.648C64.9569 124.648 63.5819 126.297 63.5819 128.891C63.5819 131.484 64.9569 133.141 67.035 133.141ZM67.4803 126.07C68.7772 126.07 69.6444 127.188 69.6444 128.891C69.6444 130.609 68.7772 131.711 67.4803 131.711C66.1444 131.711 65.3084 130.625 65.3084 128.891C65.3084 127.164 66.1444 126.07 67.4803 126.07ZM80.2653 124.781H78.5778V129.57C78.5778 130.852 77.8434 131.695 76.6247 131.695C75.4606 131.695 74.8669 131.023 74.8669 129.773V124.781H73.1794V130.102C73.1794 131.984 74.2731 133.148 76.0622 133.148C77.32 133.148 78.1559 132.594 78.6091 131.609H78.6481V133H80.2653V124.781ZM89.1519 127.609C89.0034 125.992 87.7144 124.633 85.5972 124.633C83.2612 124.633 81.73 126.281 81.73 128.891C81.73 131.547 83.2612 133.156 85.6128 133.156C87.5894 133.156 88.9878 131.969 89.1675 130.219H87.5425C87.3472 131.172 86.6675 131.742 85.6284 131.742C84.3159 131.742 83.4487 130.695 83.4487 128.891C83.4487 127.125 84.3081 126.039 85.6128 126.039C86.7144 126.039 87.3706 126.734 87.5425 127.609H89.1519ZM93.3978 131.805C92.4916 131.805 91.8978 131.336 91.8978 130.617C91.8978 129.914 92.4681 129.469 93.4759 129.398L95.4994 129.273V129.922C95.4994 130.992 94.5775 131.805 93.3978 131.805ZM92.9291 133.141C94.0072 133.141 95.0462 132.562 95.5228 131.648H95.5619V133H97.1791V127.336C97.1791 125.688 95.9056 124.633 93.9134 124.633C91.8822 124.633 90.6166 125.727 90.5228 127.211H92.1166C92.265 126.477 92.8744 126.008 93.8509 126.008C94.8822 126.008 95.4994 126.555 95.4994 127.469V128.102L93.2494 128.234C91.2962 128.344 90.1947 129.227 90.1947 130.664C90.1947 132.141 91.3197 133.141 92.9291 133.141ZM99.4719 122.836V124.781H98.2766V126.117H99.4719V130.836C99.4719 132.422 100.12 133.055 101.784 133.055C102.159 133.055 102.534 133.023 102.722 132.977V131.641C102.612 131.664 102.339 131.68 102.167 131.68C101.48 131.68 101.167 131.359 101.167 130.648V126.117H102.73V124.781H101.167V122.836H99.4719ZM104.335 133H106.022V124.781H104.335V133ZM105.179 123.578C105.726 123.578 106.163 123.148 106.163 122.617C106.163 122.078 105.726 121.648 105.179 121.648C104.64 121.648 104.202 122.078 104.202 122.617C104.202 123.148 104.64 123.578 105.179 123.578ZM111.44 133.156C113.792 133.156 115.339 131.539 115.339 128.891C115.339 126.25 113.784 124.633 111.44 124.633C109.097 124.633 107.542 126.25 107.542 128.891C107.542 131.539 109.089 133.156 111.44 133.156ZM111.44 131.766C110.12 131.766 109.261 130.719 109.261 128.891C109.261 127.07 110.12 126.023 111.44 126.023C112.761 126.023 113.62 127.07 113.62 128.891C113.62 130.719 112.768 131.766 111.44 131.766ZM116.803 133H118.491V128.211C118.491 126.938 119.257 126.094 120.444 126.094C121.616 126.094 122.194 126.773 122.194 128.008V133H123.889V127.68C123.889 125.797 122.85 124.641 121.038 124.641C119.772 124.641 118.897 125.219 118.452 126.156H118.413V124.781H116.803V133Z" fill="#111827"/>
<path d="M60.0586 154.051H55.875V151.145H59.8418V150.207H55.875V147.494H60.0586V146.545H54.8203V155H60.0586V154.051ZM61.4149 155H62.4345V151.414C62.4345 150.383 63.0614 149.703 64.0223 149.703C64.9598 149.703 65.4227 150.242 65.4227 151.227V155H66.4423V151.045C66.4423 149.662 65.6688 148.801 64.3329 148.801C63.3895 148.801 62.7391 149.223 62.3993 149.879H62.3759V148.906H61.4149V155ZM68.1912 147.436V148.906H67.283V149.744H68.1912V153.418C68.1912 154.59 68.6248 155.047 69.7439 155.047C69.9841 155.047 70.2654 155.029 70.3884 155V154.145C70.3181 154.156 70.0837 154.174 69.9666 154.174C69.4451 154.174 69.2107 153.922 69.2107 153.365V149.744H70.3943V148.906H69.2107V147.436H68.1912ZM73.8717 149.686C74.8327 149.686 75.4713 150.412 75.4948 151.432H72.1842C72.2487 150.418 72.9166 149.686 73.8717 149.686ZM75.4713 153.254C75.3014 153.828 74.733 154.221 73.9596 154.221C72.8639 154.221 72.1784 153.453 72.1784 152.287V152.229H76.5495V151.842C76.5495 149.996 75.5358 148.801 73.8893 148.801C72.2077 148.801 71.1295 150.084 71.1295 151.977C71.1295 153.893 72.1901 155.105 73.9362 155.105C75.2663 155.105 76.2975 154.32 76.4733 153.254H75.4713ZM77.7007 155H78.7202V151.203C78.7202 150.342 79.2359 149.773 80.0269 149.773C80.273 149.773 80.4898 149.803 80.5718 149.832V148.842C80.4898 148.83 80.3374 148.801 80.1616 148.801C79.4468 148.801 78.8843 149.229 78.6851 149.902H78.6616V148.906H77.7007V155ZM84.6087 157.279C85.7102 157.279 86.2141 156.852 86.7356 155.428L89.1321 148.906H88.0598L86.3723 153.98H86.3548L84.6673 148.906H83.5774L85.8274 155.006L85.6868 155.434C85.4524 156.143 85.136 156.418 84.5677 156.418C84.4387 156.418 84.2805 156.412 84.1692 156.389V157.244C84.2805 157.268 84.4856 157.279 84.6087 157.279ZM92.4103 155.105C94.092 155.105 95.2287 153.893 95.2287 151.953C95.2287 150.008 94.092 148.801 92.4103 148.801C90.7228 148.801 89.5861 150.008 89.5861 151.953C89.5861 153.893 90.7228 155.105 92.4103 155.105ZM92.4103 154.209C91.3322 154.209 90.6232 153.389 90.6232 151.953C90.6232 150.518 91.3322 149.697 92.4103 149.697C93.4884 149.697 94.1916 150.518 94.1916 151.953C94.1916 153.389 93.4884 154.209 92.4103 154.209ZM101.384 148.906H100.364V152.486C100.364 153.523 99.7666 154.203 98.7764 154.203C97.833 154.203 97.3702 153.67 97.3702 152.68V148.906H96.3506V152.861C96.3506 154.244 97.1299 155.105 98.46 155.105C99.3975 155.105 100.03 154.713 100.394 154.01H100.417V155H101.384V148.906ZM102.828 155H103.848V151.203C103.848 150.342 104.363 149.773 105.154 149.773C105.4 149.773 105.617 149.803 105.699 149.832V148.842C105.617 148.83 105.465 148.801 105.289 148.801C104.574 148.801 104.012 149.229 103.812 149.902H103.789V148.906H102.828V155ZM111.675 149.686C112.636 149.686 113.275 150.412 113.299 151.432H109.988C110.052 150.418 110.72 149.686 111.675 149.686ZM113.275 153.254C113.105 153.828 112.537 154.221 111.763 154.221C110.668 154.221 109.982 153.453 109.982 152.287V152.229H114.353V151.842C114.353 149.996 113.34 148.801 111.693 148.801C110.011 148.801 108.933 150.084 108.933 151.977C108.933 153.893 109.994 155.105 111.74 155.105C113.07 155.105 114.101 154.32 114.277 153.254H113.275ZM117.813 155.105C118.692 155.105 119.389 154.672 119.782 153.969H119.799V155H120.772V146.545H119.752V149.896H119.729C119.366 149.229 118.663 148.801 117.79 148.801C116.254 148.801 115.206 150.043 115.206 151.953C115.206 153.863 116.26 155.105 117.813 155.105ZM118.006 149.697C119.055 149.697 119.758 150.594 119.758 151.953C119.758 153.318 119.055 154.209 118.006 154.209C116.928 154.209 116.249 153.336 116.249 151.953C116.249 150.576 116.928 149.697 118.006 149.697ZM127.273 148.906H126.253V152.486C126.253 153.523 125.656 154.203 124.665 154.203C123.722 154.203 123.259 153.67 123.259 152.68V148.906H122.24V152.861C122.24 154.244 123.019 155.105 124.349 155.105C125.287 155.105 125.919 154.713 126.283 154.01H126.306V155H127.273V148.906ZM133.78 150.904C133.651 149.809 132.743 148.801 131.219 148.801C129.537 148.801 128.418 150.031 128.418 151.953C128.418 153.916 129.543 155.105 131.231 155.105C132.614 155.105 133.633 154.25 133.791 153.037H132.789C132.614 153.77 132.069 154.209 131.237 154.209C130.182 154.209 129.455 153.371 129.455 151.953C129.455 150.57 130.17 149.697 131.225 149.697C132.121 149.697 132.637 150.242 132.784 150.904H133.78ZM136.859 154.238C136.126 154.238 135.64 153.857 135.64 153.277C135.64 152.703 136.109 152.34 136.929 152.287L138.558 152.188V152.686C138.558 153.564 137.82 154.238 136.859 154.238ZM136.63 155.105C137.45 155.105 138.224 154.648 138.587 153.951H138.611V155H139.577V150.787C139.577 149.574 138.675 148.801 137.245 148.801C135.804 148.801 134.902 149.609 134.831 150.664H135.816C135.945 150.066 136.437 149.697 137.222 149.697C138.066 149.697 138.558 150.143 138.558 150.887V151.396L136.812 151.496C135.405 151.578 134.603 152.234 134.603 153.277C134.603 154.373 135.417 155.105 136.63 155.105ZM141.32 147.436V148.906H140.412V149.744H141.32V153.418C141.32 154.59 141.754 155.047 142.873 155.047C143.113 155.047 143.395 155.029 143.518 155V154.145C143.447 154.156 143.213 154.174 143.096 154.174C142.574 154.174 142.34 153.922 142.34 153.365V149.744H143.524V148.906H142.34V147.436H141.32ZM144.786 155H145.806V148.906H144.786V155ZM145.296 147.881C145.647 147.881 145.935 147.594 145.935 147.248C145.935 146.896 145.647 146.615 145.296 146.615C144.95 146.615 144.663 146.896 144.663 147.248C144.663 147.594 144.95 147.881 145.296 147.881ZM149.828 155.105C151.51 155.105 152.646 153.893 152.646 151.953C152.646 150.008 151.51 148.801 149.828 148.801C148.14 148.801 147.004 150.008 147.004 151.953C147.004 153.893 148.14 155.105 149.828 155.105ZM149.828 154.209C148.75 154.209 148.041 153.389 148.041 151.953C148.041 150.518 148.75 149.697 149.828 149.697C150.906 149.697 151.609 150.518 151.609 151.953C151.609 153.389 150.906 154.209 149.828 154.209ZM153.798 155H154.817V151.414C154.817 150.383 155.444 149.703 156.405 149.703C157.342 149.703 157.805 150.242 157.805 151.227V155H158.825V151.045C158.825 149.662 158.051 148.801 156.716 148.801C155.772 148.801 155.122 149.223 154.782 149.879H154.759V148.906H153.798V155ZM162.255 154.238C161.523 154.238 161.037 153.857 161.037 153.277C161.037 152.703 161.505 152.34 162.326 152.287L163.955 152.188V152.686C163.955 153.564 163.216 154.238 162.255 154.238ZM162.027 155.105C162.847 155.105 163.621 154.648 163.984 153.951H164.007V155H164.974V150.787C164.974 149.574 164.072 148.801 162.642 148.801C161.201 148.801 160.298 149.609 160.228 150.664H161.213C161.341 150.066 161.834 149.697 162.619 149.697C163.463 149.697 163.955 150.143 163.955 150.887V151.396L162.209 151.496C160.802 151.578 160 152.234 160 153.277C160 154.373 160.814 155.105 162.027 155.105ZM166.442 155H167.461V146.545H166.442V155ZM171.592 155H172.612V151.449C172.612 150.395 173.239 149.703 174.252 149.703C175.207 149.703 175.694 150.283 175.694 151.25V155H176.713V151.062C176.713 149.703 175.905 148.801 174.569 148.801C173.643 148.801 172.975 149.199 172.635 149.879H172.612V146.545H171.592V155ZM178.181 155H179.2V148.906H178.181V155ZM178.691 147.881C179.042 147.881 179.329 147.594 179.329 147.248C179.329 146.896 179.042 146.615 178.691 146.615C178.345 146.615 178.058 146.896 178.058 147.248C178.058 147.594 178.345 147.881 178.691 147.881ZM180.592 150.588C180.592 151.42 181.119 151.971 182.191 152.246L183.264 152.521C183.949 152.703 184.201 152.938 184.201 153.371C184.201 153.922 183.691 154.273 182.865 154.273C182.039 154.273 181.559 153.934 181.447 153.301H180.428C180.533 154.379 181.465 155.105 182.801 155.105C184.225 155.105 185.227 154.355 185.227 153.295C185.227 152.398 184.781 151.953 183.551 151.643L182.607 151.414C181.916 151.238 181.594 150.957 181.594 150.535C181.594 150.002 182.086 149.633 182.83 149.633C183.58 149.633 184.055 149.996 184.125 150.582H185.098C185.051 149.551 184.125 148.801 182.865 148.801C181.523 148.801 180.592 149.545 180.592 150.588ZM186.735 147.436V148.906H185.827V149.744H186.735V153.418C186.735 154.59 187.169 155.047 188.288 155.047C188.528 155.047 188.809 155.029 188.932 155V154.145C188.862 154.156 188.628 154.174 188.511 154.174C187.989 154.174 187.755 153.922 187.755 153.365V149.744H188.938V148.906H187.755V147.436H186.735ZM192.498 155.105C194.179 155.105 195.316 153.893 195.316 151.953C195.316 150.008 194.179 148.801 192.498 148.801C190.81 148.801 189.674 150.008 189.674 151.953C189.674 153.893 190.81 155.105 192.498 155.105ZM192.498 154.209C191.42 154.209 190.711 153.389 190.711 151.953C190.711 150.518 191.42 149.697 192.498 149.697C193.576 149.697 194.279 150.518 194.279 151.953C194.279 153.389 193.576 154.209 192.498 154.209ZM196.467 155H197.487V151.203C197.487 150.342 198.003 149.773 198.794 149.773C199.04 149.773 199.256 149.803 199.339 149.832V148.842C199.256 148.83 199.104 148.801 198.928 148.801C198.214 148.801 197.651 149.229 197.452 149.902H197.428V148.906H196.467V155ZM200.794 157.279C201.896 157.279 202.4 156.852 202.921 155.428L205.318 148.906H204.246L202.558 153.98H202.541L200.853 148.906H199.763L202.013 155.006L201.873 155.434C201.638 156.143 201.322 156.418 200.753 156.418C200.625 156.418 200.466 156.412 200.355 156.389V157.244C200.466 157.268 200.671 157.279 200.794 157.279ZM209.156 147.436V148.906H208.247V149.744H209.156V153.418C209.156 154.59 209.589 155.047 210.708 155.047C210.949 155.047 211.23 155.029 211.353 155V154.145C211.283 154.156 211.048 154.174 210.931 154.174C210.409 154.174 210.175 153.922 210.175 153.365V149.744H211.359V148.906H210.175V147.436H209.156ZM214.918 155.105C216.6 155.105 217.736 153.893 217.736 151.953C217.736 150.008 216.6 148.801 214.918 148.801C213.231 148.801 212.094 150.008 212.094 151.953C212.094 153.893 213.231 155.105 214.918 155.105ZM214.918 154.209C213.84 154.209 213.131 153.389 213.131 151.953C213.131 150.518 213.84 149.697 214.918 149.697C215.996 149.697 216.699 150.518 216.699 151.953C216.699 153.389 215.996 154.209 214.918 154.209ZM224.498 155.105C226.057 155.105 227.088 153.869 227.088 151.953C227.088 150.043 226.051 148.801 224.516 148.801C223.654 148.801 222.945 149.229 222.564 149.926H222.541V146.545H221.521V155H222.494V153.969H222.518C222.91 154.672 223.607 155.105 224.498 155.105ZM224.299 149.697C225.377 149.697 226.045 150.57 226.045 151.953C226.045 153.348 225.377 154.209 224.299 154.209C223.268 154.209 222.535 153.312 222.535 151.953C222.535 150.6 223.268 149.697 224.299 149.697ZM230.688 149.686C231.649 149.686 232.288 150.412 232.311 151.432H229.001C229.065 150.418 229.733 149.686 230.688 149.686ZM232.288 153.254C232.118 153.828 231.55 154.221 230.776 154.221C229.68 154.221 228.995 153.453 228.995 152.287V152.229H233.366V151.842C233.366 149.996 232.352 148.801 230.706 148.801C229.024 148.801 227.946 150.084 227.946 151.977C227.946 153.893 229.007 155.105 230.753 155.105C232.083 155.105 233.114 154.32 233.29 153.254H232.288ZM59.7246 168.904C59.5957 167.809 58.6875 166.801 57.1641 166.801C55.4824 166.801 54.3633 168.031 54.3633 169.953C54.3633 171.916 55.4883 173.105 57.1758 173.105C58.5586 173.105 59.5781 172.25 59.7363 171.037H58.7344C58.5586 171.77 58.0137 172.209 57.1816 172.209C56.127 172.209 55.4004 171.371 55.4004 169.953C55.4004 168.57 56.1152 167.697 57.1699 167.697C58.0664 167.697 58.582 168.242 58.7285 168.904H59.7246ZM63.3192 173.105C65.0009 173.105 66.1376 171.893 66.1376 169.953C66.1376 168.008 65.0009 166.801 63.3192 166.801C61.6317 166.801 60.495 168.008 60.495 169.953C60.495 171.893 61.6317 173.105 63.3192 173.105ZM63.3192 172.209C62.2411 172.209 61.5321 171.389 61.5321 169.953C61.5321 168.518 62.2411 167.697 63.3192 167.697C64.3973 167.697 65.1005 168.518 65.1005 169.953C65.1005 171.389 64.3973 172.209 63.3192 172.209ZM67.2888 173H68.3084V169.414C68.3084 168.383 68.9353 167.703 69.8962 167.703C70.8337 167.703 71.2966 168.242 71.2966 169.227V173H72.3162V169.045C72.3162 167.662 71.5427 166.801 70.2068 166.801C69.2634 166.801 68.613 167.223 68.2732 167.879H68.2498V166.906H67.2888V173ZM73.6315 168.588C73.6315 169.42 74.1588 169.971 75.2311 170.246L76.3034 170.521C76.9889 170.703 77.2409 170.938 77.2409 171.371C77.2409 171.922 76.7311 172.273 75.9049 172.273C75.0788 172.273 74.5983 171.934 74.487 171.301H73.4674C73.5729 172.379 74.5045 173.105 75.8405 173.105C77.2643 173.105 78.2663 172.355 78.2663 171.295C78.2663 170.398 77.8209 169.953 76.5905 169.643L75.6471 169.414C74.9557 169.238 74.6334 168.957 74.6334 168.535C74.6334 168.002 75.1256 167.633 75.8698 167.633C76.6198 167.633 77.0944 167.996 77.1647 168.582H78.1373C78.0905 167.551 77.1647 166.801 75.9049 166.801C74.5631 166.801 73.6315 167.545 73.6315 168.588ZM79.4995 173H80.5191V166.906H79.4995V173ZM80.0093 165.881C80.3609 165.881 80.648 165.594 80.648 165.248C80.648 164.896 80.3609 164.615 80.0093 164.615C79.6636 164.615 79.3765 164.896 79.3765 165.248C79.3765 165.594 79.6636 165.881 80.0093 165.881ZM84.3246 173.105C85.2035 173.105 85.9008 172.672 86.2934 171.969H86.3109V173H87.2836V164.545H86.2641V167.896H86.2406C85.8773 167.229 85.1742 166.801 84.3012 166.801C82.766 166.801 81.7172 168.043 81.7172 169.953C81.7172 171.863 82.7719 173.105 84.3246 173.105ZM84.518 167.697C85.5668 167.697 86.2699 168.594 86.2699 169.953C86.2699 171.318 85.5668 172.209 84.518 172.209C83.4398 172.209 82.7602 171.336 82.7602 169.953C82.7602 168.576 83.4398 167.697 84.518 167.697ZM91.2239 167.686C92.1848 167.686 92.8235 168.412 92.847 169.432H89.5364C89.6009 168.418 90.2688 167.686 91.2239 167.686ZM92.8235 171.254C92.6536 171.828 92.0852 172.221 91.3118 172.221C90.2161 172.221 89.5305 171.453 89.5305 170.287V170.229H93.9016V169.842C93.9016 167.996 92.888 166.801 91.2415 166.801C89.5598 166.801 88.4817 168.084 88.4817 169.977C88.4817 171.893 89.5423 173.105 91.2884 173.105C92.6184 173.105 93.6497 172.32 93.8255 171.254H92.8235ZM95.0529 173H96.0724V169.203C96.0724 168.342 96.588 167.773 97.3791 167.773C97.6252 167.773 97.842 167.803 97.924 167.832V166.842C97.842 166.83 97.6896 166.801 97.5138 166.801C96.799 166.801 96.2365 167.229 96.0373 167.902H96.0138V166.906H95.0529V173ZM101.026 167.686C101.987 167.686 102.626 168.412 102.649 169.432H99.3389C99.4034 168.418 100.071 167.686 101.026 167.686ZM102.626 171.254C102.456 171.828 101.888 172.221 101.114 172.221C100.019 172.221 99.333 171.453 99.333 170.287V170.229H103.704V169.842C103.704 167.996 102.69 166.801 101.044 166.801C99.3623 166.801 98.2842 168.084 98.2842 169.977C98.2842 171.893 99.3448 173.105 101.091 173.105C102.421 173.105 103.452 172.32 103.628 171.254H102.626ZM107.164 173.105C108.043 173.105 108.74 172.672 109.133 171.969H109.15V173H110.123V164.545H109.103V167.896H109.08C108.717 167.229 108.014 166.801 107.141 166.801C105.605 166.801 104.557 168.043 104.557 169.953C104.557 171.863 105.611 173.105 107.164 173.105ZM107.357 167.697C108.406 167.697 109.109 168.594 109.109 169.953C109.109 171.318 108.406 172.209 107.357 172.209C106.279 172.209 105.6 171.336 105.6 169.953C105.6 168.576 106.279 167.697 107.357 167.697ZM117.23 173.105C118.789 173.105 119.82 171.869 119.82 169.953C119.82 168.043 118.783 166.801 117.248 166.801C116.386 166.801 115.677 167.229 115.297 167.926H115.273V164.545H114.254V173H115.226V171.969H115.25C115.642 172.672 116.34 173.105 117.23 173.105ZM117.031 167.697C118.109 167.697 118.777 168.57 118.777 169.953C118.777 171.348 118.109 172.209 117.031 172.209C116 172.209 115.267 171.312 115.267 169.953C115.267 168.6 116 167.697 117.031 167.697ZM121.305 175.279C122.407 175.279 122.911 174.852 123.432 173.428L125.829 166.906H124.756L123.069 171.98H123.051L121.364 166.906H120.274L122.524 173.006L122.383 173.434C122.149 174.143 121.833 174.418 121.264 174.418C121.135 174.418 120.977 174.412 120.866 174.389V175.244C120.977 175.268 121.182 175.279 121.305 175.279ZM129.666 165.436V166.906H128.758V167.744H129.666V171.418C129.666 172.59 130.1 173.047 131.219 173.047C131.459 173.047 131.741 173.029 131.864 173V172.145C131.793 172.156 131.559 172.174 131.442 172.174C130.92 172.174 130.686 171.922 130.686 171.365V167.744H131.869V166.906H130.686V165.436H129.666ZM133.132 173H134.152V169.449C134.152 168.395 134.779 167.703 135.792 167.703C136.747 167.703 137.234 168.283 137.234 169.25V173H138.253V169.062C138.253 167.703 137.445 166.801 136.109 166.801C135.183 166.801 134.515 167.199 134.175 167.879H134.152V164.545H133.132V173ZM142.111 167.686C143.072 167.686 143.711 168.412 143.734 169.432H140.424C140.488 168.418 141.156 167.686 142.111 167.686ZM143.711 171.254C143.541 171.828 142.973 172.221 142.199 172.221C141.104 172.221 140.418 171.453 140.418 170.287V170.229H144.789V169.842C144.789 167.996 143.775 166.801 142.129 166.801C140.447 166.801 139.369 168.084 139.369 169.977C139.369 171.893 140.43 173.105 142.176 173.105C143.506 173.105 144.537 172.32 144.713 171.254H143.711ZM148.521 173H149.541V169.203C149.541 168.342 150.056 167.773 150.848 167.773C151.094 167.773 151.31 167.803 151.392 167.832V166.842C151.31 166.83 151.158 166.801 150.982 166.801C150.267 166.801 149.705 167.229 149.506 167.902H149.482V166.906H148.521V173ZM154.495 167.686C155.456 167.686 156.094 168.412 156.118 169.432H152.807C152.872 168.418 153.54 167.686 154.495 167.686ZM156.094 171.254C155.925 171.828 155.356 172.221 154.583 172.221C153.487 172.221 152.801 171.453 152.801 170.287V170.229H157.173V169.842C157.173 167.996 156.159 166.801 154.512 166.801C152.831 166.801 151.753 168.084 151.753 169.977C151.753 171.893 152.813 173.105 154.559 173.105C155.889 173.105 156.921 172.32 157.096 171.254H156.094ZM163.386 168.904C163.257 167.809 162.349 166.801 160.826 166.801C159.144 166.801 158.025 168.031 158.025 169.953C158.025 171.916 159.15 173.105 160.838 173.105C162.22 173.105 163.24 172.25 163.398 171.037H162.396C162.22 171.77 161.675 172.209 160.843 172.209C159.789 172.209 159.062 171.371 159.062 169.953C159.062 168.57 159.777 167.697 160.832 167.697C161.728 167.697 162.244 168.242 162.39 168.904H163.386ZM164.456 173H165.475V169.203C165.475 168.342 165.991 167.773 166.782 167.773C167.028 167.773 167.245 167.803 167.327 167.832V166.842C167.245 166.83 167.092 166.801 166.916 166.801C166.202 166.801 165.639 167.229 165.44 167.902H165.416V166.906H164.456V173ZM173.283 166.906H172.263V170.486C172.263 171.523 171.665 172.203 170.675 172.203C169.732 172.203 169.269 171.67 169.269 170.68V166.906H168.249V170.861C168.249 172.244 169.029 173.105 170.359 173.105C171.296 173.105 171.929 172.713 172.292 172.01H172.316V173H173.283V166.906ZM174.78 173H175.799V166.906H174.78V173ZM175.289 165.881C175.641 165.881 175.928 165.594 175.928 165.248C175.928 164.896 175.641 164.615 175.289 164.615C174.944 164.615 174.656 164.896 174.656 165.248C174.656 165.594 174.944 165.881 175.289 165.881ZM177.624 165.436V166.906H176.716V167.744H177.624V171.418C177.624 172.59 178.058 173.047 179.177 173.047C179.417 173.047 179.698 173.029 179.821 173V172.145C179.751 172.156 179.517 172.174 179.4 172.174C178.878 172.174 178.644 171.922 178.644 171.365V167.744H179.827V166.906H178.644V165.436H177.624ZM183.305 167.686C184.266 167.686 184.904 168.412 184.928 169.432H181.617C181.682 168.418 182.35 167.686 183.305 167.686ZM184.904 171.254C184.734 171.828 184.166 172.221 183.393 172.221C182.297 172.221 181.611 171.453 181.611 170.287V170.229H185.982V169.842C185.982 167.996 184.969 166.801 183.322 166.801C181.641 166.801 180.562 168.084 180.562 169.977C180.562 171.893 181.623 173.105 183.369 173.105C184.699 173.105 185.73 172.32 185.906 171.254H184.904ZM187.134 173H188.153V169.203C188.153 168.342 188.669 167.773 189.46 167.773C189.706 167.773 189.923 167.803 190.005 167.832V166.842C189.923 166.83 189.77 166.801 189.595 166.801C188.88 166.801 188.317 167.229 188.118 167.902H188.095V166.906H187.134V173Z" fill="#6B7280"/>
<path d="M305.025 153.183C304.867 153.183 304.709 153.125 304.584 153C304.342 152.758 304.342 152.358 304.584 152.117L309.2 147.5L304.584 142.883C304.342 142.642 304.342 142.242 304.584 142C304.825 141.758 305.225 141.758 305.467 142L310.525 147.058C310.767 147.3 310.767 147.7 310.525 147.942L305.467 153C305.342 153.125 305.184 153.183 305.025 153.183Z" fill="#111827"/>
<path d="M309.942 148.125H295.917C295.575 148.125 295.292 147.842 295.292 147.5C295.292 147.158 295.575 146.875 295.917 146.875H309.942C310.284 146.875 310.567 147.158 310.567 147.5C310.567 147.842 310.284 148.125 309.942 148.125Z" fill="#111827"/>
<path d="M163.5 190L163.5 210" stroke="#84A9FF"/>
<rect x="0.5" y="210.5" width="326" height="84" rx="7.5" fill="#E0EBFF"/>
<rect x="0.5" y="210.5" width="326" height="84" rx="7.5" stroke="#84A9FF"/>
<path d="M27.9997 240.833C21.5713 240.833 16.333 246.072 16.333 252.5C16.333 258.928 21.5713 264.167 27.9997 264.167C34.428 264.167 39.6663 258.928 39.6663 252.5C39.6663 246.072 34.428 240.833 27.9997 240.833ZM33.5763 249.817L26.9613 256.432C26.798 256.595 26.5763 256.688 26.343 256.688C26.1097 256.688 25.888 256.595 25.7247 256.432L22.423 253.13C22.0847 252.792 22.0847 252.232 22.423 251.893C22.7613 251.555 23.3213 251.555 23.6597 251.893L26.343 254.577L32.3397 248.58C32.678 248.242 33.238 248.242 33.5763 248.58C33.9147 248.918 33.9147 249.467 33.5763 249.817Z" fill="#3366FF"/>
<path d="M62.1953 236.484H56.7891V232.984H61.9062V231.531H56.7891V228.234H62.1953V226.727H55.0391V238H62.1953V236.484ZM67.0272 234.977L68.8397 238H70.6991L68.035 233.844L70.7303 229.781H68.8709L67.0975 232.758H67.0662L65.2694 229.781H63.3787L66.0506 233.898L63.3397 238H65.1678L66.9881 234.977H67.0272ZM76.2341 229.648C75.0466 229.648 74.1012 230.25 73.6169 231.195H73.5856V229.781H71.9528V240.719H73.6403V236.648H73.6794C74.1481 237.562 75.0856 238.141 76.2653 238.141C78.3278 238.141 79.695 236.492 79.695 233.891C79.695 231.289 78.32 229.648 76.2341 229.648ZM75.7887 236.711C74.4919 236.711 73.6325 235.602 73.6325 233.891C73.6325 232.195 74.4997 231.07 75.7887 231.07C77.1247 231.07 77.9606 232.172 77.9606 233.891C77.9606 235.617 77.1247 236.711 75.7887 236.711ZM84.5972 230.992C85.7769 230.992 86.5737 231.875 86.6128 233.133H82.5034C82.5894 231.891 83.4175 230.992 84.5972 230.992ZM86.605 235.586C86.3784 236.305 85.6675 236.789 84.7066 236.789C83.355 236.789 82.4956 235.844 82.4956 234.414V234.312H88.3003V233.734C88.3003 231.242 86.8784 229.633 84.5972 229.633C82.2769 229.633 80.7925 231.352 80.7925 233.93C80.7925 236.523 82.2534 238.156 84.6675 238.156C86.5503 238.156 87.9722 237.086 88.2066 235.586H86.605ZM89.7728 238H91.4603V233.078C91.4603 231.914 92.1322 231.188 93.2181 231.188C93.5462 231.188 93.8431 231.227 93.9759 231.281V229.711C93.8509 229.688 93.64 229.648 93.3978 229.648C92.4291 229.648 91.6947 230.219 91.4212 231.18H91.3822V229.781H89.7728V238ZM95.2375 238H96.925V229.781H95.2375V238ZM96.0812 228.578C96.6281 228.578 97.0656 228.148 97.0656 227.617C97.0656 227.078 96.6281 226.648 96.0812 226.648C95.5422 226.648 95.1047 227.078 95.1047 227.617C95.1047 228.148 95.5422 228.578 96.0812 228.578ZM102.249 230.992C103.429 230.992 104.226 231.875 104.265 233.133H100.155C100.241 231.891 101.069 230.992 102.249 230.992ZM104.257 235.586C104.03 236.305 103.319 236.789 102.358 236.789C101.007 236.789 100.147 235.844 100.147 234.414V234.312H105.952V233.734C105.952 231.242 104.53 229.633 102.249 229.633C99.9287 229.633 98.4444 231.352 98.4444 233.93C98.4444 236.523 99.9053 238.156 102.319 238.156C104.202 238.156 105.624 237.086 105.858 235.586H104.257ZM107.425 238H109.112V233.211C109.112 231.938 109.878 231.094 111.065 231.094C112.237 231.094 112.815 231.773 112.815 233.008V238H114.511V232.68C114.511 230.797 113.472 229.641 111.659 229.641C110.393 229.641 109.518 230.219 109.073 231.156H109.034V229.781H107.425V238ZM123.358 232.609C123.21 230.992 121.921 229.633 119.803 229.633C117.467 229.633 115.936 231.281 115.936 233.891C115.936 236.547 117.467 238.156 119.819 238.156C121.796 238.156 123.194 236.969 123.374 235.219H121.749C121.553 236.172 120.874 236.742 119.835 236.742C118.522 236.742 117.655 235.695 117.655 233.891C117.655 232.125 118.514 231.039 119.819 231.039C120.921 231.039 121.577 231.734 121.749 232.609H123.358ZM128.167 230.992C129.346 230.992 130.143 231.875 130.182 233.133H126.073C126.159 231.891 126.987 230.992 128.167 230.992ZM130.174 235.586C129.948 236.305 129.237 236.789 128.276 236.789C126.924 236.789 126.065 235.844 126.065 234.414V234.312H131.87V233.734C131.87 231.242 130.448 229.633 128.167 229.633C125.846 229.633 124.362 231.352 124.362 233.93C124.362 236.523 125.823 238.156 128.237 238.156C130.12 238.156 131.542 237.086 131.776 235.586H130.174Z" fill="#111827"/>
<path d="M60.0586 259.051H55.875V256.145H59.8418V255.207H55.875V252.494H60.0586V251.545H54.8203V260H60.0586V259.051ZM61.4149 260H62.4345V256.414C62.4345 255.383 63.0614 254.703 64.0223 254.703C64.9598 254.703 65.4227 255.242 65.4227 256.227V260H66.4423V256.045C66.4423 254.662 65.6688 253.801 64.3329 253.801C63.3895 253.801 62.7391 254.223 62.3993 254.879H62.3759V253.906H61.4149V260ZM68.1912 252.436V253.906H67.283V254.744H68.1912V258.418C68.1912 259.59 68.6248 260.047 69.7439 260.047C69.9841 260.047 70.2654 260.029 70.3884 260V259.145C70.3181 259.156 70.0837 259.174 69.9666 259.174C69.4451 259.174 69.2107 258.922 69.2107 258.365V254.744H70.3943V253.906H69.2107V252.436H68.1912ZM73.8717 254.686C74.8327 254.686 75.4713 255.412 75.4948 256.432H72.1842C72.2487 255.418 72.9166 254.686 73.8717 254.686ZM75.4713 258.254C75.3014 258.828 74.733 259.221 73.9596 259.221C72.8639 259.221 72.1784 258.453 72.1784 257.287V257.229H76.5495V256.842C76.5495 254.996 75.5358 253.801 73.8893 253.801C72.2077 253.801 71.1295 255.084 71.1295 256.977C71.1295 258.893 72.1901 260.105 73.9362 260.105C75.2663 260.105 76.2975 259.32 76.4733 258.254H75.4713ZM77.7007 260H78.7202V256.203C78.7202 255.342 79.2359 254.773 80.0269 254.773C80.273 254.773 80.4898 254.803 80.5718 254.832V253.842C80.4898 253.83 80.3374 253.801 80.1616 253.801C79.4468 253.801 78.8843 254.229 78.6851 254.902H78.6616V253.906H77.7007V260ZM84.6087 262.279C85.7102 262.279 86.2141 261.852 86.7356 260.428L89.1321 253.906H88.0598L86.3723 258.98H86.3548L84.6673 253.906H83.5774L85.8274 260.006L85.6868 260.434C85.4524 261.143 85.136 261.418 84.5677 261.418C84.4387 261.418 84.2805 261.412 84.1692 261.389V262.244C84.2805 262.268 84.4856 262.279 84.6087 262.279ZM92.4103 260.105C94.092 260.105 95.2287 258.893 95.2287 256.953C95.2287 255.008 94.092 253.801 92.4103 253.801C90.7228 253.801 89.5861 255.008 89.5861 256.953C89.5861 258.893 90.7228 260.105 92.4103 260.105ZM92.4103 259.209C91.3322 259.209 90.6232 258.389 90.6232 256.953C90.6232 255.518 91.3322 254.697 92.4103 254.697C93.4884 254.697 94.1916 255.518 94.1916 256.953C94.1916 258.389 93.4884 259.209 92.4103 259.209ZM101.384 253.906H100.364V257.486C100.364 258.523 99.7666 259.203 98.7764 259.203C97.833 259.203 97.3702 258.67 97.3702 257.68V253.906H96.3506V257.861C96.3506 259.244 97.1299 260.105 98.46 260.105C99.3975 260.105 100.03 259.713 100.394 259.01H100.417V260H101.384V253.906ZM102.828 260H103.848V256.203C103.848 255.342 104.363 254.773 105.154 254.773C105.4 254.773 105.617 254.803 105.699 254.832V253.842C105.617 253.83 105.465 253.801 105.289 253.801C104.574 253.801 104.012 254.229 103.812 254.902H103.789V253.906H102.828V260ZM116.984 253.906H115.976L114.757 258.863H114.734L113.351 253.906H112.367L110.99 258.863H110.966L109.748 253.906H108.734L110.439 260H111.476L112.847 255.283H112.871L114.248 260H115.285L116.984 253.906ZM120.467 260.105C122.149 260.105 123.286 258.893 123.286 256.953C123.286 255.008 122.149 253.801 120.467 253.801C118.78 253.801 117.643 255.008 117.643 256.953C117.643 258.893 118.78 260.105 120.467 260.105ZM120.467 259.209C119.389 259.209 118.68 258.389 118.68 256.953C118.68 255.518 119.389 254.697 120.467 254.697C121.545 254.697 122.249 255.518 122.249 256.953C122.249 258.389 121.545 259.209 120.467 259.209ZM124.437 260H125.456V256.203C125.456 255.342 125.972 254.773 126.763 254.773C127.009 254.773 127.226 254.803 127.308 254.832V253.842C127.226 253.83 127.074 253.801 126.898 253.801C126.183 253.801 125.621 254.229 125.421 254.902H125.398V253.906H124.437V260ZM129.332 256.613V251.545H128.313V260H129.332V257.703L129.901 257.164L132.162 260H133.346L130.621 256.537L133.264 253.906H132.028L129.332 256.613ZM139.229 254.686C140.19 254.686 140.828 255.412 140.852 256.432H137.541C137.606 255.418 138.274 254.686 139.229 254.686ZM140.828 258.254C140.658 258.828 140.09 259.221 139.316 259.221C138.221 259.221 137.535 258.453 137.535 257.287V257.229H141.906V256.842C141.906 254.996 140.893 253.801 139.246 253.801C137.565 253.801 136.486 255.084 136.486 256.977C136.486 258.893 137.547 260.105 139.293 260.105C140.623 260.105 141.654 259.32 141.83 258.254H140.828ZM145.097 257.68L146.556 260H147.686L145.659 256.912L147.716 253.906H146.579L145.132 256.191H145.108L143.644 253.906H142.507L144.546 256.953L142.472 260H143.603L145.073 257.68H145.097ZM151.656 253.801C150.771 253.801 150.062 254.252 149.687 254.938H149.664V253.906H148.697V262.033H149.717V259.01H149.74C150.103 259.678 150.806 260.105 151.68 260.105C153.215 260.105 154.264 258.863 154.264 256.953C154.264 255.043 153.209 253.801 151.656 253.801ZM151.457 259.209C150.414 259.209 149.711 258.312 149.711 256.953C149.711 255.6 150.414 254.697 151.457 254.697C152.541 254.697 153.221 255.576 153.221 256.953C153.221 258.336 152.541 259.209 151.457 259.209ZM157.858 254.686C158.819 254.686 159.458 255.412 159.481 256.432H156.171C156.235 255.418 156.903 254.686 157.858 254.686ZM159.458 258.254C159.288 258.828 158.719 259.221 157.946 259.221C156.85 259.221 156.165 258.453 156.165 257.287V257.229H160.536V256.842C160.536 254.996 159.522 253.801 157.876 253.801C156.194 253.801 155.116 255.084 155.116 256.977C155.116 258.893 156.176 260.105 157.923 260.105C159.253 260.105 160.284 259.32 160.46 258.254H159.458ZM161.687 260H162.707V256.203C162.707 255.342 163.222 254.773 164.013 254.773C164.259 254.773 164.476 254.803 164.558 254.832V253.842C164.476 253.83 164.324 253.801 164.148 253.801C163.433 253.801 162.871 254.229 162.671 254.902H162.648V253.906H161.687V260ZM165.563 260H166.582V253.906H165.563V260ZM166.073 252.881C166.424 252.881 166.711 252.594 166.711 252.248C166.711 251.896 166.424 251.615 166.073 251.615C165.727 251.615 165.44 251.896 165.44 252.248C165.44 252.594 165.727 252.881 166.073 252.881ZM170.523 254.686C171.484 254.686 172.122 255.412 172.146 256.432H168.835C168.9 255.418 169.568 254.686 170.523 254.686ZM172.122 258.254C171.952 258.828 171.384 259.221 170.611 259.221C169.515 259.221 168.829 258.453 168.829 257.287V257.229H173.201V256.842C173.201 254.996 172.187 253.801 170.54 253.801C168.859 253.801 167.781 255.084 167.781 256.977C167.781 258.893 168.841 260.105 170.587 260.105C171.917 260.105 172.949 259.32 173.124 258.254H172.122ZM174.352 260H175.371V256.414C175.371 255.383 175.998 254.703 176.959 254.703C177.897 254.703 178.36 255.242 178.36 256.227V260H179.379V256.045C179.379 254.662 178.606 253.801 177.27 253.801C176.326 253.801 175.676 254.223 175.336 254.879H175.313V253.906H174.352V260ZM185.862 255.904C185.734 254.809 184.825 253.801 183.302 253.801C181.62 253.801 180.501 255.031 180.501 256.953C180.501 258.916 181.626 260.105 183.314 260.105C184.696 260.105 185.716 259.25 185.874 258.037H184.872C184.696 258.77 184.151 259.209 183.319 259.209C182.265 259.209 181.538 258.371 181.538 256.953C181.538 255.57 182.253 254.697 183.308 254.697C184.204 254.697 184.72 255.242 184.866 255.904H185.862ZM189.375 254.686C190.336 254.686 190.975 255.412 190.998 256.432H187.688C187.752 255.418 188.42 254.686 189.375 254.686ZM190.975 258.254C190.805 258.828 190.236 259.221 189.463 259.221C188.367 259.221 187.682 258.453 187.682 257.287V257.229H192.053V256.842C192.053 254.996 191.039 253.801 189.393 253.801C187.711 253.801 186.633 255.084 186.633 256.977C186.633 258.893 187.693 260.105 189.439 260.105C190.77 260.105 191.801 259.32 191.977 258.254H190.975ZM196.113 252.436V253.906H195.205V254.744H196.113V258.418C196.113 259.59 196.547 260.047 197.666 260.047C197.906 260.047 198.187 260.029 198.31 260V259.145C198.24 259.156 198.006 259.174 197.888 259.174C197.367 259.174 197.133 258.922 197.133 258.365V254.744H198.316V253.906H197.133V252.436H196.113ZM201.876 260.105C203.557 260.105 204.694 258.893 204.694 256.953C204.694 255.008 203.557 253.801 201.876 253.801C200.188 253.801 199.051 255.008 199.051 256.953C199.051 258.893 200.188 260.105 201.876 260.105ZM201.876 259.209C200.798 259.209 200.089 258.389 200.089 256.953C200.089 255.518 200.798 254.697 201.876 254.697C202.954 254.697 203.657 255.518 203.657 256.953C203.657 258.389 202.954 259.209 201.876 259.209ZM211.455 260.105C213.014 260.105 214.045 258.869 214.045 256.953C214.045 255.043 213.008 253.801 211.473 253.801C210.612 253.801 209.903 254.229 209.522 254.926H209.498V251.545H208.479V260H209.452V258.969H209.475C209.868 259.672 210.565 260.105 211.455 260.105ZM211.256 254.697C212.334 254.697 213.002 255.57 213.002 256.953C213.002 258.348 212.334 259.209 211.256 259.209C210.225 259.209 209.493 258.312 209.493 256.953C209.493 255.6 210.225 254.697 211.256 254.697ZM217.646 254.686C218.607 254.686 219.245 255.412 219.269 256.432H215.958C216.023 255.418 216.691 254.686 217.646 254.686ZM219.245 258.254C219.075 258.828 218.507 259.221 217.734 259.221C216.638 259.221 215.952 258.453 215.952 257.287V257.229H220.324V256.842C220.324 254.996 219.31 253.801 217.663 253.801C215.982 253.801 214.904 255.084 214.904 256.977C214.904 258.893 215.964 260.105 217.71 260.105C219.04 260.105 220.072 259.32 220.247 258.254H219.245ZM229.118 255.904C228.989 254.809 228.081 253.801 226.558 253.801C224.876 253.801 223.757 255.031 223.757 256.953C223.757 258.916 224.882 260.105 226.569 260.105C227.952 260.105 228.972 259.25 229.13 258.037H228.128C227.952 258.77 227.407 259.209 226.575 259.209C225.521 259.209 224.794 258.371 224.794 256.953C224.794 255.57 225.509 254.697 226.564 254.697C227.46 254.697 227.976 255.242 228.122 255.904H229.118ZM232.713 260.105C234.394 260.105 235.531 258.893 235.531 256.953C235.531 255.008 234.394 253.801 232.713 253.801C231.025 253.801 229.889 255.008 229.889 256.953C229.889 258.893 231.025 260.105 232.713 260.105ZM232.713 259.209C231.635 259.209 230.926 258.389 230.926 256.953C230.926 255.518 231.635 254.697 232.713 254.697C233.791 254.697 234.494 255.518 234.494 256.953C234.494 258.389 233.791 259.209 232.713 259.209ZM236.682 260H237.702V256.414C237.702 255.383 238.329 254.703 239.29 254.703C240.227 254.703 240.69 255.242 240.69 256.227V260H241.71V256.045C241.71 254.662 240.936 253.801 239.6 253.801C238.657 253.801 238.007 254.223 237.667 254.879H237.643V253.906H236.682V260ZM243.025 255.588C243.025 256.42 243.552 256.971 244.625 257.246L245.697 257.521C246.383 257.703 246.634 257.938 246.634 258.371C246.634 258.922 246.125 259.273 245.299 259.273C244.472 259.273 243.992 258.934 243.881 258.301H242.861C242.966 259.379 243.898 260.105 245.234 260.105C246.658 260.105 247.66 259.355 247.66 258.295C247.66 257.398 247.215 256.953 245.984 256.643L245.041 256.414C244.349 256.238 244.027 255.957 244.027 255.535C244.027 255.002 244.519 254.633 245.263 254.633C246.013 254.633 246.488 254.996 246.558 255.582H247.531C247.484 254.551 246.558 253.801 245.299 253.801C243.957 253.801 243.025 254.545 243.025 255.588ZM248.893 260H249.913V253.906H248.893V260ZM249.403 252.881C249.754 252.881 250.042 252.594 250.042 252.248C250.042 251.896 249.754 251.615 249.403 251.615C249.057 251.615 248.77 251.896 248.77 252.248C248.77 252.594 249.057 252.881 249.403 252.881ZM253.718 260.105C254.597 260.105 255.294 259.672 255.687 258.969H255.705V260H256.677V251.545H255.658V254.896H255.634C255.271 254.229 254.568 253.801 253.695 253.801C252.16 253.801 251.111 255.043 251.111 256.953C251.111 258.863 252.165 260.105 253.718 260.105ZM253.912 254.697C254.96 254.697 255.664 255.594 255.664 256.953C255.664 258.318 254.96 259.209 253.912 259.209C252.833 259.209 252.154 258.336 252.154 256.953C252.154 255.576 252.833 254.697 253.912 254.697ZM260.617 254.686C261.578 254.686 262.217 255.412 262.241 256.432H258.93C258.994 255.418 259.662 254.686 260.617 254.686ZM262.217 258.254C262.047 258.828 261.479 259.221 260.705 259.221C259.61 259.221 258.924 258.453 258.924 257.287V257.229H263.295V256.842C263.295 254.996 262.282 253.801 260.635 253.801C258.953 253.801 257.875 255.084 257.875 256.977C257.875 258.893 258.936 260.105 260.682 260.105C262.012 260.105 263.043 259.32 263.219 258.254H262.217ZM264.446 260H265.466V256.203C265.466 255.342 265.982 254.773 266.773 254.773C267.019 254.773 267.236 254.803 267.318 254.832V253.842C267.236 253.83 267.083 253.801 266.907 253.801C266.193 253.801 265.63 254.229 265.431 254.902H265.407V253.906H264.446V260ZM270.42 254.686C271.381 254.686 272.02 255.412 272.043 256.432H268.732C268.797 255.418 269.465 254.686 270.42 254.686ZM272.02 258.254C271.85 258.828 271.281 259.221 270.508 259.221C269.412 259.221 268.727 258.453 268.727 257.287V257.229H273.098V256.842C273.098 254.996 272.084 253.801 270.438 253.801C268.756 253.801 267.678 255.084 267.678 256.977C267.678 258.893 268.738 260.105 270.484 260.105C271.815 260.105 272.846 259.32 273.022 258.254H272.02ZM276.558 260.105C277.436 260.105 278.134 259.672 278.526 258.969H278.544V260H279.517V251.545H278.497V254.896H278.474C278.11 254.229 277.407 253.801 276.534 253.801C274.999 253.801 273.95 255.043 273.95 256.953C273.95 258.863 275.005 260.105 276.558 260.105ZM276.751 254.697C277.8 254.697 278.503 255.594 278.503 256.953C278.503 258.318 277.8 259.209 276.751 259.209C275.673 259.209 274.993 258.336 274.993 256.953C274.993 255.576 275.673 254.697 276.751 254.697ZM57.6914 278.105C59.25 278.105 60.2812 276.869 60.2812 274.953C60.2812 273.043 59.2441 271.801 57.709 271.801C56.8477 271.801 56.1387 272.229 55.7578 272.926H55.7344V269.545H54.7148V278H55.6875V276.969H55.7109C56.1035 277.672 56.8008 278.105 57.6914 278.105ZM57.4922 272.697C58.5703 272.697 59.2383 273.57 59.2383 274.953C59.2383 276.348 58.5703 277.209 57.4922 277.209C56.4609 277.209 55.7285 276.312 55.7285 274.953C55.7285 273.6 56.4609 272.697 57.4922 272.697ZM61.7665 280.279C62.868 280.279 63.372 279.852 63.8934 278.428L66.2899 271.906H65.2177L63.5302 276.98H63.5126L61.8251 271.906H60.7352L62.9852 278.006L62.8446 278.434C62.6102 279.143 62.2938 279.418 61.7255 279.418C61.5966 279.418 61.4384 279.412 61.327 279.389V280.244C61.4384 280.268 61.6434 280.279 61.7665 280.279ZM70.1276 270.436V271.906H69.2194V272.744H70.1276V276.418C70.1276 277.59 70.5612 278.047 71.6803 278.047C71.9205 278.047 72.2018 278.029 72.3248 278V277.145C72.2545 277.156 72.0202 277.174 71.903 277.174C71.3815 277.174 71.1471 276.922 71.1471 276.365V272.744H72.3307V271.906H71.1471V270.436H70.1276ZM73.5933 278H74.6128V274.449C74.6128 273.395 75.2398 272.703 76.2534 272.703C77.2085 272.703 77.6948 273.283 77.6948 274.25V278H78.7144V274.062C78.7144 272.703 77.9058 271.801 76.5698 271.801C75.6441 271.801 74.9761 272.199 74.6362 272.879H74.6128V269.545H73.5933V278ZM82.5727 272.686C83.5336 272.686 84.1723 273.412 84.1957 274.432H80.8852C80.9496 273.418 81.6176 272.686 82.5727 272.686ZM84.1723 276.254C84.0023 276.828 83.434 277.221 82.6605 277.221C81.5648 277.221 80.8793 276.453 80.8793 275.287V275.229H85.2504V274.842C85.2504 272.996 84.2367 271.801 82.5902 271.801C80.9086 271.801 79.8305 273.084 79.8305 274.977C79.8305 276.893 80.891 278.105 82.6371 278.105C83.9672 278.105 84.9984 277.32 85.1742 276.254H84.1723ZM88.9826 278H90.0021V274.203C90.0021 273.342 90.5177 272.773 91.3088 272.773C91.5548 272.773 91.7716 272.803 91.8537 272.832V271.842C91.7716 271.83 91.6193 271.801 91.4435 271.801C90.7287 271.801 90.1662 272.229 89.967 272.902H89.9435V271.906H88.9826V278ZM94.9561 272.686C95.917 272.686 96.5557 273.412 96.5791 274.432H93.2686C93.333 273.418 94.001 272.686 94.9561 272.686ZM96.5557 276.254C96.3858 276.828 95.8174 277.221 95.044 277.221C93.9483 277.221 93.2627 276.453 93.2627 275.287V275.229H97.6338V274.842C97.6338 272.996 96.6202 271.801 94.9737 271.801C93.292 271.801 92.2139 273.084 92.2139 274.977C92.2139 276.893 93.2745 278.105 95.0205 278.105C96.3506 278.105 97.3819 277.32 97.5577 276.254H96.5557ZM103.848 273.904C103.719 272.809 102.81 271.801 101.287 271.801C99.6054 271.801 98.4863 273.031 98.4863 274.953C98.4863 276.916 99.6113 278.105 101.299 278.105C102.682 278.105 103.701 277.25 103.859 276.037H102.857C102.682 276.77 102.137 277.209 101.305 277.209C100.25 277.209 99.5234 276.371 99.5234 274.953C99.5234 273.57 100.238 272.697 101.293 272.697C102.189 272.697 102.705 273.242 102.851 273.904H103.848ZM104.917 278H105.936V274.203C105.936 273.342 106.452 272.773 107.243 272.773C107.489 272.773 107.706 272.803 107.788 272.832V271.842C107.706 271.83 107.554 271.801 107.378 271.801C106.663 271.801 106.1 272.229 105.901 272.902H105.878V271.906H104.917V278ZM113.744 271.906H112.724V275.486C112.724 276.523 112.127 277.203 111.136 277.203C110.193 277.203 109.73 276.67 109.73 275.68V271.906H108.711V275.861C108.711 277.244 109.49 278.105 110.82 278.105C111.757 278.105 112.39 277.713 112.754 277.01H112.777V278H113.744V271.906ZM115.241 278H116.26V271.906H115.241V278ZM115.751 270.881C116.102 270.881 116.389 270.594 116.389 270.248C116.389 269.896 116.102 269.615 115.751 269.615C115.405 269.615 115.118 269.896 115.118 270.248C115.118 270.594 115.405 270.881 115.751 270.881ZM118.085 270.436V271.906H117.177V272.744H118.085V276.418C118.085 277.59 118.519 278.047 119.638 278.047C119.878 278.047 120.16 278.029 120.283 278V277.145C120.212 277.156 119.978 277.174 119.861 277.174C119.339 277.174 119.105 276.922 119.105 276.365V272.744H120.289V271.906H119.105V270.436H118.085ZM123.766 272.686C124.727 272.686 125.366 273.412 125.389 274.432H122.078C122.143 273.418 122.811 272.686 123.766 272.686ZM125.366 276.254C125.196 276.828 124.627 277.221 123.854 277.221C122.758 277.221 122.073 276.453 122.073 275.287V275.229H126.444V274.842C126.444 272.996 125.43 271.801 123.784 271.801C122.102 271.801 121.024 273.084 121.024 274.977C121.024 276.893 122.084 278.105 123.83 278.105C125.16 278.105 126.192 277.32 126.368 276.254H125.366ZM127.595 278H128.614V274.203C128.614 273.342 129.13 272.773 129.921 272.773C130.167 272.773 130.384 272.803 130.466 272.832V271.842C130.384 271.83 130.232 271.801 130.056 271.801C129.341 271.801 128.779 272.229 128.579 272.902H128.556V271.906H127.595V278Z" fill="#6B7280"/>
<path d="M305.025 258.183C304.867 258.183 304.709 258.125 304.584 258C304.342 257.758 304.342 257.358 304.584 257.117L309.2 252.5L304.584 247.883C304.342 247.642 304.342 247.242 304.584 247C304.825 246.758 305.225 246.758 305.467 247L310.525 252.058C310.767 252.3 310.767 252.7 310.525 252.942L305.467 258C305.342 258.125 305.184 258.183 305.025 258.183Z" fill="#111827"/>
<path d="M309.942 253.125H295.917C295.575 253.125 295.292 252.842 295.292 252.5C295.292 252.158 295.575 251.875 295.917 251.875H309.942C310.284 251.875 310.567 252.158 310.567 252.5C310.567 252.842 310.284 253.125 309.942 253.125Z" fill="#111827"/>
<path d="M163.5 295L163.5 315" stroke="#84A9FF"/>
<rect x="0.5" y="315.5" width="326" height="84" rx="7.5" fill="#E0EBFF"/>
<rect x="0.5" y="315.5" width="326" height="84" rx="7.5" stroke="#84A9FF"/>
<path d="M27.9997 345.833C21.5713 345.833 16.333 351.072 16.333 357.5C16.333 363.928 21.5713 369.167 27.9997 369.167C34.428 369.167 39.6663 363.928 39.6663 357.5C39.6663 351.072 34.428 345.833 27.9997 345.833ZM33.5763 354.817L26.9613 361.432C26.798 361.595 26.5763 361.688 26.343 361.688C26.1097 361.688 25.888 361.595 25.7247 361.432L22.423 358.13C22.0847 357.792 22.0847 357.232 22.423 356.893C22.7613 356.555 23.3213 356.555 23.6597 356.893L26.343 359.577L32.3397 353.58C32.678 353.242 33.238 353.242 33.5763 353.58C33.9147 353.918 33.9147 354.467 33.5763 354.817Z" fill="#3366FF"/>
<path d="M55.0391 331.727V343H56.7891V339.148H59.2109C61.4219 339.148 62.9766 337.633 62.9766 335.43C62.9766 333.234 61.4531 331.727 59.2656 331.727H55.0391ZM56.7891 333.203H58.8047C60.3203 333.203 61.1875 334.016 61.1875 335.438C61.1875 336.859 60.3203 337.68 58.7969 337.68H56.7891V333.203ZM67.6366 343.156C69.9881 343.156 71.535 341.539 71.535 338.891C71.535 336.25 69.9803 334.633 67.6366 334.633C65.2928 334.633 63.7381 336.25 63.7381 338.891C63.7381 341.539 65.285 343.156 67.6366 343.156ZM67.6366 341.766C66.3162 341.766 65.4569 340.719 65.4569 338.891C65.4569 337.07 66.3162 336.023 67.6366 336.023C68.9569 336.023 69.8162 337.07 69.8162 338.891C69.8162 340.719 68.9647 341.766 67.6366 341.766ZM72.9997 343H74.6872V338.078C74.6872 336.914 75.3591 336.188 76.445 336.188C76.7731 336.188 77.07 336.227 77.2028 336.281V334.711C77.0778 334.688 76.8669 334.648 76.6247 334.648C75.6559 334.648 74.9216 335.219 74.6481 336.18H74.6091V334.781H72.9997V343ZM78.9019 332.836V334.781H77.7066V336.117H78.9019V340.836C78.9019 342.422 79.5503 343.055 81.2144 343.055C81.5894 343.055 81.9644 343.023 82.1519 342.977V341.641C82.0425 341.664 81.7691 341.68 81.5972 341.68C80.9097 341.68 80.5972 341.359 80.5972 340.648V336.117H82.1597V334.781H80.5972V332.836H78.9019ZM84.2025 343H85.8978V336.117H87.5384V334.797H85.8744V334.023C85.8744 333.297 86.2181 332.93 86.9525 332.93C87.1791 332.93 87.4056 332.945 87.5697 332.977V331.727C87.3509 331.688 86.9681 331.648 86.6244 331.648C84.9525 331.648 84.2025 332.398 84.2025 333.992V334.797H83.0697V336.117H84.2025V343ZM92.2141 343.156C94.5656 343.156 96.1125 341.539 96.1125 338.891C96.1125 336.25 94.5578 334.633 92.2141 334.633C89.8703 334.633 88.3156 336.25 88.3156 338.891C88.3156 341.539 89.8625 343.156 92.2141 343.156ZM92.2141 341.766C90.8937 341.766 90.0344 340.719 90.0344 338.891C90.0344 337.07 90.8937 336.023 92.2141 336.023C93.5344 336.023 94.3937 337.07 94.3937 338.891C94.3937 340.719 93.5422 341.766 92.2141 341.766ZM97.6397 343H99.3272V331.727H97.6397V343ZM101.276 343H102.964V334.781H101.276V343ZM102.12 333.578C102.667 333.578 103.104 333.148 103.104 332.617C103.104 332.078 102.667 331.648 102.12 331.648C101.581 331.648 101.143 332.078 101.143 332.617C101.143 333.148 101.581 333.578 102.12 333.578ZM108.382 343.156C110.733 343.156 112.28 341.539 112.28 338.891C112.28 336.25 110.725 334.633 108.382 334.633C106.038 334.633 104.483 336.25 104.483 338.891C104.483 341.539 106.03 343.156 108.382 343.156ZM108.382 341.766C107.061 341.766 106.202 340.719 106.202 338.891C106.202 337.07 107.061 336.023 108.382 336.023C109.702 336.023 110.561 337.07 110.561 338.891C110.561 340.719 109.71 341.766 108.382 341.766Z" fill="#111827"/>
<path d="M58.3008 365.141C60.1699 365.141 61.4238 364.209 61.8105 362.539H60.7441C60.4395 363.57 59.5488 364.168 58.3066 364.168C56.6367 364.168 55.5762 362.844 55.5762 360.77C55.5762 358.713 56.6484 357.377 58.3008 357.377C59.5078 357.377 60.4746 358.104 60.7441 359.211H61.8105C61.541 357.523 60.1406 356.404 58.3008 356.404C55.9863 356.404 54.4922 358.115 54.4922 360.77C54.4922 363.447 55.9688 365.141 58.3008 365.141ZM63.0204 365H64.0399V361.203C64.0399 360.342 64.5555 359.773 65.3466 359.773C65.5927 359.773 65.8095 359.803 65.8915 359.832V358.842C65.8095 358.83 65.6571 358.801 65.4813 358.801C64.7665 358.801 64.204 359.229 64.0048 359.902H63.9813V358.906H63.0204V365ZM68.9939 359.686C69.9548 359.686 70.5935 360.412 70.617 361.432H67.3064C67.3709 360.418 68.0388 359.686 68.9939 359.686ZM70.5935 363.254C70.4236 363.828 69.8552 364.221 69.0818 364.221C67.9861 364.221 67.3005 363.453 67.3005 362.287V362.229H71.6716V361.842C71.6716 359.996 70.658 358.801 69.0115 358.801C67.3298 358.801 66.2517 360.084 66.2517 361.977C66.2517 363.893 67.3123 365.105 69.0584 365.105C70.3884 365.105 71.4197 364.32 71.5955 363.254H70.5935ZM74.8327 364.238C74.1002 364.238 73.6139 363.857 73.6139 363.277C73.6139 362.703 74.0827 362.34 74.903 362.287L76.5319 362.188V362.686C76.5319 363.564 75.7936 364.238 74.8327 364.238ZM74.6041 365.105C75.4245 365.105 76.1979 364.648 76.5612 363.951H76.5846V365H77.5514V360.787C77.5514 359.574 76.6491 358.801 75.2194 358.801C73.778 358.801 72.8756 359.609 72.8053 360.664H73.7897C73.9186 360.066 74.4108 359.697 75.1959 359.697C76.0397 359.697 76.5319 360.143 76.5319 360.887V361.396L74.7858 361.496C73.3795 361.578 72.5768 362.234 72.5768 363.277C72.5768 364.373 73.3913 365.105 74.6041 365.105ZM79.2945 357.436V358.906H78.3862V359.744H79.2945V363.418C79.2945 364.59 79.728 365.047 80.8472 365.047C81.0874 365.047 81.3687 365.029 81.4917 365V364.145C81.4214 364.156 81.187 364.174 81.0698 364.174C80.5484 364.174 80.314 363.922 80.314 363.365V359.744H81.4976V358.906H80.314V357.436H79.2945ZM84.975 359.686C85.9359 359.686 86.5746 360.412 86.598 361.432H83.2875C83.352 360.418 84.0199 359.686 84.975 359.686ZM86.5746 363.254C86.4047 363.828 85.8363 364.221 85.0629 364.221C83.9672 364.221 83.2816 363.453 83.2816 362.287V362.229H87.6527V361.842C87.6527 359.996 86.6391 358.801 84.9926 358.801C83.3109 358.801 82.2328 360.084 82.2328 361.977C82.2328 363.893 83.2934 365.105 85.0395 365.105C86.3695 365.105 87.4008 364.32 87.5766 363.254H86.5746ZM91.8888 367.279C92.9904 367.279 93.4943 366.852 94.0158 365.428L96.4123 358.906H95.34L93.6525 363.98H93.6349L91.9474 358.906H90.8576L93.1076 365.006L92.967 365.434C92.7326 366.143 92.4162 366.418 91.8478 366.418C91.7189 366.418 91.5607 366.412 91.4494 366.389V367.244C91.5607 367.268 91.7658 367.279 91.8888 367.279ZM99.6905 365.105C101.372 365.105 102.509 363.893 102.509 361.953C102.509 360.008 101.372 358.801 99.6905 358.801C98.003 358.801 96.8662 360.008 96.8662 361.953C96.8662 363.893 98.003 365.105 99.6905 365.105ZM99.6905 364.209C98.6123 364.209 97.9034 363.389 97.9034 361.953C97.9034 360.518 98.6123 359.697 99.6905 359.697C100.769 359.697 101.472 360.518 101.472 361.953C101.472 363.389 100.769 364.209 99.6905 364.209ZM108.664 358.906H107.644V362.486C107.644 363.523 107.047 364.203 106.057 364.203C105.113 364.203 104.65 363.67 104.65 362.68V358.906H103.631V362.861C103.631 364.244 104.41 365.105 105.74 365.105C106.678 365.105 107.31 364.713 107.674 364.01H107.697V365H108.664V358.906ZM110.108 365H111.128V361.203C111.128 360.342 111.643 359.773 112.434 359.773C112.68 359.773 112.897 359.803 112.979 359.832V358.842C112.897 358.83 112.745 358.801 112.569 358.801C111.854 358.801 111.292 359.229 111.093 359.902H111.069V358.906H110.108V365ZM119.471 358.801C118.586 358.801 117.877 359.252 117.502 359.938H117.479V358.906H116.512V367.033H117.532V364.01H117.555C117.919 364.678 118.622 365.105 119.495 365.105C121.03 365.105 122.079 363.863 122.079 361.953C122.079 360.043 121.024 358.801 119.471 358.801ZM119.272 364.209C118.229 364.209 117.526 363.312 117.526 361.953C117.526 360.6 118.229 359.697 119.272 359.697C120.356 359.697 121.036 360.576 121.036 361.953C121.036 363.336 120.356 364.209 119.272 364.209ZM125.755 365.105C127.437 365.105 128.574 363.893 128.574 361.953C128.574 360.008 127.437 358.801 125.755 358.801C124.068 358.801 122.931 360.008 122.931 361.953C122.931 363.893 124.068 365.105 125.755 365.105ZM125.755 364.209C124.677 364.209 123.968 363.389 123.968 361.953C123.968 360.518 124.677 359.697 125.755 359.697C126.833 359.697 127.537 360.518 127.537 361.953C127.537 363.389 126.833 364.209 125.755 364.209ZM129.725 365H130.744V361.203C130.744 360.342 131.26 359.773 132.051 359.773C132.297 359.773 132.514 359.803 132.596 359.832V358.842C132.514 358.83 132.362 358.801 132.186 358.801C131.471 358.801 130.909 359.229 130.709 359.902H130.686V358.906H129.725V365ZM133.876 357.436V358.906H132.968V359.744H133.876V363.418C133.876 364.59 134.31 365.047 135.429 365.047C135.669 365.047 135.95 365.029 136.073 365V364.145C136.003 364.156 135.769 364.174 135.652 364.174C135.13 364.174 134.896 363.922 134.896 363.365V359.744H136.079V358.906H134.896V357.436H133.876ZM137.617 365H138.637V359.744H139.879V358.906H138.631V358.232C138.631 357.629 138.895 357.336 139.445 357.336C139.615 357.336 139.785 357.354 139.908 357.371V356.545C139.762 356.521 139.516 356.498 139.287 356.498C138.162 356.498 137.617 357.055 137.617 358.227V358.906H136.768V359.744H137.617V365ZM143.286 365.105C144.968 365.105 146.104 363.893 146.104 361.953C146.104 360.008 144.968 358.801 143.286 358.801C141.599 358.801 140.462 360.008 140.462 361.953C140.462 363.893 141.599 365.105 143.286 365.105ZM143.286 364.209C142.208 364.209 141.499 363.389 141.499 361.953C141.499 360.518 142.208 359.697 143.286 359.697C144.364 359.697 145.067 360.518 145.067 361.953C145.067 363.389 144.364 364.209 143.286 364.209ZM147.308 365H148.328V356.545H147.308V365ZM149.878 365H150.897V358.906H149.878V365ZM150.387 357.881C150.739 357.881 151.026 357.594 151.026 357.248C151.026 356.896 150.739 356.615 150.387 356.615C150.042 356.615 149.755 356.896 149.755 357.248C149.755 357.594 150.042 357.881 150.387 357.881ZM154.92 365.105C156.601 365.105 157.738 363.893 157.738 361.953C157.738 360.008 156.601 358.801 154.92 358.801C153.232 358.801 152.095 360.008 152.095 361.953C152.095 363.893 153.232 365.105 154.92 365.105ZM154.92 364.209C153.841 364.209 153.132 363.389 153.132 361.953C153.132 360.518 153.841 359.697 154.92 359.697C155.998 359.697 156.701 360.518 156.701 361.953C156.701 363.389 155.998 364.209 154.92 364.209ZM159.399 365.059C159.774 365.059 160.067 364.766 160.067 364.391C160.067 364.016 159.774 363.723 159.399 363.723C159.024 363.723 158.731 364.016 158.731 364.391C158.731 364.766 159.024 365.059 159.399 365.059ZM169.354 365H170.461L167.344 356.545H166.301L163.184 365H164.291L165.141 362.58H168.504L169.354 365ZM166.805 357.828H166.84L168.194 361.684H165.451L166.805 357.828ZM174.349 358.801C173.464 358.801 172.755 359.252 172.38 359.938H172.357V358.906H171.39V367.033H172.409V364.01H172.433C172.796 364.678 173.499 365.105 174.372 365.105C175.907 365.105 176.956 363.863 176.956 361.953C176.956 360.043 175.901 358.801 174.349 358.801ZM174.15 364.209C173.107 364.209 172.403 363.312 172.403 361.953C172.403 360.6 173.107 359.697 174.15 359.697C175.234 359.697 175.913 360.576 175.913 361.953C175.913 363.336 175.234 364.209 174.15 364.209ZM181.066 358.801C180.182 358.801 179.473 359.252 179.098 359.938H179.074V358.906H178.107V367.033H179.127V364.01H179.15C179.514 364.678 180.217 365.105 181.09 365.105C182.625 365.105 183.674 363.863 183.674 361.953C183.674 360.043 182.619 358.801 181.066 358.801ZM180.867 364.209C179.824 364.209 179.121 363.312 179.121 361.953C179.121 360.6 179.824 359.697 180.867 359.697C181.951 359.697 182.631 360.576 182.631 361.953C182.631 363.336 181.951 364.209 180.867 364.209ZM184.878 365H185.897V356.545H184.878V365ZM187.898 367.279C189 367.279 189.504 366.852 190.025 365.428L192.422 358.906H191.349L189.662 363.98H189.644L187.957 358.906H186.867L189.117 365.006L188.976 365.434C188.742 366.143 188.426 366.418 187.857 366.418C187.728 366.418 187.57 366.412 187.459 366.389V367.244C187.57 367.268 187.775 367.279 187.898 367.279ZM193.403 365H194.423V358.906H193.403V365ZM193.913 357.881C194.264 357.881 194.551 357.594 194.551 357.248C194.551 356.896 194.264 356.615 193.913 356.615C193.567 356.615 193.28 356.896 193.28 357.248C193.28 357.594 193.567 357.881 193.913 357.881ZM195.919 365H196.939V361.414C196.939 360.383 197.566 359.703 198.527 359.703C199.464 359.703 199.927 360.242 199.927 361.227V365H200.947V361.045C200.947 359.662 200.173 358.801 198.837 358.801C197.894 358.801 197.244 359.223 196.904 359.879H196.88V358.906H195.919V365ZM204.846 364.15C203.797 364.15 203.112 363.295 203.112 361.93C203.112 360.564 203.797 359.697 204.846 359.697C205.907 359.697 206.616 360.588 206.616 361.93C206.616 363.271 205.907 364.15 204.846 364.15ZM204.881 367.297C206.563 367.297 207.635 366.33 207.635 364.877V358.906H206.663V359.932H206.645C206.241 359.223 205.526 358.801 204.664 358.801C203.088 358.801 202.069 360.02 202.069 361.93C202.069 363.822 203.088 365.047 204.641 365.047C205.496 365.047 206.217 364.613 206.592 363.951H206.616V364.912C206.616 365.82 205.977 366.43 204.922 366.43C204.161 366.43 203.557 366.061 203.358 365.504H202.309C202.479 366.541 203.539 367.297 204.881 367.297ZM211.994 365H213.014V359.744H214.256V358.906H213.008V358.232C213.008 357.629 213.272 357.336 213.822 357.336C213.992 357.336 214.162 357.354 214.285 357.371V356.545C214.139 356.521 213.893 356.498 213.664 356.498C212.539 356.498 211.994 357.055 211.994 358.227V358.906H211.145V359.744H211.994V365ZM217.663 365.105C219.345 365.105 220.481 363.893 220.481 361.953C220.481 360.008 219.345 358.801 217.663 358.801C215.976 358.801 214.839 360.008 214.839 361.953C214.839 363.893 215.976 365.105 217.663 365.105ZM217.663 364.209C216.585 364.209 215.876 363.389 215.876 361.953C215.876 360.518 216.585 359.697 217.663 359.697C218.741 359.697 219.444 360.518 219.444 361.953C219.444 363.389 218.741 364.209 217.663 364.209ZM221.633 365H222.652V361.203C222.652 360.342 223.168 359.773 223.959 359.773C224.205 359.773 224.422 359.803 224.504 359.832V358.842C224.422 358.83 224.269 358.801 224.094 358.801C223.379 358.801 222.816 359.229 222.617 359.902H222.594V358.906H221.633V365ZM233.035 358.906H231.974L230.287 363.916H230.263L228.582 358.906H227.509L229.754 365H230.797L233.035 358.906ZM235.85 364.238C235.118 364.238 234.631 363.857 234.631 363.277C234.631 362.703 235.1 362.34 235.92 362.287L237.549 362.188V362.686C237.549 363.564 236.811 364.238 235.85 364.238ZM235.622 365.105C236.442 365.105 237.215 364.648 237.579 363.951H237.602V365H238.569V360.787C238.569 359.574 237.667 358.801 236.237 358.801C234.795 358.801 233.893 359.609 233.823 360.664H234.807C234.936 360.066 235.428 359.697 236.213 359.697C237.057 359.697 237.549 360.143 237.549 360.887V361.396L235.803 361.496C234.397 361.578 233.594 362.234 233.594 363.277C233.594 364.373 234.409 365.105 235.622 365.105ZM239.984 365H241.003V361.203C241.003 360.342 241.519 359.773 242.31 359.773C242.556 359.773 242.773 359.803 242.855 359.832V358.842C242.773 358.83 242.621 358.801 242.445 358.801C241.73 358.801 241.167 359.229 240.968 359.902H240.945V358.906H239.984V365ZM243.86 365H244.879V358.906H243.86V365ZM244.369 357.881C244.721 357.881 245.008 357.594 245.008 357.248C245.008 356.896 244.721 356.615 244.369 356.615C244.024 356.615 243.737 356.896 243.737 357.248C243.737 357.594 244.024 357.881 244.369 357.881ZM248.902 365.105C250.583 365.105 251.72 363.893 251.72 361.953C251.72 360.008 250.583 358.801 248.902 358.801C247.214 358.801 246.077 360.008 246.077 361.953C246.077 363.893 247.214 365.105 248.902 365.105ZM248.902 364.209C247.823 364.209 247.114 363.389 247.114 361.953C247.114 360.518 247.823 359.697 248.902 359.697C249.98 359.697 250.683 360.518 250.683 361.953C250.683 363.389 249.98 364.209 248.902 364.209ZM257.875 358.906H256.856V362.486C256.856 363.523 256.258 364.203 255.268 364.203C254.324 364.203 253.861 363.67 253.861 362.68V358.906H252.842V362.861C252.842 364.244 253.621 365.105 254.951 365.105C255.889 365.105 256.522 364.713 256.885 364.01H256.908V365H257.875V358.906ZM259.214 360.588C259.214 361.42 259.741 361.971 260.813 362.246L261.886 362.521C262.571 362.703 262.823 362.938 262.823 363.371C262.823 363.922 262.313 364.273 261.487 364.273C260.661 364.273 260.181 363.934 260.069 363.301H259.05C259.155 364.379 260.087 365.105 261.423 365.105C262.847 365.105 263.849 364.355 263.849 363.295C263.849 362.398 263.403 361.953 262.173 361.643L261.229 361.414C260.538 361.238 260.216 360.957 260.216 360.535C260.216 360.002 260.708 359.633 261.452 359.633C262.202 359.633 262.677 359.996 262.747 360.582H263.72C263.673 359.551 262.747 358.801 261.487 358.801C260.145 358.801 259.214 359.545 259.214 360.588ZM54.9902 375.436V376.906H54.082V377.744H54.9902V381.418C54.9902 382.59 55.4238 383.047 56.543 383.047C56.7832 383.047 57.0645 383.029 57.1875 383V382.145C57.1172 382.156 56.8828 382.174 56.7656 382.174C56.2441 382.174 56.0098 381.922 56.0098 381.365V377.744H57.1934V376.906H56.0098V375.436H54.9902ZM58.9071 385.279C60.0087 385.279 60.5126 384.852 61.0341 383.428L63.4305 376.906H62.3583L60.6708 381.98H60.6532L58.9657 376.906H57.8759L60.1259 383.006L59.9852 383.434C59.7509 384.143 59.4345 384.418 58.8661 384.418C58.7372 384.418 58.579 384.412 58.4677 384.389V385.244C58.579 385.268 58.7841 385.279 58.9071 385.279ZM67.3181 376.801C66.4334 376.801 65.7244 377.252 65.3494 377.938H65.3259V376.906H64.3591V385.033H65.3787V382.01H65.4021C65.7654 382.678 66.4685 383.105 67.3416 383.105C68.8767 383.105 69.9255 381.863 69.9255 379.953C69.9255 378.043 68.8709 376.801 67.3181 376.801ZM67.1189 382.209C66.0759 382.209 65.3728 381.312 65.3728 379.953C65.3728 378.6 66.0759 377.697 67.1189 377.697C68.2029 377.697 68.8826 378.576 68.8826 379.953C68.8826 381.336 68.2029 382.209 67.1189 382.209ZM73.5202 377.686C74.4811 377.686 75.1198 378.412 75.1432 379.432H71.8327C71.8971 378.418 72.5651 377.686 73.5202 377.686ZM75.1198 381.254C74.9498 381.828 74.3815 382.221 73.608 382.221C72.5123 382.221 71.8268 381.453 71.8268 380.287V380.229H76.1979V379.842C76.1979 377.996 75.1842 376.801 73.5377 376.801C71.8561 376.801 70.778 378.084 70.778 379.977C70.778 381.893 71.8385 383.105 73.5846 383.105C74.9147 383.105 75.9459 382.32 76.1217 381.254H75.1198ZM77.2437 378.588C77.2437 379.42 77.771 379.971 78.8433 380.246L79.9155 380.521C80.6011 380.703 80.853 380.938 80.853 381.371C80.853 381.922 80.3433 382.273 79.5171 382.273C78.6909 382.273 78.2105 381.934 78.0991 381.301H77.0796C77.1851 382.379 78.1167 383.105 79.4527 383.105C80.8765 383.105 81.8784 382.355 81.8784 381.295C81.8784 380.398 81.4331 379.953 80.2027 379.643L79.2593 379.414C78.5679 379.238 78.2456 378.957 78.2456 378.535C78.2456 378.002 78.7378 377.633 79.482 377.633C80.232 377.633 80.7066 377.996 80.7769 378.582H81.7495C81.7027 377.551 80.7769 376.801 79.5171 376.801C78.1753 376.801 77.2437 377.545 77.2437 378.588ZM88.1653 383.105C89.847 383.105 90.9837 381.893 90.9837 379.953C90.9837 378.008 89.847 376.801 88.1653 376.801C86.4778 376.801 85.3411 378.008 85.3411 379.953C85.3411 381.893 86.4778 383.105 88.1653 383.105ZM88.1653 382.209C87.0872 382.209 86.3782 381.389 86.3782 379.953C86.3782 378.518 87.0872 377.697 88.1653 377.697C89.2434 377.697 89.9466 378.518 89.9466 379.953C89.9466 381.389 89.2434 382.209 88.1653 382.209ZM92.463 383H93.4826V377.744H94.7248V376.906H93.4767V376.232C93.4767 375.629 93.7404 375.336 94.2912 375.336C94.4611 375.336 94.631 375.354 94.7541 375.371V374.545C94.6076 374.521 94.3615 374.498 94.133 374.498C93.008 374.498 92.463 375.055 92.463 376.227V376.906H91.6134V377.744H92.463V383ZM99.5527 376.906H98.5331V383.311C98.5331 383.99 98.2929 384.242 97.6308 384.242C97.6249 384.242 97.4843 384.242 97.4726 384.242V385.092C97.4843 385.098 97.6484 385.098 97.6659 385.098C98.9667 385.098 99.5527 384.535 99.5527 383.299V376.906ZM99.0429 375.881C99.3945 375.881 99.6816 375.594 99.6816 375.248C99.6816 374.896 99.3945 374.615 99.0429 374.615C98.6972 374.615 98.4101 374.896 98.4101 375.248C98.4101 375.594 98.6972 375.881 99.0429 375.881ZM103.575 383.105C105.257 383.105 106.393 381.893 106.393 379.953C106.393 378.008 105.257 376.801 103.575 376.801C101.888 376.801 100.751 378.008 100.751 379.953C100.751 381.893 101.888 383.105 103.575 383.105ZM103.575 382.209C102.497 382.209 101.788 381.389 101.788 379.953C101.788 378.518 102.497 377.697 103.575 377.697C104.653 377.697 105.356 378.518 105.356 379.953C105.356 381.389 104.653 382.209 103.575 382.209ZM110.574 383.105C112.132 383.105 113.164 381.869 113.164 379.953C113.164 378.043 112.127 376.801 110.591 376.801C109.73 376.801 109.021 377.229 108.64 377.926H108.617V374.545H107.597V383H108.57V381.969H108.593C108.986 382.672 109.683 383.105 110.574 383.105ZM110.375 377.697C111.453 377.697 112.121 378.57 112.121 379.953C112.121 381.348 111.453 382.209 110.375 382.209C109.343 382.209 108.611 381.312 108.611 379.953C108.611 378.6 109.343 377.697 110.375 377.697ZM114.215 378.588C114.215 379.42 114.743 379.971 115.815 380.246L116.887 380.521C117.573 380.703 117.825 380.938 117.825 381.371C117.825 381.922 117.315 382.273 116.489 382.273C115.663 382.273 115.182 381.934 115.071 381.301H114.051C114.157 382.379 115.088 383.105 116.424 383.105C117.848 383.105 118.85 382.355 118.85 381.295C118.85 380.398 118.405 379.953 117.174 379.643L116.231 379.414C115.54 379.238 115.217 378.957 115.217 378.535C115.217 378.002 115.71 377.633 116.454 377.633C117.204 377.633 117.678 377.996 117.749 378.582H118.721C118.674 377.551 117.749 376.801 116.489 376.801C115.147 376.801 114.215 377.545 114.215 378.588ZM122.664 383H123.684V376.906H122.664V383ZM123.174 375.881C123.526 375.881 123.813 375.594 123.813 375.248C123.813 374.896 123.526 374.615 123.174 374.615C122.828 374.615 122.541 374.896 122.541 375.248C122.541 375.594 122.828 375.881 123.174 375.881ZM125.075 378.588C125.075 379.42 125.603 379.971 126.675 380.246L127.747 380.521C128.433 380.703 128.685 380.938 128.685 381.371C128.685 381.922 128.175 382.273 127.349 382.273C126.523 382.273 126.042 381.934 125.931 381.301H124.911C125.017 382.379 125.948 383.105 127.284 383.105C128.708 383.105 129.71 382.355 129.71 381.295C129.71 380.398 129.265 379.953 128.034 379.643L127.091 379.414C126.4 379.238 126.077 378.957 126.077 378.535C126.077 378.002 126.57 377.633 127.314 377.633C128.064 377.633 128.538 377.996 128.609 378.582H129.581C129.534 377.551 128.609 376.801 127.349 376.801C126.007 376.801 125.075 377.545 125.075 378.588ZM135.915 377.686C136.876 377.686 137.515 378.412 137.538 379.432H134.228C134.292 378.418 134.96 377.686 135.915 377.686ZM137.515 381.254C137.345 381.828 136.776 382.221 136.003 382.221C134.907 382.221 134.222 381.453 134.222 380.287V380.229H138.593V379.842C138.593 377.996 137.579 376.801 135.933 376.801C134.251 376.801 133.173 378.084 133.173 379.977C133.173 381.893 134.233 383.105 135.979 383.105C137.31 383.105 138.341 382.32 138.517 381.254H137.515ZM141.754 382.238C141.021 382.238 140.535 381.857 140.535 381.277C140.535 380.703 141.004 380.34 141.824 380.287L143.453 380.188V380.686C143.453 381.564 142.715 382.238 141.754 382.238ZM141.525 383.105C142.346 383.105 143.119 382.648 143.482 381.951H143.506V383H144.473V378.787C144.473 377.574 143.57 376.801 142.14 376.801C140.699 376.801 139.797 377.609 139.726 378.664H140.711C140.84 378.066 141.332 377.697 142.117 377.697C142.961 377.697 143.453 378.143 143.453 378.887V379.396L141.707 379.496C140.301 379.578 139.498 380.234 139.498 381.277C139.498 382.373 140.312 383.105 141.525 383.105ZM145.782 378.588C145.782 379.42 146.309 379.971 147.382 380.246L148.454 380.521C149.139 380.703 149.391 380.938 149.391 381.371C149.391 381.922 148.882 382.273 148.055 382.273C147.229 382.273 146.749 381.934 146.637 381.301H145.618C145.723 382.379 146.655 383.105 147.991 383.105C149.415 383.105 150.417 382.355 150.417 381.295C150.417 380.398 149.971 379.953 148.741 379.643L147.798 379.414C147.106 379.238 146.784 378.957 146.784 378.535C146.784 378.002 147.276 377.633 148.02 377.633C148.77 377.633 149.245 377.996 149.315 378.582H150.288C150.241 377.551 149.315 376.801 148.055 376.801C146.714 376.801 145.782 377.545 145.782 378.588ZM151.65 383H152.67V376.906H151.65V383ZM152.16 375.881C152.511 375.881 152.798 375.594 152.798 375.248C152.798 374.896 152.511 374.615 152.16 374.615C151.814 374.615 151.527 374.896 151.527 375.248C151.527 375.594 151.814 375.881 152.16 375.881ZM156.61 377.686C157.571 377.686 158.209 378.412 158.233 379.432H154.922C154.987 378.418 155.655 377.686 156.61 377.686ZM158.209 381.254C158.04 381.828 157.471 382.221 156.698 382.221C155.602 382.221 154.916 381.453 154.916 380.287V380.229H159.288V379.842C159.288 377.996 158.274 376.801 156.627 376.801C154.946 376.801 153.868 378.084 153.868 379.977C153.868 381.893 154.928 383.105 156.674 383.105C158.004 383.105 159.036 382.32 159.211 381.254H158.209ZM160.439 383H161.458V379.203C161.458 378.342 161.974 377.773 162.765 377.773C163.011 377.773 163.228 377.803 163.31 377.832V376.842C163.228 376.83 163.076 376.801 162.9 376.801C162.185 376.801 161.622 377.229 161.423 377.902H161.4V376.906H160.439V383ZM164.537 383.059C164.912 383.059 165.205 382.766 165.205 382.391C165.205 382.016 164.912 381.723 164.537 381.723C164.162 381.723 163.869 382.016 163.869 382.391C163.869 382.766 164.162 383.059 164.537 383.059Z" fill="#6B7280"/>
<path d="M305.025 363.183C304.867 363.183 304.709 363.125 304.584 363C304.342 362.758 304.342 362.358 304.584 362.117L309.2 357.5L304.584 352.883C304.342 352.642 304.342 352.242 304.584 352C304.825 351.758 305.225 351.758 305.467 352L310.525 357.058C310.767 357.3 310.767 357.7 310.525 357.942L305.467 363C305.342 363.125 305.184 363.183 305.025 363.183Z" fill="#111827"/>
<path d="M309.942 358.125H295.917C295.575 358.125 295.292 357.842 295.292 357.5C295.292 357.158 295.575 356.875 295.917 356.875H309.942C310.284 356.875 310.567 357.158 310.567 357.5C310.567 357.842 310.284 358.125 309.942 358.125Z" fill="#111827"/>
</svg>
