<svg width="327" height="88" viewBox="0 0 327 88" fill="none" xmlns="http://www.w3.org/2000/svg">
<path d="M5.07227 15.1641C7.3418 15.1641 8.88672 13.9678 9.2627 11.9307H7.73828C7.43066 13.1201 6.45312 13.8242 5.0791 13.8242C3.26758 13.8242 2.11914 12.3682 2.11914 10.0645C2.11914 7.78125 3.28125 6.31152 5.07227 6.31152C6.41211 6.31152 7.46484 7.13867 7.73828 8.40332H9.25586C8.99609 6.3457 7.30762 4.97168 5.07227 4.97168C2.31738 4.97168 0.553711 6.94043 0.553711 10.0645C0.553711 13.209 2.30371 15.1641 5.07227 15.1641ZM13.6957 15.1367C15.7533 15.1367 17.1068 13.7217 17.1068 11.4043C17.1068 9.09375 15.7464 7.67871 13.6957 7.67871C11.6449 7.67871 10.2845 9.09375 10.2845 11.4043C10.2845 13.7217 11.638 15.1367 13.6957 15.1367ZM13.6957 13.9199C12.5404 13.9199 11.7884 13.0039 11.7884 11.4043C11.7884 9.81152 12.5404 8.89551 13.6957 8.89551C14.8509 8.89551 15.6029 9.81152 15.6029 11.4043C15.6029 13.0039 14.8578 13.9199 13.6957 13.9199ZM18.3884 15H19.865V10.8096C19.865 9.69531 20.5349 8.95703 21.5739 8.95703C22.5993 8.95703 23.1052 9.55176 23.1052 10.6318V15H24.5886V10.3447C24.5886 8.69727 23.6794 7.68555 22.0935 7.68555C20.9861 7.68555 20.2204 8.19141 19.8308 9.01172H19.7966V7.80859H18.3884V15ZM26.588 6.10645V7.80859H25.5421V8.97754H26.588V13.1064C26.588 14.4941 27.1554 15.0479 28.6114 15.0479C28.9395 15.0479 29.2677 15.0205 29.4317 14.9795V13.8105C29.336 13.8311 29.0968 13.8447 28.9464 13.8447C28.3448 13.8447 28.0714 13.5645 28.0714 12.9424V8.97754H29.4386V7.80859H28.0714V6.10645H26.588ZM33.2016 13.9541C32.4086 13.9541 31.8891 13.5439 31.8891 12.915C31.8891 12.2998 32.3881 11.9102 33.27 11.8486L35.0405 11.7393V12.3066C35.0405 13.2432 34.2338 13.9541 33.2016 13.9541ZM32.7914 15.123C33.7348 15.123 34.644 14.6172 35.061 13.8174H35.0952V15H36.5102V10.0439C36.5102 8.60156 35.3959 7.67871 33.6528 7.67871C31.8754 7.67871 30.768 8.63574 30.686 9.93457H32.0805C32.2104 9.29199 32.7436 8.88184 33.5981 8.88184C34.5004 8.88184 35.0405 9.36035 35.0405 10.1602V10.7139L33.0717 10.8301C31.3627 10.9258 30.3989 11.6982 30.3989 12.9561C30.3989 14.248 31.3832 15.123 32.7914 15.123ZM44.2586 10.2832C44.1287 8.86816 43.0008 7.67871 41.1482 7.67871C39.1043 7.67871 37.7645 9.12109 37.7645 11.4043C37.7645 13.7285 39.1043 15.1367 41.1619 15.1367C42.8914 15.1367 44.115 14.0977 44.2723 12.5664H42.8504C42.6795 13.4004 42.0848 13.8994 41.1756 13.8994C40.0271 13.8994 39.2684 12.9834 39.2684 11.4043C39.2684 9.85938 40.0203 8.90918 41.1619 8.90918C42.1258 8.90918 42.7 9.51758 42.8504 10.2832H44.2586ZM45.8888 6.10645V7.80859H44.8429V8.97754H45.8888V13.1064C45.8888 14.4941 46.4562 15.0479 47.9123 15.0479C48.2404 15.0479 48.5685 15.0205 48.7326 14.9795V13.8105C48.6369 13.8311 48.3976 13.8447 48.2472 13.8447C47.6457 13.8447 47.3722 13.5645 47.3722 12.9424V8.97754H48.7394V7.80859H47.3722V6.10645H45.8888ZM54.7889 5.13574H53.2577V11.5342C53.2577 13.6602 54.7753 15.1641 57.2499 15.1641C59.7245 15.1641 61.2421 13.6602 61.2421 11.5342V5.13574H59.7177V11.4043C59.7177 12.8125 58.8221 13.8037 57.2499 13.8037C55.6776 13.8037 54.7889 12.8125 54.7889 11.4043V5.13574ZM62.8928 9.8457C62.8928 10.8506 63.5491 11.5273 64.8479 11.8418L66.133 12.1562C66.885 12.3477 67.1584 12.6006 67.1584 13.0586C67.1584 13.6396 66.6116 14.0088 65.7229 14.0088C64.8205 14.0088 64.2873 13.626 64.1711 12.9355H62.7082C62.8245 14.2549 63.9524 15.1367 65.6545 15.1367C67.4182 15.1367 68.6418 14.2344 68.6418 12.9219C68.6418 11.8623 68.095 11.3154 66.6457 10.9668L65.4358 10.6865C64.6907 10.502 64.3352 10.2012 64.3352 9.75684C64.3352 9.18945 64.8684 8.7998 65.6682 8.7998C66.4953 8.7998 67.0217 9.20312 67.0901 9.85254H68.4778C68.4299 8.57422 67.3088 7.67871 65.7092 7.67871C64.0276 7.67871 62.8928 8.56055 62.8928 9.8457Z" fill="#111827"/>
<path d="M18.0586 52.0508H13.875V49.1445H17.8418V48.207H13.875V45.4941H18.0586V44.5449H12.8203V53H18.0586V52.0508ZM19.4149 53H20.4345V49.1797C20.4345 48.3359 21.0204 47.7031 21.829 47.7031C22.5848 47.7031 23.077 48.1836 23.077 48.916V53H24.0966V49.127C24.0966 48.3008 24.6649 47.7031 25.4735 47.7031C26.2762 47.7031 26.7391 48.1953 26.7391 49.0273V53H27.7587V48.793C27.7587 47.5859 26.9794 46.8008 25.7723 46.8008C24.9169 46.8008 24.202 47.2344 23.8622 47.9609H23.8387C23.5751 47.2227 22.9598 46.8008 22.1278 46.8008C21.3075 46.8008 20.6864 47.2344 20.3993 47.8789H20.3759V46.9062H19.4149V53ZM31.1892 52.2383C30.4568 52.2383 29.9705 51.8574 29.9705 51.2773C29.9705 50.7031 30.4392 50.3398 31.2595 50.2871L32.8884 50.1875V50.6855C32.8884 51.5645 32.1502 52.2383 31.1892 52.2383ZM30.9607 53.1055C31.781 53.1055 32.5545 52.6484 32.9177 51.9512H32.9412V53H33.908V48.7871C33.908 47.5742 33.0056 46.8008 31.5759 46.8008C30.1345 46.8008 29.2322 47.6094 29.1619 48.6641H30.1462C30.2752 48.0664 30.7673 47.6973 31.5525 47.6973C32.3962 47.6973 32.8884 48.1426 32.8884 48.8867V49.3965L31.1423 49.4961C29.7361 49.5781 28.9334 50.2344 28.9334 51.2773C28.9334 52.373 29.7478 53.1055 30.9607 53.1055ZM35.3756 53H36.3952V46.9062H35.3756V53ZM35.8854 45.8809C36.237 45.8809 36.5241 45.5938 36.5241 45.248C36.5241 44.8965 36.237 44.6152 35.8854 44.6152C35.5397 44.6152 35.2526 44.8965 35.2526 45.248C35.2526 45.5938 35.5397 45.8809 35.8854 45.8809ZM37.9448 53H38.9644V44.5449H37.9448V53Z" fill="#9CA3AF"/>
<path d="M13.1621 66.1064V67.8086H12.1162V68.9775H13.1621V73.1064C13.1621 74.4941 13.7295 75.0479 15.1855 75.0479C15.5137 75.0479 15.8418 75.0205 16.0059 74.9795V73.8105C15.9102 73.8311 15.6709 73.8447 15.5205 73.8447C14.9189 73.8447 14.6455 73.5645 14.6455 72.9424V68.9775H16.0127V67.8086H14.6455V66.1064H13.1621ZM26.8578 67.8086H25.3949L24.0824 73.4688H24.0482L22.5443 67.8086H21.1224L19.6254 73.4688H19.598L18.2855 67.8086H16.8089L18.7845 75H20.3089L21.806 69.6133H21.8402L23.3509 75H24.889L26.8578 67.8086ZM27.948 75H29.4245V67.8086H27.948V75ZM28.6862 66.7559C29.1648 66.7559 29.5476 66.3799 29.5476 65.915C29.5476 65.4434 29.1648 65.0674 28.6862 65.0674C28.2146 65.0674 27.8318 65.4434 27.8318 65.915C27.8318 66.3799 28.2146 66.7559 28.6862 66.7559ZM31.5059 66.1064V67.8086H30.46V68.9775H31.5059V73.1064C31.5059 74.4941 32.0733 75.0479 33.5294 75.0479C33.8575 75.0479 34.1856 75.0205 34.3497 74.9795V73.8105C34.254 73.8311 34.0147 73.8447 33.8643 73.8447C33.2628 73.8447 32.9893 73.5645 32.9893 72.9424V68.9775H34.3565V67.8086H32.9893V66.1064H31.5059ZM36.144 66.1064V67.8086H35.0981V68.9775H36.144V73.1064C36.144 74.4941 36.7114 75.0479 38.1674 75.0479C38.4955 75.0479 38.8237 75.0205 38.9877 74.9795V73.8105C38.892 73.8311 38.6528 73.8447 38.5024 73.8447C37.9008 73.8447 37.6274 73.5645 37.6274 72.9424V68.9775H38.9946V67.8086H37.6274V66.1064H36.144ZM43.1814 68.8682C44.2137 68.8682 44.9109 69.6406 44.9451 70.7412H41.3494C41.4246 69.6543 42.1492 68.8682 43.1814 68.8682ZM44.9383 72.8877C44.74 73.5166 44.118 73.9404 43.2771 73.9404C42.0945 73.9404 41.3426 73.1133 41.3426 71.8623V71.7734H46.4217V71.2676C46.4217 69.0869 45.1775 67.6787 43.1814 67.6787C41.1512 67.6787 39.8523 69.1826 39.8523 71.4385C39.8523 73.708 41.1307 75.1367 43.243 75.1367C44.8904 75.1367 46.1346 74.2002 46.3396 72.8877H44.9383ZM47.7101 75H49.1867V70.6934C49.1867 69.6748 49.7746 69.0391 50.7248 69.0391C51.0119 69.0391 51.2716 69.0732 51.3879 69.1211V67.7471C51.2785 67.7266 51.0939 67.6924 50.882 67.6924C50.0343 67.6924 49.3918 68.1914 49.1525 69.0322H49.1183V67.8086H47.7101V75ZM57.7964 69.1006C58.6577 69.1006 59.2046 69.7979 59.2046 70.8984C59.2046 71.999 58.6509 72.6963 57.7896 72.6963C56.9556 72.6963 56.4497 72.0127 56.4497 70.8984C56.4497 69.7705 56.9556 69.1006 57.7964 69.1006ZM58.0357 65.1562C54.6792 65.1562 52.3413 67.4531 52.3413 70.8574C52.3413 74.4805 54.7681 76.5586 58.145 76.5586C58.979 76.5586 59.7515 76.4492 60.3325 76.2578V75.3145C59.9087 75.4922 59.0405 75.6084 58.1929 75.6084C55.4175 75.6084 53.4077 73.9131 53.4077 70.8984C53.4077 68.082 55.3081 66.0996 57.9605 66.0996C60.6333 66.0996 62.4585 67.7471 62.4585 70.2354C62.4585 71.8896 61.9048 72.833 61.146 72.833C60.6538 72.833 60.4146 72.5254 60.4146 72.0742V68.1914H59.2593V69.0186H59.1841C58.9243 68.4307 58.2749 68.0547 57.5435 68.0547C56.1558 68.0547 55.1919 69.2031 55.1919 70.8643C55.1919 72.6006 56.1489 73.7627 57.5708 73.7627C58.3706 73.7627 58.9859 73.3799 59.273 72.6895H59.3413C59.4507 73.3662 60.1138 73.8105 60.9136 73.8105C62.5405 73.8105 63.5249 72.3818 63.5249 70.2012C63.5249 67.1797 61.2349 65.1562 58.0357 65.1562ZM64.8749 75H66.3514V70.5566C66.3514 69.6338 66.9735 68.9502 67.8485 68.9502C68.6825 68.9502 69.2089 69.4766 69.2089 70.3037V75H70.6581V70.5088C70.6581 69.5996 71.2665 68.9502 72.1415 68.9502C73.0165 68.9502 73.5155 69.4834 73.5155 70.4131V75H74.9989V70.0576C74.9989 68.6289 74.0692 67.6855 72.6473 67.6855C71.622 67.6855 70.7743 68.2188 70.4052 69.0938H70.371C70.0839 68.1982 69.3593 67.6855 68.3612 67.6855C67.3905 67.6855 66.6386 68.2188 66.3173 69.0186H66.2831V67.8086H64.8749V75ZM79.0832 73.9541C78.2903 73.9541 77.7707 73.5439 77.7707 72.915C77.7707 72.2998 78.2698 71.9102 79.1516 71.8486L80.9221 71.7393V72.3066C80.9221 73.2432 80.1155 73.9541 79.0832 73.9541ZM78.6731 75.123C79.6164 75.123 80.5256 74.6172 80.9426 73.8174H80.9768V75H82.3918V70.0439C82.3918 68.6016 81.2776 67.6787 79.5344 67.6787C77.7571 67.6787 76.6496 68.6357 76.5676 69.9346H77.9621C78.092 69.292 78.6252 68.8818 79.4797 68.8818C80.3821 68.8818 80.9221 69.3604 80.9221 70.1602V70.7139L78.9534 70.8301C77.2444 70.9258 76.2805 71.6982 76.2805 72.9561C76.2805 74.248 77.2649 75.123 78.6731 75.123ZM84.0152 75H85.4918V67.8086H84.0152V75ZM84.7535 66.7559C85.232 66.7559 85.6148 66.3799 85.6148 65.915C85.6148 65.4434 85.232 65.0674 84.7535 65.0674C84.2818 65.0674 83.899 65.4434 83.899 65.915C83.899 66.3799 84.2818 66.7559 84.7535 66.7559ZM87.1972 75H88.6738V65.1357H87.1972V75ZM91.4388 75.0752C91.9378 75.0752 92.3343 74.6787 92.3343 74.1797C92.3343 73.6807 91.9378 73.2842 91.4388 73.2842C90.9398 73.2842 90.5433 73.6807 90.5433 74.1797C90.5433 74.6787 90.9398 75.0752 91.4388 75.0752ZM99.9391 70.2832C99.8093 68.8682 98.6813 67.6787 96.8288 67.6787C94.7848 67.6787 93.445 69.1211 93.445 71.4043C93.445 73.7285 94.7848 75.1367 96.8425 75.1367C98.572 75.1367 99.7956 74.0977 99.9528 72.5664H98.5309C98.36 73.4004 97.7653 73.8994 96.8561 73.8994C95.7077 73.8994 94.9489 72.9834 94.9489 71.4043C94.9489 69.8594 95.7009 68.9092 96.8425 68.9092C97.8063 68.9092 98.3805 69.5176 98.5309 70.2832H99.9391ZM104.229 75.1367C106.286 75.1367 107.64 73.7217 107.64 71.4043C107.64 69.0938 106.279 67.6787 104.229 67.6787C102.178 67.6787 100.817 69.0938 100.817 71.4043C100.817 73.7217 102.171 75.1367 104.229 75.1367ZM104.229 73.9199C103.073 73.9199 102.321 73.0039 102.321 71.4043C102.321 69.8115 103.073 68.8955 104.229 68.8955C105.384 68.8955 106.136 69.8115 106.136 71.4043C106.136 73.0039 105.391 73.9199 104.229 73.9199ZM108.921 75H110.398V70.5566C110.398 69.6338 111.02 68.9502 111.895 68.9502C112.729 68.9502 113.255 69.4766 113.255 70.3037V75H114.704V70.5088C114.704 69.5996 115.313 68.9502 116.188 68.9502C117.063 68.9502 117.562 69.4834 117.562 70.4131V75H119.045V70.0576C119.045 68.6289 118.116 67.6855 116.694 67.6855C115.668 67.6855 114.821 68.2188 114.452 69.0938H114.417C114.13 68.1982 113.406 67.6855 112.408 67.6855C111.437 67.6855 110.685 68.2188 110.364 69.0186H110.329V67.8086H108.921V75Z" fill="#111827"/>
<rect x="0.5" y="32.5" width="156" height="55" rx="7.5" stroke="#E5E7EB"/>
<path d="M187.514 46.291H187.572L189.523 53H190.52L192.822 44.5449H191.721L190.027 51.4473H189.98L188.076 44.5449H187.01L185.105 51.4473H185.059L183.365 44.5449H182.264L184.566 53H185.562L187.514 46.291ZM195.667 47.6855C196.628 47.6855 197.266 48.4121 197.29 49.4316H193.979C194.044 48.418 194.712 47.6855 195.667 47.6855ZM197.266 51.2539C197.097 51.8281 196.528 52.2207 195.755 52.2207C194.659 52.2207 193.974 51.4531 193.974 50.2871V50.2285H198.345V49.8418C198.345 47.9961 197.331 46.8008 195.684 46.8008C194.003 46.8008 192.925 48.084 192.925 49.9766C192.925 51.8926 193.985 53.1055 195.731 53.1055C197.061 53.1055 198.093 52.3203 198.268 51.2539H197.266ZM202.525 53.1055C204.084 53.1055 205.115 51.8691 205.115 49.9531C205.115 48.043 204.078 46.8008 202.543 46.8008C201.681 46.8008 200.972 47.2285 200.592 47.9258H200.568V44.5449H199.549V53H200.521V51.9688H200.545C200.937 52.6719 201.635 53.1055 202.525 53.1055ZM202.326 47.6973C203.404 47.6973 204.072 48.5703 204.072 49.9531C204.072 51.3477 203.404 52.209 202.326 52.209C201.295 52.209 200.562 51.3125 200.562 49.9531C200.562 48.5996 201.295 47.6973 202.326 47.6973ZM206.167 48.5879C206.167 49.4199 206.694 49.9707 207.766 50.2461L208.839 50.5215C209.524 50.7031 209.776 50.9375 209.776 51.3711C209.776 51.9219 209.266 52.2734 208.44 52.2734C207.614 52.2734 207.133 51.9336 207.022 51.3008H206.003C206.108 52.3789 207.04 53.1055 208.376 53.1055C209.799 53.1055 210.801 52.3555 210.801 51.2949C210.801 50.3984 210.356 49.9531 209.126 49.6426L208.182 49.4141C207.491 49.2383 207.169 48.957 207.169 48.5352C207.169 48.002 207.661 47.6328 208.405 47.6328C209.155 47.6328 209.63 47.9961 209.7 48.582H210.673C210.626 47.5508 209.7 46.8008 208.44 46.8008C207.098 46.8008 206.167 47.5449 206.167 48.5879ZM212.035 53H213.054V46.9062H212.035V53ZM212.544 45.8809C212.896 45.8809 213.183 45.5938 213.183 45.248C213.183 44.8965 212.896 44.6152 212.544 44.6152C212.199 44.6152 211.912 44.8965 211.912 45.248C211.912 45.5938 212.199 45.8809 212.544 45.8809ZM214.879 45.4355V46.9062H213.971V47.7441H214.879V51.418C214.879 52.5898 215.313 53.0469 216.432 53.0469C216.672 53.0469 216.954 53.0293 217.077 53V52.1445C217.006 52.1562 216.772 52.1738 216.655 52.1738C216.133 52.1738 215.899 51.9219 215.899 51.3652V47.7441H217.082V46.9062H215.899V45.4355H214.879ZM220.56 47.6855C221.521 47.6855 222.159 48.4121 222.183 49.4316H218.872C218.937 48.418 219.605 47.6855 220.56 47.6855ZM222.159 51.2539C221.99 51.8281 221.421 52.2207 220.648 52.2207C219.552 52.2207 218.866 51.4531 218.866 50.2871V50.2285H223.238V49.8418C223.238 47.9961 222.224 46.8008 220.577 46.8008C218.896 46.8008 217.818 48.084 217.818 49.9766C217.818 51.8926 218.878 53.1055 220.624 53.1055C221.954 53.1055 222.986 52.3203 223.161 51.2539H222.159Z" fill="#9CA3AF"/>
<path d="M182.786 75H184.263V70.8438C184.263 69.709 184.933 68.957 186.026 68.957C187.065 68.957 187.599 69.5928 187.599 70.6523V75H189.082V70.3652C189.082 68.7383 188.139 67.6855 186.56 67.6855C185.466 67.6855 184.68 68.1709 184.283 69.0117H184.249V65.1357H182.786V75ZM191.081 66.1064V67.8086H190.036V68.9775H191.081V73.1064C191.081 74.4941 191.649 75.0479 193.105 75.0479C193.433 75.0479 193.761 75.0205 193.925 74.9795V73.8105C193.829 73.8311 193.59 73.8447 193.44 73.8447C192.838 73.8447 192.565 73.5645 192.565 72.9424V68.9775H193.932V67.8086H192.565V66.1064H191.081ZM195.719 66.1064V67.8086H194.674V68.9775H195.719V73.1064C195.719 74.4941 196.287 75.0479 197.743 75.0479C198.071 75.0479 198.399 75.0205 198.563 74.9795V73.8105C198.467 73.8311 198.228 73.8447 198.078 73.8447C197.476 73.8447 197.203 73.5645 197.203 72.9424V68.9775H198.57V67.8086H197.203V66.1064H195.719ZM203.673 67.6924C202.634 67.6924 201.807 68.2188 201.383 69.0459H201.356V67.8086H199.927V77.3789H201.403V73.8174H201.438C201.848 74.6172 202.668 75.123 203.7 75.123C205.505 75.123 206.701 73.6807 206.701 71.4043C206.701 69.1279 205.498 67.6924 203.673 67.6924ZM203.283 73.8721C202.149 73.8721 201.397 72.9014 201.397 71.4043C201.397 69.9209 202.155 68.9365 203.283 68.9365C204.452 68.9365 205.184 69.9004 205.184 71.4043C205.184 72.915 204.452 73.8721 203.283 73.8721ZM207.853 69.8457C207.853 70.8506 208.509 71.5273 209.808 71.8418L211.093 72.1562C211.845 72.3477 212.119 72.6006 212.119 73.0586C212.119 73.6396 211.572 74.0088 210.683 74.0088C209.781 74.0088 209.247 73.626 209.131 72.9355H207.668C207.785 74.2549 208.913 75.1367 210.615 75.1367C212.378 75.1367 213.602 74.2344 213.602 72.9219C213.602 71.8623 213.055 71.3154 211.606 70.9668L210.396 70.6865C209.651 70.502 209.295 70.2012 209.295 69.7568C209.295 69.1895 209.829 68.7998 210.628 68.7998C211.456 68.7998 211.982 69.2031 212.05 69.8525H213.438C213.39 68.5742 212.269 67.6787 210.669 67.6787C208.988 67.6787 207.853 68.5605 207.853 69.8457ZM215.998 75.0752C216.497 75.0752 216.893 74.6787 216.893 74.1797C216.893 73.6807 216.497 73.2842 215.998 73.2842C215.499 73.2842 215.102 73.6807 215.102 74.1797C215.102 74.6787 215.499 75.0752 215.998 75.0752ZM215.998 70.0918C216.497 70.0918 216.893 69.7021 216.893 69.1963C216.893 68.6973 216.497 68.3008 215.998 68.3008C215.499 68.3008 215.102 68.6973 215.102 69.1963C215.102 69.7021 215.499 70.0918 215.998 70.0918ZM219.289 77.1055L222.789 65.1357H221.477L217.977 77.1055H219.289ZM224.242 77.1055L227.742 65.1357H226.429L222.929 77.1055H224.242ZM229.044 66.1064V67.8086H227.998V68.9775H229.044V73.1064C229.044 74.4941 229.611 75.0479 231.067 75.0479C231.395 75.0479 231.724 75.0205 231.888 74.9795V73.8105C231.792 73.8311 231.553 73.8447 231.402 73.8447C230.801 73.8447 230.527 73.5645 230.527 72.9424V68.9775H231.894V67.8086H230.527V66.1064H229.044ZM242.739 67.8086H241.277L239.964 73.4688H239.93L238.426 67.8086H237.004L235.507 73.4688H235.48L234.167 67.8086H232.691L234.666 75H236.191L237.688 69.6133H237.722L239.233 75H240.771L242.739 67.8086ZM243.83 75H245.306V67.8086H243.83V75ZM244.568 66.7559C245.046 66.7559 245.429 66.3799 245.429 65.915C245.429 65.4434 245.046 65.0674 244.568 65.0674C244.096 65.0674 243.713 65.4434 243.713 65.915C243.713 66.3799 244.096 66.7559 244.568 66.7559ZM247.388 66.1064V67.8086H246.342V68.9775H247.388V73.1064C247.388 74.4941 247.955 75.0479 249.411 75.0479C249.739 75.0479 250.067 75.0205 250.231 74.9795V73.8105C250.136 73.8311 249.896 73.8447 249.746 73.8447C249.144 73.8447 248.871 73.5645 248.871 72.9424V68.9775H250.238V67.8086H248.871V66.1064H247.388ZM252.026 66.1064V67.8086H250.98V68.9775H252.026V73.1064C252.026 74.4941 252.593 75.0479 254.049 75.0479C254.377 75.0479 254.705 75.0205 254.869 74.9795V73.8105C254.774 73.8311 254.534 73.8447 254.384 73.8447C253.783 73.8447 253.509 73.5645 253.509 72.9424V68.9775H254.876V67.8086H253.509V66.1064H252.026ZM259.063 68.8682C260.095 68.8682 260.793 69.6406 260.827 70.7412H257.231C257.306 69.6543 258.031 68.8682 259.063 68.8682ZM260.82 72.8877C260.622 73.5166 260 73.9404 259.159 73.9404C257.976 73.9404 257.224 73.1133 257.224 71.8623V71.7734H262.303V71.2676C262.303 69.0869 261.059 67.6787 259.063 67.6787C257.033 67.6787 255.734 69.1826 255.734 71.4385C255.734 73.708 257.012 75.1367 259.125 75.1367C260.772 75.1367 262.016 74.2002 262.221 72.8877H260.82ZM263.592 75H265.068V70.6934C265.068 69.6748 265.656 69.0391 266.606 69.0391C266.894 69.0391 267.153 69.0732 267.27 69.1211V67.7471C267.16 67.7266 266.976 67.6924 266.764 67.6924C265.916 67.6924 265.273 68.1914 265.034 69.0322H265V67.8086H263.592V75ZM268.722 75.0752C269.221 75.0752 269.618 74.6787 269.618 74.1797C269.618 73.6807 269.221 73.2842 268.722 73.2842C268.223 73.2842 267.827 73.6807 267.827 74.1797C267.827 74.6787 268.223 75.0752 268.722 75.0752ZM277.222 70.2832C277.093 68.8682 275.965 67.6787 274.112 67.6787C272.068 67.6787 270.728 69.1211 270.728 71.4043C270.728 73.7285 272.068 75.1367 274.126 75.1367C275.855 75.1367 277.079 74.0977 277.236 72.5664H275.814C275.643 73.4004 275.049 73.8994 274.139 73.8994C272.991 73.8994 272.232 72.9834 272.232 71.4043C272.232 69.8594 272.984 68.9092 274.126 68.9092C275.09 68.9092 275.664 69.5176 275.814 70.2832H277.222ZM281.512 75.1367C283.569 75.1367 284.923 73.7217 284.923 71.4043C284.923 69.0938 283.563 67.6787 281.512 67.6787C279.461 67.6787 278.101 69.0938 278.101 71.4043C278.101 73.7217 279.454 75.1367 281.512 75.1367ZM281.512 73.9199C280.357 73.9199 279.605 73.0039 279.605 71.4043C279.605 69.8115 280.357 68.8955 281.512 68.8955C282.667 68.8955 283.419 69.8115 283.419 71.4043C283.419 73.0039 282.674 73.9199 281.512 73.9199ZM286.205 75H287.681V70.5566C287.681 69.6338 288.303 68.9502 289.178 68.9502C290.012 68.9502 290.539 69.4766 290.539 70.3037V75H291.988V70.5088C291.988 69.5996 292.596 68.9502 293.471 68.9502C294.346 68.9502 294.845 69.4834 294.845 70.4131V75H296.329V70.0576C296.329 68.6289 295.399 67.6855 293.977 67.6855C292.952 67.6855 292.104 68.2188 291.735 69.0938H291.701C291.414 68.1982 290.689 67.6855 289.691 67.6855C288.72 67.6855 287.968 68.2188 287.647 69.0186H287.613V67.8086H286.205V75Z" fill="#111827"/>
<rect x="170.5" y="32.5" width="156" height="55" rx="7.5" stroke="#D1D5DB"/>
</svg>
