<svg width="327" height="122" viewBox="0 0 327 122" fill="none" xmlns="http://www.w3.org/2000/svg">
<path d="M11.2031 13.25H11.3203L14.9766 26H17.4492L22.0195 9.08984H19.2891L16.1602 22.332H16.0664L12.4805 9.08984H10.043L6.46875 22.332H6.375L3.24609 9.08984H0.515625L5.07422 26H7.55859L11.2031 13.25ZM24.1345 26H26.6658V18.875C26.6658 16.9297 27.8142 15.6406 29.6892 15.6406C31.4705 15.6406 32.3845 16.7305 32.3845 18.5469V26H34.9275V18.0547C34.9275 15.2656 33.3103 13.4609 30.6033 13.4609C28.7283 13.4609 27.3806 14.293 26.7009 15.7344H26.6423V9.08984H24.1345V26ZM42.773 15.4883C44.5425 15.4883 45.7378 16.8125 45.7964 18.6992H39.6323C39.7612 16.8359 41.0034 15.4883 42.773 15.4883ZM45.7847 22.3789C45.4448 23.457 44.3784 24.1836 42.937 24.1836C40.9097 24.1836 39.6206 22.7656 39.6206 20.6211V20.4688H48.3277V19.6016C48.3277 15.8633 46.1948 13.4492 42.773 13.4492C39.2925 13.4492 37.0659 16.0273 37.0659 19.8945C37.0659 23.7852 39.2573 26.2344 42.8784 26.2344C45.7027 26.2344 47.8355 24.6289 48.187 22.3789H45.7847ZM50.5364 26H53.0677V18.6172C53.0677 16.8711 54.0755 15.7812 55.7044 15.7812C56.1966 15.7812 56.6419 15.8398 56.8411 15.9219V13.5664C56.6536 13.5312 56.3372 13.4727 55.9739 13.4727C54.5208 13.4727 53.4192 14.3281 53.0091 15.7695H52.9505V13.6719H50.5364V26ZM63.2686 15.4883C65.0381 15.4883 66.2334 16.8125 66.292 18.6992H60.128C60.2569 16.8359 61.4991 15.4883 63.2686 15.4883ZM66.2803 22.3789C65.9405 23.457 64.8741 24.1836 63.4327 24.1836C61.4053 24.1836 60.1162 22.7656 60.1162 20.6211V20.4688H68.8233V19.6016C68.8233 15.8633 66.6905 13.4492 63.2686 13.4492C59.7881 13.4492 57.5616 16.0273 57.5616 19.8945C57.5616 23.7852 59.753 26.2344 63.3741 26.2344C66.1983 26.2344 68.3311 24.6289 68.6827 22.3789H66.2803ZM80.4595 24.207C79.1002 24.207 78.2095 23.5039 78.2095 22.4258C78.2095 21.3711 79.065 20.7031 80.5767 20.5977L83.6119 20.4102V21.3828C83.6119 22.9883 82.2291 24.207 80.4595 24.207ZM79.7564 26.2109C81.3736 26.2109 82.9322 25.3438 83.647 23.9727H83.7056V26H86.1314V17.5039C86.1314 15.0312 84.2213 13.4492 81.233 13.4492C78.1861 13.4492 76.2877 15.0898 76.147 17.3164H78.5377C78.7603 16.2148 79.6744 15.5117 81.1392 15.5117C82.6861 15.5117 83.6119 16.332 83.6119 17.7031V18.6523L80.2369 18.8516C77.3072 19.0156 75.6548 20.3398 75.6548 22.4961C75.6548 24.7109 77.3423 26.2109 79.7564 26.2109ZM88.8323 26H91.3636V18.6172C91.3636 16.8711 92.3714 15.7812 94.0003 15.7812C94.4925 15.7812 94.9378 15.8398 95.137 15.9219V13.5664C94.9495 13.5312 94.6331 13.4727 94.2698 13.4727C92.8167 13.4727 91.7152 14.3281 91.305 15.7695H91.2464V13.6719H88.8323V26ZM101.565 15.4883C103.334 15.4883 104.529 16.8125 104.588 18.6992H98.4239C98.5528 16.8359 99.795 15.4883 101.565 15.4883ZM104.576 22.3789C104.236 23.457 103.17 24.1836 101.729 24.1836C99.7012 24.1836 98.4122 22.7656 98.4122 20.6211V20.4688H107.119V19.6016C107.119 15.8633 104.986 13.4492 101.565 13.4492C98.0841 13.4492 95.8575 16.0273 95.8575 19.8945C95.8575 23.7852 98.0489 26.2344 101.67 26.2344C104.494 26.2344 106.627 24.6289 106.979 22.3789H104.576ZM115.662 30.5938C118.228 30.5938 119.435 29.6328 120.49 26.6445L125.119 13.6719H122.447L119.318 23.7031H119.283L116.154 13.6719H113.412L117.865 26.0117C117.865 26.0234 117.642 26.75 117.642 26.7734C117.255 28.0391 116.634 28.5312 115.451 28.5312C115.24 28.5312 114.818 28.5312 114.63 28.4844V30.5352C114.818 30.5703 115.463 30.5938 115.662 30.5938ZM131.792 26.2344C135.32 26.2344 137.64 23.8086 137.64 19.8359C137.64 15.875 135.308 13.4492 131.792 13.4492C128.277 13.4492 125.945 15.875 125.945 19.8359C125.945 23.8086 128.265 26.2344 131.792 26.2344ZM131.792 24.1484C129.812 24.1484 128.523 22.5781 128.523 19.8359C128.523 17.1055 129.812 15.5352 131.792 15.5352C133.773 15.5352 135.062 17.1055 135.062 19.8359C135.062 22.5781 133.785 24.1484 131.792 24.1484ZM150.407 13.6719H147.876V20.8555C147.876 22.7773 146.775 24.043 144.946 24.043C143.2 24.043 142.31 23.0352 142.31 21.1602V13.6719H139.778V21.6523C139.778 24.4766 141.419 26.2227 144.103 26.2227C145.989 26.2227 147.243 25.3906 147.923 23.9141H147.982V26H150.407V13.6719ZM164.692 13.4727C162.911 13.4727 161.493 14.375 160.766 15.793H160.719V13.6719H158.27V30.0781H160.801V23.9727H160.86C161.563 25.3438 162.969 26.2109 164.739 26.2109C167.833 26.2109 169.883 23.7383 169.883 19.8359C169.883 15.9336 167.821 13.4727 164.692 13.4727ZM164.024 24.0664C162.079 24.0664 160.79 22.4023 160.79 19.8359C160.79 17.293 162.09 15.6055 164.024 15.6055C166.028 15.6055 167.282 17.2578 167.282 19.8359C167.282 22.4258 166.028 24.0664 164.024 24.0664ZM172.08 26H174.612V18.6172C174.612 16.8711 175.62 15.7812 177.248 15.7812C177.741 15.7812 178.186 15.8398 178.385 15.9219V13.5664C178.198 13.5312 177.881 13.4727 177.518 13.4727C176.065 13.4727 174.963 14.3281 174.553 15.7695H174.495V13.6719H172.08V26ZM184.813 15.4883C186.582 15.4883 187.777 16.8125 187.836 18.6992H181.672C181.801 16.8359 183.043 15.4883 184.813 15.4883ZM187.824 22.3789C187.485 23.457 186.418 24.1836 184.977 24.1836C182.949 24.1836 181.66 22.7656 181.66 20.6211V20.4688H190.367V19.6016C190.367 15.8633 188.235 13.4492 184.813 13.4492C181.332 13.4492 179.106 16.0273 179.106 19.8945C179.106 23.7852 181.297 26.2344 184.918 26.2344C187.742 26.2344 189.875 24.6289 190.227 22.3789H187.824ZM193.314 26H195.857V15.6758H198.318V13.6953H195.822V12.5352C195.822 11.4453 196.338 10.8945 197.439 10.8945C197.779 10.8945 198.119 10.918 198.365 10.9648V9.08984C198.037 9.03125 197.463 8.97266 196.947 8.97266C194.439 8.97266 193.314 10.0977 193.314 12.4883V13.6953H191.615V15.6758H193.314V26ZM205.191 15.4883C206.961 15.4883 208.156 16.8125 208.215 18.6992H202.05C202.179 16.8359 203.422 15.4883 205.191 15.4883ZM208.203 22.3789C207.863 23.457 206.797 24.1836 205.355 24.1836C203.328 24.1836 202.039 22.7656 202.039 20.6211V20.4688H210.746V19.6016C210.746 15.8633 208.613 13.4492 205.191 13.4492C201.711 13.4492 199.484 16.0273 199.484 19.8945C199.484 23.7852 201.675 26.2344 205.297 26.2344C208.121 26.2344 210.254 24.6289 210.605 22.3789H208.203ZM213.693 26H216.236V15.6758H218.697V13.6953H216.201V12.5352C216.201 11.4453 216.716 10.8945 217.818 10.8945C218.158 10.8945 218.497 10.918 218.744 10.9648V9.08984C218.415 9.03125 217.841 8.97266 217.326 8.97266C214.818 8.97266 213.693 10.0977 213.693 12.4883V13.6953H211.994V15.6758H213.693V26ZM220.929 26H223.46V18.6172C223.46 16.8711 224.468 15.7812 226.097 15.7812C226.589 15.7812 227.034 15.8398 227.234 15.9219V13.5664C227.046 13.5312 226.73 13.4727 226.366 13.4727C224.913 13.4727 223.812 14.3281 223.402 15.7695H223.343V13.6719H220.929V26ZM233.661 15.4883C235.431 15.4883 236.626 16.8125 236.685 18.6992H230.52C230.649 16.8359 231.892 15.4883 233.661 15.4883ZM236.673 22.3789C236.333 23.457 235.267 24.1836 233.825 24.1836C231.798 24.1836 230.509 22.7656 230.509 20.6211V20.4688H239.216V19.6016C239.216 15.8633 237.083 13.4492 233.661 13.4492C230.181 13.4492 227.954 16.0273 227.954 19.8945C227.954 23.7852 230.145 26.2344 233.767 26.2344C236.591 26.2344 238.724 24.6289 239.075 22.3789H236.673ZM246.053 26.2109C247.846 26.2109 249.253 25.3086 249.979 23.9023H250.026V26H252.487V9.08984H249.944V15.7227H249.897C249.206 14.3633 247.8 13.4727 246.03 13.4727C242.936 13.4727 240.874 15.9453 240.874 19.8359C240.874 23.7266 242.936 26.2109 246.053 26.2109ZM246.721 15.6055C248.667 15.6055 249.967 17.2812 249.967 19.8359C249.967 22.4141 248.667 24.0664 246.721 24.0664C244.717 24.0664 243.464 22.4375 243.464 19.8359C243.464 17.2461 244.717 15.6055 246.721 15.6055ZM12.0586 57.7266H4.18359V43.0898H1.55859V60H12.0586V57.7266ZM19.2361 60.2344C22.7634 60.2344 25.0837 57.8086 25.0837 53.8359C25.0837 49.875 22.7517 47.4492 19.2361 47.4492C15.7205 47.4492 13.3884 49.875 13.3884 53.8359C13.3884 57.8086 15.7087 60.2344 19.2361 60.2344ZM19.2361 58.1484C17.2556 58.1484 15.9666 56.5781 15.9666 53.8359C15.9666 51.1055 17.2556 49.5352 19.2361 49.5352C21.2166 49.5352 22.5056 51.1055 22.5056 53.8359C22.5056 56.5781 21.2283 58.1484 19.2361 58.1484ZM37.8628 51.9141C37.6402 49.4883 35.7066 47.4492 32.5308 47.4492C29.0269 47.4492 26.73 49.9219 26.73 53.8359C26.73 57.8203 29.0269 60.2344 32.5542 60.2344C35.5191 60.2344 37.6167 58.4531 37.8862 55.8281H35.4487C35.1558 57.2578 34.1362 58.1133 32.5777 58.1133C30.6089 58.1133 29.3081 56.543 29.3081 53.8359C29.3081 51.1875 30.5972 49.5586 32.5542 49.5586C34.2066 49.5586 35.1909 50.6016 35.4487 51.9141H37.8628ZM44.2317 58.207C42.8723 58.207 41.9817 57.5039 41.9817 56.4258C41.9817 55.3711 42.8372 54.7031 44.3489 54.5977L47.3841 54.4102V55.3828C47.3841 56.9883 46.0013 58.207 44.2317 58.207ZM43.5286 60.2109C45.1458 60.2109 46.7044 59.3438 47.4192 57.9727H47.4778V60H49.9036V51.5039C49.9036 49.0312 47.9934 47.4492 45.0052 47.4492C41.9583 47.4492 40.0598 49.0898 39.9192 51.3164H42.3098C42.5325 50.2148 43.4466 49.5117 44.9114 49.5117C46.4583 49.5117 47.3841 50.332 47.3841 51.7031V52.6523L44.0091 52.8516C41.0794 53.0156 39.427 54.3398 39.427 56.4961C39.427 58.7109 41.1145 60.2109 43.5286 60.2109ZM53.3428 44.7539V47.6719H51.5498V49.6758H53.3428V56.7539C53.3428 59.1328 54.3155 60.082 56.8116 60.082C57.3741 60.082 57.9366 60.0352 58.2178 59.9648V57.9609C58.0537 57.9961 57.6436 58.0195 57.3858 58.0195C56.3545 58.0195 55.8858 57.5391 55.8858 56.4727V49.6758H58.2295V47.6719H55.8858V44.7539H53.3428ZM60.6375 60H63.1688V47.6719H60.6375V60ZM61.9031 45.8672C62.7234 45.8672 63.3797 45.2227 63.3797 44.4258C63.3797 43.6172 62.7234 42.9727 61.9031 42.9727C61.0945 42.9727 60.4383 43.6172 60.4383 44.4258C60.4383 45.2227 61.0945 45.8672 61.9031 45.8672ZM71.2955 60.2344C74.8228 60.2344 77.1431 57.8086 77.1431 53.8359C77.1431 49.875 74.8111 47.4492 71.2955 47.4492C67.7798 47.4492 65.4478 49.875 65.4478 53.8359C65.4478 57.8086 67.7681 60.2344 71.2955 60.2344ZM71.2955 58.1484C69.315 58.1484 68.0259 56.5781 68.0259 53.8359C68.0259 51.1055 69.315 49.5352 71.2955 49.5352C73.2759 49.5352 74.565 51.1055 74.565 53.8359C74.565 56.5781 73.2877 58.1484 71.2955 58.1484ZM79.3402 60H81.8714V52.8164C81.8714 50.9062 83.0198 49.6406 84.8011 49.6406C86.5589 49.6406 87.4261 50.6602 87.4261 52.5117V60H89.9691V52.0195C89.9691 49.1953 88.4105 47.4609 85.6917 47.4609C83.7933 47.4609 82.4808 48.3281 81.8128 49.7344H81.7542V47.6719H79.3402V60ZM92.0489 47.625H94.4747C94.5802 46.0781 95.6231 45.1055 97.2403 45.1055C98.8458 45.1055 99.8887 46.0781 99.8887 47.4023C99.8887 48.6094 99.3848 49.2891 97.9669 50.1445C96.3614 51.1055 95.6466 52.1602 95.7052 53.8125L95.7169 54.75H98.1427V54.0352C98.1427 52.8281 98.5762 52.207 100.088 51.3164C101.635 50.3906 102.549 49.1133 102.549 47.2969C102.549 44.7891 100.463 42.9492 97.3692 42.9492C93.9708 42.9492 92.1544 44.9648 92.0489 47.625ZM96.9473 60.1758C97.8262 60.1758 98.4942 59.5195 98.4942 58.6641C98.4942 57.8086 97.8262 57.1523 96.9473 57.1523C96.0919 57.1523 95.4122 57.8086 95.4122 58.6641C95.4122 59.5195 96.0919 60.1758 96.9473 60.1758Z" fill="#111827"/>
<path d="M7.9375 94.7344H2.5V84.7266H1.09375V96H7.9375V94.7344ZM12.4569 88.9141C13.7381 88.9141 14.5897 89.8828 14.6209 91.2422H10.2069C10.2928 89.8906 11.1834 88.9141 12.4569 88.9141ZM14.5897 93.6719C14.3631 94.4375 13.6053 94.9609 12.5741 94.9609C11.1131 94.9609 10.1991 93.9375 10.1991 92.3828V92.3047H16.0272V91.7891C16.0272 89.3281 14.6756 87.7344 12.4803 87.7344C10.2381 87.7344 8.80062 89.4453 8.80062 91.9688C8.80062 94.5234 10.2147 96.1406 12.5428 96.1406C14.3162 96.1406 15.6912 95.0938 15.9256 93.6719H14.5897ZM17.9997 85.9141V87.875H16.7887V88.9922H17.9997V93.8906C17.9997 95.4531 18.5778 96.0625 20.07 96.0625C20.3903 96.0625 20.7653 96.0391 20.9294 96V94.8594C20.8356 94.875 20.5231 94.8984 20.3669 94.8984C19.6716 94.8984 19.3591 94.5625 19.3591 93.8203V88.9922H20.9372V87.875H19.3591V85.9141H17.9997ZM32.6634 87.875H31.3041V92.6484C31.3041 94.0312 30.5072 94.9375 29.1869 94.9375C27.9291 94.9375 27.3119 94.2266 27.3119 92.9062V87.875H25.9525V93.1484C25.9525 94.9922 26.9916 96.1406 28.765 96.1406C30.015 96.1406 30.8587 95.6172 31.3431 94.6797H31.3744V96H32.6634V87.875ZM34.4484 90.1172C34.4484 91.2266 35.1516 91.9609 36.5812 92.3281L38.0109 92.6953C38.925 92.9375 39.2609 93.25 39.2609 93.8281C39.2609 94.5625 38.5812 95.0312 37.4797 95.0312C36.3781 95.0312 35.7375 94.5781 35.5891 93.7344H34.2297C34.3703 95.1719 35.6125 96.1406 37.3937 96.1406C39.2922 96.1406 40.6281 95.1406 40.6281 93.7266C40.6281 92.5312 40.0344 91.9375 38.3937 91.5234L37.1359 91.2188C36.2141 90.9844 35.7844 90.6094 35.7844 90.0469C35.7844 89.3359 36.4406 88.8438 37.4328 88.8438C38.4328 88.8438 39.0656 89.3281 39.1594 90.1094H40.4562C40.3937 88.7344 39.1594 87.7344 37.4797 87.7344C35.6906 87.7344 34.4484 88.7266 34.4484 90.1172ZM47.0731 91.4844V84.7266H45.7137V96H47.0731V92.9375L47.8309 92.2188L50.8466 96H52.4247L48.7919 91.3828L52.3153 87.875H50.6669L47.0731 91.4844ZM53.5691 96H54.9284V91.2188C54.9284 89.8438 55.7644 88.9375 57.0456 88.9375C58.2956 88.9375 58.9128 89.6562 58.9128 90.9688V96H60.2722V90.7266C60.2722 88.8828 59.2409 87.7344 57.4597 87.7344C56.2019 87.7344 55.3347 88.2969 54.8816 89.1719H54.8503V87.875H53.5691V96ZM65.5337 96.1406C67.7759 96.1406 69.2916 94.5234 69.2916 91.9375C69.2916 89.3438 67.7759 87.7344 65.5337 87.7344C63.2837 87.7344 61.7681 89.3438 61.7681 91.9375C61.7681 94.5234 63.2837 96.1406 65.5337 96.1406ZM65.5337 94.9453C64.0962 94.9453 63.1509 93.8516 63.1509 91.9375C63.1509 90.0234 64.0962 88.9297 65.5337 88.9297C66.9712 88.9297 67.9087 90.0234 67.9087 91.9375C67.9087 93.8516 66.9712 94.9453 65.5337 94.9453ZM81.1625 87.875H79.8187L78.1937 94.4844H78.1625L76.3187 87.875H75.0062L73.1703 94.4844H73.1391L71.5141 87.875H70.1625L72.4359 96H73.8187L75.6469 89.7109H75.6781L77.5141 96H78.8969L81.1625 87.875ZM82.4319 98.2422L83.5022 94.2656H82.0569L81.2991 98.2422H82.4319ZM98.7206 87.875H97.3769L95.7519 94.4844H95.7206L93.8769 87.875H92.5644L90.7284 94.4844H90.6972L89.0722 87.875H87.7206L89.9941 96H91.3769L93.205 89.7109H93.2363L95.0722 96H96.455L98.7206 87.875ZM100.068 96H101.427V91.2656C101.427 89.8594 102.263 88.9375 103.615 88.9375C104.888 88.9375 105.537 89.7109 105.537 91V96H106.896V90.75C106.896 88.9375 105.818 87.7344 104.037 87.7344C102.802 87.7344 101.912 88.2656 101.459 89.1719H101.427V84.7266H100.068V96ZM112.041 88.9141C113.322 88.9141 114.173 89.8828 114.205 91.2422H109.791C109.877 89.8906 110.767 88.9141 112.041 88.9141ZM114.173 93.6719C113.947 94.4375 113.189 94.9609 112.158 94.9609C110.697 94.9609 109.783 93.9375 109.783 92.3828V92.3047H115.611V91.7891C115.611 89.3281 114.259 87.7344 112.064 87.7344C109.822 87.7344 108.384 89.4453 108.384 91.9688C108.384 94.5234 109.798 96.1406 112.127 96.1406C113.9 96.1406 115.275 95.0938 115.509 93.6719H114.173ZM117.146 96H118.505V90.9375C118.505 89.7891 119.193 89.0312 120.247 89.0312C120.576 89.0312 120.865 89.0703 120.974 89.1094V87.7891C120.865 87.7734 120.662 87.7344 120.427 87.7344C119.474 87.7344 118.724 88.3047 118.458 89.2031H118.427V87.875H117.146V96ZM125.111 88.9141C126.392 88.9141 127.243 89.8828 127.275 91.2422H122.861C122.947 89.8906 123.837 88.9141 125.111 88.9141ZM127.243 93.6719C127.017 94.4375 126.259 94.9609 125.228 94.9609C123.767 94.9609 122.853 93.9375 122.853 92.3828V92.3047H128.681V91.7891C128.681 89.3281 127.329 87.7344 125.134 87.7344C122.892 87.7344 121.454 89.4453 121.454 91.9688C121.454 94.5234 122.868 96.1406 125.197 96.1406C126.97 96.1406 128.345 95.0938 128.579 93.6719H127.243ZM133.727 96H135.087V87.875H133.727V96ZM134.407 86.5078C134.876 86.5078 135.259 86.125 135.259 85.6641C135.259 85.1953 134.876 84.8203 134.407 84.8203C133.946 84.8203 133.563 85.1953 133.563 85.6641C133.563 86.125 133.946 86.5078 134.407 86.5078ZM136.942 90.1172C136.942 91.2266 137.645 91.9609 139.075 92.3281L140.505 92.6953C141.419 92.9375 141.755 93.25 141.755 93.8281C141.755 94.5625 141.075 95.0312 139.973 95.0312C138.872 95.0312 138.231 94.5781 138.083 93.7344H136.723C136.864 95.1719 138.106 96.1406 139.887 96.1406C141.786 96.1406 143.122 95.1406 143.122 93.7266C143.122 92.5312 142.528 91.9375 140.887 91.5234L139.63 91.2188C138.708 90.9844 138.278 90.6094 138.278 90.0469C138.278 89.3359 138.934 88.8438 139.927 88.8438C140.927 88.8438 141.559 89.3281 141.653 90.1094H142.95C142.887 88.7344 141.653 87.7344 139.973 87.7344C138.184 87.7344 136.942 88.7266 136.942 90.1172ZM148.575 85.9141V87.875H147.364V88.9922H148.575V93.8906C148.575 95.4531 149.153 96.0625 150.645 96.0625C150.965 96.0625 151.34 96.0391 151.504 96V94.8594C151.411 94.875 151.098 94.8984 150.942 94.8984C150.247 94.8984 149.934 94.5625 149.934 93.8203V88.9922H151.512V87.875H149.934V85.9141H148.575ZM153.196 96H154.555V91.2656C154.555 89.8594 155.391 88.9375 156.742 88.9375C158.016 88.9375 158.664 89.7109 158.664 91V96H160.024V90.75C160.024 88.9375 158.946 87.7344 157.164 87.7344C155.93 87.7344 155.039 88.2656 154.586 89.1719H154.555V84.7266H153.196V96ZM165.168 88.9141C166.449 88.9141 167.301 89.8828 167.332 91.2422H162.918C163.004 89.8906 163.895 88.9141 165.168 88.9141ZM167.301 93.6719C167.074 94.4375 166.317 94.9609 165.285 94.9609C163.824 94.9609 162.91 93.9375 162.91 92.3828V92.3047H168.738V91.7891C168.738 89.3281 167.387 87.7344 165.192 87.7344C162.949 87.7344 161.512 89.4453 161.512 91.9688C161.512 94.5234 162.926 96.1406 165.254 96.1406C167.027 96.1406 168.402 95.0938 168.637 93.6719H167.301ZM184.051 87.875H182.707L181.082 94.4844H181.051L179.207 87.875H177.894L176.058 94.4844H176.027L174.402 87.875H173.051L175.324 96H176.707L178.535 89.7109H178.566L180.402 96H181.785L184.051 87.875ZM188.695 96.1406C190.937 96.1406 192.453 94.5234 192.453 91.9375C192.453 89.3438 190.937 87.7344 188.695 87.7344C186.445 87.7344 184.929 89.3438 184.929 91.9375C184.929 94.5234 186.445 96.1406 188.695 96.1406ZM188.695 94.9453C187.258 94.9453 186.312 93.8516 186.312 91.9375C186.312 90.0234 187.258 88.9297 188.695 88.9297C190.133 88.9297 191.07 90.0234 191.07 91.9375C191.07 93.8516 190.133 94.9453 188.695 94.9453ZM193.988 96H195.347V90.9375C195.347 89.7891 196.035 89.0312 197.089 89.0312C197.417 89.0312 197.707 89.0703 197.816 89.1094V87.7891C197.707 87.7734 197.503 87.7344 197.269 87.7344C196.316 87.7344 195.566 88.3047 195.3 89.2031H195.269V87.875H193.988V96ZM200.515 91.4844V84.7266H199.156V96H200.515V92.9375L201.273 92.2188L204.288 96H205.867L202.234 91.3828L205.757 87.875H204.109L200.515 91.4844ZM210.523 96H211.882V84.7266H210.523V96ZM217.245 96.1406C219.487 96.1406 221.003 94.5234 221.003 91.9375C221.003 89.3438 219.487 87.7344 217.245 87.7344C214.995 87.7344 213.479 89.3438 213.479 91.9375C213.479 94.5234 214.995 96.1406 217.245 96.1406ZM217.245 94.9453C215.807 94.9453 214.862 93.8516 214.862 91.9375C214.862 90.0234 215.807 88.9297 217.245 88.9297C218.682 88.9297 219.62 90.0234 219.62 91.9375C219.62 93.8516 218.682 94.9453 217.245 94.9453ZM229.288 90.5391C229.116 89.0781 227.905 87.7344 225.874 87.7344C223.632 87.7344 222.139 89.375 222.139 91.9375C222.139 94.5547 223.639 96.1406 225.889 96.1406C227.733 96.1406 229.092 95 229.303 93.3828H227.967C227.733 94.3594 227.007 94.9453 225.897 94.9453C224.491 94.9453 223.522 93.8281 223.522 91.9375C223.522 90.0938 224.475 88.9297 225.882 88.9297C227.077 88.9297 227.764 89.6562 227.96 90.5391H229.288ZM233.393 94.9844C232.417 94.9844 231.768 94.4766 231.768 93.7031C231.768 92.9375 232.393 92.4531 233.487 92.3828L235.659 92.25V92.9141C235.659 94.0859 234.674 94.9844 233.393 94.9844ZM233.088 96.1406C234.182 96.1406 235.213 95.5312 235.698 94.6016H235.729V96H237.018V90.3828C237.018 88.7656 235.815 87.7344 233.909 87.7344C231.987 87.7344 230.784 88.8125 230.69 90.2188H232.003C232.174 89.4219 232.831 88.9297 233.878 88.9297C235.003 88.9297 235.659 89.5234 235.659 90.5156V91.1953L233.331 91.3281C231.456 91.4375 230.385 92.3125 230.385 93.7031C230.385 95.1641 231.471 96.1406 233.088 96.1406ZM239.342 85.9141V87.875H238.131V88.9922H239.342V93.8906C239.342 95.4531 239.92 96.0625 241.413 96.0625C241.733 96.0625 242.108 96.0391 242.272 96V94.8594C242.178 94.875 241.866 94.8984 241.709 94.8984C241.014 94.8984 240.702 94.5625 240.702 93.8203V88.9922H242.28V87.875H240.702V85.9141H239.342ZM243.963 96H245.322V87.875H243.963V96ZM244.643 86.5078C245.112 86.5078 245.494 86.125 245.494 85.6641C245.494 85.1953 245.112 84.8203 244.643 84.8203C244.182 84.8203 243.799 85.1953 243.799 85.6641C243.799 86.125 244.182 86.5078 244.643 86.5078ZM250.686 96.1406C252.928 96.1406 254.443 94.5234 254.443 91.9375C254.443 89.3438 252.928 87.7344 250.686 87.7344C248.436 87.7344 246.92 89.3438 246.92 91.9375C246.92 94.5234 248.436 96.1406 250.686 96.1406ZM250.686 94.9453C249.248 94.9453 248.303 93.8516 248.303 91.9375C248.303 90.0234 249.248 88.9297 250.686 88.9297C252.123 88.9297 253.061 90.0234 253.061 91.9375C253.061 93.8516 252.123 94.9453 250.686 94.9453ZM255.978 96H257.338V91.2188C257.338 89.8438 258.174 88.9375 259.455 88.9375C260.705 88.9375 261.322 89.6562 261.322 90.9688V96H262.682V90.7266C262.682 88.8828 261.65 87.7344 259.869 87.7344C258.611 87.7344 257.744 88.2969 257.291 89.1719H257.26V87.875H255.978V96ZM268.689 99.0391C270.158 99.0391 270.83 98.4688 271.525 96.5703L274.72 87.875H273.291L271.041 94.6406H271.017L268.767 87.875H267.314L270.314 96.0078L270.127 96.5781C269.814 97.5234 269.392 97.8906 268.634 97.8906C268.462 97.8906 268.252 97.8828 268.103 97.8516V98.9922C268.252 99.0234 268.525 99.0391 268.689 99.0391ZM279.091 96.1406C281.333 96.1406 282.849 94.5234 282.849 91.9375C282.849 89.3438 281.333 87.7344 279.091 87.7344C276.841 87.7344 275.326 89.3438 275.326 91.9375C275.326 94.5234 276.841 96.1406 279.091 96.1406ZM279.091 94.9453C277.654 94.9453 276.708 93.8516 276.708 91.9375C276.708 90.0234 277.654 88.9297 279.091 88.9297C280.529 88.9297 281.466 90.0234 281.466 91.9375C281.466 93.8516 280.529 94.9453 279.091 94.9453ZM291.056 87.875H289.697V92.6484C289.697 94.0312 288.9 94.9375 287.579 94.9375C286.322 94.9375 285.704 94.2266 285.704 92.9062V87.875H284.345V93.1484C284.345 94.9922 285.384 96.1406 287.158 96.1406C288.408 96.1406 289.251 95.6172 289.736 94.6797H289.767V96H291.056V87.875ZM11.2188 108.875H9.875L8.25 115.484H8.21875L6.375 108.875H5.0625L3.22656 115.484H3.19531L1.57031 108.875H0.21875L2.49219 117H3.875L5.70312 110.711H5.73438L7.57031 117H8.95312L11.2188 108.875ZM15.0194 115.984C14.0428 115.984 13.3944 115.477 13.3944 114.703C13.3944 113.938 14.0194 113.453 15.1131 113.383L17.285 113.25V113.914C17.285 115.086 16.3006 115.984 15.0194 115.984ZM14.7147 117.141C15.8084 117.141 16.8397 116.531 17.3241 115.602H17.3553V117H18.6444V111.383C18.6444 109.766 17.4412 108.734 15.535 108.734C13.6131 108.734 12.41 109.812 12.3162 111.219H13.6287C13.8006 110.422 14.4569 109.93 15.5037 109.93C16.6287 109.93 17.285 110.523 17.285 111.516V112.195L14.9569 112.328C13.0819 112.438 12.0116 113.312 12.0116 114.703C12.0116 116.164 13.0975 117.141 14.7147 117.141ZM20.5309 117H21.8903V112.219C21.8903 110.844 22.7262 109.938 24.0075 109.938C25.2575 109.938 25.8747 110.656 25.8747 111.969V117H27.2341V111.727C27.2341 109.883 26.2028 108.734 24.4216 108.734C23.1637 108.734 22.2966 109.297 21.8434 110.172H21.8122V108.875H20.5309V117ZM29.5659 106.914V108.875H28.355V109.992H29.5659V114.891C29.5659 116.453 30.1441 117.062 31.6362 117.062C31.9566 117.062 32.3316 117.039 32.4956 117V115.859C32.4019 115.875 32.0894 115.898 31.9331 115.898C31.2378 115.898 30.9253 115.562 30.9253 114.82V109.992H32.5034V108.875H30.9253V106.914H29.5659ZM40.2375 115.984C39.2609 115.984 38.6125 115.477 38.6125 114.703C38.6125 113.938 39.2375 113.453 40.3312 113.383L42.5031 113.25V113.914C42.5031 115.086 41.5187 115.984 40.2375 115.984ZM39.9328 117.141C41.0266 117.141 42.0578 116.531 42.5422 115.602H42.5734V117H43.8625V111.383C43.8625 109.766 42.6594 108.734 40.7531 108.734C38.8312 108.734 37.6281 109.812 37.5344 111.219H38.8469C39.0187 110.422 39.675 109.93 40.7219 109.93C41.8469 109.93 42.5031 110.523 42.5031 111.516V112.195L40.175 112.328C38.3 112.438 37.2297 113.312 37.2297 114.703C37.2297 116.164 38.3156 117.141 39.9328 117.141ZM46.1866 106.914V108.875H44.9756V109.992H46.1866V114.891C46.1866 116.453 46.7647 117.062 48.2569 117.062C48.5772 117.062 48.9522 117.039 49.1162 117V115.859C49.0225 115.875 48.71 115.898 48.5537 115.898C47.8584 115.898 47.5459 115.562 47.5459 114.82V109.992H49.1241V108.875H47.5459V106.914H46.1866ZM54.6159 106.914V108.875H53.405V109.992H54.6159V114.891C54.6159 116.453 55.1941 117.062 56.6862 117.062C57.0066 117.062 57.3816 117.039 57.5456 117V115.859C57.4519 115.875 57.1394 115.898 56.9831 115.898C56.2878 115.898 55.9753 115.562 55.9753 114.82V109.992H57.5534V108.875H55.9753V106.914H54.6159ZM59.2369 117H60.5962V112.266C60.5962 110.859 61.4322 109.938 62.7837 109.938C64.0572 109.938 64.7056 110.711 64.7056 112V117H66.065V111.75C66.065 109.938 64.9869 108.734 63.2056 108.734C61.9712 108.734 61.0806 109.266 60.6275 110.172H60.5962V105.727H59.2369V117ZM68.0219 117H69.3812V108.875H68.0219V117ZM68.7016 107.508C69.1703 107.508 69.5531 107.125 69.5531 106.664C69.5531 106.195 69.1703 105.82 68.7016 105.82C68.2406 105.82 67.8578 106.195 67.8578 106.664C67.8578 107.125 68.2406 107.508 68.7016 107.508ZM71.2366 111.117C71.2366 112.227 71.9397 112.961 73.3694 113.328L74.7991 113.695C75.7131 113.938 76.0491 114.25 76.0491 114.828C76.0491 115.562 75.3694 116.031 74.2678 116.031C73.1663 116.031 72.5256 115.578 72.3772 114.734H71.0178C71.1584 116.172 72.4006 117.141 74.1819 117.141C76.0803 117.141 77.4163 116.141 77.4163 114.727C77.4163 113.531 76.8225 112.938 75.1819 112.523L73.9241 112.219C73.0022 111.984 72.5725 111.609 72.5725 111.047C72.5725 110.336 73.2288 109.844 74.2209 109.844C75.2209 109.844 75.8538 110.328 75.9475 111.109H77.2444C77.1819 109.734 75.9475 108.734 74.2678 108.734C72.4788 108.734 71.2366 109.727 71.2366 111.117ZM82.8691 106.914V108.875H81.6581V109.992H82.8691V114.891C82.8691 116.453 83.4472 117.062 84.9394 117.062C85.2597 117.062 85.6347 117.039 85.7988 117V115.859C85.705 115.875 85.3925 115.898 85.2363 115.898C84.5409 115.898 84.2284 115.562 84.2284 114.82V109.992H85.8066V108.875H84.2284V106.914H82.8691ZM87.49 117H88.8494V108.875H87.49V117ZM88.1697 107.508C88.6384 107.508 89.0212 107.125 89.0212 106.664C89.0212 106.195 88.6384 105.82 88.1697 105.82C87.7087 105.82 87.3259 106.195 87.3259 106.664C87.3259 107.125 87.7087 107.508 88.1697 107.508ZM90.8453 117H92.2047V111.906C92.2047 110.781 92.9859 109.938 94.0641 109.938C95.0719 109.938 95.7281 110.578 95.7281 111.555V117H97.0875V111.836C97.0875 110.734 97.8453 109.938 98.9234 109.938C99.9938 109.938 100.611 110.594 100.611 111.703V117H101.97V111.391C101.97 109.781 100.931 108.734 99.3219 108.734C98.1813 108.734 97.2281 109.312 96.775 110.281H96.7438C96.3922 109.297 95.5719 108.734 94.4625 108.734C93.3688 108.734 92.5406 109.312 92.1578 110.172H92.1266V108.875H90.8453V117ZM107.122 109.914C108.404 109.914 109.255 110.883 109.287 112.242H104.872C104.958 110.891 105.849 109.914 107.122 109.914ZM109.255 114.672C109.029 115.438 108.271 115.961 107.24 115.961C105.779 115.961 104.865 114.938 104.865 113.383V113.305H110.693V112.789C110.693 110.328 109.341 108.734 107.146 108.734C104.904 108.734 103.466 110.445 103.466 112.969C103.466 115.523 104.88 117.141 107.208 117.141C108.982 117.141 110.357 116.094 110.591 114.672H109.255ZM113.158 119.242L114.228 115.266H112.783L112.025 119.242H113.158ZM118.97 111.117C118.97 112.227 119.673 112.961 121.103 113.328L122.532 113.695C123.446 113.938 123.782 114.25 123.782 114.828C123.782 115.562 123.103 116.031 122.001 116.031C120.899 116.031 120.259 115.578 120.11 114.734H118.751C118.892 116.172 120.134 117.141 121.915 117.141C123.813 117.141 125.149 116.141 125.149 114.727C125.149 113.531 124.556 112.938 122.915 112.523L121.657 112.219C120.735 111.984 120.306 111.609 120.306 111.047C120.306 110.336 120.962 109.844 121.954 109.844C122.954 109.844 123.587 110.328 123.681 111.109H124.978C124.915 109.734 123.681 108.734 122.001 108.734C120.212 108.734 118.97 109.727 118.97 111.117ZM130.091 117.141C132.333 117.141 133.848 115.523 133.848 112.938C133.848 110.344 132.333 108.734 130.091 108.734C127.841 108.734 126.325 110.344 126.325 112.938C126.325 115.523 127.841 117.141 130.091 117.141ZM130.091 115.945C128.653 115.945 127.708 114.852 127.708 112.938C127.708 111.023 128.653 109.93 130.091 109.93C131.528 109.93 132.466 111.023 132.466 112.938C132.466 114.852 131.528 115.945 130.091 115.945ZM149.161 108.875H147.817L146.192 115.484H146.161L144.317 108.875H143.004L141.168 115.484H141.137L139.512 108.875H138.161L140.434 117H141.817L143.645 110.711H143.676L145.512 117H146.895L149.161 108.875ZM153.696 109.914C154.977 109.914 155.828 110.883 155.86 112.242H151.446C151.532 110.891 152.422 109.914 153.696 109.914ZM155.828 114.672C155.602 115.438 154.844 115.961 153.813 115.961C152.352 115.961 151.438 114.938 151.438 113.383V113.305H157.266V112.789C157.266 110.328 155.914 108.734 153.719 108.734C151.477 108.734 150.039 110.445 150.039 112.969C150.039 115.523 151.453 117.141 153.782 117.141C155.555 117.141 156.93 116.094 157.164 114.672H155.828ZM168.992 111.539C168.82 110.078 167.609 108.734 165.578 108.734C163.336 108.734 161.844 110.375 161.844 112.938C161.844 115.555 163.344 117.141 165.594 117.141C167.438 117.141 168.797 116 169.008 114.383H167.672C167.438 115.359 166.711 115.945 165.602 115.945C164.195 115.945 163.227 114.828 163.227 112.938C163.227 111.094 164.18 109.93 165.586 109.93C166.781 109.93 167.469 110.656 167.664 111.539H168.992ZM173.098 115.984C172.121 115.984 171.473 115.477 171.473 114.703C171.473 113.938 172.098 113.453 173.191 113.383L175.363 113.25V113.914C175.363 115.086 174.379 115.984 173.098 115.984ZM172.793 117.141C173.887 117.141 174.918 116.531 175.402 115.602H175.433V117H176.723V111.383C176.723 109.766 175.519 108.734 173.613 108.734C171.691 108.734 170.488 109.812 170.394 111.219H171.707C171.879 110.422 172.535 109.93 173.582 109.93C174.707 109.93 175.363 110.523 175.363 111.516V112.195L173.035 112.328C171.16 112.438 170.09 113.312 170.09 114.703C170.09 116.164 171.176 117.141 172.793 117.141ZM178.609 117H179.968V112.219C179.968 110.844 180.804 109.938 182.086 109.938C183.336 109.938 183.953 110.656 183.953 111.969V117H185.312V111.727C185.312 109.883 184.281 108.734 182.5 108.734C181.242 108.734 180.375 109.297 179.922 110.172H179.89V108.875H178.609V117ZM193.327 115.984C192.351 115.984 191.702 115.477 191.702 114.703C191.702 113.938 192.327 113.453 193.421 113.383L195.593 113.25V113.914C195.593 115.086 194.609 115.984 193.327 115.984ZM193.023 117.141C194.117 117.141 195.148 116.531 195.632 115.602H195.663V117H196.952V111.383C196.952 109.766 195.749 108.734 193.843 108.734C191.921 108.734 190.718 109.812 190.624 111.219H191.937C192.109 110.422 192.765 109.93 193.812 109.93C194.937 109.93 195.593 110.523 195.593 111.516V112.195L193.265 112.328C191.39 112.438 190.32 113.312 190.32 114.703C190.32 116.164 191.406 117.141 193.023 117.141ZM201.917 117.141C203.089 117.141 204.019 116.562 204.542 115.625H204.566V117H205.863V105.727H204.503V110.195H204.472C203.988 109.305 203.05 108.734 201.886 108.734C199.839 108.734 198.441 110.391 198.441 112.938C198.441 115.484 199.847 117.141 201.917 117.141ZM202.175 109.93C203.573 109.93 204.511 111.125 204.511 112.938C204.511 114.758 203.573 115.945 202.175 115.945C200.738 115.945 199.831 114.781 199.831 112.938C199.831 111.102 200.738 109.93 202.175 109.93ZM209.288 108.875H207.929V117.414C207.929 118.32 207.608 118.656 206.726 118.656C206.718 118.656 206.53 118.656 206.515 118.656V119.789C206.53 119.797 206.749 119.797 206.773 119.797C208.507 119.797 209.288 119.047 209.288 117.398V108.875ZM208.608 107.508C209.077 107.508 209.46 107.125 209.46 106.664C209.46 106.195 209.077 105.82 208.608 105.82C208.148 105.82 207.765 106.195 207.765 106.664C207.765 107.125 208.148 107.508 208.608 107.508ZM217.956 108.875H216.597V113.648C216.597 115.031 215.8 115.938 214.479 115.938C213.222 115.938 212.604 115.227 212.604 113.906V108.875H211.245V114.148C211.245 115.992 212.284 117.141 214.057 117.141C215.307 117.141 216.151 116.617 216.636 115.68H216.667V117H217.956V108.875ZM219.741 111.117C219.741 112.227 220.444 112.961 221.874 113.328L223.303 113.695C224.217 113.938 224.553 114.25 224.553 114.828C224.553 115.562 223.874 116.031 222.772 116.031C221.671 116.031 221.03 115.578 220.882 114.734H219.522C219.663 116.172 220.905 117.141 222.686 117.141C224.585 117.141 225.921 116.141 225.921 114.727C225.921 113.531 225.327 112.938 223.686 112.523L222.428 112.219C221.507 111.984 221.077 111.609 221.077 111.047C221.077 110.336 221.733 109.844 222.725 109.844C223.725 109.844 224.358 110.328 224.452 111.109H225.749C225.686 109.734 224.452 108.734 222.772 108.734C220.983 108.734 219.741 109.727 219.741 111.117ZM227.932 106.914V108.875H226.721V109.992H227.932V114.891C227.932 116.453 228.51 117.062 230.003 117.062C230.323 117.062 230.698 117.039 230.862 117V115.859C230.768 115.875 230.456 115.898 230.299 115.898C229.604 115.898 229.292 115.562 229.292 114.82V109.992H230.87V108.875H229.292V106.914H227.932ZM235.994 117H237.354V108.875H235.994V117ZM236.674 107.508C237.143 107.508 237.526 107.125 237.526 106.664C237.526 106.195 237.143 105.82 236.674 105.82C236.213 105.82 235.83 106.195 235.83 106.664C235.83 107.125 236.213 107.508 236.674 107.508ZM239.787 106.914V108.875H238.576V109.992H239.787V114.891C239.787 116.453 240.365 117.062 241.857 117.062C242.178 117.062 242.553 117.039 242.717 117V115.859C242.623 115.875 242.311 115.898 242.154 115.898C241.459 115.898 241.147 115.562 241.147 114.82V109.992H242.725V108.875H241.147V106.914H239.787ZM245.486 117.078C245.986 117.078 246.377 116.688 246.377 116.188C246.377 115.688 245.986 115.297 245.486 115.297C244.986 115.297 244.596 115.688 244.596 116.188C244.596 116.688 244.986 117.078 245.486 117.078Z" fill="#737379"/>
</svg>
