<svg width="327" height="68" viewBox="0 0 327 68" fill="none" xmlns="http://www.w3.org/2000/svg">
<path d="M10.1445 29.3281C14.6836 29.3281 17.7734 26.9355 18.5254 22.8613H15.4766C14.8613 25.2402 12.9062 26.6484 10.1582 26.6484C6.53516 26.6484 4.23828 23.7363 4.23828 19.1289C4.23828 14.5625 6.5625 11.623 10.1445 11.623C12.8242 11.623 14.9297 13.2773 15.4766 15.8066H18.5117C17.9922 11.6914 14.6152 8.94336 10.1445 8.94336C4.63477 8.94336 1.10742 12.8809 1.10742 19.1289C1.10742 25.418 4.60742 29.3281 10.1445 29.3281ZM27.2273 16.7363C29.2917 16.7363 30.6863 18.2812 30.7546 20.4824H23.5632C23.7136 18.3086 25.1628 16.7363 27.2273 16.7363ZM30.7409 24.7754C30.3445 26.0332 29.1003 26.8809 27.4187 26.8809C25.0534 26.8809 23.5495 25.2266 23.5495 22.7246V22.5469H33.7077V21.5352C33.7077 17.1738 31.2195 14.3574 27.2273 14.3574C23.1667 14.3574 20.5691 17.3652 20.5691 21.877C20.5691 26.416 23.1257 29.2734 27.3503 29.2734C30.6452 29.2734 33.1335 27.4004 33.5437 24.7754H30.7409ZM36.2846 29H39.2377V20.3867C39.2377 18.3496 40.4135 17.0781 42.3139 17.0781C42.8881 17.0781 43.4077 17.1465 43.6401 17.2422V14.4941C43.4213 14.4531 43.0522 14.3848 42.6284 14.3848C40.933 14.3848 39.6479 15.3828 39.1694 17.0645H39.101V14.6172H36.2846V29ZM51.1388 16.7363C53.2033 16.7363 54.5978 18.2812 54.6662 20.4824H47.4748C47.6252 18.3086 49.0744 16.7363 51.1388 16.7363ZM54.6525 24.7754C54.256 26.0332 53.0119 26.8809 51.3302 26.8809C48.965 26.8809 47.4611 25.2266 47.4611 22.7246V22.5469H57.6193V21.5352C57.6193 17.1738 55.131 14.3574 51.1388 14.3574C47.0783 14.3574 44.4806 17.3652 44.4806 21.877C44.4806 26.416 47.0373 29.2734 51.2619 29.2734C54.5568 29.2734 57.0451 27.4004 57.4552 24.7754H54.6525ZM65.2274 26.9082C63.6415 26.9082 62.6024 26.0879 62.6024 24.8301C62.6024 23.5996 63.6005 22.8203 65.3641 22.6973L68.9052 22.4785V23.6133C68.9052 25.4863 67.2919 26.9082 65.2274 26.9082ZM64.4071 29.2461C66.2938 29.2461 68.1122 28.2344 68.9462 26.6348H69.0145V29H71.8446V19.0879C71.8446 16.2031 69.6161 14.3574 66.1298 14.3574C62.5751 14.3574 60.3602 16.2715 60.1962 18.8691H62.9852C63.245 17.584 64.3114 16.7637 66.0204 16.7637C67.8251 16.7637 68.9052 17.7207 68.9052 19.3203V20.4277L64.9677 20.6602C61.5497 20.8516 59.622 22.3965 59.622 24.9121C59.622 27.4961 61.5907 29.2461 64.4071 29.2461ZM75.857 11.2129V14.6172H73.7652V16.9551H75.857V25.2129C75.857 27.9883 76.9918 29.0957 79.9039 29.0957C80.5602 29.0957 81.2164 29.041 81.5445 28.959V26.6211C81.3531 26.6621 80.8746 26.6895 80.5738 26.6895C79.3707 26.6895 78.8238 26.1289 78.8238 24.8848V16.9551H81.5582V14.6172H78.8238V11.2129H75.857ZM89.932 16.7363C91.9964 16.7363 93.3909 18.2812 93.4593 20.4824H86.2679C86.4183 18.3086 87.8675 16.7363 89.932 16.7363ZM93.4456 24.7754C93.0491 26.0332 91.805 26.8809 90.1234 26.8809C87.7581 26.8809 86.2542 25.2266 86.2542 22.7246V22.5469H96.4124V21.5352C96.4124 17.1738 93.9241 14.3574 89.932 14.3574C85.8714 14.3574 83.2738 17.3652 83.2738 21.877C83.2738 26.416 85.8304 29.2734 90.055 29.2734C93.3499 29.2734 95.8382 27.4004 96.2484 24.7754H93.4456ZM118.164 29H121.404L114.281 9.27148H110.972L103.849 29H107.035L108.84 23.668H116.359L118.164 29ZM112.558 12.5527H112.64L115.58 21.207H109.619L112.558 12.5527ZM135.465 19.5664C135.206 16.7363 132.95 14.3574 129.245 14.3574C125.157 14.3574 122.477 17.2422 122.477 21.8086C122.477 26.457 125.157 29.2734 129.272 29.2734C132.731 29.2734 135.178 27.1953 135.493 24.1328H132.649C132.307 25.8008 131.118 26.7988 129.299 26.7988C127.002 26.7988 125.485 24.9668 125.485 21.8086C125.485 18.7188 126.989 16.8184 129.272 16.8184C131.2 16.8184 132.348 18.0352 132.649 19.5664H135.465ZM150.21 19.5664C149.95 16.7363 147.695 14.3574 143.989 14.3574C139.902 14.3574 137.222 17.2422 137.222 21.8086C137.222 26.457 139.902 29.2734 144.017 29.2734C147.476 29.2734 149.923 27.1953 150.238 24.1328H147.394C147.052 25.8008 145.863 26.7988 144.044 26.7988C141.747 26.7988 140.23 24.9668 140.23 21.8086C140.23 18.7188 141.734 16.8184 144.017 16.8184C145.945 16.8184 147.093 18.0352 147.394 19.5664H150.21ZM158.789 29.2734C162.904 29.2734 165.611 26.4434 165.611 21.8086C165.611 17.1875 162.891 14.3574 158.789 14.3574C154.687 14.3574 151.967 17.1875 151.967 21.8086C151.967 26.4434 154.674 29.2734 158.789 29.2734ZM158.789 26.8398C156.478 26.8398 154.975 25.0078 154.975 21.8086C154.975 18.623 156.478 16.791 158.789 16.791C161.1 16.791 162.603 18.623 162.603 21.8086C162.603 25.0078 161.113 26.8398 158.789 26.8398ZM180.506 14.6172H177.553V22.998C177.553 25.2402 176.268 26.7168 174.135 26.7168C172.098 26.7168 171.059 25.541 171.059 23.3535V14.6172H168.106V23.9277C168.106 27.2227 170.02 29.2598 173.151 29.2598C175.352 29.2598 176.815 28.2891 177.608 26.5664H177.676V29H180.506V14.6172ZM183.712 29H186.665V20.6191C186.665 18.3906 188.005 16.9141 190.083 16.9141C192.134 16.9141 193.146 18.1035 193.146 20.2637V29H196.113V19.6895C196.113 16.3945 194.294 14.3711 191.122 14.3711C188.908 14.3711 187.376 15.3828 186.597 17.0234H186.529V14.6172H183.712V29ZM200.111 11.2129V14.6172H198.02V16.9551H200.111V25.2129C200.111 27.9883 201.246 29.0957 204.158 29.0957C204.815 29.0957 205.471 29.041 205.799 28.959V26.6211C205.607 26.6621 205.129 26.6895 204.828 26.6895C203.625 26.6895 203.078 26.1289 203.078 24.8848V16.9551H205.813V14.6172H203.078V11.2129H200.111Z" fill="#111827"/>
<path d="M1.09375 51.7266V63H2.5V58.9766H5.10156C7.21875 58.9766 8.72656 57.4844 8.72656 55.3438C8.72656 53.2109 7.23438 51.7266 5.11719 51.7266H1.09375ZM2.5 52.9766H4.75C6.36719 52.9766 7.28125 53.8516 7.28125 55.3438C7.28125 56.8438 6.35938 57.7266 4.75 57.7266H2.5V52.9766ZM10.3631 63H11.7225V51.7266H10.3631V63ZM16.9762 55.9141C18.2575 55.9141 19.1091 56.8828 19.1403 58.2422H14.7262C14.8122 56.8906 15.7028 55.9141 16.9762 55.9141ZM19.1091 60.6719C18.8825 61.4375 18.1247 61.9609 17.0934 61.9609C15.6325 61.9609 14.7184 60.9375 14.7184 59.3828V59.3047H20.5466V58.7891C20.5466 56.3281 19.195 54.7344 16.9997 54.7344C14.7575 54.7344 13.32 56.4453 13.32 58.9688C13.32 61.5234 14.7341 63.1406 17.0622 63.1406C18.8356 63.1406 20.2106 62.0938 20.445 60.6719H19.1091ZM24.7612 61.9844C23.7847 61.9844 23.1362 61.4766 23.1362 60.7031C23.1362 59.9375 23.7612 59.4531 24.855 59.3828L27.0269 59.25V59.9141C27.0269 61.0859 26.0425 61.9844 24.7612 61.9844ZM24.4566 63.1406C25.5503 63.1406 26.5816 62.5312 27.0659 61.6016H27.0972V63H28.3862V57.3828C28.3862 55.7656 27.1831 54.7344 25.2769 54.7344C23.355 54.7344 22.1519 55.8125 22.0581 57.2188H23.3706C23.5425 56.4219 24.1987 55.9297 25.2456 55.9297C26.3706 55.9297 27.0269 56.5234 27.0269 57.5156V58.1953L24.6987 58.3281C22.8237 58.4375 21.7534 59.3125 21.7534 60.7031C21.7534 62.1641 22.8394 63.1406 24.4566 63.1406ZM30.1322 57.1172C30.1322 58.2266 30.8353 58.9609 32.265 59.3281L33.6947 59.6953C34.6087 59.9375 34.9447 60.25 34.9447 60.8281C34.9447 61.5625 34.265 62.0312 33.1634 62.0312C32.0619 62.0312 31.4212 61.5781 31.2728 60.7344H29.9134C30.0541 62.1719 31.2962 63.1406 33.0775 63.1406C34.9759 63.1406 36.3119 62.1406 36.3119 60.7266C36.3119 59.5312 35.7181 58.9375 34.0775 58.5234L32.8197 58.2188C31.8978 57.9844 31.4681 57.6094 31.4681 57.0469C31.4681 56.3359 32.1244 55.8438 33.1166 55.8438C34.1166 55.8438 34.7494 56.3281 34.8431 57.1094H36.14C36.0775 55.7344 34.8431 54.7344 33.1634 54.7344C31.3744 54.7344 30.1322 55.7266 30.1322 57.1172ZM41.1437 55.9141C42.425 55.9141 43.2766 56.8828 43.3078 58.2422H38.8937C38.9797 56.8906 39.8703 55.9141 41.1437 55.9141ZM43.2766 60.6719C43.05 61.4375 42.2922 61.9609 41.2609 61.9609C39.8 61.9609 38.8859 60.9375 38.8859 59.3828V59.3047H44.7141V58.7891C44.7141 56.3281 43.3625 54.7344 41.1672 54.7344C38.925 54.7344 37.4875 56.4453 37.4875 58.9688C37.4875 61.5234 38.9016 63.1406 41.2297 63.1406C43.0031 63.1406 44.3781 62.0938 44.6125 60.6719H43.2766ZM56.4403 57.5391C56.2684 56.0781 55.0575 54.7344 53.0262 54.7344C50.7841 54.7344 49.2919 56.375 49.2919 58.9375C49.2919 61.5547 50.7919 63.1406 53.0419 63.1406C54.8856 63.1406 56.245 62 56.4559 60.3828H55.12C54.8856 61.3594 54.1591 61.9453 53.0497 61.9453C51.6434 61.9453 50.6747 60.8281 50.6747 58.9375C50.6747 57.0938 51.6278 55.9297 53.0341 55.9297C54.2294 55.9297 54.9169 56.6562 55.1122 57.5391H56.4403ZM57.8659 63H59.2253V57.9375C59.2253 56.7891 59.9128 56.0312 60.9675 56.0312C61.2956 56.0312 61.5847 56.0703 61.6941 56.1094V54.7891C61.5847 54.7734 61.3816 54.7344 61.1472 54.7344C60.1941 54.7344 59.4441 55.3047 59.1784 56.2031H59.1472V54.875H57.8659V63ZM65.8306 55.9141C67.1119 55.9141 67.9634 56.8828 67.9947 58.2422H63.5806C63.6666 56.8906 64.5572 55.9141 65.8306 55.9141ZM67.9634 60.6719C67.7369 61.4375 66.9791 61.9609 65.9478 61.9609C64.4869 61.9609 63.5728 60.9375 63.5728 59.3828V59.3047H69.4009V58.7891C69.4009 56.3281 68.0494 54.7344 65.8541 54.7344C63.6119 54.7344 62.1744 56.4453 62.1744 58.9688C62.1744 61.5234 63.5884 63.1406 65.9166 63.1406C67.69 63.1406 69.065 62.0938 69.2994 60.6719H67.9634ZM73.6156 61.9844C72.6391 61.9844 71.9906 61.4766 71.9906 60.7031C71.9906 59.9375 72.6156 59.4531 73.7094 59.3828L75.8812 59.25V59.9141C75.8812 61.0859 74.8969 61.9844 73.6156 61.9844ZM73.3109 63.1406C74.4047 63.1406 75.4359 62.5312 75.9203 61.6016H75.9516V63H77.2406V57.3828C77.2406 55.7656 76.0375 54.7344 74.1312 54.7344C72.2094 54.7344 71.0062 55.8125 70.9125 57.2188H72.225C72.3969 56.4219 73.0531 55.9297 74.1 55.9297C75.225 55.9297 75.8812 56.5234 75.8812 57.5156V58.1953L73.5531 58.3281C71.6781 58.4375 70.6078 59.3125 70.6078 60.7031C70.6078 62.1641 71.6937 63.1406 73.3109 63.1406ZM79.5647 52.9141V54.875H78.3538V55.9922H79.5647V60.8906C79.5647 62.4531 80.1428 63.0625 81.635 63.0625C81.9553 63.0625 82.3303 63.0391 82.4944 63V61.8594C82.4006 61.875 82.0881 61.8984 81.9319 61.8984C81.2366 61.8984 80.9241 61.5625 80.9241 60.8203V55.9922H82.5022V54.875H80.9241V52.9141H79.5647ZM87.1387 55.9141C88.42 55.9141 89.2716 56.8828 89.3028 58.2422H84.8887C84.9747 56.8906 85.8653 55.9141 87.1387 55.9141ZM89.2716 60.6719C89.045 61.4375 88.2872 61.9609 87.2559 61.9609C85.795 61.9609 84.8809 60.9375 84.8809 59.3828V59.3047H90.7091V58.7891C90.7091 56.3281 89.3575 54.7344 87.1622 54.7344C84.92 54.7344 83.4825 56.4453 83.4825 58.9688C83.4825 61.5234 84.8966 63.1406 87.2247 63.1406C88.9981 63.1406 90.3731 62.0938 90.6075 60.6719H89.2716ZM98.365 61.9844C97.3884 61.9844 96.74 61.4766 96.74 60.7031C96.74 59.9375 97.365 59.4531 98.4587 59.3828L100.631 59.25V59.9141C100.631 61.0859 99.6462 61.9844 98.365 61.9844ZM98.0603 63.1406C99.1541 63.1406 100.185 62.5312 100.67 61.6016H100.701V63H101.99V57.3828C101.99 55.7656 100.787 54.7344 98.8806 54.7344C96.9587 54.7344 95.7556 55.8125 95.6619 57.2188H96.9744C97.1462 56.4219 97.8025 55.9297 98.8494 55.9297C99.9744 55.9297 100.631 56.5234 100.631 57.5156V58.1953L98.3025 58.3281C96.4275 58.4375 95.3572 59.3125 95.3572 60.7031C95.3572 62.1641 96.4431 63.1406 98.0603 63.1406ZM103.877 63H105.236V58.2188C105.236 56.8438 106.072 55.9375 107.353 55.9375C108.603 55.9375 109.22 56.6562 109.22 57.9688V63H110.58V57.7266C110.58 55.8828 109.548 54.7344 107.767 54.7344C106.509 54.7344 105.642 55.2969 105.189 56.1719H105.158V54.875H103.877V63ZM118.595 61.9844C117.618 61.9844 116.97 61.4766 116.97 60.7031C116.97 59.9375 117.595 59.4531 118.689 59.3828L120.861 59.25V59.9141C120.861 61.0859 119.876 61.9844 118.595 61.9844ZM118.29 63.1406C119.384 63.1406 120.415 62.5312 120.9 61.6016H120.931V63H122.22V57.3828C122.22 55.7656 121.017 54.7344 119.111 54.7344C117.189 54.7344 115.986 55.8125 115.892 57.2188H117.204C117.376 56.4219 118.033 55.9297 119.079 55.9297C120.204 55.9297 120.861 56.5234 120.861 57.5156V58.1953L118.533 58.3281C116.658 58.4375 115.587 59.3125 115.587 60.7031C115.587 62.1641 116.673 63.1406 118.29 63.1406ZM130.857 57.5391C130.685 56.0781 129.474 54.7344 127.442 54.7344C125.2 54.7344 123.708 56.375 123.708 58.9375C123.708 61.5547 125.208 63.1406 127.458 63.1406C129.302 63.1406 130.661 62 130.872 60.3828H129.536C129.302 61.3594 128.575 61.9453 127.466 61.9453C126.06 61.9453 125.091 60.8281 125.091 58.9375C125.091 57.0938 126.044 55.9297 127.45 55.9297C128.646 55.9297 129.333 56.6562 129.528 57.5391H130.857ZM139.032 57.5391C138.86 56.0781 137.649 54.7344 135.618 54.7344C133.376 54.7344 131.884 56.375 131.884 58.9375C131.884 61.5547 133.384 63.1406 135.634 63.1406C137.477 63.1406 138.837 62 139.048 60.3828H137.712C137.477 61.3594 136.751 61.9453 135.642 61.9453C134.235 61.9453 133.267 60.8281 133.267 58.9375C133.267 57.0938 134.22 55.9297 135.626 55.9297C136.821 55.9297 137.509 56.6562 137.704 57.5391H139.032ZM143.825 63.1406C146.067 63.1406 147.583 61.5234 147.583 58.9375C147.583 56.3438 146.067 54.7344 143.825 54.7344C141.575 54.7344 140.059 56.3438 140.059 58.9375C140.059 61.5234 141.575 63.1406 143.825 63.1406ZM143.825 61.9453C142.387 61.9453 141.442 60.8516 141.442 58.9375C141.442 57.0234 142.387 55.9297 143.825 55.9297C145.262 55.9297 146.2 57.0234 146.2 58.9375C146.2 60.8516 145.262 61.9453 143.825 61.9453ZM155.79 54.875H154.43V59.6484C154.43 61.0312 153.633 61.9375 152.313 61.9375C151.055 61.9375 150.438 61.2266 150.438 59.9062V54.875H149.079V60.1484C149.079 61.9922 150.118 63.1406 151.891 63.1406C153.141 63.1406 153.985 62.6172 154.469 61.6797H154.501V63H155.79V54.875ZM157.715 63H159.075V58.2188C159.075 56.8438 159.911 55.9375 161.192 55.9375C162.442 55.9375 163.059 56.6562 163.059 57.9688V63H164.418V57.7266C164.418 55.8828 163.387 54.7344 161.606 54.7344C160.348 54.7344 159.481 55.2969 159.028 56.1719H158.997V54.875H157.715V63ZM166.75 52.9141V54.875H165.539V55.9922H166.75V60.8906C166.75 62.4531 167.328 63.0625 168.821 63.0625C169.141 63.0625 169.516 63.0391 169.68 63V61.8594C169.586 61.875 169.274 61.8984 169.117 61.8984C168.422 61.8984 168.11 61.5625 168.11 60.8203V55.9922H169.688V54.875H168.11V52.9141H166.75ZM175.18 52.9141V54.875H173.969V55.9922H175.18V60.8906C175.18 62.4531 175.758 63.0625 177.25 63.0625C177.57 63.0625 177.945 63.0391 178.109 63V61.8594C178.016 61.875 177.703 61.8984 177.547 61.8984C176.852 61.8984 176.539 61.5625 176.539 60.8203V55.9922H178.117V54.875H176.539V52.9141H175.18ZM182.863 63.1406C185.105 63.1406 186.621 61.5234 186.621 58.9375C186.621 56.3438 185.105 54.7344 182.863 54.7344C180.613 54.7344 179.098 56.3438 179.098 58.9375C179.098 61.5234 180.613 63.1406 182.863 63.1406ZM182.863 61.9453C181.426 61.9453 180.48 60.8516 180.48 58.9375C180.48 57.0234 181.426 55.9297 182.863 55.9297C184.301 55.9297 185.238 57.0234 185.238 58.9375C185.238 60.8516 184.301 61.9453 182.863 61.9453ZM192.035 63H193.394V55.9922H195.05V54.875H193.386V53.9766C193.386 53.1719 193.738 52.7812 194.472 52.7812C194.699 52.7812 194.925 52.8047 195.089 52.8281V51.7266C194.894 51.6953 194.566 51.6641 194.261 51.6641C192.761 51.6641 192.035 52.4062 192.035 53.9688V54.875H190.902V55.9922H192.035V63ZM196.687 63H198.046V54.875H196.687V63ZM197.367 53.5078C197.835 53.5078 198.218 53.125 198.218 52.6641C198.218 52.1953 197.835 51.8203 197.367 51.8203C196.906 51.8203 196.523 52.1953 196.523 52.6641C196.523 53.125 196.906 53.5078 197.367 53.5078ZM200.042 63H201.402V58.2188C201.402 56.8438 202.238 55.9375 203.519 55.9375C204.769 55.9375 205.386 56.6562 205.386 57.9688V63H206.745V57.7266C206.745 55.8828 205.714 54.7344 203.933 54.7344C202.675 54.7344 201.808 55.2969 201.355 56.1719H201.323V54.875H200.042V63ZM211.718 63.1406C212.89 63.1406 213.819 62.5625 214.343 61.625H214.366V63H215.663V51.7266H214.304V56.1953H214.273C213.788 55.3047 212.851 54.7344 211.687 54.7344C209.64 54.7344 208.241 56.3906 208.241 58.9375C208.241 61.4844 209.648 63.1406 211.718 63.1406ZM211.976 55.9297C213.374 55.9297 214.312 57.125 214.312 58.9375C214.312 60.7578 213.374 61.9453 211.976 61.9453C210.538 61.9453 209.632 60.7812 209.632 58.9375C209.632 57.1016 210.538 55.9297 211.976 55.9297ZM221.772 66.0391C223.241 66.0391 223.913 65.4688 224.608 63.5703L227.803 54.875H226.374L224.124 61.6406H224.1L221.85 54.875H220.397L223.397 63.0078L223.21 63.5781C222.897 64.5234 222.475 64.8906 221.717 64.8906C221.546 64.8906 221.335 64.8828 221.186 64.8516V65.9922C221.335 66.0234 221.608 66.0391 221.772 66.0391ZM232.174 63.1406C234.417 63.1406 235.932 61.5234 235.932 58.9375C235.932 56.3438 234.417 54.7344 232.174 54.7344C229.924 54.7344 228.409 56.3438 228.409 58.9375C228.409 61.5234 229.924 63.1406 232.174 63.1406ZM232.174 61.9453C230.737 61.9453 229.792 60.8516 229.792 58.9375C229.792 57.0234 230.737 55.9297 232.174 55.9297C233.612 55.9297 234.549 57.0234 234.549 58.9375C234.549 60.8516 233.612 61.9453 232.174 61.9453ZM244.139 54.875H242.78V59.6484C242.78 61.0312 241.983 61.9375 240.663 61.9375C239.405 61.9375 238.788 61.2266 238.788 59.9062V54.875H237.428V60.1484C237.428 61.9922 238.467 63.1406 240.241 63.1406C241.491 63.1406 242.334 62.6172 242.819 61.6797H242.85V63H244.139V54.875ZM246.065 63H247.424V57.9375C247.424 56.7891 248.112 56.0312 249.166 56.0312C249.494 56.0312 249.783 56.0703 249.893 56.1094V54.7891C249.783 54.7734 249.58 54.7344 249.346 54.7344C248.393 54.7344 247.643 55.3047 247.377 56.2031H247.346V54.875H246.065V63ZM257.682 63.1406C258.853 63.1406 259.783 62.5625 260.307 61.625H260.33V63H261.627V51.7266H260.268V56.1953H260.236C259.752 55.3047 258.814 54.7344 257.65 54.7344C255.603 54.7344 254.205 56.3906 254.205 58.9375C254.205 61.4844 255.611 63.1406 257.682 63.1406ZM257.939 55.9297C259.338 55.9297 260.275 57.125 260.275 58.9375C260.275 60.7578 259.338 61.9453 257.939 61.9453C256.502 61.9453 255.596 60.7812 255.596 58.9375C255.596 57.1016 256.502 55.9297 257.939 55.9297ZM263.623 63H264.982V57.9375C264.982 56.7891 265.67 56.0312 266.724 56.0312C267.052 56.0312 267.342 56.0703 267.451 56.1094V54.7891C267.342 54.7734 267.138 54.7344 266.904 54.7344C265.951 54.7344 265.201 55.3047 264.935 56.2031H264.904V54.875H263.623V63ZM271.587 55.9141C272.869 55.9141 273.72 56.8828 273.752 58.2422H269.337C269.423 56.8906 270.314 55.9141 271.587 55.9141ZM273.72 60.6719C273.494 61.4375 272.736 61.9609 271.705 61.9609C270.244 61.9609 269.33 60.9375 269.33 59.3828V59.3047H275.158V58.7891C275.158 56.3281 273.806 54.7344 271.611 54.7344C269.369 54.7344 267.931 56.4453 267.931 58.9688C267.931 61.5234 269.345 63.1406 271.673 63.1406C273.447 63.1406 274.822 62.0938 275.056 60.6719H273.72ZM279.372 61.9844C278.396 61.9844 277.747 61.4766 277.747 60.7031C277.747 59.9375 278.372 59.4531 279.466 59.3828L281.638 59.25V59.9141C281.638 61.0859 280.654 61.9844 279.372 61.9844ZM279.068 63.1406C280.162 63.1406 281.193 62.5312 281.677 61.6016H281.708V63H282.997V57.3828C282.997 55.7656 281.794 54.7344 279.888 54.7344C277.966 54.7344 276.763 55.8125 276.669 57.2188H277.982C278.154 56.4219 278.81 55.9297 279.857 55.9297C280.982 55.9297 281.638 56.5234 281.638 57.5156V58.1953L279.31 58.3281C277.435 58.4375 276.365 59.3125 276.365 60.7031C276.365 62.1641 277.451 63.1406 279.068 63.1406ZM284.884 63H286.243V57.9062C286.243 56.7812 287.025 55.9375 288.103 55.9375C289.111 55.9375 289.767 56.5781 289.767 57.5547V63H291.126V57.8359C291.126 56.7344 291.884 55.9375 292.962 55.9375C294.033 55.9375 294.65 56.5938 294.65 57.7031V63H296.009V57.3906C296.009 55.7812 294.97 54.7344 293.361 54.7344C292.22 54.7344 291.267 55.3125 290.814 56.2812H290.783C290.431 55.2969 289.611 54.7344 288.501 54.7344C287.408 54.7344 286.579 55.3125 286.197 56.1719H286.165V54.875H284.884V63ZM302.774 54.875H301.415V63.4141C301.415 64.3203 301.095 64.6562 300.212 64.6562C300.204 64.6562 300.017 64.6562 300.001 64.6562V65.7891C300.017 65.7969 300.235 65.7969 300.259 65.7969C301.993 65.7969 302.774 65.0469 302.774 63.3984V54.875ZM302.095 53.5078C302.563 53.5078 302.946 53.125 302.946 52.6641C302.946 52.1953 302.563 51.8203 302.095 51.8203C301.634 51.8203 301.251 52.1953 301.251 52.6641C301.251 53.125 301.634 53.5078 302.095 53.5078ZM308.138 63.1406C310.38 63.1406 311.895 61.5234 311.895 58.9375C311.895 56.3438 310.38 54.7344 308.138 54.7344C305.888 54.7344 304.372 56.3438 304.372 58.9375C304.372 61.5234 305.888 63.1406 308.138 63.1406ZM308.138 61.9453C306.7 61.9453 305.755 60.8516 305.755 58.9375C305.755 57.0234 306.7 55.9297 308.138 55.9297C309.575 55.9297 310.513 57.0234 310.513 58.9375C310.513 60.8516 309.575 61.9453 308.138 61.9453ZM317.469 63.1406C319.547 63.1406 320.922 61.4922 320.922 58.9375C320.922 56.3906 319.54 54.7344 317.493 54.7344C316.344 54.7344 315.399 55.3047 314.891 56.2344H314.86V51.7266H313.501V63H314.797V61.625H314.829C315.352 62.5625 316.282 63.1406 317.469 63.1406ZM317.204 55.9297C318.641 55.9297 319.532 57.0938 319.532 58.9375C319.532 60.7969 318.641 61.9453 317.204 61.9453C315.829 61.9453 314.852 60.75 314.852 58.9375C314.852 57.1328 315.829 55.9297 317.204 55.9297Z" fill="#6B7280"/>
</svg>
