<svg width="327" height="89" viewBox="0 0 327 89" fill="none" xmlns="http://www.w3.org/2000/svg">
<path d="M10.1445 29.3281C14.6836 29.3281 17.7734 26.9355 18.5254 22.8613H15.4766C14.8613 25.2402 12.9062 26.6484 10.1582 26.6484C6.53516 26.6484 4.23828 23.7363 4.23828 19.1289C4.23828 14.5625 6.5625 11.623 10.1445 11.623C12.8242 11.623 14.9297 13.2773 15.4766 15.8066H18.5117C17.9922 11.6914 14.6152 8.94336 10.1445 8.94336C4.63477 8.94336 1.10742 12.8809 1.10742 19.1289C1.10742 25.418 4.60742 29.3281 10.1445 29.3281ZM21.2116 29H24.1648V20.3867C24.1648 18.3496 25.3405 17.0781 27.2409 17.0781C27.8152 17.0781 28.3347 17.1465 28.5671 17.2422V14.4941C28.3484 14.4531 27.9792 14.3848 27.5554 14.3848C25.8601 14.3848 24.5749 15.3828 24.0964 17.0645H24.028V14.6172H21.2116V29ZM36.0659 16.7363C38.1303 16.7363 39.5248 18.2812 39.5932 20.4824H32.4018C32.5522 18.3086 34.0014 16.7363 36.0659 16.7363ZM39.5795 24.7754C39.183 26.0332 37.9389 26.8809 36.2573 26.8809C33.892 26.8809 32.3881 25.2266 32.3881 22.7246V22.5469H42.5463V21.5352C42.5463 17.1738 40.058 14.3574 36.0659 14.3574C32.0053 14.3574 29.4077 17.3652 29.4077 21.877C29.4077 26.416 31.9643 29.2734 36.1889 29.2734C39.4838 29.2734 41.9721 27.4004 42.3823 24.7754H39.5795ZM50.1545 26.9082C48.5685 26.9082 47.5295 26.0879 47.5295 24.8301C47.5295 23.5996 48.5275 22.8203 50.2912 22.6973L53.8322 22.4785V23.6133C53.8322 25.4863 52.2189 26.9082 50.1545 26.9082ZM49.3341 29.2461C51.2209 29.2461 53.0392 28.2344 53.8732 26.6348H53.9416V29H56.7716V19.0879C56.7716 16.2031 54.5431 14.3574 51.0568 14.3574C47.5021 14.3574 45.2873 16.2715 45.1232 18.8691H47.9123C48.172 17.584 49.2384 16.7637 50.9474 16.7637C52.7521 16.7637 53.8322 17.7207 53.8322 19.3203V20.4277L49.8947 20.6602C46.4767 20.8516 44.549 22.3965 44.549 24.9121C44.549 27.4961 46.5177 29.2461 49.3341 29.2461ZM60.7841 11.2129V14.6172H58.6923V16.9551H60.7841V25.2129C60.7841 27.9883 61.9188 29.0957 64.8309 29.0957C65.4872 29.0957 66.1434 29.041 66.4716 28.959V26.6211C66.2802 26.6621 65.8016 26.6895 65.5009 26.6895C64.2977 26.6895 63.7509 26.1289 63.7509 24.8848V16.9551H66.4852V14.6172H63.7509V11.2129H60.7841ZM74.859 16.7363C76.9234 16.7363 78.318 18.2812 78.3863 20.4824H71.1949C71.3453 18.3086 72.7945 16.7363 74.859 16.7363ZM78.3727 24.7754C77.9762 26.0332 76.732 26.8809 75.0504 26.8809C72.6852 26.8809 71.1813 25.2266 71.1813 22.7246V22.5469H81.3395V21.5352C81.3395 17.1738 78.8512 14.3574 74.859 14.3574C70.7984 14.3574 68.2008 17.3652 68.2008 21.877C68.2008 26.416 70.7574 29.2734 74.982 29.2734C78.277 29.2734 80.7652 27.4004 81.1754 24.7754H78.3727ZM89.8838 29H92.837V20.6191C92.837 18.3906 94.1768 16.9141 96.2549 16.9141C98.3057 16.9141 99.3174 18.1035 99.3174 20.2637V29H102.284V19.6895C102.284 16.3945 100.466 14.3711 97.294 14.3711C95.0791 14.3711 93.5479 15.3828 92.7686 17.0234H92.7002V14.6172H89.8838V29ZM111.437 16.7363C113.502 16.7363 114.896 18.2812 114.965 20.4824H107.773C107.924 18.3086 109.373 16.7363 111.437 16.7363ZM114.951 24.7754C114.554 26.0332 113.31 26.8809 111.629 26.8809C109.263 26.8809 107.76 25.2266 107.76 22.7246V22.5469H117.918V21.5352C117.918 17.1738 115.429 14.3574 111.437 14.3574C107.377 14.3574 104.779 17.3652 104.779 21.877C104.779 26.416 107.336 29.2734 111.56 29.2734C114.855 29.2734 117.344 27.4004 117.754 24.7754H114.951ZM139.471 14.6172H136.545L133.92 25.9375H133.852L130.844 14.6172H128L125.006 25.9375H124.952L122.327 14.6172H119.374L123.325 29H126.374L129.368 18.2266H129.436L132.457 29H135.534L139.471 14.6172ZM155.016 14.3848C152.937 14.3848 151.283 15.4375 150.435 17.0918H150.381V14.6172H147.523V33.7578H150.476V26.6348H150.545C151.365 28.2344 153.006 29.2461 155.07 29.2461C158.68 29.2461 161.072 26.3613 161.072 21.8086C161.072 17.2559 158.666 14.3848 155.016 14.3848ZM154.236 26.7441C151.967 26.7441 150.463 24.8027 150.463 21.8086C150.463 18.8418 151.98 16.873 154.236 16.873C156.574 16.873 158.037 18.8008 158.037 21.8086C158.037 24.8301 156.574 26.7441 154.236 26.7441ZM168.667 26.9082C167.081 26.9082 166.042 26.0879 166.042 24.8301C166.042 23.5996 167.04 22.8203 168.803 22.6973L172.344 22.4785V23.6133C172.344 25.4863 170.731 26.9082 168.667 26.9082ZM167.846 29.2461C169.733 29.2461 171.551 28.2344 172.385 26.6348H172.454V29H175.284V19.0879C175.284 16.2031 173.055 14.3574 169.569 14.3574C166.014 14.3574 163.799 16.2715 163.635 18.8691H166.424C166.684 17.584 167.751 16.7637 169.46 16.7637C171.264 16.7637 172.344 17.7207 172.344 19.3203V20.4277L168.407 20.6602C164.989 20.8516 163.061 22.3965 163.061 24.9121C163.061 27.4961 165.03 29.2461 167.846 29.2461ZM178.175 18.6914C178.175 20.7012 179.488 22.0547 182.085 22.6836L184.656 23.3125C186.16 23.6953 186.706 24.2012 186.706 25.1172C186.706 26.2793 185.613 27.0176 183.835 27.0176C182.031 27.0176 180.964 26.252 180.732 24.8711H177.806C178.038 27.5098 180.294 29.2734 183.699 29.2734C187.226 29.2734 189.673 27.4688 189.673 24.8438C189.673 22.7246 188.579 21.6309 185.681 20.9336L183.261 20.373C181.771 20.0039 181.06 19.4023 181.06 18.5137C181.06 17.3789 182.126 16.5996 183.726 16.5996C185.38 16.5996 186.433 17.4062 186.57 18.7051H189.345C189.249 16.1484 187.007 14.3574 183.808 14.3574C180.445 14.3574 178.175 16.1211 178.175 18.6914ZM191.99 18.6914C191.99 20.7012 193.303 22.0547 195.9 22.6836L198.471 23.3125C199.975 23.6953 200.522 24.2012 200.522 25.1172C200.522 26.2793 199.428 27.0176 197.65 27.0176C195.846 27.0176 194.779 26.252 194.547 24.8711H191.621C191.854 27.5098 194.109 29.2734 197.514 29.2734C201.041 29.2734 203.488 27.4688 203.488 24.8438C203.488 22.7246 202.395 21.6309 199.496 20.9336L197.076 20.373C195.586 20.0039 194.875 19.4023 194.875 18.5137C194.875 17.3789 195.941 16.5996 197.541 16.5996C199.195 16.5996 200.248 17.4062 200.385 18.7051H203.16C203.065 16.1484 200.822 14.3574 197.623 14.3574C194.26 14.3574 191.99 16.1211 191.99 18.6914ZM225.042 14.6172H222.116L219.491 25.9375H219.423L216.415 14.6172H213.571L210.577 25.9375H210.522L207.897 14.6172H204.944L208.895 29H211.944L214.938 18.2266H215.007L218.028 29H221.104L225.042 14.6172ZM233.224 29.2734C237.339 29.2734 240.046 26.4434 240.046 21.8086C240.046 17.1875 237.326 14.3574 233.224 14.3574C229.123 14.3574 226.402 17.1875 226.402 21.8086C226.402 26.4434 229.109 29.2734 233.224 29.2734ZM233.224 26.8398C230.914 26.8398 229.41 25.0078 229.41 21.8086C229.41 18.623 230.914 16.791 233.224 16.791C235.535 16.791 237.039 18.623 237.039 21.8086C237.039 25.0078 235.548 26.8398 233.224 26.8398ZM242.61 29H245.563V20.3867C245.563 18.3496 246.739 17.0781 248.639 17.0781C249.213 17.0781 249.733 17.1465 249.965 17.2422V14.4941C249.746 14.4531 249.377 14.3848 248.953 14.3848C247.258 14.3848 245.973 15.3828 245.494 17.0645H245.426V14.6172H242.61V29ZM256.849 29.2461C258.94 29.2461 260.581 28.1934 261.429 26.5527H261.483V29H264.354V9.27148H261.388V17.0098H261.333C260.526 15.4238 258.886 14.3848 256.821 14.3848C253.212 14.3848 250.806 17.2695 250.806 21.8086C250.806 26.3477 253.212 29.2461 256.849 29.2461ZM257.628 16.873C259.897 16.873 261.415 18.8281 261.415 21.8086C261.415 24.8164 259.897 26.7441 257.628 26.7441C255.29 26.7441 253.827 24.8438 253.827 21.8086C253.827 18.7871 255.29 16.873 257.628 16.873Z" fill="#111827"/>
<path d="M0.554688 59.8984C0.6875 61.8906 2.34375 63.1875 4.73438 63.1875C7.32812 63.1875 8.95312 61.8984 8.95312 59.8359C8.95312 58.2188 8.00781 57.3203 5.67188 56.7344L4.49219 56.4219C2.96094 56.0234 2.33594 55.5156 2.33594 54.6641C2.33594 53.5625 3.35156 52.8047 4.8125 52.8047C6.28125 52.8047 7.25781 53.5469 7.38281 54.7578H8.78906C8.72656 52.8672 7.10156 51.5391 4.85938 51.5391C2.51562 51.5391 0.875 52.8516 0.875 54.7266C0.875 56.2578 1.79688 57.1719 3.875 57.7031L5.32031 58.0781C6.83594 58.4688 7.5 59.0547 7.5 60.0078C7.5 61.1172 6.39062 61.9219 4.86719 61.9219C3.25781 61.9219 2.10156 61.1172 1.96875 59.8984H0.554688ZM13.8006 55.9141C15.0819 55.9141 15.9334 56.8828 15.9647 58.2422H11.5506C11.6366 56.8906 12.5272 55.9141 13.8006 55.9141ZM15.9334 60.6719C15.7069 61.4375 14.9491 61.9609 13.9178 61.9609C12.4569 61.9609 11.5428 60.9375 11.5428 59.3828V59.3047H17.3709V58.7891C17.3709 56.3281 16.0194 54.7344 13.8241 54.7344C11.5819 54.7344 10.1444 56.4453 10.1444 58.9688C10.1444 61.5234 11.5584 63.1406 13.8866 63.1406C15.66 63.1406 17.035 62.0938 17.2694 60.6719H15.9334ZM19.3434 52.9141V54.875H18.1325V55.9922H19.3434V60.8906C19.3434 62.4531 19.9216 63.0625 21.4137 63.0625C21.7341 63.0625 22.1091 63.0391 22.2731 63V61.8594C22.1794 61.875 21.8669 61.8984 21.7106 61.8984C21.0153 61.8984 20.7028 61.5625 20.7028 60.8203V55.9922H22.2809V54.875H20.7028V52.9141H19.3434ZM28.0072 66.0391C29.4759 66.0391 30.1478 65.4688 30.8431 63.5703L34.0384 54.875H32.6087L30.3587 61.6406H30.3353L28.0853 54.875H26.6322L29.6322 63.0078L29.4447 63.5781C29.1322 64.5234 28.7103 64.8906 27.9525 64.8906C27.7806 64.8906 27.5697 64.8828 27.4212 64.8516V65.9922C27.5697 66.0234 27.8431 66.0391 28.0072 66.0391ZM38.4094 63.1406C40.6516 63.1406 42.1672 61.5234 42.1672 58.9375C42.1672 56.3438 40.6516 54.7344 38.4094 54.7344C36.1594 54.7344 34.6437 56.3438 34.6437 58.9375C34.6437 61.5234 36.1594 63.1406 38.4094 63.1406ZM38.4094 61.9453C36.9719 61.9453 36.0266 60.8516 36.0266 58.9375C36.0266 57.0234 36.9719 55.9297 38.4094 55.9297C39.8469 55.9297 40.7844 57.0234 40.7844 58.9375C40.7844 60.8516 39.8469 61.9453 38.4094 61.9453ZM50.3741 54.875H49.0147V59.6484C49.0147 61.0312 48.2178 61.9375 46.8975 61.9375C45.6397 61.9375 45.0225 61.2266 45.0225 59.9062V54.875H43.6631V60.1484C43.6631 61.9922 44.7022 63.1406 46.4756 63.1406C47.7256 63.1406 48.5694 62.6172 49.0537 61.6797H49.085V63H50.3741V54.875ZM52.2997 63H53.6591V57.9375C53.6591 56.7891 54.3466 56.0312 55.4012 56.0312C55.7294 56.0312 56.0184 56.0703 56.1278 56.1094V54.7891C56.0184 54.7734 55.8153 54.7344 55.5809 54.7344C54.6278 54.7344 53.8778 55.3047 53.6122 56.2031H53.5809V54.875H52.2997V63ZM60.8384 63H62.1978V58.2188C62.1978 56.8438 63.0337 55.9375 64.315 55.9375C65.565 55.9375 66.1822 56.6562 66.1822 57.9688V63H67.5416V57.7266C67.5416 55.8828 66.5103 54.7344 64.7291 54.7344C63.4712 54.7344 62.6041 55.2969 62.1509 56.1719H62.1197V54.875H60.8384V63ZM72.6937 55.9141C73.975 55.9141 74.8266 56.8828 74.8578 58.2422H70.4437C70.5297 56.8906 71.4203 55.9141 72.6937 55.9141ZM74.8266 60.6719C74.6 61.4375 73.8422 61.9609 72.8109 61.9609C71.35 61.9609 70.4359 60.9375 70.4359 59.3828V59.3047H76.2641V58.7891C76.2641 56.3281 74.9125 54.7344 72.7172 54.7344C70.475 54.7344 69.0375 56.4453 69.0375 58.9688C69.0375 61.5234 70.4516 63.1406 72.7797 63.1406C74.5531 63.1406 75.9281 62.0938 76.1625 60.6719H74.8266ZM88.135 54.875H86.7913L85.1663 61.4844H85.135L83.2913 54.875H81.9788L80.1428 61.4844H80.1116L78.4866 54.875H77.135L79.4084 63H80.7913L82.6194 56.7109H82.6506L84.4866 63H85.8694L88.135 54.875ZM96.7988 54.7344C95.6191 54.7344 94.6738 55.3359 94.1738 56.25H94.1425V54.875H92.8534V65.7109H94.2128V61.6797H94.2441C94.7284 62.5703 95.6659 63.1406 96.83 63.1406C98.8769 63.1406 100.275 61.4844 100.275 58.9375C100.275 56.3906 98.8691 54.7344 96.7988 54.7344ZM96.5331 61.9453C95.1425 61.9453 94.205 60.75 94.205 58.9375C94.205 57.1328 95.1425 55.9297 96.5331 55.9297C97.9784 55.9297 98.8847 57.1016 98.8847 58.9375C98.8847 60.7812 97.9784 61.9453 96.5331 61.9453ZM104.49 61.9844C103.513 61.9844 102.865 61.4766 102.865 60.7031C102.865 59.9375 103.49 59.4531 104.584 59.3828L106.756 59.25V59.9141C106.756 61.0859 105.771 61.9844 104.49 61.9844ZM104.185 63.1406C105.279 63.1406 106.31 62.5312 106.795 61.6016H106.826V63H108.115V57.3828C108.115 55.7656 106.912 54.7344 105.006 54.7344C103.084 54.7344 101.881 55.8125 101.787 57.2188H103.099C103.271 56.4219 103.927 55.9297 104.974 55.9297C106.099 55.9297 106.756 56.5234 106.756 57.5156V58.1953L104.427 58.3281C102.552 58.4375 101.482 59.3125 101.482 60.7031C101.482 62.1641 102.568 63.1406 104.185 63.1406ZM109.861 57.1172C109.861 58.2266 110.564 58.9609 111.994 59.3281L113.423 59.6953C114.338 59.9375 114.673 60.25 114.673 60.8281C114.673 61.5625 113.994 62.0312 112.892 62.0312C111.791 62.0312 111.15 61.5781 111.002 60.7344H109.642C109.783 62.1719 111.025 63.1406 112.806 63.1406C114.705 63.1406 116.041 62.1406 116.041 60.7266C116.041 59.5312 115.447 58.9375 113.806 58.5234L112.548 58.2188C111.627 57.9844 111.197 57.6094 111.197 57.0469C111.197 56.3359 111.853 55.8438 112.845 55.8438C113.845 55.8438 114.478 56.3281 114.572 57.1094H115.869C115.806 55.7344 114.572 54.7344 112.892 54.7344C111.103 54.7344 109.861 55.7266 109.861 57.1172ZM117.474 57.1172C117.474 58.2266 118.177 58.9609 119.607 59.3281L121.037 59.6953C121.951 59.9375 122.287 60.25 122.287 60.8281C122.287 61.5625 121.607 62.0312 120.505 62.0312C119.404 62.0312 118.763 61.5781 118.615 60.7344H117.255C117.396 62.1719 118.638 63.1406 120.419 63.1406C122.318 63.1406 123.654 62.1406 123.654 60.7266C123.654 59.5312 123.06 58.9375 121.419 58.5234L120.162 58.2188C119.24 57.9844 118.81 57.6094 118.81 57.0469C118.81 56.3359 119.466 55.8438 120.458 55.8438C121.458 55.8438 122.091 56.3281 122.185 57.1094H123.482C123.419 55.7344 122.185 54.7344 120.505 54.7344C118.716 54.7344 117.474 55.7266 117.474 57.1172ZM135.564 54.875H134.22L132.595 61.4844H132.564L130.72 54.875H129.408L127.572 61.4844H127.54L125.915 54.875H124.564L126.837 63H128.22L130.048 56.7109H130.079L131.915 63H133.298L135.564 54.875ZM140.208 63.1406C142.45 63.1406 143.966 61.5234 143.966 58.9375C143.966 56.3438 142.45 54.7344 140.208 54.7344C137.958 54.7344 136.443 56.3438 136.443 58.9375C136.443 61.5234 137.958 63.1406 140.208 63.1406ZM140.208 61.9453C138.771 61.9453 137.825 60.8516 137.825 58.9375C137.825 57.0234 138.771 55.9297 140.208 55.9297C141.646 55.9297 142.583 57.0234 142.583 58.9375C142.583 60.8516 141.646 61.9453 140.208 61.9453ZM145.501 63H146.86V57.9375C146.86 56.7891 147.548 56.0312 148.602 56.0312C148.931 56.0312 149.22 56.0703 149.329 56.1094V54.7891C149.22 54.7734 149.017 54.7344 148.782 54.7344C147.829 54.7344 147.079 55.3047 146.813 56.2031H146.782V54.875H145.501V63ZM153.286 63.1406C154.458 63.1406 155.387 62.5625 155.911 61.625H155.934V63H157.231V51.7266H155.872V56.1953H155.841C155.356 55.3047 154.419 54.7344 153.255 54.7344C151.208 54.7344 149.809 56.3906 149.809 58.9375C149.809 61.4844 151.216 63.1406 153.286 63.1406ZM153.544 55.9297C154.942 55.9297 155.88 57.125 155.88 58.9375C155.88 60.7578 154.942 61.9453 153.544 61.9453C152.106 61.9453 151.2 60.7812 151.2 58.9375C151.2 57.1016 152.106 55.9297 153.544 55.9297ZM162.528 57.1172C162.528 58.2266 163.231 58.9609 164.661 59.3281L166.09 59.6953C167.004 59.9375 167.34 60.25 167.34 60.8281C167.34 61.5625 166.661 62.0312 165.559 62.0312C164.458 62.0312 163.817 61.5781 163.668 60.7344H162.309C162.45 62.1719 163.692 63.1406 165.473 63.1406C167.372 63.1406 168.708 62.1406 168.708 60.7266C168.708 59.5312 168.114 58.9375 166.473 58.5234L165.215 58.2188C164.293 57.9844 163.864 57.6094 163.864 57.0469C163.864 56.3359 164.52 55.8438 165.512 55.8438C166.512 55.8438 167.145 56.3281 167.239 57.1094H168.536C168.473 55.7344 167.239 54.7344 165.559 54.7344C163.77 54.7344 162.528 55.7266 162.528 57.1172ZM173.649 63.1406C175.891 63.1406 177.407 61.5234 177.407 58.9375C177.407 56.3438 175.891 54.7344 173.649 54.7344C171.399 54.7344 169.883 56.3438 169.883 58.9375C169.883 61.5234 171.399 63.1406 173.649 63.1406ZM173.649 61.9453C172.211 61.9453 171.266 60.8516 171.266 58.9375C171.266 57.0234 172.211 55.9297 173.649 55.9297C175.086 55.9297 176.024 57.0234 176.024 58.9375C176.024 60.8516 175.086 61.9453 173.649 61.9453ZM183.055 66.0391C184.523 66.0391 185.195 65.4688 185.891 63.5703L189.086 54.875H187.656L185.406 61.6406H185.383L183.133 54.875H181.68L184.68 63.0078L184.492 63.5781C184.18 64.5234 183.758 64.8906 183 64.8906C182.828 64.8906 182.617 64.8828 182.469 64.8516V65.9922C182.617 66.0234 182.891 66.0391 183.055 66.0391ZM193.457 63.1406C195.699 63.1406 197.215 61.5234 197.215 58.9375C197.215 56.3438 195.699 54.7344 193.457 54.7344C191.207 54.7344 189.691 56.3438 189.691 58.9375C189.691 61.5234 191.207 63.1406 193.457 63.1406ZM193.457 61.9453C192.019 61.9453 191.074 60.8516 191.074 58.9375C191.074 57.0234 192.019 55.9297 193.457 55.9297C194.894 55.9297 195.832 57.0234 195.832 58.9375C195.832 60.8516 194.894 61.9453 193.457 61.9453ZM205.422 54.875H204.062V59.6484C204.062 61.0312 203.265 61.9375 201.945 61.9375C200.687 61.9375 200.07 61.2266 200.07 59.9062V54.875H198.711V60.1484C198.711 61.9922 199.75 63.1406 201.523 63.1406C202.773 63.1406 203.617 62.6172 204.101 61.6797H204.133V63H205.422V54.875ZM217.538 57.5391C217.367 56.0781 216.156 54.7344 214.124 54.7344C211.882 54.7344 210.39 56.375 210.39 58.9375C210.39 61.5547 211.89 63.1406 214.14 63.1406C215.984 63.1406 217.343 62 217.554 60.3828H216.218C215.984 61.3594 215.257 61.9453 214.148 61.9453C212.742 61.9453 211.773 60.8281 211.773 58.9375C211.773 57.0938 212.726 55.9297 214.132 55.9297C215.327 55.9297 216.015 56.6562 216.21 57.5391H217.538ZM221.644 61.9844C220.667 61.9844 220.019 61.4766 220.019 60.7031C220.019 59.9375 220.644 59.4531 221.738 59.3828L223.909 59.25V59.9141C223.909 61.0859 222.925 61.9844 221.644 61.9844ZM221.339 63.1406C222.433 63.1406 223.464 62.5312 223.948 61.6016H223.98V63H225.269V57.3828C225.269 55.7656 224.066 54.7344 222.159 54.7344C220.238 54.7344 219.034 55.8125 218.941 57.2188H220.253C220.425 56.4219 221.081 55.9297 222.128 55.9297C223.253 55.9297 223.909 56.5234 223.909 57.5156V58.1953L221.581 58.3281C219.706 58.4375 218.636 59.3125 218.636 60.7031C218.636 62.1641 219.722 63.1406 221.339 63.1406ZM227.155 63H228.515V58.2188C228.515 56.8438 229.351 55.9375 230.632 55.9375C231.882 55.9375 232.499 56.6562 232.499 57.9688V63H233.858V57.7266C233.858 55.8828 232.827 54.7344 231.046 54.7344C229.788 54.7344 228.921 55.2969 228.468 56.1719H228.437V54.875H227.155V63ZM239.264 63H240.624V51.7266H239.264V63ZM245.987 63.1406C248.229 63.1406 249.745 61.5234 249.745 58.9375C249.745 56.3438 248.229 54.7344 245.987 54.7344C243.737 54.7344 242.221 56.3438 242.221 58.9375C242.221 61.5234 243.737 63.1406 245.987 63.1406ZM245.987 61.9453C244.549 61.9453 243.604 60.8516 243.604 58.9375C243.604 57.0234 244.549 55.9297 245.987 55.9297C247.424 55.9297 248.362 57.0234 248.362 58.9375C248.362 60.8516 247.424 61.9453 245.987 61.9453ZM254.584 61.8672C253.186 61.8672 252.272 60.7266 252.272 58.9062C252.272 57.0859 253.186 55.9297 254.584 55.9297C255.998 55.9297 256.944 57.1172 256.944 58.9062C256.944 60.6953 255.998 61.8672 254.584 61.8672ZM254.631 66.0625C256.873 66.0625 258.303 64.7734 258.303 62.8359V54.875H257.006V56.2422H256.983C256.444 55.2969 255.491 54.7344 254.342 54.7344C252.241 54.7344 250.881 56.3594 250.881 58.9062C250.881 61.4297 252.241 63.0625 254.311 63.0625C255.452 63.0625 256.413 62.4844 256.913 61.6016H256.944V62.8828C256.944 64.0938 256.092 64.9062 254.686 64.9062C253.67 64.9062 252.866 64.4141 252.6 63.6719H251.202C251.428 65.0547 252.842 66.0625 254.631 66.0625ZM260.307 63H261.666V54.875H260.307V63ZM260.987 53.5078C261.455 53.5078 261.838 53.125 261.838 52.6641C261.838 52.1953 261.455 51.8203 260.987 51.8203C260.526 51.8203 260.143 52.1953 260.143 52.6641C260.143 53.125 260.526 53.5078 260.987 53.5078ZM263.662 63H265.022V58.2188C265.022 56.8438 265.858 55.9375 267.139 55.9375C268.389 55.9375 269.006 56.6562 269.006 57.9688V63H270.365V57.7266C270.365 55.8828 269.334 54.7344 267.553 54.7344C266.295 54.7344 265.428 55.2969 264.975 56.1719H264.943V54.875H263.662V63ZM278.381 61.9844C277.404 61.9844 276.756 61.4766 276.756 60.7031C276.756 59.9375 277.381 59.4531 278.474 59.3828L280.646 59.25V59.9141C280.646 61.0859 279.662 61.9844 278.381 61.9844ZM278.076 63.1406C279.17 63.1406 280.201 62.5312 280.685 61.6016H280.717V63H282.006V57.3828C282.006 55.7656 280.802 54.7344 278.896 54.7344C276.974 54.7344 275.771 55.8125 275.677 57.2188H276.99C277.162 56.4219 277.818 55.9297 278.865 55.9297C279.99 55.9297 280.646 56.5234 280.646 57.5156V58.1953L278.318 58.3281C276.443 58.4375 275.373 59.3125 275.373 60.7031C275.373 62.1641 276.459 63.1406 278.076 63.1406ZM283.892 63H285.252V58.2188C285.252 56.8438 286.087 55.9375 287.369 55.9375C288.619 55.9375 289.236 56.6562 289.236 57.9688V63H290.595V57.7266C290.595 55.8828 289.564 54.7344 287.783 54.7344C286.525 54.7344 285.658 55.2969 285.205 56.1719H285.173V54.875H283.892V63ZM295.568 63.1406C296.74 63.1406 297.669 62.5625 298.193 61.625H298.216V63H299.513V51.7266H298.154V56.1953H298.122C297.638 55.3047 296.701 54.7344 295.537 54.7344C293.49 54.7344 292.091 56.3906 292.091 58.9375C292.091 61.4844 293.497 63.1406 295.568 63.1406ZM295.826 55.9297C297.224 55.9297 298.162 57.125 298.162 58.9375C298.162 60.7578 297.224 61.9453 295.826 61.9453C294.388 61.9453 293.482 60.7812 293.482 58.9375C293.482 57.1016 294.388 55.9297 295.826 55.9297ZM3.5625 82.9844C2.58594 82.9844 1.9375 82.4766 1.9375 81.7031C1.9375 80.9375 2.5625 80.4531 3.65625 80.3828L5.82812 80.25V80.9141C5.82812 82.0859 4.84375 82.9844 3.5625 82.9844ZM3.25781 84.1406C4.35156 84.1406 5.38281 83.5312 5.86719 82.6016H5.89844V84H7.1875V78.3828C7.1875 76.7656 5.98438 75.7344 4.07812 75.7344C2.15625 75.7344 0.953125 76.8125 0.859375 78.2188H2.17188C2.34375 77.4219 3 76.9297 4.04688 76.9297C5.17188 76.9297 5.82812 77.5234 5.82812 78.5156V79.1953L3.5 79.3281C1.625 79.4375 0.554688 80.3125 0.554688 81.7031C0.554688 83.1641 1.64062 84.1406 3.25781 84.1406ZM15.8241 78.5391C15.6522 77.0781 14.4412 75.7344 12.41 75.7344C10.1678 75.7344 8.67562 77.375 8.67562 79.9375C8.67562 82.5547 10.1756 84.1406 12.4256 84.1406C14.2694 84.1406 15.6287 83 15.8397 81.3828H14.5037C14.2694 82.3594 13.5428 82.9453 12.4334 82.9453C11.0272 82.9453 10.0584 81.8281 10.0584 79.9375C10.0584 78.0938 11.0116 76.9297 12.4178 76.9297C13.6131 76.9297 14.3006 77.6562 14.4959 78.5391H15.8241ZM23.9997 78.5391C23.8278 77.0781 22.6169 75.7344 20.5856 75.7344C18.3434 75.7344 16.8512 77.375 16.8512 79.9375C16.8512 82.5547 18.3512 84.1406 20.6012 84.1406C22.445 84.1406 23.8044 83 24.0153 81.3828H22.6794C22.445 82.3594 21.7184 82.9453 20.6091 82.9453C19.2028 82.9453 18.2341 81.8281 18.2341 79.9375C18.2341 78.0938 19.1872 76.9297 20.5934 76.9297C21.7887 76.9297 22.4762 77.6562 22.6716 78.5391H23.9997ZM28.6831 76.9141C29.9644 76.9141 30.8159 77.8828 30.8472 79.2422H26.4331C26.5191 77.8906 27.4097 76.9141 28.6831 76.9141ZM30.8159 81.6719C30.5894 82.4375 29.8316 82.9609 28.8003 82.9609C27.3394 82.9609 26.4253 81.9375 26.4253 80.3828V80.3047H32.2534V79.7891C32.2534 77.3281 30.9019 75.7344 28.7066 75.7344C26.4644 75.7344 25.0269 77.4453 25.0269 79.9688C25.0269 82.5234 26.4409 84.1406 28.7691 84.1406C30.5425 84.1406 31.9175 83.0938 32.1519 81.6719H30.8159ZM33.6478 78.1172C33.6478 79.2266 34.3509 79.9609 35.7806 80.3281L37.2103 80.6953C38.1244 80.9375 38.4603 81.25 38.4603 81.8281C38.4603 82.5625 37.7806 83.0312 36.6791 83.0312C35.5775 83.0312 34.9369 82.5781 34.7884 81.7344H33.4291C33.5697 83.1719 34.8119 84.1406 36.5931 84.1406C38.4916 84.1406 39.8275 83.1406 39.8275 81.7266C39.8275 80.5312 39.2337 79.9375 37.5931 79.5234L36.3353 79.2188C35.4134 78.9844 34.9837 78.6094 34.9837 78.0469C34.9837 77.3359 35.64 76.8438 36.6322 76.8438C37.6322 76.8438 38.265 77.3281 38.3587 78.1094H39.6556C39.5931 76.7344 38.3587 75.7344 36.6791 75.7344C34.89 75.7344 33.6478 76.7266 33.6478 78.1172ZM44.2881 81.3516C44.2881 83.0625 45.6006 84.2656 47.4756 84.2656C49.5537 84.2656 50.7881 83 50.7881 80.8594V72.7266H49.3819V80.8516C49.3819 82.2266 48.71 82.9688 47.4678 82.9688C46.4444 82.9688 45.7178 82.3047 45.6866 81.3516H44.2881ZM56.2919 84.1406C58.5341 84.1406 60.0497 82.5234 60.0497 79.9375C60.0497 77.3438 58.5341 75.7344 56.2919 75.7344C54.0419 75.7344 52.5262 77.3438 52.5262 79.9375C52.5262 82.5234 54.0419 84.1406 56.2919 84.1406ZM56.2919 82.9453C54.8544 82.9453 53.9091 81.8516 53.9091 79.9375C53.9091 78.0234 54.8544 76.9297 56.2919 76.9297C57.7294 76.9297 58.6669 78.0234 58.6669 79.9375C58.6669 81.8516 57.7294 82.9453 56.2919 82.9453ZM65.6237 84.1406C67.7019 84.1406 69.0769 82.4922 69.0769 79.9375C69.0769 77.3906 67.6941 75.7344 65.6472 75.7344C64.4987 75.7344 63.5534 76.3047 63.0456 77.2344H63.0144V72.7266H61.655V84H62.9519V82.625H62.9831C63.5066 83.5625 64.4362 84.1406 65.6237 84.1406ZM65.3581 76.9297C66.7956 76.9297 67.6862 78.0938 67.6862 79.9375C67.6862 81.7969 66.7956 82.9453 65.3581 82.9453C63.9831 82.9453 63.0066 81.75 63.0066 79.9375C63.0066 78.1328 63.9831 76.9297 65.3581 76.9297ZM70.4791 78.1172C70.4791 79.2266 71.1822 79.9609 72.6119 80.3281L74.0416 80.6953C74.9556 80.9375 75.2916 81.25 75.2916 81.8281C75.2916 82.5625 74.6119 83.0312 73.5103 83.0312C72.4088 83.0312 71.7681 82.5781 71.6197 81.7344H70.2603C70.4009 83.1719 71.6431 84.1406 73.4244 84.1406C75.3228 84.1406 76.6588 83.1406 76.6588 81.7266C76.6588 80.5312 76.065 79.9375 74.4244 79.5234L73.1666 79.2188C72.2447 78.9844 71.815 78.6094 71.815 78.0469C71.815 77.3359 72.4713 76.8438 73.4634 76.8438C74.4634 76.8438 75.0963 77.3281 75.19 78.1094H76.4869C76.4244 76.7344 75.19 75.7344 73.5103 75.7344C71.7213 75.7344 70.4791 76.7266 70.4791 78.1172ZM81.2953 75.7344C79.2094 75.7344 77.8344 77.3828 77.8344 79.9375C77.8344 82.4844 79.2094 84.1406 81.2641 84.1406C82.4125 84.1406 83.3578 83.5703 83.8656 82.6406H83.8969V86.7109H85.2562V75.875H83.9594V77.25H83.9281C83.4047 76.3125 82.475 75.7344 81.2953 75.7344ZM81.5375 82.9453C80.1156 82.9453 79.225 81.7891 79.225 79.9375C79.225 78.0781 80.1156 76.9297 81.5375 76.9297C82.9281 76.9297 83.8969 78.125 83.8969 79.9375C83.8969 81.75 82.9281 82.9453 81.5375 82.9453ZM93.8616 75.875H92.5022V80.6484C92.5022 82.0312 91.7053 82.9375 90.385 82.9375C89.1272 82.9375 88.51 82.2266 88.51 80.9062V75.875H87.1506V81.1484C87.1506 82.9922 88.1897 84.1406 89.9631 84.1406C91.2131 84.1406 92.0569 83.6172 92.5413 82.6797H92.5725V84H93.8616V75.875ZM99.045 76.9141C100.326 76.9141 101.178 77.8828 101.209 79.2422H96.795C96.8809 77.8906 97.7716 76.9141 99.045 76.9141ZM101.178 81.6719C100.951 82.4375 100.193 82.9609 99.1622 82.9609C97.7012 82.9609 96.7872 81.9375 96.7872 80.3828V80.3047H102.615V79.7891C102.615 77.3281 101.264 75.7344 99.0684 75.7344C96.8262 75.7344 95.3887 77.4453 95.3887 79.9688C95.3887 82.5234 96.8028 84.1406 99.1309 84.1406C100.904 84.1406 102.279 83.0938 102.514 81.6719H101.178Z" fill="#6B7280"/>
</svg>
