<svg width="303" height="45" viewBox="0 0 303 45" fill="none" xmlns="http://www.w3.org/2000/svg">
<rect y="2.5" width="40" height="40" rx="8" fill="#5865F2"/>
<path d="M6 18.6C6 15.2397 6 13.5595 6.65396 12.2761C7.2292 11.1471 8.14708 10.2292 9.27606 9.65396C10.5595 9 12.2397 9 15.6 9H24.4C27.7603 9 29.4405 9 30.7239 9.65396C31.8529 10.2292 32.7708 11.1471 33.346 12.2761C34 13.5595 34 15.2397 34 18.6V27.4C34 30.7603 34 32.4405 33.346 33.7239C32.7708 34.8529 31.8529 35.7708 30.7239 36.346C29.4405 37 27.7603 37 24.4 37H15.6C12.2397 37 10.5595 37 9.27606 36.346C8.14708 35.7708 7.2292 34.8529 6.65396 33.7239C6 32.4405 6 30.7603 6 27.4V18.6Z" fill="#5865F2"/>
<path d="M27.6361 16.34C26.212 15.714 24.6892 15.259 23.0973 15C22.9018 15.3321 22.6734 15.7787 22.5159 16.1341C20.8236 15.895 19.1469 15.895 17.4857 16.1341C17.3283 15.7787 17.0946 15.3321 16.8974 15C15.3037 15.259 13.7793 15.7157 12.3552 16.3433C9.48276 20.4213 8.70409 24.3981 9.09342 28.3184C10.9986 29.6551 12.8449 30.467 14.66 30.9983C15.1082 30.4189 15.5079 29.8029 15.8523 29.1536C15.1964 28.9195 14.5683 28.6306 13.9748 28.2951C14.1323 28.1856 14.2863 28.071 14.4351 27.9531C18.0551 29.5438 21.9881 29.5438 25.5649 27.9531C25.7154 28.071 25.8694 28.1856 26.0251 28.2951C25.4299 28.6322 24.8 28.9211 24.1442 29.1553C24.4885 29.8029 24.8865 30.4205 25.3364 31C27.1533 30.4687 29.0013 29.6567 30.9065 28.3184C31.3633 23.7738 30.1261 19.8335 27.6361 16.34ZM16.3454 25.9075C15.2587 25.9075 14.3676 24.9543 14.3676 23.7937C14.3676 22.6331 15.2397 21.6783 16.3454 21.6783C17.4511 21.6783 18.3422 22.6314 18.3232 23.7937C18.325 24.9543 17.4511 25.9075 16.3454 25.9075ZM23.6545 25.9075C22.5678 25.9075 21.6767 24.9543 21.6767 23.7937C21.6767 22.6331 22.5488 21.6783 23.6545 21.6783C24.7602 21.6783 25.6514 22.6314 25.6323 23.7937C25.6323 24.9543 24.7602 25.9075 23.6545 25.9075Z" fill="white"/>
<path d="M56.6064 14.4668C56.7295 16.7607 58.6279 18.2109 61.4404 18.2109C64.4463 18.2109 66.3359 16.7256 66.3359 14.3525C66.3359 12.498 65.2549 11.4521 62.6533 10.8369L61.2559 10.4941C59.6211 10.0898 58.9531 9.5625 58.9531 8.66602C58.9531 7.54102 59.999 6.76758 61.5283 6.76758C63.0576 6.76758 64.1035 7.53223 64.2178 8.79785H66.1338C66.0723 6.60938 64.2354 5.10645 61.5547 5.10645C58.8477 5.10645 56.9404 6.60938 56.9404 8.79785C56.9404 10.5645 58.0215 11.6543 60.3506 12.2168L61.9941 12.6123C63.6377 13.0166 64.332 13.6055 64.332 14.5898C64.332 15.7236 63.1807 16.5498 61.5811 16.5498C59.9111 16.5498 58.6895 15.7236 58.5488 14.4668H56.6064ZM71.9212 10.1162C73.2484 10.1162 74.1448 11.1094 74.1888 12.5244H69.5657C69.6624 11.127 70.5941 10.1162 71.9212 10.1162ZM74.18 15.2842C73.9251 16.0928 73.1253 16.6377 72.0443 16.6377C70.5238 16.6377 69.557 15.5742 69.557 13.9658V13.8516H76.0872V13.2012C76.0872 10.3975 74.4876 8.58691 71.9212 8.58691C69.3109 8.58691 67.6409 10.5205 67.6409 13.4209C67.6409 16.3389 69.2845 18.1758 72.0003 18.1758C74.1185 18.1758 75.7181 16.9717 75.9818 15.2842H74.18ZM77.7438 18H79.6422V12.6123C79.6422 11.1797 80.5036 10.2305 81.8395 10.2305C83.1579 10.2305 83.8082 10.9951 83.8082 12.3838V18H85.7155V12.0146C85.7155 9.89648 84.5465 8.5957 82.5075 8.5957C81.0836 8.5957 80.0993 9.24609 79.5983 10.3008H79.5543V8.75391H77.7438V18ZM87.7939 18H89.6923V8.75391H87.7939V18ZM88.7431 7.40039C89.3584 7.40039 89.8505 6.91699 89.8505 6.31934C89.8505 5.71289 89.3584 5.22949 88.7431 5.22949C88.1367 5.22949 87.6445 5.71289 87.6445 6.31934C87.6445 6.91699 88.1367 7.40039 88.7431 7.40039ZM95.7874 18.1758C98.4329 18.1758 100.173 16.3564 100.173 13.377C100.173 10.4062 98.4241 8.58691 95.7874 8.58691C93.1507 8.58691 91.4016 10.4062 91.4016 13.377C91.4016 16.3564 93.1419 18.1758 95.7874 18.1758ZM95.7874 16.6113C94.302 16.6113 93.3352 15.4336 93.3352 13.377C93.3352 11.3291 94.302 10.1514 95.7874 10.1514C97.2727 10.1514 98.2395 11.3291 98.2395 13.377C98.2395 15.4336 97.2815 16.6113 95.7874 16.6113ZM101.821 18H103.719V12.4629C103.719 11.1533 104.475 10.3359 105.697 10.3359C106.066 10.3359 106.4 10.3799 106.549 10.4414V8.6748C106.409 8.64844 106.171 8.60449 105.899 8.60449C104.809 8.60449 103.983 9.24609 103.675 10.3271H103.631V8.75391H101.821V18ZM113.941 5.31738H111.972V13.5439C111.972 16.2773 113.923 18.2109 117.105 18.2109C120.286 18.2109 122.238 16.2773 122.238 13.5439V5.31738H120.278V13.377C120.278 15.1875 119.126 16.4619 117.105 16.4619C115.083 16.4619 113.941 15.1875 113.941 13.377V5.31738ZM123.973 18H126.153L129.352 13.166H129.414L132.569 18H134.872L130.653 11.707V11.6543L134.951 5.31738H132.727L129.563 10.2217H129.493L126.364 5.31738H124.017L128.183 11.584V11.6455L123.973 18ZM140.531 5.31738V18H145.005C148.784 18 151.008 15.6445 151.008 11.6367C151.008 7.6377 148.776 5.31738 145.005 5.31738H140.531ZM142.5 7.01367H144.821C147.501 7.01367 148.995 8.66602 148.995 11.6543C148.995 14.6514 147.51 16.2949 144.821 16.2949H142.5V7.01367ZM156.708 10.1162C158.035 10.1162 158.931 11.1094 158.975 12.5244H154.352C154.449 11.127 155.38 10.1162 156.708 10.1162ZM158.966 15.2842C158.711 16.0928 157.912 16.6377 156.831 16.6377C155.31 16.6377 154.343 15.5742 154.343 13.9658V13.8516H160.874V13.2012C160.874 10.3975 159.274 8.58691 156.708 8.58691C154.097 8.58691 152.427 10.5205 152.427 13.4209C152.427 16.3389 154.071 18.1758 156.787 18.1758C158.905 18.1758 160.504 16.9717 160.768 15.2842H158.966ZM162.363 11.373C162.363 12.665 163.207 13.5352 164.877 13.9395L166.529 14.3438C167.496 14.5898 167.848 14.915 167.848 15.5039C167.848 16.251 167.144 16.7256 166.002 16.7256C164.842 16.7256 164.156 16.2334 164.007 15.3457H162.126C162.275 17.042 163.725 18.1758 165.914 18.1758C168.181 18.1758 169.755 17.0156 169.755 15.3281C169.755 13.9658 169.052 13.2627 167.188 12.8145L165.633 12.4541C164.675 12.2168 164.218 11.8301 164.218 11.2588C164.218 10.5293 164.903 10.0283 165.931 10.0283C166.995 10.0283 167.672 10.5469 167.76 11.3818H169.544C169.482 9.73828 168.041 8.58691 165.984 8.58691C163.822 8.58691 162.363 9.7207 162.363 11.373ZM171.473 18H173.371V8.75391H171.473V18ZM172.422 7.40039C173.037 7.40039 173.529 6.91699 173.529 6.31934C173.529 5.71289 173.037 5.22949 172.422 5.22949C171.816 5.22949 171.323 5.71289 171.323 6.31934C171.323 6.91699 171.816 7.40039 172.422 7.40039ZM179.431 16.4619C177.972 16.4619 177.023 15.2842 177.023 13.3506C177.023 11.4258 177.972 10.2041 179.431 10.2041C180.916 10.2041 181.892 11.4521 181.892 13.3506C181.892 15.2578 180.916 16.4619 179.431 16.4619ZM179.449 21.4805C182.085 21.4805 183.791 20.0391 183.791 17.833V8.75391H181.945V10.3359H181.91C181.347 9.26367 180.275 8.60449 178.965 8.60449C176.592 8.60449 175.081 10.4326 175.081 13.3418C175.081 16.2246 176.601 18.0352 178.921 18.0352C180.24 18.0352 181.33 17.376 181.848 16.374H181.883V17.8945C181.883 19.1602 181.004 20.0039 179.519 20.0039C178.438 20.0039 177.594 19.4941 177.322 18.7207H175.415C175.652 20.3203 177.269 21.4805 179.449 21.4805ZM185.851 18H187.75V12.6123C187.75 11.1797 188.611 10.2305 189.947 10.2305C191.265 10.2305 191.916 10.9951 191.916 12.3838V18H193.823V12.0146C193.823 9.89648 192.654 8.5957 190.615 8.5957C189.191 8.5957 188.207 9.24609 187.706 10.3008H187.662V8.75391H185.851V18ZM199.707 10.1162C201.034 10.1162 201.931 11.1094 201.975 12.5244H197.352C197.448 11.127 198.38 10.1162 199.707 10.1162ZM201.966 15.2842C201.711 16.0928 200.911 16.6377 199.83 16.6377C198.31 16.6377 197.343 15.5742 197.343 13.9658V13.8516H203.873V13.2012C203.873 10.3975 202.274 8.58691 199.707 8.58691C197.097 8.58691 195.427 10.5205 195.427 13.4209C195.427 16.3389 197.07 18.1758 199.786 18.1758C201.904 18.1758 203.504 16.9717 203.768 15.2842H201.966ZM205.53 18H207.428V12.4629C207.428 11.1533 208.184 10.3359 209.406 10.3359C209.775 10.3359 210.109 10.3799 210.258 10.4414V8.6748C210.118 8.64844 209.88 8.60449 209.608 8.60449C208.518 8.60449 207.692 9.24609 207.384 10.3271H207.34V8.75391H205.53V18Z" fill="#111827"/>
<path d="M56.8203 31.5449V40H59.6621C62.1758 40 63.6523 38.4355 63.6523 35.7695C63.6523 33.1094 62.1699 31.5449 59.6621 31.5449H56.8203ZM57.875 32.4941H59.5918C61.5137 32.4941 62.5742 33.666 62.5742 35.7812C62.5742 37.8789 61.5078 39.0508 59.5918 39.0508H57.875V32.4941ZM64.9794 40H65.9989V33.9062H64.9794V40ZM65.4891 32.8809C65.8407 32.8809 66.1278 32.5938 66.1278 32.248C66.1278 31.8965 65.8407 31.6152 65.4891 31.6152C65.1434 31.6152 64.8563 31.8965 64.8563 32.248C64.8563 32.5938 65.1434 32.8809 65.4891 32.8809ZM67.3904 35.5879C67.3904 36.4199 67.9177 36.9707 68.99 37.2461L70.0623 37.5215C70.7478 37.7031 70.9998 37.9375 70.9998 38.3711C70.9998 38.9219 70.49 39.2734 69.6638 39.2734C68.8377 39.2734 68.3572 38.9336 68.2459 38.3008H67.2263C67.3318 39.3789 68.2634 40.1055 69.5994 40.1055C71.0232 40.1055 72.0252 39.3555 72.0252 38.2949C72.0252 37.3984 71.5798 36.9531 70.3494 36.6426L69.406 36.4141C68.7146 36.2383 68.3923 35.957 68.3923 35.5352C68.3923 35.002 68.8845 34.6328 69.6287 34.6328C70.3787 34.6328 70.8533 34.9961 70.9236 35.582H71.8962C71.8494 34.5508 70.9236 33.8008 69.6638 33.8008C68.322 33.8008 67.3904 34.5449 67.3904 35.5879ZM78.2682 35.9043C78.1393 34.8086 77.2311 33.8008 75.7077 33.8008C74.026 33.8008 72.9069 35.0312 72.9069 36.9531C72.9069 38.916 74.0319 40.1055 75.7194 40.1055C77.1022 40.1055 78.1217 39.25 78.2799 38.0371H77.278C77.1022 38.7695 76.5573 39.209 75.7252 39.209C74.6705 39.209 73.944 38.3711 73.944 36.9531C73.944 35.5703 74.6588 34.6973 75.7135 34.6973C76.61 34.6973 77.1256 35.2422 77.2721 35.9043H78.2682ZM81.8628 40.1055C83.5445 40.1055 84.6812 38.8926 84.6812 36.9531C84.6812 35.0078 83.5445 33.8008 81.8628 33.8008C80.1753 33.8008 79.0386 35.0078 79.0386 36.9531C79.0386 38.8926 80.1753 40.1055 81.8628 40.1055ZM81.8628 39.209C80.7847 39.209 80.0757 38.3887 80.0757 36.9531C80.0757 35.5176 80.7847 34.6973 81.8628 34.6973C82.9409 34.6973 83.6441 35.5176 83.6441 36.9531C83.6441 38.3887 82.9409 39.209 81.8628 39.209ZM85.8324 40H86.852V36.2031C86.852 35.3418 87.3676 34.7734 88.1586 34.7734C88.4047 34.7734 88.6215 34.8027 88.7035 34.832V33.8418C88.6215 33.8301 88.4691 33.8008 88.2934 33.8008C87.5785 33.8008 87.016 34.2285 86.8168 34.9023H86.7934V33.9062H85.8324V40ZM91.6712 40.1055C92.5501 40.1055 93.2473 39.6719 93.6399 38.9688H93.6575V40H94.6302V31.5449H93.6106V34.8965H93.5872C93.2239 34.2285 92.5208 33.8008 91.6477 33.8008C90.1126 33.8008 89.0638 35.043 89.0638 36.9531C89.0638 38.8633 90.1184 40.1055 91.6712 40.1055ZM91.8645 34.6973C92.9134 34.6973 93.6165 35.5938 93.6165 36.9531C93.6165 38.3184 92.9134 39.209 91.8645 39.209C90.7864 39.209 90.1067 38.3359 90.1067 36.9531C90.1067 35.5762 90.7864 34.6973 91.8645 34.6973ZM100.94 38.5059C101.919 38.5059 102.722 37.7031 102.722 36.7246C102.722 35.7461 101.919 34.9434 100.94 34.9434C99.962 34.9434 99.1592 35.7461 99.1592 36.7246C99.1592 37.7031 99.962 38.5059 100.94 38.5059ZM106.782 38.0137C106.782 39.2969 107.766 40.1992 109.173 40.1992C110.731 40.1992 111.657 39.25 111.657 37.6445V31.5449H110.602V37.6387C110.602 38.6699 110.098 39.2266 109.167 39.2266C108.399 39.2266 107.854 38.7285 107.831 38.0137H106.782ZM115.269 39.2383C114.537 39.2383 114.05 38.8574 114.05 38.2773C114.05 37.7031 114.519 37.3398 115.34 37.2871L116.968 37.1875V37.6855C116.968 38.5645 116.23 39.2383 115.269 39.2383ZM115.041 40.1055C115.861 40.1055 116.634 39.6484 116.998 38.9512H117.021V40H117.988V35.7871C117.988 34.5742 117.086 33.8008 115.656 33.8008C114.215 33.8008 113.312 34.6094 113.242 35.6641H114.226C114.355 35.0664 114.847 34.6973 115.632 34.6973C116.476 34.6973 116.968 35.1426 116.968 35.8867V36.3965L115.222 36.4961C113.816 36.5781 113.013 37.2344 113.013 38.2773C113.013 39.373 113.828 40.1055 115.041 40.1055ZM120.475 36.6133V31.5449H119.456V40H120.475V37.7031L121.044 37.1641L123.305 40H124.489L121.764 36.5371L124.407 33.9062H123.17L120.475 36.6133ZM127.357 39.2383C126.624 39.2383 126.138 38.8574 126.138 38.2773C126.138 37.7031 126.607 37.3398 127.427 37.2871L129.056 37.1875V37.6855C129.056 38.5645 128.318 39.2383 127.357 39.2383ZM127.128 40.1055C127.949 40.1055 128.722 39.6484 129.085 38.9512H129.109V40H130.076V35.7871C130.076 34.5742 129.173 33.8008 127.744 33.8008C126.302 33.8008 125.4 34.6094 125.33 35.6641H126.314C126.443 35.0664 126.935 34.6973 127.72 34.6973C128.564 34.6973 129.056 35.1426 129.056 35.8867V36.3965L127.31 36.4961C125.904 36.5781 125.101 37.2344 125.101 38.2773C125.101 39.373 125.915 40.1055 127.128 40.1055ZM131.491 40H132.51V36.2031C132.51 35.3418 133.026 34.7734 133.817 34.7734C134.063 34.7734 134.28 34.8027 134.362 34.832V33.8418C134.28 33.8301 134.127 33.8008 133.951 33.8008C133.237 33.8008 132.674 34.2285 132.475 34.9023H132.451V33.9062H131.491V40ZM135.642 32.4355V33.9062H134.734V34.7441H135.642V38.418C135.642 39.5898 136.075 40.0469 137.195 40.0469C137.435 40.0469 137.716 40.0293 137.839 40V39.1445C137.769 39.1562 137.534 39.1738 137.417 39.1738C136.896 39.1738 136.661 38.9219 136.661 38.3652V34.7441H137.845V33.9062H136.661V32.4355H135.642ZM140.947 39.2383C140.215 39.2383 139.729 38.8574 139.729 38.2773C139.729 37.7031 140.197 37.3398 141.018 37.2871L142.647 37.1875V37.6855C142.647 38.5645 141.908 39.2383 140.947 39.2383ZM140.719 40.1055C141.539 40.1055 142.313 39.6484 142.676 38.9512H142.699V40H143.666V35.7871C143.666 34.5742 142.764 33.8008 141.334 33.8008C139.893 33.8008 138.99 34.6094 138.92 35.6641H139.904C140.033 35.0664 140.525 34.6973 141.311 34.6973C142.154 34.6973 142.647 35.1426 142.647 35.8867V36.3965L140.9 36.4961C139.494 36.5781 138.691 37.2344 138.691 38.2773C138.691 39.373 139.506 40.1055 140.719 40.1055ZM145.778 41.6816L146.581 38.6992H145.497L144.929 41.6816H145.778ZM151.456 40V31.5449H150.401V40H151.456ZM153.058 40H154.078V36.4141C154.078 35.3828 154.705 34.7031 155.666 34.7031C156.603 34.7031 157.066 35.2422 157.066 36.2266V40H158.086V36.0449C158.086 34.6621 157.312 33.8008 155.976 33.8008C155.033 33.8008 154.382 34.2227 154.043 34.8789H154.019V33.9062H153.058V40ZM161.815 40.1055C162.694 40.1055 163.391 39.6719 163.784 38.9688H163.801V40H164.774V31.5449H163.754V34.8965H163.731C163.368 34.2285 162.665 33.8008 161.791 33.8008C160.256 33.8008 159.207 35.043 159.207 36.9531C159.207 38.8633 160.262 40.1055 161.815 40.1055ZM162.008 34.6973C163.057 34.6973 163.76 35.5938 163.76 36.9531C163.76 38.3184 163.057 39.209 162.008 39.209C160.93 39.209 160.25 38.3359 160.25 36.9531C160.25 35.5762 160.93 34.6973 162.008 34.6973ZM168.796 40.1055C170.478 40.1055 171.615 38.8926 171.615 36.9531C171.615 35.0078 170.478 33.8008 168.796 33.8008C167.109 33.8008 165.972 35.0078 165.972 36.9531C165.972 38.8926 167.109 40.1055 168.796 40.1055ZM168.796 39.209C167.718 39.209 167.009 38.3887 167.009 36.9531C167.009 35.5176 167.718 34.6973 168.796 34.6973C169.874 34.6973 170.577 35.5176 170.577 36.9531C170.577 38.3887 169.874 39.209 168.796 39.209ZM172.766 40H173.785V36.4141C173.785 35.3828 174.412 34.7031 175.373 34.7031C176.311 34.7031 176.774 35.2422 176.774 36.2266V40H177.793V36.0449C177.793 34.6621 177.02 33.8008 175.684 33.8008C174.74 33.8008 174.09 34.2227 173.75 34.8789H173.727V33.9062H172.766V40ZM181.657 34.6855C182.618 34.6855 183.257 35.4121 183.28 36.4316H179.97C180.034 35.418 180.702 34.6855 181.657 34.6855ZM183.257 38.2539C183.087 38.8281 182.519 39.2207 181.745 39.2207C180.65 39.2207 179.964 38.4531 179.964 37.2871V37.2285H184.335V36.8418C184.335 34.9961 183.321 33.8008 181.675 33.8008C179.993 33.8008 178.915 35.084 178.915 36.9766C178.915 38.8926 179.976 40.1055 181.722 40.1055C183.052 40.1055 184.083 39.3203 184.259 38.2539H183.257ZM185.381 35.5879C185.381 36.4199 185.908 36.9707 186.98 37.2461L188.053 37.5215C188.738 37.7031 188.99 37.9375 188.99 38.3711C188.99 38.9219 188.48 39.2734 187.654 39.2734C186.828 39.2734 186.348 38.9336 186.236 38.3008H185.217C185.322 39.3789 186.254 40.1055 187.59 40.1055C189.014 40.1055 190.016 39.3555 190.016 38.2949C190.016 37.3984 189.57 36.9531 188.34 36.6426L187.396 36.4141C186.705 36.2383 186.383 35.957 186.383 35.5352C186.383 35.002 186.875 34.6328 187.619 34.6328C188.369 34.6328 188.844 34.9961 188.914 35.582H189.887C189.84 34.5508 188.914 33.8008 187.654 33.8008C186.312 33.8008 185.381 34.5449 185.381 35.5879ZM191.249 40H192.268V33.9062H191.249V40ZM191.759 32.8809C192.11 32.8809 192.397 32.5938 192.397 32.248C192.397 31.8965 192.11 31.6152 191.759 31.6152C191.413 31.6152 191.126 31.8965 191.126 32.248C191.126 32.5938 191.413 32.8809 191.759 32.8809ZM195.775 39.2383C195.043 39.2383 194.556 38.8574 194.556 38.2773C194.556 37.7031 195.025 37.3398 195.845 37.2871L197.474 37.1875V37.6855C197.474 38.5645 196.736 39.2383 195.775 39.2383ZM195.547 40.1055C196.367 40.1055 197.14 39.6484 197.504 38.9512H197.527V40H198.494V35.7871C198.494 34.5742 197.592 33.8008 196.162 33.8008C194.72 33.8008 193.818 34.6094 193.748 35.6641H194.732C194.861 35.0664 195.353 34.6973 196.138 34.6973C196.982 34.6973 197.474 35.1426 197.474 35.8867V36.3965L195.728 36.4961C194.322 36.5781 193.519 37.2344 193.519 38.2773C193.519 39.373 194.334 40.1055 195.547 40.1055Z" fill="#374151"/>
</svg>
