<svg width="327" height="68" viewBox="0 0 327 68" fill="none" xmlns="http://www.w3.org/2000/svg">
<mask id="path-1-inside-1_137_2994" fill="white">
<path d="M0 0H327V68H0V0Z"/>
</mask>
<path d="M0 0H327V68H0V0Z" fill="white"/>
<rect y="14" width="40" height="40" rx="20" fill="#D6E4FF"/>
<path d="M20.1331 33.6833C20.1081 33.6833 20.0915 33.6833 20.0665 33.6833C20.0248 33.675 19.9665 33.675 19.9165 33.6833C17.4998 33.6083 15.6748 31.7083 15.6748 29.3667C15.6748 26.9833 17.6165 25.0417 19.9998 25.0417C22.3831 25.0417 24.3248 26.9833 24.3248 29.3667C24.3165 31.7083 22.4831 33.6083 20.1581 33.6833C20.1498 33.6833 20.1415 33.6833 20.1331 33.6833ZM19.9998 26.2917C18.3081 26.2917 16.9248 27.675 16.9248 29.3667C16.9248 31.0333 18.2248 32.375 19.8831 32.4333C19.9248 32.425 20.0415 32.425 20.1498 32.4333C21.7831 32.3583 23.0665 31.0167 23.0748 29.3667C23.0748 27.675 21.6915 26.2917 19.9998 26.2917Z" fill="#3366FF"/>
<path d="M20.1413 42.7917C18.508 42.7917 16.8663 42.375 15.6247 41.5417C14.4663 40.775 13.833 39.725 13.833 38.5833C13.833 37.4417 14.4663 36.3833 15.6247 35.6083C18.1247 33.95 22.1747 33.95 24.658 35.6083C25.808 36.375 26.4497 37.425 26.4497 38.5667C26.4497 39.7083 25.8163 40.7667 24.658 41.5417C23.408 42.375 21.7747 42.7917 20.1413 42.7917ZM16.3163 36.6583C15.5163 37.1917 15.083 37.875 15.083 38.5917C15.083 39.3 15.5247 39.9833 16.3163 40.5083C18.3913 41.9 21.8913 41.9 23.9663 40.5083C24.7663 39.975 25.1997 39.2917 25.1997 38.575C25.1997 37.8667 24.758 37.1833 23.9663 36.6583C21.8913 35.275 18.3913 35.275 16.3163 36.6583Z" fill="#3366FF"/>
<path d="M60.0781 38.2344H54.5V34.3594H59.7891V33.1094H54.5V29.4922H60.0781V28.2266H53.0938V39.5H60.0781V38.2344ZM64.9647 39.6406C66.1366 39.6406 67.0662 39.0625 67.5897 38.125H67.6131V39.5H68.91V28.2266H67.5506V32.6953H67.5194C67.035 31.8047 66.0975 31.2344 64.9334 31.2344C62.8866 31.2344 61.4881 32.8906 61.4881 35.4375C61.4881 37.9844 62.8944 39.6406 64.9647 39.6406ZM65.2225 32.4297C66.6209 32.4297 67.5584 33.625 67.5584 35.4375C67.5584 37.2578 66.6209 38.4453 65.2225 38.4453C63.785 38.4453 62.8787 37.2812 62.8787 35.4375C62.8787 33.6016 63.785 32.4297 65.2225 32.4297ZM70.9762 39.5H72.3356V31.375H70.9762V39.5ZM71.6559 30.0078C72.1247 30.0078 72.5075 29.625 72.5075 29.1641C72.5075 28.6953 72.1247 28.3203 71.6559 28.3203C71.195 28.3203 70.8122 28.6953 70.8122 29.1641C70.8122 29.625 71.195 30.0078 71.6559 30.0078ZM74.7691 29.4141V31.375H73.5581V32.4922H74.7691V37.3906C74.7691 38.9531 75.3472 39.5625 76.8394 39.5625C77.1597 39.5625 77.5347 39.5391 77.6987 39.5V38.3594C77.605 38.375 77.2925 38.3984 77.1362 38.3984C76.4409 38.3984 76.1284 38.0625 76.1284 37.3203V32.4922H77.7066V31.375H76.1284V29.4141H74.7691ZM82.9719 28.2266V39.5H84.3781V35.4766H86.9797C89.0969 35.4766 90.6047 33.9844 90.6047 31.8438C90.6047 29.7109 89.1125 28.2266 86.9953 28.2266H82.9719ZM84.3781 29.4766H86.6281C88.2453 29.4766 89.1594 30.3516 89.1594 31.8438C89.1594 33.3438 88.2375 34.2266 86.6281 34.2266H84.3781V29.4766ZM92.1709 39.5H93.5303V34.4375C93.5303 33.2891 94.2178 32.5312 95.2725 32.5312C95.6006 32.5312 95.8897 32.5703 95.9991 32.6094V31.2891C95.8897 31.2734 95.6866 31.2344 95.4522 31.2344C94.4991 31.2344 93.7491 31.8047 93.4834 32.7031H93.4522V31.375H92.1709V39.5ZM100.245 39.6406C102.487 39.6406 104.003 38.0234 104.003 35.4375C104.003 32.8438 102.487 31.2344 100.245 31.2344C97.995 31.2344 96.4794 32.8438 96.4794 35.4375C96.4794 38.0234 97.995 39.6406 100.245 39.6406ZM100.245 38.4453C98.8075 38.4453 97.8622 37.3516 97.8622 35.4375C97.8622 33.5234 98.8075 32.4297 100.245 32.4297C101.682 32.4297 102.62 33.5234 102.62 35.4375C102.62 37.3516 101.682 38.4453 100.245 38.4453ZM105.975 39.5H107.335V32.4922H108.991V31.375H107.327V30.4766C107.327 29.6719 107.678 29.2812 108.413 29.2812C108.639 29.2812 108.866 29.3047 109.03 29.3281V28.2266C108.835 28.1953 108.507 28.1641 108.202 28.1641C106.702 28.1641 105.975 28.9062 105.975 30.4688V31.375H104.842V32.4922H105.975V39.5ZM110.627 39.5H111.987V31.375H110.627V39.5ZM111.307 30.0078C111.776 30.0078 112.159 29.625 112.159 29.1641C112.159 28.6953 111.776 28.3203 111.307 28.3203C110.846 28.3203 110.463 28.6953 110.463 29.1641C110.463 29.625 110.846 30.0078 111.307 30.0078ZM114.053 39.5H115.412V28.2266H114.053V39.5ZM120.666 32.4141C121.948 32.4141 122.799 33.3828 122.83 34.7422H118.416C118.502 33.3906 119.393 32.4141 120.666 32.4141ZM122.799 37.1719C122.573 37.9375 121.815 38.4609 120.783 38.4609C119.323 38.4609 118.408 37.4375 118.408 35.8828V35.8047H124.237V35.2891C124.237 32.8281 122.885 31.2344 120.69 31.2344C118.448 31.2344 117.01 32.9453 117.01 35.4688C117.01 38.0234 118.424 39.6406 120.752 39.6406C122.526 39.6406 123.901 38.5938 124.135 37.1719H122.799Z" fill="#111827"/>
<path d="M320.62 38.5467C320.493 38.5467 320.367 38.5 320.267 38.4C320.073 38.2067 320.073 37.8867 320.267 37.6933L323.96 34L320.267 30.3067C320.073 30.1133 320.073 29.7933 320.267 29.6C320.46 29.4067 320.78 29.4067 320.973 29.6L325.02 33.6467C325.213 33.84 325.213 34.16 325.02 34.3533L320.973 38.4C320.873 38.5 320.747 38.5467 320.62 38.5467Z" fill="#111827"/>
<path d="M324.553 34.5H313.333C313.06 34.5 312.833 34.2733 312.833 34C312.833 33.7267 313.06 33.5 313.333 33.5H324.553C324.827 33.5 325.053 33.7267 325.053 34C325.053 34.2733 324.827 34.5 324.553 34.5Z" fill="#111827"/>
<path d="M327 67H0V69H327V67Z" fill="#E5E7EB" mask="url(#path-1-inside-1_137_2994)"/>
</svg>
