<svg width="375" height="812" viewBox="0 0 375 812" fill="none" xmlns="http://www.w3.org/2000/svg">
<g clip-path="url(#clip0_219_4450)">
<rect width="375" height="812" rx="20" fill="white"/>
<g clip-path="url(#clip1_219_4450)">
<rect opacity="0.35" x="336.5" y="17.8333" width="21" height="10.3333" rx="2.16667" stroke="#111827"/>
<path opacity="0.4" d="M359 21V25C359.805 24.6612 360.328 23.8731 360.328 23C360.328 22.1269 359.805 21.3388 359 21Z" fill="#111827"/>
<rect x="338" y="19.3333" width="18" height="7.33333" rx="1.33333" fill="#111827"/>
<path fill-rule="evenodd" clip-rule="evenodd" d="M323.33 19.6079C325.546 19.608 327.678 20.4594 329.283 21.9862C329.404 22.1041 329.598 22.1026 329.717 21.9829L330.873 20.8162C330.933 20.7555 330.967 20.6733 330.966 20.5877C330.966 20.5021 330.931 20.4202 330.87 20.3602C326.655 16.3207 320.005 16.3207 315.79 20.3602C315.729 20.4202 315.694 20.502 315.694 20.5876C315.693 20.6732 315.727 20.7555 315.787 20.8162L316.943 21.9829C317.062 22.1028 317.256 22.1043 317.377 21.9862C318.983 20.4593 321.114 19.6079 323.33 19.6079ZM323.33 23.4036C324.548 23.4035 325.722 23.856 326.624 24.6732C326.747 24.7892 326.939 24.7867 327.058 24.6676L328.212 23.5009C328.273 23.4397 328.307 23.3567 328.306 23.2704C328.305 23.1842 328.27 23.1018 328.208 23.0419C325.46 20.4855 321.204 20.4855 318.455 23.0419C318.393 23.1018 318.358 23.1842 318.357 23.2705C318.356 23.3568 318.39 23.4398 318.451 23.5009L319.605 24.6676C319.724 24.7867 319.917 24.7892 320.039 24.6732C320.941 23.8566 322.114 23.4041 323.33 23.4036ZM325.643 25.9574C325.645 26.0439 325.611 26.1273 325.549 26.1879L323.552 28.2036C323.494 28.2628 323.414 28.2961 323.33 28.2961C323.247 28.2961 323.167 28.2628 323.109 28.2036L321.111 26.1879C321.049 26.1272 321.015 26.0438 321.017 25.9573C321.019 25.8708 321.057 25.7889 321.121 25.7309C322.396 24.652 324.265 24.652 325.54 25.7309C325.604 25.7889 325.642 25.8709 325.643 25.9574Z" fill="#111827"/>
<path fill-rule="evenodd" clip-rule="evenodd" d="M309.667 17.6667H308.667C308.114 17.6667 307.667 18.1145 307.667 18.6667V27.3334C307.667 27.8857 308.114 28.3334 308.667 28.3334H309.667C310.219 28.3334 310.667 27.8857 310.667 27.3334V18.6667C310.667 18.1145 310.219 17.6667 309.667 17.6667ZM304 20.0001H305C305.552 20.0001 306 20.4478 306 21.0001V27.3334C306 27.8857 305.552 28.3334 305 28.3334H304C303.448 28.3334 303 27.8857 303 27.3334V21.0001C303 20.4478 303.448 20.0001 304 20.0001ZM300.333 22.3334H299.333C298.781 22.3334 298.333 22.7811 298.333 23.3334V27.3334C298.333 27.8857 298.781 28.3334 299.333 28.3334H300.333C300.885 28.3334 301.333 27.8857 301.333 27.3334V23.3334C301.333 22.7811 300.885 22.3334 300.333 22.3334ZM295.667 24.3334H294.667C294.114 24.3334 293.667 24.7811 293.667 25.3334V27.3334C293.667 27.8857 294.114 28.3334 294.667 28.3334H295.667C296.219 28.3334 296.667 27.8857 296.667 27.3334V25.3334C296.667 24.7811 296.219 24.3334 295.667 24.3334Z" fill="#111827"/>
<path d="M36.9318 29.1846C39.4064 29.1846 40.8693 27.2295 40.8693 23.9277C40.8693 22.7725 40.6643 21.8018 40.2609 21.0156C39.6252 19.6895 38.4494 18.9443 36.9865 18.9443C34.9016 18.9443 33.384 20.3799 33.384 22.3555C33.384 24.2285 34.7854 25.6162 36.6584 25.6162C37.9299 25.6162 38.9689 24.9736 39.3654 24.0029H39.3723H39.3791C39.3859 24.0029 39.3928 24.0029 39.3928 24.0029C39.3928 26.4912 38.4904 27.9131 36.9523 27.9131C36.0432 27.9131 35.2912 27.373 35.0588 26.5664H33.5207C33.8146 28.1318 35.175 29.1846 36.9318 29.1846ZM36.9865 24.3652C35.7902 24.3652 34.9084 23.4902 34.9084 22.3076C34.9084 21.1592 35.8313 20.25 37.007 20.25C38.1828 20.25 39.0988 21.166 39.0988 22.335C39.0988 23.4971 38.1965 24.3652 36.9865 24.3652ZM43.6098 27.4756C44.1088 27.4756 44.5053 27.0791 44.5053 26.5801C44.5053 26.0811 44.1088 25.6846 43.6098 25.6846C43.1107 25.6846 42.7143 26.0811 42.7143 26.5801C42.7143 27.0791 43.1107 27.4756 43.6098 27.4756ZM43.6098 22.4922C44.1088 22.4922 44.5053 22.1025 44.5053 21.5967C44.5053 21.0977 44.1088 20.7012 43.6098 20.7012C43.1107 20.7012 42.7143 21.0977 42.7143 21.5967C42.7143 22.1025 43.1107 22.4922 43.6098 22.4922ZM51.2037 29H52.6734V27.0518H54.027V25.7666H52.6734V19.1357H50.4586C48.2369 22.3486 47.1158 24.1191 46.2682 25.7119V27.0518H51.2037V29ZM47.6969 25.7529C48.483 24.3242 49.4811 22.7861 51.19 20.3184H51.2174V25.7871H47.6969V25.7529ZM58.0047 29H59.5018V19.1357H57.991L55.3934 20.9814V22.4854L57.9705 20.6533H58.0047V29Z" fill="#111827"/>
</g>
<path d="M33.5699 78.8201C33.3799 78.8201 33.1899 78.7501 33.0399 78.6001L26.9699 72.5301C26.6799 72.2401 26.6799 71.7601 26.9699 71.4701L33.0399 65.4001C33.3299 65.1101 33.8099 65.1101 34.0999 65.4001C34.3899 65.6901 34.3899 66.1701 34.0999 66.4601L28.5599 72.0001L34.0999 77.5401C34.3899 77.8301 34.3899 78.3101 34.0999 78.6001C33.9599 78.7501 33.7599 78.8201 33.5699 78.8201Z" fill="#292D32"/>
<path d="M44.4999 72.75H27.6699C27.2599 72.75 26.9199 72.41 26.9199 72C26.9199 71.59 27.2599 71.25 27.6699 71.25H44.4999C44.9099 71.25 45.2499 71.59 45.2499 72C45.2499 72.41 44.9099 72.75 44.4999 72.75Z" fill="#292D32"/>
<path d="M139.428 79V68.6191H139.516L146.82 79H148.793V64.9082H146.664V75.2988H146.586L139.281 64.9082H137.299V79H139.428ZM155.761 79.1953C158.7 79.1953 160.634 77.1738 160.634 73.8633C160.634 70.5625 158.69 68.541 155.761 68.541C152.831 68.541 150.887 70.5625 150.887 73.8633C150.887 77.1738 152.821 79.1953 155.761 79.1953ZM155.761 77.457C154.11 77.457 153.036 76.1484 153.036 73.8633C153.036 71.5879 154.11 70.2793 155.761 70.2793C157.411 70.2793 158.485 71.5879 158.485 73.8633C158.485 76.1484 157.421 77.457 155.761 77.457ZM163.08 66.2949V68.7266H161.586V70.3965H163.08V76.2949C163.08 78.2773 163.89 79.0684 165.97 79.0684C166.439 79.0684 166.908 79.0293 167.142 78.9707V77.3008C167.005 77.3301 166.664 77.3496 166.449 77.3496C165.589 77.3496 165.199 76.9492 165.199 76.0605V70.3965H167.152V68.7266H165.199V66.2949H163.08ZM169.159 79H171.268V68.7266H169.159V79ZM170.213 67.2227C170.897 67.2227 171.444 66.6855 171.444 66.0215C171.444 65.3477 170.897 64.8105 170.213 64.8105C169.539 64.8105 168.993 65.3477 168.993 66.0215C168.993 66.6855 169.539 67.2227 170.213 67.2227ZM174.241 79H176.361V70.3965H178.411V68.7461H176.331V67.7793C176.331 66.8711 176.761 66.4121 177.679 66.4121C177.962 66.4121 178.245 66.4316 178.45 66.4707V64.9082C178.177 64.8594 177.698 64.8105 177.269 64.8105C175.179 64.8105 174.241 65.748 174.241 67.7402V68.7461H172.825V70.3965H174.241V79ZM180.34 79H182.449V68.7266H180.34V79ZM181.395 67.2227C182.078 67.2227 182.625 66.6855 182.625 66.0215C182.625 65.3477 182.078 64.8105 181.395 64.8105C180.721 64.8105 180.174 65.3477 180.174 66.0215C180.174 66.6855 180.721 67.2227 181.395 67.2227ZM193.626 72.2617C193.44 70.2402 191.829 68.541 189.182 68.541C186.263 68.541 184.348 70.6016 184.348 73.8633C184.348 77.1836 186.263 79.1953 189.202 79.1953C191.673 79.1953 193.421 77.7109 193.645 75.5234H191.614C191.37 76.7148 190.52 77.4277 189.221 77.4277C187.581 77.4277 186.497 76.1191 186.497 73.8633C186.497 71.6562 187.571 70.2988 189.202 70.2988C190.579 70.2988 191.399 71.168 191.614 72.2617H193.626ZM198.933 77.5059C197.8 77.5059 197.058 76.9199 197.058 76.0215C197.058 75.1426 197.771 74.5859 199.031 74.498L201.56 74.3418V75.1523C201.56 76.4902 200.408 77.5059 198.933 77.5059ZM198.347 79.1758C199.695 79.1758 200.994 78.4531 201.589 77.3105H201.638V79H203.66V71.9199C203.66 69.8594 202.068 68.541 199.578 68.541C197.039 68.541 195.457 69.9082 195.339 71.7637H197.332C197.517 70.8457 198.279 70.2598 199.5 70.2598C200.789 70.2598 201.56 70.9434 201.56 72.0859V72.877L198.748 73.043C196.306 73.1797 194.929 74.2832 194.929 76.0801C194.929 77.9258 196.336 79.1758 198.347 79.1758ZM206.526 66.2949V68.7266H205.032V70.3965H206.526V76.2949C206.526 78.2773 207.336 79.0684 209.416 79.0684C209.885 79.0684 210.354 79.0293 210.588 78.9707V77.3008C210.452 77.3301 210.11 77.3496 209.895 77.3496C209.036 77.3496 208.645 76.9492 208.645 76.0605V70.3965H210.598V68.7266H208.645V66.2949H206.526ZM212.605 79H214.714V68.7266H212.605V79ZM213.659 67.2227C214.343 67.2227 214.89 66.6855 214.89 66.0215C214.89 65.3477 214.343 64.8105 213.659 64.8105C212.986 64.8105 212.439 65.3477 212.439 66.0215C212.439 66.6855 212.986 67.2227 213.659 67.2227ZM221.486 79.1953C224.426 79.1953 226.359 77.1738 226.359 73.8633C226.359 70.5625 224.416 68.541 221.486 68.541C218.557 68.541 216.613 70.5625 216.613 73.8633C216.613 77.1738 218.547 79.1953 221.486 79.1953ZM221.486 77.457C219.836 77.457 218.762 76.1484 218.762 73.8633C218.762 71.5879 219.836 70.2793 221.486 70.2793C223.137 70.2793 224.211 71.5879 224.211 73.8633C224.211 76.1484 223.146 77.457 221.486 77.457ZM228.19 79H230.3V73.0137C230.3 71.4219 231.257 70.3672 232.741 70.3672C234.206 70.3672 234.929 71.2168 234.929 72.7598V79H237.048V72.3496C237.048 69.9961 235.749 68.5508 233.483 68.5508C231.901 68.5508 230.807 69.2734 230.251 70.4453H230.202V68.7266H228.19V79Z" fill="#111827"/>
<path d="M64.8572 434V421.543H64.9627L73.7283 434H76.0955V417.09H73.5408V429.559H73.447L64.6814 417.09H62.3025V434H64.8572ZM84.4566 434.234C87.9839 434.234 90.3042 431.809 90.3042 427.836C90.3042 423.875 87.9722 421.449 84.4566 421.449C80.9409 421.449 78.6089 423.875 78.6089 427.836C78.6089 431.809 80.9292 434.234 84.4566 434.234ZM84.4566 432.148C82.4761 432.148 81.187 430.578 81.187 427.836C81.187 425.105 82.4761 423.535 84.4566 423.535C86.437 423.535 87.7261 425.105 87.7261 427.836C87.7261 430.578 86.4487 432.148 84.4566 432.148ZM97.6162 434H100.147V426.816C100.147 424.906 101.296 423.641 103.077 423.641C104.835 423.641 105.702 424.66 105.702 426.512V434H108.245V426.02C108.245 423.195 106.687 421.461 103.968 421.461C102.069 421.461 100.757 422.328 100.089 423.734H100.03V421.672H97.6162V434ZM116.091 423.488C117.86 423.488 119.055 424.812 119.114 426.699H112.95C113.079 424.836 114.321 423.488 116.091 423.488ZM119.102 430.379C118.762 431.457 117.696 432.184 116.255 432.184C114.227 432.184 112.938 430.766 112.938 428.621V428.469H121.645V427.602C121.645 423.863 119.512 421.449 116.091 421.449C112.61 421.449 110.384 424.027 110.384 427.895C110.384 431.785 112.575 434.234 116.196 434.234C119.02 434.234 121.153 432.629 121.505 430.379H119.102ZM140.12 421.672H137.612L135.362 431.375H135.303L132.725 421.672H130.288L127.721 431.375H127.674L125.424 421.672H122.893L126.28 434H128.893L131.46 424.766H131.518L134.108 434H136.745L140.12 421.672ZM147.022 434H149.553V426.816C149.553 424.906 150.701 423.641 152.482 423.641C154.24 423.641 155.107 424.66 155.107 426.512V434H157.65V426.02C157.65 423.195 156.092 421.461 153.373 421.461C151.475 421.461 150.162 422.328 149.494 423.734H149.436V421.672H147.022V434ZM165.637 434.234C169.164 434.234 171.484 431.809 171.484 427.836C171.484 423.875 169.152 421.449 165.637 421.449C162.121 421.449 159.789 423.875 159.789 427.836C159.789 431.809 162.109 434.234 165.637 434.234ZM165.637 432.148C163.656 432.148 162.367 430.578 162.367 427.836C162.367 425.105 163.656 423.535 165.637 423.535C167.617 423.535 168.906 425.105 168.906 427.836C168.906 430.578 167.629 432.148 165.637 432.148ZM174.42 418.754V421.672H172.627V423.676H174.42V430.754C174.42 433.133 175.392 434.082 177.888 434.082C178.451 434.082 179.013 434.035 179.295 433.965V431.961C179.13 431.996 178.72 432.02 178.463 432.02C177.431 432.02 176.963 431.539 176.963 430.473V423.676H179.306V421.672H176.963V418.754H174.42ZM181.714 434H184.245V421.672H181.714V434ZM182.98 419.867C183.8 419.867 184.456 419.223 184.456 418.426C184.456 417.617 183.8 416.973 182.98 416.973C182.171 416.973 181.515 417.617 181.515 418.426C181.515 419.223 182.171 419.867 182.98 419.867ZM187.814 434H190.357V423.676H192.818V421.695H190.321V420.535C190.321 419.445 190.837 418.895 191.939 418.895C192.278 418.895 192.618 418.918 192.864 418.965V417.09C192.536 417.031 191.962 416.973 191.446 416.973C188.939 416.973 187.814 418.098 187.814 420.488V421.695H186.114V423.676H187.814V434ZM195.132 434H197.663V421.672H195.132V434ZM196.397 419.867C197.218 419.867 197.874 419.223 197.874 418.426C197.874 417.617 197.218 416.973 196.397 416.973C195.589 416.973 194.932 417.617 194.932 418.426C194.932 419.223 195.589 419.867 196.397 419.867ZM211.075 425.914C210.852 423.488 208.919 421.449 205.743 421.449C202.239 421.449 199.942 423.922 199.942 427.836C199.942 431.82 202.239 434.234 205.766 434.234C208.731 434.234 210.829 432.453 211.098 429.828H208.661C208.368 431.258 207.348 432.113 205.79 432.113C203.821 432.113 202.52 430.543 202.52 427.836C202.52 425.188 203.809 423.559 205.766 423.559C207.419 423.559 208.403 424.602 208.661 425.914H211.075ZM217.444 432.207C216.084 432.207 215.194 431.504 215.194 430.426C215.194 429.371 216.049 428.703 217.561 428.598L220.596 428.41V429.383C220.596 430.988 219.213 432.207 217.444 432.207ZM216.741 434.211C218.358 434.211 219.916 433.344 220.631 431.973H220.69V434H223.116V425.504C223.116 423.031 221.205 421.449 218.217 421.449C215.17 421.449 213.272 423.09 213.131 425.316H215.522C215.745 424.215 216.659 423.512 218.123 423.512C219.67 423.512 220.596 424.332 220.596 425.703V426.652L217.221 426.852C214.291 427.016 212.639 428.34 212.639 430.496C212.639 432.711 214.327 434.211 216.741 434.211ZM226.555 418.754V421.672H224.762V423.676H226.555V430.754C226.555 433.133 227.527 434.082 230.024 434.082C230.586 434.082 231.149 434.035 231.43 433.965V431.961C231.266 431.996 230.856 432.02 230.598 432.02C229.567 432.02 229.098 431.539 229.098 430.473V423.676H231.442V421.672H229.098V418.754H226.555ZM233.85 434H236.381V421.672H233.85V434ZM235.115 419.867C235.935 419.867 236.592 419.223 236.592 418.426C236.592 417.617 235.935 416.973 235.115 416.973C234.307 416.973 233.65 417.617 233.65 418.426C233.65 419.223 234.307 419.867 235.115 419.867ZM244.508 434.234C248.035 434.234 250.355 431.809 250.355 427.836C250.355 423.875 248.023 421.449 244.508 421.449C240.992 421.449 238.66 423.875 238.66 427.836C238.66 431.809 240.98 434.234 244.508 434.234ZM244.508 432.148C242.527 432.148 241.238 430.578 241.238 427.836C241.238 425.105 242.527 423.535 244.508 423.535C246.488 423.535 247.777 425.105 247.777 427.836C247.777 430.578 246.5 432.148 244.508 432.148ZM252.552 434H255.083V426.816C255.083 424.906 256.232 423.641 258.013 423.641C259.771 423.641 260.638 424.66 260.638 426.512V434H263.181V426.02C263.181 423.195 261.622 421.461 258.904 421.461C257.005 421.461 255.693 422.328 255.025 423.734H254.966V421.672H252.552V434ZM265.648 425.164C265.648 426.887 266.773 428.047 268.999 428.586L271.202 429.125C272.491 429.453 272.96 429.887 272.96 430.672C272.96 431.668 272.023 432.301 270.499 432.301C268.952 432.301 268.038 431.645 267.839 430.461H265.331C265.53 432.723 267.464 434.234 270.382 434.234C273.405 434.234 275.503 432.688 275.503 430.438C275.503 428.621 274.566 427.684 272.081 427.086L270.007 426.605C268.73 426.289 268.12 425.773 268.12 425.012C268.12 424.039 269.034 423.371 270.405 423.371C271.823 423.371 272.726 424.062 272.843 425.176H275.222C275.14 422.984 273.218 421.449 270.476 421.449C267.593 421.449 265.648 422.961 265.648 425.164ZM284.046 438.594C286.612 438.594 287.819 437.633 288.874 434.645L293.503 421.672H290.831L287.702 431.703H287.667L284.538 421.672H281.796L286.249 434.012C286.249 434.023 286.026 434.75 286.026 434.773C285.639 436.039 285.018 436.531 283.835 436.531C283.624 436.531 283.202 436.531 283.014 436.484V438.535C283.202 438.57 283.846 438.594 284.046 438.594ZM300.036 423.488C301.805 423.488 303 424.812 303.059 426.699H296.895C297.024 424.836 298.266 423.488 300.036 423.488ZM303.047 430.379C302.707 431.457 301.641 432.184 300.2 432.184C298.172 432.184 296.883 430.766 296.883 428.621V428.469H305.59V427.602C305.59 423.863 303.457 421.449 300.036 421.449C296.555 421.449 294.329 424.027 294.329 427.895C294.329 431.785 296.52 434.234 300.141 434.234C302.965 434.234 305.098 432.629 305.45 430.379H303.047ZM308.537 418.754V421.672H306.744V423.676H308.537V430.754C308.537 433.133 309.51 434.082 312.006 434.082C312.569 434.082 313.131 434.035 313.412 433.965V431.961C313.248 431.996 312.838 432.02 312.58 432.02C311.549 432.02 311.08 431.539 311.08 430.473V423.676H313.424V421.672H311.08V418.754H308.537Z" fill="#111827"/>
<path d="M63.2006 470V465.148L67.2006 458.727H65.5991L62.5209 463.789H62.4741L59.3959 458.727H57.7944L61.7944 465.148V470H63.2006ZM70.3216 470.141C72.5637 470.141 74.0794 468.523 74.0794 465.938C74.0794 463.344 72.5637 461.734 70.3216 461.734C68.0716 461.734 66.5559 463.344 66.5559 465.938C66.5559 468.523 68.0716 470.141 70.3216 470.141ZM70.3216 468.945C68.8841 468.945 67.9387 467.852 67.9387 465.938C67.9387 464.023 68.8841 462.93 70.3216 462.93C71.7591 462.93 72.6966 464.023 72.6966 465.938C72.6966 467.852 71.7591 468.945 70.3216 468.945ZM82.2862 461.875H80.9269V466.648C80.9269 468.031 80.13 468.938 78.8097 468.938C77.5519 468.938 76.9347 468.227 76.9347 466.906V461.875H75.5753V467.148C75.5753 468.992 76.6144 470.141 78.3878 470.141C79.6378 470.141 80.4816 469.617 80.9659 468.68H80.9972V470H82.2862V461.875ZM97.9891 461.875H96.6453L95.0203 468.484H94.9891L93.1453 461.875H91.8328L89.9969 468.484H89.9656L88.3406 461.875H86.9891L89.2625 470H90.6453L92.4734 463.711H92.5047L94.3406 470H95.7234L97.9891 461.875ZM99.3366 470H100.696V461.875H99.3366V470ZM100.016 460.508C100.485 460.508 100.868 460.125 100.868 459.664C100.868 459.195 100.485 458.82 100.016 458.82C99.5553 458.82 99.1725 459.195 99.1725 459.664C99.1725 460.125 99.5553 460.508 100.016 460.508ZM102.762 470H104.122V458.727H102.762V470ZM106.188 470H107.547V458.727H106.188V470ZM112.984 470H114.344V464.938C114.344 463.789 115.031 463.031 116.086 463.031C116.414 463.031 116.703 463.07 116.812 463.109V461.789C116.703 461.773 116.5 461.734 116.266 461.734C115.312 461.734 114.562 462.305 114.297 463.203H114.266V461.875H112.984V470ZM120.949 462.914C122.23 462.914 123.082 463.883 123.113 465.242H118.699C118.785 463.891 119.676 462.914 120.949 462.914ZM123.082 467.672C122.855 468.438 122.097 468.961 121.066 468.961C119.605 468.961 118.691 467.938 118.691 466.383V466.305H124.519V465.789C124.519 463.328 123.168 461.734 120.972 461.734C118.73 461.734 117.293 463.445 117.293 465.969C117.293 468.523 118.707 470.141 121.035 470.141C122.808 470.141 124.183 469.094 124.418 467.672H123.082ZM132.804 464.539C132.632 463.078 131.422 461.734 129.39 461.734C127.148 461.734 125.656 463.375 125.656 465.938C125.656 468.555 127.156 470.141 129.406 470.141C131.25 470.141 132.609 469 132.82 467.383H131.484C131.25 468.359 130.523 468.945 129.414 468.945C128.007 468.945 127.039 467.828 127.039 465.938C127.039 464.094 127.992 462.93 129.398 462.93C130.593 462.93 131.281 463.656 131.476 464.539H132.804ZM137.488 462.914C138.769 462.914 139.621 463.883 139.652 465.242H135.238C135.324 463.891 136.214 462.914 137.488 462.914ZM139.621 467.672C139.394 468.438 138.636 468.961 137.605 468.961C136.144 468.961 135.23 467.938 135.23 466.383V466.305H141.058V465.789C141.058 463.328 139.707 461.734 137.511 461.734C135.269 461.734 133.832 463.445 133.832 465.969C133.832 468.523 135.246 470.141 137.574 470.141C139.347 470.141 140.722 469.094 140.957 467.672H139.621ZM142.663 470H144.023V461.875H142.663V470ZM143.343 460.508C143.812 460.508 144.195 460.125 144.195 459.664C144.195 459.195 143.812 458.82 143.343 458.82C142.882 458.82 142.499 459.195 142.499 459.664C142.499 460.125 142.882 460.508 143.343 460.508ZM152.683 461.875H151.269L149.019 468.555H148.987L146.745 461.875H145.316L148.308 470H149.698L152.683 461.875ZM156.937 462.914C158.218 462.914 159.069 463.883 159.101 465.242H154.687C154.772 463.891 155.663 462.914 156.937 462.914ZM159.069 467.672C158.843 468.438 158.085 468.961 157.054 468.961C155.593 468.961 154.679 467.938 154.679 466.383V466.305H160.507V465.789C160.507 463.328 159.155 461.734 156.96 461.734C154.718 461.734 153.28 463.445 153.28 465.969C153.28 468.523 154.694 470.141 157.022 470.141C158.796 470.141 160.171 469.094 160.405 467.672H159.069ZM168.163 468.984C167.186 468.984 166.538 468.477 166.538 467.703C166.538 466.938 167.163 466.453 168.257 466.383L170.428 466.25V466.914C170.428 468.086 169.444 468.984 168.163 468.984ZM167.858 470.141C168.952 470.141 169.983 469.531 170.467 468.602H170.499V470H171.788V464.383C171.788 462.766 170.585 461.734 168.678 461.734C166.757 461.734 165.553 462.812 165.46 464.219H166.772C166.944 463.422 167.6 462.93 168.647 462.93C169.772 462.93 170.428 463.523 170.428 464.516V465.195L168.1 465.328C166.225 465.438 165.155 466.312 165.155 467.703C165.155 469.164 166.241 470.141 167.858 470.141ZM177.116 470H178.475V465.219C178.475 463.844 179.311 462.938 180.592 462.938C181.842 462.938 182.459 463.656 182.459 464.969V470H183.819V464.727C183.819 462.883 182.787 461.734 181.006 461.734C179.748 461.734 178.881 462.297 178.428 463.172H178.397V461.875H177.116V470ZM189.08 470.141C191.322 470.141 192.838 468.523 192.838 465.938C192.838 463.344 191.322 461.734 189.08 461.734C186.83 461.734 185.315 463.344 185.315 465.938C185.315 468.523 186.83 470.141 189.08 470.141ZM189.08 468.945C187.643 468.945 186.697 467.852 186.697 465.938C186.697 464.023 187.643 462.93 189.08 462.93C190.518 462.93 191.455 464.023 191.455 465.938C191.455 467.852 190.518 468.945 189.08 468.945ZM194.811 459.914V461.875H193.6V462.992H194.811V467.891C194.811 469.453 195.389 470.062 196.881 470.062C197.201 470.062 197.576 470.039 197.74 470V468.859C197.647 468.875 197.334 468.898 197.178 468.898C196.482 468.898 196.17 468.562 196.17 467.82V462.992H197.748V461.875H196.17V459.914H194.811ZM199.432 470H200.791V461.875H199.432V470ZM200.111 460.508C200.58 460.508 200.963 460.125 200.963 459.664C200.963 459.195 200.58 458.82 200.111 458.82C199.65 458.82 199.268 459.195 199.268 459.664C199.268 460.125 199.65 460.508 200.111 460.508ZM203.224 470H204.584V462.992H206.24V461.875H204.576V460.977C204.576 460.172 204.927 459.781 205.662 459.781C205.888 459.781 206.115 459.805 206.279 459.828V458.727C206.084 458.695 205.756 458.664 205.451 458.664C203.951 458.664 203.224 459.406 203.224 460.969V461.875H202.092V462.992H203.224V470ZM207.877 470H209.236V461.875H207.877V470ZM208.556 460.508C209.025 460.508 209.408 460.125 209.408 459.664C209.408 459.195 209.025 458.82 208.556 458.82C208.095 458.82 207.712 459.195 207.712 459.664C207.712 460.125 208.095 460.508 208.556 460.508ZM217.982 464.539C217.81 463.078 216.599 461.734 214.568 461.734C212.326 461.734 210.833 463.375 210.833 465.938C210.833 468.555 212.333 470.141 214.583 470.141C216.427 470.141 217.787 469 217.997 467.383H216.662C216.427 468.359 215.701 468.945 214.591 468.945C213.185 468.945 212.216 467.828 212.216 465.938C212.216 464.094 213.169 462.93 214.576 462.93C215.771 462.93 216.458 463.656 216.654 464.539H217.982ZM222.087 468.984C221.111 468.984 220.462 468.477 220.462 467.703C220.462 466.938 221.087 466.453 222.181 466.383L224.353 466.25V466.914C224.353 468.086 223.368 468.984 222.087 468.984ZM221.783 470.141C222.876 470.141 223.908 469.531 224.392 468.602H224.423V470H225.712V464.383C225.712 462.766 224.509 461.734 222.603 461.734C220.681 461.734 219.478 462.812 219.384 464.219H220.697C220.868 463.422 221.525 462.93 222.572 462.93C223.697 462.93 224.353 463.523 224.353 464.516V465.195L222.025 465.328C220.15 465.438 219.079 466.312 219.079 467.703C219.079 469.164 220.165 470.141 221.783 470.141ZM228.036 459.914V461.875H226.825V462.992H228.036V467.891C228.036 469.453 228.614 470.062 230.107 470.062C230.427 470.062 230.802 470.039 230.966 470V468.859C230.872 468.875 230.56 468.898 230.403 468.898C229.708 468.898 229.396 468.562 229.396 467.82V462.992H230.974V461.875H229.396V459.914H228.036ZM232.657 470H234.017V461.875H232.657V470ZM233.337 460.508C233.806 460.508 234.188 460.125 234.188 459.664C234.188 459.195 233.806 458.82 233.337 458.82C232.876 458.82 232.493 459.195 232.493 459.664C232.493 460.125 232.876 460.508 233.337 460.508ZM239.38 470.141C241.622 470.141 243.137 468.523 243.137 465.938C243.137 463.344 241.622 461.734 239.38 461.734C237.13 461.734 235.614 463.344 235.614 465.938C235.614 468.523 237.13 470.141 239.38 470.141ZM239.38 468.945C237.942 468.945 236.997 467.852 236.997 465.938C236.997 464.023 237.942 462.93 239.38 462.93C240.817 462.93 241.755 464.023 241.755 465.938C241.755 467.852 240.817 468.945 239.38 468.945ZM244.673 470H246.032V465.219C246.032 463.844 246.868 462.938 248.149 462.938C249.399 462.938 250.016 463.656 250.016 464.969V470H251.376V464.727C251.376 462.883 250.344 461.734 248.563 461.734C247.305 461.734 246.438 462.297 245.985 463.172H245.954V461.875H244.673V470ZM256.782 470H258.141V461.875H256.782V470ZM257.461 460.508C257.93 460.508 258.313 460.125 258.313 459.664C258.313 459.195 257.93 458.82 257.461 458.82C257 458.82 256.617 459.195 256.617 459.664C256.617 460.125 257 460.508 257.461 460.508ZM260.574 470H261.934V462.992H263.59V461.875H261.926V460.977C261.926 460.172 262.277 459.781 263.012 459.781C263.238 459.781 263.465 459.805 263.629 459.828V458.727C263.434 458.695 263.106 458.664 262.801 458.664C261.301 458.664 260.574 459.406 260.574 460.969V461.875H259.442V462.992H260.574V470ZM269.035 459.914V461.875H267.824V462.992H269.035V467.891C269.035 469.453 269.613 470.062 271.105 470.062C271.426 470.062 271.801 470.039 271.965 470V468.859C271.871 468.875 271.558 468.898 271.402 468.898C270.707 468.898 270.394 468.562 270.394 467.82V462.992H271.973V461.875H270.394V459.914H269.035ZM273.656 470H275.015V465.266C275.015 463.859 275.851 462.938 277.203 462.938C278.476 462.938 279.125 463.711 279.125 465V470H280.484V464.75C280.484 462.938 279.406 461.734 277.625 461.734C276.39 461.734 275.5 462.266 275.047 463.172H275.015V458.727H273.656V470ZM285.628 462.914C286.91 462.914 287.761 463.883 287.792 465.242H283.378C283.464 463.891 284.355 462.914 285.628 462.914ZM287.761 467.672C287.535 468.438 286.777 468.961 285.746 468.961C284.285 468.961 283.371 467.938 283.371 466.383V466.305H289.199V465.789C289.199 463.328 287.847 461.734 285.652 461.734C283.41 461.734 281.972 463.445 281.972 465.969C281.972 468.523 283.386 470.141 285.714 470.141C287.488 470.141 288.863 469.094 289.097 467.672H287.761ZM290.734 470H292.093V464.938C292.093 463.789 292.781 463.031 293.835 463.031C294.163 463.031 294.452 463.07 294.562 463.109V461.789C294.452 461.773 294.249 461.734 294.015 461.734C293.062 461.734 292.312 462.305 292.046 463.203H292.015V461.875H290.734V470ZM298.698 462.914C299.98 462.914 300.831 463.883 300.863 465.242H296.448C296.534 463.891 297.425 462.914 298.698 462.914ZM300.831 467.672C300.605 468.438 299.847 468.961 298.816 468.961C297.355 468.961 296.441 467.938 296.441 466.383V466.305H302.269V465.789C302.269 463.328 300.917 461.734 298.722 461.734C296.48 461.734 295.042 463.445 295.042 465.969C295.042 468.523 296.456 470.141 298.784 470.141C300.558 470.141 301.933 469.094 302.167 467.672H300.831ZM307.315 470H308.675V461.875H307.315V470ZM307.995 460.508C308.464 460.508 308.847 460.125 308.847 459.664C308.847 459.195 308.464 458.82 307.995 458.82C307.534 458.82 307.151 459.195 307.151 459.664C307.151 460.125 307.534 460.508 307.995 460.508ZM310.53 464.117C310.53 465.227 311.233 465.961 312.663 466.328L314.092 466.695C315.007 466.938 315.342 467.25 315.342 467.828C315.342 468.562 314.663 469.031 313.561 469.031C312.46 469.031 311.819 468.578 311.671 467.734H310.311C310.452 469.172 311.694 470.141 313.475 470.141C315.374 470.141 316.71 469.141 316.71 467.727C316.71 466.531 316.116 465.938 314.475 465.523L313.217 465.219C312.296 464.984 311.866 464.609 311.866 464.047C311.866 463.336 312.522 462.844 313.514 462.844C314.514 462.844 315.147 463.328 315.241 464.109H316.538C316.475 462.734 315.241 461.734 313.561 461.734C311.772 461.734 310.53 462.727 310.53 464.117ZM95.6034 485.117C95.6034 486.227 96.3066 486.961 97.7363 487.328L99.1659 487.695C100.08 487.938 100.416 488.25 100.416 488.828C100.416 489.562 99.7363 490.031 98.6347 490.031C97.5331 490.031 96.8925 489.578 96.7441 488.734H95.3847C95.5253 490.172 96.7675 491.141 98.5488 491.141C100.447 491.141 101.783 490.141 101.783 488.727C101.783 487.531 101.189 486.938 99.5488 486.523L98.2909 486.219C97.3691 485.984 96.9394 485.609 96.9394 485.047C96.9394 484.336 97.5956 483.844 98.5878 483.844C99.5878 483.844 100.221 484.328 100.314 485.109H101.611C101.549 483.734 100.314 482.734 98.6347 482.734C96.8456 482.734 95.6034 483.727 95.6034 485.117ZM106.724 491.141C108.967 491.141 110.482 489.523 110.482 486.938C110.482 484.344 108.967 482.734 106.724 482.734C104.474 482.734 102.959 484.344 102.959 486.938C102.959 489.523 104.474 491.141 106.724 491.141ZM106.724 489.945C105.287 489.945 104.342 488.852 104.342 486.938C104.342 485.023 105.287 483.93 106.724 483.93C108.162 483.93 109.099 485.023 109.099 486.938C109.099 488.852 108.162 489.945 106.724 489.945ZM112.017 491H113.377V485.906C113.377 484.781 114.158 483.938 115.236 483.938C116.244 483.938 116.9 484.578 116.9 485.555V491H118.259V485.836C118.259 484.734 119.017 483.938 120.095 483.938C121.166 483.938 121.783 484.594 121.783 485.703V491H123.142V485.391C123.142 483.781 122.103 482.734 120.494 482.734C119.353 482.734 118.4 483.312 117.947 484.281H117.916C117.564 483.297 116.744 482.734 115.634 482.734C114.541 482.734 113.713 483.312 113.33 484.172H113.298V482.875H112.017V491ZM128.294 483.914C129.576 483.914 130.427 484.883 130.458 486.242H126.044C126.13 484.891 127.021 483.914 128.294 483.914ZM130.427 488.672C130.201 489.438 129.443 489.961 128.412 489.961C126.951 489.961 126.037 488.938 126.037 487.383V487.305H131.865V486.789C131.865 484.328 130.513 482.734 128.318 482.734C126.076 482.734 124.638 484.445 124.638 486.969C124.638 489.523 126.052 491.141 128.38 491.141C130.154 491.141 131.529 490.094 131.763 488.672H130.427ZM133.837 480.914V482.875H132.626V483.992H133.837V488.891C133.837 490.453 134.415 491.062 135.908 491.062C136.228 491.062 136.603 491.039 136.767 491V489.859C136.673 489.875 136.361 489.898 136.204 489.898C135.509 489.898 135.197 489.562 135.197 488.82V483.992H136.775V482.875H135.197V480.914H133.837ZM138.458 491H139.818V486.266C139.818 484.859 140.653 483.938 142.005 483.938C143.278 483.938 143.927 484.711 143.927 486V491H145.286V485.75C145.286 483.938 144.208 482.734 142.427 482.734C141.193 482.734 140.302 483.266 139.849 484.172H139.818V479.727H138.458V491ZM147.243 491H148.603V482.875H147.243V491ZM147.923 481.508C148.392 481.508 148.774 481.125 148.774 480.664C148.774 480.195 148.392 479.82 147.923 479.82C147.462 479.82 147.079 480.195 147.079 480.664C147.079 481.125 147.462 481.508 147.923 481.508ZM150.598 491H151.958V486.219C151.958 484.844 152.794 483.938 154.075 483.938C155.325 483.938 155.942 484.656 155.942 485.969V491H157.302V485.727C157.302 483.883 156.27 482.734 154.489 482.734C153.231 482.734 152.364 483.297 151.911 484.172H151.88V482.875H150.598V491ZM162.501 489.867C161.102 489.867 160.188 488.727 160.188 486.906C160.188 485.086 161.102 483.93 162.501 483.93C163.915 483.93 164.86 485.117 164.86 486.906C164.86 488.695 163.915 489.867 162.501 489.867ZM162.548 494.062C164.79 494.062 166.219 492.773 166.219 490.836V482.875H164.923V484.242H164.899C164.36 483.297 163.407 482.734 162.258 482.734C160.157 482.734 158.798 484.359 158.798 486.906C158.798 489.43 160.157 491.062 162.227 491.062C163.368 491.062 164.329 490.484 164.829 489.602H164.86V490.883C164.86 492.094 164.008 492.906 162.602 492.906C161.587 492.906 160.782 492.414 160.516 491.672H159.118C159.344 493.055 160.758 494.062 162.548 494.062ZM174.961 491.141C177.203 491.141 178.719 489.523 178.719 486.938C178.719 484.344 177.203 482.734 174.961 482.734C172.711 482.734 171.196 484.344 171.196 486.938C171.196 489.523 172.711 491.141 174.961 491.141ZM174.961 489.945C173.524 489.945 172.578 488.852 172.578 486.938C172.578 485.023 173.524 483.93 174.961 483.93C176.399 483.93 177.336 485.023 177.336 486.938C177.336 488.852 176.399 489.945 174.961 489.945ZM180.254 491H181.613V486.219C181.613 484.844 182.449 483.938 183.731 483.938C184.981 483.938 185.598 484.656 185.598 485.969V491H186.957V485.727C186.957 483.883 185.926 482.734 184.145 482.734C182.887 482.734 182.02 483.297 181.567 484.172H181.535V482.875H180.254V491ZM192.965 494.039C194.433 494.039 195.105 493.469 195.801 491.57L198.996 482.875H197.566L195.316 489.641H195.293L193.043 482.875H191.59L194.59 491.008L194.402 491.578C194.09 492.523 193.668 492.891 192.91 492.891C192.738 492.891 192.527 492.883 192.379 492.852V493.992C192.527 494.023 192.801 494.039 192.965 494.039ZM203.367 491.141C205.609 491.141 207.125 489.523 207.125 486.938C207.125 484.344 205.609 482.734 203.367 482.734C201.117 482.734 199.601 484.344 199.601 486.938C199.601 489.523 201.117 491.141 203.367 491.141ZM203.367 489.945C201.929 489.945 200.984 488.852 200.984 486.938C200.984 485.023 201.929 483.93 203.367 483.93C204.804 483.93 205.742 485.023 205.742 486.938C205.742 488.852 204.804 489.945 203.367 489.945ZM215.332 482.875H213.972V487.648C213.972 489.031 213.175 489.938 211.855 489.938C210.597 489.938 209.98 489.227 209.98 487.906V482.875H208.621V488.148C208.621 489.992 209.66 491.141 211.433 491.141C212.683 491.141 213.527 490.617 214.011 489.68H214.043V491H215.332V482.875ZM217.257 491H218.617V485.938C218.617 484.789 219.304 484.031 220.359 484.031C220.687 484.031 220.976 484.07 221.085 484.109V482.789C220.976 482.773 220.773 482.734 220.538 482.734C219.585 482.734 218.835 483.305 218.57 484.203H218.538V482.875H217.257V491ZM228.476 489.984C227.499 489.984 226.851 489.477 226.851 488.703C226.851 487.938 227.476 487.453 228.569 487.383L230.741 487.25V487.914C230.741 489.086 229.757 489.984 228.476 489.984ZM228.171 491.141C229.265 491.141 230.296 490.531 230.78 489.602H230.812V491H232.101V485.383C232.101 483.766 230.898 482.734 228.991 482.734C227.069 482.734 225.866 483.812 225.773 485.219H227.085C227.257 484.422 227.913 483.93 228.96 483.93C230.085 483.93 230.741 484.523 230.741 485.516V486.195L228.413 486.328C226.538 486.438 225.468 487.312 225.468 488.703C225.468 490.164 226.554 491.141 228.171 491.141ZM240.737 485.539C240.565 484.078 239.354 482.734 237.323 482.734C235.081 482.734 233.589 484.375 233.589 486.938C233.589 489.555 235.089 491.141 237.339 491.141C239.182 491.141 240.542 490 240.753 488.383H239.417C239.182 489.359 238.456 489.945 237.347 489.945C235.94 489.945 234.972 488.828 234.972 486.938C234.972 485.094 235.925 483.93 237.331 483.93C238.526 483.93 239.214 484.656 239.409 485.539H240.737ZM248.913 485.539C248.741 484.078 247.53 482.734 245.499 482.734C243.257 482.734 241.764 484.375 241.764 486.938C241.764 489.555 243.264 491.141 245.514 491.141C247.358 491.141 248.717 490 248.928 488.383H247.592C247.358 489.359 246.632 489.945 245.522 489.945C244.116 489.945 243.147 488.828 243.147 486.938C243.147 485.094 244.1 483.93 245.507 483.93C246.702 483.93 247.389 484.656 247.585 485.539H248.913ZM253.706 491.141C255.948 491.141 257.463 489.523 257.463 486.938C257.463 484.344 255.948 482.734 253.706 482.734C251.456 482.734 249.94 484.344 249.94 486.938C249.94 489.523 251.456 491.141 253.706 491.141ZM253.706 489.945C252.268 489.945 251.323 488.852 251.323 486.938C251.323 485.023 252.268 483.93 253.706 483.93C255.143 483.93 256.081 485.023 256.081 486.938C256.081 488.852 255.143 489.945 253.706 489.945ZM265.67 482.875H264.311V487.648C264.311 489.031 263.514 489.938 262.194 489.938C260.936 489.938 260.319 489.227 260.319 487.906V482.875H258.959V488.148C258.959 489.992 259.998 491.141 261.772 491.141C263.022 491.141 263.866 490.617 264.35 489.68H264.381V491H265.67V482.875ZM267.596 491H268.955V486.219C268.955 484.844 269.791 483.938 271.072 483.938C272.322 483.938 272.94 484.656 272.94 485.969V491H274.299V485.727C274.299 483.883 273.268 482.734 271.487 482.734C270.229 482.734 269.362 483.297 268.908 484.172H268.877V482.875H267.596V491ZM276.631 480.914V482.875H275.42V483.992H276.631V488.891C276.631 490.453 277.209 491.062 278.701 491.062C279.022 491.062 279.397 491.039 279.561 491V489.859C279.467 489.875 279.154 489.898 278.998 489.898C278.303 489.898 277.99 489.562 277.99 488.82V483.992H279.568V482.875H277.99V480.914H276.631Z" fill="#6B7280"/>
<circle cx="190" cy="318" r="66" fill="#F0F5FF"/>
<circle cx="190" cy="318" r="50" fill="#E0EBFF"/>
<path d="M190 314.3C188.975 314.3 188.125 313.45 188.125 312.425V304.1C188.125 303.075 188.975 302.225 190 302.225C191.025 302.225 191.875 303.075 191.875 304.1V312.425C191.875 313.475 191.025 314.3 190 314.3Z" fill="#3366FF"/>
<path d="M190.05 338.875C183.6 338.875 177.175 337.85 171.05 335.8C168.775 335.05 167.05 333.425 166.3 331.375C165.55 329.325 165.8 326.975 167.025 324.925L170.2 319.625C170.9 318.45 171.525 316.25 171.525 314.875V309.625C171.525 299.4 179.825 291.1 190.05 291.1C200.275 291.1 208.575 299.4 208.575 309.625V314.875C208.575 316.225 209.2 318.45 209.9 319.625L213.075 324.925C214.25 326.875 214.45 329.2 213.675 331.325C212.9 333.45 211.2 335.075 209.05 335.8C202.925 337.875 196.5 338.875 190.05 338.875ZM190.05 294.875C181.9 294.875 175.275 301.5 175.275 309.65V314.9C175.275 316.925 174.475 319.85 173.425 321.575L170.25 326.9C169.6 327.975 169.45 329.125 169.825 330.125C170.2 331.125 171.05 331.875 172.25 332.275C183.75 336.1 196.4 336.1 207.9 332.275C208.975 331.925 209.8 331.125 210.175 330.075C210.575 329.025 210.45 327.875 209.875 326.9L206.7 321.6C205.65 319.875 204.85 316.95 204.85 314.925V309.675C204.825 301.5 198.2 294.875 190.05 294.875Z" fill="#091A7A"/>
<path d="M190 345.25C187.325 345.25 184.7 344.15 182.8 342.25C180.9 340.35 179.8 337.725 179.8 335.05H183.55C183.55 336.75 184.25 338.4 185.45 339.6C186.65 340.8 188.3 341.5 190 341.5C193.55 341.5 196.45 338.6 196.45 335.05H200.2C200.2 340.675 195.625 345.25 190 345.25Z" fill="#3366FF"/>
<circle cx="265" cy="356" r="9" fill="#D6E4FF"/>
<circle cx="108" cy="312" r="7" fill="#D6E4FF"/>
<circle cx="242" cy="247" r="5" fill="#D6E4FF"/>
<rect x="121" y="799" width="134" height="5" rx="2.5" fill="#1F2937"/>
</g>
<defs>
<clipPath id="clip0_219_4450">
<rect width="375" height="812" rx="20" fill="white"/>
</clipPath>
<clipPath id="clip1_219_4450">
<rect width="375" height="44" fill="white"/>
</clipPath>
</defs>
</svg>
