<svg width="300" height="122" viewBox="0 0 300 122" fill="none" xmlns="http://www.w3.org/2000/svg">
<path d="M58.1916 26V19.0742L64.1564 9.08984H61.2502L56.9377 16.5547H56.8556L52.5431 9.08984H49.6134L55.5666 19.0742V26H58.1916ZM68.8964 26.2344C72.4237 26.2344 74.7441 23.8086 74.7441 19.8359C74.7441 15.875 72.412 13.4492 68.8964 13.4492C65.3808 13.4492 63.0487 15.875 63.0487 19.8359C63.0487 23.8086 65.3691 26.2344 68.8964 26.2344ZM68.8964 24.1484C66.9159 24.1484 65.6269 22.5781 65.6269 19.8359C65.6269 17.1055 66.9159 15.5352 68.8964 15.5352C70.8769 15.5352 72.1659 17.1055 72.1659 19.8359C72.1659 22.5781 70.8886 24.1484 68.8964 24.1484ZM87.5114 13.6719H84.9801V20.8555C84.9801 22.7773 83.8786 24.043 82.0505 24.043C80.3044 24.043 79.4137 23.0352 79.4137 21.1602V13.6719H76.8825V21.6523C76.8825 24.4766 78.5231 26.2227 81.2067 26.2227C83.0934 26.2227 84.3473 25.3906 85.027 23.9141H85.0856V26H87.5114V13.6719ZM90.2592 26H92.7905V18.6172C92.7905 16.8711 93.7983 15.7812 95.4272 15.7812C95.9194 15.7812 96.3647 15.8398 96.5639 15.9219V13.5664C96.3764 13.5312 96.06 13.4727 95.6967 13.4727C94.2436 13.4727 93.142 14.3281 92.7319 15.7695H92.6733V13.6719H90.2592V26ZM108.118 26.2109C109.911 26.2109 111.317 25.3086 112.044 23.9023H112.091V26H114.552V9.08984H112.009V15.7227H111.962C111.27 14.3633 109.864 13.4727 108.095 13.4727C105.001 13.4727 102.938 15.9453 102.938 19.8359C102.938 23.7266 105.001 26.2109 108.118 26.2109ZM108.786 15.6055C110.731 15.6055 112.032 17.2812 112.032 19.8359C112.032 22.4141 110.731 24.0664 108.786 24.0664C106.782 24.0664 105.528 22.4375 105.528 19.8359C105.528 17.2461 106.782 15.6055 108.786 15.6055ZM121.706 24.207C120.346 24.207 119.456 23.5039 119.456 22.4258C119.456 21.3711 120.311 20.7031 121.823 20.5977L124.858 20.4102V21.3828C124.858 22.9883 123.475 24.207 121.706 24.207ZM121.003 26.2109C122.62 26.2109 124.178 25.3438 124.893 23.9727H124.952V26H127.378V17.5039C127.378 15.0312 125.467 13.4492 122.479 13.4492C119.432 13.4492 117.534 15.0898 117.393 17.3164H119.784C120.007 16.2148 120.921 15.5117 122.385 15.5117C123.932 15.5117 124.858 16.332 124.858 17.7031V18.6523L121.483 18.8516C118.553 19.0156 116.901 20.3398 116.901 22.4961C116.901 24.7109 118.589 26.2109 121.003 26.2109ZM130.817 10.7539V13.6719H129.024V15.6758H130.817V22.7539C130.817 25.1328 131.79 26.082 134.286 26.082C134.848 26.082 135.411 26.0352 135.692 25.9648V23.9609C135.528 23.9961 135.118 24.0195 134.86 24.0195C133.829 24.0195 133.36 23.5391 133.36 22.4727V15.6758H135.704V13.6719H133.36V10.7539H130.817ZM142.155 24.207C140.795 24.207 139.905 23.5039 139.905 22.4258C139.905 21.3711 140.76 20.7031 142.272 20.5977L145.307 20.4102V21.3828C145.307 22.9883 143.924 24.207 142.155 24.207ZM141.451 26.2109C143.069 26.2109 144.627 25.3438 145.342 23.9727H145.401V26H147.826V17.5039C147.826 15.0312 145.916 13.4492 142.928 13.4492C139.881 13.4492 137.983 15.0898 137.842 17.3164H140.233C140.455 16.2148 141.369 15.5117 142.834 15.5117C144.381 15.5117 145.307 16.332 145.307 17.7031V18.6523L141.932 18.8516C139.002 19.0156 137.35 20.3398 137.35 22.4961C137.35 24.7109 139.037 26.2109 141.451 26.2109ZM155.736 26H158.267V18.875C158.267 16.9297 159.416 15.6406 161.291 15.6406C163.072 15.6406 163.986 16.7305 163.986 18.5469V26H166.529V18.0547C166.529 15.2656 164.912 13.4609 162.205 13.4609C160.33 13.4609 158.982 14.293 158.302 15.7344H158.244V9.08984H155.736V26ZM173.531 24.207C172.171 24.207 171.281 23.5039 171.281 22.4258C171.281 21.3711 172.136 20.7031 173.648 20.5977L176.683 20.4102V21.3828C176.683 22.9883 175.3 24.207 173.531 24.207ZM172.828 26.2109C174.445 26.2109 176.003 25.3438 176.718 23.9727H176.777V26H179.203V17.5039C179.203 15.0312 177.292 13.4492 174.304 13.4492C171.257 13.4492 169.359 15.0898 169.218 17.3164H171.609C171.832 16.2148 172.746 15.5117 174.21 15.5117C175.757 15.5117 176.683 16.332 176.683 17.7031V18.6523L173.308 18.8516C170.378 19.0156 168.726 20.3398 168.726 22.4961C168.726 24.7109 170.414 26.2109 172.828 26.2109ZM181.681 17.1641C181.681 18.8867 182.806 20.0469 185.033 20.5859L187.236 21.125C188.525 21.4531 188.993 21.8867 188.993 22.6719C188.993 23.668 188.056 24.3008 186.533 24.3008C184.986 24.3008 184.072 23.6445 183.872 22.4609H181.365C181.564 24.7227 183.497 26.2344 186.415 26.2344C189.439 26.2344 191.536 24.6875 191.536 22.4375C191.536 20.6211 190.599 19.6836 188.115 19.0859L186.04 18.6055C184.763 18.2891 184.154 17.7734 184.154 17.0117C184.154 16.0391 185.068 15.3711 186.439 15.3711C187.857 15.3711 188.759 16.0625 188.876 17.1758H191.255C191.173 14.9844 189.251 13.4492 186.509 13.4492C183.626 13.4492 181.681 14.9609 181.681 17.1641ZM205.423 26.2109C208.552 26.2109 210.567 23.75 210.567 19.8359C210.567 15.9336 208.54 13.4727 205.434 13.4727C203.688 13.4727 202.282 14.3398 201.544 15.7695H201.485V9.08984H198.954V26H201.415V23.9023H201.462C202.223 25.332 203.618 26.2109 205.423 26.2109ZM204.743 15.6055C206.735 15.6055 207.966 17.2461 207.966 19.8359C207.966 22.4492 206.735 24.0664 204.743 24.0664C202.821 24.0664 201.473 22.4023 201.473 19.8359C201.473 17.293 202.821 15.6055 204.743 15.6055ZM217.944 15.4883C219.713 15.4883 220.909 16.8125 220.967 18.6992H214.803C214.932 16.8359 216.174 15.4883 217.944 15.4883ZM220.956 22.3789C220.616 23.457 219.549 24.1836 218.108 24.1836C216.081 24.1836 214.792 22.7656 214.792 20.6211V20.4688H223.499V19.6016C223.499 15.8633 221.366 13.4492 217.944 13.4492C214.463 13.4492 212.237 16.0273 212.237 19.8945C212.237 23.7852 214.428 26.2344 218.049 26.2344C220.874 26.2344 223.006 24.6289 223.358 22.3789H220.956ZM230.864 15.4883C232.633 15.4883 233.828 16.8125 233.887 18.6992H227.723C227.852 16.8359 229.094 15.4883 230.864 15.4883ZM233.875 22.3789C233.535 23.457 232.469 24.1836 231.028 24.1836C229 24.1836 227.711 22.7656 227.711 20.6211V20.4688H236.418V19.6016C236.418 15.8633 234.285 13.4492 230.864 13.4492C227.383 13.4492 225.157 16.0273 225.157 19.8945C225.157 23.7852 227.348 26.2344 230.969 26.2344C233.793 26.2344 235.926 24.6289 236.278 22.3789H233.875ZM238.627 26H241.158V18.8164C241.158 16.9062 242.307 15.6406 244.088 15.6406C245.846 15.6406 246.713 16.6602 246.713 18.5117V26H249.256V18.0195C249.256 15.1953 247.697 13.4609 244.979 13.4609C243.08 13.4609 241.768 14.3281 241.1 15.7344H241.041V13.6719H238.627V26ZM59.7441 51.1641C59.7441 52.8867 60.8691 54.0469 63.0956 54.5859L65.2988 55.125C66.5878 55.4531 67.0566 55.8867 67.0566 56.6719C67.0566 57.668 66.1191 58.3008 64.5956 58.3008C63.0488 58.3008 62.1347 57.6445 61.9355 56.4609H59.4277C59.6269 58.7227 61.5605 60.2344 64.4784 60.2344C67.5019 60.2344 69.5995 58.6875 69.5995 56.4375C69.5995 54.6211 68.662 53.6836 66.1777 53.0859L64.1034 52.6055C62.8261 52.2891 62.2167 51.7734 62.2167 51.0117C62.2167 50.0391 63.1308 49.3711 64.5019 49.3711C65.9198 49.3711 66.8222 50.0625 66.9394 51.1758H69.3183C69.2363 48.9844 67.3144 47.4492 64.5722 47.4492C61.6894 47.4492 59.7441 48.9609 59.7441 51.1641ZM82.3786 47.6719H79.8473V54.8555C79.8473 56.7773 78.7458 58.043 76.9177 58.043C75.1716 58.043 74.2809 57.0352 74.2809 55.1602V47.6719H71.7497V55.6523C71.7497 58.4766 73.3903 60.2227 76.0739 60.2227C77.9606 60.2227 79.2145 59.3906 79.8942 57.9141H79.9528V60H82.3786V47.6719ZM95.7084 51.9141C95.4858 49.4883 93.5522 47.4492 90.3764 47.4492C86.8725 47.4492 84.5756 49.9219 84.5756 53.8359C84.5756 57.8203 86.8725 60.2344 90.3998 60.2344C93.3647 60.2344 95.4623 58.4531 95.7319 55.8281H93.2944C93.0014 57.2578 91.9819 58.1133 90.4233 58.1133C88.4545 58.1133 87.1537 56.543 87.1537 53.8359C87.1537 51.1875 88.4428 49.5586 90.3998 49.5586C92.0522 49.5586 93.0366 50.6016 93.2944 51.9141H95.7084ZM108.347 51.9141C108.124 49.4883 106.191 47.4492 103.015 47.4492C99.5109 47.4492 97.2141 49.9219 97.2141 53.8359C97.2141 57.8203 99.5109 60.2344 103.038 60.2344C106.003 60.2344 108.101 58.4531 108.37 55.8281H105.933C105.64 57.2578 104.62 58.1133 103.062 58.1133C101.093 58.1133 99.7922 56.543 99.7922 53.8359C99.7922 51.1875 101.081 49.5586 103.038 49.5586C104.691 49.5586 105.675 50.6016 105.933 51.9141H108.347ZM115.56 49.4883C117.329 49.4883 118.524 50.8125 118.583 52.6992H112.419C112.548 50.8359 113.79 49.4883 115.56 49.4883ZM118.571 56.3789C118.231 57.457 117.165 58.1836 115.724 58.1836C113.696 58.1836 112.407 56.7656 112.407 54.6211V54.4688H121.114V53.6016C121.114 49.8633 118.981 47.4492 115.56 47.4492C112.079 47.4492 109.853 50.0273 109.853 53.8945C109.853 57.7852 112.044 60.2344 115.665 60.2344C118.489 60.2344 120.622 58.6289 120.974 56.3789H118.571ZM123.1 51.1641C123.1 52.8867 124.225 54.0469 126.452 54.5859L128.655 55.125C129.944 55.4531 130.413 55.8867 130.413 56.6719C130.413 57.668 129.475 58.3008 127.952 58.3008C126.405 58.3008 125.491 57.6445 125.292 56.4609H122.784C122.983 58.7227 124.917 60.2344 127.835 60.2344C130.858 60.2344 132.956 58.6875 132.956 56.4375C132.956 54.6211 132.018 53.6836 129.534 53.0859L127.46 52.6055C126.182 52.2891 125.573 51.7734 125.573 51.0117C125.573 50.0391 126.487 49.3711 127.858 49.3711C129.276 49.3711 130.178 50.0625 130.296 51.1758H132.675C132.592 48.9844 130.671 47.4492 127.928 47.4492C125.046 47.4492 123.1 48.9609 123.1 51.1641ZM134.942 51.1641C134.942 52.8867 136.067 54.0469 138.293 54.5859L140.497 55.125C141.786 55.4531 142.254 55.8867 142.254 56.6719C142.254 57.668 141.317 58.3008 139.793 58.3008C138.247 58.3008 137.333 57.6445 137.133 56.4609H134.625C134.825 58.7227 136.758 60.2344 139.676 60.2344C142.7 60.2344 144.797 58.6875 144.797 56.4375C144.797 54.6211 143.86 53.6836 141.375 53.0859L139.301 52.6055C138.024 52.2891 137.415 51.7734 137.415 51.0117C137.415 50.0391 138.329 49.3711 139.7 49.3711C141.118 49.3711 142.02 50.0625 142.137 51.1758H144.516C144.434 48.9844 142.512 47.4492 139.77 47.4492C136.887 47.4492 134.942 48.9609 134.942 51.1641ZM147.744 60H150.287V49.6758H152.748V47.6953H150.252V46.5352C150.252 45.4453 150.768 44.8945 151.869 44.8945C152.209 44.8945 152.549 44.918 152.795 44.9648V43.0898C152.467 43.0312 151.893 42.9727 151.377 42.9727C148.869 42.9727 147.744 44.0977 147.744 46.4883V47.6953H146.045V49.6758H147.744V60ZM165.551 47.6719H163.02V54.8555C163.02 56.7773 161.918 58.043 160.09 58.043C158.344 58.043 157.453 57.0352 157.453 55.1602V47.6719H154.922V55.6523C154.922 58.4766 156.562 60.2227 159.246 60.2227C161.133 60.2227 162.387 59.3906 163.066 57.9141H163.125V60H165.551V47.6719ZM168.392 60H170.924V43.0898H168.392V60ZM173.859 60H176.39V43.0898H173.859V60ZM180.45 64.5938C183.017 64.5938 184.224 63.6328 185.279 60.6445L189.908 47.6719H187.236L184.107 57.7031H184.072L180.943 47.6719H178.2L182.654 60.0117C182.654 60.0234 182.431 60.75 182.431 60.7734C182.044 62.0391 181.423 62.5312 180.24 62.5312C180.029 62.5312 179.607 62.5312 179.419 62.4844V64.5352C179.607 64.5703 180.251 64.5938 180.45 64.5938ZM196.528 51.1641C196.528 52.8867 197.653 54.0469 199.88 54.5859L202.083 55.125C203.372 55.4531 203.841 55.8867 203.841 56.6719C203.841 57.668 202.903 58.3008 201.38 58.3008C199.833 58.3008 198.919 57.6445 198.72 56.4609H196.212C196.411 58.7227 198.345 60.2344 201.262 60.2344C204.286 60.2344 206.384 58.6875 206.384 56.4375C206.384 54.6211 205.446 53.6836 202.962 53.0859L200.887 52.6055C199.61 52.2891 199.001 51.7734 199.001 51.0117C199.001 50.0391 199.915 49.3711 201.286 49.3711C202.704 49.3711 203.606 50.0625 203.723 51.1758H206.102C206.02 48.9844 204.098 47.4492 201.356 47.4492C198.473 47.4492 196.528 48.9609 196.528 51.1641ZM213.749 49.4883C215.518 49.4883 216.713 50.8125 216.772 52.6992H210.608C210.737 50.8359 211.979 49.4883 213.749 49.4883ZM216.76 56.3789C216.42 57.457 215.354 58.1836 213.913 58.1836C211.885 58.1836 210.596 56.7656 210.596 54.6211V54.4688H219.303V53.6016C219.303 49.8633 217.17 47.4492 213.749 47.4492C210.268 47.4492 208.042 50.0273 208.042 53.8945C208.042 57.7852 210.233 60.2344 213.854 60.2344C216.678 60.2344 218.811 58.6289 219.163 56.3789H216.76ZM221.512 60H224.043V52.8164C224.043 50.9062 225.192 49.6406 226.973 49.6406C228.731 49.6406 229.598 50.6602 229.598 52.5117V60H232.141V52.0195C232.141 49.1953 230.582 47.4609 227.864 47.4609C225.965 47.4609 224.653 48.3281 223.985 49.7344H223.926V47.6719H221.512V60ZM235.568 44.7539V47.6719H233.775V49.6758H235.568V56.7539C235.568 59.1328 236.541 60.082 239.037 60.082C239.6 60.082 240.162 60.0352 240.443 59.9648V57.9609C240.279 57.9961 239.869 58.0195 239.611 58.0195C238.58 58.0195 238.111 57.5391 238.111 56.4727V49.6758H240.455V47.6719H238.111V44.7539H235.568Z" fill="#111827"/>
<path d="M6.21625 96V91.1484L10.2162 84.7266H8.61469L5.53656 89.7891H5.48969L2.41156 84.7266H0.809998L4.81 91.1484V96H6.21625ZM13.3372 96.1406C15.5794 96.1406 17.095 94.5234 17.095 91.9375C17.095 89.3438 15.5794 87.7344 13.3372 87.7344C11.0872 87.7344 9.57156 89.3438 9.57156 91.9375C9.57156 94.5234 11.0872 96.1406 13.3372 96.1406ZM13.3372 94.9453C11.8997 94.9453 10.9544 93.8516 10.9544 91.9375C10.9544 90.0234 11.8997 88.9297 13.3372 88.9297C14.7747 88.9297 15.7122 90.0234 15.7122 91.9375C15.7122 93.8516 14.7747 94.9453 13.3372 94.9453ZM25.3019 87.875H23.9425V92.6484C23.9425 94.0312 23.1456 94.9375 21.8253 94.9375C20.5675 94.9375 19.9503 94.2266 19.9503 92.9062V87.875H18.5909V93.1484C18.5909 94.9922 19.63 96.1406 21.4034 96.1406C22.6534 96.1406 23.4972 95.6172 23.9816 94.6797H24.0128V96H25.3019V87.875ZM41.0047 87.875H39.6609L38.0359 94.4844H38.0047L36.1609 87.875H34.8484L33.0125 94.4844H32.9812L31.3562 87.875H30.0047L32.2781 96H33.6609L35.4891 89.7109H35.5203L37.3562 96H38.7391L41.0047 87.875ZM42.3522 96H43.7116V87.875H42.3522V96ZM43.0319 86.5078C43.5006 86.5078 43.8834 86.125 43.8834 85.6641C43.8834 85.1953 43.5006 84.8203 43.0319 84.8203C42.5709 84.8203 42.1881 85.1953 42.1881 85.6641C42.1881 86.125 42.5709 86.5078 43.0319 86.5078ZM45.7778 96H47.1372V84.7266H45.7778V96ZM49.2034 96H50.5628V84.7266H49.2034V96ZM59.3047 94.8672C57.9062 94.8672 56.9922 93.7266 56.9922 91.9062C56.9922 90.0859 57.9062 88.9297 59.3047 88.9297C60.7187 88.9297 61.6641 90.1172 61.6641 91.9062C61.6641 93.6953 60.7187 94.8672 59.3047 94.8672ZM59.3516 99.0625C61.5937 99.0625 63.0234 97.7734 63.0234 95.8359V87.875H61.7266V89.2422H61.7031C61.1641 88.2969 60.2109 87.7344 59.0625 87.7344C56.9609 87.7344 55.6016 89.3594 55.6016 91.9062C55.6016 94.4297 56.9609 96.0625 59.0312 96.0625C60.1719 96.0625 61.1328 95.4844 61.6328 94.6016H61.6641V95.8828C61.6641 97.0938 60.8125 97.9062 59.4062 97.9062C58.3906 97.9062 57.5859 97.4141 57.3203 96.6719H55.9219C56.1484 98.0547 57.5625 99.0625 59.3516 99.0625ZM68.2147 88.9141C69.4959 88.9141 70.3475 89.8828 70.3787 91.2422H65.9647C66.0506 89.8906 66.9412 88.9141 68.2147 88.9141ZM70.3475 93.6719C70.1209 94.4375 69.3631 94.9609 68.3319 94.9609C66.8709 94.9609 65.9569 93.9375 65.9569 92.3828V92.3047H71.785V91.7891C71.785 89.3281 70.4334 87.7344 68.2381 87.7344C65.9959 87.7344 64.5584 89.4453 64.5584 91.9688C64.5584 94.5234 65.9725 96.1406 68.3006 96.1406C70.0741 96.1406 71.4491 95.0938 71.6834 93.6719H70.3475ZM73.7575 85.9141V87.875H72.5466V88.9922H73.7575V93.8906C73.7575 95.4531 74.3356 96.0625 75.8278 96.0625C76.1481 96.0625 76.5231 96.0391 76.6872 96V94.8594C76.5934 94.875 76.2809 94.8984 76.1247 94.8984C75.4294 94.8984 75.1169 94.5625 75.1169 93.8203V88.9922H76.695V87.875H75.1169V85.9141H73.7575ZM84.4291 94.9844C83.4525 94.9844 82.8041 94.4766 82.8041 93.7031C82.8041 92.9375 83.4291 92.4531 84.5228 92.3828L86.6947 92.25V92.9141C86.6947 94.0859 85.7103 94.9844 84.4291 94.9844ZM84.1244 96.1406C85.2181 96.1406 86.2494 95.5312 86.7337 94.6016H86.765V96H88.0541V90.3828C88.0541 88.7656 86.8509 87.7344 84.9447 87.7344C83.0228 87.7344 81.8197 88.8125 81.7259 90.2188H83.0384C83.2103 89.4219 83.8666 88.9297 84.9134 88.9297C86.0384 88.9297 86.6947 89.5234 86.6947 90.5156V91.1953L84.3666 91.3281C82.4916 91.4375 81.4212 92.3125 81.4212 93.7031C81.4212 95.1641 82.5072 96.1406 84.1244 96.1406ZM93.3819 96H94.7412V90.9062C94.7412 89.7812 95.5225 88.9375 96.6006 88.9375C97.6084 88.9375 98.2647 89.5781 98.2647 90.5547V96H99.6241V90.8359C99.6241 89.7344 100.382 88.9375 101.46 88.9375C102.53 88.9375 103.147 89.5938 103.147 90.7031V96H104.507V90.3906C104.507 88.7812 103.468 87.7344 101.858 87.7344C100.718 87.7344 99.7647 88.3125 99.3116 89.2812H99.2803C98.9287 88.2969 98.1084 87.7344 96.9991 87.7344C95.9053 87.7344 95.0772 88.3125 94.6944 89.1719H94.6631V87.875H93.3819V96ZM109.659 88.9141C110.94 88.9141 111.792 89.8828 111.823 91.2422H107.409C107.495 89.8906 108.386 88.9141 109.659 88.9141ZM111.792 93.6719C111.565 94.4375 110.807 94.9609 109.776 94.9609C108.315 94.9609 107.401 93.9375 107.401 92.3828V92.3047H113.229V91.7891C113.229 89.3281 111.878 87.7344 109.682 87.7344C107.44 87.7344 106.003 89.4453 106.003 91.9688C106.003 94.5234 107.417 96.1406 109.745 96.1406C111.518 96.1406 112.893 95.0938 113.128 93.6719H111.792ZM114.624 90.1172C114.624 91.2266 115.327 91.9609 116.757 92.3281L118.186 92.6953C119.1 92.9375 119.436 93.25 119.436 93.8281C119.436 94.5625 118.757 95.0312 117.655 95.0312C116.553 95.0312 115.913 94.5781 115.764 93.7344H114.405C114.546 95.1719 115.788 96.1406 117.569 96.1406C119.467 96.1406 120.803 95.1406 120.803 93.7266C120.803 92.5312 120.21 91.9375 118.569 91.5234L117.311 91.2188C116.389 90.9844 115.96 90.6094 115.96 90.0469C115.96 89.3359 116.616 88.8438 117.608 88.8438C118.608 88.8438 119.241 89.3281 119.335 90.1094H120.632C120.569 88.7344 119.335 87.7344 117.655 87.7344C115.866 87.7344 114.624 88.7266 114.624 90.1172ZM122.237 90.1172C122.237 91.2266 122.94 91.9609 124.37 92.3281L125.799 92.6953C126.713 92.9375 127.049 93.25 127.049 93.8281C127.049 94.5625 126.37 95.0312 125.268 95.0312C124.167 95.0312 123.526 94.5781 123.377 93.7344H122.018C122.159 95.1719 123.401 96.1406 125.182 96.1406C127.081 96.1406 128.417 95.1406 128.417 93.7266C128.417 92.5312 127.823 91.9375 126.182 91.5234L124.924 91.2188C124.002 90.9844 123.573 90.6094 123.573 90.0469C123.573 89.3359 124.229 88.8438 125.221 88.8438C126.221 88.8438 126.854 89.3281 126.948 90.1094H128.245C128.182 88.7344 126.948 87.7344 125.268 87.7344C123.479 87.7344 122.237 88.7266 122.237 90.1172ZM132.67 94.9844C131.694 94.9844 131.045 94.4766 131.045 93.7031C131.045 92.9375 131.67 92.4531 132.764 92.3828L134.936 92.25V92.9141C134.936 94.0859 133.952 94.9844 132.67 94.9844ZM132.366 96.1406C133.459 96.1406 134.491 95.5312 134.975 94.6016H135.006V96H136.295V90.3828C136.295 88.7656 135.092 87.7344 133.186 87.7344C131.264 87.7344 130.061 88.8125 129.967 90.2188H131.28C131.452 89.4219 132.108 88.9297 133.155 88.9297C134.28 88.9297 134.936 89.5234 134.936 90.5156V91.1953L132.608 91.3281C130.733 91.4375 129.662 92.3125 129.662 93.7031C129.662 95.1641 130.748 96.1406 132.366 96.1406ZM141.487 94.8672C140.088 94.8672 139.174 93.7266 139.174 91.9062C139.174 90.0859 140.088 88.9297 141.487 88.9297C142.901 88.9297 143.846 90.1172 143.846 91.9062C143.846 93.6953 142.901 94.8672 141.487 94.8672ZM141.533 99.0625C143.776 99.0625 145.205 97.7734 145.205 95.8359V87.875H143.908V89.2422H143.885C143.346 88.2969 142.393 87.7344 141.244 87.7344C139.143 87.7344 137.783 89.3594 137.783 91.9062C137.783 94.4297 139.143 96.0625 141.213 96.0625C142.354 96.0625 143.315 95.4844 143.815 94.6016H143.846V95.8828C143.846 97.0938 142.994 97.9062 141.588 97.9062C140.572 97.9062 139.768 97.4141 139.502 96.6719H138.104C138.33 98.0547 139.744 99.0625 141.533 99.0625ZM150.397 88.9141C151.678 88.9141 152.529 89.8828 152.561 91.2422H148.147C148.232 89.8906 149.123 88.9141 150.397 88.9141ZM152.529 93.6719C152.303 94.4375 151.545 94.9609 150.514 94.9609C149.053 94.9609 148.139 93.9375 148.139 92.3828V92.3047H153.967V91.7891C153.967 89.3281 152.615 87.7344 150.42 87.7344C148.178 87.7344 146.74 89.4453 146.74 91.9688C146.74 94.5234 148.154 96.1406 150.482 96.1406C152.256 96.1406 153.631 95.0938 153.865 93.6719H152.529ZM159.381 96H160.74V88.9922H162.396V87.875H160.732V86.9766C160.732 86.1719 161.084 85.7812 161.818 85.7812C162.045 85.7812 162.271 85.8047 162.435 85.8281V84.7266C162.24 84.6953 161.912 84.6641 161.607 84.6641C160.107 84.6641 159.381 85.4062 159.381 86.9688V87.875H158.248V88.9922H159.381V96ZM163.962 96H165.322V90.9375C165.322 89.7891 166.009 89.0312 167.064 89.0312C167.392 89.0312 167.681 89.0703 167.791 89.1094V87.7891C167.681 87.7734 167.478 87.7344 167.244 87.7344C166.291 87.7344 165.541 88.3047 165.275 89.2031H165.244V87.875H163.962V96ZM172.037 96.1406C174.279 96.1406 175.794 94.5234 175.794 91.9375C175.794 89.3438 174.279 87.7344 172.037 87.7344C169.787 87.7344 168.271 89.3438 168.271 91.9375C168.271 94.5234 169.787 96.1406 172.037 96.1406ZM172.037 94.9453C170.599 94.9453 169.654 93.8516 169.654 91.9375C169.654 90.0234 170.599 88.9297 172.037 88.9297C173.474 88.9297 174.412 90.0234 174.412 91.9375C174.412 93.8516 173.474 94.9453 172.037 94.9453ZM177.329 96H178.689V90.9062C178.689 89.7812 179.47 88.9375 180.548 88.9375C181.556 88.9375 182.212 89.5781 182.212 90.5547V96H183.572V90.8359C183.572 89.7344 184.329 88.9375 185.408 88.9375C186.478 88.9375 187.095 89.5938 187.095 90.7031V96H188.454V90.3906C188.454 88.7812 187.415 87.7344 185.806 87.7344C184.665 87.7344 183.712 88.3125 183.259 89.2812H183.228C182.876 88.2969 182.056 87.7344 180.947 87.7344C179.853 87.7344 179.025 88.3125 178.642 89.1719H178.611V87.875H177.329V96ZM197.157 96.1406C199.399 96.1406 200.915 94.5234 200.915 91.9375C200.915 89.3438 199.399 87.7344 197.157 87.7344C194.907 87.7344 193.392 89.3438 193.392 91.9375C193.392 94.5234 194.907 96.1406 197.157 96.1406ZM197.157 94.9453C195.72 94.9453 194.774 93.8516 194.774 91.9375C194.774 90.0234 195.72 88.9297 197.157 88.9297C198.595 88.9297 199.532 90.0234 199.532 91.9375C199.532 93.8516 198.595 94.9453 197.157 94.9453ZM209.122 87.875H207.762V92.6484C207.762 94.0312 206.966 94.9375 205.645 94.9375C204.387 94.9375 203.77 94.2266 203.77 92.9062V87.875H202.411V93.1484C202.411 94.9922 203.45 96.1406 205.223 96.1406C206.473 96.1406 207.317 95.6172 207.802 94.6797H207.833V96H209.122V87.875ZM211.048 96H212.407V90.9375C212.407 89.7891 213.094 89.0312 214.149 89.0312C214.477 89.0312 214.766 89.0703 214.876 89.1094V87.7891C214.766 87.7734 214.563 87.7344 214.329 87.7344C213.376 87.7344 212.626 88.3047 212.36 89.2031H212.329V87.875H211.048V96ZM220.024 85.9141V87.875H218.813V88.9922H220.024V93.8906C220.024 95.4531 220.602 96.0625 222.094 96.0625C222.414 96.0625 222.789 96.0391 222.953 96V94.8594C222.86 94.875 222.547 94.8984 222.391 94.8984C221.696 94.8984 221.383 94.5625 221.383 93.8203V88.9922H222.961V87.875H221.383V85.9141H220.024ZM227.598 88.9141C228.879 88.9141 229.731 89.8828 229.762 91.2422H225.348C225.434 89.8906 226.324 88.9141 227.598 88.9141ZM229.731 93.6719C229.504 94.4375 228.746 94.9609 227.715 94.9609C226.254 94.9609 225.34 93.9375 225.34 92.3828V92.3047H231.168V91.7891C231.168 89.3281 229.817 87.7344 227.621 87.7344C225.379 87.7344 223.942 89.4453 223.942 91.9688C223.942 94.5234 225.356 96.1406 227.684 96.1406C229.457 96.1406 230.832 95.0938 231.067 93.6719H229.731ZM235.383 94.9844C234.406 94.9844 233.758 94.4766 233.758 93.7031C233.758 92.9375 234.383 92.4531 235.477 92.3828L237.648 92.25V92.9141C237.648 94.0859 236.664 94.9844 235.383 94.9844ZM235.078 96.1406C236.172 96.1406 237.203 95.5312 237.688 94.6016H237.719V96H239.008V90.3828C239.008 88.7656 237.805 87.7344 235.898 87.7344C233.977 87.7344 232.773 88.8125 232.68 90.2188H233.992C234.164 89.4219 234.82 88.9297 235.867 88.9297C236.992 88.9297 237.648 89.5234 237.648 90.5156V91.1953L235.32 91.3281C233.445 91.4375 232.375 92.3125 232.375 93.7031C232.375 95.1641 233.461 96.1406 235.078 96.1406ZM240.894 96H242.254V90.9062C242.254 89.7812 243.035 88.9375 244.113 88.9375C245.121 88.9375 245.777 89.5781 245.777 90.5547V96H247.137V90.8359C247.137 89.7344 247.894 88.9375 248.973 88.9375C250.043 88.9375 250.66 89.5938 250.66 90.7031V96H252.019V90.3906C252.019 88.7812 250.98 87.7344 249.371 87.7344C248.23 87.7344 247.277 88.3125 246.824 89.2812H246.793C246.441 88.2969 245.621 87.7344 244.512 87.7344C243.418 87.7344 242.59 88.3125 242.207 89.1719H242.176V87.875H240.894V96ZM254.843 98.2422L255.914 94.2656H254.468L253.711 98.2422H254.843ZM263.476 94.9844C262.499 94.9844 261.851 94.4766 261.851 93.7031C261.851 92.9375 262.476 92.4531 263.57 92.3828L265.742 92.25V92.9141C265.742 94.0859 264.757 94.9844 263.476 94.9844ZM263.171 96.1406C264.265 96.1406 265.296 95.5312 265.781 94.6016H265.812V96H267.101V90.3828C267.101 88.7656 265.898 87.7344 263.992 87.7344C262.07 87.7344 260.867 88.8125 260.773 90.2188H262.085C262.257 89.4219 262.913 88.9297 263.96 88.9297C265.085 88.9297 265.742 89.5234 265.742 90.5156V91.1953L263.413 91.3281C261.538 91.4375 260.468 92.3125 260.468 93.7031C260.468 95.1641 261.554 96.1406 263.171 96.1406ZM273.027 96.1406C275.105 96.1406 276.48 94.4922 276.48 91.9375C276.48 89.3906 275.097 87.7344 273.05 87.7344C271.902 87.7344 270.956 88.3047 270.448 89.2344H270.417V84.7266H269.058V96H270.355V94.625H270.386C270.909 95.5625 271.839 96.1406 273.027 96.1406ZM272.761 88.9297C274.198 88.9297 275.089 90.0938 275.089 91.9375C275.089 93.7969 274.198 94.9453 272.761 94.9453C271.386 94.9453 270.409 93.75 270.409 91.9375C270.409 90.1328 271.386 88.9297 272.761 88.9297ZM281.39 96.1406C283.632 96.1406 285.147 94.5234 285.147 91.9375C285.147 89.3438 283.632 87.7344 281.39 87.7344C279.14 87.7344 277.624 89.3438 277.624 91.9375C277.624 94.5234 279.14 96.1406 281.39 96.1406ZM281.39 94.9453C279.952 94.9453 279.007 93.8516 279.007 91.9375C279.007 90.0234 279.952 88.9297 281.39 88.9297C282.827 88.9297 283.765 90.0234 283.765 91.9375C283.765 93.8516 282.827 94.9453 281.39 94.9453ZM293.354 87.875H291.995V92.6484C291.995 94.0312 291.198 94.9375 289.878 94.9375C288.62 94.9375 288.003 94.2266 288.003 92.9062V87.875H286.643V93.1484C286.643 94.9922 287.682 96.1406 289.456 96.1406C290.706 96.1406 291.55 95.6172 292.034 94.6797H292.065V96H293.354V87.875ZM295.717 85.9141V87.875H294.507V88.9922H295.717V93.8906C295.717 95.4531 296.296 96.0625 297.788 96.0625C298.108 96.0625 298.483 96.0391 298.647 96V94.8594C298.553 94.875 298.241 94.8984 298.085 94.8984C297.389 94.8984 297.077 94.5625 297.077 93.8203V88.9922H298.655V87.875H297.077V85.9141H295.717ZM1.91313 106.914V108.875H0.702194V109.992H1.91313V114.891C1.91313 116.453 2.49126 117.062 3.98344 117.062C4.30376 117.062 4.67876 117.039 4.84282 117V115.859C4.74907 115.875 4.43657 115.898 4.28032 115.898C3.58501 115.898 3.27251 115.562 3.27251 114.82V109.992H4.85063V108.875H3.27251V106.914H1.91313ZM6.53407 117H7.89344V112.266C7.89344 110.859 8.72938 109.938 10.0809 109.938C11.3544 109.938 12.0028 110.711 12.0028 112V117H13.3622V111.75C13.3622 109.938 12.2841 108.734 10.5028 108.734C9.26844 108.734 8.37782 109.266 7.92469 110.172H7.89344V105.727H6.53407V117ZM18.5066 109.914C19.7878 109.914 20.6394 110.883 20.6706 112.242H16.2566C16.3425 110.891 17.2331 109.914 18.5066 109.914ZM20.6394 114.672C20.4128 115.438 19.655 115.961 18.6238 115.961C17.1628 115.961 16.2488 114.938 16.2488 113.383V113.305H22.0769V112.789C22.0769 110.328 20.7253 108.734 18.53 108.734C16.2878 108.734 14.8503 110.445 14.8503 112.969C14.8503 115.523 16.2644 117.141 18.5925 117.141C20.3659 117.141 21.7409 116.094 21.9753 114.672H20.6394ZM29.7328 115.984C28.7563 115.984 28.1078 115.477 28.1078 114.703C28.1078 113.938 28.7328 113.453 29.8266 113.383L31.9984 113.25V113.914C31.9984 115.086 31.0141 115.984 29.7328 115.984ZM29.4281 117.141C30.5219 117.141 31.5531 116.531 32.0375 115.602H32.0688V117H33.3578V111.383C33.3578 109.766 32.1547 108.734 30.2484 108.734C28.3266 108.734 27.1234 109.812 27.0297 111.219H28.3422C28.5141 110.422 29.1703 109.93 30.2172 109.93C31.3422 109.93 31.9984 110.523 31.9984 111.516V112.195L29.6703 112.328C27.7953 112.438 26.725 113.312 26.725 114.703C26.725 116.164 27.8109 117.141 29.4281 117.141ZM35.2444 117H36.6038V112.219C36.6038 110.844 37.4397 109.938 38.7209 109.938C39.9709 109.938 40.5881 110.656 40.5881 111.969V117H41.9475V111.727C41.9475 109.883 40.9163 108.734 39.135 108.734C37.8772 108.734 37.01 109.297 36.5569 110.172H36.5256V108.875H35.2444V117ZM43.8419 117H45.2013V112.219C45.2013 110.844 46.0372 109.938 47.3184 109.938C48.5684 109.938 49.1856 110.656 49.1856 111.969V117H50.545V111.727C50.545 109.883 49.5138 108.734 47.7325 108.734C46.4747 108.734 45.6075 109.297 45.1544 110.172H45.1231V108.875H43.8419V117ZM55.8066 117.141C58.0488 117.141 59.5644 115.523 59.5644 112.938C59.5644 110.344 58.0488 108.734 55.8066 108.734C53.5566 108.734 52.0409 110.344 52.0409 112.938C52.0409 115.523 53.5566 117.141 55.8066 117.141ZM55.8066 115.945C54.3691 115.945 53.4238 114.852 53.4238 112.938C53.4238 111.023 54.3691 109.93 55.8066 109.93C57.2441 109.93 58.1816 111.023 58.1816 112.938C58.1816 114.852 57.2441 115.945 55.8066 115.945ZM67.7713 108.875H66.4119V113.648C66.4119 115.031 65.615 115.938 64.2947 115.938C63.0369 115.938 62.4197 115.227 62.4197 113.906V108.875H61.0603V114.148C61.0603 115.992 62.0994 117.141 63.8728 117.141C65.1228 117.141 65.9666 116.617 66.4509 115.68H66.4822V117H67.7713V108.875ZM69.6969 117H71.0563V112.219C71.0563 110.844 71.8922 109.938 73.1734 109.938C74.4234 109.938 75.0406 110.656 75.0406 111.969V117H76.4V111.727C76.4 109.883 75.3688 108.734 73.5875 108.734C72.3297 108.734 71.4625 109.297 71.0094 110.172H70.9781V108.875H69.6969V117ZM85.0444 111.539C84.8725 110.078 83.6616 108.734 81.6303 108.734C79.3881 108.734 77.8959 110.375 77.8959 112.938C77.8959 115.555 79.3959 117.141 81.6459 117.141C83.4897 117.141 84.8491 116 85.06 114.383H83.7241C83.4897 115.359 82.7631 115.945 81.6538 115.945C80.2475 115.945 79.2788 114.828 79.2788 112.938C79.2788 111.094 80.2319 109.93 81.6381 109.93C82.8334 109.93 83.5209 110.656 83.7163 111.539H85.0444ZM89.7278 109.914C91.0091 109.914 91.8606 110.883 91.8919 112.242H87.4778C87.5638 110.891 88.4544 109.914 89.7278 109.914ZM91.8606 114.672C91.6341 115.438 90.8763 115.961 89.845 115.961C88.3841 115.961 87.47 114.938 87.47 113.383V113.305H93.2981V112.789C93.2981 110.328 91.9466 108.734 89.7513 108.734C87.5091 108.734 86.0716 110.445 86.0716 112.969C86.0716 115.523 87.4856 117.141 89.8138 117.141C91.5872 117.141 92.9622 116.094 93.1966 114.672H91.8606ZM94.8331 117H96.1925V111.906C96.1925 110.781 96.9738 109.938 98.0519 109.938C99.0597 109.938 99.7159 110.578 99.7159 111.555V117H101.075V111.836C101.075 110.734 101.833 109.938 102.911 109.938C103.982 109.938 104.599 110.594 104.599 111.703V117H105.958V111.391C105.958 109.781 104.919 108.734 103.31 108.734C102.169 108.734 101.216 109.312 100.763 110.281H100.732C100.38 109.297 99.5597 108.734 98.4503 108.734C97.3566 108.734 96.5284 109.312 96.1456 110.172H96.1144V108.875H94.8331V117ZM111.11 109.914C112.392 109.914 113.243 110.883 113.274 112.242H108.86C108.946 110.891 109.837 109.914 111.11 109.914ZM113.243 114.672C113.017 115.438 112.259 115.961 111.228 115.961C109.767 115.961 108.853 114.938 108.853 113.383V113.305H114.681V112.789C114.681 110.328 113.329 108.734 111.134 108.734C108.892 108.734 107.454 110.445 107.454 112.969C107.454 115.523 108.868 117.141 111.196 117.141C112.97 117.141 114.345 116.094 114.579 114.672H113.243ZM116.216 117H117.575V112.219C117.575 110.844 118.411 109.938 119.692 109.938C120.942 109.938 121.559 110.656 121.559 111.969V117H122.919V111.727C122.919 109.883 121.888 108.734 120.106 108.734C118.848 108.734 117.981 109.297 117.528 110.172H117.497V108.875H116.216V117ZM125.251 106.914V108.875H124.04V109.992H125.251V114.891C125.251 116.453 125.829 117.062 127.321 117.062C127.641 117.062 128.016 117.039 128.18 117V115.859C128.087 115.875 127.774 115.898 127.618 115.898C126.923 115.898 126.61 115.562 126.61 114.82V109.992H128.188V108.875H126.61V106.914H125.251ZM136.61 117.141C138.852 117.141 140.368 115.523 140.368 112.938C140.368 110.344 138.852 108.734 136.61 108.734C134.36 108.734 132.844 110.344 132.844 112.938C132.844 115.523 134.36 117.141 136.61 117.141ZM136.61 115.945C135.172 115.945 134.227 114.852 134.227 112.938C134.227 111.023 135.172 109.93 136.61 109.93C138.047 109.93 138.985 111.023 138.985 112.938C138.985 114.852 138.047 115.945 136.61 115.945ZM142.34 117H143.699V109.992H145.356V108.875H143.692V107.977C143.692 107.172 144.043 106.781 144.778 106.781C145.004 106.781 145.231 106.805 145.395 106.828V105.727C145.199 105.695 144.871 105.664 144.567 105.664C143.067 105.664 142.34 106.406 142.34 107.969V108.875H141.207V109.992H142.34V117ZM153.621 109.914C154.902 109.914 155.754 110.883 155.785 112.242H151.371C151.457 110.891 152.348 109.914 153.621 109.914ZM155.754 114.672C155.527 115.438 154.769 115.961 153.738 115.961C152.277 115.961 151.363 114.938 151.363 113.383V113.305H157.191V112.789C157.191 110.328 155.84 108.734 153.644 108.734C151.402 108.734 149.965 110.445 149.965 112.969C149.965 115.523 151.379 117.141 153.707 117.141C155.48 117.141 156.855 116.094 157.09 114.672H155.754ZM158.726 117H160.086V111.906C160.086 110.781 160.867 109.938 161.945 109.938C162.953 109.938 163.609 110.578 163.609 111.555V117H164.968V111.836C164.968 110.734 165.726 109.938 166.804 109.938C167.875 109.938 168.492 110.594 168.492 111.703V117H169.851V111.391C169.851 109.781 168.812 108.734 167.203 108.734C166.062 108.734 165.109 109.312 164.656 110.281H164.625C164.273 109.297 163.453 108.734 162.343 108.734C161.25 108.734 160.422 109.312 160.039 110.172H160.008V108.875H158.726V117ZM175.691 108.734C174.511 108.734 173.566 109.336 173.066 110.25H173.035V108.875H171.746V119.711H173.105V115.68H173.136C173.621 116.57 174.558 117.141 175.722 117.141C177.769 117.141 179.168 115.484 179.168 112.938C179.168 110.391 177.761 108.734 175.691 108.734ZM175.425 115.945C174.035 115.945 173.097 114.75 173.097 112.938C173.097 111.133 174.035 109.93 175.425 109.93C176.871 109.93 177.777 111.102 177.777 112.938C177.777 114.781 176.871 115.945 175.425 115.945ZM180.773 117H182.132V105.727H180.773V117ZM187.495 117.141C189.738 117.141 191.253 115.523 191.253 112.938C191.253 110.344 189.738 108.734 187.495 108.734C185.245 108.734 183.73 110.344 183.73 112.938C183.73 115.523 185.245 117.141 187.495 117.141ZM187.495 115.945C186.058 115.945 185.113 114.852 185.113 112.938C185.113 111.023 186.058 109.93 187.495 109.93C188.933 109.93 189.87 111.023 189.87 112.938C189.87 114.852 188.933 115.945 187.495 115.945ZM193.226 120.039C194.694 120.039 195.366 119.469 196.062 117.57L199.257 108.875H197.827L195.577 115.641H195.554L193.304 108.875H191.851L194.851 117.008L194.663 117.578C194.351 118.523 193.929 118.891 193.171 118.891C192.999 118.891 192.788 118.883 192.64 118.852V119.992C192.788 120.023 193.062 120.039 193.226 120.039ZM203.518 109.914C204.8 109.914 205.651 110.883 205.683 112.242H201.268C201.354 110.891 202.245 109.914 203.518 109.914ZM205.651 114.672C205.425 115.438 204.667 115.961 203.636 115.961C202.175 115.961 201.261 114.938 201.261 113.383V113.305H207.089V112.789C207.089 110.328 205.737 108.734 203.542 108.734C201.3 108.734 199.862 110.445 199.862 112.969C199.862 115.523 201.276 117.141 203.604 117.141C205.378 117.141 206.753 116.094 206.987 114.672H205.651ZM211.882 109.914C213.163 109.914 214.014 110.883 214.046 112.242H209.632C209.718 110.891 210.608 109.914 211.882 109.914ZM214.014 114.672C213.788 115.438 213.03 115.961 211.999 115.961C210.538 115.961 209.624 114.938 209.624 113.383V113.305H215.452V112.789C215.452 110.328 214.1 108.734 211.905 108.734C209.663 108.734 208.225 110.445 208.225 112.969C208.225 115.523 209.639 117.141 211.968 117.141C213.741 117.141 215.116 116.094 215.35 114.672H214.014ZM223.108 115.984C222.131 115.984 221.483 115.477 221.483 114.703C221.483 113.938 222.108 113.453 223.202 113.383L225.373 113.25V113.914C225.373 115.086 224.389 115.984 223.108 115.984ZM222.803 117.141C223.897 117.141 224.928 116.531 225.413 115.602H225.444V117H226.733V111.383C226.733 109.766 225.53 108.734 223.623 108.734C221.702 108.734 220.498 109.812 220.405 111.219H221.717C221.889 110.422 222.545 109.93 223.592 109.93C224.717 109.93 225.373 110.523 225.373 111.516V112.195L223.045 112.328C221.17 112.438 220.1 113.312 220.1 114.703C220.1 116.164 221.186 117.141 222.803 117.141ZM235.369 111.539C235.198 110.078 233.987 108.734 231.955 108.734C229.713 108.734 228.221 110.375 228.221 112.938C228.221 115.555 229.721 117.141 231.971 117.141C233.815 117.141 235.174 116 235.385 114.383H234.049C233.815 115.359 233.088 115.945 231.979 115.945C230.573 115.945 229.604 114.828 229.604 112.938C229.604 111.094 230.557 109.93 231.963 109.93C233.158 109.93 233.846 110.656 234.041 111.539H235.369ZM243.545 111.539C243.373 110.078 242.162 108.734 240.131 108.734C237.889 108.734 236.397 110.375 236.397 112.938C236.397 115.555 237.897 117.141 240.147 117.141C241.99 117.141 243.35 116 243.561 114.383H242.225C241.99 115.359 241.264 115.945 240.154 115.945C238.748 115.945 237.779 114.828 237.779 112.938C237.779 111.094 238.733 109.93 240.139 109.93C241.334 109.93 242.022 110.656 242.217 111.539H243.545ZM248.228 109.914C249.51 109.914 250.361 110.883 250.393 112.242H245.978C246.064 110.891 246.955 109.914 248.228 109.914ZM250.361 114.672C250.135 115.438 249.377 115.961 248.346 115.961C246.885 115.961 245.971 114.938 245.971 113.383V113.305H251.799V112.789C251.799 110.328 250.447 108.734 248.252 108.734C246.01 108.734 244.572 110.445 244.572 112.969C244.572 115.523 245.986 117.141 248.314 117.141C250.088 117.141 251.463 116.094 251.697 114.672H250.361ZM257.279 108.734C256.099 108.734 255.154 109.336 254.654 110.25H254.623V108.875H253.334V119.711H254.693V115.68H254.724C255.209 116.57 256.146 117.141 257.31 117.141C259.357 117.141 260.756 115.484 260.756 112.938C260.756 110.391 259.349 108.734 257.279 108.734ZM257.013 115.945C255.623 115.945 254.685 114.75 254.685 112.938C254.685 111.133 255.623 109.93 257.013 109.93C258.459 109.93 259.365 111.102 259.365 112.938C259.365 114.781 258.459 115.945 257.013 115.945ZM262.728 106.914V108.875H261.517V109.992H262.728V114.891C262.728 116.453 263.306 117.062 264.798 117.062C265.119 117.062 265.494 117.039 265.658 117V115.859C265.564 115.875 265.252 115.898 265.095 115.898C264.4 115.898 264.088 115.562 264.088 114.82V109.992H265.666V108.875H264.088V106.914H262.728ZM269.802 115.984C268.826 115.984 268.177 115.477 268.177 114.703C268.177 113.938 268.802 113.453 269.896 113.383L272.068 113.25V113.914C272.068 115.086 271.083 115.984 269.802 115.984ZM269.497 117.141C270.591 117.141 271.622 116.531 272.107 115.602H272.138V117H273.427V111.383C273.427 109.766 272.224 108.734 270.318 108.734C268.396 108.734 267.193 109.812 267.099 111.219H268.412C268.583 110.422 269.24 109.93 270.287 109.93C271.412 109.93 272.068 110.523 272.068 111.516V112.195L269.74 112.328C267.865 112.438 266.794 113.312 266.794 114.703C266.794 116.164 267.88 117.141 269.497 117.141ZM275.314 117H276.673V112.219C276.673 110.844 277.509 109.938 278.79 109.938C280.04 109.938 280.658 110.656 280.658 111.969V117H282.017V111.727C282.017 109.883 280.986 108.734 279.204 108.734C277.947 108.734 277.079 109.297 276.626 110.172H276.595V108.875H275.314V117ZM290.661 111.539C290.489 110.078 289.278 108.734 287.247 108.734C285.005 108.734 283.513 110.375 283.513 112.938C283.513 115.555 285.013 117.141 287.263 117.141C289.107 117.141 290.466 116 290.677 114.383H289.341C289.107 115.359 288.38 115.945 287.271 115.945C285.864 115.945 284.896 114.828 284.896 112.938C284.896 111.094 285.849 109.93 287.255 109.93C288.45 109.93 289.138 110.656 289.333 111.539H290.661ZM295.345 109.914C296.626 109.914 297.477 110.883 297.509 112.242H293.095C293.181 110.891 294.071 109.914 295.345 109.914ZM297.477 114.672C297.251 115.438 296.493 115.961 295.462 115.961C294.001 115.961 293.087 114.938 293.087 113.383V113.305H298.915V112.789C298.915 110.328 297.563 108.734 295.368 108.734C293.126 108.734 291.688 110.445 291.688 112.969C291.688 115.523 293.102 117.141 295.431 117.141C297.204 117.141 298.579 116.094 298.813 114.672H297.477Z" fill="#6B7280"/>
</svg>
