<svg width="375" height="36" viewBox="0 0 375 36" fill="none" xmlns="http://www.w3.org/2000/svg">
<rect x="0.5" y="0.5" width="374" height="35" fill="#F4F4F5"/>
<path d="M33.4062 18.8984V17.8936H29.3457V19.1309H31.8955V19.3018C31.875 20.7988 30.7676 21.8242 29.168 21.8242C27.2881 21.8242 26.1191 20.3682 26.1191 18.0098C26.1191 15.6924 27.2539 14.3115 29.1406 14.3115C30.4258 14.3115 31.3896 15.0156 31.7588 16.2393H33.3311C32.9893 14.2705 31.3281 12.9717 29.1338 12.9717C26.3242 12.9717 24.5537 14.9131 24.5537 18.0234C24.5537 21.1885 26.3311 23.1641 29.1543 23.1641C31.8271 23.1641 33.4062 21.5713 33.4062 18.8984ZM37.8734 16.8682C38.9056 16.8682 39.6029 17.6406 39.6371 18.7412H36.0414C36.1166 17.6543 36.8412 16.8682 37.8734 16.8682ZM39.6302 20.8877C39.432 21.5166 38.8099 21.9404 37.9691 21.9404C36.7865 21.9404 36.0345 21.1133 36.0345 19.8623V19.7734H41.1136V19.2676C41.1136 17.0869 39.8695 15.6787 37.8734 15.6787C35.8431 15.6787 34.5443 17.1826 34.5443 19.4385C34.5443 21.708 35.8226 23.1367 37.9349 23.1367C39.5824 23.1367 40.8265 22.2002 41.0316 20.8877H39.6302ZM42.4021 23H43.8786V18.8096C43.8786 17.6953 44.5486 16.957 45.5876 16.957C46.613 16.957 47.1189 17.5518 47.1189 18.6318V23H48.6023V18.3447C48.6023 16.6973 47.6931 15.6855 46.1071 15.6855C44.9997 15.6855 44.2341 16.1914 43.8445 17.0117H43.8103V15.8086H42.4021V23ZM53.1788 16.8682C54.211 16.8682 54.9083 17.6406 54.9425 18.7412H51.3468C51.422 17.6543 52.1466 16.8682 53.1788 16.8682ZM54.9356 20.8877C54.7374 21.5166 54.1153 21.9404 53.2745 21.9404C52.0919 21.9404 51.3399 21.1133 51.3399 19.8623V19.7734H56.419V19.2676C56.419 17.0869 55.1749 15.6787 53.1788 15.6787C51.1485 15.6787 49.8497 17.1826 49.8497 19.4385C49.8497 21.708 51.128 23.1367 53.2403 23.1367C54.8878 23.1367 56.1319 22.2002 56.337 20.8877H54.9356ZM57.7075 23H59.184V18.6934C59.184 17.6748 59.7719 17.0391 60.7221 17.0391C61.0092 17.0391 61.269 17.0732 61.3852 17.1211V15.7471C61.2758 15.7266 61.0913 15.6924 60.8793 15.6924C60.0317 15.6924 59.3891 16.1914 59.1498 17.0322H59.1157V15.8086H57.7075V23ZM64.8064 21.9541C64.0135 21.9541 63.4939 21.5439 63.4939 20.915C63.4939 20.2998 63.993 19.9102 64.8748 19.8486L66.6453 19.7393V20.3066C66.6453 21.2432 65.8387 21.9541 64.8064 21.9541ZM64.3963 23.123C65.3396 23.123 66.2488 22.6172 66.6658 21.8174H66.7V23H68.115V18.0439C68.115 16.6016 67.0008 15.6787 65.2576 15.6787C63.4803 15.6787 62.3729 16.6357 62.2908 17.9346H63.6854C63.8152 17.292 64.3484 16.8818 65.2029 16.8818C66.1053 16.8818 66.6453 17.3604 66.6453 18.1602V18.7139L64.6766 18.8301C62.9676 18.9258 62.0037 19.6982 62.0037 20.9561C62.0037 22.248 62.9881 23.123 64.3963 23.123ZM69.7453 23H71.2218V13.1357H69.7453V23Z" fill="#6B7280"/>
<rect x="0.5" y="0.5" width="374" height="35" stroke="#E5E7EB"/>
</svg>
