<svg width="327" height="49" viewBox="0 0 327 49" fill="none" xmlns="http://www.w3.org/2000/svg">
<mask id="path-1-inside-1_228_5111" fill="white">
<path d="M0 0H327V49H0V0Z"/>
</mask>
<path d="M0 0H327V49H0V0Z" fill="white"/>
<path d="M10.0938 30V18.7266H8.6875V23.6016H2.5V18.7266H1.09375V30H2.5V24.8672H8.6875V30H10.0938ZM15.4881 22.9141C16.7694 22.9141 17.6209 23.8828 17.6522 25.2422H13.2381C13.3241 23.8906 14.2147 22.9141 15.4881 22.9141ZM17.6209 27.6719C17.3944 28.4375 16.6366 28.9609 15.6053 28.9609C14.1444 28.9609 13.2303 27.9375 13.2303 26.3828V26.3047H19.0584V25.7891C19.0584 23.3281 17.7069 21.7344 15.5116 21.7344C13.2694 21.7344 11.8319 23.4453 11.8319 25.9688C11.8319 28.5234 13.2459 30.1406 15.5741 30.1406C17.3475 30.1406 18.7225 29.0938 18.9569 27.6719H17.6209ZM20.6637 30H22.0231V18.7266H20.6637V30ZM27.9644 21.7344C26.7847 21.7344 25.8394 22.3359 25.3394 23.25H25.3081V21.875H24.0191V32.7109H25.3784V28.6797H25.4097C25.8941 29.5703 26.8316 30.1406 27.9956 30.1406C30.0425 30.1406 31.4409 28.4844 31.4409 25.9375C31.4409 23.3906 30.0347 21.7344 27.9644 21.7344ZM27.6987 28.9453C26.3081 28.9453 25.3706 27.75 25.3706 25.9375C25.3706 24.1328 26.3081 22.9297 27.6987 22.9297C29.1441 22.9297 30.0503 24.1016 30.0503 25.9375C30.0503 27.7812 29.1441 28.9453 27.6987 28.9453ZM41.2687 30.1875C43.7609 30.1875 45.4328 28.9453 45.9484 26.7188H44.5266C44.1203 28.0938 42.9328 28.8906 41.2766 28.8906C39.05 28.8906 37.6359 27.125 37.6359 24.3594C37.6359 21.6172 39.0656 19.8359 41.2687 19.8359C42.8781 19.8359 44.1672 20.8047 44.5266 22.2812H45.9484C45.5891 20.0312 43.7219 18.5391 41.2687 18.5391C38.1828 18.5391 36.1906 20.8203 36.1906 24.3594C36.1906 27.9297 38.1594 30.1875 41.2687 30.1875ZM50.8194 22.9141C52.1006 22.9141 52.9522 23.8828 52.9834 25.2422H48.5694C48.6553 23.8906 49.5459 22.9141 50.8194 22.9141ZM52.9522 27.6719C52.7256 28.4375 51.9678 28.9609 50.9366 28.9609C49.4756 28.9609 48.5616 27.9375 48.5616 26.3828V26.3047H54.3897V25.7891C54.3897 23.3281 53.0381 21.7344 50.8428 21.7344C48.6006 21.7344 47.1631 23.4453 47.1631 25.9688C47.1631 28.5234 48.5772 30.1406 50.9053 30.1406C52.6787 30.1406 54.0537 29.0938 54.2881 27.6719H52.9522ZM55.9247 30H57.2841V25.2188C57.2841 23.8438 58.12 22.9375 59.4012 22.9375C60.6512 22.9375 61.2684 23.6562 61.2684 24.9688V30H62.6278V24.7266C62.6278 22.8828 61.5966 21.7344 59.8153 21.7344C58.5575 21.7344 57.6903 22.2969 57.2372 23.1719H57.2059V21.875H55.9247V30ZM64.9597 19.9141V21.875H63.7487V22.9922H64.9597V27.8906C64.9597 29.4531 65.5378 30.0625 67.03 30.0625C67.3503 30.0625 67.7253 30.0391 67.8894 30V28.8594C67.7956 28.875 67.4831 28.8984 67.3269 28.8984C66.6316 28.8984 66.3191 28.5625 66.3191 27.8203V22.9922H67.8972V21.875H66.3191V19.9141H64.9597ZM72.5338 22.9141C73.815 22.9141 74.6666 23.8828 74.6978 25.2422H70.2838C70.3697 23.8906 71.2603 22.9141 72.5338 22.9141ZM74.6666 27.6719C74.44 28.4375 73.6822 28.9609 72.6509 28.9609C71.19 28.9609 70.2759 27.9375 70.2759 26.3828V26.3047H76.1041V25.7891C76.1041 23.3281 74.7525 21.7344 72.5572 21.7344C70.315 21.7344 68.8775 23.4453 68.8775 25.9688C68.8775 28.5234 70.2916 30.1406 72.6197 30.1406C74.3931 30.1406 75.7681 29.0938 76.0025 27.6719H74.6666ZM77.6391 30H78.9984V24.9375C78.9984 23.7891 79.6859 23.0312 80.7406 23.0312C81.0687 23.0312 81.3578 23.0703 81.4672 23.1094V21.7891C81.3578 21.7734 81.1547 21.7344 80.9203 21.7344C79.9672 21.7344 79.2172 22.3047 78.9516 23.2031H78.9203V21.875H77.6391V30Z" fill="#111827"/>
<path d="M320.62 29.0467C320.493 29.0467 320.367 29 320.267 28.9C320.073 28.7067 320.073 28.3867 320.267 28.1934L323.96 24.5L320.267 20.8067C320.073 20.6134 320.073 20.2934 320.267 20.1C320.46 19.9067 320.78 19.9067 320.973 20.1L325.02 24.1467C325.213 24.34 325.213 24.66 325.02 24.8534L320.973 28.9C320.873 29 320.747 29.0467 320.62 29.0467Z" fill="#111827"/>
<path d="M324.553 25H313.333C313.06 25 312.833 24.7733 312.833 24.5C312.833 24.2267 313.06 24 313.333 24H324.553C324.827 24 325.053 24.2267 325.053 24.5C325.053 24.7733 324.827 25 324.553 25Z" fill="#111827"/>
<path d="M327 48H0V50H327V48Z" fill="#E5E7EB" mask="url(#path-1-inside-1_228_5111)"/>
</svg>
