<svg width="327" height="74" viewBox="0 0 327 74" fill="none" xmlns="http://www.w3.org/2000/svg">
<path d="M29.7782 41.4667C29.4715 41.4667 29.2649 41.4967 29.1582 41.5267V43.4901C29.2849 43.5201 29.4432 43.5284 29.6615 43.5284C30.4599 43.5284 30.9515 43.1251 30.9515 42.4434C30.9515 41.8334 30.5282 41.4667 29.7782 41.4667ZM35.5899 41.4867C35.2565 41.4867 35.0399 41.5167 34.9115 41.5467V45.8967C35.0399 45.9267 35.2465 45.9267 35.4332 45.9267C36.7949 45.9367 37.6815 45.1867 37.6815 43.6001C37.6915 42.2167 36.8832 41.4867 35.5899 41.4867Z" fill="#DB291F"/>
<path d="M39.9194 20.919C39.5444 20.544 39.0357 20.3333 38.5052 20.3333H26.0003C25.1163 20.3333 24.2684 20.6844 23.6433 21.3096C23.0182 21.9347 22.667 22.7825 22.667 23.6666V50.3333C22.667 51.2173 23.0182 52.0652 23.6433 52.6903C24.2684 53.3154 25.1163 53.6666 26.0003 53.6666H46.0003C46.8844 53.6666 47.7322 53.3154 48.3573 52.6903C48.9825 52.0652 49.3337 51.2173 49.3337 50.3333V31.1617C49.3337 30.6312 49.1229 30.1225 48.7479 29.7475L39.9194 20.919ZM31.8303 43.9833C31.3153 44.4666 30.5553 44.6833 29.6703 44.6833C29.4987 44.6851 29.3272 44.6751 29.157 44.6533V47.0299H27.667V40.4699C28.3394 40.3696 29.0189 40.3239 29.6987 40.3333C30.627 40.3333 31.287 40.5099 31.732 40.8649C32.1553 41.2016 32.442 41.7533 32.442 42.4033C32.4403 43.0566 32.2237 43.6083 31.8303 43.9833ZM38.1753 46.2416C37.4753 46.8233 36.4103 47.0999 35.1087 47.0999C34.3287 47.0999 33.777 47.0499 33.402 46.9999V40.4716C34.0747 40.3734 34.7539 40.3272 35.4337 40.3333C36.6953 40.3333 37.5153 40.5599 38.1553 41.0433C38.847 41.5566 39.2803 42.3749 39.2803 43.5499C39.2803 44.8216 38.8153 45.6999 38.1753 46.2416ZM44.3337 41.6166H41.7803V43.1349H44.167V44.3583H41.7803V47.0316H40.2703V40.3833H44.3337V41.6166ZM39.3337 31.9999H37.667V23.6666L46.0003 31.9999H39.3337Z" fill="#DB291F"/>
<path d="M66.4404 22.4209H68.5459C69.7285 22.4209 70.4463 23.0908 70.4463 24.1914C70.4463 25.3193 69.7695 25.9688 68.5869 25.9688H66.4404V22.4209ZM66.4404 27.2061H68.5459L70.5557 31H72.3193L70.1113 26.9668C71.3145 26.5635 72.0254 25.4834 72.0254 24.1504C72.0254 22.3115 70.7607 21.1357 68.7305 21.1357H64.9092V31H66.4404V27.2061ZM75.9867 29.9541C75.1937 29.9541 74.6742 29.5439 74.6742 28.915C74.6742 28.2998 75.1732 27.9102 76.055 27.8486L77.8255 27.7393V28.3066C77.8255 29.2432 77.0189 29.9541 75.9867 29.9541ZM75.5765 31.123C76.5199 31.123 77.4291 30.6172 77.8461 29.8174H77.8802V31H79.2953V26.0439C79.2953 24.6016 78.181 23.6787 76.4379 23.6787C74.6605 23.6787 73.5531 24.6357 73.4711 25.9346H74.8656C74.9955 25.292 75.5287 24.8818 76.3832 24.8818C77.2855 24.8818 77.8255 25.3604 77.8255 26.1602V26.7139L75.8568 26.8301C74.1478 26.9258 73.1839 27.6982 73.1839 28.9561C73.1839 30.248 74.1683 31.123 75.5765 31.123ZM81.3015 31H82.7849V24.9775H84.2204V23.8223H82.7644V23.1455C82.7644 22.5098 83.0652 22.1885 83.7077 22.1885C83.906 22.1885 84.1042 22.2021 84.2478 22.2295V21.1357C84.0564 21.1016 83.7214 21.0674 83.4206 21.0674C81.9577 21.0674 81.3015 21.7236 81.3015 23.1182V23.8223H80.3103V24.9775H81.3015V31ZM85.5704 31H87.047V23.8086H85.5704V31ZM86.3087 22.7559C86.7872 22.7559 87.17 22.3799 87.17 21.915C87.17 21.4434 86.7872 21.0674 86.3087 21.0674C85.837 21.0674 85.4542 21.4434 85.4542 21.915C85.4542 22.3799 85.837 22.7559 86.3087 22.7559ZM89.1284 31H90.6118V24.9775H92.0473V23.8223H90.5912V23.1455C90.5912 22.5098 90.892 22.1885 91.5346 22.1885C91.7329 22.1885 91.9311 22.2021 92.0746 22.2295V21.1357C91.8832 21.1016 91.5483 21.0674 91.2475 21.0674C89.7846 21.0674 89.1284 21.7236 89.1284 23.1182V23.8223H88.1371V24.9775H89.1284V31ZM96.5109 21.1357V31H99.9904C102.93 31 104.659 29.168 104.659 26.0508C104.659 22.9404 102.923 21.1357 99.9904 21.1357H96.5109ZM98.0421 22.4551H99.8468C101.932 22.4551 103.094 23.7402 103.094 26.0645C103.094 28.3955 101.939 29.6738 99.8468 29.6738H98.0421V22.4551ZM106.132 31H107.609V23.8086H106.132V31ZM106.871 22.7559C107.349 22.7559 107.732 22.3799 107.732 21.915C107.732 21.4434 107.349 21.0674 106.871 21.0674C106.399 21.0674 106.016 21.4434 106.016 21.915C106.016 22.3799 106.399 22.7559 106.871 22.7559ZM111.775 29.9541C110.982 29.9541 110.463 29.5439 110.463 28.915C110.463 28.2998 110.962 27.9102 111.844 27.8486L113.614 27.7393V28.3066C113.614 29.2432 112.807 29.9541 111.775 29.9541ZM111.365 31.123C112.308 31.123 113.218 30.6172 113.635 29.8174H113.669V31H115.084V26.0439C115.084 24.6016 113.97 23.6787 112.226 23.6787C110.449 23.6787 109.342 24.6357 109.26 25.9346H110.654C110.784 25.292 111.317 24.8818 112.172 24.8818C113.074 24.8818 113.614 25.3604 113.614 26.1602V26.7139L111.645 26.8301C109.936 26.9258 108.973 27.6982 108.973 28.9561C108.973 30.248 109.957 31.123 111.365 31.123ZM116.659 31H118.136V26.8096C118.136 25.6953 118.806 24.957 119.845 24.957C120.87 24.957 121.376 25.5518 121.376 26.6318V31H122.86V26.3447C122.86 24.6973 121.95 23.6855 120.364 23.6855C119.257 23.6855 118.491 24.1914 118.102 25.0117H118.068V23.8086H116.659V31ZM125.536 31.0752C126.035 31.0752 126.431 30.6787 126.431 30.1797C126.431 29.6807 126.035 29.2842 125.536 29.2842C125.037 29.2842 124.64 29.6807 124.64 30.1797C124.64 30.6787 125.037 31.0752 125.536 31.0752ZM131.671 31.1641C133.94 31.1641 135.485 29.9678 135.861 27.9307H134.337C134.029 29.1201 133.052 29.8242 131.678 29.8242C129.866 29.8242 128.718 28.3682 128.718 26.0645C128.718 23.7812 129.88 22.3115 131.671 22.3115C133.011 22.3115 134.063 23.1387 134.337 24.4033H135.854C135.595 22.3457 133.906 20.9717 131.671 20.9717C128.916 20.9717 127.152 22.9404 127.152 26.0645C127.152 29.209 128.902 31.1641 131.671 31.1641ZM141.791 31L145.312 21.1357H143.678L140.985 29.2773H140.944L138.257 21.1357H136.596L140.117 31H141.791Z" fill="#111827"/>
<path d="M68.3008 53.1406C70.1699 53.1406 71.4238 52.209 71.8105 50.5391H70.7441C70.4395 51.5703 69.5488 52.168 68.3066 52.168C66.6367 52.168 65.5762 50.8438 65.5762 48.7695C65.5762 46.7129 66.6484 45.377 68.3008 45.377C69.5078 45.377 70.4746 46.1035 70.7441 47.2109H71.8105C71.541 45.5234 70.1406 44.4043 68.3008 44.4043C65.9863 44.4043 64.4922 46.1152 64.4922 48.7695C64.4922 51.4473 65.9688 53.1406 68.3008 53.1406ZM76.6649 53L79.7821 44.5449H78.6747L76.161 51.7168H76.1259L73.6122 44.5449H72.5048L75.622 53H76.6649ZM80.4587 53.0586C80.8337 53.0586 81.1267 52.7656 81.1267 52.3906C81.1267 52.0156 80.8337 51.7227 80.4587 51.7227C80.0837 51.7227 79.7908 52.0156 79.7908 52.3906C79.7908 52.7656 80.0837 53.0586 80.4587 53.0586ZM85.7233 46.8008C84.8385 46.8008 84.1295 47.252 83.7545 47.9375H83.7311V46.9062H82.7643V55.0332H83.7838V52.0098H83.8073C84.1705 52.6777 84.8737 53.1055 85.7467 53.1055C87.2819 53.1055 88.3307 51.8633 88.3307 49.9531C88.3307 48.043 87.276 46.8008 85.7233 46.8008ZM85.5241 52.209C84.4811 52.209 83.778 51.3125 83.778 49.9531C83.778 48.5996 84.4811 47.6973 85.5241 47.6973C86.608 47.6973 87.2877 48.5762 87.2877 49.9531C87.2877 51.3359 86.608 52.209 85.5241 52.209ZM91.7905 53.1055C92.6695 53.1055 93.3667 52.6719 93.7593 51.9688H93.7769V53H94.7495V44.5449H93.73V47.8965H93.7066C93.3433 47.2285 92.6402 46.8008 91.7671 46.8008C90.232 46.8008 89.1831 48.043 89.1831 49.9531C89.1831 51.8633 90.2378 53.1055 91.7905 53.1055ZM91.9839 47.6973C93.0327 47.6973 93.7359 48.5938 93.7359 49.9531C93.7359 51.3184 93.0327 52.209 91.9839 52.209C90.9058 52.209 90.2261 51.3359 90.2261 49.9531C90.2261 48.5762 90.9058 47.6973 91.9839 47.6973ZM96.5746 53H97.5941V47.7441H98.8363V46.9062H97.5883V46.2324C97.5883 45.6289 97.852 45.3359 98.4027 45.3359C98.5727 45.3359 98.7426 45.3535 98.8656 45.3711V44.5449C98.7191 44.5215 98.473 44.498 98.2445 44.498C97.1195 44.498 96.5746 45.0547 96.5746 46.2266V46.9062H95.725V47.7441H96.5746V53ZM104.338 49.0977H105.399C106.606 49.0977 107.356 49.7129 107.356 50.709C107.356 51.5938 106.553 52.2266 105.434 52.2266C104.297 52.2266 103.576 51.6289 103.483 50.7617H102.469C102.545 52.1621 103.676 53.1406 105.445 53.1406C107.104 53.1406 108.428 52.127 108.428 50.6738C108.428 49.4844 107.608 48.6934 106.33 48.6172V48.5938C107.385 48.4062 108.065 47.6445 108.065 46.584C108.065 45.3125 106.922 44.4043 105.41 44.4043C103.822 44.4043 102.756 45.3242 102.639 46.7598H103.653C103.746 45.875 104.391 45.3184 105.363 45.3184C106.436 45.3184 107.004 45.8867 107.004 46.7246C107.004 47.5801 106.324 48.207 105.352 48.207H104.338V49.0977ZM112.796 53.1406C114.765 53.1406 115.901 51.4355 115.901 48.7637C115.901 46.1094 114.759 44.4043 112.796 44.4043C110.833 44.4043 109.679 46.1211 109.679 48.7695C109.679 51.4414 110.821 53.1406 112.796 53.1406ZM112.796 52.2207C111.472 52.2207 110.739 50.873 110.739 48.7637C110.739 46.7012 111.489 45.3301 112.796 45.3301C114.103 45.3301 114.841 46.6895 114.841 48.7695C114.841 50.8789 114.114 52.2207 112.796 52.2207ZM120.193 53.1406C122.162 53.1406 123.299 51.4355 123.299 48.7637C123.299 46.1094 122.156 44.4043 120.193 44.4043C118.23 44.4043 117.076 46.1211 117.076 48.7695C117.076 51.4414 118.219 53.1406 120.193 53.1406ZM120.193 52.2207C118.869 52.2207 118.137 50.873 118.137 48.7637C118.137 46.7012 118.887 45.3301 120.193 45.3301C121.5 45.3301 122.238 46.6895 122.238 48.7695C122.238 50.8789 121.512 52.2207 120.193 52.2207ZM125.821 53V50.0469L126.735 49.0391L129.905 53H131.253L127.468 48.2891L130.942 44.5449H129.612L125.88 48.6699H125.821V44.5449H124.766V53H125.821ZM135.463 53C137.261 53 138.328 52.1152 138.328 50.627C138.328 49.502 137.59 48.6934 136.441 48.5469V48.5C137.256 48.3535 137.9 47.5332 137.9 46.6543C137.9 45.3887 136.922 44.5449 135.474 44.5449H132.269V53H135.463ZM133.324 45.4766H135.234C136.259 45.4766 136.834 45.9395 136.834 46.7773C136.834 47.6914 136.154 48.1895 134.906 48.1895H133.324V45.4766ZM133.324 52.0684V49.0977H135.205C136.552 49.0977 137.244 49.5957 137.244 50.5742C137.244 51.5527 136.576 52.0684 135.304 52.0684H133.324Z" fill="#6B7280"/>
<path d="M260.54 44.52C259.93 44.52 259.36 44.31 258.95 43.92C258.43 43.43 258.18 42.69 258.27 41.89L258.64 38.65C258.71 38.04 259.08 37.23 259.51 36.79L267.72 28.1C269.77 25.93 271.91 25.87 274.08 27.92C276.25 29.97 276.31 32.11 274.26 34.28L266.05 42.97C265.63 43.42 264.85 43.84 264.24 43.94L261.02 44.49C260.85 44.5 260.7 44.52 260.54 44.52ZM270.93 27.91C270.16 27.91 269.49 28.39 268.81 29.11L260.6 37.81C260.4 38.02 260.17 38.52 260.13 38.81L259.76 42.05C259.72 42.38 259.8 42.65 259.98 42.82C260.16 42.99 260.43 43.05 260.76 43L263.98 42.45C264.27 42.4 264.75 42.14 264.95 41.93L273.16 33.24C274.4 31.92 274.85 30.7 273.04 29C272.24 28.23 271.55 27.91 270.93 27.91Z" fill="#3366FF"/>
<path d="M272.34 35.95C272.32 35.95 272.29 35.95 272.27 35.95C269.15 35.64 266.64 33.27 266.16 30.17C266.1 29.76 266.38 29.38 266.79 29.31C267.2 29.25 267.58 29.53 267.65 29.94C268.03 32.36 269.99 34.22 272.43 34.46C272.84 34.5 273.14 34.87 273.1 35.28C273.05 35.66 272.72 35.95 272.34 35.95Z" fill="#3366FF"/>
<path d="M276 47.75H258C257.59 47.75 257.25 47.41 257.25 47C257.25 46.59 257.59 46.25 258 46.25H276C276.41 46.25 276.75 46.59 276.75 47C276.75 47.41 276.41 47.75 276 47.75Z" fill="#3366FF"/>
<path d="M299 47.75C293.07 47.75 288.25 42.93 288.25 37C288.25 31.07 293.07 26.25 299 26.25C304.93 26.25 309.75 31.07 309.75 37C309.75 42.93 304.93 47.75 299 47.75ZM299 27.75C293.9 27.75 289.75 31.9 289.75 37C289.75 42.1 293.9 46.25 299 46.25C304.1 46.25 308.25 42.1 308.25 37C308.25 31.9 304.1 27.75 299 27.75Z" fill="#FF472B"/>
<path d="M296.17 40.58C295.98 40.58 295.79 40.51 295.64 40.36C295.35 40.07 295.35 39.59 295.64 39.3L301.3 33.64C301.59 33.35 302.07 33.35 302.36 33.64C302.65 33.93 302.65 34.41 302.36 34.7L296.7 40.36C296.56 40.51 296.36 40.58 296.17 40.58Z" fill="#FF472B"/>
<path d="M301.83 40.58C301.64 40.58 301.45 40.51 301.3 40.36L295.64 34.7C295.35 34.41 295.35 33.93 295.64 33.64C295.93 33.35 296.41 33.35 296.7 33.64L302.36 39.3C302.65 39.59 302.65 40.07 302.36 40.36C302.21 40.51 302.02 40.58 301.83 40.58Z" fill="#FF472B"/>
<rect x="0.5" y="0.5" width="326" height="73" rx="7.5" stroke="#D1D5DB"/>
</svg>
