<svg width="303" height="45" viewBox="0 0 303 45" fill="none" xmlns="http://www.w3.org/2000/svg">
<rect y="2.5" width="40" height="40" rx="8" fill="#FF3366"/>
<circle cx="20" cy="23" r="14" fill="#FF3366"/>
<path d="M15.3594 17.8594C16.3259 17.8594 17.1094 17.0759 17.1094 16.1094C17.1094 15.1429 16.3259 14.3594 15.3594 14.3594C14.3929 14.3594 13.6094 15.1429 13.6094 16.1094C13.6094 17.0759 14.3929 17.8594 15.3594 17.8594Z" fill="white"/>
<path d="M11.7031 19.3594L11.0938 21.5938H13.0938C12.6927 23.224 11.8531 26.6531 11.7031 27.3281C11.5156 28.1719 11.4843 30.5781 14.0156 30.5781C15.7824 30.5781 16.9093 29.4368 17.5379 28.5048L17.0625 30.4062H19.9062L21.3906 24.3981C21.6016 23.3984 22.0981 21.4688 23.8906 21.4688C26.0225 21.4688 25.2404 23.9933 24.8571 25.2305C24.8415 25.2809 24.8266 25.3291 24.8125 25.375C24.525 26.3125 24.2188 27.4062 24.2188 28.1562C24.2188 29 24.6094 30.5781 26.7969 30.5781C28.9844 30.5781 29.9167 28.4115 30.1094 27.3281L29 26.875C28.9219 27.4531 28.2188 28.7031 27.5625 28.7031C26.6641 28.7031 27.1154 27.1885 27.597 25.5721C27.8106 24.8551 28.0302 24.1181 28.1406 23.4844C28.4198 21.8821 28.1406 19.1562 25.3594 19.1562C23.632 19.1562 22.2756 20.6955 21.6303 21.7641L22.1719 19.3594H17.8438L17.25 21.5938H19.2656C19.2656 21.5938 18.0695 26.4683 17.9922 26.6211C17.1797 28.2266 15.9508 28.7655 15.0312 28.7031C14.2938 28.6531 14.3802 27.7656 14.5156 27.3281L16.5156 19.3594H11.7031Z" fill="white"/>
<path d="M56.334 14.748C56.334 16.8574 57.8896 18.2812 60.1748 18.2812C62.6445 18.2812 64.1211 16.8223 64.1211 14.3086V5.31738H62.1523V14.2998C62.1523 15.75 61.4492 16.5234 60.1572 16.5234C59.0586 16.5234 58.2939 15.8027 58.2676 14.748H56.334ZM74.3646 8.75391H72.4661V14.1416C72.4661 15.583 71.64 16.5322 70.2689 16.5322C68.9593 16.5322 68.2913 15.7764 68.2913 14.3701V8.75391H66.3929V14.7393C66.3929 16.8574 67.6234 18.167 69.6361 18.167C71.0511 18.167 71.9915 17.543 72.5013 16.4355H72.5452V18H74.3646V8.75391ZM76.4254 18H78.3239V12.6123C78.3239 11.1797 79.1852 10.2305 80.5211 10.2305C81.8395 10.2305 82.4899 10.9951 82.4899 12.3838V18H84.3971V12.0146C84.3971 9.89648 83.2282 8.5957 81.1891 8.5957C79.7653 8.5957 78.7809 9.24609 78.2799 10.3008H78.236V8.75391H76.4254V18ZM86.4755 18H88.374V8.75391H86.4755V18ZM87.4248 7.40039C88.04 7.40039 88.5322 6.91699 88.5322 6.31934C88.5322 5.71289 88.04 5.22949 87.4248 5.22949C86.8183 5.22949 86.3261 5.71289 86.3261 6.31934C86.3261 6.91699 86.8183 7.40039 87.4248 7.40039ZM94.469 18.1758C97.1145 18.1758 98.8548 16.3564 98.8548 13.377C98.8548 10.4062 97.1057 8.58691 94.469 8.58691C91.8323 8.58691 90.0833 10.4062 90.0833 13.377C90.0833 16.3564 91.8235 18.1758 94.469 18.1758ZM94.469 16.6113C92.9837 16.6113 92.0169 15.4336 92.0169 13.377C92.0169 11.3291 92.9837 10.1514 94.469 10.1514C95.9544 10.1514 96.9212 11.3291 96.9212 13.377C96.9212 15.4336 95.9632 16.6113 94.469 16.6113ZM100.503 18H102.401V12.4629C102.401 11.1533 103.157 10.3359 104.379 10.3359C104.748 10.3359 105.082 10.3799 105.231 10.4414V8.6748C105.09 8.64844 104.853 8.60449 104.581 8.60449C103.491 8.60449 102.665 9.24609 102.357 10.3271H102.313V8.75391H100.503V18ZM112.622 5.31738H110.654V13.5439C110.654 16.2773 112.605 18.2109 115.786 18.2109C118.968 18.2109 120.919 16.2773 120.919 13.5439V5.31738H118.959V13.377C118.959 15.1875 117.808 16.4619 115.786 16.4619C113.765 16.4619 112.622 15.1875 112.622 13.377V5.31738ZM125.406 18V5.31738H123.437V18H125.406ZM131.76 5.31738V18H136.234C140.013 18 142.237 15.6445 142.237 11.6367C142.237 7.6377 140.004 5.31738 136.234 5.31738H131.76ZM133.729 7.01367H136.049C138.73 7.01367 140.224 8.66602 140.224 11.6543C140.224 14.6514 138.738 16.2949 136.049 16.2949H133.729V7.01367ZM147.936 10.1162C149.263 10.1162 150.16 11.1094 150.204 12.5244H145.581C145.677 11.127 146.609 10.1162 147.936 10.1162ZM150.195 15.2842C149.94 16.0928 149.14 16.6377 148.059 16.6377C146.539 16.6377 145.572 15.5742 145.572 13.9658V13.8516H152.102V13.2012C152.102 10.3975 150.502 8.58691 147.936 8.58691C145.326 8.58691 143.656 10.5205 143.656 13.4209C143.656 16.3389 145.299 18.1758 148.015 18.1758C150.133 18.1758 151.733 16.9717 151.997 15.2842H150.195ZM153.592 11.373C153.592 12.665 154.435 13.5352 156.105 13.9395L157.758 14.3438C158.724 14.5898 159.076 14.915 159.076 15.5039C159.076 16.251 158.373 16.7256 157.23 16.7256C156.07 16.7256 155.385 16.2334 155.235 15.3457H153.354C153.504 17.042 154.954 18.1758 157.142 18.1758C159.41 18.1758 160.983 17.0156 160.983 15.3281C160.983 13.9658 160.28 13.2627 158.417 12.8145L156.861 12.4541C155.903 12.2168 155.446 11.8301 155.446 11.2588C155.446 10.5293 156.132 10.0283 157.16 10.0283C158.223 10.0283 158.9 10.5469 158.988 11.3818H160.772C160.711 9.73828 159.269 8.58691 157.213 8.58691C155.051 8.58691 153.592 9.7207 153.592 11.373ZM162.701 18H164.6V8.75391H162.701V18ZM163.651 7.40039C164.266 7.40039 164.758 6.91699 164.758 6.31934C164.758 5.71289 164.266 5.22949 163.651 5.22949C163.044 5.22949 162.552 5.71289 162.552 6.31934C162.552 6.91699 163.044 7.40039 163.651 7.40039ZM170.66 16.4619C169.201 16.4619 168.251 15.2842 168.251 13.3506C168.251 11.4258 169.201 10.2041 170.66 10.2041C172.145 10.2041 173.121 11.4521 173.121 13.3506C173.121 15.2578 172.145 16.4619 170.66 16.4619ZM170.677 21.4805C173.314 21.4805 175.019 20.0391 175.019 17.833V8.75391H173.173V10.3359H173.138C172.576 9.26367 171.503 8.60449 170.194 8.60449C167.821 8.60449 166.309 10.4326 166.309 13.3418C166.309 16.2246 167.83 18.0352 170.15 18.0352C171.468 18.0352 172.558 17.376 173.077 16.374H173.112V17.8945C173.112 19.1602 172.233 20.0039 170.748 20.0039C169.666 20.0039 168.823 19.4941 168.55 18.7207H166.643C166.88 20.3203 168.498 21.4805 170.677 21.4805ZM177.08 18H178.978V12.6123C178.978 11.1797 179.84 10.2305 181.176 10.2305C182.494 10.2305 183.144 10.9951 183.144 12.3838V18H185.052V12.0146C185.052 9.89648 183.883 8.5957 181.844 8.5957C180.42 8.5957 179.435 9.24609 178.934 10.3008H178.89V8.75391H177.08V18ZM190.936 10.1162C192.263 10.1162 193.159 11.1094 193.203 12.5244H188.58C188.677 11.127 189.609 10.1162 190.936 10.1162ZM193.194 15.2842C192.94 16.0928 192.14 16.6377 191.059 16.6377C189.538 16.6377 188.571 15.5742 188.571 13.9658V13.8516H195.102V13.2012C195.102 10.3975 193.502 8.58691 190.936 8.58691C188.325 8.58691 186.655 10.5205 186.655 13.4209C186.655 16.3389 188.299 18.1758 191.015 18.1758C193.133 18.1758 194.733 16.9717 194.996 15.2842H193.194ZM196.758 18H198.657V12.4629C198.657 11.1533 199.413 10.3359 200.634 10.3359C201.003 10.3359 201.337 10.3799 201.487 10.4414V8.6748C201.346 8.64844 201.109 8.60449 200.836 8.60449C199.747 8.60449 198.92 9.24609 198.613 10.3271H198.569V8.75391H196.758V18Z" fill="#111827"/>
<path d="M57.875 40V31.5449H56.8203V40H57.875ZM59.4774 40H60.497V36.4141C60.497 35.3828 61.1239 34.7031 62.0848 34.7031C63.0223 34.7031 63.4852 35.2422 63.4852 36.2266V40H64.5048V36.0449C64.5048 34.6621 63.7313 33.8008 62.3954 33.8008C61.452 33.8008 60.8016 34.2227 60.4618 34.8789H60.4384V33.9062H59.4774V40ZM70.9236 33.9062H69.863L68.1755 38.916H68.1521L66.4705 33.9062H65.3982L67.6423 40H68.6853L70.9236 33.9062ZM71.8991 40H72.9186V33.9062H71.8991V40ZM72.4088 32.8809C72.7604 32.8809 73.0475 32.5938 73.0475 32.248C73.0475 31.8965 72.7604 31.6152 72.4088 31.6152C72.0631 31.6152 71.776 31.8965 71.776 32.248C71.776 32.5938 72.0631 32.8809 72.4088 32.8809ZM74.3101 35.5879C74.3101 36.4199 74.8374 36.9707 75.9097 37.2461L76.982 37.5215C77.6675 37.7031 77.9195 37.9375 77.9195 38.3711C77.9195 38.9219 77.4097 39.2734 76.5835 39.2734C75.7573 39.2734 75.2769 38.9336 75.1655 38.3008H74.146C74.2515 39.3789 75.1831 40.1055 76.5191 40.1055C77.9429 40.1055 78.9448 39.3555 78.9448 38.2949C78.9448 37.3984 78.4995 36.9531 77.2691 36.6426L76.3257 36.4141C75.6343 36.2383 75.312 35.957 75.312 35.5352C75.312 35.002 75.8042 34.6328 76.5484 34.6328C77.2984 34.6328 77.773 34.9961 77.8433 35.582H78.8159C78.7691 34.5508 77.8433 33.8008 76.5835 33.8008C75.2417 33.8008 74.3101 34.5449 74.3101 35.5879ZM80.1781 40H81.1977V33.9062H80.1781V40ZM80.6879 32.8809C81.0395 32.8809 81.3266 32.5938 81.3266 32.248C81.3266 31.8965 81.0395 31.6152 80.6879 31.6152C80.3422 31.6152 80.0551 31.8965 80.0551 32.248C80.0551 32.5938 80.3422 32.8809 80.6879 32.8809ZM85.22 40.1055C86.9016 40.1055 88.0384 38.8926 88.0384 36.9531C88.0384 35.0078 86.9016 33.8008 85.22 33.8008C83.5325 33.8008 82.3958 35.0078 82.3958 36.9531C82.3958 38.8926 83.5325 40.1055 85.22 40.1055ZM85.22 39.209C84.1419 39.209 83.4329 38.3887 83.4329 36.9531C83.4329 35.5176 84.1419 34.6973 85.22 34.6973C86.2981 34.6973 87.0012 35.5176 87.0012 36.9531C87.0012 38.3887 86.2981 39.209 85.22 39.209ZM89.1896 40H90.2091V36.4141C90.2091 35.3828 90.8361 34.7031 91.797 34.7031C92.7345 34.7031 93.1974 35.2422 93.1974 36.2266V40H94.217V36.0449C94.217 34.6621 93.4435 33.8008 92.1076 33.8008C91.1642 33.8008 90.5138 34.2227 90.174 34.8789H90.1505V33.9062H89.1896V40ZM100.451 38.5059C101.43 38.5059 102.232 37.7031 102.232 36.7246C102.232 35.7461 101.43 34.9434 100.451 34.9434C99.4726 34.9434 98.6698 35.7461 98.6698 36.7246C98.6698 37.7031 99.4726 38.5059 100.451 38.5059ZM106.293 38.0137C106.293 39.2969 107.277 40.1992 108.683 40.1992C110.242 40.1992 111.168 39.25 111.168 37.6445V31.5449H110.113V37.6387C110.113 38.6699 109.609 39.2266 108.677 39.2266C107.91 39.2266 107.365 38.7285 107.341 38.0137H106.293ZM114.78 39.2383C114.047 39.2383 113.561 38.8574 113.561 38.2773C113.561 37.7031 114.03 37.3398 114.85 37.2871L116.479 37.1875V37.6855C116.479 38.5645 115.741 39.2383 114.78 39.2383ZM114.551 40.1055C115.372 40.1055 116.145 39.6484 116.508 38.9512H116.532V40H117.499V35.7871C117.499 34.5742 116.596 33.8008 115.167 33.8008C113.725 33.8008 112.823 34.6094 112.752 35.6641H113.737C113.866 35.0664 114.358 34.6973 115.143 34.6973C115.987 34.6973 116.479 35.1426 116.479 35.8867V36.3965L114.733 36.4961C113.327 36.5781 112.524 37.2344 112.524 38.2773C112.524 39.373 113.338 40.1055 114.551 40.1055ZM119.986 36.6133V31.5449H118.966V40H119.986V37.7031L120.554 37.1641L122.816 40H123.999L121.275 36.5371L123.917 33.9062H122.681L119.986 36.6133ZM126.868 39.2383C126.135 39.2383 125.649 38.8574 125.649 38.2773C125.649 37.7031 126.118 37.3398 126.938 37.2871L128.567 37.1875V37.6855C128.567 38.5645 127.828 39.2383 126.868 39.2383ZM126.639 40.1055C127.459 40.1055 128.233 39.6484 128.596 38.9512H128.619V40H129.586V35.7871C129.586 34.5742 128.684 33.8008 127.254 33.8008C125.813 33.8008 124.91 34.6094 124.84 35.6641H125.825C125.953 35.0664 126.446 34.6973 127.231 34.6973C128.075 34.6973 128.567 35.1426 128.567 35.8867V36.3965L126.821 36.4961C125.414 36.5781 124.612 37.2344 124.612 38.2773C124.612 39.373 125.426 40.1055 126.639 40.1055ZM131.001 40H132.021V36.2031C132.021 35.3418 132.536 34.7734 133.327 34.7734C133.573 34.7734 133.79 34.8027 133.872 34.832V33.8418C133.79 33.8301 133.638 33.8008 133.462 33.8008C132.747 33.8008 132.185 34.2285 131.986 34.9023H131.962V33.9062H131.001V40ZM135.152 32.4355V33.9062H134.244V34.7441H135.152V38.418C135.152 39.5898 135.586 40.0469 136.705 40.0469C136.945 40.0469 137.227 40.0293 137.35 40V39.1445C137.279 39.1562 137.045 39.1738 136.928 39.1738C136.406 39.1738 136.172 38.9219 136.172 38.3652V34.7441H137.356V33.9062H136.172V32.4355H135.152ZM140.458 39.2383C139.726 39.2383 139.239 38.8574 139.239 38.2773C139.239 37.7031 139.708 37.3398 140.528 37.2871L142.157 37.1875V37.6855C142.157 38.5645 141.419 39.2383 140.458 39.2383ZM140.229 40.1055C141.05 40.1055 141.823 39.6484 142.186 38.9512H142.21V40H143.177V35.7871C143.177 34.5742 142.274 33.8008 140.845 33.8008C139.403 33.8008 138.501 34.6094 138.431 35.6641H139.415C139.544 35.0664 140.036 34.6973 140.821 34.6973C141.665 34.6973 142.157 35.1426 142.157 35.8867V36.3965L140.411 36.4961C139.005 36.5781 138.202 37.2344 138.202 38.2773C138.202 39.373 139.017 40.1055 140.229 40.1055ZM145.289 41.6816L146.092 38.6992H145.008L144.439 41.6816H145.289ZM150.966 40V31.5449H149.912V40H150.966ZM152.569 40H153.588V36.4141C153.588 35.3828 154.215 34.7031 155.176 34.7031C156.114 34.7031 156.577 35.2422 156.577 36.2266V40H157.596V36.0449C157.596 34.6621 156.823 33.8008 155.487 33.8008C154.543 33.8008 153.893 34.2227 153.553 34.8789H153.53V33.9062H152.569V40ZM161.326 40.1055C162.204 40.1055 162.902 39.6719 163.294 38.9688H163.312V40H164.285V31.5449H163.265V34.8965H163.242C162.878 34.2285 162.175 33.8008 161.302 33.8008C159.767 33.8008 158.718 35.043 158.718 36.9531C158.718 38.8633 159.773 40.1055 161.326 40.1055ZM161.519 34.6973C162.568 34.6973 163.271 35.5938 163.271 36.9531C163.271 38.3184 162.568 39.209 161.519 39.209C160.441 39.209 159.761 38.3359 159.761 36.9531C159.761 35.5762 160.441 34.6973 161.519 34.6973ZM168.307 40.1055C169.989 40.1055 171.125 38.8926 171.125 36.9531C171.125 35.0078 169.989 33.8008 168.307 33.8008C166.619 33.8008 165.483 35.0078 165.483 36.9531C165.483 38.8926 166.619 40.1055 168.307 40.1055ZM168.307 39.209C167.229 39.209 166.52 38.3887 166.52 36.9531C166.52 35.5176 167.229 34.6973 168.307 34.6973C169.385 34.6973 170.088 35.5176 170.088 36.9531C170.088 38.3887 169.385 39.209 168.307 39.209ZM172.276 40H173.296V36.4141C173.296 35.3828 173.923 34.7031 174.884 34.7031C175.821 34.7031 176.284 35.2422 176.284 36.2266V40H177.304V36.0449C177.304 34.6621 176.53 33.8008 175.194 33.8008C174.251 33.8008 173.601 34.2227 173.261 34.8789H173.237V33.9062H172.276V40ZM181.168 34.6855C182.129 34.6855 182.768 35.4121 182.791 36.4316H179.48C179.545 35.418 180.213 34.6855 181.168 34.6855ZM182.768 38.2539C182.598 38.8281 182.029 39.2207 181.256 39.2207C180.16 39.2207 179.475 38.4531 179.475 37.2871V37.2285H183.846V36.8418C183.846 34.9961 182.832 33.8008 181.186 33.8008C179.504 33.8008 178.426 35.084 178.426 36.9766C178.426 38.8926 179.486 40.1055 181.232 40.1055C182.562 40.1055 183.594 39.3203 183.77 38.2539H182.768ZM184.891 35.5879C184.891 36.4199 185.419 36.9707 186.491 37.2461L187.563 37.5215C188.249 37.7031 188.501 37.9375 188.501 38.3711C188.501 38.9219 187.991 39.2734 187.165 39.2734C186.339 39.2734 185.858 38.9336 185.747 38.3008H184.727C184.833 39.3789 185.765 40.1055 187.1 40.1055C188.524 40.1055 189.526 39.3555 189.526 38.2949C189.526 37.3984 189.081 36.9531 187.85 36.6426L186.907 36.4141C186.216 36.2383 185.893 35.957 185.893 35.5352C185.893 35.002 186.386 34.6328 187.13 34.6328C187.88 34.6328 188.354 34.9961 188.425 35.582H189.397C189.35 34.5508 188.425 33.8008 187.165 33.8008C185.823 33.8008 184.891 34.5449 184.891 35.5879ZM190.76 40H191.779V33.9062H190.76V40ZM191.269 32.8809C191.621 32.8809 191.908 32.5938 191.908 32.248C191.908 31.8965 191.621 31.6152 191.269 31.6152C190.924 31.6152 190.636 31.8965 190.636 32.248C190.636 32.5938 190.924 32.8809 191.269 32.8809ZM195.286 39.2383C194.553 39.2383 194.067 38.8574 194.067 38.2773C194.067 37.7031 194.536 37.3398 195.356 37.2871L196.985 37.1875V37.6855C196.985 38.5645 196.247 39.2383 195.286 39.2383ZM195.057 40.1055C195.878 40.1055 196.651 39.6484 197.014 38.9512H197.038V40H198.005V35.7871C198.005 34.5742 197.102 33.8008 195.673 33.8008C194.231 33.8008 193.329 34.6094 193.258 35.6641H194.243C194.372 35.0664 194.864 34.6973 195.649 34.6973C196.493 34.6973 196.985 35.1426 196.985 35.8867V36.3965L195.239 36.4961C193.833 36.5781 193.03 37.2344 193.03 38.2773C193.03 39.373 193.844 40.1055 195.057 40.1055Z" fill="#374151"/>
</svg>
