<svg width="375" height="37" viewBox="0 0 375 37" fill="none" xmlns="http://www.w3.org/2000/svg">
<rect x="0.5" y="0.5" width="374" height="36" fill="#F4F4F5"/>
<path d="M24.2969 21.1094C24.2969 22.9844 25.6797 24.25 27.7109 24.25C29.9062 24.25 31.2188 22.9531 31.2188 20.7188V12.7266H29.4688V20.7109C29.4688 22 28.8438 22.6875 27.6953 22.6875C26.7188 22.6875 26.0391 22.0469 26.0156 21.1094H24.2969ZM36.8084 24.1562C39.16 24.1562 40.7069 22.5391 40.7069 19.8906C40.7069 17.25 39.1522 15.6328 36.8084 15.6328C34.4647 15.6328 32.91 17.25 32.91 19.8906C32.91 22.5391 34.4569 24.1562 36.8084 24.1562ZM36.8084 22.7656C35.4881 22.7656 34.6287 21.7188 34.6287 19.8906C34.6287 18.0703 35.4881 17.0234 36.8084 17.0234C38.1287 17.0234 38.9881 18.0703 38.9881 19.8906C38.9881 21.7188 38.1366 22.7656 36.8084 22.7656ZM46.5466 24.1406C48.6325 24.1406 49.9762 22.5 49.9762 19.8906C49.9762 17.2891 48.6247 15.6484 46.5544 15.6484C45.3903 15.6484 44.4528 16.2266 43.9606 17.1797H43.9216V12.7266H42.2341V24H43.8747V22.6016H43.9059C44.4137 23.5547 45.3434 24.1406 46.5466 24.1406ZM46.0934 17.0703C47.4216 17.0703 48.2419 18.1641 48.2419 19.8906C48.2419 21.6328 47.4216 22.7109 46.0934 22.7109C44.8122 22.7109 43.9137 21.6016 43.9137 19.8906C43.9137 18.1953 44.8122 17.0703 46.0934 17.0703ZM54.8666 24H56.5541V19.2109C56.5541 17.9375 57.3197 17.0938 58.5072 17.0938C59.6791 17.0938 60.2572 17.7734 60.2572 19.0078V24H61.9525V18.6797C61.9525 16.7969 60.9134 15.6406 59.1009 15.6406C57.8353 15.6406 56.9603 16.2188 56.515 17.1562H56.4759V15.7812H54.8666V24ZM67.2766 24.1562C69.6281 24.1562 71.175 22.5391 71.175 19.8906C71.175 17.25 69.6203 15.6328 67.2766 15.6328C64.9328 15.6328 63.3781 17.25 63.3781 19.8906C63.3781 22.5391 64.925 24.1562 67.2766 24.1562ZM67.2766 22.7656C65.9562 22.7656 65.0969 21.7188 65.0969 19.8906C65.0969 18.0703 65.9562 17.0234 67.2766 17.0234C68.5969 17.0234 69.4562 18.0703 69.4562 19.8906C69.4562 21.7188 68.6047 22.7656 67.2766 22.7656ZM73.1319 13.8359V15.7812H71.9366V17.1172H73.1319V21.8359C73.1319 23.4219 73.7803 24.0547 75.4444 24.0547C75.8194 24.0547 76.1944 24.0234 76.3819 23.9766V22.6406C76.2725 22.6641 75.9991 22.6797 75.8272 22.6797C75.1397 22.6797 74.8272 22.3594 74.8272 21.6484V17.1172H76.3897V15.7812H74.8272V13.8359H73.1319ZM77.995 24H79.6825V15.7812H77.995V24ZM78.8387 14.5781C79.3856 14.5781 79.8231 14.1484 79.8231 13.6172C79.8231 13.0781 79.3856 12.6484 78.8387 12.6484C78.2997 12.6484 77.8622 13.0781 77.8622 13.6172C77.8622 14.1484 78.2997 14.5781 78.8387 14.5781ZM82.0612 24H83.7566V17.1172H85.3972V15.7969H83.7331V15.0234C83.7331 14.2969 84.0769 13.9297 84.8112 13.9297C85.0378 13.9297 85.2644 13.9453 85.4284 13.9766V12.7266C85.2097 12.6875 84.8269 12.6484 84.4831 12.6484C82.8112 12.6484 82.0612 13.3984 82.0612 14.9922V15.7969H80.9284V17.1172H82.0612V24ZM86.94 24H88.6275V15.7812H86.94V24ZM87.7837 14.5781C88.3306 14.5781 88.7681 14.1484 88.7681 13.6172C88.7681 13.0781 88.3306 12.6484 87.7837 12.6484C87.2447 12.6484 86.8072 13.0781 86.8072 13.6172C86.8072 14.1484 87.2447 14.5781 87.7837 14.5781ZM97.5687 18.6094C97.4203 16.9922 96.1312 15.6328 94.0141 15.6328C91.6781 15.6328 90.1469 17.2812 90.1469 19.8906C90.1469 22.5469 91.6781 24.1562 94.0297 24.1562C96.0062 24.1562 97.4047 22.9688 97.5844 21.2188H95.9594C95.7641 22.1719 95.0844 22.7422 94.0453 22.7422C92.7328 22.7422 91.8656 21.6953 91.8656 19.8906C91.8656 18.125 92.725 17.0391 94.0297 17.0391C95.1312 17.0391 95.7875 17.7344 95.9594 18.6094H97.5687ZM101.815 22.8047C100.908 22.8047 100.315 22.3359 100.315 21.6172C100.315 20.9141 100.885 20.4688 101.893 20.3984L103.916 20.2734V20.9219C103.916 21.9922 102.994 22.8047 101.815 22.8047ZM101.346 24.1406C102.424 24.1406 103.463 23.5625 103.94 22.6484H103.979V24H105.596V18.3359C105.596 16.6875 104.323 15.6328 102.33 15.6328C100.299 15.6328 99.0334 16.7266 98.9397 18.2109H100.533C100.682 17.4766 101.291 17.0078 102.268 17.0078C103.299 17.0078 103.916 17.5547 103.916 18.4688V19.1016L101.666 19.2344C99.7131 19.3438 98.6116 20.2266 98.6116 21.6641C98.6116 23.1406 99.7366 24.1406 101.346 24.1406ZM107.889 13.8359V15.7812H106.693V17.1172H107.889V21.8359C107.889 23.4219 108.537 24.0547 110.201 24.0547C110.576 24.0547 110.951 24.0234 111.139 23.9766V22.6406C111.029 22.6641 110.756 22.6797 110.584 22.6797C109.897 22.6797 109.584 22.3594 109.584 21.6484V17.1172H111.147V15.7812H109.584V13.8359H107.889ZM112.752 24H114.439V15.7812H112.752V24ZM113.596 14.5781C114.143 14.5781 114.58 14.1484 114.58 13.6172C114.58 13.0781 114.143 12.6484 113.596 12.6484C113.057 12.6484 112.619 13.0781 112.619 13.6172C112.619 14.1484 113.057 14.5781 113.596 14.5781ZM119.857 24.1562C122.209 24.1562 123.756 22.5391 123.756 19.8906C123.756 17.25 122.201 15.6328 119.857 15.6328C117.513 15.6328 115.959 17.25 115.959 19.8906C115.959 22.5391 117.506 24.1562 119.857 24.1562ZM119.857 22.7656C118.537 22.7656 117.677 21.7188 117.677 19.8906C117.677 18.0703 118.537 17.0234 119.857 17.0234C121.177 17.0234 122.037 18.0703 122.037 19.8906C122.037 21.7188 121.185 22.7656 119.857 22.7656ZM125.22 24H126.908V19.2109C126.908 17.9375 127.673 17.0938 128.861 17.0938C130.033 17.0938 130.611 17.7734 130.611 19.0078V24H132.306V18.6797C132.306 16.7969 131.267 15.6406 129.455 15.6406C128.189 15.6406 127.314 16.2188 126.869 17.1562H126.83V15.7812H125.22V24Z" fill="#6B7280"/>
<rect x="0.5" y="0.5" width="374" height="36" stroke="#E5E7EB"/>
</svg>
