<svg width="327" height="68" viewBox="0 0 327 68" fill="none" xmlns="http://www.w3.org/2000/svg">
<mask id="path-1-inside-1_228_5036" fill="white">
<path d="M0 0H327V68H0V0Z"/>
</mask>
<path d="M0 0H327V68H0V0Z" fill="white"/>
<rect y="14" width="40" height="40" rx="20" fill="#D6E4FF"/>
<path d="M19.9998 42.9583C15.0582 42.9583 11.0415 38.9417 11.0415 34C11.0415 29.0583 15.0582 25.0417 19.9998 25.0417C24.9415 25.0417 28.9582 29.0583 28.9582 34C28.9582 38.9417 24.9415 42.9583 19.9998 42.9583ZM19.9998 26.2917C15.7498 26.2917 12.2915 29.75 12.2915 34C12.2915 38.25 15.7498 41.7083 19.9998 41.7083C24.2498 41.7083 27.7082 38.25 27.7082 34C27.7082 29.75 24.2498 26.2917 19.9998 26.2917Z" fill="#3366FF"/>
<path d="M17.5002 42.125H16.6669C16.3252 42.125 16.0419 41.8417 16.0419 41.5C16.0419 41.1583 16.3085 40.8833 16.6502 40.875C15.3419 36.4083 15.3419 31.5917 16.6502 27.125C16.3085 27.1167 16.0419 26.8417 16.0419 26.5C16.0419 26.1583 16.3252 25.875 16.6669 25.875H17.5002C17.7002 25.875 17.8919 25.975 18.0085 26.1333C18.1252 26.3 18.1585 26.5083 18.0919 26.7C16.5252 31.4083 16.5252 36.5917 18.0919 41.3083C18.1585 41.5 18.1252 41.7083 18.0085 41.875C17.8919 42.025 17.7002 42.125 17.5002 42.125Z" fill="#3366FF"/>
<path d="M22.5 42.125C22.4333 42.125 22.3667 42.1167 22.3 42.0917C21.975 41.9833 21.7917 41.625 21.9083 41.3C23.475 36.5917 23.475 31.4083 21.9083 26.6917C21.8 26.3667 21.975 26.0083 22.3 25.9C22.6333 25.7917 22.9833 25.9667 23.0917 26.2917C24.75 31.2583 24.75 36.725 23.0917 41.6833C23.0083 41.9583 22.7583 42.125 22.5 42.125Z" fill="#3366FF"/>
<path d="M20 38.3333C17.675 38.3333 15.3583 38.0083 13.125 37.35C13.1167 37.6833 12.8417 37.9583 12.5 37.9583C12.1583 37.9583 11.875 37.675 11.875 37.3333V36.5C11.875 36.3 11.975 36.1083 12.1333 35.9917C12.3 35.875 12.5083 35.8417 12.7 35.9083C17.4083 37.475 22.6 37.475 27.3083 35.9083C27.5 35.8417 27.7083 35.875 27.875 35.9917C28.0417 36.1083 28.1333 36.3 28.1333 36.5V37.3333C28.1333 37.675 27.85 37.9583 27.5083 37.9583C27.1667 37.9583 26.8917 37.6917 26.8833 37.35C24.6417 38.0083 22.325 38.3333 20 38.3333Z" fill="#3366FF"/>
<path d="M27.5001 32.125C27.4335 32.125 27.3668 32.1167 27.3001 32.0917C22.5918 30.525 17.4001 30.525 12.6918 32.0917C12.3585 32.2 12.0085 32.025 11.9001 31.7C11.8001 31.3667 11.9751 31.0167 12.3001 30.9083C17.2668 29.25 22.7335 29.25 27.6918 30.9083C28.0168 31.0167 28.2001 31.375 28.0835 31.7C28.0085 31.9583 27.7585 32.125 27.5001 32.125Z" fill="#3366FF"/>
<path d="M59.9375 38.2344H54.5V28.2266H53.0938V39.5H59.9375V38.2344ZM64.1131 38.4844C63.1366 38.4844 62.4881 37.9766 62.4881 37.2031C62.4881 36.4375 63.1131 35.9531 64.2069 35.8828L66.3787 35.75V36.4141C66.3787 37.5859 65.3944 38.4844 64.1131 38.4844ZM63.8084 39.6406C64.9022 39.6406 65.9334 39.0312 66.4178 38.1016H66.4491V39.5H67.7381V33.8828C67.7381 32.2656 66.535 31.2344 64.6287 31.2344C62.7069 31.2344 61.5037 32.3125 61.41 33.7188H62.7225C62.8944 32.9219 63.5506 32.4297 64.5975 32.4297C65.7225 32.4297 66.3787 33.0234 66.3787 34.0156V34.6953L64.0506 34.8281C62.1756 34.9375 61.1053 35.8125 61.1053 37.2031C61.1053 38.6641 62.1912 39.6406 63.8084 39.6406ZM69.6247 39.5H70.9841V34.7188C70.9841 33.3438 71.82 32.4375 73.1012 32.4375C74.3512 32.4375 74.9684 33.1562 74.9684 34.4688V39.5H76.3278V34.2266C76.3278 32.3828 75.2966 31.2344 73.5153 31.2344C72.2575 31.2344 71.3903 31.7969 70.9372 32.6719H70.9059V31.375H69.6247V39.5ZM81.5269 38.3672C80.1284 38.3672 79.2144 37.2266 79.2144 35.4062C79.2144 33.5859 80.1284 32.4297 81.5269 32.4297C82.9409 32.4297 83.8862 33.6172 83.8862 35.4062C83.8862 37.1953 82.9409 38.3672 81.5269 38.3672ZM81.5737 42.5625C83.8159 42.5625 85.2456 41.2734 85.2456 39.3359V31.375H83.9487V32.7422H83.9253C83.3862 31.7969 82.4331 31.2344 81.2847 31.2344C79.1831 31.2344 77.8237 32.8594 77.8237 35.4062C77.8237 37.9297 79.1831 39.5625 81.2534 39.5625C82.3941 39.5625 83.355 38.9844 83.855 38.1016H83.8862V39.3828C83.8862 40.5938 83.0347 41.4062 81.6284 41.4062C80.6128 41.4062 79.8081 40.9141 79.5425 40.1719H78.1441C78.3706 41.5547 79.7847 42.5625 81.5737 42.5625ZM89.8587 38.4844C88.8822 38.4844 88.2337 37.9766 88.2337 37.2031C88.2337 36.4375 88.8587 35.9531 89.9525 35.8828L92.1244 35.75V36.4141C92.1244 37.5859 91.14 38.4844 89.8587 38.4844ZM89.5541 39.6406C90.6478 39.6406 91.6791 39.0312 92.1634 38.1016H92.1947V39.5H93.4837V33.8828C93.4837 32.2656 92.2806 31.2344 90.3744 31.2344C88.4525 31.2344 87.2494 32.3125 87.1556 33.7188H88.4681C88.64 32.9219 89.2962 32.4297 90.3431 32.4297C91.4681 32.4297 92.1244 33.0234 92.1244 34.0156V34.6953L89.7962 34.8281C87.9212 34.9375 86.8509 35.8125 86.8509 37.2031C86.8509 38.6641 87.9369 39.6406 89.5541 39.6406ZM102.042 31.375H100.683V36.1484C100.683 37.5312 99.8859 38.4375 98.5656 38.4375C97.3078 38.4375 96.6906 37.7266 96.6906 36.4062V31.375H95.3312V36.6484C95.3312 38.4922 96.3703 39.6406 98.1437 39.6406C99.3937 39.6406 100.237 39.1172 100.722 38.1797H100.753V39.5H102.042V31.375ZM107.272 38.3672C105.874 38.3672 104.96 37.2266 104.96 35.4062C104.96 33.5859 105.874 32.4297 107.272 32.4297C108.687 32.4297 109.632 33.6172 109.632 35.4062C109.632 37.1953 108.687 38.3672 107.272 38.3672ZM107.319 42.5625C109.562 42.5625 110.991 41.2734 110.991 39.3359V31.375H109.694V32.7422H109.671C109.132 31.7969 108.179 31.2344 107.03 31.2344C104.929 31.2344 103.569 32.8594 103.569 35.4062C103.569 37.9297 104.929 39.5625 106.999 39.5625C108.14 39.5625 109.101 38.9844 109.601 38.1016H109.632V39.3828C109.632 40.5938 108.78 41.4062 107.374 41.4062C106.358 41.4062 105.554 40.9141 105.288 40.1719H103.89C104.116 41.5547 105.53 42.5625 107.319 42.5625ZM116.182 32.4141C117.464 32.4141 118.315 33.3828 118.347 34.7422H113.932C114.018 33.3906 114.909 32.4141 116.182 32.4141ZM118.315 37.1719C118.089 37.9375 117.331 38.4609 116.3 38.4609C114.839 38.4609 113.925 37.4375 113.925 35.8828V35.8047H119.753V35.2891C119.753 32.8281 118.401 31.2344 116.206 31.2344C113.964 31.2344 112.526 32.9453 112.526 35.4688C112.526 38.0234 113.94 39.6406 116.268 39.6406C118.042 39.6406 119.417 38.5938 119.651 37.1719H118.315Z" fill="#111827"/>
<path d="M320.62 38.5467C320.493 38.5467 320.367 38.5 320.267 38.4C320.073 38.2067 320.073 37.8867 320.267 37.6933L323.96 34L320.267 30.3067C320.073 30.1133 320.073 29.7933 320.267 29.6C320.46 29.4067 320.78 29.4067 320.973 29.6L325.02 33.6467C325.213 33.84 325.213 34.16 325.02 34.3533L320.973 38.4C320.873 38.5 320.747 38.5467 320.62 38.5467Z" fill="#111827"/>
<path d="M324.553 34.5H313.333C313.06 34.5 312.833 34.2733 312.833 34C312.833 33.7267 313.06 33.5 313.333 33.5H324.553C324.827 33.5 325.053 33.7267 325.053 34C325.053 34.2733 324.827 34.5 324.553 34.5Z" fill="#111827"/>
<path d="M327 67H0V69H327V67Z" fill="#E5E7EB" mask="url(#path-1-inside-1_228_5036)"/>
</svg>
