<svg width="327" height="68" viewBox="0 0 327 68" fill="none" xmlns="http://www.w3.org/2000/svg">
<path d="M14.0684 26.3477H4.88086V9.27148H1.81836V29H14.0684V26.3477ZM22.4421 29.2734C26.5573 29.2734 29.2644 26.4434 29.2644 21.8086C29.2644 17.1875 26.5437 14.3574 22.4421 14.3574C18.3405 14.3574 15.6198 17.1875 15.6198 21.8086C15.6198 26.4434 18.3269 29.2734 22.4421 29.2734ZM22.4421 26.8398C20.1316 26.8398 18.6277 25.0078 18.6277 21.8086C18.6277 18.623 20.1316 16.791 22.4421 16.791C24.7527 16.791 26.2566 18.623 26.2566 21.8086C26.2566 25.0078 24.7663 26.8398 22.4421 26.8398ZM37.9526 26.6074C35.683 26.6074 34.2065 24.7754 34.2065 21.7676C34.2065 18.7734 35.683 16.873 37.9526 16.873C40.2631 16.873 41.7807 18.8145 41.7807 21.7676C41.7807 24.7344 40.2631 26.6074 37.9526 26.6074ZM37.9799 34.4141C42.0815 34.4141 44.7338 32.1719 44.7338 28.7402V14.6172H41.8627V17.0781H41.808C40.933 15.4102 39.2651 14.3848 37.228 14.3848C33.5366 14.3848 31.185 17.2285 31.185 21.7539C31.185 26.2383 33.5502 29.0547 37.1596 29.0547C39.2104 29.0547 40.9057 28.0293 41.7123 26.4707H41.767V28.8359C41.767 30.8047 40.3998 32.1172 38.0893 32.1172C36.4077 32.1172 35.0952 31.3242 34.6713 30.1211H31.7045C32.0737 32.6094 34.5893 34.4141 37.9799 34.4141ZM48.0353 29H50.9884V14.6172H48.0353V29ZM49.5119 12.5117C50.4689 12.5117 51.2345 11.7598 51.2345 10.8301C51.2345 9.88672 50.4689 9.13477 49.5119 9.13477C48.5685 9.13477 47.8029 9.88672 47.8029 10.8301C47.8029 11.7598 48.5685 12.5117 49.5119 12.5117ZM54.2899 29H57.243V20.6191C57.243 18.3906 58.5829 16.9141 60.661 16.9141C62.7118 16.9141 63.7235 18.1035 63.7235 20.2637V29H66.6903V19.6895C66.6903 16.3945 64.872 14.3711 61.7001 14.3711C59.4852 14.3711 57.954 15.3828 57.1747 17.0234H57.1063V14.6172H54.2899V29Z" fill="#111827"/>
<path d="M1.09375 51.7266V63H2.5V58.9766H5.10156C7.21875 58.9766 8.72656 57.4844 8.72656 55.3438C8.72656 53.2109 7.23438 51.7266 5.11719 51.7266H1.09375ZM2.5 52.9766H4.75C6.36719 52.9766 7.28125 53.8516 7.28125 55.3438C7.28125 56.8438 6.35938 57.7266 4.75 57.7266H2.5V52.9766ZM10.3631 63H11.7225V51.7266H10.3631V63ZM16.9762 55.9141C18.2575 55.9141 19.1091 56.8828 19.1403 58.2422H14.7262C14.8122 56.8906 15.7028 55.9141 16.9762 55.9141ZM19.1091 60.6719C18.8825 61.4375 18.1247 61.9609 17.0934 61.9609C15.6325 61.9609 14.7184 60.9375 14.7184 59.3828V59.3047H20.5466V58.7891C20.5466 56.3281 19.195 54.7344 16.9997 54.7344C14.7575 54.7344 13.32 56.4453 13.32 58.9688C13.32 61.5234 14.7341 63.1406 17.0622 63.1406C18.8356 63.1406 20.2106 62.0938 20.445 60.6719H19.1091ZM24.7612 61.9844C23.7847 61.9844 23.1362 61.4766 23.1362 60.7031C23.1362 59.9375 23.7612 59.4531 24.855 59.3828L27.0269 59.25V59.9141C27.0269 61.0859 26.0425 61.9844 24.7612 61.9844ZM24.4566 63.1406C25.5503 63.1406 26.5816 62.5312 27.0659 61.6016H27.0972V63H28.3862V57.3828C28.3862 55.7656 27.1831 54.7344 25.2769 54.7344C23.355 54.7344 22.1519 55.8125 22.0581 57.2188H23.3706C23.5425 56.4219 24.1987 55.9297 25.2456 55.9297C26.3706 55.9297 27.0269 56.5234 27.0269 57.5156V58.1953L24.6987 58.3281C22.8237 58.4375 21.7534 59.3125 21.7534 60.7031C21.7534 62.1641 22.8394 63.1406 24.4566 63.1406ZM30.1322 57.1172C30.1322 58.2266 30.8353 58.9609 32.265 59.3281L33.6947 59.6953C34.6087 59.9375 34.9447 60.25 34.9447 60.8281C34.9447 61.5625 34.265 62.0312 33.1634 62.0312C32.0619 62.0312 31.4212 61.5781 31.2728 60.7344H29.9134C30.0541 62.1719 31.2962 63.1406 33.0775 63.1406C34.9759 63.1406 36.3119 62.1406 36.3119 60.7266C36.3119 59.5312 35.7181 58.9375 34.0775 58.5234L32.8197 58.2188C31.8978 57.9844 31.4681 57.6094 31.4681 57.0469C31.4681 56.3359 32.1244 55.8438 33.1166 55.8438C34.1166 55.8438 34.7494 56.3281 34.8431 57.1094H36.14C36.0775 55.7344 34.8431 54.7344 33.1634 54.7344C31.3744 54.7344 30.1322 55.7266 30.1322 57.1172ZM41.1437 55.9141C42.425 55.9141 43.2766 56.8828 43.3078 58.2422H38.8937C38.9797 56.8906 39.8703 55.9141 41.1437 55.9141ZM43.2766 60.6719C43.05 61.4375 42.2922 61.9609 41.2609 61.9609C39.8 61.9609 38.8859 60.9375 38.8859 59.3828V59.3047H44.7141V58.7891C44.7141 56.3281 43.3625 54.7344 41.1672 54.7344C38.925 54.7344 37.4875 56.4453 37.4875 58.9688C37.4875 61.5234 38.9016 63.1406 41.2297 63.1406C43.0031 63.1406 44.3781 62.0938 44.6125 60.6719H43.2766ZM49.7606 63H51.12V51.7266H49.7606V63ZM56.4831 63.1406C58.7253 63.1406 60.2409 61.5234 60.2409 58.9375C60.2409 56.3438 58.7253 54.7344 56.4831 54.7344C54.2331 54.7344 52.7175 56.3438 52.7175 58.9375C52.7175 61.5234 54.2331 63.1406 56.4831 63.1406ZM56.4831 61.9453C55.0456 61.9453 54.1003 60.8516 54.1003 58.9375C54.1003 57.0234 55.0456 55.9297 56.4831 55.9297C57.9206 55.9297 58.8581 57.0234 58.8581 58.9375C58.8581 60.8516 57.9206 61.9453 56.4831 61.9453ZM65.0806 61.8672C63.6822 61.8672 62.7681 60.7266 62.7681 58.9062C62.7681 57.0859 63.6822 55.9297 65.0806 55.9297C66.4947 55.9297 67.44 57.1172 67.44 58.9062C67.44 60.6953 66.4947 61.8672 65.0806 61.8672ZM65.1275 66.0625C67.3697 66.0625 68.7994 64.7734 68.7994 62.8359V54.875H67.5025V56.2422H67.4791C66.94 55.2969 65.9869 54.7344 64.8384 54.7344C62.7369 54.7344 61.3775 56.3594 61.3775 58.9062C61.3775 61.4297 62.7369 63.0625 64.8072 63.0625C65.9478 63.0625 66.9087 62.4844 67.4087 61.6016H67.44V62.8828C67.44 64.0938 66.5884 64.9062 65.1822 64.9062C64.1666 64.9062 63.3619 64.4141 63.0962 63.6719H61.6978C61.9244 65.0547 63.3384 66.0625 65.1275 66.0625ZM70.8031 63H72.1625V54.875H70.8031V63ZM71.4828 53.5078C71.9516 53.5078 72.3344 53.125 72.3344 52.6641C72.3344 52.1953 71.9516 51.8203 71.4828 51.8203C71.0219 51.8203 70.6391 52.1953 70.6391 52.6641C70.6391 53.125 71.0219 53.5078 71.4828 53.5078ZM74.1584 63H75.5178V58.2188C75.5178 56.8438 76.3538 55.9375 77.635 55.9375C78.885 55.9375 79.5022 56.6562 79.5022 57.9688V63H80.8616V57.7266C80.8616 55.8828 79.8303 54.7344 78.0491 54.7344C76.7913 54.7344 75.9241 55.2969 75.4709 56.1719H75.4397V54.875H74.1584V63ZM86.6347 52.9141V54.875H85.4238V55.9922H86.6347V60.8906C86.6347 62.4531 87.2128 63.0625 88.705 63.0625C89.0253 63.0625 89.4003 63.0391 89.5644 63V61.8594C89.4706 61.875 89.1581 61.8984 89.0019 61.8984C88.3066 61.8984 87.9941 61.5625 87.9941 60.8203V55.9922H89.5722V54.875H87.9941V52.9141H86.6347ZM94.3181 63.1406C96.5603 63.1406 98.0759 61.5234 98.0759 58.9375C98.0759 56.3438 96.5603 54.7344 94.3181 54.7344C92.0681 54.7344 90.5525 56.3438 90.5525 58.9375C90.5525 61.5234 92.0681 63.1406 94.3181 63.1406ZM94.3181 61.9453C92.8806 61.9453 91.9353 60.8516 91.9353 58.9375C91.9353 57.0234 92.8806 55.9297 94.3181 55.9297C95.7556 55.9297 96.6931 57.0234 96.6931 58.9375C96.6931 60.8516 95.7556 61.9453 94.3181 61.9453ZM103.49 63H104.849V55.9922H106.505V54.875H104.841V53.9766C104.841 53.1719 105.193 52.7812 105.927 52.7812C106.154 52.7812 106.38 52.8047 106.544 52.8281V51.7266C106.349 51.6953 106.021 51.6641 105.716 51.6641C104.216 51.6641 103.49 52.4062 103.49 53.9688V54.875H102.357V55.9922H103.49V63ZM108.142 63H109.501V54.875H108.142V63ZM108.822 53.5078C109.29 53.5078 109.673 53.125 109.673 52.6641C109.673 52.1953 109.29 51.8203 108.822 51.8203C108.361 51.8203 107.978 52.1953 107.978 52.6641C107.978 53.125 108.361 53.5078 108.822 53.5078ZM111.497 63H112.857V58.2188C112.857 56.8438 113.692 55.9375 114.974 55.9375C116.224 55.9375 116.841 56.6562 116.841 57.9688V63H118.2V57.7266C118.2 55.8828 117.169 54.7344 115.388 54.7344C114.13 54.7344 113.263 55.2969 112.81 56.1719H112.778V54.875H111.497V63ZM123.173 63.1406C124.345 63.1406 125.274 62.5625 125.798 61.625H125.821V63H127.118V51.7266H125.759V56.1953H125.728C125.243 55.3047 124.306 54.7344 123.142 54.7344C121.095 54.7344 119.696 56.3906 119.696 58.9375C119.696 61.4844 121.103 63.1406 123.173 63.1406ZM123.431 55.9297C124.829 55.9297 125.767 57.125 125.767 58.9375C125.767 60.7578 124.829 61.9453 123.431 61.9453C121.993 61.9453 121.087 60.7812 121.087 58.9375C121.087 57.1016 121.993 55.9297 123.431 55.9297ZM133.227 66.0391C134.696 66.0391 135.368 65.4688 136.063 63.5703L139.258 54.875H137.829L135.579 61.6406H135.555L133.305 54.875H131.852L134.852 63.0078L134.665 63.5781C134.352 64.5234 133.93 64.8906 133.173 64.8906C133.001 64.8906 132.79 64.8828 132.641 64.8516V65.9922C132.79 66.0234 133.063 66.0391 133.227 66.0391ZM143.629 63.1406C145.872 63.1406 147.387 61.5234 147.387 58.9375C147.387 56.3438 145.872 54.7344 143.629 54.7344C141.379 54.7344 139.864 56.3438 139.864 58.9375C139.864 61.5234 141.379 63.1406 143.629 63.1406ZM143.629 61.9453C142.192 61.9453 141.247 60.8516 141.247 58.9375C141.247 57.0234 142.192 55.9297 143.629 55.9297C145.067 55.9297 146.004 57.0234 146.004 58.9375C146.004 60.8516 145.067 61.9453 143.629 61.9453ZM155.594 54.875H154.235V59.6484C154.235 61.0312 153.438 61.9375 152.117 61.9375C150.86 61.9375 150.242 61.2266 150.242 59.9062V54.875H148.883V60.1484C148.883 61.9922 149.922 63.1406 151.696 63.1406C152.946 63.1406 153.789 62.6172 154.274 61.6797H154.305V63H155.594V54.875ZM157.52 63H158.879V57.9375C158.879 56.7891 159.567 56.0312 160.621 56.0312C160.949 56.0312 161.238 56.0703 161.348 56.1094V54.7891C161.238 54.7734 161.035 54.7344 160.801 54.7344C159.848 54.7344 159.098 55.3047 158.832 56.2031H158.801V54.875H157.52V63ZM169.137 63.1406C170.308 63.1406 171.238 62.5625 171.762 61.625H171.785V63H173.082V51.7266H171.723V56.1953H171.691C171.207 55.3047 170.269 54.7344 169.105 54.7344C167.058 54.7344 165.66 56.3906 165.66 58.9375C165.66 61.4844 167.066 63.1406 169.137 63.1406ZM169.394 55.9297C170.793 55.9297 171.73 57.125 171.73 58.9375C171.73 60.7578 170.793 61.9453 169.394 61.9453C167.957 61.9453 167.051 60.7812 167.051 58.9375C167.051 57.1016 167.957 55.9297 169.394 55.9297ZM175.078 63H176.437V57.9375C176.437 56.7891 177.125 56.0312 178.179 56.0312C178.508 56.0312 178.797 56.0703 178.906 56.1094V54.7891C178.797 54.7734 178.593 54.7344 178.359 54.7344C177.406 54.7344 176.656 55.3047 176.39 56.2031H176.359V54.875H175.078V63ZM183.042 55.9141C184.324 55.9141 185.175 56.8828 185.207 58.2422H180.792C180.878 56.8906 181.769 55.9141 183.042 55.9141ZM185.175 60.6719C184.949 61.4375 184.191 61.9609 183.16 61.9609C181.699 61.9609 180.785 60.9375 180.785 59.3828V59.3047H186.613V58.7891C186.613 56.3281 185.261 54.7344 183.066 54.7344C180.824 54.7344 179.386 56.4453 179.386 58.9688C179.386 61.5234 180.8 63.1406 183.128 63.1406C184.902 63.1406 186.277 62.0938 186.511 60.6719H185.175ZM190.827 61.9844C189.851 61.9844 189.202 61.4766 189.202 60.7031C189.202 59.9375 189.827 59.4531 190.921 59.3828L193.093 59.25V59.9141C193.093 61.0859 192.109 61.9844 190.827 61.9844ZM190.523 63.1406C191.617 63.1406 192.648 62.5312 193.132 61.6016H193.163V63H194.452V57.3828C194.452 55.7656 193.249 54.7344 191.343 54.7344C189.421 54.7344 188.218 55.8125 188.124 57.2188H189.437C189.609 56.4219 190.265 55.9297 191.312 55.9297C192.437 55.9297 193.093 56.5234 193.093 57.5156V58.1953L190.765 58.3281C188.89 58.4375 187.82 59.3125 187.82 60.7031C187.82 62.1641 188.906 63.1406 190.523 63.1406ZM196.339 63H197.698V57.9062C197.698 56.7812 198.48 55.9375 199.558 55.9375C200.566 55.9375 201.222 56.5781 201.222 57.5547V63H202.581V57.8359C202.581 56.7344 203.339 55.9375 204.417 55.9375C205.488 55.9375 206.105 56.5938 206.105 57.7031V63H207.464V57.3906C207.464 55.7812 206.425 54.7344 204.816 54.7344C203.675 54.7344 202.722 55.3125 202.269 56.2812H202.238C201.886 55.2969 201.066 54.7344 199.956 54.7344C198.863 54.7344 198.034 55.3125 197.652 56.1719H197.62V54.875H196.339V63ZM214.229 54.875H212.87V63.4141C212.87 64.3203 212.55 64.6562 211.667 64.6562C211.659 64.6562 211.472 64.6562 211.456 64.6562V65.7891C211.472 65.7969 211.69 65.7969 211.714 65.7969C213.448 65.7969 214.229 65.0469 214.229 63.3984V54.875ZM213.55 53.5078C214.018 53.5078 214.401 53.125 214.401 52.6641C214.401 52.1953 214.018 51.8203 213.55 51.8203C213.089 51.8203 212.706 52.1953 212.706 52.6641C212.706 53.125 213.089 53.5078 213.55 53.5078ZM219.592 63.1406C221.835 63.1406 223.35 61.5234 223.35 58.9375C223.35 56.3438 221.835 54.7344 219.592 54.7344C217.342 54.7344 215.827 56.3438 215.827 58.9375C215.827 61.5234 217.342 63.1406 219.592 63.1406ZM219.592 61.9453C218.155 61.9453 217.21 60.8516 217.21 58.9375C217.21 57.0234 218.155 55.9297 219.592 55.9297C221.03 55.9297 221.967 57.0234 221.967 58.9375C221.967 60.8516 221.03 61.9453 219.592 61.9453ZM228.924 63.1406C231.003 63.1406 232.378 61.4922 232.378 58.9375C232.378 56.3906 230.995 54.7344 228.948 54.7344C227.799 54.7344 226.854 55.3047 226.346 56.2344H226.315V51.7266H224.956V63H226.253V61.625H226.284C226.807 62.5625 227.737 63.1406 228.924 63.1406ZM228.659 55.9297C230.096 55.9297 230.987 57.0938 230.987 58.9375C230.987 60.7969 230.096 61.9453 228.659 61.9453C227.284 61.9453 226.307 60.75 226.307 58.9375C226.307 57.1328 227.284 55.9297 228.659 55.9297Z" fill="#6B7280"/>
</svg>
