<svg width="375" height="471" viewBox="0 0 375 471" fill="none" xmlns="http://www.w3.org/2000/svg">
<path d="M0 16C0 7.16345 7.16344 0 16 0H359C367.837 0 375 7.16344 375 16V471H0V16Z" fill="white"/>
<path d="M163.5 12H211.5" stroke="#1F2937" stroke-width="4" stroke-linecap="round"/>
<path d="M54.0002 72.7498H46.0002C41.3802 72.7498 40.5202 70.5998 40.3002 68.5098L39.5502 60.4998C39.4402 59.4498 39.4102 57.8998 40.4502 56.7398C41.3502 55.7398 42.8402 55.2598 45.0002 55.2598H55.0002C57.1702 55.2598 58.6602 55.7498 59.5502 56.7398C60.5902 57.8998 60.5602 59.4498 60.4502 60.5098L59.7002 68.4998C59.4802 70.5998 58.6202 72.7498 54.0002 72.7498ZM45.0002 56.7498C43.3102 56.7498 42.1502 57.0798 41.5602 57.7398C41.0702 58.2798 40.9102 59.1098 41.0402 60.3498L41.7902 68.3598C41.9602 69.9398 42.3902 71.2498 46.0002 71.2498H54.0002C57.6002 71.2498 58.0402 69.9398 58.2102 68.3498L58.9602 60.3598C59.0902 59.1098 58.9302 58.2798 58.4402 57.7398C57.8502 57.0798 56.6902 56.7498 55.0002 56.7498H45.0002Z" fill="#374151"/>
<path d="M54 56.75C53.59 56.75 53.25 56.41 53.25 56V55.2C53.25 53.42 53.25 52.75 50.8 52.75H49.2C46.75 52.75 46.75 53.42 46.75 55.2V56C46.75 56.41 46.41 56.75 46 56.75C45.59 56.75 45.25 56.41 45.25 56V55.2C45.25 53.44 45.25 51.25 49.2 51.25H50.8C54.75 51.25 54.75 53.44 54.75 55.2V56C54.75 56.41 54.41 56.75 54 56.75Z" fill="#374151"/>
<path d="M50 66.75C47.25 66.75 47.25 65.05 47.25 64.03V63C47.25 61.59 47.59 61.25 49 61.25H51C52.41 61.25 52.75 61.59 52.75 63V64C52.75 65.04 52.75 66.75 50 66.75ZM48.75 62.75C48.75 62.83 48.75 62.92 48.75 63V64.03C48.75 65.06 48.75 65.25 50 65.25C51.25 65.25 51.25 65.09 51.25 64.02V63C51.25 62.92 51.25 62.83 51.25 62.75C51.17 62.75 51.08 62.75 51 62.75H49C48.92 62.75 48.83 62.75 48.75 62.75Z" fill="#374151"/>
<path d="M52 64.7702C51.63 64.7702 51.3 64.4902 51.26 64.1102C51.21 63.7002 51.5 63.3202 51.91 63.2702C54.55 62.9402 57.08 61.9402 59.21 60.3902C59.54 60.1402 60.01 60.2202 60.26 60.5602C60.5 60.8902 60.43 61.3602 60.09 61.6102C57.75 63.3102 54.99 64.4002 52.09 64.7702C52.06 64.7702 52.03 64.7702 52 64.7702Z" fill="#374151"/>
<path d="M48.0002 64.7799C47.9702 64.7799 47.9402 64.7799 47.9102 64.7799C45.1702 64.4699 42.5002 63.4699 40.1902 61.8899C39.8502 61.6599 39.7602 61.1899 39.9902 60.8499C40.2202 60.5099 40.6902 60.4199 41.0302 60.6499C43.1402 62.0899 45.5702 62.9999 48.0702 63.2899C48.4802 63.3399 48.7802 63.7099 48.7302 64.1199C48.7002 64.4999 48.3802 64.7799 48.0002 64.7799Z" fill="#374151"/>
<path d="M80.1406 67.5L84.1641 56.2266H82.2969L79.2188 65.5312H79.1719L76.1016 56.2266H74.2031L78.2266 67.5H80.1406ZM85.2225 67.5H86.91V59.2812H85.2225V67.5ZM86.0662 58.0781C86.6131 58.0781 87.0506 57.6484 87.0506 57.1172C87.0506 56.5781 86.6131 56.1484 86.0662 56.1484C85.5272 56.1484 85.0897 56.5781 85.0897 57.1172C85.0897 57.6484 85.5272 58.0781 86.0662 58.0781ZM88.6481 61.6094C88.6481 62.7578 89.3981 63.5312 90.8825 63.8906L92.3512 64.25C93.2106 64.4688 93.5231 64.7578 93.5231 65.2812C93.5231 65.9453 92.8981 66.3672 91.8825 66.3672C90.8512 66.3672 90.2419 65.9297 90.1091 65.1406H88.4372C88.57 66.6484 89.8591 67.6562 91.8044 67.6562C93.82 67.6562 95.2184 66.625 95.2184 65.125C95.2184 63.9141 94.5934 63.2891 92.9372 62.8906L91.5544 62.5703C90.7028 62.3594 90.2966 62.0156 90.2966 61.5078C90.2966 60.8594 90.9059 60.4141 91.82 60.4141C92.7653 60.4141 93.3669 60.875 93.445 61.6172H95.0309C94.9762 60.1562 93.695 59.1328 91.8669 59.1328C89.945 59.1328 88.6481 60.1406 88.6481 61.6094ZM96.7456 67.5H98.4331V59.2812H96.7456V67.5ZM97.5894 58.0781C98.1362 58.0781 98.5737 57.6484 98.5737 57.1172C98.5737 56.5781 98.1362 56.1484 97.5894 56.1484C97.0503 56.1484 96.6128 56.5781 96.6128 57.1172C96.6128 57.6484 97.0503 58.0781 97.5894 58.0781ZM100.812 57.3359V59.2812H99.6166V60.6172H100.812V65.3359C100.812 66.9219 101.46 67.5547 103.124 67.5547C103.499 67.5547 103.874 67.5234 104.062 67.4766V66.1406C103.952 66.1641 103.679 66.1797 103.507 66.1797C102.82 66.1797 102.507 65.8594 102.507 65.1484V60.6172H104.07V59.2812H102.507V57.3359H100.812ZM110.772 59.2812H109.085V67.8828C109.085 68.7109 108.772 69.0234 107.937 69.0234C107.905 69.0234 107.726 69.0156 107.694 69.0156V70.3438C107.741 70.3594 108.007 70.3594 108.085 70.3594C109.905 70.3594 110.772 69.5625 110.772 67.8906V59.2812ZM109.929 58.0781C110.476 58.0781 110.913 57.6484 110.913 57.1172C110.913 56.5781 110.476 56.1484 109.929 56.1484C109.39 56.1484 108.952 56.5781 108.952 57.1172C108.952 57.6484 109.39 58.0781 109.929 58.0781ZM116.19 67.6562C118.542 67.6562 120.089 66.0391 120.089 63.3906C120.089 60.75 118.534 59.1328 116.19 59.1328C113.847 59.1328 112.292 60.75 112.292 63.3906C112.292 66.0391 113.839 67.6562 116.19 67.6562ZM116.19 66.2656C114.87 66.2656 114.011 65.2188 114.011 63.3906C114.011 61.5703 114.87 60.5234 116.19 60.5234C117.511 60.5234 118.37 61.5703 118.37 63.3906C118.37 65.2188 117.518 66.2656 116.19 66.2656ZM125.928 67.6406C128.014 67.6406 129.358 66 129.358 63.3906C129.358 60.7891 128.007 59.1484 125.936 59.1484C124.772 59.1484 123.835 59.7266 123.342 60.6797H123.303V56.2266H121.616V67.5H123.257V66.1016H123.288C123.796 67.0547 124.725 67.6406 125.928 67.6406ZM125.475 60.5703C126.803 60.5703 127.624 61.6641 127.624 63.3906C127.624 65.1328 126.803 66.2109 125.475 66.2109C124.194 66.2109 123.296 65.1016 123.296 63.3906C123.296 61.6953 124.194 60.5703 125.475 60.5703ZM138.53 59.1484C137.342 59.1484 136.397 59.75 135.912 60.6953H135.881V59.2812H134.248V70.2188H135.936V66.1484H135.975C136.444 67.0625 137.381 67.6406 138.561 67.6406C140.623 67.6406 141.991 65.9922 141.991 63.3906C141.991 60.7891 140.616 59.1484 138.53 59.1484ZM138.084 66.2109C136.787 66.2109 135.928 65.1016 135.928 63.3906C135.928 61.6953 136.795 60.5703 138.084 60.5703C139.42 60.5703 140.256 61.6719 140.256 63.3906C140.256 65.1172 139.42 66.2109 138.084 66.2109ZM146.987 67.6562C149.338 67.6562 150.885 66.0391 150.885 63.3906C150.885 60.75 149.33 59.1328 146.987 59.1328C144.643 59.1328 143.088 60.75 143.088 63.3906C143.088 66.0391 144.635 67.6562 146.987 67.6562ZM146.987 66.2656C145.666 66.2656 144.807 65.2188 144.807 63.3906C144.807 61.5703 145.666 60.5234 146.987 60.5234C148.307 60.5234 149.166 61.5703 149.166 63.3906C149.166 65.2188 148.315 66.2656 146.987 66.2656ZM152.201 61.6094C152.201 62.7578 152.951 63.5312 154.436 63.8906L155.904 64.25C156.764 64.4688 157.076 64.7578 157.076 65.2812C157.076 65.9453 156.451 66.3672 155.436 66.3672C154.404 66.3672 153.795 65.9297 153.662 65.1406H151.99C152.123 66.6484 153.412 67.6562 155.357 67.6562C157.373 67.6562 158.772 66.625 158.772 65.125C158.772 63.9141 158.147 63.2891 156.49 62.8906L155.107 62.5703C154.256 62.3594 153.85 62.0156 153.85 61.5078C153.85 60.8594 154.459 60.4141 155.373 60.4141C156.318 60.4141 156.92 60.875 156.998 61.6172H158.584C158.529 60.1562 157.248 59.1328 155.42 59.1328C153.498 59.1328 152.201 60.1406 152.201 61.6094ZM160.736 57.3359V59.2812H159.541V60.6172H160.736V65.3359C160.736 66.9219 161.385 67.5547 163.049 67.5547C163.424 67.5547 163.799 67.5234 163.986 67.4766V66.1406C163.877 66.1641 163.603 66.1797 163.432 66.1797C162.744 66.1797 162.432 65.8594 162.432 65.1484V60.6172H163.994V59.2812H162.432V57.3359H160.736Z" fill="#374151"/>
<path d="M326.94 67.78C326.814 67.78 326.687 67.7333 326.587 67.6333C326.394 67.44 326.394 67.12 326.587 66.9267L330.934 62.58C331.254 62.26 331.254 61.74 330.934 61.42L326.587 57.0733C326.394 56.88 326.394 56.56 326.587 56.3667C326.78 56.1733 327.1 56.1733 327.294 56.3667L331.64 60.7133C331.98 61.0533 332.174 61.5133 332.174 62C332.174 62.4867 331.987 62.9467 331.64 63.2867L327.294 67.6333C327.194 67.7267 327.067 67.78 326.94 67.78Z" fill="#111827"/>
<rect x="24.5" y="36.5" width="326" height="51" rx="25.5" stroke="#D1D5DB"/>
<path d="M54 136.75H46C42.98 136.75 41.25 135.02 41.25 132V122.25C41.25 119.1 42.85 117.5 46 117.5C46.41 117.5 46.75 117.84 46.75 118.25C46.75 118.65 46.91 119.03 47.19 119.31C47.47 119.59 47.85 119.75 48.25 119.75H51.75C52.58 119.75 53.25 119.08 53.25 118.25C53.25 117.84 53.59 117.5 54 117.5C57.15 117.5 58.75 119.1 58.75 122.25V132C58.75 135.02 57.02 136.75 54 136.75ZM45.35 119.02C43.77 119.15 42.75 119.86 42.75 122.25V132C42.75 134.22 43.78 135.25 46 135.25H54C56.22 135.25 57.25 134.22 57.25 132V122.25C57.25 119.86 56.23 119.16 54.65 119.02C54.31 120.3 53.14 121.25 51.75 121.25H48.25C47.45 121.25 46.7 120.94 46.13 120.37C45.75 119.99 45.49 119.53 45.35 119.02Z" fill="#374151"/>
<path d="M51.75 121.25H48.25C47.45 121.25 46.7 120.94 46.13 120.37C45.56 119.8 45.25 119.05 45.25 118.25C45.25 116.6 46.6 115.25 48.25 115.25H51.75C52.55 115.25 53.3 115.56 53.87 116.13C54.44 116.7 54.75 117.45 54.75 118.25C54.75 119.9 53.4 121.25 51.75 121.25ZM48.25 116.75C47.42 116.75 46.75 117.42 46.75 118.25C46.75 118.65 46.91 119.03 47.19 119.31C47.47 119.59 47.85 119.75 48.25 119.75H51.75C52.58 119.75 53.25 119.08 53.25 118.25C53.25 117.85 53.09 117.47 52.81 117.19C52.53 116.91 52.15 116.75 51.75 116.75H48.25Z" fill="#374151"/>
<path d="M50 127.75H46C45.59 127.75 45.25 127.41 45.25 127C45.25 126.59 45.59 126.25 46 126.25H50C50.41 126.25 50.75 126.59 50.75 127C50.75 127.41 50.41 127.75 50 127.75Z" fill="#374151"/>
<path d="M54 131.75H46C45.59 131.75 45.25 131.41 45.25 131C45.25 130.59 45.59 130.25 46 130.25H54C54.41 130.25 54.75 130.59 54.75 131C54.75 131.41 54.41 131.75 54 131.75Z" fill="#374151"/>
<path d="M80.1406 131.5L84.1641 120.227H82.2969L79.2188 129.531H79.1719L76.1016 120.227H74.2031L78.2266 131.5H80.1406ZM85.2225 131.5H86.91V123.281H85.2225V131.5ZM86.0662 122.078C86.6131 122.078 87.0506 121.648 87.0506 121.117C87.0506 120.578 86.6131 120.148 86.0662 120.148C85.5272 120.148 85.0897 120.578 85.0897 121.117C85.0897 121.648 85.5272 122.078 86.0662 122.078ZM92.2341 124.492C93.4137 124.492 94.2106 125.375 94.2497 126.633H90.1403C90.2262 125.391 91.0544 124.492 92.2341 124.492ZM94.2419 129.086C94.0153 129.805 93.3044 130.289 92.3434 130.289C90.9919 130.289 90.1325 129.344 90.1325 127.914V127.812H95.9372V127.234C95.9372 124.742 94.5153 123.133 92.2341 123.133C89.9137 123.133 88.4294 124.852 88.4294 127.43C88.4294 130.023 89.8903 131.656 92.3044 131.656C94.1872 131.656 95.6091 130.586 95.8434 129.086H94.2419ZM108.253 123.281H106.582L105.082 129.75H105.042L103.324 123.281H101.699L99.9878 129.75H99.9566L98.4566 123.281H96.7691L99.0269 131.5H100.769L102.48 125.344H102.519L104.246 131.5H106.003L108.253 123.281ZM112.855 131.5H114.542V126.422C114.542 125.367 115.253 124.586 116.253 124.586C117.206 124.586 117.808 125.188 117.808 126.133V131.5H119.464V126.367C119.464 125.328 120.159 124.586 121.159 124.586C122.159 124.586 122.73 125.195 122.73 126.258V131.5H124.425V125.852C124.425 124.219 123.362 123.141 121.737 123.141C120.566 123.141 119.597 123.75 119.175 124.75H119.136C118.808 123.727 117.98 123.141 116.839 123.141C115.73 123.141 114.87 123.75 114.503 124.664H114.464V123.281H112.855V131.5ZM127.03 134.562C128.741 134.562 129.546 133.922 130.249 131.93L133.335 123.281H131.554L129.468 129.969H129.444L127.358 123.281H125.53L128.499 131.508C128.499 131.516 128.351 132 128.351 132.016C128.093 132.859 127.679 133.188 126.89 133.188C126.749 133.188 126.468 133.188 126.343 133.156V134.523C126.468 134.547 126.897 134.562 127.03 134.562ZM140.772 130.305C139.866 130.305 139.272 129.836 139.272 129.117C139.272 128.414 139.842 127.969 140.85 127.898L142.874 127.773V128.422C142.874 129.492 141.952 130.305 140.772 130.305ZM140.303 131.641C141.382 131.641 142.421 131.062 142.897 130.148H142.936V131.5H144.553V125.836C144.553 124.188 143.28 123.133 141.288 123.133C139.257 123.133 137.991 124.227 137.897 125.711H139.491C139.639 124.977 140.249 124.508 141.225 124.508C142.257 124.508 142.874 125.055 142.874 125.969V126.602L140.624 126.734C138.671 126.844 137.569 127.727 137.569 129.164C137.569 130.641 138.694 131.641 140.303 131.641ZM150.635 123.148C149.448 123.148 148.503 123.75 148.018 124.695H147.987V123.281H146.354V134.219H148.042V130.148H148.081C148.549 131.062 149.487 131.641 150.667 131.641C152.729 131.641 154.096 129.992 154.096 127.391C154.096 124.789 152.721 123.148 150.635 123.148ZM150.19 130.211C148.893 130.211 148.034 129.102 148.034 127.391C148.034 125.695 148.901 124.57 150.19 124.57C151.526 124.57 152.362 125.672 152.362 127.391C152.362 129.117 151.526 130.211 150.19 130.211ZM159.842 123.148C158.655 123.148 157.709 123.75 157.225 124.695H157.194V123.281H155.561V134.219H157.248V130.148H157.287C157.756 131.062 158.694 131.641 159.873 131.641C161.936 131.641 163.303 129.992 163.303 127.391C163.303 124.789 161.928 123.148 159.842 123.148ZM159.397 130.211C158.1 130.211 157.241 129.102 157.241 127.391C157.241 125.695 158.108 124.57 159.397 124.57C160.733 124.57 161.569 125.672 161.569 127.391C161.569 129.117 160.733 130.211 159.397 130.211ZM164.83 131.5H166.518V120.227H164.83V131.5ZM168.467 131.5H170.154V123.281H168.467V131.5ZM169.311 122.078C169.857 122.078 170.295 121.648 170.295 121.117C170.295 120.578 169.857 120.148 169.311 120.148C168.772 120.148 168.334 120.578 168.334 121.117C168.334 121.648 168.772 122.078 169.311 122.078ZM179.096 126.109C178.947 124.492 177.658 123.133 175.541 123.133C173.205 123.133 171.674 124.781 171.674 127.391C171.674 130.047 173.205 131.656 175.557 131.656C177.533 131.656 178.932 130.469 179.111 128.719H177.486C177.291 129.672 176.611 130.242 175.572 130.242C174.26 130.242 173.393 129.195 173.393 127.391C173.393 125.625 174.252 124.539 175.557 124.539C176.658 124.539 177.314 125.234 177.486 126.109H179.096ZM183.342 130.305C182.435 130.305 181.842 129.836 181.842 129.117C181.842 128.414 182.412 127.969 183.42 127.898L185.443 127.773V128.422C185.443 129.492 184.521 130.305 183.342 130.305ZM182.873 131.641C183.951 131.641 184.99 131.062 185.467 130.148H185.506V131.5H187.123V125.836C187.123 124.188 185.849 123.133 183.857 123.133C181.826 123.133 180.56 124.227 180.467 125.711H182.06C182.209 124.977 182.818 124.508 183.795 124.508C184.826 124.508 185.443 125.055 185.443 125.969V126.602L183.193 126.734C181.24 126.844 180.138 127.727 180.138 129.164C180.138 130.641 181.263 131.641 182.873 131.641ZM189.416 121.336V123.281H188.22V124.617H189.416V129.336C189.416 130.922 190.064 131.555 191.728 131.555C192.103 131.555 192.478 131.523 192.666 131.477V130.141C192.556 130.164 192.283 130.18 192.111 130.18C191.423 130.18 191.111 129.859 191.111 129.148V124.617H192.673V123.281H191.111V121.336H189.416ZM194.279 131.5H195.966V123.281H194.279V131.5ZM195.122 122.078C195.669 122.078 196.107 121.648 196.107 121.117C196.107 120.578 195.669 120.148 195.122 120.148C194.583 120.148 194.146 120.578 194.146 121.117C194.146 121.648 194.583 122.078 195.122 122.078ZM201.384 131.656C203.736 131.656 205.283 130.039 205.283 127.391C205.283 124.75 203.728 123.133 201.384 123.133C199.04 123.133 197.486 124.75 197.486 127.391C197.486 130.039 199.033 131.656 201.384 131.656ZM201.384 130.266C200.064 130.266 199.204 129.219 199.204 127.391C199.204 125.57 200.064 124.523 201.384 124.523C202.704 124.523 203.564 125.57 203.564 127.391C203.564 129.219 202.712 130.266 201.384 130.266ZM206.747 131.5H208.435V126.711C208.435 125.438 209.2 124.594 210.388 124.594C211.56 124.594 212.138 125.273 212.138 126.508V131.5H213.833V126.18C213.833 124.297 212.794 123.141 210.982 123.141C209.716 123.141 208.841 123.719 208.396 124.656H208.357V123.281H206.747V131.5Z" fill="#374151"/>
<path d="M326.94 131.78C326.814 131.78 326.687 131.733 326.587 131.633C326.394 131.44 326.394 131.12 326.587 130.927L330.934 126.58C331.254 126.26 331.254 125.74 330.934 125.42L326.587 121.073C326.394 120.88 326.394 120.56 326.587 120.367C326.78 120.173 327.1 120.173 327.294 120.367L331.64 124.713C331.98 125.053 332.174 125.513 332.174 126C332.174 126.487 331.987 126.947 331.64 127.287L327.294 131.633C327.194 131.727 327.067 131.78 326.94 131.78Z" fill="#111827"/>
<rect x="24.5" y="100.5" width="326" height="51" rx="25.5" stroke="#D1D5DB"/>
<path d="M55 199.25H45C41.35 199.25 39.25 197.15 39.25 193.5V186.5C39.25 182.85 41.35 180.75 45 180.75H55C58.65 180.75 60.75 182.85 60.75 186.5V193.5C60.75 197.15 58.65 199.25 55 199.25ZM45 182.25C42.14 182.25 40.75 183.64 40.75 186.5V193.5C40.75 196.36 42.14 197.75 45 197.75H55C57.86 197.75 59.25 196.36 59.25 193.5V186.5C59.25 183.64 57.86 182.25 55 182.25H45Z" fill="#374151"/>
<path d="M49.9998 190.87C49.1598 190.87 48.3098 190.61 47.6598 190.08L44.5298 187.58C44.2098 187.32 44.1498 186.85 44.4098 186.53C44.6698 186.21 45.1398 186.15 45.4598 186.41L48.5898 188.91C49.3498 189.52 50.6398 189.52 51.3998 188.91L54.5298 186.41C54.8498 186.15 55.3298 186.2 55.5798 186.53C55.8398 186.85 55.7898 187.33 55.4598 187.58L52.3298 190.08C51.6898 190.61 50.8398 190.87 49.9998 190.87Z" fill="#374151"/>
<path d="M86.4453 195.5V184.227H84.4141L80.7734 193.125H80.7109L77.0625 184.227H75.0391V195.5H76.6328V187.203H76.6875L80.0938 195.414H81.3906L84.7891 187.203H84.8438V195.5H86.4453ZM91.1366 194.305C90.2303 194.305 89.6366 193.836 89.6366 193.117C89.6366 192.414 90.2069 191.969 91.2147 191.898L93.2381 191.773V192.422C93.2381 193.492 92.3162 194.305 91.1366 194.305ZM90.6678 195.641C91.7459 195.641 92.785 195.062 93.2616 194.148H93.3006V195.5H94.9178V189.836C94.9178 188.188 93.6444 187.133 91.6522 187.133C89.6209 187.133 88.3553 188.227 88.2616 189.711H89.8553C90.0037 188.977 90.6131 188.508 91.5897 188.508C92.6209 188.508 93.2381 189.055 93.2381 189.969V190.602L90.9881 190.734C89.035 190.844 87.9334 191.727 87.9334 193.164C87.9334 194.641 89.0584 195.641 90.6678 195.641ZM96.7184 195.5H98.4059V190.578C98.4059 189.414 99.0778 188.688 100.164 188.688C100.492 188.688 100.789 188.727 100.922 188.781V187.211C100.797 187.188 100.586 187.148 100.343 187.148C99.3747 187.148 98.6403 187.719 98.3669 188.68H98.3278V187.281H96.7184V195.5ZM103.894 190.805H103.878V184.227H102.191V195.5H103.878V192.547L104.582 191.852L107.371 195.5H109.332L105.792 190.82L109.199 187.281H107.214L103.894 190.805ZM116.652 194.305C115.745 194.305 115.152 193.836 115.152 193.117C115.152 192.414 115.722 191.969 116.73 191.898L118.753 191.773V192.422C118.753 193.492 117.831 194.305 116.652 194.305ZM116.183 195.641C117.261 195.641 118.3 195.062 118.777 194.148H118.816V195.5H120.433V189.836C120.433 188.188 119.159 187.133 117.167 187.133C115.136 187.133 113.87 188.227 113.777 189.711H115.37C115.519 188.977 116.128 188.508 117.105 188.508C118.136 188.508 118.753 189.055 118.753 189.969V190.602L116.503 190.734C114.55 190.844 113.448 191.727 113.448 193.164C113.448 194.641 114.573 195.641 116.183 195.641ZM122.085 189.609C122.085 190.758 122.835 191.531 124.319 191.891L125.788 192.25C126.647 192.469 126.96 192.758 126.96 193.281C126.96 193.945 126.335 194.367 125.319 194.367C124.288 194.367 123.679 193.93 123.546 193.141H121.874C122.007 194.648 123.296 195.656 125.241 195.656C127.257 195.656 128.655 194.625 128.655 193.125C128.655 191.914 128.03 191.289 126.374 190.891L124.991 190.57C124.14 190.359 123.733 190.016 123.733 189.508C123.733 188.859 124.343 188.414 125.257 188.414C126.202 188.414 126.804 188.875 126.882 189.617H128.468C128.413 188.156 127.132 187.133 125.304 187.133C123.382 187.133 122.085 188.141 122.085 189.609ZM140.585 187.281H138.897V192.07C138.897 193.352 138.163 194.195 136.944 194.195C135.78 194.195 135.186 193.523 135.186 192.273V187.281H133.499V192.602C133.499 194.484 134.592 195.648 136.382 195.648C137.639 195.648 138.475 195.094 138.928 194.109H138.967V195.5H140.585V187.281ZM142.417 195.5H144.104V190.711C144.104 189.438 144.87 188.594 146.057 188.594C147.229 188.594 147.807 189.273 147.807 190.508V195.5H149.503V190.18C149.503 188.297 148.463 187.141 146.651 187.141C145.385 187.141 144.51 187.719 144.065 188.656H144.026V187.281H142.417V195.5ZM151.295 195.5H152.983V190.578C152.983 189.414 153.655 188.688 154.741 188.688C155.069 188.688 155.366 188.727 155.498 188.781V187.211C155.373 187.188 155.162 187.148 154.92 187.148C153.952 187.148 153.217 187.719 152.944 188.68H152.905V187.281H151.295V195.5ZM159.783 188.492C160.963 188.492 161.76 189.375 161.799 190.633H157.69C157.776 189.391 158.604 188.492 159.783 188.492ZM161.791 193.086C161.565 193.805 160.854 194.289 159.893 194.289C158.541 194.289 157.682 193.344 157.682 191.914V191.812H163.487V191.234C163.487 188.742 162.065 187.133 159.783 187.133C157.463 187.133 155.979 188.852 155.979 191.43C155.979 194.023 157.44 195.656 159.854 195.656C161.737 195.656 163.158 194.586 163.393 193.086H161.791ZM167.834 194.305C166.928 194.305 166.334 193.836 166.334 193.117C166.334 192.414 166.904 191.969 167.912 191.898L169.936 191.773V192.422C169.936 193.492 169.014 194.305 167.834 194.305ZM167.365 195.641C168.443 195.641 169.482 195.062 169.959 194.148H169.998V195.5H171.615V189.836C171.615 188.188 170.342 187.133 168.35 187.133C166.318 187.133 165.053 188.227 164.959 189.711H166.553C166.701 188.977 167.311 188.508 168.287 188.508C169.318 188.508 169.936 189.055 169.936 189.969V190.602L167.686 190.734C165.732 190.844 164.631 191.727 164.631 193.164C164.631 194.641 165.756 195.641 167.365 195.641ZM176.502 195.641C177.697 195.641 178.635 195.039 179.119 194.102H179.15V195.5H180.791V184.227H179.096V188.648H179.064C178.603 187.742 177.666 187.148 176.486 187.148C174.424 187.148 173.049 188.797 173.049 191.391C173.049 193.984 174.424 195.641 176.502 195.641ZM176.947 188.57C178.244 188.57 179.111 189.688 179.111 191.391C179.111 193.109 178.244 194.211 176.947 194.211C175.611 194.211 174.775 193.125 174.775 191.391C174.775 189.664 175.611 188.57 176.947 188.57Z" fill="#374151"/>
<path d="M326.94 195.78C326.814 195.78 326.687 195.733 326.587 195.633C326.394 195.44 326.394 195.12 326.587 194.927L330.934 190.58C331.254 190.26 331.254 189.74 330.934 189.42L326.587 185.073C326.394 184.88 326.394 184.56 326.587 184.367C326.78 184.173 327.1 184.173 327.294 184.367L331.64 188.713C331.98 189.053 332.174 189.513 332.174 190C332.174 190.487 331.987 190.947 331.64 191.287L327.294 195.633C327.194 195.727 327.067 195.78 326.94 195.78Z" fill="#111827"/>
<rect x="24.5" y="164.5" width="326" height="51" rx="25.5" stroke="#D1D5DB"/>
<path d="M50.0201 244.91C46.7101 244.91 44.0201 247.6 44.0201 250.91V253.8C44.0201 254.41 43.7601 255.34 43.4501 255.86L42.3001 257.77C41.5901 258.95 42.0801 260.26 43.3801 260.7C47.6901 262.14 52.3401 262.14 56.6501 260.7C57.8601 260.3 58.3901 258.87 57.7301 257.77L56.5801 255.86C56.2801 255.34 56.0201 254.41 56.0201 253.8V250.91C56.0201 247.61 53.3201 244.91 50.0201 244.91Z" stroke="#374151" stroke-width="1.5" stroke-miterlimit="10" stroke-linecap="round"/>
<path d="M51.8699 245.2C51.5599 245.11 51.2399 245.04 50.9099 245C49.9499 244.88 49.0299 244.95 48.1699 245.2C48.4599 244.46 49.1799 243.94 50.0199 243.94C50.8599 243.94 51.5799 244.46 51.8699 245.2Z" stroke="#374151" stroke-width="1.5" stroke-miterlimit="10" stroke-linecap="round" stroke-linejoin="round"/>
<path d="M53.02 261.06C53.02 262.71 51.67 264.06 50.02 264.06C49.2 264.06 48.44 263.72 47.9 263.18C47.36 262.64 47.02 261.88 47.02 261.06" stroke="#374151" stroke-width="1.5" stroke-miterlimit="10"/>
<path d="M86.4453 259.5V248.227H84.4141L80.7734 257.125H80.7109L77.0625 248.227H75.0391V259.5H76.6328V251.203H76.6875L80.0938 259.414H81.3906L84.7891 251.203H84.8438V259.5H86.4453ZM95.5272 251.281H93.8397V256.07C93.8397 257.352 93.1053 258.195 91.8866 258.195C90.7225 258.195 90.1287 257.523 90.1287 256.273V251.281H88.4412V256.602C88.4412 258.484 89.535 259.648 91.3241 259.648C92.5819 259.648 93.4178 259.094 93.8709 258.109H93.91V259.5H95.5272V251.281ZM97.8512 249.336V251.281H96.6559V252.617H97.8512V257.336C97.8512 258.922 98.4997 259.555 100.164 259.555C100.539 259.555 100.914 259.523 101.101 259.477V258.141C100.992 258.164 100.718 258.18 100.547 258.18C99.8591 258.18 99.5466 257.859 99.5466 257.148V252.617H101.109V251.281H99.5466V249.336H97.8512ZM105.894 252.492C107.074 252.492 107.871 253.375 107.91 254.633H103.8C103.886 253.391 104.714 252.492 105.894 252.492ZM107.902 257.086C107.675 257.805 106.964 258.289 106.003 258.289C104.652 258.289 103.792 257.344 103.792 255.914V255.812H109.597V255.234C109.597 252.742 108.175 251.133 105.894 251.133C103.574 251.133 102.089 252.852 102.089 255.43C102.089 258.023 103.55 259.656 105.964 259.656C107.847 259.656 109.269 258.586 109.503 257.086H107.902Z" fill="#374151"/>
<path d="M326.94 259.78C326.814 259.78 326.687 259.733 326.587 259.633C326.394 259.44 326.394 259.12 326.587 258.927L330.934 254.58C331.254 254.26 331.254 253.74 330.934 253.42L326.587 249.073C326.394 248.88 326.394 248.56 326.587 248.367C326.78 248.173 327.1 248.173 327.294 248.367L331.64 252.713C331.98 253.053 332.174 253.513 332.174 254C332.174 254.487 331.987 254.947 331.64 255.287L327.294 259.633C327.194 259.727 327.067 259.78 326.94 259.78Z" fill="#111827"/>
<rect x="24.5" y="228.5" width="326" height="51" rx="25.5" stroke="#D1D5DB"/>
<path d="M53.26 328.25H46.74C41.83 328.25 39.73 326.15 39.73 321.24V321.11C39.73 316.67 41.48 314.53 45.4 314.16C45.8 314.13 46.18 314.43 46.22 314.84C46.26 315.25 45.96 315.62 45.54 315.66C42.4 315.95 41.23 317.43 41.23 321.12V321.25C41.23 325.32 42.67 326.76 46.74 326.76H53.26C57.33 326.76 58.77 325.32 58.77 321.25V321.12C58.77 317.41 57.58 315.93 54.38 315.66C53.97 315.62 53.66 315.26 53.7 314.85C53.74 314.44 54.09 314.13 54.51 314.17C58.49 314.51 60.27 316.66 60.27 321.13V321.26C60.27 326.15 58.17 328.25 53.26 328.25Z" fill="#374151"/>
<path d="M50 321.63C49.59 321.63 49.25 321.29 49.25 320.88V308C49.25 307.59 49.59 307.25 50 307.25C50.41 307.25 50.75 307.59 50.75 308V320.88C50.75 321.3 50.41 321.63 50 321.63Z" fill="#374151"/>
<path d="M49.9998 322.75C49.8098 322.75 49.6198 322.68 49.4698 322.53L46.1198 319.18C45.8298 318.89 45.8298 318.41 46.1198 318.12C46.4098 317.83 46.8898 317.83 47.1798 318.12L49.9998 320.94L52.8198 318.12C53.1098 317.83 53.5898 317.83 53.8798 318.12C54.1698 318.41 54.1698 318.89 53.8798 319.18L50.5298 322.53C50.3798 322.68 50.1898 322.75 49.9998 322.75Z" fill="#374151"/>
<path d="M82.3828 323.5H84.2344L80.1641 312.227H78.2734L74.2031 323.5H76.0234L77.0547 320.453H81.3516L82.3828 323.5ZM79.1797 314.102H79.2266L80.9062 319.047H77.5L79.1797 314.102ZM85.4334 323.5H87.1209V318.578C87.1209 317.414 87.7928 316.688 88.8787 316.688C89.2069 316.688 89.5037 316.727 89.6366 316.781V315.211C89.5116 315.188 89.3006 315.148 89.0584 315.148C88.0897 315.148 87.3553 315.719 87.0819 316.68H87.0428V315.281H85.4334V323.5ZM97.5387 318.109C97.3903 316.492 96.1012 315.133 93.9841 315.133C91.6481 315.133 90.1169 316.781 90.1169 319.391C90.1169 322.047 91.6481 323.656 93.9997 323.656C95.9762 323.656 97.3747 322.469 97.5544 320.719H95.9294C95.7341 321.672 95.0544 322.242 94.0153 322.242C92.7028 322.242 91.8356 321.195 91.8356 319.391C91.8356 317.625 92.695 316.539 93.9997 316.539C95.1012 316.539 95.7575 317.234 95.9294 318.109H97.5387ZM98.9722 323.5H100.66V318.75C100.66 317.453 101.425 316.594 102.675 316.594C103.863 316.594 104.472 317.32 104.472 318.531V323.5H106.167V318.203C106.167 316.344 105.089 315.141 103.285 315.141C102.035 315.141 101.136 315.695 100.683 316.656H100.644V312.227H98.9722V323.5ZM108.015 323.5H109.702V315.281H108.015V323.5ZM108.859 314.078C109.406 314.078 109.843 313.648 109.843 313.117C109.843 312.578 109.406 312.148 108.859 312.148C108.32 312.148 107.882 312.578 107.882 313.117C107.882 313.648 108.32 314.078 108.859 314.078ZM118.605 315.281H116.839L114.777 321.852H114.745L112.683 315.281H110.886L113.847 323.5H115.659L118.605 315.281ZM122.937 316.492C124.116 316.492 124.913 317.375 124.952 318.633H120.843C120.929 317.391 121.757 316.492 122.937 316.492ZM124.944 321.086C124.718 321.805 124.007 322.289 123.046 322.289C121.694 322.289 120.835 321.344 120.835 319.914V319.812H126.64V319.234C126.64 316.742 125.218 315.133 122.937 315.133C120.616 315.133 119.132 316.852 119.132 319.43C119.132 322.023 120.593 323.656 123.007 323.656C124.89 323.656 126.312 322.586 126.546 321.086H124.944Z" fill="#374151"/>
<path d="M326.94 323.78C326.814 323.78 326.687 323.733 326.587 323.633C326.394 323.44 326.394 323.12 326.587 322.927L330.934 318.58C331.254 318.26 331.254 317.74 330.934 317.42L326.587 313.073C326.394 312.88 326.394 312.56 326.587 312.367C326.78 312.173 327.1 312.173 327.294 312.367L331.64 316.713C331.98 317.053 332.174 317.513 332.174 318C332.174 318.487 331.987 318.947 331.64 319.287L327.294 323.633C327.194 323.727 327.067 323.78 326.94 323.78Z" fill="#111827"/>
<rect x="24.5" y="292.5" width="326" height="51" rx="25.5" stroke="#D1D5DB"/>
<path d="M59.0002 376.73C58.9802 376.73 58.9502 376.73 58.9202 376.73C53.6302 376.2 48.3502 376 43.1202 376.53L41.0802 376.73C40.6602 376.77 40.2902 376.47 40.2502 376.05C40.2102 375.63 40.5102 375.27 40.9202 375.23L42.9602 375.03C48.2802 374.49 53.6702 374.7 59.0702 375.23C59.4802 375.27 59.7802 375.64 59.7402 376.05C59.7102 376.44 59.3802 376.73 59.0002 376.73Z" fill="#374151"/>
<path d="M46.4998 375.72C46.4598 375.72 46.4198 375.72 46.3698 375.71C45.9698 375.64 45.6898 375.25 45.7598 374.85L45.9798 373.54C46.1398 372.58 46.3598 371.25 48.6898 371.25H51.3098C53.6498 371.25 53.8698 372.63 54.0198 373.55L54.2398 374.85C54.3098 375.26 54.0298 375.65 53.6298 375.71C53.2198 375.78 52.8298 375.5 52.7698 375.1L52.5498 373.8C52.4098 372.93 52.3798 372.76 51.3198 372.76H48.6998C47.6398 372.76 47.6198 372.9 47.4698 373.79L47.2398 375.09C47.1798 375.46 46.8598 375.72 46.4998 375.72Z" fill="#374151"/>
<path d="M53.2099 392.75H46.7899C43.2999 392.75 43.1599 390.82 43.0499 389.26L42.3999 379.19C42.3699 378.78 42.6899 378.42 43.0999 378.39C43.5199 378.37 43.8699 378.68 43.8999 379.09L44.5499 389.16C44.6599 390.68 44.6999 391.25 46.7899 391.25H53.2099C55.3099 391.25 55.3499 390.68 55.4499 389.16L56.0999 379.09C56.1299 378.68 56.4899 378.37 56.8999 378.39C57.3099 378.42 57.6299 378.77 57.5999 379.19L56.9499 389.26C56.8399 390.82 56.6999 392.75 53.2099 392.75Z" fill="#374151"/>
<path d="M51.6601 387.25H48.3301C47.9201 387.25 47.5801 386.91 47.5801 386.5C47.5801 386.09 47.9201 385.75 48.3301 385.75H51.6601C52.0701 385.75 52.4101 386.09 52.4101 386.5C52.4101 386.91 52.0701 387.25 51.6601 387.25Z" fill="#374151"/>
<path d="M52.5 383.25H47.5C47.09 383.25 46.75 382.91 46.75 382.5C46.75 382.09 47.09 381.75 47.5 381.75H52.5C52.91 381.75 53.25 382.09 53.25 382.5C53.25 382.91 52.91 383.25 52.5 383.25Z" fill="#374151"/>
<path d="M75.0391 376.227V387.5H79.0156C82.375 387.5 84.3516 385.406 84.3516 381.844C84.3516 378.289 82.3672 376.227 79.0156 376.227H75.0391ZM76.7891 377.734H78.8516C81.2344 377.734 82.5625 379.203 82.5625 381.859C82.5625 384.523 81.2422 385.984 78.8516 385.984H76.7891V377.734ZM89.4178 380.492C90.5975 380.492 91.3944 381.375 91.4334 382.633H87.3241C87.41 381.391 88.2381 380.492 89.4178 380.492ZM91.4256 385.086C91.1991 385.805 90.4881 386.289 89.5272 386.289C88.1756 386.289 87.3162 385.344 87.3162 383.914V383.812H93.1209V383.234C93.1209 380.742 91.6991 379.133 89.4178 379.133C87.0975 379.133 85.6131 380.852 85.6131 383.43C85.6131 386.023 87.0741 387.656 89.4881 387.656C91.3709 387.656 92.7928 386.586 93.0272 385.086H91.4256ZM94.6559 387.5H96.3434V376.227H94.6559V387.5ZM101.675 380.492C102.855 380.492 103.652 381.375 103.691 382.633H99.5816C99.6675 381.391 100.496 380.492 101.675 380.492ZM103.683 385.086C103.457 385.805 102.746 386.289 101.785 386.289C100.433 386.289 99.5737 385.344 99.5737 383.914V383.812H105.378V383.234C105.378 380.742 103.957 379.133 101.675 379.133C99.355 379.133 97.8706 380.852 97.8706 383.43C97.8706 386.023 99.3316 387.656 101.746 387.656C103.628 387.656 105.05 386.586 105.285 385.086H103.683ZM107.343 377.336V379.281H106.148V380.617H107.343V385.336C107.343 386.922 107.992 387.555 109.656 387.555C110.031 387.555 110.406 387.523 110.593 387.477V386.141C110.484 386.164 110.21 386.18 110.038 386.18C109.351 386.18 109.038 385.859 109.038 385.148V380.617H110.601V379.281H109.038V377.336H107.343ZM115.386 380.492C116.566 380.492 117.362 381.375 117.402 382.633H113.292C113.378 381.391 114.206 380.492 115.386 380.492ZM117.394 385.086C117.167 385.805 116.456 386.289 115.495 386.289C114.144 386.289 113.284 385.344 113.284 383.914V383.812H119.089V383.234C119.089 380.742 117.667 379.133 115.386 379.133C113.066 379.133 111.581 380.852 111.581 383.43C111.581 386.023 113.042 387.656 115.456 387.656C117.339 387.656 118.761 386.586 118.995 385.086H117.394ZM131.026 382.109C130.878 380.492 129.589 379.133 127.472 379.133C125.136 379.133 123.604 380.781 123.604 383.391C123.604 386.047 125.136 387.656 127.487 387.656C129.464 387.656 130.862 386.469 131.042 384.719H129.417C129.222 385.672 128.542 386.242 127.503 386.242C126.19 386.242 125.323 385.195 125.323 383.391C125.323 381.625 126.182 380.539 127.487 380.539C128.589 380.539 129.245 381.234 129.417 382.109H131.026ZM135.928 387.656C138.28 387.656 139.827 386.039 139.827 383.391C139.827 380.75 138.272 379.133 135.928 379.133C133.585 379.133 132.03 380.75 132.03 383.391C132.03 386.039 133.577 387.656 135.928 387.656ZM135.928 386.266C134.608 386.266 133.749 385.219 133.749 383.391C133.749 381.57 134.608 380.523 135.928 380.523C137.249 380.523 138.108 381.57 138.108 383.391C138.108 385.219 137.257 386.266 135.928 386.266ZM141.292 387.5H142.979V382.711C142.979 381.438 143.745 380.594 144.932 380.594C146.104 380.594 146.682 381.273 146.682 382.508V387.5H148.378V382.18C148.378 380.297 147.338 379.141 145.526 379.141C144.26 379.141 143.385 379.719 142.94 380.656H142.901V379.281H141.292V387.5ZM157.186 379.281H155.42L153.358 385.852H153.327L151.264 379.281H149.467L152.428 387.5H154.241L157.186 379.281ZM161.518 380.492C162.698 380.492 163.494 381.375 163.533 382.633H159.424C159.51 381.391 160.338 380.492 161.518 380.492ZM163.526 385.086C163.299 385.805 162.588 386.289 161.627 386.289C160.276 386.289 159.416 385.344 159.416 383.914V383.812H165.221V383.234C165.221 380.742 163.799 379.133 161.518 379.133C159.198 379.133 157.713 380.852 157.713 383.43C157.713 386.023 159.174 387.656 161.588 387.656C163.471 387.656 164.893 386.586 165.127 385.086H163.526ZM166.693 387.5H168.381V382.578C168.381 381.414 169.053 380.688 170.139 380.688C170.467 380.688 170.764 380.727 170.897 380.781V379.211C170.772 379.188 170.561 379.148 170.318 379.148C169.35 379.148 168.615 379.719 168.342 380.68H168.303V379.281H166.693V387.5ZM171.955 381.609C171.955 382.758 172.705 383.531 174.189 383.891L175.658 384.25C176.518 384.469 176.83 384.758 176.83 385.281C176.83 385.945 176.205 386.367 175.189 386.367C174.158 386.367 173.549 385.93 173.416 385.141H171.744C171.877 386.648 173.166 387.656 175.111 387.656C177.127 387.656 178.525 386.625 178.525 385.125C178.525 383.914 177.9 383.289 176.244 382.891L174.861 382.57C174.01 382.359 173.603 382.016 173.603 381.508C173.603 380.859 174.213 380.414 175.127 380.414C176.072 380.414 176.674 380.875 176.752 381.617H178.338C178.283 380.156 177.002 379.133 175.174 379.133C173.252 379.133 171.955 380.141 171.955 381.609ZM182.873 386.305C181.967 386.305 181.373 385.836 181.373 385.117C181.373 384.414 181.943 383.969 182.951 383.898L184.974 383.773V384.422C184.974 385.492 184.052 386.305 182.873 386.305ZM182.404 387.641C183.482 387.641 184.521 387.062 184.998 386.148H185.037V387.5H186.654V381.836C186.654 380.188 185.381 379.133 183.388 379.133C181.357 379.133 180.092 380.227 179.998 381.711H181.592C181.74 380.977 182.349 380.508 183.326 380.508C184.357 380.508 184.974 381.055 184.974 381.969V382.602L182.724 382.734C180.771 382.844 179.67 383.727 179.67 385.164C179.67 386.641 180.795 387.641 182.404 387.641ZM188.947 377.336V379.281H187.752V380.617H188.947V385.336C188.947 386.922 189.595 387.555 191.259 387.555C191.634 387.555 192.009 387.523 192.197 387.477V386.141C192.088 386.164 191.814 386.18 191.642 386.18C190.955 386.18 190.642 385.859 190.642 385.148V380.617H192.205V379.281H190.642V377.336H188.947ZM193.81 387.5H195.497V379.281H193.81V387.5ZM194.654 378.078C195.201 378.078 195.638 377.648 195.638 377.117C195.638 376.578 195.201 376.148 194.654 376.148C194.115 376.148 193.677 376.578 193.677 377.117C193.677 377.648 194.115 378.078 194.654 378.078ZM200.915 387.656C203.267 387.656 204.814 386.039 204.814 383.391C204.814 380.75 203.259 379.133 200.915 379.133C198.572 379.133 197.017 380.75 197.017 383.391C197.017 386.039 198.564 387.656 200.915 387.656ZM200.915 386.266C199.595 386.266 198.736 385.219 198.736 383.391C198.736 381.57 199.595 380.523 200.915 380.523C202.236 380.523 203.095 381.57 203.095 383.391C203.095 385.219 202.243 386.266 200.915 386.266ZM206.278 387.5H207.966V382.711C207.966 381.438 208.732 380.594 209.919 380.594C211.091 380.594 211.669 381.273 211.669 382.508V387.5H213.364V382.18C213.364 380.297 212.325 379.141 210.513 379.141C209.247 379.141 208.372 379.719 207.927 380.656H207.888V379.281H206.278V387.5Z" fill="#374151"/>
<path d="M326.94 387.78C326.814 387.78 326.687 387.733 326.587 387.633C326.394 387.44 326.394 387.12 326.587 386.927L330.934 382.58C331.254 382.26 331.254 381.74 330.934 381.42L326.587 377.073C326.394 376.88 326.394 376.56 326.587 376.367C326.78 376.173 327.1 376.173 327.294 376.367L331.64 380.713C331.98 381.053 332.174 381.513 332.174 382C332.174 382.487 331.987 382.947 331.64 383.287L327.294 387.633C327.194 387.727 327.067 387.78 326.94 387.78Z" fill="#111827"/>
<rect x="24.5" y="356.5" width="326" height="51" rx="25.5" stroke="#D1D5DB"/>
<rect x="121" y="458" width="134" height="5" rx="2.5" fill="#1F2937"/>
</svg>
