<svg width="327" height="42" viewBox="0 0 327 42" fill="none" xmlns="http://www.w3.org/2000/svg">
<circle cx="21" cy="21" r="20.5" stroke="#D1D5DB"/>
<path d="M21.2752 28.7831C20.3669 28.7831 19.4585 28.4415 18.7669 27.7498C17.3835 26.3665 17.3835 24.1248 18.7669 22.7415L20.8335 20.6831C21.0752 20.4415 21.4752 20.4415 21.7169 20.6831C21.9585 20.9248 21.9585 21.3248 21.7169 21.5665L19.6502 23.6248C18.7585 24.5165 18.7585 25.9748 19.6502 26.8665C20.5419 27.7581 22.0002 27.7581 22.8919 26.8665L26.1335 23.6248C27.1169 22.6415 27.6585 21.3331 27.6585 19.9415C27.6585 18.5498 27.1169 17.2415 26.1335 16.2581C24.1002 14.2248 20.8002 14.2248 18.7669 16.2581L15.2335 19.7915C14.4085 20.6165 13.9502 21.7165 13.9502 22.8831C13.9502 24.0498 14.4085 25.1498 15.2335 25.9748C15.4752 26.2165 15.4752 26.6165 15.2335 26.8581C14.9919 27.0998 14.5919 27.0998 14.3502 26.8581C13.2919 25.7915 12.7002 24.3831 12.7002 22.8831C12.7002 21.3831 13.2835 19.9665 14.3502 18.9081L17.8835 15.3748C20.4002 12.8581 24.5002 12.8581 27.0169 15.3748C28.2335 16.5915 28.9085 18.2165 28.9085 19.9415C28.9085 21.6665 28.2335 23.2915 27.0169 24.5081L23.7752 27.7498C23.0835 28.4415 22.1835 28.7831 21.2752 28.7831Z" fill="#292D32"/>
<rect x="50.5" y="0.5" width="226" height="41" rx="20.5" fill="#FAFAFA"/>
<rect x="50.5" y="0.5" width="226" height="41" rx="20.5" stroke="#E5E7EB"/>
<path d="M72.4326 18.1729H72.501L74.7773 26H75.9395L78.626 16.1357H77.3408L75.3652 24.1885H75.3105L73.0889 16.1357H71.8447L69.623 24.1885H69.5684L67.5928 16.1357H66.3076L68.9941 26H70.1562L72.4326 18.1729ZM79.801 26H80.9904V21.5703C80.9904 20.5654 81.592 19.9023 82.5148 19.9023C82.802 19.9023 83.0549 19.9365 83.1506 19.9707V18.8154C83.0549 18.8018 82.8771 18.7676 82.6721 18.7676C81.8381 18.7676 81.1818 19.2666 80.9494 20.0527H80.9221V18.8906H79.801V26ZM84.4828 26H85.6723V18.8906H84.4828V26ZM85.0775 17.6943C85.4877 17.6943 85.8227 17.3594 85.8227 16.9561C85.8227 16.5459 85.4877 16.2178 85.0775 16.2178C84.6742 16.2178 84.3393 16.5459 84.3393 16.9561C84.3393 17.3594 84.6742 17.6943 85.0775 17.6943ZM87.9615 17.1748V18.8906H86.902V19.8682H87.9615V24.1543C87.9615 25.5215 88.4674 26.0547 89.773 26.0547C90.0533 26.0547 90.3814 26.0342 90.525 26V25.002C90.443 25.0156 90.1695 25.0361 90.0328 25.0361C89.4244 25.0361 89.151 24.7422 89.151 24.0928V19.8682H90.5318V18.8906H89.151V17.1748H87.9615ZM94.7488 19.7998C95.8699 19.7998 96.615 20.6475 96.6424 21.8369H92.7801C92.8553 20.6543 93.6346 19.7998 94.7488 19.7998ZM96.615 23.9629C96.4168 24.6328 95.7537 25.0908 94.8514 25.0908C93.573 25.0908 92.7732 24.1953 92.7732 22.835V22.7666H97.8729V22.3154C97.8729 20.1621 96.6902 18.7676 94.7693 18.7676C92.8074 18.7676 91.5496 20.2646 91.5496 22.4727C91.5496 24.708 92.7869 26.123 94.824 26.123C96.3758 26.123 97.5789 25.207 97.784 23.9629H96.615ZM104.892 25.1113C104.037 25.1113 103.47 24.667 103.47 23.9902C103.47 23.3203 104.017 22.8965 104.974 22.835L106.874 22.7188V23.2998C106.874 24.3252 106.013 25.1113 104.892 25.1113ZM104.625 26.123C105.582 26.123 106.485 25.5898 106.908 24.7764H106.936V26H108.064V21.085C108.064 19.6699 107.011 18.7676 105.343 18.7676C103.661 18.7676 102.609 19.7109 102.527 20.9414H103.675C103.825 20.2441 104.4 19.8135 105.316 19.8135C106.3 19.8135 106.874 20.333 106.874 21.2012V21.7959L104.837 21.9121C103.196 22.0078 102.26 22.7734 102.26 23.9902C102.26 25.2686 103.21 26.123 104.625 26.123ZM113.046 26H114.235V21.543C114.235 20.5586 114.919 19.8203 115.862 19.8203C116.744 19.8203 117.318 20.3809 117.318 21.2354V26H118.507V21.4814C118.507 20.5176 119.171 19.8203 120.114 19.8203C121.05 19.8203 121.59 20.3945 121.59 21.3652V26H122.78V21.0918C122.78 19.6836 121.871 18.7676 120.463 18.7676C119.464 18.7676 118.63 19.2734 118.234 20.1211H118.207C117.899 19.2598 117.181 18.7676 116.211 18.7676C115.254 18.7676 114.529 19.2734 114.194 20.0254H114.167V18.8906H113.046V26ZM127.448 19.7998C128.569 19.7998 129.314 20.6475 129.342 21.8369H125.479C125.554 20.6543 126.334 19.7998 127.448 19.7998ZM129.314 23.9629C129.116 24.6328 128.453 25.0908 127.551 25.0908C126.272 25.0908 125.472 24.1953 125.472 22.835V22.7666H130.572V22.3154C130.572 20.1621 129.389 18.7676 127.469 18.7676C125.507 18.7676 124.249 20.2646 124.249 22.4727C124.249 24.708 125.486 26.123 127.523 26.123C129.075 26.123 130.278 25.207 130.483 23.9629H129.314ZM131.952 20.8525C131.952 21.8232 132.567 22.4658 133.818 22.7871L135.069 23.1084C135.869 23.3203 136.163 23.5938 136.163 24.0996C136.163 24.7422 135.568 25.1523 134.604 25.1523C133.641 25.1523 133.08 24.7559 132.95 24.0176H131.761C131.884 25.2754 132.971 26.123 134.529 26.123C136.19 26.123 137.359 25.248 137.359 24.0107C137.359 22.9648 136.84 22.4453 135.404 22.083L134.304 21.8164C133.497 21.6113 133.121 21.2832 133.121 20.791C133.121 20.1689 133.695 19.7383 134.563 19.7383C135.438 19.7383 135.992 20.1621 136.074 20.8457H137.209C137.154 19.6426 136.074 18.7676 134.604 18.7676C133.039 18.7676 131.952 19.6357 131.952 20.8525ZM138.774 20.8525C138.774 21.8232 139.389 22.4658 140.64 22.7871L141.891 23.1084C142.691 23.3203 142.985 23.5938 142.985 24.0996C142.985 24.7422 142.39 25.1523 141.426 25.1523C140.462 25.1523 139.902 24.7559 139.772 24.0176H138.582C138.705 25.2754 139.792 26.123 141.351 26.123C143.012 26.123 144.181 25.248 144.181 24.0107C144.181 22.9648 143.661 22.4453 142.226 22.083L141.125 21.8164C140.319 21.6113 139.943 21.2832 139.943 20.791C139.943 20.1689 140.517 19.7383 141.385 19.7383C142.26 19.7383 142.814 20.1621 142.896 20.8457H144.03C143.976 19.6426 142.896 18.7676 141.426 18.7676C139.861 18.7676 138.774 19.6357 138.774 20.8525ZM148.063 25.1113C147.208 25.1113 146.641 24.667 146.641 23.9902C146.641 23.3203 147.188 22.8965 148.145 22.835L150.045 22.7188V23.2998C150.045 24.3252 149.184 25.1113 148.063 25.1113ZM147.796 26.123C148.753 26.123 149.656 25.5898 150.079 24.7764H150.107V26H151.235V21.085C151.235 19.6699 150.182 18.7676 148.514 18.7676C146.832 18.7676 145.78 19.7109 145.698 20.9414H146.846C146.996 20.2441 147.571 19.8135 148.487 19.8135C149.471 19.8135 150.045 20.333 150.045 21.2012V21.7959L148.008 21.9121C146.368 22.0078 145.431 22.7734 145.431 23.9902C145.431 25.2686 146.381 26.123 147.796 26.123ZM155.937 25.0088C154.713 25.0088 153.914 24.0107 153.914 22.418C153.914 20.8252 154.713 19.8135 155.937 19.8135C157.174 19.8135 158.002 20.8525 158.002 22.418C158.002 23.9834 157.174 25.0088 155.937 25.0088ZM155.978 28.6797C157.94 28.6797 159.191 27.5518 159.191 25.8564V18.8906H158.056V20.0869H158.036C157.564 19.2598 156.73 18.7676 155.725 18.7676C153.886 18.7676 152.697 20.1895 152.697 22.418C152.697 24.626 153.886 26.0547 155.698 26.0547C156.696 26.0547 157.537 25.5488 157.974 24.7764H158.002V25.8975C158.002 26.957 157.256 27.668 156.026 27.668C155.137 27.668 154.433 27.2373 154.201 26.5879H152.977C153.175 27.7979 154.413 28.6797 155.978 28.6797ZM163.893 19.7998C165.014 19.7998 165.76 20.6475 165.787 21.8369H161.925C162 20.6543 162.779 19.7998 163.893 19.7998ZM165.76 23.9629C165.561 24.6328 164.898 25.0908 163.996 25.0908C162.718 25.0908 161.918 24.1953 161.918 22.835V22.7666H167.017V22.3154C167.017 20.1621 165.835 18.7676 163.914 18.7676C161.952 18.7676 160.694 20.2646 160.694 22.4727C160.694 24.708 161.931 26.123 163.969 26.123C165.52 26.123 166.723 25.207 166.929 23.9629H165.76ZM169.525 26.0684C169.963 26.0684 170.305 25.7266 170.305 25.2891C170.305 24.8516 169.963 24.5098 169.525 24.5098C169.088 24.5098 168.746 24.8516 168.746 25.2891C168.746 25.7266 169.088 26.0684 169.525 26.0684ZM173.38 26.0684C173.818 26.0684 174.159 25.7266 174.159 25.2891C174.159 24.8516 173.818 24.5098 173.38 24.5098C172.943 24.5098 172.601 24.8516 172.601 25.2891C172.601 25.7266 172.943 26.0684 173.38 26.0684ZM177.235 26.0684C177.672 26.0684 178.014 25.7266 178.014 25.2891C178.014 24.8516 177.672 24.5098 177.235 24.5098C176.797 24.5098 176.455 24.8516 176.455 25.2891C176.455 25.7266 176.797 26.0684 177.235 26.0684Z" fill="#9CA3AF"/>
<circle cx="306" cy="21" r="20.5" stroke="#D1D5DB"/>
<path d="M305.92 24.4614C303.736 24.4614 301.961 22.6864 301.961 20.5031V15.9198C301.961 13.7364 303.736 11.9614 305.92 11.9614C308.103 11.9614 309.878 13.7364 309.878 15.9198V20.5031C309.878 22.6864 308.103 24.4614 305.92 24.4614ZM305.92 13.2114C304.428 13.2114 303.211 14.4281 303.211 15.9198V20.5031C303.211 21.9948 304.428 23.2114 305.92 23.2114C307.411 23.2114 308.628 21.9948 308.628 20.5031V15.9198C308.628 14.4281 307.411 13.2114 305.92 13.2114Z" fill="#292D32"/>
<path d="M305.92 27.3781C302.062 27.3781 298.92 24.2364 298.92 20.3781V18.9614C298.92 18.6198 299.203 18.3364 299.545 18.3364C299.887 18.3364 300.17 18.6198 300.17 18.9614V20.3781C300.17 23.5448 302.753 26.1281 305.92 26.1281C309.087 26.1281 311.67 23.5448 311.67 20.3781V18.9614C311.67 18.6198 311.953 18.3364 312.295 18.3364C312.637 18.3364 312.92 18.6198 312.92 18.9614V20.3781C312.92 24.2364 309.778 27.3781 305.92 27.3781Z" fill="#292D32"/>
<path d="M307.078 16.9034C307.012 16.9034 306.937 16.895 306.862 16.87C306.253 16.645 305.587 16.645 304.978 16.87C304.653 16.9867 304.295 16.82 304.178 16.495C304.062 16.17 304.228 15.8117 304.553 15.695C305.437 15.3784 306.412 15.3784 307.295 15.695C307.62 15.8117 307.787 16.17 307.67 16.495C307.57 16.745 307.328 16.9034 307.078 16.9034Z" fill="#292D32"/>
<path d="M306.586 18.67C306.528 18.67 306.478 18.6617 306.42 18.645C306.086 18.5534 305.745 18.5534 305.411 18.645C305.078 18.7367 304.736 18.5367 304.645 18.2034C304.553 17.8784 304.753 17.5367 305.086 17.445C305.628 17.295 306.211 17.295 306.753 17.445C307.086 17.5367 307.286 17.8784 307.195 18.2117C307.12 18.4867 306.861 18.67 306.586 18.67Z" fill="#292D32"/>
<path d="M305.92 29.8784C305.578 29.8784 305.295 29.5951 305.295 29.2534V26.7534C305.295 26.4118 305.578 26.1284 305.92 26.1284C306.262 26.1284 306.545 26.4118 306.545 26.7534V29.2534C306.545 29.5951 306.262 29.8784 305.92 29.8784Z" fill="#292D32"/>
</svg>
