<svg width="327" height="254" viewBox="0 0 327 254" fill="none" xmlns="http://www.w3.org/2000/svg">
<path d="M29.7782 41.4667C29.4715 41.4667 29.2649 41.4967 29.1582 41.5267V43.49C29.2849 43.52 29.4432 43.5284 29.6615 43.5284C30.4599 43.5284 30.9515 43.125 30.9515 42.4434C30.9515 41.8334 30.5282 41.4667 29.7782 41.4667ZM35.5899 41.4867C35.2565 41.4867 35.0399 41.5167 34.9115 41.5467V45.8967C35.0399 45.9267 35.2465 45.9267 35.4332 45.9267C36.7949 45.9367 37.6815 45.1867 37.6815 43.6C37.6915 42.2167 36.8832 41.4867 35.5899 41.4867Z" fill="#DB291F"/>
<path d="M39.919 20.9191C39.5439 20.544 39.0352 20.3333 38.5047 20.3333H25.9998C25.1158 20.3333 24.2679 20.6845 23.6428 21.3096C23.0177 21.9347 22.6665 22.7826 22.6665 23.6666V50.3333C22.6665 51.2174 23.0177 52.0652 23.6428 52.6903C24.2679 53.3155 25.1158 53.6666 25.9998 53.6666H45.9998C46.8839 53.6666 47.7317 53.3155 48.3569 52.6903C48.982 52.0652 49.3332 51.2174 49.3332 50.3333V31.1617C49.3332 30.6313 49.1225 30.1226 48.7474 29.7475L39.919 20.9191ZM31.8298 43.9833C31.3148 44.4666 30.5548 44.6833 29.6698 44.6833C29.4982 44.6852 29.3267 44.6752 29.1565 44.6533V47.03H27.6665V40.47C28.3389 40.3697 29.0184 40.324 29.6982 40.3333C30.6265 40.3333 31.2865 40.51 31.7315 40.865C32.1548 41.2016 32.4415 41.7533 32.4415 42.4033C32.4398 43.0566 32.2232 43.6083 31.8298 43.9833ZM38.1748 46.2416C37.4748 46.8233 36.4098 47.1 35.1082 47.1C34.3282 47.1 33.7765 47.05 33.4015 47V40.4716C34.0742 40.3735 34.7534 40.3272 35.4332 40.3333C36.6948 40.3333 37.5148 40.56 38.1548 41.0433C38.8465 41.5566 39.2798 42.375 39.2798 43.55C39.2798 44.8216 38.8148 45.7 38.1748 46.2416ZM44.3332 41.6166H41.7798V43.135H44.1665V44.3583H41.7798V47.0316H40.2698V40.3833H44.3332V41.6166ZM39.3332 32H37.6665V23.6666L45.9998 32H39.3332Z" fill="#DB291F"/>
<path d="M66.4404 21.1357H64.9092V27.5342C64.9092 29.6602 66.4268 31.1641 68.9014 31.1641C71.376 31.1641 72.8936 29.6602 72.8936 27.5342V21.1357H71.3691V27.4043C71.3691 28.8125 70.4736 29.8037 68.9014 29.8037C67.3291 29.8037 66.4404 28.8125 66.4404 27.4043V21.1357ZM76.3832 31V21.1357H74.8519V31H76.3832ZM78.7448 33.1055L82.2448 21.1357H80.9323L77.4323 33.1055H78.7448ZM84.8663 21.1357H83.335V27.5342C83.335 29.6602 84.8526 31.1641 87.3272 31.1641C89.8018 31.1641 91.3194 29.6602 91.3194 27.5342V21.1357H89.795V27.4043C89.795 28.8125 88.8995 29.8037 87.3272 29.8037C85.755 29.8037 84.8663 28.8125 84.8663 27.4043V21.1357ZM92.6694 31H94.3647L96.853 27.2402H96.9008L99.3549 31H101.146L97.8647 26.1055V26.0645L101.207 21.1357H99.478L97.017 24.9502H96.9623L94.5287 21.1357H92.7036L95.9438 26.0098V26.0576L92.6694 31ZM105.548 21.1357V31H109.028C111.967 31 113.696 29.168 113.696 26.0508C113.696 22.9404 111.96 21.1357 109.028 21.1357H105.548ZM107.079 22.4551H108.884C110.969 22.4551 112.131 23.7402 112.131 26.0645C112.131 28.3955 110.976 29.6738 108.884 29.6738H107.079V22.4551ZM118.129 24.8682C119.162 24.8682 119.859 25.6406 119.893 26.7412H116.297C116.373 25.6543 117.097 24.8682 118.129 24.8682ZM119.886 28.8877C119.688 29.5166 119.066 29.9404 118.225 29.9404C117.042 29.9404 116.291 29.1133 116.291 27.8623V27.7734H121.37V27.2676C121.37 25.0869 120.126 23.6787 118.129 23.6787C116.099 23.6787 114.8 25.1826 114.8 27.4385C114.8 29.708 116.079 31.1367 118.191 31.1367C119.838 31.1367 121.083 30.2002 121.288 28.8877H119.886ZM122.528 25.8457C122.528 26.8506 123.184 27.5273 124.483 27.8418L125.768 28.1562C126.52 28.3477 126.794 28.6006 126.794 29.0586C126.794 29.6396 126.247 30.0088 125.358 30.0088C124.456 30.0088 123.923 29.626 123.807 28.9355H122.344C122.46 30.2549 123.588 31.1367 125.29 31.1367C127.054 31.1367 128.277 30.2344 128.277 28.9219C128.277 27.8623 127.73 27.3154 126.281 26.9668L125.071 26.6865C124.326 26.502 123.971 26.2012 123.971 25.7568C123.971 25.1895 124.504 24.7998 125.304 24.7998C126.131 24.7998 126.657 25.2031 126.725 25.8525H128.113C128.065 24.5742 126.944 23.6787 125.345 23.6787C123.663 23.6787 122.528 24.5605 122.528 25.8457ZM129.614 31H131.09V23.8086H129.614V31ZM130.352 22.7559C130.83 22.7559 131.213 22.3799 131.213 21.915C131.213 21.4434 130.83 21.0674 130.352 21.0674C129.88 21.0674 129.497 21.4434 129.497 21.915C129.497 22.3799 129.88 22.7559 130.352 22.7559ZM135.803 29.8037C134.669 29.8037 133.93 28.8877 133.93 27.3838C133.93 25.8867 134.669 24.9365 135.803 24.9365C136.959 24.9365 137.717 25.9072 137.717 27.3838C137.717 28.8672 136.959 29.8037 135.803 29.8037ZM135.817 33.707C137.868 33.707 139.194 32.5859 139.194 30.8701V23.8086H137.758V25.0391H137.731C137.294 24.2051 136.46 23.6924 135.441 23.6924C133.595 23.6924 132.42 25.1143 132.42 27.377C132.42 29.6191 133.602 31.0273 135.407 31.0273C136.432 31.0273 137.28 30.5146 137.683 29.7354H137.711V30.918C137.711 31.9023 137.027 32.5586 135.872 32.5586C135.031 32.5586 134.375 32.1621 134.163 31.5605H132.679C132.864 32.8047 134.122 33.707 135.817 33.707ZM140.797 31H142.273V26.8096C142.273 25.6953 142.943 24.957 143.982 24.957C145.008 24.957 145.514 25.5518 145.514 26.6318V31H146.997V26.3447C146.997 24.6973 146.088 23.6855 144.502 23.6855C143.394 23.6855 142.629 24.1914 142.239 25.0117H142.205V23.8086H140.797V31ZM151.574 24.8682C152.606 24.8682 153.303 25.6406 153.337 26.7412H149.742C149.817 25.6543 150.541 24.8682 151.574 24.8682ZM153.33 28.8877C153.132 29.5166 152.51 29.9404 151.669 29.9404C150.487 29.9404 149.735 29.1133 149.735 27.8623V27.7734H154.814V27.2676C154.814 25.0869 153.57 23.6787 151.574 23.6787C149.543 23.6787 148.244 25.1826 148.244 27.4385C148.244 29.708 149.523 31.1367 151.635 31.1367C153.283 31.1367 154.527 30.2002 154.732 28.8877H153.33ZM156.102 31H157.579V26.6934C157.579 25.6748 158.167 25.0391 159.117 25.0391C159.404 25.0391 159.664 25.0732 159.78 25.1211V23.7471C159.671 23.7266 159.486 23.6924 159.274 23.6924C158.426 23.6924 157.784 24.1914 157.545 25.0322H157.51V23.8086H156.102V31Z" fill="#111827"/>
<path d="M68.3008 53.1406C70.1699 53.1406 71.4238 52.209 71.8105 50.5391H70.7441C70.4395 51.5703 69.5488 52.168 68.3066 52.168C66.6367 52.168 65.5762 50.8438 65.5762 48.7695C65.5762 46.7129 66.6484 45.377 68.3008 45.377C69.5078 45.377 70.4746 46.1035 70.7441 47.2109H71.8105C71.541 45.5234 70.1406 44.4043 68.3008 44.4043C65.9863 44.4043 64.4922 46.1152 64.4922 48.7695C64.4922 51.4473 65.9688 53.1406 68.3008 53.1406ZM76.6649 53L79.7821 44.5449H78.6747L76.161 51.7168H76.1259L73.6122 44.5449H72.5048L75.622 53H76.6649ZM80.4587 53.0586C80.8337 53.0586 81.1267 52.7656 81.1267 52.3906C81.1267 52.0156 80.8337 51.7227 80.4587 51.7227C80.0837 51.7227 79.7908 52.0156 79.7908 52.3906C79.7908 52.7656 80.0837 53.0586 80.4587 53.0586ZM85.7233 46.8008C84.8385 46.8008 84.1295 47.252 83.7545 47.9375H83.7311V46.9062H82.7643V55.0332H83.7838V52.0098H83.8073C84.1705 52.6777 84.8737 53.1055 85.7467 53.1055C87.2819 53.1055 88.3307 51.8633 88.3307 49.9531C88.3307 48.043 87.276 46.8008 85.7233 46.8008ZM85.5241 52.209C84.4811 52.209 83.778 51.3125 83.778 49.9531C83.778 48.5996 84.4811 47.6973 85.5241 47.6973C86.608 47.6973 87.2877 48.5762 87.2877 49.9531C87.2877 51.3359 86.608 52.209 85.5241 52.209ZM91.7905 53.1055C92.6695 53.1055 93.3667 52.6719 93.7593 51.9688H93.7769V53H94.7495V44.5449H93.73V47.8965H93.7066C93.3433 47.2285 92.6402 46.8008 91.7671 46.8008C90.232 46.8008 89.1831 48.043 89.1831 49.9531C89.1831 51.8633 90.2378 53.1055 91.7905 53.1055ZM91.9839 47.6973C93.0327 47.6973 93.7359 48.5938 93.7359 49.9531C93.7359 51.3184 93.0327 52.209 91.9839 52.209C90.9058 52.209 90.2261 51.3359 90.2261 49.9531C90.2261 48.5762 90.9058 47.6973 91.9839 47.6973ZM96.5746 53H97.5941V47.7441H98.8363V46.9062H97.5883V46.2324C97.5883 45.6289 97.852 45.3359 98.4027 45.3359C98.5727 45.3359 98.7426 45.3535 98.8656 45.3711V44.5449C98.7191 44.5215 98.473 44.498 98.2445 44.498C97.1195 44.498 96.5746 45.0547 96.5746 46.2266V46.9062H95.725V47.7441H96.5746V53ZM104.338 49.0977H105.399C106.606 49.0977 107.356 49.7129 107.356 50.709C107.356 51.5938 106.553 52.2266 105.434 52.2266C104.297 52.2266 103.576 51.6289 103.483 50.7617H102.469C102.545 52.1621 103.676 53.1406 105.445 53.1406C107.104 53.1406 108.428 52.127 108.428 50.6738C108.428 49.4844 107.608 48.6934 106.33 48.6172V48.5938C107.385 48.4062 108.065 47.6445 108.065 46.584C108.065 45.3125 106.922 44.4043 105.41 44.4043C103.822 44.4043 102.756 45.3242 102.639 46.7598H103.653C103.746 45.875 104.391 45.3184 105.363 45.3184C106.436 45.3184 107.004 45.8867 107.004 46.7246C107.004 47.5801 106.324 48.207 105.352 48.207H104.338V49.0977ZM112.796 53.1406C114.765 53.1406 115.901 51.4355 115.901 48.7637C115.901 46.1094 114.759 44.4043 112.796 44.4043C110.833 44.4043 109.679 46.1211 109.679 48.7695C109.679 51.4414 110.821 53.1406 112.796 53.1406ZM112.796 52.2207C111.472 52.2207 110.739 50.873 110.739 48.7637C110.739 46.7012 111.489 45.3301 112.796 45.3301C114.103 45.3301 114.841 46.6895 114.841 48.7695C114.841 50.8789 114.114 52.2207 112.796 52.2207ZM120.193 53.1406C122.162 53.1406 123.299 51.4355 123.299 48.7637C123.299 46.1094 122.156 44.4043 120.193 44.4043C118.23 44.4043 117.076 46.1211 117.076 48.7695C117.076 51.4414 118.219 53.1406 120.193 53.1406ZM120.193 52.2207C118.869 52.2207 118.137 50.873 118.137 48.7637C118.137 46.7012 118.887 45.3301 120.193 45.3301C121.5 45.3301 122.238 46.6895 122.238 48.7695C122.238 50.8789 121.512 52.2207 120.193 52.2207ZM125.821 53V50.0469L126.735 49.0391L129.905 53H131.253L127.468 48.2891L130.942 44.5449H129.612L125.88 48.6699H125.821V44.5449H124.766V53H125.821ZM135.463 53C137.261 53 138.328 52.1152 138.328 50.627C138.328 49.502 137.59 48.6934 136.441 48.5469V48.5C137.256 48.3535 137.9 47.5332 137.9 46.6543C137.9 45.3887 136.922 44.5449 135.474 44.5449H132.269V53H135.463ZM133.324 45.4766H135.234C136.259 45.4766 136.834 45.9395 136.834 46.7773C136.834 47.6914 136.154 48.1895 134.906 48.1895H133.324V45.4766ZM133.324 52.0684V49.0977H135.205C136.552 49.0977 137.244 49.5957 137.244 50.5742C137.244 51.5527 136.576 52.0684 135.304 52.0684H133.324Z" fill="#6B7280"/>
<path d="M260.54 44.52C259.93 44.52 259.36 44.31 258.95 43.92C258.43 43.43 258.18 42.69 258.27 41.89L258.64 38.65C258.71 38.04 259.08 37.23 259.51 36.79L267.72 28.1C269.77 25.93 271.91 25.87 274.08 27.92C276.25 29.97 276.31 32.11 274.26 34.28L266.05 42.97C265.63 43.42 264.85 43.84 264.24 43.94L261.02 44.49C260.85 44.5 260.7 44.52 260.54 44.52ZM270.93 27.91C270.16 27.91 269.49 28.39 268.81 29.11L260.6 37.81C260.4 38.02 260.17 38.52 260.13 38.81L259.76 42.05C259.72 42.38 259.8 42.65 259.98 42.82C260.16 42.99 260.43 43.05 260.76 43L263.98 42.45C264.27 42.4 264.75 42.14 264.95 41.93L273.16 33.24C274.4 31.92 274.85 30.7 273.04 29C272.24 28.23 271.55 27.91 270.93 27.91Z" fill="#3366FF"/>
<path d="M272.34 35.95C272.32 35.95 272.29 35.95 272.27 35.95C269.15 35.64 266.64 33.27 266.16 30.17C266.1 29.76 266.38 29.38 266.79 29.31C267.2 29.25 267.58 29.53 267.65 29.94C268.03 32.36 269.99 34.22 272.43 34.46C272.84 34.5 273.14 34.87 273.1 35.28C273.05 35.66 272.72 35.95 272.34 35.95Z" fill="#3366FF"/>
<path d="M276 47.75H258C257.59 47.75 257.25 47.41 257.25 47C257.25 46.59 257.59 46.25 258 46.25H276C276.41 46.25 276.75 46.59 276.75 47C276.75 47.41 276.41 47.75 276 47.75Z" fill="#3366FF"/>
<path d="M299 47.75C293.07 47.75 288.25 42.93 288.25 37C288.25 31.07 293.07 26.25 299 26.25C304.93 26.25 309.75 31.07 309.75 37C309.75 42.93 304.93 47.75 299 47.75ZM299 27.75C293.9 27.75 289.75 31.9 289.75 37C289.75 42.1 293.9 46.25 299 46.25C304.1 46.25 308.25 42.1 308.25 37C308.25 31.9 304.1 27.75 299 27.75Z" fill="#FF472B"/>
<path d="M296.17 40.58C295.98 40.58 295.79 40.51 295.64 40.36C295.35 40.07 295.35 39.59 295.64 39.3L301.3 33.64C301.59 33.35 302.07 33.35 302.36 33.64C302.65 33.93 302.65 34.41 302.36 34.7L296.7 40.36C296.56 40.51 296.36 40.58 296.17 40.58Z" fill="#FF472B"/>
<path d="M301.83 40.58C301.64 40.58 301.45 40.51 301.3 40.36L295.64 34.7C295.35 34.41 295.35 33.93 295.64 33.64C295.93 33.35 296.41 33.35 296.7 33.64L302.36 39.3C302.65 39.59 302.65 40.07 302.36 40.36C302.21 40.51 302.02 40.58 301.83 40.58Z" fill="#FF472B"/>
<rect x="0.5" y="0.5" width="326" height="73" rx="7.5" stroke="#D1D5DB"/>
<path d="M29.7782 131.467C29.4715 131.467 29.2649 131.497 29.1582 131.527V133.49C29.2849 133.52 29.4432 133.528 29.6615 133.528C30.4599 133.528 30.9515 133.125 30.9515 132.443C30.9515 131.833 30.5282 131.467 29.7782 131.467ZM35.5899 131.487C35.2565 131.487 35.0399 131.517 34.9115 131.547V135.897C35.0399 135.927 35.2465 135.927 35.4332 135.927C36.7949 135.937 37.6815 135.187 37.6815 133.6C37.6915 132.217 36.8832 131.487 35.5899 131.487Z" fill="#DB291F"/>
<path d="M39.919 110.919C39.5439 110.544 39.0352 110.333 38.5047 110.333H25.9998C25.1158 110.333 24.2679 110.685 23.6428 111.31C23.0177 111.935 22.6665 112.783 22.6665 113.667V140.333C22.6665 141.217 23.0177 142.065 23.6428 142.69C24.2679 143.315 25.1158 143.667 25.9998 143.667H45.9998C46.8839 143.667 47.7317 143.315 48.3569 142.69C48.982 142.065 49.3332 141.217 49.3332 140.333V121.162C49.3332 120.631 49.1225 120.123 48.7474 119.748L39.919 110.919ZM31.8298 133.983C31.3148 134.467 30.5548 134.683 29.6698 134.683C29.4982 134.685 29.3267 134.675 29.1565 134.653V137.03H27.6665V130.47C28.3389 130.37 29.0184 130.324 29.6982 130.333C30.6265 130.333 31.2865 130.51 31.7315 130.865C32.1548 131.202 32.4415 131.753 32.4415 132.403C32.4398 133.057 32.2232 133.608 31.8298 133.983ZM38.1748 136.242C37.4748 136.823 36.4098 137.1 35.1082 137.1C34.3282 137.1 33.7765 137.05 33.4015 137V130.472C34.0742 130.373 34.7534 130.327 35.4332 130.333C36.6948 130.333 37.5148 130.56 38.1548 131.043C38.8465 131.557 39.2798 132.375 39.2798 133.55C39.2798 134.822 38.8148 135.7 38.1748 136.242ZM44.3332 131.617H41.7798V133.135H44.1665V134.358H41.7798V137.032H40.2698V130.383H44.3332V131.617ZM39.3332 122H37.6665V113.667L45.9998 122H39.3332Z" fill="#DB291F"/>
<path d="M66.9121 116.536H68.1426C69.4414 116.536 70.248 117.192 70.248 118.259C70.248 119.223 69.3867 119.906 68.1836 119.906C66.9395 119.906 66.1602 119.257 66.0645 118.313H64.5947C64.6904 120.016 66.0576 121.185 68.1836 121.185C70.2412 121.185 71.8066 120.002 71.8066 118.279C71.8066 116.898 70.8496 115.989 69.3662 115.887V115.859C70.5898 115.641 71.3965 114.759 71.3965 113.528C71.3965 112.011 70.0361 110.951 68.1699 110.951C66.2148 110.951 64.9092 112.065 64.793 113.795H66.2354C66.3242 112.824 67.0352 112.209 68.1016 112.209C69.2705 112.209 69.8994 112.817 69.8994 113.733C69.8994 114.663 69.168 115.333 68.1016 115.333H66.9121V116.536ZM73.5257 111.136V121H77.0052C79.9447 121 81.6742 119.168 81.6742 116.051C81.6742 112.94 79.9379 111.136 77.0052 111.136H73.5257ZM75.057 112.455H76.8617C78.9466 112.455 80.1088 113.74 80.1088 116.064C80.1088 118.396 78.9535 119.674 76.8617 119.674H75.057V112.455ZM86.2608 111.136V121H89.7403C92.6798 121 94.4093 119.168 94.4093 116.051C94.4093 112.94 92.6729 111.136 89.7403 111.136H86.2608ZM87.7921 112.455H89.5968C91.6817 112.455 92.8438 113.74 92.8438 116.064C92.8438 118.396 91.6886 119.674 89.5968 119.674H87.7921V112.455ZM98.8422 114.868C99.8745 114.868 100.572 115.641 100.606 116.741H97.0102C97.0854 115.654 97.81 114.868 98.8422 114.868ZM100.599 118.888C100.401 119.517 99.7787 119.94 98.9379 119.94C97.7553 119.94 97.0034 119.113 97.0034 117.862V117.773H102.082V117.268C102.082 115.087 100.838 113.679 98.8422 113.679C96.812 113.679 95.5131 115.183 95.5131 117.438C95.5131 119.708 96.7914 121.137 98.9037 121.137C100.551 121.137 101.795 120.2 102 118.888H100.599ZM103.241 115.846C103.241 116.851 103.897 117.527 105.196 117.842L106.481 118.156C107.233 118.348 107.507 118.601 107.507 119.059C107.507 119.64 106.96 120.009 106.071 120.009C105.169 120.009 104.636 119.626 104.519 118.936H103.056C103.173 120.255 104.301 121.137 106.003 121.137C107.766 121.137 108.99 120.234 108.99 118.922C108.99 117.862 108.443 117.315 106.994 116.967L105.784 116.687C105.039 116.502 104.683 116.201 104.683 115.757C104.683 115.189 105.217 114.8 106.016 114.8C106.844 114.8 107.37 115.203 107.438 115.853H108.826C108.778 114.574 107.657 113.679 106.057 113.679C104.376 113.679 103.241 114.561 103.241 115.846ZM110.326 121H111.803V113.809H110.326V121ZM111.065 112.756C111.543 112.756 111.926 112.38 111.926 111.915C111.926 111.443 111.543 111.067 111.065 111.067C110.593 111.067 110.21 111.443 110.21 111.915C110.21 112.38 110.593 112.756 111.065 112.756ZM116.516 119.804C115.381 119.804 114.643 118.888 114.643 117.384C114.643 115.887 115.381 114.937 116.516 114.937C117.671 114.937 118.43 115.907 118.43 117.384C118.43 118.867 117.671 119.804 116.516 119.804ZM116.53 123.707C118.581 123.707 119.907 122.586 119.907 120.87V113.809H118.471V115.039H118.444C118.006 114.205 117.172 113.692 116.154 113.692C114.308 113.692 113.132 115.114 113.132 117.377C113.132 119.619 114.315 121.027 116.12 121.027C117.145 121.027 117.993 120.515 118.396 119.735H118.423V120.918C118.423 121.902 117.74 122.559 116.584 122.559C115.744 122.559 115.087 122.162 114.876 121.561H113.392C113.577 122.805 114.834 123.707 116.53 123.707ZM121.51 121H122.986V116.81C122.986 115.695 123.656 114.957 124.695 114.957C125.721 114.957 126.226 115.552 126.226 116.632V121H127.71V116.345C127.71 114.697 126.801 113.686 125.215 113.686C124.107 113.686 123.342 114.191 122.952 115.012H122.918V113.809H121.51V121ZM132.286 114.868C133.319 114.868 134.016 115.641 134.05 116.741H130.454C130.53 115.654 131.254 114.868 132.286 114.868ZM134.043 118.888C133.845 119.517 133.223 119.94 132.382 119.94C131.199 119.94 130.448 119.113 130.448 117.862V117.773H135.527V117.268C135.527 115.087 134.282 113.679 132.286 113.679C130.256 113.679 128.957 115.183 128.957 117.438C128.957 119.708 130.236 121.137 132.348 121.137C133.995 121.137 135.239 120.2 135.445 118.888H134.043ZM136.815 121H138.292V116.693C138.292 115.675 138.879 115.039 139.83 115.039C140.117 115.039 140.377 115.073 140.493 115.121V113.747C140.383 113.727 140.199 113.692 139.987 113.692C139.139 113.692 138.497 114.191 138.257 115.032H138.223V113.809H136.815V121Z" fill="#111827"/>
<path d="M68.3008 143.141C70.1699 143.141 71.4238 142.209 71.8105 140.539H70.7441C70.4395 141.57 69.5488 142.168 68.3066 142.168C66.6367 142.168 65.5762 140.844 65.5762 138.77C65.5762 136.713 66.6484 135.377 68.3008 135.377C69.5078 135.377 70.4746 136.104 70.7441 137.211H71.8105C71.541 135.523 70.1406 134.404 68.3008 134.404C65.9863 134.404 64.4922 136.115 64.4922 138.77C64.4922 141.447 65.9688 143.141 68.3008 143.141ZM76.6649 143L79.7821 134.545H78.6747L76.161 141.717H76.1259L73.6122 134.545H72.5048L75.622 143H76.6649ZM80.4587 143.059C80.8337 143.059 81.1267 142.766 81.1267 142.391C81.1267 142.016 80.8337 141.723 80.4587 141.723C80.0837 141.723 79.7908 142.016 79.7908 142.391C79.7908 142.766 80.0837 143.059 80.4587 143.059ZM85.7233 136.801C84.8385 136.801 84.1295 137.252 83.7545 137.938H83.7311V136.906H82.7643V145.033H83.7838V142.01H83.8073C84.1705 142.678 84.8737 143.105 85.7467 143.105C87.2819 143.105 88.3307 141.863 88.3307 139.953C88.3307 138.043 87.276 136.801 85.7233 136.801ZM85.5241 142.209C84.4811 142.209 83.778 141.312 83.778 139.953C83.778 138.6 84.4811 137.697 85.5241 137.697C86.608 137.697 87.2877 138.576 87.2877 139.953C87.2877 141.336 86.608 142.209 85.5241 142.209ZM91.7905 143.105C92.6695 143.105 93.3667 142.672 93.7593 141.969H93.7769V143H94.7495V134.545H93.73V137.896H93.7066C93.3433 137.229 92.6402 136.801 91.7671 136.801C90.232 136.801 89.1831 138.043 89.1831 139.953C89.1831 141.863 90.2378 143.105 91.7905 143.105ZM91.9839 137.697C93.0327 137.697 93.7359 138.594 93.7359 139.953C93.7359 141.318 93.0327 142.209 91.9839 142.209C90.9058 142.209 90.2261 141.336 90.2261 139.953C90.2261 138.576 90.9058 137.697 91.9839 137.697ZM96.5746 143H97.5941V137.744H98.8363V136.906H97.5883V136.232C97.5883 135.629 97.852 135.336 98.4027 135.336C98.5727 135.336 98.7426 135.354 98.8656 135.371V134.545C98.7191 134.521 98.473 134.498 98.2445 134.498C97.1195 134.498 96.5746 135.055 96.5746 136.227V136.906H95.725V137.744H96.5746V143ZM104.338 139.098H105.399C106.606 139.098 107.356 139.713 107.356 140.709C107.356 141.594 106.553 142.227 105.434 142.227C104.297 142.227 103.576 141.629 103.483 140.762H102.469C102.545 142.162 103.676 143.141 105.445 143.141C107.104 143.141 108.428 142.127 108.428 140.674C108.428 139.484 107.608 138.693 106.33 138.617V138.594C107.385 138.406 108.065 137.645 108.065 136.584C108.065 135.312 106.922 134.404 105.41 134.404C103.822 134.404 102.756 135.324 102.639 136.76H103.653C103.746 135.875 104.391 135.318 105.363 135.318C106.436 135.318 107.004 135.887 107.004 136.725C107.004 137.58 106.324 138.207 105.352 138.207H104.338V139.098ZM112.796 143.141C114.765 143.141 115.901 141.436 115.901 138.764C115.901 136.109 114.759 134.404 112.796 134.404C110.833 134.404 109.679 136.121 109.679 138.77C109.679 141.441 110.821 143.141 112.796 143.141ZM112.796 142.221C111.472 142.221 110.739 140.873 110.739 138.764C110.739 136.701 111.489 135.33 112.796 135.33C114.103 135.33 114.841 136.689 114.841 138.77C114.841 140.879 114.114 142.221 112.796 142.221ZM120.193 143.141C122.162 143.141 123.299 141.436 123.299 138.764C123.299 136.109 122.156 134.404 120.193 134.404C118.23 134.404 117.076 136.121 117.076 138.77C117.076 141.441 118.219 143.141 120.193 143.141ZM120.193 142.221C118.869 142.221 118.137 140.873 118.137 138.764C118.137 136.701 118.887 135.33 120.193 135.33C121.5 135.33 122.238 136.689 122.238 138.77C122.238 140.879 121.512 142.221 120.193 142.221ZM125.821 143V140.047L126.735 139.039L129.905 143H131.253L127.468 138.289L130.942 134.545H129.612L125.88 138.67H125.821V134.545H124.766V143H125.821ZM135.463 143C137.261 143 138.328 142.115 138.328 140.627C138.328 139.502 137.59 138.693 136.441 138.547V138.5C137.256 138.354 137.9 137.533 137.9 136.654C137.9 135.389 136.922 134.545 135.474 134.545H132.269V143H135.463ZM133.324 135.477H135.234C136.259 135.477 136.834 135.939 136.834 136.777C136.834 137.691 136.154 138.189 134.906 138.189H133.324V135.477ZM133.324 142.068V139.098H135.205C136.552 139.098 137.244 139.596 137.244 140.574C137.244 141.553 136.576 142.068 135.304 142.068H133.324Z" fill="#6B7280"/>
<path d="M260.54 134.52C259.93 134.52 259.36 134.31 258.95 133.92C258.43 133.43 258.18 132.69 258.27 131.89L258.64 128.65C258.71 128.04 259.08 127.23 259.51 126.79L267.72 118.1C269.77 115.93 271.91 115.87 274.08 117.92C276.25 119.97 276.31 122.11 274.26 124.28L266.05 132.97C265.63 133.42 264.85 133.84 264.24 133.94L261.02 134.49C260.85 134.5 260.7 134.52 260.54 134.52ZM270.93 117.91C270.16 117.91 269.49 118.39 268.81 119.11L260.6 127.81C260.4 128.02 260.17 128.52 260.13 128.81L259.76 132.05C259.72 132.38 259.8 132.65 259.98 132.82C260.16 132.99 260.43 133.05 260.76 133L263.98 132.45C264.27 132.4 264.75 132.14 264.95 131.93L273.16 123.24C274.4 121.92 274.85 120.7 273.04 119C272.24 118.23 271.55 117.91 270.93 117.91Z" fill="#3366FF"/>
<path d="M272.34 125.95C272.32 125.95 272.29 125.95 272.27 125.95C269.15 125.64 266.64 123.27 266.16 120.17C266.1 119.76 266.38 119.38 266.79 119.31C267.2 119.25 267.58 119.53 267.65 119.94C268.03 122.36 269.99 124.22 272.43 124.46C272.84 124.5 273.14 124.87 273.1 125.28C273.05 125.66 272.72 125.95 272.34 125.95Z" fill="#3366FF"/>
<path d="M276 137.75H258C257.59 137.75 257.25 137.41 257.25 137C257.25 136.59 257.59 136.25 258 136.25H276C276.41 136.25 276.75 136.59 276.75 137C276.75 137.41 276.41 137.75 276 137.75Z" fill="#3366FF"/>
<path d="M299 137.75C293.07 137.75 288.25 132.93 288.25 127C288.25 121.07 293.07 116.25 299 116.25C304.93 116.25 309.75 121.07 309.75 127C309.75 132.93 304.93 137.75 299 137.75ZM299 117.75C293.9 117.75 289.75 121.9 289.75 127C289.75 132.1 293.9 136.25 299 136.25C304.1 136.25 308.25 132.1 308.25 127C308.25 121.9 304.1 117.75 299 117.75Z" fill="#FF472B"/>
<path d="M296.17 130.58C295.98 130.58 295.79 130.51 295.64 130.36C295.35 130.07 295.35 129.59 295.64 129.3L301.3 123.64C301.59 123.35 302.07 123.35 302.36 123.64C302.65 123.93 302.65 124.41 302.36 124.7L296.7 130.36C296.56 130.51 296.36 130.58 296.17 130.58Z" fill="#FF472B"/>
<path d="M301.83 130.58C301.64 130.58 301.45 130.51 301.3 130.36L295.64 124.7C295.35 124.41 295.35 123.93 295.64 123.64C295.93 123.35 296.41 123.35 296.7 123.64L302.36 129.3C302.65 129.59 302.65 130.07 302.36 130.36C302.21 130.51 302.02 130.58 301.83 130.58Z" fill="#FF472B"/>
<rect x="0.5" y="90.5" width="326" height="73" rx="7.5" stroke="#D1D5DB"/>
<path d="M29.7782 221.467C29.4715 221.467 29.2649 221.497 29.1582 221.527V223.49C29.2849 223.52 29.4432 223.528 29.6615 223.528C30.4599 223.528 30.9515 223.125 30.9515 222.443C30.9515 221.833 30.5282 221.467 29.7782 221.467ZM35.5899 221.487C35.2565 221.487 35.0399 221.517 34.9115 221.547V225.897C35.0399 225.927 35.2465 225.927 35.4332 225.927C36.7949 225.937 37.6815 225.187 37.6815 223.6C37.6915 222.217 36.8832 221.487 35.5899 221.487Z" fill="#DB291F"/>
<path d="M39.919 200.919C39.5439 200.544 39.0352 200.333 38.5047 200.333H25.9998C25.1158 200.333 24.2679 200.685 23.6428 201.31C23.0177 201.935 22.6665 202.783 22.6665 203.667V230.333C22.6665 231.217 23.0177 232.065 23.6428 232.69C24.2679 233.315 25.1158 233.667 25.9998 233.667H45.9998C46.8839 233.667 47.7317 233.315 48.3569 232.69C48.982 232.065 49.3332 231.217 49.3332 230.333V211.162C49.3332 210.631 49.1225 210.123 48.7474 209.748L39.919 200.919ZM31.8298 223.983C31.3148 224.467 30.5548 224.683 29.6698 224.683C29.4982 224.685 29.3267 224.675 29.1565 224.653V227.03H27.6665V220.47C28.3389 220.37 29.0184 220.324 29.6982 220.333C30.6265 220.333 31.2865 220.51 31.7315 220.865C32.1548 221.202 32.4415 221.753 32.4415 222.403C32.4398 223.057 32.2232 223.608 31.8298 223.983ZM38.1748 226.242C37.4748 226.823 36.4098 227.1 35.1082 227.1C34.3282 227.1 33.7765 227.05 33.4015 227V220.472C34.0742 220.373 34.7534 220.327 35.4332 220.333C36.6948 220.333 37.5148 220.56 38.1548 221.043C38.8465 221.557 39.2798 222.375 39.2798 223.55C39.2798 224.822 38.8148 225.7 38.1748 226.242ZM44.3332 221.617H41.7798V223.135H44.1665V224.358H41.7798V227.032H40.2698V220.383H44.3332V221.617ZM39.3332 212H37.6665V203.667L45.9998 212H39.3332Z" fill="#DB291F"/>
<path d="M73.4062 206.898V205.894H69.3457V207.131H71.8955V207.302C71.875 208.799 70.7676 209.824 69.168 209.824C67.2881 209.824 66.1191 208.368 66.1191 206.01C66.1191 203.692 67.2539 202.312 69.1406 202.312C70.4258 202.312 71.3896 203.016 71.7588 204.239H73.3311C72.9893 202.271 71.3281 200.972 69.1338 200.972C66.3242 200.972 64.5537 202.913 64.5537 206.023C64.5537 209.188 66.3311 211.164 69.1543 211.164C71.8271 211.164 73.4062 209.571 73.4062 206.898ZM74.8656 211H76.3421V206.693C76.3421 205.675 76.93 205.039 77.8802 205.039C78.1673 205.039 78.4271 205.073 78.5433 205.121V203.747C78.4339 203.727 78.2494 203.692 78.0375 203.692C77.1898 203.692 76.5472 204.191 76.308 205.032H76.2738V203.809H74.8656V211ZM81.9646 209.954C81.1716 209.954 80.6521 209.544 80.6521 208.915C80.6521 208.3 81.1511 207.91 82.0329 207.849L83.8034 207.739V208.307C83.8034 209.243 82.9968 209.954 81.9646 209.954ZM81.5544 211.123C82.4978 211.123 83.407 210.617 83.8239 209.817H83.8581V211H85.2732V206.044C85.2732 204.602 84.1589 203.679 82.4157 203.679C80.6384 203.679 79.531 204.636 79.4489 205.935H80.8435C80.9734 205.292 81.5066 204.882 82.3611 204.882C83.2634 204.882 83.8034 205.36 83.8034 206.16V206.714L81.8347 206.83C80.1257 206.926 79.1618 207.698 79.1618 208.956C79.1618 210.248 80.1462 211.123 81.5544 211.123ZM90.5948 203.692C89.5557 203.692 88.7286 204.219 88.3048 205.046H88.2774V203.809H86.8487V213.379H88.3253V209.817H88.3595C88.7696 210.617 89.5899 211.123 90.6221 211.123C92.4268 211.123 93.6231 209.681 93.6231 207.404C93.6231 205.128 92.42 203.692 90.5948 203.692ZM90.2052 209.872C89.0704 209.872 88.3184 208.901 88.3184 207.404C88.3184 205.921 89.0772 204.937 90.2052 204.937C91.3741 204.937 92.1055 205.9 92.1055 207.404C92.1055 208.915 91.3741 209.872 90.2052 209.872ZM94.9594 211H96.436V206.844C96.436 205.709 97.1059 204.957 98.1996 204.957C99.2387 204.957 99.7719 205.593 99.7719 206.652V211H101.255V206.365C101.255 204.738 100.312 203.686 98.7329 203.686C97.6391 203.686 96.853 204.171 96.4565 205.012H96.4223V201.136H94.9594V211ZM102.872 211H104.348V203.809H102.872V211ZM103.61 202.756C104.089 202.756 104.471 202.38 104.471 201.915C104.471 201.443 104.089 201.067 103.61 201.067C103.138 201.067 102.756 201.443 102.756 201.915C102.756 202.38 103.138 202.756 103.61 202.756ZM107.544 206.892H107.53V201.136H106.054V211H107.53V208.416L108.146 207.808L110.586 211H112.302L109.205 206.905L112.186 203.809H110.449L107.544 206.892ZM116.369 201.136V211H119.849C122.788 211 124.517 209.168 124.517 206.051C124.517 202.94 122.781 201.136 119.849 201.136H116.369ZM117.9 202.455H119.705C121.79 202.455 122.952 203.74 122.952 206.064C122.952 208.396 121.797 209.674 119.705 209.674H117.9V202.455ZM128.95 204.868C129.983 204.868 130.68 205.641 130.714 206.741H127.118C127.194 205.654 127.918 204.868 128.95 204.868ZM130.707 208.888C130.509 209.517 129.887 209.94 129.046 209.94C127.864 209.94 127.112 209.113 127.112 207.862V207.773H132.191V207.268C132.191 205.087 130.947 203.679 128.95 203.679C126.92 203.679 125.621 205.183 125.621 207.438C125.621 209.708 126.9 211.137 129.012 211.137C130.659 211.137 131.904 210.2 132.109 208.888H130.707ZM133.349 205.846C133.349 206.851 134.005 207.527 135.304 207.842L136.589 208.156C137.341 208.348 137.615 208.601 137.615 209.059C137.615 209.64 137.068 210.009 136.179 210.009C135.277 210.009 134.744 209.626 134.628 208.936H133.165C133.281 210.255 134.409 211.137 136.111 211.137C137.875 211.137 139.098 210.234 139.098 208.922C139.098 207.862 138.551 207.315 137.102 206.967L135.892 206.687C135.147 206.502 134.792 206.201 134.792 205.757C134.792 205.189 135.325 204.8 136.125 204.8C136.952 204.8 137.478 205.203 137.546 205.853H138.934C138.886 204.574 137.765 203.679 136.166 203.679C134.484 203.679 133.349 204.561 133.349 205.846ZM140.435 211H141.911V203.809H140.435V211ZM141.173 202.756C141.651 202.756 142.034 202.38 142.034 201.915C142.034 201.443 141.651 201.067 141.173 201.067C140.701 201.067 140.318 201.443 140.318 201.915C140.318 202.38 140.701 202.756 141.173 202.756ZM146.624 209.804C145.49 209.804 144.751 208.888 144.751 207.384C144.751 205.887 145.49 204.937 146.624 204.937C147.78 204.937 148.538 205.907 148.538 207.384C148.538 208.867 147.78 209.804 146.624 209.804ZM146.638 213.707C148.689 213.707 150.015 212.586 150.015 210.87V203.809H148.579V205.039H148.552C148.115 204.205 147.281 203.692 146.262 203.692C144.416 203.692 143.241 205.114 143.241 207.377C143.241 209.619 144.423 211.027 146.228 211.027C147.253 211.027 148.101 210.515 148.504 209.735H148.532V210.918C148.532 211.902 147.848 212.559 146.693 212.559C145.852 212.559 145.196 212.162 144.984 211.561H143.5C143.685 212.805 144.943 213.707 146.638 213.707ZM151.618 211H153.094V206.81C153.094 205.695 153.764 204.957 154.803 204.957C155.829 204.957 156.335 205.552 156.335 206.632V211H157.818V206.345C157.818 204.697 156.909 203.686 155.323 203.686C154.216 203.686 153.45 204.191 153.06 205.012H153.026V203.809H151.618V211ZM162.395 204.868C163.427 204.868 164.124 205.641 164.158 206.741H160.563C160.638 205.654 161.362 204.868 162.395 204.868ZM164.151 208.888C163.953 209.517 163.331 209.94 162.49 209.94C161.308 209.94 160.556 209.113 160.556 207.862V207.773H165.635V207.268C165.635 205.087 164.391 203.679 162.395 203.679C160.364 203.679 159.065 205.183 159.065 207.438C159.065 209.708 160.344 211.137 162.456 211.137C164.104 211.137 165.348 210.2 165.553 208.888H164.151ZM166.923 211H168.4V206.693C168.4 205.675 168.988 205.039 169.938 205.039C170.225 205.039 170.485 205.073 170.601 205.121V203.747C170.492 203.727 170.307 203.692 170.095 203.692C169.247 203.692 168.605 204.191 168.366 205.032H168.331V203.809H166.923V211Z" fill="#111827"/>
<path d="M68.3008 233.141C70.1699 233.141 71.4238 232.209 71.8105 230.539H70.7441C70.4395 231.57 69.5488 232.168 68.3066 232.168C66.6367 232.168 65.5762 230.844 65.5762 228.77C65.5762 226.713 66.6484 225.377 68.3008 225.377C69.5078 225.377 70.4746 226.104 70.7441 227.211H71.8105C71.541 225.523 70.1406 224.404 68.3008 224.404C65.9863 224.404 64.4922 226.115 64.4922 228.77C64.4922 231.447 65.9688 233.141 68.3008 233.141ZM76.6649 233L79.7821 224.545H78.6747L76.161 231.717H76.1259L73.6122 224.545H72.5048L75.622 233H76.6649ZM80.4587 233.059C80.8337 233.059 81.1267 232.766 81.1267 232.391C81.1267 232.016 80.8337 231.723 80.4587 231.723C80.0837 231.723 79.7908 232.016 79.7908 232.391C79.7908 232.766 80.0837 233.059 80.4587 233.059ZM85.7233 226.801C84.8385 226.801 84.1295 227.252 83.7545 227.938H83.7311V226.906H82.7643V235.033H83.7838V232.01H83.8073C84.1705 232.678 84.8737 233.105 85.7467 233.105C87.2819 233.105 88.3307 231.863 88.3307 229.953C88.3307 228.043 87.276 226.801 85.7233 226.801ZM85.5241 232.209C84.4811 232.209 83.778 231.312 83.778 229.953C83.778 228.6 84.4811 227.697 85.5241 227.697C86.608 227.697 87.2877 228.576 87.2877 229.953C87.2877 231.336 86.608 232.209 85.5241 232.209ZM91.7905 233.105C92.6695 233.105 93.3667 232.672 93.7593 231.969H93.7769V233H94.7495V224.545H93.73V227.896H93.7066C93.3433 227.229 92.6402 226.801 91.7671 226.801C90.232 226.801 89.1831 228.043 89.1831 229.953C89.1831 231.863 90.2378 233.105 91.7905 233.105ZM91.9839 227.697C93.0327 227.697 93.7359 228.594 93.7359 229.953C93.7359 231.318 93.0327 232.209 91.9839 232.209C90.9058 232.209 90.2261 231.336 90.2261 229.953C90.2261 228.576 90.9058 227.697 91.9839 227.697ZM96.5746 233H97.5941V227.744H98.8363V226.906H97.5883V226.232C97.5883 225.629 97.852 225.336 98.4027 225.336C98.5727 225.336 98.7426 225.354 98.8656 225.371V224.545C98.7191 224.521 98.473 224.498 98.2445 224.498C97.1195 224.498 96.5746 225.055 96.5746 226.227V226.906H95.725V227.744H96.5746V233ZM104.338 229.098H105.399C106.606 229.098 107.356 229.713 107.356 230.709C107.356 231.594 106.553 232.227 105.434 232.227C104.297 232.227 103.576 231.629 103.483 230.762H102.469C102.545 232.162 103.676 233.141 105.445 233.141C107.104 233.141 108.428 232.127 108.428 230.674C108.428 229.484 107.608 228.693 106.33 228.617V228.594C107.385 228.406 108.065 227.645 108.065 226.584C108.065 225.312 106.922 224.404 105.41 224.404C103.822 224.404 102.756 225.324 102.639 226.76H103.653C103.746 225.875 104.391 225.318 105.363 225.318C106.436 225.318 107.004 225.887 107.004 226.725C107.004 227.58 106.324 228.207 105.352 228.207H104.338V229.098ZM112.796 233.141C114.765 233.141 115.901 231.436 115.901 228.764C115.901 226.109 114.759 224.404 112.796 224.404C110.833 224.404 109.679 226.121 109.679 228.77C109.679 231.441 110.821 233.141 112.796 233.141ZM112.796 232.221C111.472 232.221 110.739 230.873 110.739 228.764C110.739 226.701 111.489 225.33 112.796 225.33C114.103 225.33 114.841 226.689 114.841 228.77C114.841 230.879 114.114 232.221 112.796 232.221ZM120.193 233.141C122.162 233.141 123.299 231.436 123.299 228.764C123.299 226.109 122.156 224.404 120.193 224.404C118.23 224.404 117.076 226.121 117.076 228.77C117.076 231.441 118.219 233.141 120.193 233.141ZM120.193 232.221C118.869 232.221 118.137 230.873 118.137 228.764C118.137 226.701 118.887 225.33 120.193 225.33C121.5 225.33 122.238 226.689 122.238 228.77C122.238 230.879 121.512 232.221 120.193 232.221ZM125.821 233V230.047L126.735 229.039L129.905 233H131.253L127.468 228.289L130.942 224.545H129.612L125.88 228.67H125.821V224.545H124.766V233H125.821ZM135.463 233C137.261 233 138.328 232.115 138.328 230.627C138.328 229.502 137.59 228.693 136.441 228.547V228.5C137.256 228.354 137.9 227.533 137.9 226.654C137.9 225.389 136.922 224.545 135.474 224.545H132.269V233H135.463ZM133.324 225.477H135.234C136.259 225.477 136.834 225.939 136.834 226.777C136.834 227.691 136.154 228.189 134.906 228.189H133.324V225.477ZM133.324 232.068V229.098H135.205C136.552 229.098 137.244 229.596 137.244 230.574C137.244 231.553 136.576 232.068 135.304 232.068H133.324Z" fill="#6B7280"/>
<path d="M260.54 224.52C259.93 224.52 259.36 224.31 258.95 223.92C258.43 223.43 258.18 222.69 258.27 221.89L258.64 218.65C258.71 218.04 259.08 217.23 259.51 216.79L267.72 208.1C269.77 205.93 271.91 205.87 274.08 207.92C276.25 209.97 276.31 212.11 274.26 214.28L266.05 222.97C265.63 223.42 264.85 223.84 264.24 223.94L261.02 224.49C260.85 224.5 260.7 224.52 260.54 224.52ZM270.93 207.91C270.16 207.91 269.49 208.39 268.81 209.11L260.6 217.81C260.4 218.02 260.17 218.52 260.13 218.81L259.76 222.05C259.72 222.38 259.8 222.65 259.98 222.82C260.16 222.99 260.43 223.05 260.76 223L263.98 222.45C264.27 222.4 264.75 222.14 264.95 221.93L273.16 213.24C274.4 211.92 274.85 210.7 273.04 209C272.24 208.23 271.55 207.91 270.93 207.91Z" fill="#3366FF"/>
<path d="M272.34 215.95C272.32 215.95 272.29 215.95 272.27 215.95C269.15 215.64 266.64 213.27 266.16 210.17C266.1 209.76 266.38 209.38 266.79 209.31C267.2 209.25 267.58 209.53 267.65 209.94C268.03 212.36 269.99 214.22 272.43 214.46C272.84 214.5 273.14 214.87 273.1 215.28C273.05 215.66 272.72 215.95 272.34 215.95Z" fill="#3366FF"/>
<path d="M276 227.75H258C257.59 227.75 257.25 227.41 257.25 227C257.25 226.59 257.59 226.25 258 226.25H276C276.41 226.25 276.75 226.59 276.75 227C276.75 227.41 276.41 227.75 276 227.75Z" fill="#3366FF"/>
<path d="M299 227.75C293.07 227.75 288.25 222.93 288.25 217C288.25 211.07 293.07 206.25 299 206.25C304.93 206.25 309.75 211.07 309.75 217C309.75 222.93 304.93 227.75 299 227.75ZM299 207.75C293.9 207.75 289.75 211.9 289.75 217C289.75 222.1 293.9 226.25 299 226.25C304.1 226.25 308.25 222.1 308.25 217C308.25 211.9 304.1 207.75 299 207.75Z" fill="#FF472B"/>
<path d="M296.17 220.58C295.98 220.58 295.79 220.51 295.64 220.36C295.35 220.07 295.35 219.59 295.64 219.3L301.3 213.64C301.59 213.35 302.07 213.35 302.36 213.64C302.65 213.93 302.65 214.41 302.36 214.7L296.7 220.36C296.56 220.51 296.36 220.58 296.17 220.58Z" fill="#FF472B"/>
<path d="M301.83 220.58C301.64 220.58 301.45 220.51 301.3 220.36L295.64 214.7C295.35 214.41 295.35 213.93 295.64 213.64C295.93 213.35 296.41 213.35 296.7 213.64L302.36 219.3C302.65 219.59 302.65 220.07 302.36 220.36C302.21 220.51 302.02 220.58 301.83 220.58Z" fill="#FF472B"/>
<rect x="0.5" y="180.5" width="326" height="73" rx="7.5" stroke="#D1D5DB"/>
</svg>
