<svg width="327" height="122" viewBox="0 0 327 122" fill="none" xmlns="http://www.w3.org/2000/svg">
<path d="M35.1797 26V19.0742L41.1445 9.08984H38.2383L33.9258 16.5547H33.8438L29.5312 9.08984H26.6016L32.5547 19.0742V26H35.1797ZM45.8845 26.2344C49.4119 26.2344 51.7322 23.8086 51.7322 19.8359C51.7322 15.875 49.4002 13.4492 45.8845 13.4492C42.3689 13.4492 40.0369 15.875 40.0369 19.8359C40.0369 23.8086 42.3572 26.2344 45.8845 26.2344ZM45.8845 24.1484C43.9041 24.1484 42.615 22.5781 42.615 19.8359C42.615 17.1055 43.9041 15.5352 45.8845 15.5352C47.865 15.5352 49.1541 17.1055 49.1541 19.8359C49.1541 22.5781 47.8767 24.1484 45.8845 24.1484ZM64.4995 13.6719H61.9683V20.8555C61.9683 22.7773 60.8667 24.043 59.0386 24.043C57.2925 24.043 56.4019 23.0352 56.4019 21.1602V13.6719H53.8706V21.6523C53.8706 24.4766 55.5112 26.2227 58.1948 26.2227C60.0816 26.2227 61.3355 25.3906 62.0152 23.9141H62.0737V26H64.4995V13.6719ZM72.4561 26H74.9873V18.875C74.9873 16.9297 76.1358 15.6406 78.0108 15.6406C79.792 15.6406 80.7061 16.7305 80.7061 18.5469V26H83.2491V18.0547C83.2491 15.2656 81.6319 13.4609 78.9248 13.4609C77.0498 13.4609 75.7022 14.293 75.0225 15.7344H74.9639V9.08984H72.4561V26ZM90.2508 24.207C88.8914 24.207 88.0008 23.5039 88.0008 22.4258C88.0008 21.3711 88.8562 20.7031 90.368 20.5977L93.4031 20.4102V21.3828C93.4031 22.9883 92.0203 24.207 90.2508 24.207ZM89.5477 26.2109C91.1648 26.2109 92.7234 25.3438 93.4383 23.9727H93.4969V26H95.9227V17.5039C95.9227 15.0312 94.0125 13.4492 91.0242 13.4492C87.9773 13.4492 86.0789 15.0898 85.9383 17.3164H88.3289C88.5516 16.2148 89.4656 15.5117 90.9305 15.5117C92.4773 15.5117 93.4031 16.332 93.4031 17.7031V18.6523L90.0281 18.8516C87.0984 19.0156 85.4461 20.3398 85.4461 22.4961C85.4461 24.7109 87.1336 26.2109 89.5477 26.2109ZM109.147 13.6719H106.499L103.405 23.5273H103.358L100.264 13.6719H97.5689L102.01 26H104.729L109.147 13.6719ZM115.645 15.4883C117.414 15.4883 118.61 16.8125 118.668 18.6992H112.504C112.633 16.8359 113.875 15.4883 115.645 15.4883ZM118.657 22.3789C118.317 23.457 117.25 24.1836 115.809 24.1836C113.782 24.1836 112.493 22.7656 112.493 20.6211V20.4688H121.2V19.6016C121.2 15.8633 119.067 13.4492 115.645 13.4492C112.164 13.4492 109.938 16.0273 109.938 19.8945C109.938 23.7852 112.129 26.2344 115.75 26.2344C118.575 26.2344 120.707 24.6289 121.059 22.3789H118.657ZM128.523 26H131.055V18.8164C131.055 16.9062 132.203 15.6406 133.984 15.6406C135.742 15.6406 136.609 16.6602 136.609 18.5117V26H139.152V18.0195C139.152 15.1953 137.594 13.4609 134.875 13.4609C132.976 13.4609 131.664 14.3281 130.996 15.7344H130.937V13.6719H128.523V26ZM147.138 26.2344C150.666 26.2344 152.986 23.8086 152.986 19.8359C152.986 15.875 150.654 13.4492 147.138 13.4492C143.623 13.4492 141.291 15.875 141.291 19.8359C141.291 23.8086 143.611 26.2344 147.138 26.2344ZM147.138 24.1484C145.158 24.1484 143.869 22.5781 143.869 19.8359C143.869 17.1055 145.158 15.5352 147.138 15.5352C149.119 15.5352 150.408 17.1055 150.408 19.8359C150.408 22.5781 149.13 24.1484 147.138 24.1484ZM155.921 10.7539V13.6719H154.128V15.6758H155.921V22.7539C155.921 25.1328 156.894 26.082 159.39 26.082C159.952 26.082 160.515 26.0352 160.796 25.9648V23.9609C160.632 23.9961 160.222 24.0195 159.964 24.0195C158.933 24.0195 158.464 23.5391 158.464 22.4727V15.6758H160.808V13.6719H158.464V10.7539H155.921ZM168.249 26H170.78V18.6172C170.78 16.8711 171.788 15.7812 173.417 15.7812C173.909 15.7812 174.354 15.8398 174.554 15.9219V13.5664C174.366 13.5312 174.05 13.4727 173.686 13.4727C172.233 13.4727 171.132 14.3281 170.722 15.7695H170.663V13.6719H168.249V26ZM180.981 15.4883C182.751 15.4883 183.946 16.8125 184.005 18.6992H177.84C177.969 16.8359 179.212 15.4883 180.981 15.4883ZM183.993 22.3789C183.653 23.457 182.587 24.1836 181.145 24.1836C179.118 24.1836 177.829 22.7656 177.829 20.6211V20.4688H186.536V19.6016C186.536 15.8633 184.403 13.4492 180.981 13.4492C177.501 13.4492 175.274 16.0273 175.274 19.8945C175.274 23.7852 177.465 26.2344 181.087 26.2344C183.911 26.2344 186.044 24.6289 186.395 22.3789H183.993ZM199.327 17.9141C199.104 15.4883 197.17 13.4492 193.995 13.4492C190.491 13.4492 188.194 15.9219 188.194 19.8359C188.194 23.8203 190.491 26.2344 194.018 26.2344C196.983 26.2344 199.08 24.4531 199.35 21.8281H196.913C196.62 23.2578 195.6 24.1133 194.041 24.1133C192.073 24.1133 190.772 22.543 190.772 19.8359C190.772 17.1875 192.061 15.5586 194.018 15.5586C195.67 15.5586 196.655 16.6016 196.913 17.9141H199.327ZM206.539 15.4883C208.309 15.4883 209.504 16.8125 209.563 18.6992H203.399C203.527 16.8359 204.77 15.4883 206.539 15.4883ZM209.551 22.3789C209.211 23.457 208.145 24.1836 206.703 24.1836C204.676 24.1836 203.387 22.7656 203.387 20.6211V20.4688H212.094V19.6016C212.094 15.8633 209.961 13.4492 206.539 13.4492C203.059 13.4492 200.832 16.0273 200.832 19.8945C200.832 23.7852 203.024 26.2344 206.645 26.2344C209.469 26.2344 211.602 24.6289 211.953 22.3789H209.551ZM214.385 26H216.916V13.6719H214.385V26ZM215.65 11.8672C216.471 11.8672 217.127 11.2227 217.127 10.4258C217.127 9.61719 216.471 8.97266 215.65 8.97266C214.842 8.97266 214.185 9.61719 214.185 10.4258C214.185 11.2227 214.842 11.8672 215.65 11.8672ZM230.269 13.6719H227.621L224.527 23.5273H224.48L221.386 13.6719H218.691L223.133 26H225.851L230.269 13.6719ZM236.767 15.4883C238.537 15.4883 239.732 16.8125 239.79 18.6992H233.626C233.755 16.8359 234.997 15.4883 236.767 15.4883ZM239.779 22.3789C239.439 23.457 238.372 24.1836 236.931 24.1836C234.904 24.1836 233.615 22.7656 233.615 20.6211V20.4688H242.322V19.6016C242.322 15.8633 240.189 13.4492 236.767 13.4492C233.287 13.4492 231.06 16.0273 231.06 19.8945C231.06 23.7852 233.251 26.2344 236.872 26.2344C239.697 26.2344 241.83 24.6289 242.181 22.3789H239.779ZM249.159 26.2109C250.952 26.2109 252.359 25.3086 253.085 23.9023H253.132V26H255.593V9.08984H253.05V15.7227H253.003C252.312 14.3633 250.905 13.4727 249.136 13.4727C246.042 13.4727 243.98 15.9453 243.98 19.8359C243.98 23.7266 246.042 26.2109 249.159 26.2109ZM249.827 15.6055C251.773 15.6055 253.073 17.2812 253.073 19.8359C253.073 22.4141 251.773 24.0664 249.827 24.0664C247.823 24.0664 246.57 22.4375 246.57 19.8359C246.57 17.2461 247.823 15.6055 249.827 15.6055ZM267.862 24.207C266.503 24.207 265.612 23.5039 265.612 22.4258C265.612 21.3711 266.467 20.7031 267.979 20.5977L271.014 20.4102V21.3828C271.014 22.9883 269.632 24.207 267.862 24.207ZM267.159 26.2109C268.776 26.2109 270.335 25.3438 271.05 23.9727H271.108V26H273.534V17.5039C273.534 15.0312 271.624 13.4492 268.635 13.4492C265.589 13.4492 263.69 15.0898 263.55 17.3164H265.94C266.163 16.2148 267.077 15.5117 268.542 15.5117C270.089 15.5117 271.014 16.332 271.014 17.7031V18.6523L267.639 18.8516C264.71 19.0156 263.057 20.3398 263.057 22.4961C263.057 24.7109 264.745 26.2109 267.159 26.2109ZM276.235 26H278.766V18.8164C278.766 16.9062 279.915 15.6406 281.696 15.6406C283.454 15.6406 284.321 16.6602 284.321 18.5117V26H286.864V18.0195C286.864 15.1953 285.305 13.4609 282.586 13.4609C280.688 13.4609 279.375 14.3281 278.708 15.7344H278.649V13.6719H276.235V26ZM290.772 30.5938C293.338 30.5938 294.545 29.6328 295.6 26.6445L300.229 13.6719H297.557L294.428 23.7031H294.393L291.264 13.6719H288.522L292.975 26.0117C292.975 26.0234 292.752 26.75 292.752 26.7734C292.365 28.0391 291.744 28.5312 290.561 28.5312C290.35 28.5312 289.928 28.5312 289.74 28.4844V30.5352C289.928 30.5703 290.573 30.5938 290.772 30.5938ZM110.922 60H113.453V52.3828C113.453 50.8008 114.519 49.6289 116.019 49.6289C117.449 49.6289 118.351 50.5312 118.351 51.9492V60H120.836V52.3008C120.836 50.7422 121.879 49.6289 123.379 49.6289C124.879 49.6289 125.734 50.543 125.734 52.1367V60H128.277V51.5273C128.277 49.0781 126.683 47.4609 124.246 47.4609C122.488 47.4609 121.035 48.375 120.402 49.875H120.344C119.851 48.3398 118.609 47.4609 116.898 47.4609C115.234 47.4609 113.945 48.375 113.394 49.7461H113.336V47.6719H110.922V60ZM136.123 49.4883C137.892 49.4883 139.088 50.8125 139.146 52.6992H132.982C133.111 50.8359 134.353 49.4883 136.123 49.4883ZM139.134 56.3789C138.795 57.457 137.728 58.1836 136.287 58.1836C134.259 58.1836 132.97 56.7656 132.97 54.6211V54.4688H141.677V53.6016C141.677 49.8633 139.545 47.4492 136.123 47.4492C132.642 47.4492 130.416 50.0273 130.416 53.8945C130.416 57.7852 132.607 60.2344 136.228 60.2344C139.052 60.2344 141.185 58.6289 141.537 56.3789H139.134ZM143.663 51.1641C143.663 52.8867 144.788 54.0469 147.015 54.5859L149.218 55.125C150.507 55.4531 150.976 55.8867 150.976 56.6719C150.976 57.668 150.038 58.3008 148.515 58.3008C146.968 58.3008 146.054 57.6445 145.855 56.4609H143.347C143.546 58.7227 145.48 60.2344 148.398 60.2344C151.421 60.2344 153.519 58.6875 153.519 56.4375C153.519 54.6211 152.581 53.6836 150.097 53.0859L148.023 52.6055C146.745 52.2891 146.136 51.7734 146.136 51.0117C146.136 50.0391 147.05 49.3711 148.421 49.3711C149.839 49.3711 150.742 50.0625 150.859 51.1758H153.238C153.156 48.9844 151.234 47.4492 148.492 47.4492C145.609 47.4492 143.663 48.9609 143.663 51.1641ZM155.505 51.1641C155.505 52.8867 156.63 54.0469 158.857 54.5859L161.06 55.125C162.349 55.4531 162.818 55.8867 162.818 56.6719C162.818 57.668 161.88 58.3008 160.357 58.3008C158.81 58.3008 157.896 57.6445 157.696 56.4609H155.189C155.388 58.7227 157.321 60.2344 160.239 60.2344C163.263 60.2344 165.36 58.6875 165.36 56.4375C165.36 54.6211 164.423 53.6836 161.939 53.0859L159.864 52.6055C158.587 52.2891 157.978 51.7734 157.978 51.0117C157.978 50.0391 158.892 49.3711 160.263 49.3711C161.681 49.3711 162.583 50.0625 162.7 51.1758H165.079C164.997 48.9844 163.075 47.4492 160.333 47.4492C157.45 47.4492 155.505 48.9609 155.505 51.1641ZM171.882 58.207C170.522 58.207 169.632 57.5039 169.632 56.4258C169.632 55.3711 170.487 54.7031 171.999 54.5977L175.034 54.4102V55.3828C175.034 56.9883 173.651 58.207 171.882 58.207ZM171.179 60.2109C172.796 60.2109 174.354 59.3438 175.069 57.9727H175.128V60H177.554V51.5039C177.554 49.0312 175.643 47.4492 172.655 47.4492C169.608 47.4492 167.71 49.0898 167.569 51.3164H169.96C170.182 50.2148 171.097 49.5117 172.561 49.5117C174.108 49.5117 175.034 50.332 175.034 51.7031V52.6523L171.659 52.8516C168.729 53.0156 167.077 54.3398 167.077 56.4961C167.077 58.7109 168.765 60.2109 171.179 60.2109ZM185.505 57.9492C183.559 57.9492 182.294 56.3789 182.294 53.8008C182.294 51.2344 183.559 49.6055 185.505 49.6055C187.485 49.6055 188.786 51.2695 188.786 53.8008C188.786 56.3438 187.485 57.9492 185.505 57.9492ZM185.528 64.6406C189.044 64.6406 191.317 62.7188 191.317 59.7773V47.6719H188.856V49.7812H188.809C188.059 48.3516 186.63 47.4727 184.883 47.4727C181.719 47.4727 179.704 49.9102 179.704 53.7891C179.704 57.6328 181.731 60.0469 184.825 60.0469C186.583 60.0469 188.036 59.168 188.727 57.832H188.774V59.8594C188.774 61.5469 187.602 62.6719 185.622 62.6719C184.18 62.6719 183.055 61.9922 182.692 60.9609H180.149C180.465 63.0938 182.622 64.6406 185.528 64.6406ZM199.221 49.4883C200.991 49.4883 202.186 50.8125 202.245 52.6992H196.08C196.209 50.8359 197.452 49.4883 199.221 49.4883ZM202.233 56.3789C201.893 57.457 200.827 58.1836 199.385 58.1836C197.358 58.1836 196.069 56.7656 196.069 54.6211V54.4688H204.776V53.6016C204.776 49.8633 202.643 47.4492 199.221 47.4492C195.741 47.4492 193.514 50.0273 193.514 53.8945C193.514 57.7852 195.705 60.2344 199.327 60.2344C202.151 60.2344 204.284 58.6289 204.635 56.3789H202.233ZM206.762 51.1641C206.762 52.8867 207.887 54.0469 210.113 54.5859L212.317 55.125C213.606 55.4531 214.074 55.8867 214.074 56.6719C214.074 57.668 213.137 58.3008 211.613 58.3008C210.067 58.3008 209.152 57.6445 208.953 56.4609H206.445C206.645 58.7227 208.578 60.2344 211.496 60.2344C214.52 60.2344 216.617 58.6875 216.617 56.4375C216.617 54.6211 215.68 53.6836 213.195 53.0859L211.121 52.6055C209.844 52.2891 209.235 51.7734 209.235 51.0117C209.235 50.0391 210.149 49.3711 211.52 49.3711C212.938 49.3711 213.84 50.0625 213.957 51.1758H216.336C216.254 48.9844 214.332 47.4492 211.59 47.4492C208.707 47.4492 206.762 48.9609 206.762 51.1641Z" fill="#111827"/>
<path d="M6.06813 84.5391C2.87282 84.5391 0.872818 86.7891 0.872818 90.3672C0.872818 93.9453 2.87282 96.1875 6.06813 96.1875C9.26344 96.1875 11.2634 93.9453 11.2634 90.3672C11.2634 86.7891 9.26344 84.5391 6.06813 84.5391ZM6.06813 85.8359C8.37282 85.8359 9.81813 87.5859 9.81813 90.3672C9.81813 93.1406 8.37282 94.8906 6.06813 94.8906C3.76344 94.8906 2.31813 93.1406 2.31813 90.3672C2.31813 87.5859 3.76344 85.8359 6.06813 85.8359ZM12.9625 96H14.3219V91.2188C14.3219 89.8438 15.1578 88.9375 16.4391 88.9375C17.6891 88.9375 18.3063 89.6562 18.3063 90.9688V96H19.6656V90.7266C19.6656 88.8828 18.6344 87.7344 16.8531 87.7344C15.5953 87.7344 14.7281 88.2969 14.275 89.1719H14.2438V87.875H12.9625V96ZM28.31 90.5391C28.1381 89.0781 26.9272 87.7344 24.8959 87.7344C22.6538 87.7344 21.1616 89.375 21.1616 91.9375C21.1616 94.5547 22.6616 96.1406 24.9116 96.1406C26.7553 96.1406 28.1147 95 28.3256 93.3828H26.9897C26.7553 94.3594 26.0288 94.9453 24.9194 94.9453C23.5131 94.9453 22.5444 93.8281 22.5444 91.9375C22.5444 90.0938 23.4975 88.9297 24.9038 88.9297C26.0991 88.9297 26.7866 89.6562 26.9819 90.5391H28.31ZM32.9934 88.9141C34.2747 88.9141 35.1263 89.8828 35.1575 91.2422H30.7434C30.8294 89.8906 31.72 88.9141 32.9934 88.9141ZM35.1263 93.6719C34.8997 94.4375 34.1419 94.9609 33.1106 94.9609C31.6497 94.9609 30.7356 93.9375 30.7356 92.3828V92.3047H36.5638V91.7891C36.5638 89.3281 35.2122 87.7344 33.0169 87.7344C30.7747 87.7344 29.3372 89.4453 29.3372 91.9688C29.3372 94.5234 30.7513 96.1406 33.0794 96.1406C34.8528 96.1406 36.2278 95.0938 36.4622 93.6719H35.1263ZM42.2119 99.0391C43.6806 99.0391 44.3525 98.4688 45.0478 96.5703L48.2431 87.875H46.8134L44.5634 94.6406H44.54L42.29 87.875H40.8369L43.8369 96.0078L43.6494 96.5781C43.3369 97.5234 42.915 97.8906 42.1572 97.8906C41.9853 97.8906 41.7744 97.8828 41.6259 97.8516V98.9922C41.7744 99.0234 42.0478 99.0391 42.2119 99.0391ZM52.6141 96.1406C54.8563 96.1406 56.3719 94.5234 56.3719 91.9375C56.3719 89.3438 54.8563 87.7344 52.6141 87.7344C50.3641 87.7344 48.8484 89.3438 48.8484 91.9375C48.8484 94.5234 50.3641 96.1406 52.6141 96.1406ZM52.6141 94.9453C51.1766 94.9453 50.2313 93.8516 50.2313 91.9375C50.2313 90.0234 51.1766 88.9297 52.6141 88.9297C54.0516 88.9297 54.9891 90.0234 54.9891 91.9375C54.9891 93.8516 54.0516 94.9453 52.6141 94.9453ZM64.5788 87.875H63.2194V92.6484C63.2194 94.0312 62.4225 94.9375 61.1022 94.9375C59.8444 94.9375 59.2272 94.2266 59.2272 92.9062V87.875H57.8678V93.1484C57.8678 94.9922 58.9069 96.1406 60.6803 96.1406C61.9303 96.1406 62.7741 95.6172 63.2584 94.6797H63.2897V96H64.5788V87.875ZM66.5044 96H67.8638V90.9375C67.8638 89.7891 68.5513 89.0312 69.6059 89.0312C69.9341 89.0312 70.2231 89.0703 70.3325 89.1094V87.7891C70.2231 87.7734 70.02 87.7344 69.7856 87.7344C68.8325 87.7344 68.0825 88.3047 67.8169 89.2031H67.7856V87.875H66.5044V96ZM77.7228 94.9844C76.7463 94.9844 76.0978 94.4766 76.0978 93.7031C76.0978 92.9375 76.7228 92.4531 77.8166 92.3828L79.9884 92.25V92.9141C79.9884 94.0859 79.0041 94.9844 77.7228 94.9844ZM77.4181 96.1406C78.5119 96.1406 79.5431 95.5312 80.0275 94.6016H80.0588V96H81.3478V90.3828C81.3478 88.7656 80.1447 87.7344 78.2384 87.7344C76.3166 87.7344 75.1134 88.8125 75.0197 90.2188H76.3322C76.5041 89.4219 77.1603 88.9297 78.2072 88.9297C79.3322 88.9297 79.9884 89.5234 79.9884 90.5156V91.1953L77.6603 91.3281C75.7853 91.4375 74.715 92.3125 74.715 93.7031C74.715 95.1641 75.8009 96.1406 77.4181 96.1406ZM87.1797 87.7344C86 87.7344 85.0547 88.3359 84.5547 89.25H84.5234V87.875H83.2344V98.7109H84.5938V94.6797H84.625C85.1094 95.5703 86.0469 96.1406 87.2109 96.1406C89.2578 96.1406 90.6563 94.4844 90.6563 91.9375C90.6563 89.3906 89.25 87.7344 87.1797 87.7344ZM86.9141 94.9453C85.5234 94.9453 84.5859 93.75 84.5859 91.9375C84.5859 90.1328 85.5234 88.9297 86.9141 88.9297C88.3594 88.9297 89.2656 90.1016 89.2656 91.9375C89.2656 93.7812 88.3594 94.9453 86.9141 94.9453ZM96.1366 87.7344C94.9569 87.7344 94.0116 88.3359 93.5116 89.25H93.4803V87.875H92.1913V98.7109H93.5506V94.6797H93.5819C94.0663 95.5703 95.0038 96.1406 96.1678 96.1406C98.2147 96.1406 99.6131 94.4844 99.6131 91.9375C99.6131 89.3906 98.2069 87.7344 96.1366 87.7344ZM95.8709 94.9453C94.4803 94.9453 93.5428 93.75 93.5428 91.9375C93.5428 90.1328 94.4803 88.9297 95.8709 88.9297C97.3163 88.9297 98.2225 90.1016 98.2225 91.9375C98.2225 93.7812 97.3163 94.9453 95.8709 94.9453ZM101.218 96H102.578V84.7266H101.218V96ZM104.644 96H106.003V87.875H104.644V96ZM105.324 86.5078C105.793 86.5078 106.175 86.125 106.175 85.6641C106.175 85.1953 105.793 84.8203 105.324 84.8203C104.863 84.8203 104.48 85.1953 104.48 85.6641C104.48 86.125 104.863 86.5078 105.324 86.5078ZM114.749 90.5391C114.578 89.0781 113.367 87.7344 111.335 87.7344C109.093 87.7344 107.601 89.375 107.601 91.9375C107.601 94.5547 109.101 96.1406 111.351 96.1406C113.195 96.1406 114.554 95 114.765 93.3828H113.429C113.195 94.3594 112.468 94.9453 111.359 94.9453C109.953 94.9453 108.984 93.8281 108.984 91.9375C108.984 90.0938 109.937 88.9297 111.343 88.9297C112.538 88.9297 113.226 89.6562 113.421 90.5391H114.749ZM118.855 94.9844C117.878 94.9844 117.23 94.4766 117.23 93.7031C117.23 92.9375 117.855 92.4531 118.948 92.3828L121.12 92.25V92.9141C121.12 94.0859 120.136 94.9844 118.855 94.9844ZM118.55 96.1406C119.644 96.1406 120.675 95.5312 121.159 94.6016H121.191V96H122.48V90.3828C122.48 88.7656 121.277 87.7344 119.37 87.7344C117.448 87.7344 116.245 88.8125 116.152 90.2188H117.464C117.636 89.4219 118.292 88.9297 119.339 88.9297C120.464 88.9297 121.12 89.5234 121.12 90.5156V91.1953L118.792 91.3281C116.917 91.4375 115.847 92.3125 115.847 93.7031C115.847 95.1641 116.933 96.1406 118.55 96.1406ZM124.804 85.9141V87.875H123.593V88.9922H124.804V93.8906C124.804 95.4531 125.382 96.0625 126.874 96.0625C127.194 96.0625 127.569 96.0391 127.733 96V94.8594C127.64 94.875 127.327 94.8984 127.171 94.8984C126.476 94.8984 126.163 94.5625 126.163 93.8203V88.9922H127.741V87.875H126.163V85.9141H124.804ZM129.425 96H130.784V87.875H129.425V96ZM130.104 86.5078C130.573 86.5078 130.956 86.125 130.956 85.6641C130.956 85.1953 130.573 84.8203 130.104 84.8203C129.643 84.8203 129.261 85.1953 129.261 85.6641C129.261 86.125 129.643 86.5078 130.104 86.5078ZM136.147 96.1406C138.389 96.1406 139.905 94.5234 139.905 91.9375C139.905 89.3438 138.389 87.7344 136.147 87.7344C133.897 87.7344 132.382 89.3438 132.382 91.9375C132.382 94.5234 133.897 96.1406 136.147 96.1406ZM136.147 94.9453C134.71 94.9453 133.764 93.8516 133.764 91.9375C133.764 90.0234 134.71 88.9297 136.147 88.9297C137.585 88.9297 138.522 90.0234 138.522 91.9375C138.522 93.8516 137.585 94.9453 136.147 94.9453ZM141.44 96H142.799V91.2188C142.799 89.8438 143.635 88.9375 144.917 88.9375C146.167 88.9375 146.784 89.6562 146.784 90.9688V96H148.143V90.7266C148.143 88.8828 147.112 87.7344 145.331 87.7344C144.073 87.7344 143.206 88.2969 142.753 89.1719H142.721V87.875H141.44V96ZM153.549 96H154.908V91.2656C154.908 89.8594 155.744 88.9375 157.096 88.9375C158.369 88.9375 159.018 89.7109 159.018 91V96H160.377V90.75C160.377 88.9375 159.299 87.7344 157.518 87.7344C156.283 87.7344 155.393 88.2656 154.94 89.1719H154.908V84.7266H153.549V96ZM164.943 94.9844C163.967 94.9844 163.318 94.4766 163.318 93.7031C163.318 92.9375 163.943 92.4531 165.037 92.3828L167.209 92.25V92.9141C167.209 94.0859 166.225 94.9844 164.943 94.9844ZM164.639 96.1406C165.732 96.1406 166.764 95.5312 167.248 94.6016H167.279V96H168.568V90.3828C168.568 88.7656 167.365 87.7344 165.459 87.7344C163.537 87.7344 162.334 88.8125 162.24 90.2188H163.553C163.725 89.4219 164.381 88.9297 165.428 88.9297C166.553 88.9297 167.209 89.5234 167.209 90.5156V91.1953L164.881 91.3281C163.006 91.4375 161.936 92.3125 161.936 93.7031C161.936 95.1641 163.022 96.1406 164.639 96.1406ZM170.314 90.1172C170.314 91.2266 171.018 91.9609 172.447 92.3281L173.877 92.6953C174.791 92.9375 175.127 93.25 175.127 93.8281C175.127 94.5625 174.447 95.0312 173.346 95.0312C172.244 95.0312 171.603 94.5781 171.455 93.7344H170.096C170.236 95.1719 171.478 96.1406 173.26 96.1406C175.158 96.1406 176.494 95.1406 176.494 93.7266C176.494 92.5312 175.9 91.9375 174.26 91.5234L173.002 91.2188C172.08 90.9844 171.65 90.6094 171.65 90.0469C171.65 89.3359 172.307 88.8438 173.299 88.8438C174.299 88.8438 174.932 89.3281 175.025 90.1094H176.322C176.26 88.7344 175.025 87.7344 173.346 87.7344C171.557 87.7344 170.314 88.7266 170.314 90.1172ZM181.509 96H182.869V90.9375C182.869 89.7891 183.556 89.0312 184.611 89.0312C184.939 89.0312 185.228 89.0703 185.338 89.1094V87.7891C185.228 87.7734 185.025 87.7344 184.791 87.7344C183.838 87.7344 183.088 88.3047 182.822 89.2031H182.791V87.875H181.509V96ZM189.474 88.9141C190.755 88.9141 191.607 89.8828 191.638 91.2422H187.224C187.31 89.8906 188.201 88.9141 189.474 88.9141ZM191.607 93.6719C191.38 94.4375 190.623 94.9609 189.591 94.9609C188.13 94.9609 187.216 93.9375 187.216 92.3828V92.3047H193.044V91.7891C193.044 89.3281 191.693 87.7344 189.498 87.7344C187.255 87.7344 185.818 89.4453 185.818 91.9688C185.818 94.5234 187.232 96.1406 189.56 96.1406C191.333 96.1406 192.708 95.0938 192.943 93.6719H191.607ZM197.259 94.9844C196.283 94.9844 195.634 94.4766 195.634 93.7031C195.634 92.9375 196.259 92.4531 197.353 92.3828L199.525 92.25V92.9141C199.525 94.0859 198.54 94.9844 197.259 94.9844ZM196.954 96.1406C198.048 96.1406 199.079 95.5312 199.564 94.6016H199.595V96H200.884V90.3828C200.884 88.7656 199.681 87.7344 197.775 87.7344C195.853 87.7344 194.65 88.8125 194.556 90.2188H195.868C196.04 89.4219 196.697 88.9297 197.743 88.9297C198.868 88.9297 199.525 89.5234 199.525 90.5156V91.1953L197.197 91.3281C195.322 91.4375 194.251 92.3125 194.251 93.7031C194.251 95.1641 195.337 96.1406 196.954 96.1406ZM209.521 90.5391C209.349 89.0781 208.138 87.7344 206.107 87.7344C203.864 87.7344 202.372 89.375 202.372 91.9375C202.372 94.5547 203.872 96.1406 206.122 96.1406C207.966 96.1406 209.325 95 209.536 93.3828H208.2C207.966 94.3594 207.239 94.9453 206.13 94.9453C204.724 94.9453 203.755 93.8281 203.755 91.9375C203.755 90.0938 204.708 88.9297 206.114 88.9297C207.31 88.9297 207.997 89.6562 208.193 90.5391H209.521ZM211.017 96H212.376V91.2656C212.376 89.8594 213.212 88.9375 214.563 88.9375C215.837 88.9375 216.485 89.7109 216.485 91V96H217.845V90.75C217.845 88.9375 216.767 87.7344 214.985 87.7344C213.751 87.7344 212.86 88.2656 212.407 89.1719H212.376V84.7266H211.017V96ZM222.989 88.9141C224.27 88.9141 225.122 89.8828 225.153 91.2422H220.739C220.825 89.8906 221.716 88.9141 222.989 88.9141ZM225.122 93.6719C224.895 94.4375 224.138 94.9609 223.106 94.9609C221.645 94.9609 220.731 93.9375 220.731 92.3828V92.3047H226.559V91.7891C226.559 89.3281 225.208 87.7344 223.013 87.7344C220.77 87.7344 219.333 89.4453 219.333 91.9688C219.333 94.5234 220.747 96.1406 223.075 96.1406C224.848 96.1406 226.223 95.0938 226.458 93.6719H225.122ZM231.173 96.1406C232.344 96.1406 233.274 95.5625 233.798 94.625H233.821V96H235.118V84.7266H233.758V89.1953H233.727C233.243 88.3047 232.305 87.7344 231.141 87.7344C229.094 87.7344 227.696 89.3906 227.696 91.9375C227.696 94.4844 229.102 96.1406 231.173 96.1406ZM231.43 88.9297C232.829 88.9297 233.766 90.125 233.766 91.9375C233.766 93.7578 232.829 94.9453 231.43 94.9453C229.993 94.9453 229.087 93.7812 229.087 91.9375C229.087 90.1016 229.993 88.9297 231.43 88.9297ZM240.993 85.9141V87.875H239.782V88.9922H240.993V93.8906C240.993 95.4531 241.571 96.0625 243.063 96.0625C243.383 96.0625 243.758 96.0391 243.922 96V94.8594C243.828 94.875 243.516 94.8984 243.36 94.8984C242.664 94.8984 242.352 94.5625 242.352 93.8203V88.9922H243.93V87.875H242.352V85.9141H240.993ZM245.613 96H246.973V91.2656C246.973 89.8594 247.809 88.9375 249.16 88.9375C250.434 88.9375 251.082 89.7109 251.082 91V96H252.442V90.75C252.442 88.9375 251.363 87.7344 249.582 87.7344C248.348 87.7344 247.457 88.2656 247.004 89.1719H246.973V84.7266H245.613V96ZM257.586 88.9141C258.867 88.9141 259.719 89.8828 259.75 91.2422H255.336C255.422 89.8906 256.312 88.9141 257.586 88.9141ZM259.719 93.6719C259.492 94.4375 258.734 94.9609 257.703 94.9609C256.242 94.9609 255.328 93.9375 255.328 92.3828V92.3047H261.156V91.7891C261.156 89.3281 259.805 87.7344 257.609 87.7344C255.367 87.7344 253.93 89.4453 253.93 91.9688C253.93 94.5234 255.344 96.1406 257.672 96.1406C259.445 96.1406 260.82 95.0938 261.055 93.6719H259.719ZM266.203 96H267.562V87.875H266.203V96ZM266.883 86.5078C267.351 86.5078 267.734 86.125 267.734 85.6641C267.734 85.1953 267.351 84.8203 266.883 84.8203C266.422 84.8203 266.039 85.1953 266.039 85.6641C266.039 86.125 266.422 86.5078 266.883 86.5078ZM269.558 96H270.917V91.2188C270.917 89.8438 271.753 88.9375 273.035 88.9375C274.285 88.9375 274.902 89.6562 274.902 90.9688V96H276.261V90.7266C276.261 88.8828 275.23 87.7344 273.449 87.7344C272.191 87.7344 271.324 88.2969 270.871 89.1719H270.839V87.875H269.558V96ZM278.593 85.9141V87.875H277.382V88.9922H278.593V93.8906C278.593 95.4531 279.171 96.0625 280.663 96.0625C280.984 96.0625 281.359 96.0391 281.523 96V94.8594C281.429 94.875 281.117 94.8984 280.96 94.8984C280.265 94.8984 279.953 94.5625 279.953 93.8203V88.9922H281.531V87.875H279.953V85.9141H278.593ZM286.167 88.9141C287.448 88.9141 288.3 89.8828 288.331 91.2422H283.917C284.003 89.8906 284.894 88.9141 286.167 88.9141ZM288.3 93.6719C288.073 94.4375 287.316 94.9609 286.284 94.9609C284.823 94.9609 283.909 93.9375 283.909 92.3828V92.3047H289.737V91.7891C289.737 89.3281 288.386 87.7344 286.191 87.7344C283.948 87.7344 282.511 89.4453 282.511 91.9688C282.511 94.5234 283.925 96.1406 286.253 96.1406C288.027 96.1406 289.402 95.0938 289.636 93.6719H288.3ZM291.273 96H292.632V90.9375C292.632 89.7891 293.319 89.0312 294.374 89.0312C294.702 89.0312 294.991 89.0703 295.101 89.1094V87.7891C294.991 87.7734 294.788 87.7344 294.554 87.7344C293.601 87.7344 292.851 88.3047 292.585 89.2031H292.554V87.875H291.273V96ZM303.034 87.875H301.62L299.37 94.5547H299.339L297.097 87.875H295.667L298.659 96H300.05L303.034 87.875ZM304.335 96H305.694V87.875H304.335V96ZM305.014 86.5078C305.483 86.5078 305.866 86.125 305.866 85.6641C305.866 85.1953 305.483 84.8203 305.014 84.8203C304.553 84.8203 304.171 85.1953 304.171 85.6641C304.171 86.125 304.553 86.5078 305.014 86.5078ZM310.948 88.9141C312.229 88.9141 313.081 89.8828 313.112 91.2422H308.698C308.784 89.8906 309.674 88.9141 310.948 88.9141ZM313.081 93.6719C312.854 94.4375 312.096 94.9609 311.065 94.9609C309.604 94.9609 308.69 93.9375 308.69 92.3828V92.3047H314.518V91.7891C314.518 89.3281 313.167 87.7344 310.971 87.7344C308.729 87.7344 307.292 89.4453 307.292 91.9688C307.292 94.5234 308.706 96.1406 311.034 96.1406C312.807 96.1406 314.182 95.0938 314.417 93.6719H313.081ZM326.389 87.875H325.045L323.42 94.4844H323.389L321.545 87.875H320.233L318.397 94.4844H318.366L316.741 87.875H315.389L317.662 96H319.045L320.873 89.7109H320.905L322.741 96H324.123L326.389 87.875ZM3.33969 111.117C3.33969 112.227 4.04282 112.961 5.4725 113.328L6.90219 113.695C7.81625 113.938 8.15219 114.25 8.15219 114.828C8.15219 115.562 7.4725 116.031 6.37094 116.031C5.26938 116.031 4.62875 115.578 4.48032 114.734H3.12094C3.26157 116.172 4.50375 117.141 6.285 117.141C8.18344 117.141 9.51938 116.141 9.51938 114.727C9.51938 113.531 8.92563 112.938 7.285 112.523L6.02719 112.219C5.10532 111.984 4.67563 111.609 4.67563 111.047C4.67563 110.336 5.33188 109.844 6.32407 109.844C7.32407 109.844 7.95688 110.328 8.05063 111.109H9.3475C9.285 109.734 8.05063 108.734 6.37094 108.734C4.58188 108.734 3.33969 109.727 3.33969 111.117ZM11.5309 106.914V108.875H10.32V109.992H11.5309V114.891C11.5309 116.453 12.1091 117.062 13.6013 117.062C13.9216 117.062 14.2966 117.039 14.4606 117V115.859C14.3669 115.875 14.0544 115.898 13.8981 115.898C13.2028 115.898 12.8903 115.562 12.8903 114.82V109.992H14.4684V108.875H12.8903V106.914H11.5309ZM18.605 115.984C17.6284 115.984 16.98 115.477 16.98 114.703C16.98 113.938 17.605 113.453 18.6988 113.383L20.8706 113.25V113.914C20.8706 115.086 19.8863 115.984 18.605 115.984ZM18.3003 117.141C19.3941 117.141 20.4253 116.531 20.9097 115.602H20.9409V117H22.23V111.383C22.23 109.766 21.0269 108.734 19.1206 108.734C17.1988 108.734 15.9956 109.812 15.9019 111.219H17.2144C17.3863 110.422 18.0425 109.93 19.0894 109.93C20.2144 109.93 20.8706 110.523 20.8706 111.516V112.195L18.5425 112.328C16.6675 112.438 15.5972 113.312 15.5972 114.703C15.5972 116.164 16.6831 117.141 18.3003 117.141ZM27.4213 115.867C26.0228 115.867 25.1088 114.727 25.1088 112.906C25.1088 111.086 26.0228 109.93 27.4213 109.93C28.8353 109.93 29.7806 111.117 29.7806 112.906C29.7806 114.695 28.8353 115.867 27.4213 115.867ZM27.4681 120.062C29.7103 120.062 31.14 118.773 31.14 116.836V108.875H29.8431V110.242H29.8197C29.2806 109.297 28.3275 108.734 27.1791 108.734C25.0775 108.734 23.7181 110.359 23.7181 112.906C23.7181 115.43 25.0775 117.062 27.1478 117.062C28.2884 117.062 29.2494 116.484 29.7494 115.602H29.7806V116.883C29.7806 118.094 28.9291 118.906 27.5228 118.906C26.5072 118.906 25.7025 118.414 25.4369 117.672H24.0384C24.265 119.055 25.6791 120.062 27.4681 120.062ZM36.3313 109.914C37.6125 109.914 38.4641 110.883 38.4953 112.242H34.0813C34.1672 110.891 35.0578 109.914 36.3313 109.914ZM38.4641 114.672C38.2375 115.438 37.4797 115.961 36.4484 115.961C34.9875 115.961 34.0734 114.938 34.0734 113.383V113.305H39.9016V112.789C39.9016 110.328 38.55 108.734 36.3547 108.734C34.1125 108.734 32.675 110.445 32.675 112.969C32.675 115.523 34.0891 117.141 36.4172 117.141C38.1906 117.141 39.5656 116.094 39.8 114.672H38.4641ZM42.3663 119.242L43.4366 115.266H41.9913L41.2334 119.242H42.3663ZM48.9909 120.039C50.4597 120.039 51.1316 119.469 51.8269 117.57L55.0222 108.875H53.5925L51.3425 115.641H51.3191L49.0691 108.875H47.6159L50.6159 117.008L50.4284 117.578C50.1159 118.523 49.6941 118.891 48.9363 118.891C48.7644 118.891 48.5534 118.883 48.405 118.852V119.992C48.5534 120.023 48.8269 120.039 48.9909 120.039ZM59.3931 117.141C61.6353 117.141 63.1509 115.523 63.1509 112.938C63.1509 110.344 61.6353 108.734 59.3931 108.734C57.1431 108.734 55.6275 110.344 55.6275 112.938C55.6275 115.523 57.1431 117.141 59.3931 117.141ZM59.3931 115.945C57.9556 115.945 57.0103 114.852 57.0103 112.938C57.0103 111.023 57.9556 109.93 59.3931 109.93C60.8306 109.93 61.7681 111.023 61.7681 112.938C61.7681 114.852 60.8306 115.945 59.3931 115.945ZM71.3578 108.875H69.9984V113.648C69.9984 115.031 69.2016 115.938 67.8813 115.938C66.6234 115.938 66.0063 115.227 66.0063 113.906V108.875H64.6469V114.148C64.6469 115.992 65.6859 117.141 67.4594 117.141C68.7094 117.141 69.5531 116.617 70.0375 115.68H70.0688V117H71.3578V108.875ZM87.0606 108.875H85.7169L84.0919 115.484H84.0606L82.2169 108.875H80.9044L79.0684 115.484H79.0372L77.4122 108.875H76.0606L78.3341 117H79.7169L81.545 110.711H81.5763L83.4122 117H84.795L87.0606 108.875ZM88.4081 117H89.7675V108.875H88.4081V117ZM89.0878 107.508C89.5566 107.508 89.9394 107.125 89.9394 106.664C89.9394 106.195 89.5566 105.82 89.0878 105.82C88.6269 105.82 88.2441 106.195 88.2441 106.664C88.2441 107.125 88.6269 107.508 89.0878 107.508ZM91.8338 117H93.1931V105.727H91.8338V117ZM95.2594 117H96.6188V105.727H95.2594V117ZM105.361 115.867C103.962 115.867 103.048 114.727 103.048 112.906C103.048 111.086 103.962 109.93 105.361 109.93C106.775 109.93 107.72 111.117 107.72 112.906C107.72 114.695 106.775 115.867 105.361 115.867ZM105.408 120.062C107.65 120.062 109.079 118.773 109.079 116.836V108.875H107.783V110.242H107.759C107.22 109.297 106.267 108.734 105.118 108.734C103.017 108.734 101.658 110.359 101.658 112.906C101.658 115.43 103.017 117.062 105.087 117.062C106.228 117.062 107.189 116.484 107.689 115.602H107.72V116.883C107.72 118.094 106.868 118.906 105.462 118.906C104.447 118.906 103.642 118.414 103.376 117.672H101.978C102.204 119.055 103.618 120.062 105.408 120.062ZM114.271 109.914C115.552 109.914 116.403 110.883 116.435 112.242H112.021C112.107 110.891 112.997 109.914 114.271 109.914ZM116.403 114.672C116.177 115.438 115.419 115.961 114.388 115.961C112.927 115.961 112.013 114.938 112.013 113.383V113.305H117.841V112.789C117.841 110.328 116.489 108.734 114.294 108.734C112.052 108.734 110.614 110.445 110.614 112.969C110.614 115.523 112.028 117.141 114.357 117.141C116.13 117.141 117.505 116.094 117.739 114.672H116.403ZM119.813 106.914V108.875H118.603V109.992H119.813V114.891C119.813 116.453 120.392 117.062 121.884 117.062C122.204 117.062 122.579 117.039 122.743 117V115.859C122.649 115.875 122.337 115.898 122.181 115.898C121.485 115.898 121.173 115.562 121.173 114.82V109.992H122.751V108.875H121.173V106.914H119.813ZM130.485 115.984C129.508 115.984 128.86 115.477 128.86 114.703C128.86 113.938 129.485 113.453 130.579 113.383L132.751 113.25V113.914C132.751 115.086 131.766 115.984 130.485 115.984ZM130.18 117.141C131.274 117.141 132.305 116.531 132.79 115.602H132.821V117H134.11V111.383C134.11 109.766 132.907 108.734 131.001 108.734C129.079 108.734 127.876 109.812 127.782 111.219H129.094C129.266 110.422 129.923 109.93 130.969 109.93C132.094 109.93 132.751 110.523 132.751 111.516V112.195L130.423 112.328C128.548 112.438 127.477 113.312 127.477 114.703C127.477 116.164 128.563 117.141 130.18 117.141ZM139.438 117H140.797V111.906C140.797 110.781 141.578 109.938 142.657 109.938C143.664 109.938 144.321 110.578 144.321 111.555V117H145.68V111.836C145.68 110.734 146.438 109.938 147.516 109.938C148.586 109.938 149.203 110.594 149.203 111.703V117H150.563V111.391C150.563 109.781 149.524 108.734 147.914 108.734C146.774 108.734 145.821 109.312 145.368 110.281H145.336C144.985 109.297 144.164 108.734 143.055 108.734C141.961 108.734 141.133 109.312 140.75 110.172H140.719V108.875H139.438V117ZM155.715 109.914C156.996 109.914 157.848 110.883 157.879 112.242H153.465C153.551 110.891 154.442 109.914 155.715 109.914ZM157.848 114.672C157.621 115.438 156.863 115.961 155.832 115.961C154.371 115.961 153.457 114.938 153.457 113.383V113.305H159.285V112.789C159.285 110.328 157.934 108.734 155.738 108.734C153.496 108.734 152.059 110.445 152.059 112.969C152.059 115.523 153.473 117.141 155.801 117.141C157.574 117.141 158.949 116.094 159.184 114.672H157.848ZM160.68 111.117C160.68 112.227 161.383 112.961 162.812 113.328L164.242 113.695C165.156 113.938 165.492 114.25 165.492 114.828C165.492 115.562 164.812 116.031 163.711 116.031C162.609 116.031 161.969 115.578 161.82 114.734H160.461C160.602 116.172 161.844 117.141 163.625 117.141C165.523 117.141 166.859 116.141 166.859 114.727C166.859 113.531 166.266 112.938 164.625 112.523L163.367 112.219C162.445 111.984 162.016 111.609 162.016 111.047C162.016 110.336 162.672 109.844 163.664 109.844C164.664 109.844 165.297 110.328 165.391 111.109H166.688C166.625 109.734 165.391 108.734 163.711 108.734C161.922 108.734 160.68 109.727 160.68 111.117ZM168.293 111.117C168.293 112.227 168.996 112.961 170.426 113.328L171.855 113.695C172.769 113.938 173.105 114.25 173.105 114.828C173.105 115.562 172.426 116.031 171.324 116.031C170.223 116.031 169.582 115.578 169.433 114.734H168.074C168.215 116.172 169.457 117.141 171.238 117.141C173.137 117.141 174.473 116.141 174.473 114.727C174.473 113.531 173.879 112.938 172.238 112.523L170.98 112.219C170.058 111.984 169.629 111.609 169.629 111.047C169.629 110.336 170.285 109.844 171.277 109.844C172.277 109.844 172.91 110.328 173.004 111.109H174.301C174.238 109.734 173.004 108.734 171.324 108.734C169.535 108.734 168.293 109.727 168.293 111.117ZM178.726 115.984C177.75 115.984 177.101 115.477 177.101 114.703C177.101 113.938 177.726 113.453 178.82 113.383L180.992 113.25V113.914C180.992 115.086 180.008 115.984 178.726 115.984ZM178.422 117.141C179.515 117.141 180.547 116.531 181.031 115.602H181.062V117H182.351V111.383C182.351 109.766 181.148 108.734 179.242 108.734C177.32 108.734 176.117 109.812 176.023 111.219H177.336C177.508 110.422 178.164 109.93 179.211 109.93C180.336 109.93 180.992 110.523 180.992 111.516V112.195L178.664 112.328C176.789 112.438 175.718 113.312 175.718 114.703C175.718 116.164 176.804 117.141 178.422 117.141ZM187.543 115.867C186.144 115.867 185.23 114.727 185.23 112.906C185.23 111.086 186.144 109.93 187.543 109.93C188.957 109.93 189.902 111.117 189.902 112.906C189.902 114.695 188.957 115.867 187.543 115.867ZM187.589 120.062C189.832 120.062 191.261 118.773 191.261 116.836V108.875H189.964V110.242H189.941C189.402 109.297 188.449 108.734 187.3 108.734C185.199 108.734 183.839 110.359 183.839 112.906C183.839 115.43 185.199 117.062 187.269 117.062C188.41 117.062 189.371 116.484 189.871 115.602H189.902V116.883C189.902 118.094 189.05 118.906 187.644 118.906C186.628 118.906 185.824 118.414 185.558 117.672H184.16C184.386 119.055 185.8 120.062 187.589 120.062ZM196.452 109.914C197.734 109.914 198.585 110.883 198.617 112.242H194.202C194.288 110.891 195.179 109.914 196.452 109.914ZM198.585 114.672C198.359 115.438 197.601 115.961 196.57 115.961C195.109 115.961 194.195 114.938 194.195 113.383V113.305H200.023V112.789C200.023 110.328 198.671 108.734 196.476 108.734C194.234 108.734 192.796 110.445 192.796 112.969C192.796 115.523 194.21 117.141 196.538 117.141C198.312 117.141 199.687 116.094 199.921 114.672H198.585ZM205.437 117H206.796V109.992H208.452V108.875H206.788V107.977C206.788 107.172 207.14 106.781 207.874 106.781C208.101 106.781 208.327 106.805 208.491 106.828V105.727C208.296 105.695 207.968 105.664 207.663 105.664C206.163 105.664 205.437 106.406 205.437 107.969V108.875H204.304V109.992H205.437V117ZM210.018 117H211.378V111.938C211.378 110.789 212.065 110.031 213.12 110.031C213.448 110.031 213.737 110.07 213.847 110.109V108.789C213.737 108.773 213.534 108.734 213.3 108.734C212.347 108.734 211.597 109.305 211.331 110.203H211.3V108.875H210.018V117ZM218.092 117.141C220.335 117.141 221.85 115.523 221.85 112.938C221.85 110.344 220.335 108.734 218.092 108.734C215.842 108.734 214.327 110.344 214.327 112.938C214.327 115.523 215.842 117.141 218.092 117.141ZM218.092 115.945C216.655 115.945 215.71 114.852 215.71 112.938C215.71 111.023 216.655 109.93 218.092 109.93C219.53 109.93 220.467 111.023 220.467 112.938C220.467 114.852 219.53 115.945 218.092 115.945ZM223.385 117H224.745V111.906C224.745 110.781 225.526 109.938 226.604 109.938C227.612 109.938 228.268 110.578 228.268 111.555V117H229.628V111.836C229.628 110.734 230.385 109.938 231.463 109.938C232.534 109.938 233.151 110.594 233.151 111.703V117H234.51V111.391C234.51 109.781 233.471 108.734 231.862 108.734C230.721 108.734 229.768 109.312 229.315 110.281H229.284C228.932 109.297 228.112 108.734 227.003 108.734C225.909 108.734 225.081 109.312 224.698 110.172H224.667V108.875H223.385V117ZM240.283 106.914V108.875H239.073V109.992H240.283V114.891C240.283 116.453 240.862 117.062 242.354 117.062C242.674 117.062 243.049 117.039 243.213 117V115.859C243.119 115.875 242.807 115.898 242.651 115.898C241.955 115.898 241.643 115.562 241.643 114.82V109.992H243.221V108.875H241.643V106.914H240.283ZM244.904 117H246.264V112.266C246.264 110.859 247.1 109.938 248.451 109.938C249.725 109.938 250.373 110.711 250.373 112V117H251.732V111.75C251.732 109.938 250.654 108.734 248.873 108.734C247.639 108.734 246.748 109.266 246.295 110.172H246.264V105.727H244.904V117ZM256.877 109.914C258.158 109.914 259.01 110.883 259.041 112.242H254.627C254.713 110.891 255.603 109.914 256.877 109.914ZM259.01 114.672C258.783 115.438 258.025 115.961 256.994 115.961C255.533 115.961 254.619 114.938 254.619 113.383V113.305H260.447V112.789C260.447 110.328 259.096 108.734 256.9 108.734C254.658 108.734 253.221 110.445 253.221 112.969C253.221 115.523 254.635 117.141 256.963 117.141C258.736 117.141 260.111 116.094 260.346 114.672H259.01ZM265.423 117H266.783V111.938C266.783 110.789 267.47 110.031 268.525 110.031C268.853 110.031 269.142 110.07 269.252 110.109V108.789C269.142 108.773 268.939 108.734 268.705 108.734C267.752 108.734 267.002 109.305 266.736 110.203H266.705V108.875H265.423V117ZM273.388 109.914C274.669 109.914 275.521 110.883 275.552 112.242H271.138C271.224 110.891 272.115 109.914 273.388 109.914ZM275.521 114.672C275.294 115.438 274.537 115.961 273.505 115.961C272.044 115.961 271.13 114.938 271.13 113.383V113.305H276.958V112.789C276.958 110.328 275.607 108.734 273.412 108.734C271.169 108.734 269.732 110.445 269.732 112.969C269.732 115.523 271.146 117.141 273.474 117.141C275.247 117.141 276.622 116.094 276.857 114.672H275.521ZM285.243 111.539C285.072 110.078 283.861 108.734 281.829 108.734C279.587 108.734 278.095 110.375 278.095 112.938C278.095 115.555 279.595 117.141 281.845 117.141C283.689 117.141 285.048 116 285.259 114.383H283.923C283.689 115.359 282.962 115.945 281.853 115.945C280.447 115.945 279.478 114.828 279.478 112.938C279.478 111.094 280.431 109.93 281.837 109.93C283.033 109.93 283.72 110.656 283.915 111.539H285.243ZM286.669 117H288.028V111.938C288.028 110.789 288.716 110.031 289.771 110.031C290.099 110.031 290.388 110.07 290.497 110.109V108.789C290.388 108.773 290.185 108.734 289.95 108.734C288.997 108.734 288.247 109.305 287.982 110.203H287.95V108.875H286.669V117ZM298.438 108.875H297.079V113.648C297.079 115.031 296.282 115.938 294.962 115.938C293.704 115.938 293.087 115.227 293.087 113.906V108.875H291.728V114.148C291.728 115.992 292.767 117.141 294.54 117.141C295.79 117.141 296.634 116.617 297.118 115.68H297.149V117H298.438V108.875ZM300.434 117H301.794V108.875H300.434V117ZM301.114 107.508C301.583 107.508 301.966 107.125 301.966 106.664C301.966 106.195 301.583 105.82 301.114 105.82C300.653 105.82 300.27 106.195 300.27 106.664C300.27 107.125 300.653 107.508 301.114 107.508ZM304.227 106.914V108.875H303.016V109.992H304.227V114.891C304.227 116.453 304.805 117.062 306.298 117.062C306.618 117.062 306.993 117.039 307.157 117V115.859C307.063 115.875 306.751 115.898 306.594 115.898C305.899 115.898 305.587 115.562 305.587 114.82V109.992H307.165V108.875H305.587V106.914H304.227ZM311.801 109.914C313.082 109.914 313.934 110.883 313.965 112.242H309.551C309.637 110.891 310.528 109.914 311.801 109.914ZM313.934 114.672C313.707 115.438 312.95 115.961 311.918 115.961C310.457 115.961 309.543 114.938 309.543 113.383V113.305H315.372V112.789C315.372 110.328 314.02 108.734 311.825 108.734C309.582 108.734 308.145 110.445 308.145 112.969C308.145 115.523 309.559 117.141 311.887 117.141C313.661 117.141 315.036 116.094 315.27 114.672H313.934ZM316.907 117H318.266V111.938C318.266 110.789 318.953 110.031 320.008 110.031C320.336 110.031 320.625 110.07 320.735 110.109V108.789C320.625 108.773 320.422 108.734 320.188 108.734C319.235 108.734 318.485 109.305 318.219 110.203H318.188V108.875H316.907V117ZM322.371 117.078C322.871 117.078 323.262 116.688 323.262 116.188C323.262 115.688 322.871 115.297 322.371 115.297C321.871 115.297 321.481 115.688 321.481 116.188C321.481 116.688 321.871 117.078 322.371 117.078Z" fill="#6B7280"/>
</svg>
