<svg width="324" height="88" viewBox="0 0 324 88" fill="none" xmlns="http://www.w3.org/2000/svg">
<path d="M10.4095 26V13.543H10.515L19.2806 26H21.6478V9.08984H19.0931V21.5586H18.9994L10.2337 9.08984H7.85484V26H10.4095ZM30.0089 26.2344C33.5362 26.2344 35.8566 23.8086 35.8566 19.8359C35.8566 15.875 33.5245 13.4492 30.0089 13.4492C26.4933 13.4492 24.1612 15.875 24.1612 19.8359C24.1612 23.8086 26.4816 26.2344 30.0089 26.2344ZM30.0089 24.1484C28.0284 24.1484 26.7394 22.5781 26.7394 19.8359C26.7394 17.1055 28.0284 15.5352 30.0089 15.5352C31.9894 15.5352 33.2784 17.1055 33.2784 19.8359C33.2784 22.5781 32.0011 24.1484 30.0089 24.1484ZM47.4811 24.207C46.1217 24.207 45.2311 23.5039 45.2311 22.4258C45.2311 21.3711 46.0866 20.7031 47.5983 20.5977L50.6334 20.4102V21.3828C50.6334 22.9883 49.2506 24.207 47.4811 24.207ZM46.778 26.2109C48.3952 26.2109 49.9538 25.3438 50.6686 23.9727H50.7272V26H53.153V17.5039C53.153 15.0312 51.2428 13.4492 48.2545 13.4492C45.2077 13.4492 43.3092 15.0898 43.1686 17.3164H45.5592C45.7819 16.2148 46.6959 15.5117 48.1608 15.5117C49.7077 15.5117 50.6334 16.332 50.6334 17.7031V18.6523L47.2584 18.8516C44.3288 19.0156 42.6764 20.3398 42.6764 22.4961C42.6764 24.7109 44.3639 26.2109 46.778 26.2109ZM62.2758 13.4727C60.4945 13.4727 59.0766 14.375 58.35 15.793H58.3031V13.6719H55.8539V30.0781H58.3852V23.9727H58.4437C59.1469 25.3438 60.5531 26.2109 62.3227 26.2109C65.4164 26.2109 67.4672 23.7383 67.4672 19.8359C67.4672 15.9336 65.4047 13.4727 62.2758 13.4727ZM61.6078 24.0664C59.6625 24.0664 58.3734 22.4023 58.3734 19.8359C58.3734 17.293 59.6742 15.6055 61.6078 15.6055C63.6117 15.6055 64.8656 17.2578 64.8656 19.8359C64.8656 22.4258 63.6117 24.0664 61.6078 24.0664ZM76.0861 13.4727C74.3048 13.4727 72.8869 14.375 72.1603 15.793H72.1134V13.6719H69.6642V30.0781H72.1955V23.9727H72.2541C72.9572 25.3438 74.3634 26.2109 76.133 26.2109C79.2267 26.2109 81.2775 23.7383 81.2775 19.8359C81.2775 15.9336 79.215 13.4727 76.0861 13.4727ZM75.4181 24.0664C73.4728 24.0664 72.1837 22.4023 72.1837 19.8359C72.1837 17.293 73.4845 15.6055 75.4181 15.6055C77.422 15.6055 78.6759 17.2578 78.6759 19.8359C78.6759 22.4258 77.422 24.0664 75.4181 24.0664ZM83.5683 26H86.0995V9.08984H83.5683V26ZM89.0231 26H91.5544V13.6719H89.0231V26ZM90.2887 11.8672C91.1091 11.8672 91.7653 11.2227 91.7653 10.4258C91.7653 9.61719 91.1091 8.97266 90.2887 8.97266C89.4802 8.97266 88.8239 9.61719 88.8239 10.4258C88.8239 11.2227 89.4802 11.8672 90.2887 11.8672ZM104.966 17.9141C104.744 15.4883 102.81 13.4492 99.6342 13.4492C96.1303 13.4492 93.8334 15.9219 93.8334 19.8359C93.8334 23.8203 96.1303 26.2344 99.6577 26.2344C102.622 26.2344 104.72 24.4531 104.99 21.8281H102.552C102.259 23.2578 101.24 24.1133 99.6811 24.1133C97.7123 24.1133 96.4116 22.543 96.4116 19.8359C96.4116 17.1875 97.7006 15.5586 99.6577 15.5586C101.31 15.5586 102.294 16.6016 102.552 17.9141H104.966ZM111.335 24.207C109.976 24.207 109.085 23.5039 109.085 22.4258C109.085 21.3711 109.941 20.7031 111.452 20.5977L114.488 20.4102V21.3828C114.488 22.9883 113.105 24.207 111.335 24.207ZM110.632 26.2109C112.249 26.2109 113.808 25.3438 114.523 23.9727H114.581V26H117.007V17.5039C117.007 15.0312 115.097 13.4492 112.109 13.4492C109.062 13.4492 107.163 15.0898 107.023 17.3164H109.413C109.636 16.2148 110.55 15.5117 112.015 15.5117C113.562 15.5117 114.488 16.332 114.488 17.7031V18.6523L111.113 18.8516C108.183 19.0156 106.53 20.3398 106.53 22.4961C106.53 24.7109 108.218 26.2109 110.632 26.2109ZM120.446 10.7539V13.6719H118.653V15.6758H120.446V22.7539C120.446 25.1328 121.419 26.082 123.915 26.082C124.478 26.082 125.04 26.0352 125.321 25.9648V23.9609C125.157 23.9961 124.747 24.0195 124.489 24.0195C123.458 24.0195 122.989 23.5391 122.989 22.4727V15.6758H125.333V13.6719H122.989V10.7539H120.446ZM127.741 26H130.272V13.6719H127.741V26ZM129.007 11.8672C129.827 11.8672 130.483 11.2227 130.483 10.4258C130.483 9.61719 129.827 8.97266 129.007 8.97266C128.198 8.97266 127.542 9.61719 127.542 10.4258C127.542 11.2227 128.198 11.8672 129.007 11.8672ZM138.399 26.2344C141.926 26.2344 144.247 23.8086 144.247 19.8359C144.247 15.875 141.915 13.4492 138.399 13.4492C134.883 13.4492 132.551 15.875 132.551 19.8359C132.551 23.8086 134.872 26.2344 138.399 26.2344ZM138.399 24.1484C136.418 24.1484 135.129 22.5781 135.129 19.8359C135.129 17.1055 136.418 15.5352 138.399 15.5352C140.379 15.5352 141.668 17.1055 141.668 19.8359C141.668 22.5781 140.391 24.1484 138.399 24.1484ZM146.444 26H148.975V18.8164C148.975 16.9062 150.123 15.6406 151.905 15.6406C153.662 15.6406 154.53 16.6602 154.53 18.5117V26H157.072V18.0195C157.072 15.1953 155.514 13.4609 152.795 13.4609C150.897 13.4609 149.584 14.3281 148.916 15.7344H148.858V13.6719H146.444V26ZM159.539 17.1641C159.539 18.8867 160.664 20.0469 162.891 20.5859L165.094 21.125C166.383 21.4531 166.852 21.8867 166.852 22.6719C166.852 23.668 165.914 24.3008 164.391 24.3008C162.844 24.3008 161.93 23.6445 161.73 22.4609H159.223C159.422 24.7227 161.355 26.2344 164.273 26.2344C167.297 26.2344 169.395 24.6875 169.395 22.4375C169.395 20.6211 168.457 19.6836 165.973 19.0859L163.898 18.6055C162.621 18.2891 162.012 17.7734 162.012 17.0117C162.012 16.0391 162.926 15.3711 164.297 15.3711C165.715 15.3711 166.617 16.0625 166.734 17.1758H169.113C169.031 14.9844 167.109 13.4492 164.367 13.4492C161.484 13.4492 159.539 14.9609 159.539 17.1641ZM192.984 13.6719H190.476L188.226 23.375H188.167L185.589 13.6719H183.152L180.585 23.375H180.539L178.289 13.6719H175.757L179.144 26H181.757L184.324 16.7656H184.382L186.972 26H189.609L192.984 13.6719ZM199.857 15.4883C201.626 15.4883 202.822 16.8125 202.88 18.6992H196.716C196.845 16.8359 198.087 15.4883 199.857 15.4883ZM202.868 22.3789C202.529 23.457 201.462 24.1836 200.021 24.1836C197.993 24.1836 196.704 22.7656 196.704 20.6211V20.4688H205.411V19.6016C205.411 15.8633 203.279 13.4492 199.857 13.4492C196.376 13.4492 194.15 16.0273 194.15 19.8945C194.15 23.7852 196.341 26.2344 199.962 26.2344C202.786 26.2344 204.919 24.6289 205.271 22.3789H202.868ZM207.62 26H210.151V18.6172C210.151 16.8711 211.159 15.7812 212.788 15.7812C213.28 15.7812 213.726 15.8398 213.925 15.9219V13.5664C213.737 13.5312 213.421 13.4727 213.058 13.4727C211.605 13.4727 210.503 14.3281 210.093 15.7695H210.034V13.6719H207.62V26ZM220.352 15.4883C222.122 15.4883 223.317 16.8125 223.376 18.6992H217.212C217.341 16.8359 218.583 15.4883 220.352 15.4883ZM223.364 22.3789C223.024 23.457 221.958 24.1836 220.516 24.1836C218.489 24.1836 217.2 22.7656 217.2 20.6211V20.4688H225.907V19.6016C225.907 15.8633 223.774 13.4492 220.352 13.4492C216.872 13.4492 214.645 16.0273 214.645 19.8945C214.645 23.7852 216.837 26.2344 220.458 26.2344C223.282 26.2344 225.415 24.6289 225.766 22.3789H223.364ZM233.231 26H235.762V18.6172C235.762 16.8711 236.77 15.7812 238.399 15.7812C238.891 15.7812 239.336 15.8398 239.535 15.9219V13.5664C239.348 13.5312 239.032 13.4727 238.668 13.4727C237.215 13.4727 236.114 14.3281 235.703 15.7695H235.645V13.6719H233.231V26ZM245.963 15.4883C247.732 15.4883 248.928 16.8125 248.986 18.6992H242.822C242.951 16.8359 244.193 15.4883 245.963 15.4883ZM248.975 22.3789C248.635 23.457 247.568 24.1836 246.127 24.1836C244.1 24.1836 242.811 22.7656 242.811 20.6211V20.4688H251.518V19.6016C251.518 15.8633 249.385 13.4492 245.963 13.4492C242.482 13.4492 240.256 16.0273 240.256 19.8945C240.256 23.7852 242.447 26.2344 246.068 26.2344C248.893 26.2344 251.025 24.6289 251.377 22.3789H248.975ZM256.34 13.6719H253.808V26.5742C253.808 27.8164 253.34 28.2852 252.086 28.2852C252.039 28.2852 251.769 28.2734 251.723 28.2734V30.2656C251.793 30.2891 252.191 30.2891 252.308 30.2891C255.039 30.2891 256.34 29.0938 256.34 26.5859V13.6719ZM255.074 11.8672C255.894 11.8672 256.551 11.2227 256.551 10.4258C256.551 9.61719 255.894 8.97266 255.074 8.97266C254.265 8.97266 253.609 9.61719 253.609 10.4258C253.609 11.2227 254.265 11.8672 255.074 11.8672ZM264.326 15.4883C266.095 15.4883 267.291 16.8125 267.349 18.6992H261.185C261.314 16.8359 262.556 15.4883 264.326 15.4883ZM267.337 22.3789C266.998 23.457 265.931 24.1836 264.49 24.1836C262.462 24.1836 261.173 22.7656 261.173 20.6211V20.4688H269.88V19.6016C269.88 15.8633 267.748 13.4492 264.326 13.4492C260.845 13.4492 258.619 16.0273 258.619 19.8945C258.619 23.7852 260.81 26.2344 264.431 26.2344C267.255 26.2344 269.388 24.6289 269.74 22.3789H267.337ZM282.671 17.9141C282.449 15.4883 280.515 13.4492 277.339 13.4492C273.835 13.4492 271.538 15.9219 271.538 19.8359C271.538 23.8203 273.835 26.2344 277.363 26.2344C280.328 26.2344 282.425 24.4531 282.695 21.8281H280.257C279.964 23.2578 278.945 24.1133 277.386 24.1133C275.417 24.1133 274.117 22.543 274.117 19.8359C274.117 17.1875 275.406 15.5586 277.363 15.5586C279.015 15.5586 279.999 16.6016 280.257 17.9141H282.671ZM285.466 10.7539V13.6719H283.673V15.6758H285.466V22.7539C285.466 25.1328 286.439 26.082 288.935 26.082C289.497 26.082 290.06 26.0352 290.341 25.9648V23.9609C290.177 23.9961 289.767 24.0195 289.509 24.0195C288.478 24.0195 288.009 23.5391 288.009 22.4727V15.6758H290.353V13.6719H288.009V10.7539H285.466ZM297.53 15.4883C299.3 15.4883 300.495 16.8125 300.554 18.6992H294.39C294.518 16.8359 295.761 15.4883 297.53 15.4883ZM300.542 22.3789C300.202 23.457 299.136 24.1836 297.694 24.1836C295.667 24.1836 294.378 22.7656 294.378 20.6211V20.4688H303.085V19.6016C303.085 15.8633 300.952 13.4492 297.53 13.4492C294.05 13.4492 291.823 16.0273 291.823 19.8945C291.823 23.7852 294.015 26.2344 297.636 26.2344C300.46 26.2344 302.593 24.6289 302.944 22.3789H300.542ZM309.922 26.2109C311.715 26.2109 313.122 25.3086 313.848 23.9023H313.895V26H316.356V9.08984H313.813V15.7227H313.766C313.075 14.3633 311.669 13.4727 309.899 13.4727C306.805 13.4727 304.743 15.9453 304.743 19.8359C304.743 23.7266 306.805 26.2109 309.922 26.2109ZM310.59 15.6055C312.536 15.6055 313.837 17.2812 313.837 19.8359C313.837 22.4141 312.536 24.0664 310.59 24.0664C308.587 24.0664 307.333 22.4375 307.333 19.8359C307.333 17.2461 308.587 15.6055 310.59 15.6055Z" fill="#111827"/>
<path d="M9.59375 62V50.7266H8.1875V62H9.59375ZM12.1678 62H13.5272V54.9922H15.1834V53.875H13.5194V52.9766C13.5194 52.1719 13.8709 51.7812 14.6053 51.7812C14.8319 51.7812 15.0584 51.8047 15.2225 51.8281V50.7266C15.0272 50.6953 14.6991 50.6641 14.3944 50.6641C12.8944 50.6641 12.1678 51.4062 12.1678 52.9688V53.875H11.035V54.9922H12.1678V62ZM20.6284 51.9141V53.875H19.4175V54.9922H20.6284V59.8906C20.6284 61.4531 21.2066 62.0625 22.6987 62.0625C23.0191 62.0625 23.3941 62.0391 23.5581 62V60.8594C23.4644 60.875 23.1519 60.8984 22.9956 60.8984C22.3003 60.8984 21.9878 60.5625 21.9878 59.8203V54.9922H23.5659V53.875H21.9878V51.9141H20.6284ZM25.2494 62H26.6087V57.2656C26.6087 55.8594 27.4447 54.9375 28.7962 54.9375C30.0697 54.9375 30.7181 55.7109 30.7181 57V62H32.0775V56.75C32.0775 54.9375 30.9994 53.7344 29.2181 53.7344C27.9837 53.7344 27.0931 54.2656 26.64 55.1719H26.6087V50.7266H25.2494V62ZM37.2219 54.9141C38.5031 54.9141 39.3547 55.8828 39.3859 57.2422H34.9719C35.0578 55.8906 35.9484 54.9141 37.2219 54.9141ZM39.3547 59.6719C39.1281 60.4375 38.3703 60.9609 37.3391 60.9609C35.8781 60.9609 34.9641 59.9375 34.9641 58.3828V58.3047H40.7922V57.7891C40.7922 55.3281 39.4406 53.7344 37.2453 53.7344C35.0031 53.7344 33.5656 55.4453 33.5656 57.9688C33.5656 60.5234 34.9797 62.1406 37.3078 62.1406C39.0812 62.1406 40.4562 61.0938 40.6906 59.6719H39.3547ZM42.3272 62H43.6866V56.9375C43.6866 55.7891 44.3741 55.0312 45.4287 55.0312C45.7569 55.0312 46.0459 55.0703 46.1553 55.1094V53.7891C46.0459 53.7734 45.8428 53.7344 45.6084 53.7344C44.6553 53.7344 43.9053 54.3047 43.6397 55.2031H43.6084V53.875H42.3272V62ZM50.2919 54.9141C51.5731 54.9141 52.4247 55.8828 52.4559 57.2422H48.0419C48.1278 55.8906 49.0184 54.9141 50.2919 54.9141ZM52.4247 59.6719C52.1981 60.4375 51.4403 60.9609 50.4091 60.9609C48.9481 60.9609 48.0341 59.9375 48.0341 58.3828V58.3047H53.8622V57.7891C53.8622 55.3281 52.5106 53.7344 50.3153 53.7344C48.0731 53.7344 46.6356 55.4453 46.6356 57.9688C46.6356 60.5234 48.0497 62.1406 50.3778 62.1406C52.1512 62.1406 53.5262 61.0938 53.7606 59.6719H52.4247ZM58.9087 62H60.2681V53.875H58.9087V62ZM59.5884 52.5078C60.0572 52.5078 60.44 52.125 60.44 51.6641C60.44 51.1953 60.0572 50.8203 59.5884 50.8203C59.1275 50.8203 58.7447 51.1953 58.7447 51.6641C58.7447 52.125 59.1275 52.5078 59.5884 52.5078ZM62.1234 56.1172C62.1234 57.2266 62.8266 57.9609 64.2562 58.3281L65.6859 58.6953C66.6 58.9375 66.9359 59.25 66.9359 59.8281C66.9359 60.5625 66.2562 61.0312 65.1547 61.0312C64.0531 61.0312 63.4125 60.5781 63.2641 59.7344H61.9047C62.0453 61.1719 63.2875 62.1406 65.0687 62.1406C66.9672 62.1406 68.3031 61.1406 68.3031 59.7266C68.3031 58.5312 67.7094 57.9375 66.0687 57.5234L64.8109 57.2188C63.8891 56.9844 63.4594 56.6094 63.4594 56.0469C63.4594 55.3359 64.1156 54.8438 65.1078 54.8438C66.1078 54.8438 66.7406 55.3281 66.8344 56.1094H68.1312C68.0687 54.7344 66.8344 53.7344 65.1547 53.7344C63.3656 53.7344 62.1234 54.7266 62.1234 56.1172ZM75.9981 60.9844C75.0216 60.9844 74.3731 60.4766 74.3731 59.7031C74.3731 58.9375 74.9981 58.4531 76.0919 58.3828L78.2637 58.25V58.9141C78.2637 60.0859 77.2794 60.9844 75.9981 60.9844ZM75.6934 62.1406C76.7872 62.1406 77.8184 61.5312 78.3028 60.6016H78.3341V62H79.6231V56.3828C79.6231 54.7656 78.42 53.7344 76.5137 53.7344C74.5919 53.7344 73.3887 54.8125 73.295 56.2188H74.6075C74.7794 55.4219 75.4356 54.9297 76.4825 54.9297C77.6075 54.9297 78.2637 55.5234 78.2637 56.5156V57.1953L75.9356 57.3281C74.0606 57.4375 72.9903 58.3125 72.9903 59.7031C72.9903 61.1641 74.0762 62.1406 75.6934 62.1406ZM81.5097 62H82.8691V57.2188C82.8691 55.8438 83.705 54.9375 84.9863 54.9375C86.2363 54.9375 86.8534 55.6562 86.8534 56.9688V62H88.2128V56.7266C88.2128 54.8828 87.1816 53.7344 85.4003 53.7344C84.1425 53.7344 83.2753 54.2969 82.8222 55.1719H82.7909V53.875H81.5097V62ZM96.2281 60.9844C95.2516 60.9844 94.6031 60.4766 94.6031 59.7031C94.6031 58.9375 95.2281 58.4531 96.3219 58.3828L98.4938 58.25V58.9141C98.4938 60.0859 97.5094 60.9844 96.2281 60.9844ZM95.9234 62.1406C97.0172 62.1406 98.0484 61.5312 98.5328 60.6016H98.5641V62H99.8531V56.3828C99.8531 54.7656 98.65 53.7344 96.7438 53.7344C94.8219 53.7344 93.6188 54.8125 93.525 56.2188H94.8375C95.0094 55.4219 95.6656 54.9297 96.7125 54.9297C97.8375 54.9297 98.4938 55.5234 98.4938 56.5156V57.1953L96.1656 57.3281C94.2906 57.4375 93.2203 58.3125 93.2203 59.7031C93.2203 61.1641 94.3063 62.1406 95.9234 62.1406ZM105.685 53.7344C104.505 53.7344 103.56 54.3359 103.06 55.25H103.029V53.875H101.74V64.7109H103.099V60.6797H103.13C103.615 61.5703 104.552 62.1406 105.716 62.1406C107.763 62.1406 109.162 60.4844 109.162 57.9375C109.162 55.3906 107.755 53.7344 105.685 53.7344ZM105.419 60.9453C104.029 60.9453 103.091 59.75 103.091 57.9375C103.091 56.1328 104.029 54.9297 105.419 54.9297C106.865 54.9297 107.771 56.1016 107.771 57.9375C107.771 59.7812 106.865 60.9453 105.419 60.9453ZM114.642 53.7344C113.462 53.7344 112.517 54.3359 112.017 55.25H111.986V53.875H110.697V64.7109H112.056V60.6797H112.087C112.572 61.5703 113.509 62.1406 114.673 62.1406C116.72 62.1406 118.118 60.4844 118.118 57.9375C118.118 55.3906 116.712 53.7344 114.642 53.7344ZM114.376 60.9453C112.986 60.9453 112.048 59.75 112.048 57.9375C112.048 56.1328 112.986 54.9297 114.376 54.9297C115.822 54.9297 116.728 56.1016 116.728 57.9375C116.728 59.7812 115.822 60.9453 114.376 60.9453ZM119.724 62H121.083V50.7266H119.724V62ZM123.149 62H124.509V53.875H123.149V62ZM123.829 52.5078C124.298 52.5078 124.681 52.125 124.681 51.6641C124.681 51.1953 124.298 50.8203 123.829 50.8203C123.368 50.8203 122.985 51.1953 122.985 51.6641C122.985 52.125 123.368 52.5078 123.829 52.5078ZM133.255 56.5391C133.083 55.0781 131.872 53.7344 129.841 53.7344C127.598 53.7344 126.106 55.375 126.106 57.9375C126.106 60.5547 127.606 62.1406 129.856 62.1406C131.7 62.1406 133.059 61 133.27 59.3828H131.934C131.7 60.3594 130.973 60.9453 129.864 60.9453C128.458 60.9453 127.489 59.8281 127.489 57.9375C127.489 56.0938 128.442 54.9297 129.848 54.9297C131.044 54.9297 131.731 55.6562 131.927 56.5391H133.255ZM137.36 60.9844C136.383 60.9844 135.735 60.4766 135.735 59.7031C135.735 58.9375 136.36 58.4531 137.454 58.3828L139.626 58.25V58.9141C139.626 60.0859 138.641 60.9844 137.36 60.9844ZM137.055 62.1406C138.149 62.1406 139.18 61.5312 139.665 60.6016H139.696V62H140.985V56.3828C140.985 54.7656 139.782 53.7344 137.876 53.7344C135.954 53.7344 134.751 54.8125 134.657 56.2188H135.969C136.141 55.4219 136.798 54.9297 137.844 54.9297C138.969 54.9297 139.626 55.5234 139.626 56.5156V57.1953L137.298 57.3281C135.423 57.4375 134.352 58.3125 134.352 59.7031C134.352 61.1641 135.438 62.1406 137.055 62.1406ZM143.309 51.9141V53.875H142.098V54.9922H143.309V59.8906C143.309 61.4531 143.887 62.0625 145.379 62.0625C145.7 62.0625 146.075 62.0391 146.239 62V60.8594C146.145 60.875 145.833 60.8984 145.676 60.8984C144.981 60.8984 144.668 60.5625 144.668 59.8203V54.9922H146.247V53.875H144.668V51.9141H143.309ZM147.93 62H149.289V53.875H147.93V62ZM148.61 52.5078C149.078 52.5078 149.461 52.125 149.461 51.6641C149.461 51.1953 149.078 50.8203 148.61 50.8203C148.149 50.8203 147.766 51.1953 147.766 51.6641C147.766 52.125 148.149 52.5078 148.61 52.5078ZM154.652 62.1406C156.895 62.1406 158.41 60.5234 158.41 57.9375C158.41 55.3438 156.895 53.7344 154.652 53.7344C152.402 53.7344 150.887 55.3438 150.887 57.9375C150.887 60.5234 152.402 62.1406 154.652 62.1406ZM154.652 60.9453C153.215 60.9453 152.27 59.8516 152.27 57.9375C152.27 56.0234 153.215 54.9297 154.652 54.9297C156.09 54.9297 157.027 56.0234 157.027 57.9375C157.027 59.8516 156.09 60.9453 154.652 60.9453ZM159.945 62H161.305V57.2188C161.305 55.8438 162.141 54.9375 163.422 54.9375C164.672 54.9375 165.289 55.6562 165.289 56.9688V62H166.648V56.7266C166.648 54.8828 165.617 53.7344 163.836 53.7344C162.578 53.7344 161.711 54.2969 161.258 55.1719H161.227V53.875H159.945V62ZM172.422 51.9141V53.875H171.211V54.9922H172.422V59.8906C172.422 61.4531 173 62.0625 174.492 62.0625C174.812 62.0625 175.187 62.0391 175.351 62V60.8594C175.258 60.875 174.945 60.8984 174.789 60.8984C174.093 60.8984 173.781 60.5625 173.781 59.8203V54.9922H175.359V53.875H173.781V51.9141H172.422ZM177.042 62H178.402V57.2656C178.402 55.8594 179.238 54.9375 180.589 54.9375C181.863 54.9375 182.511 55.7109 182.511 57V62H183.871V56.75C183.871 54.9375 182.792 53.7344 181.011 53.7344C179.777 53.7344 178.886 54.2656 178.433 55.1719H178.402V50.7266H177.042V62ZM188.437 60.9844C187.46 60.9844 186.812 60.4766 186.812 59.7031C186.812 58.9375 187.437 58.4531 188.531 58.3828L190.702 58.25V58.9141C190.702 60.0859 189.718 60.9844 188.437 60.9844ZM188.132 62.1406C189.226 62.1406 190.257 61.5312 190.742 60.6016H190.773V62H192.062V56.3828C192.062 54.7656 190.859 53.7344 188.952 53.7344C187.031 53.7344 185.827 54.8125 185.734 56.2188H187.046C187.218 55.4219 187.874 54.9297 188.921 54.9297C190.046 54.9297 190.702 55.5234 190.702 56.5156V57.1953L188.374 57.3281C186.499 57.4375 185.429 58.3125 185.429 59.7031C185.429 61.1641 186.515 62.1406 188.132 62.1406ZM194.386 51.9141V53.875H193.175V54.9922H194.386V59.8906C194.386 61.4531 194.964 62.0625 196.456 62.0625C196.777 62.0625 197.152 62.0391 197.316 62V60.8594C197.222 60.875 196.909 60.8984 196.753 60.8984C196.058 60.8984 195.745 60.5625 195.745 59.8203V54.9922H197.323V53.875H195.745V51.9141H194.386ZM202.448 62H203.807V53.875H202.448V62ZM203.128 52.5078C203.597 52.5078 203.979 52.125 203.979 51.6641C203.979 51.1953 203.597 50.8203 203.128 50.8203C202.667 50.8203 202.284 51.1953 202.284 51.6641C202.284 52.125 202.667 52.5078 203.128 52.5078ZM205.663 56.1172C205.663 57.2266 206.366 57.9609 207.796 58.3281L209.225 58.6953C210.139 58.9375 210.475 59.25 210.475 59.8281C210.475 60.5625 209.796 61.0312 208.694 61.0312C207.592 61.0312 206.952 60.5781 206.803 59.7344H205.444C205.585 61.1719 206.827 62.1406 208.608 62.1406C210.507 62.1406 211.842 61.1406 211.842 59.7266C211.842 58.5312 211.249 57.9375 209.608 57.5234L208.35 57.2188C207.428 56.9844 206.999 56.6094 206.999 56.0469C206.999 55.3359 207.655 54.8438 208.647 54.8438C209.647 54.8438 210.28 55.3281 210.374 56.1094H211.671C211.608 54.7344 210.374 53.7344 208.694 53.7344C206.905 53.7344 205.663 54.7266 205.663 56.1172ZM216.858 62H218.217V56.9375C218.217 55.7891 218.905 55.0312 219.959 55.0312C220.288 55.0312 220.577 55.0703 220.686 55.1094V53.7891C220.577 53.7734 220.373 53.7344 220.139 53.7344C219.186 53.7344 218.436 54.3047 218.17 55.2031H218.139V53.875H216.858V62ZM224.822 54.9141C226.104 54.9141 226.955 55.8828 226.987 57.2422H222.572C222.658 55.8906 223.549 54.9141 224.822 54.9141ZM226.955 59.6719C226.729 60.4375 225.971 60.9609 224.94 60.9609C223.479 60.9609 222.565 59.9375 222.565 58.3828V58.3047H228.393V57.7891C228.393 55.3281 227.041 53.7344 224.846 53.7344C222.604 53.7344 221.166 55.4453 221.166 57.9688C221.166 60.5234 222.58 62.1406 224.908 62.1406C226.682 62.1406 228.057 61.0938 228.291 59.6719H226.955ZM231.357 53.875H229.998V62.4141C229.998 63.3203 229.678 63.6562 228.795 63.6562C228.787 63.6562 228.6 63.6562 228.584 63.6562V64.7891C228.6 64.7969 228.818 64.7969 228.842 64.7969C230.576 64.7969 231.357 64.0469 231.357 62.3984V53.875ZM230.678 52.5078C231.147 52.5078 231.529 52.125 231.529 51.6641C231.529 51.1953 231.147 50.8203 230.678 50.8203C230.217 50.8203 229.834 51.1953 229.834 51.6641C229.834 52.125 230.217 52.5078 230.678 52.5078ZM236.611 54.9141C237.893 54.9141 238.744 55.8828 238.775 57.2422H234.361C234.447 55.8906 235.338 54.9141 236.611 54.9141ZM238.744 59.6719C238.518 60.4375 237.76 60.9609 236.728 60.9609C235.268 60.9609 234.353 59.9375 234.353 58.3828V58.3047H240.182V57.7891C240.182 55.3281 238.83 53.7344 236.635 53.7344C234.393 53.7344 232.955 55.4453 232.955 57.9688C232.955 60.5234 234.369 62.1406 236.697 62.1406C238.471 62.1406 239.846 61.0938 240.08 59.6719H238.744ZM248.467 56.5391C248.295 55.0781 247.084 53.7344 245.053 53.7344C242.81 53.7344 241.318 55.375 241.318 57.9375C241.318 60.5547 242.818 62.1406 245.068 62.1406C246.912 62.1406 248.271 61 248.482 59.3828H247.146C246.912 60.3594 246.185 60.9453 245.076 60.9453C243.67 60.9453 242.701 59.8281 242.701 57.9375C242.701 56.0938 243.654 54.9297 245.06 54.9297C246.256 54.9297 246.943 55.6562 247.138 56.5391H248.467ZM250.33 51.9141V53.875H249.119V54.9922H250.33V59.8906C250.33 61.4531 250.908 62.0625 252.4 62.0625C252.72 62.0625 253.095 62.0391 253.259 62V60.8594C253.166 60.875 252.853 60.8984 252.697 60.8984C252.002 60.8984 251.689 60.5625 251.689 59.8203V54.9922H253.267V53.875H251.689V51.9141H250.33ZM257.904 54.9141C259.185 54.9141 260.037 55.8828 260.068 57.2422H255.654C255.74 55.8906 256.63 54.9141 257.904 54.9141ZM260.037 59.6719C259.81 60.4375 259.052 60.9609 258.021 60.9609C256.56 60.9609 255.646 59.9375 255.646 58.3828V58.3047H261.474V57.7891C261.474 55.3281 260.122 53.7344 257.927 53.7344C255.685 53.7344 254.247 55.4453 254.247 57.9688C254.247 60.5234 255.662 62.1406 257.99 62.1406C259.763 62.1406 261.138 61.0938 261.372 59.6719H260.037ZM266.087 62.1406C267.259 62.1406 268.189 61.5625 268.712 60.625H268.736V62H270.033V50.7266H268.673V55.1953H268.642C268.158 54.3047 267.22 53.7344 266.056 53.7344C264.009 53.7344 262.611 55.3906 262.611 57.9375C262.611 60.4844 264.017 62.1406 266.087 62.1406ZM266.345 54.9297C267.743 54.9297 268.681 56.125 268.681 57.9375C268.681 59.7578 267.743 60.9453 266.345 60.9453C264.908 60.9453 264.001 59.7812 264.001 57.9375C264.001 56.1016 264.908 54.9297 266.345 54.9297ZM279.509 62.1406C281.587 62.1406 282.962 60.4922 282.962 57.9375C282.962 55.3906 281.579 53.7344 279.532 53.7344C278.384 53.7344 277.438 54.3047 276.931 55.2344H276.899V50.7266H275.54V62H276.837V60.625H276.868C277.392 61.5625 278.321 62.1406 279.509 62.1406ZM279.243 54.9297C280.681 54.9297 281.571 56.0938 281.571 57.9375C281.571 59.7969 280.681 60.9453 279.243 60.9453C277.868 60.9453 276.892 59.75 276.892 57.9375C276.892 56.1328 277.868 54.9297 279.243 54.9297ZM284.942 65.0391C286.411 65.0391 287.083 64.4688 287.778 62.5703L290.973 53.875H289.544L287.294 60.6406H287.27L285.02 53.875H283.567L286.567 62.0078L286.38 62.5781C286.067 63.5234 285.645 63.8906 284.888 63.8906C284.716 63.8906 284.505 63.8828 284.356 63.8516V64.9922C284.505 65.0234 284.778 65.0391 284.942 65.0391ZM296.09 51.9141V53.875H294.879V54.9922H296.09V59.8906C296.09 61.4531 296.668 62.0625 298.161 62.0625C298.481 62.0625 298.856 62.0391 299.02 62V60.8594C298.926 60.875 298.614 60.8984 298.457 60.8984C297.762 60.8984 297.45 60.5625 297.45 59.8203V54.9922H299.028V53.875H297.45V51.9141H296.09ZM300.711 62H302.071V57.2656C302.071 55.8594 302.907 54.9375 304.258 54.9375C305.532 54.9375 306.18 55.7109 306.18 57V62H307.539V56.75C307.539 54.9375 306.461 53.7344 304.68 53.7344C303.446 53.7344 302.555 54.2656 302.102 55.1719H302.071V50.7266H300.711V62ZM312.684 54.9141C313.965 54.9141 314.817 55.8828 314.848 57.2422H310.434C310.52 55.8906 311.41 54.9141 312.684 54.9141ZM314.817 59.6719C314.59 60.4375 313.832 60.9609 312.801 60.9609C311.34 60.9609 310.426 59.9375 310.426 58.3828V58.3047H316.254V57.7891C316.254 55.3281 314.902 53.7344 312.707 53.7344C310.465 53.7344 309.027 55.4453 309.027 57.9688C309.027 60.5234 310.442 62.1406 312.77 62.1406C314.543 62.1406 315.918 61.0938 316.152 59.6719H314.817ZM76.92 77.5391C76.7481 76.0781 75.5372 74.7344 73.5059 74.7344C71.2637 74.7344 69.7716 76.375 69.7716 78.9375C69.7716 81.5547 71.2716 83.1406 73.5216 83.1406C75.3653 83.1406 76.7247 82 76.9356 80.3828H75.5997C75.3653 81.3594 74.6387 81.9453 73.5294 81.9453C72.1231 81.9453 71.1544 80.8281 71.1544 78.9375C71.1544 77.0938 72.1075 75.9297 73.5137 75.9297C74.7091 75.9297 75.3966 76.6562 75.5919 77.5391H76.92ZM81.7128 83.1406C83.955 83.1406 85.4706 81.5234 85.4706 78.9375C85.4706 76.3438 83.955 74.7344 81.7128 74.7344C79.4628 74.7344 77.9472 76.3438 77.9472 78.9375C77.9472 81.5234 79.4628 83.1406 81.7128 83.1406ZM81.7128 81.9453C80.2753 81.9453 79.33 80.8516 79.33 78.9375C79.33 77.0234 80.2753 75.9297 81.7128 75.9297C83.1503 75.9297 84.0878 77.0234 84.0878 78.9375C84.0878 80.8516 83.1503 81.9453 81.7128 81.9453ZM87.0056 83H88.365V77.9062C88.365 76.7812 89.1462 75.9375 90.2244 75.9375C91.2322 75.9375 91.8884 76.5781 91.8884 77.5547V83H93.2478V77.8359C93.2478 76.7344 94.0056 75.9375 95.0837 75.9375C96.1541 75.9375 96.7712 76.5938 96.7712 77.7031V83H98.1306V77.3906C98.1306 75.7812 97.0916 74.7344 95.4822 74.7344C94.3416 74.7344 93.3884 75.3125 92.9353 76.2812H92.9041C92.5525 75.2969 91.7322 74.7344 90.6228 74.7344C89.5291 74.7344 88.7009 75.3125 88.3181 76.1719H88.2869V74.875H87.0056V83ZM103.97 74.7344C102.791 74.7344 101.845 75.3359 101.345 76.25H101.314V74.875H100.025V85.7109H101.384V81.6797H101.416C101.9 82.5703 102.837 83.1406 104.002 83.1406C106.048 83.1406 107.447 81.4844 107.447 78.9375C107.447 76.3906 106.041 74.7344 103.97 74.7344ZM103.705 81.9453C102.314 81.9453 101.377 80.75 101.377 78.9375C101.377 77.1328 102.314 75.9297 103.705 75.9297C105.15 75.9297 106.056 77.1016 106.056 78.9375C106.056 80.7812 105.15 81.9453 103.705 81.9453ZM111.662 81.9844C110.685 81.9844 110.037 81.4766 110.037 80.7031C110.037 79.9375 110.662 79.4531 111.755 79.3828L113.927 79.25V79.9141C113.927 81.0859 112.943 81.9844 111.662 81.9844ZM111.357 83.1406C112.451 83.1406 113.482 82.5312 113.966 81.6016H113.997V83H115.287V77.3828C115.287 75.7656 114.083 74.7344 112.177 74.7344C110.255 74.7344 109.052 75.8125 108.958 77.2188H110.271C110.443 76.4219 111.099 75.9297 112.146 75.9297C113.271 75.9297 113.927 76.5234 113.927 77.5156V78.1953L111.599 78.3281C109.724 78.4375 108.654 79.3125 108.654 80.7031C108.654 82.1641 109.74 83.1406 111.357 83.1406ZM117.173 83H118.533V78.2188C118.533 76.8438 119.368 75.9375 120.65 75.9375C121.9 75.9375 122.517 76.6562 122.517 77.9688V83H123.876V77.7266C123.876 75.8828 122.845 74.7344 121.064 74.7344C119.806 74.7344 118.939 75.2969 118.486 76.1719H118.454V74.875H117.173V83ZM126.442 86.0391C127.911 86.0391 128.583 85.4688 129.278 83.5703L132.474 74.875H131.044L128.794 81.6406H128.771L126.521 74.875H125.067L128.067 83.0078L127.88 83.5781C127.567 84.5234 127.146 84.8906 126.388 84.8906C126.216 84.8906 126.005 84.8828 125.857 84.8516V85.9922C126.005 86.0234 126.278 86.0391 126.442 86.0391ZM137.223 83H138.583V74.875H137.223V83ZM137.903 73.5078C138.372 73.5078 138.755 73.125 138.755 72.6641C138.755 72.1953 138.372 71.8203 137.903 71.8203C137.442 71.8203 137.059 72.1953 137.059 72.6641C137.059 73.125 137.442 73.5078 137.903 73.5078ZM141.016 72.9141V74.875H139.805V75.9922H141.016V80.8906C141.016 82.4531 141.594 83.0625 143.087 83.0625C143.407 83.0625 143.782 83.0391 143.946 83V81.8594C143.852 81.875 143.54 81.8984 143.383 81.8984C142.688 81.8984 142.376 81.5625 142.376 80.8203V75.9922H143.954V74.875H142.376V72.9141H141.016ZM159.344 74.875H158L156.375 81.4844H156.344L154.5 74.875H153.188L151.352 81.4844H151.321L149.696 74.875H148.344L150.617 83H152L153.828 76.7109H153.86L155.696 83H157.078L159.344 74.875ZM160.692 83H162.051V74.875H160.692V83ZM161.371 73.5078C161.84 73.5078 162.223 73.125 162.223 72.6641C162.223 72.1953 161.84 71.8203 161.371 71.8203C160.91 71.8203 160.527 72.1953 160.527 72.6641C160.527 73.125 160.91 73.5078 161.371 73.5078ZM164.117 83H165.477V71.7266H164.117V83ZM167.543 83H168.902V71.7266H167.543V83ZM177.019 81.9844C176.042 81.9844 175.394 81.4766 175.394 80.7031C175.394 79.9375 176.019 79.4531 177.113 79.3828L179.285 79.25V79.9141C179.285 81.0859 178.3 81.9844 177.019 81.9844ZM176.714 83.1406C177.808 83.1406 178.839 82.5312 179.324 81.6016H179.355V83H180.644V77.3828C180.644 75.7656 179.441 74.7344 177.535 74.7344C175.613 74.7344 174.41 75.8125 174.316 77.2188H175.628C175.8 76.4219 176.457 75.9297 177.503 75.9297C178.628 75.9297 179.285 76.5234 179.285 77.5156V78.1953L176.957 78.3281C175.082 78.4375 174.011 79.3125 174.011 80.7031C174.011 82.1641 175.097 83.1406 176.714 83.1406ZM186.476 74.7344C185.296 74.7344 184.351 75.3359 183.851 76.25H183.82V74.875H182.531V85.7109H183.89V81.6797H183.921C184.406 82.5703 185.343 83.1406 186.507 83.1406C188.554 83.1406 189.952 81.4844 189.952 78.9375C189.952 76.3906 188.546 74.7344 186.476 74.7344ZM186.21 81.9453C184.82 81.9453 183.882 80.75 183.882 78.9375C183.882 77.1328 184.82 75.9297 186.21 75.9297C187.656 75.9297 188.562 77.1016 188.562 78.9375C188.562 80.7812 187.656 81.9453 186.21 81.9453ZM195.433 74.7344C194.253 74.7344 193.308 75.3359 192.808 76.25H192.777V74.875H191.487V85.7109H192.847V81.6797H192.878C193.362 82.5703 194.3 83.1406 195.464 83.1406C197.511 83.1406 198.909 81.4844 198.909 78.9375C198.909 76.3906 197.503 74.7344 195.433 74.7344ZM195.167 81.9453C193.777 81.9453 192.839 80.75 192.839 78.9375C192.839 77.1328 193.777 75.9297 195.167 75.9297C196.612 75.9297 197.519 77.1016 197.519 78.9375C197.519 80.7812 196.612 81.9453 195.167 81.9453ZM203.702 75.9141C204.983 75.9141 205.835 76.8828 205.866 78.2422H201.452C201.538 76.8906 202.429 75.9141 203.702 75.9141ZM205.835 80.6719C205.608 81.4375 204.851 81.9609 203.819 81.9609C202.358 81.9609 201.444 80.9375 201.444 79.3828V79.3047H207.272V78.7891C207.272 76.3281 205.921 74.7344 203.726 74.7344C201.483 74.7344 200.046 76.4453 200.046 78.9688C200.046 81.5234 201.46 83.1406 203.788 83.1406C205.562 83.1406 206.937 82.0938 207.171 80.6719H205.835ZM211.487 81.9844C210.511 81.9844 209.862 81.4766 209.862 80.7031C209.862 79.9375 210.487 79.4531 211.581 79.3828L213.753 79.25V79.9141C213.753 81.0859 212.768 81.9844 211.487 81.9844ZM211.182 83.1406C212.276 83.1406 213.307 82.5312 213.792 81.6016H213.823V83H215.112V77.3828C215.112 75.7656 213.909 74.7344 212.003 74.7344C210.081 74.7344 208.878 75.8125 208.784 77.2188H210.097C210.268 76.4219 210.925 75.9297 211.972 75.9297C213.097 75.9297 213.753 76.5234 213.753 77.5156V78.1953L211.425 78.3281C209.55 78.4375 208.479 79.3125 208.479 80.7031C208.479 82.1641 209.565 83.1406 211.182 83.1406ZM216.999 83H218.358V77.9375C218.358 76.7891 219.046 76.0312 220.1 76.0312C220.428 76.0312 220.717 76.0703 220.827 76.1094V74.7891C220.717 74.7734 220.514 74.7344 220.28 74.7344C219.327 74.7344 218.577 75.3047 218.311 76.2031H218.28V74.875H216.999V83ZM225.608 83H226.967V78.2656C226.967 76.8594 227.803 75.9375 229.155 75.9375C230.428 75.9375 231.077 76.7109 231.077 78V83H232.436V77.75C232.436 75.9375 231.358 74.7344 229.577 74.7344C228.342 74.7344 227.452 75.2656 226.998 76.1719H226.967V71.7266H225.608V83ZM237.58 75.9141C238.862 75.9141 239.713 76.8828 239.744 78.2422H235.33C235.416 76.8906 236.307 75.9141 237.58 75.9141ZM239.713 80.6719C239.487 81.4375 238.729 81.9609 237.697 81.9609C236.237 81.9609 235.322 80.9375 235.322 79.3828V79.3047H241.151V78.7891C241.151 76.3281 239.799 74.7344 237.604 74.7344C235.362 74.7344 233.924 76.4453 233.924 78.9688C233.924 81.5234 235.338 83.1406 237.666 83.1406C239.44 83.1406 240.815 82.0938 241.049 80.6719H239.713ZM242.686 83H244.045V77.9375C244.045 76.7891 244.732 76.0312 245.787 76.0312C246.115 76.0312 246.404 76.0703 246.514 76.1094V74.7891C246.404 74.7734 246.201 74.7344 245.967 74.7344C245.014 74.7344 244.264 75.3047 243.998 76.2031H243.967V74.875H242.686V83ZM250.65 75.9141C251.932 75.9141 252.783 76.8828 252.814 78.2422H248.4C248.486 76.8906 249.377 75.9141 250.65 75.9141ZM252.783 80.6719C252.557 81.4375 251.799 81.9609 250.768 81.9609C249.307 81.9609 248.393 80.9375 248.393 79.3828V79.3047H254.221V78.7891C254.221 76.3281 252.869 74.7344 250.674 74.7344C248.432 74.7344 246.994 76.4453 246.994 78.9688C246.994 81.5234 248.408 83.1406 250.736 83.1406C252.51 83.1406 253.885 82.0938 254.119 80.6719H252.783Z" fill="#6B7280"/>
</svg>
