<svg width="324" height="63" viewBox="0 0 324 63" fill="none" xmlns="http://www.w3.org/2000/svg">
<path d="M20.0391 26V13.543H20.1445L28.9102 26H31.2773V9.08984H28.7227V21.5586H28.6289L19.8633 9.08984H17.4844V26H20.0391ZM39.6384 26.2344C43.1658 26.2344 45.4861 23.8086 45.4861 19.8359C45.4861 15.875 43.1541 13.4492 39.6384 13.4492C36.1228 13.4492 33.7908 15.875 33.7908 19.8359C33.7908 23.8086 36.1111 26.2344 39.6384 26.2344ZM39.6384 24.1484C37.658 24.1484 36.3689 22.5781 36.3689 19.8359C36.3689 17.1055 37.658 15.5352 39.6384 15.5352C41.6189 15.5352 42.908 17.1055 42.908 19.8359C42.908 22.5781 41.6306 24.1484 39.6384 24.1484ZM48.4214 10.7539V13.6719H46.6284V15.6758H48.4214V22.7539C48.4214 25.1328 49.3941 26.082 51.8902 26.082C52.4527 26.082 53.0152 26.0352 53.2964 25.9648V23.9609C53.1323 23.9961 52.7222 24.0195 52.4644 24.0195C51.4331 24.0195 50.9644 23.5391 50.9644 22.4727V15.6758H53.3081V13.6719H50.9644V10.7539H48.4214ZM55.7278 26H58.2591V18.875C58.2591 16.9297 59.4075 15.6406 61.2825 15.6406C63.0638 15.6406 63.9778 16.7305 63.9778 18.5469V26H66.5208V18.0547C66.5208 15.2656 64.9036 13.4609 62.1966 13.4609C60.3216 13.4609 58.9739 14.293 58.2942 15.7344H58.2356V9.08984H55.7278V26ZM69.292 26H71.8233V13.6719H69.292V26ZM70.5577 11.8672C71.378 11.8672 72.0342 11.2227 72.0342 10.4258C72.0342 9.61719 71.378 8.97266 70.5577 8.97266C69.7491 8.97266 69.0928 9.61719 69.0928 10.4258C69.0928 11.2227 69.7491 11.8672 70.5577 11.8672ZM74.6531 26H77.1844V18.8164C77.1844 16.9062 78.3328 15.6406 80.1141 15.6406C81.8719 15.6406 82.7391 16.6602 82.7391 18.5117V26H85.282V18.0195C85.282 15.1953 83.7234 13.4609 81.0047 13.4609C79.1062 13.4609 77.7937 14.3281 77.1258 15.7344H77.0672V13.6719H74.6531V26ZM93.2213 23.9492C91.2759 23.9492 90.0103 22.3789 90.0103 19.8008C90.0103 17.2344 91.2759 15.6055 93.2213 15.6055C95.2017 15.6055 96.5025 17.2695 96.5025 19.8008C96.5025 22.3438 95.2017 23.9492 93.2213 23.9492ZM93.2447 30.6406C96.7603 30.6406 99.0338 28.7188 99.0338 25.7773V13.6719H96.5728V15.7812H96.5259C95.7759 14.3516 94.3463 13.4727 92.6002 13.4727C89.4361 13.4727 87.4205 15.9102 87.4205 19.7891C87.4205 23.6328 89.4478 26.0469 92.5416 26.0469C94.2994 26.0469 95.7525 25.168 96.4439 23.832H96.4908V25.8594C96.4908 27.5469 95.3189 28.6719 93.3384 28.6719C91.897 28.6719 90.772 27.9922 90.4088 26.9609H87.8658C88.1822 29.0938 90.3384 30.6406 93.2447 30.6406ZM106.99 26H109.522V18.875C109.522 16.9297 110.67 15.6406 112.545 15.6406C114.326 15.6406 115.24 16.7305 115.24 18.5469V26H117.783V18.0547C117.783 15.2656 116.166 13.4609 113.459 13.4609C111.584 13.4609 110.236 14.293 109.557 15.7344H109.498V9.08984H106.99V26ZM124.785 24.207C123.426 24.207 122.535 23.5039 122.535 22.4258C122.535 21.3711 123.39 20.7031 124.902 20.5977L127.937 20.4102V21.3828C127.937 22.9883 126.555 24.207 124.785 24.207ZM124.082 26.2109C125.699 26.2109 127.258 25.3438 127.973 23.9727H128.031V26H130.457V17.5039C130.457 15.0312 128.547 13.4492 125.558 13.4492C122.512 13.4492 120.613 15.0898 120.473 17.3164H122.863C123.086 16.2148 124 15.5117 125.465 15.5117C127.012 15.5117 127.937 16.332 127.937 17.7031V18.6523L124.562 18.8516C121.633 19.0156 119.98 20.3398 119.98 22.4961C119.98 24.7109 121.668 26.2109 124.082 26.2109ZM132.935 17.1641C132.935 18.8867 134.06 20.0469 136.287 20.5859L138.49 21.125C139.779 21.4531 140.248 21.8867 140.248 22.6719C140.248 23.668 139.31 24.3008 137.787 24.3008C136.24 24.3008 135.326 23.6445 135.127 22.4609H132.619C132.818 24.7227 134.752 26.2344 137.67 26.2344C140.693 26.2344 142.791 24.6875 142.791 22.4375C142.791 20.6211 141.853 19.6836 139.369 19.0859L137.295 18.6055C136.017 18.2891 135.408 17.7734 135.408 17.0117C135.408 16.0391 136.322 15.3711 137.693 15.3711C139.111 15.3711 140.013 16.0625 140.13 17.1758H142.509C142.427 14.9844 140.505 13.4492 137.763 13.4492C134.88 13.4492 132.935 14.9609 132.935 17.1641ZM156.677 26.2109C159.806 26.2109 161.821 23.75 161.821 19.8359C161.821 15.9336 159.794 13.4727 156.689 13.4727C154.943 13.4727 153.536 14.3398 152.798 15.7695H152.739V9.08984H150.208V26H152.669V23.9023H152.716C153.478 25.332 154.872 26.2109 156.677 26.2109ZM155.997 15.6055C157.989 15.6055 159.22 17.2461 159.22 19.8359C159.22 22.4492 157.989 24.0664 155.997 24.0664C154.075 24.0664 152.728 22.4023 152.728 19.8359C152.728 17.293 154.075 15.6055 155.997 15.6055ZM169.198 15.4883C170.968 15.4883 172.163 16.8125 172.222 18.6992H166.057C166.186 16.8359 167.429 15.4883 169.198 15.4883ZM172.21 22.3789C171.87 23.457 170.804 24.1836 169.362 24.1836C167.335 24.1836 166.046 22.7656 166.046 20.6211V20.4688H174.753V19.6016C174.753 15.8633 172.62 13.4492 169.198 13.4492C165.718 13.4492 163.491 16.0273 163.491 19.8945C163.491 23.7852 165.682 26.2344 169.304 26.2344C172.128 26.2344 174.261 24.6289 174.612 22.3789H172.21ZM182.118 15.4883C183.887 15.4883 185.083 16.8125 185.141 18.6992H178.977C179.106 16.8359 180.348 15.4883 182.118 15.4883ZM185.13 22.3789C184.79 23.457 183.723 24.1836 182.282 24.1836C180.255 24.1836 178.965 22.7656 178.965 20.6211V20.4688H187.673V19.6016C187.673 15.8633 185.54 13.4492 182.118 13.4492C178.637 13.4492 176.411 16.0273 176.411 19.8945C176.411 23.7852 178.602 26.2344 182.223 26.2344C185.048 26.2344 187.18 24.6289 187.532 22.3789H185.13ZM189.881 26H192.413V18.8164C192.413 16.9062 193.561 15.6406 195.342 15.6406C197.1 15.6406 197.967 16.6602 197.967 18.5117V26H200.51V18.0195C200.51 15.1953 198.952 13.4609 196.233 13.4609C194.334 13.4609 193.022 14.3281 192.354 15.7344H192.295V13.6719H189.881V26ZM208.092 17.1641C208.092 18.8867 209.217 20.0469 211.443 20.5859L213.646 21.125C214.935 21.4531 215.404 21.8867 215.404 22.6719C215.404 23.668 214.467 24.3008 212.943 24.3008C211.396 24.3008 210.482 23.6445 210.283 22.4609H207.775C207.975 24.7227 209.908 26.2344 212.826 26.2344C215.85 26.2344 217.947 24.6875 217.947 22.4375C217.947 20.6211 217.01 19.6836 214.525 19.0859L212.451 18.6055C211.174 18.2891 210.564 17.7734 210.564 17.0117C210.564 16.0391 211.478 15.3711 212.85 15.3711C214.268 15.3711 215.17 16.0625 215.287 17.1758H217.666C217.584 14.9844 215.662 13.4492 212.92 13.4492C210.037 13.4492 208.092 14.9609 208.092 17.1641ZM224.468 24.207C223.109 24.207 222.218 23.5039 222.218 22.4258C222.218 21.3711 223.074 20.7031 224.586 20.5977L227.621 20.4102V21.3828C227.621 22.9883 226.238 24.207 224.468 24.207ZM223.765 26.2109C225.383 26.2109 226.941 25.3438 227.656 23.9727H227.715V26H230.14V17.5039C230.14 15.0312 228.23 13.4492 225.242 13.4492C222.195 13.4492 220.297 15.0898 220.156 17.3164H222.547C222.769 16.2148 223.683 15.5117 225.148 15.5117C226.695 15.5117 227.621 16.332 227.621 17.7031V18.6523L224.246 18.8516C221.316 19.0156 219.664 20.3398 219.664 22.4961C219.664 24.7109 221.351 26.2109 223.765 26.2109ZM243.365 13.6719H240.716L237.622 23.5273H237.576L234.482 13.6719H231.787L236.228 26H238.947L243.365 13.6719ZM249.863 15.4883C251.632 15.4883 252.827 16.8125 252.886 18.6992H246.722C246.851 16.8359 248.093 15.4883 249.863 15.4883ZM252.874 22.3789C252.534 23.457 251.468 24.1836 250.027 24.1836C247.999 24.1836 246.71 22.7656 246.71 20.6211V20.4688H255.417V19.6016C255.417 15.8633 253.284 13.4492 249.863 13.4492C246.382 13.4492 244.155 16.0273 244.155 19.8945C244.155 23.7852 246.347 26.2344 249.968 26.2344C252.792 26.2344 254.925 24.6289 255.277 22.3789H252.874ZM262.255 26.2109C264.048 26.2109 265.454 25.3086 266.181 23.9023H266.227V26H268.688V9.08984H266.145V15.7227H266.099C265.407 14.3633 264.001 13.4727 262.231 13.4727C259.138 13.4727 257.075 15.9453 257.075 19.8359C257.075 23.7266 259.138 26.2109 262.255 26.2109ZM262.923 15.6055C264.868 15.6055 266.169 17.2812 266.169 19.8359C266.169 22.4141 264.868 24.0664 262.923 24.0664C260.919 24.0664 259.665 22.4375 259.665 19.8359C259.665 17.2461 260.919 15.6055 262.923 15.6055ZM277.864 30.5938C280.43 30.5938 281.637 29.6328 282.692 26.6445L287.321 13.6719H284.649L281.52 23.7031H281.485L278.356 13.6719H275.614L280.067 26.0117C280.067 26.0234 279.844 26.75 279.844 26.7734C279.457 28.0391 278.836 28.5312 277.653 28.5312C277.442 28.5312 277.02 28.5312 276.832 28.4844V30.5352C277.02 30.5703 277.665 30.5938 277.864 30.5938ZM293.854 15.4883C295.623 15.4883 296.819 16.8125 296.877 18.6992H290.713C290.842 16.8359 292.084 15.4883 293.854 15.4883ZM296.865 22.3789C296.526 23.457 295.459 24.1836 294.018 24.1836C291.99 24.1836 290.701 22.7656 290.701 20.6211V20.4688H299.408V19.6016C299.408 15.8633 297.276 13.4492 293.854 13.4492C290.373 13.4492 288.147 16.0273 288.147 19.8945C288.147 23.7852 290.338 26.2344 293.959 26.2344C296.783 26.2344 298.916 24.6289 299.268 22.3789H296.865ZM302.355 10.7539V13.6719H300.562V15.6758H302.355V22.7539C302.355 25.1328 303.328 26.082 305.824 26.082C306.387 26.082 306.949 26.0352 307.23 25.9648V23.9609C307.066 23.9961 306.656 24.0195 306.398 24.0195C305.367 24.0195 304.898 23.5391 304.898 22.4727V15.6758H307.242V13.6719H304.898V10.7539H302.355Z" fill="#111827"/>
<path d="M4.66188 46.7266V58H6.06813V53.9766H8.66969C10.7869 53.9766 12.2947 52.4844 12.2947 50.3438C12.2947 48.2109 10.8025 46.7266 8.68532 46.7266H4.66188ZM6.06813 47.9766H8.31813C9.93532 47.9766 10.8494 48.8516 10.8494 50.3438C10.8494 51.8438 9.92751 52.7266 8.31813 52.7266H6.06813V47.9766ZM13.8609 58H15.2203V52.9375C15.2203 51.7891 15.9078 51.0312 16.9625 51.0312C17.2906 51.0312 17.5797 51.0703 17.6891 51.1094V49.7891C17.5797 49.7734 17.3766 49.7344 17.1422 49.7344C16.1891 49.7344 15.4391 50.3047 15.1734 51.2031H15.1422V49.875H13.8609V58ZM21.8256 50.9141C23.1069 50.9141 23.9584 51.8828 23.9897 53.2422H19.5756C19.6616 51.8906 20.5522 50.9141 21.8256 50.9141ZM23.9584 55.6719C23.7319 56.4375 22.9741 56.9609 21.9428 56.9609C20.4819 56.9609 19.5678 55.9375 19.5678 54.3828V54.3047H25.3959V53.7891C25.3959 51.3281 24.0444 49.7344 21.8491 49.7344C19.6069 49.7344 18.1694 51.4453 18.1694 53.9688C18.1694 56.5234 19.5834 58.1406 21.9116 58.1406C23.685 58.1406 25.06 57.0938 25.2944 55.6719H23.9584ZM26.7903 52.1172C26.7903 53.2266 27.4934 53.9609 28.9231 54.3281L30.3528 54.6953C31.2669 54.9375 31.6028 55.25 31.6028 55.8281C31.6028 56.5625 30.9231 57.0312 29.8216 57.0312C28.72 57.0312 28.0794 56.5781 27.9309 55.7344H26.5716C26.7122 57.1719 27.9544 58.1406 29.7356 58.1406C31.6341 58.1406 32.97 57.1406 32.97 55.7266C32.97 54.5312 32.3763 53.9375 30.7356 53.5234L29.4778 53.2188C28.5559 52.9844 28.1263 52.6094 28.1263 52.0469C28.1263 51.3359 28.7825 50.8438 29.7747 50.8438C30.7747 50.8438 31.4075 51.3281 31.5013 52.1094H32.7981C32.7356 50.7344 31.5013 49.7344 29.8216 49.7344C28.0325 49.7344 26.7903 50.7266 26.7903 52.1172ZM34.4034 52.1172C34.4034 53.2266 35.1066 53.9609 36.5363 54.3281L37.9659 54.6953C38.88 54.9375 39.2159 55.25 39.2159 55.8281C39.2159 56.5625 38.5363 57.0312 37.4347 57.0312C36.3331 57.0312 35.6925 56.5781 35.5441 55.7344H34.1847C34.3253 57.1719 35.5675 58.1406 37.3488 58.1406C39.2472 58.1406 40.5831 57.1406 40.5831 55.7266C40.5831 54.5312 39.9894 53.9375 38.3488 53.5234L37.0909 53.2188C36.1691 52.9844 35.7394 52.6094 35.7394 52.0469C35.7394 51.3359 36.3956 50.8438 37.3878 50.8438C38.3878 50.8438 39.0206 51.3281 39.1144 52.1094H40.4113C40.3488 50.7344 39.1144 49.7344 37.4347 49.7344C35.6456 49.7344 34.4034 50.7266 34.4034 52.1172ZM46.0359 47.9141V49.875H44.825V50.9922H46.0359V55.8906C46.0359 57.4531 46.6141 58.0625 48.1063 58.0625C48.4266 58.0625 48.8016 58.0391 48.9656 58V56.8594C48.8719 56.875 48.5594 56.8984 48.4031 56.8984C47.7078 56.8984 47.3953 56.5625 47.3953 55.8203V50.9922H48.9734V49.875H47.3953V47.9141H46.0359ZM50.6569 58H52.0163V53.2656C52.0163 51.8594 52.8522 50.9375 54.2038 50.9375C55.4772 50.9375 56.1256 51.7109 56.1256 53V58H57.485V52.75C57.485 50.9375 56.4069 49.7344 54.6256 49.7344C53.3913 49.7344 52.5006 50.2656 52.0475 51.1719H52.0163V46.7266H50.6569V58ZM62.6294 50.9141C63.9106 50.9141 64.7622 51.8828 64.7934 53.2422H60.3794C60.4653 51.8906 61.3559 50.9141 62.6294 50.9141ZM64.7622 55.6719C64.5356 56.4375 63.7778 56.9609 62.7466 56.9609C61.2856 56.9609 60.3716 55.9375 60.3716 54.3828V54.3047H66.1997V53.7891C66.1997 51.3281 64.8481 49.7344 62.6528 49.7344C60.4106 49.7344 58.9731 51.4453 58.9731 53.9688C58.9731 56.5234 60.3872 58.1406 62.7153 58.1406C64.4888 58.1406 65.8638 57.0938 66.0981 55.6719H64.7622ZM71.0353 52.1172C71.0353 53.2266 71.7384 53.9609 73.1681 54.3281L74.5978 54.6953C75.5119 54.9375 75.8478 55.25 75.8478 55.8281C75.8478 56.5625 75.1681 57.0312 74.0666 57.0312C72.965 57.0312 72.3244 56.5781 72.1759 55.7344H70.8166C70.9572 57.1719 72.1994 58.1406 73.9806 58.1406C75.8791 58.1406 77.215 57.1406 77.215 55.7266C77.215 54.5312 76.6213 53.9375 74.9806 53.5234L73.7228 53.2188C72.8009 52.9844 72.3713 52.6094 72.3713 52.0469C72.3713 51.3359 73.0275 50.8438 74.0197 50.8438C75.0197 50.8438 75.6525 51.3281 75.7463 52.1094H77.0431C76.9806 50.7344 75.7463 49.7344 74.0666 49.7344C72.2775 49.7344 71.0353 50.7266 71.0353 52.1172ZM79.2266 47.9141V49.875H78.0156V50.9922H79.2266V55.8906C79.2266 57.4531 79.8047 58.0625 81.2969 58.0625C81.6172 58.0625 81.9922 58.0391 82.1563 58V56.8594C82.0625 56.875 81.75 56.8984 81.5938 56.8984C80.8984 56.8984 80.5859 56.5625 80.5859 55.8203V50.9922H82.1641V49.875H80.5859V47.9141H79.2266ZM86.3006 56.9844C85.3241 56.9844 84.6756 56.4766 84.6756 55.7031C84.6756 54.9375 85.3006 54.4531 86.3944 54.3828L88.5663 54.25V54.9141C88.5663 56.0859 87.5819 56.9844 86.3006 56.9844ZM85.9959 58.1406C87.0897 58.1406 88.1209 57.5312 88.6053 56.6016H88.6366V58H89.9256V52.3828C89.9256 50.7656 88.7225 49.7344 86.8163 49.7344C84.8944 49.7344 83.6913 50.8125 83.5975 52.2188H84.91C85.0819 51.4219 85.7381 50.9297 86.785 50.9297C87.91 50.9297 88.5663 51.5234 88.5663 52.5156V53.1953L86.2381 53.3281C84.3631 53.4375 83.2928 54.3125 83.2928 55.7031C83.2928 57.1641 84.3788 58.1406 85.9959 58.1406ZM91.8122 58H93.1716V52.9375C93.1716 51.7891 93.8591 51.0312 94.9138 51.0312C95.2419 51.0312 95.5309 51.0703 95.6403 51.1094V49.7891C95.5309 49.7734 95.3278 49.7344 95.0934 49.7344C94.1403 49.7344 93.3903 50.3047 93.1247 51.2031H93.0934V49.875H91.8122V58ZM100.421 58H101.781V49.875H100.421V58ZM101.101 48.5078C101.57 48.5078 101.953 48.125 101.953 47.6641C101.953 47.1953 101.57 46.8203 101.101 46.8203C100.64 46.8203 100.257 47.1953 100.257 47.6641C100.257 48.125 100.64 48.5078 101.101 48.5078ZM110.527 52.5391C110.355 51.0781 109.144 49.7344 107.113 49.7344C104.87 49.7344 103.378 51.375 103.378 53.9375C103.378 56.5547 104.878 58.1406 107.128 58.1406C108.972 58.1406 110.331 57 110.542 55.3828H109.206C108.972 56.3594 108.245 56.9453 107.136 56.9453C105.73 56.9453 104.761 55.8281 104.761 53.9375C104.761 52.0938 105.714 50.9297 107.12 50.9297C108.316 50.9297 109.003 51.6562 109.198 52.5391H110.527ZM115.319 58.1406C117.562 58.1406 119.077 56.5234 119.077 53.9375C119.077 51.3438 117.562 49.7344 115.319 49.7344C113.069 49.7344 111.554 51.3438 111.554 53.9375C111.554 56.5234 113.069 58.1406 115.319 58.1406ZM115.319 56.9453C113.882 56.9453 112.937 55.8516 112.937 53.9375C112.937 52.0234 113.882 50.9297 115.319 50.9297C116.757 50.9297 117.694 52.0234 117.694 53.9375C117.694 55.8516 116.757 56.9453 115.319 56.9453ZM120.612 58H121.972V53.2188C121.972 51.8438 122.808 50.9375 124.089 50.9375C125.339 50.9375 125.956 51.6562 125.956 52.9688V58H127.315V52.7266C127.315 50.8828 126.284 49.7344 124.503 49.7344C123.245 49.7344 122.378 50.2969 121.925 51.1719H121.893V49.875H120.612V58ZM136.018 58.1406C138.26 58.1406 139.776 56.5234 139.776 53.9375C139.776 51.3438 138.26 49.7344 136.018 49.7344C133.768 49.7344 132.253 51.3438 132.253 53.9375C132.253 56.5234 133.768 58.1406 136.018 58.1406ZM136.018 56.9453C134.581 56.9453 133.635 55.8516 133.635 53.9375C133.635 52.0234 134.581 50.9297 136.018 50.9297C137.456 50.9297 138.393 52.0234 138.393 53.9375C138.393 55.8516 137.456 56.9453 136.018 56.9453ZM141.311 58H142.67V53.2188C142.67 51.8438 143.506 50.9375 144.788 50.9375C146.038 50.9375 146.655 51.6562 146.655 52.9688V58H148.014V52.7266C148.014 50.8828 146.983 49.7344 145.202 49.7344C143.944 49.7344 143.077 50.2969 142.623 51.1719H142.592V49.875H141.311V58ZM153.787 47.9141V49.875H152.576V50.9922H153.787V55.8906C153.787 57.4531 154.365 58.0625 155.857 58.0625C156.178 58.0625 156.553 58.0391 156.717 58V56.8594C156.623 56.875 156.311 56.8984 156.154 56.8984C155.459 56.8984 155.147 56.5625 155.147 55.8203V50.9922H156.725V49.875H155.147V47.9141H153.787ZM158.408 58H159.768V53.2656C159.768 51.8594 160.603 50.9375 161.955 50.9375C163.228 50.9375 163.877 51.7109 163.877 53V58H165.236V52.75C165.236 50.9375 164.158 49.7344 162.377 49.7344C161.143 49.7344 160.252 50.2656 159.799 51.1719H159.768V46.7266H158.408V58ZM170.381 50.9141C171.662 50.9141 172.513 51.8828 172.545 53.2422H168.131C168.217 51.8906 169.107 50.9141 170.381 50.9141ZM172.513 55.6719C172.287 56.4375 171.529 56.9609 170.498 56.9609C169.037 56.9609 168.123 55.9375 168.123 54.3828V54.3047H173.951V53.7891C173.951 51.3281 172.599 49.7344 170.404 49.7344C168.162 49.7344 166.724 51.4453 166.724 53.9688C166.724 56.5234 168.138 58.1406 170.467 58.1406C172.24 58.1406 173.615 57.0938 173.849 55.6719H172.513ZM180.357 49.875H178.998V58.4141C178.998 59.3203 178.677 59.6562 177.794 59.6562C177.787 59.6562 177.599 59.6562 177.583 59.6562V60.7891C177.599 60.7969 177.818 60.7969 177.841 60.7969C179.576 60.7969 180.357 60.0469 180.357 58.3984V49.875ZM179.677 48.5078C180.146 48.5078 180.529 48.125 180.529 47.6641C180.529 47.1953 180.146 46.8203 179.677 46.8203C179.216 46.8203 178.833 47.1953 178.833 47.6641C178.833 48.125 179.216 48.5078 179.677 48.5078ZM185.72 58.1406C187.962 58.1406 189.478 56.5234 189.478 53.9375C189.478 51.3438 187.962 49.7344 185.72 49.7344C183.47 49.7344 181.954 51.3438 181.954 53.9375C181.954 56.5234 183.47 58.1406 185.72 58.1406ZM185.72 56.9453C184.283 56.9453 183.337 55.8516 183.337 53.9375C183.337 52.0234 184.283 50.9297 185.72 50.9297C187.158 50.9297 188.095 52.0234 188.095 53.9375C188.095 55.8516 187.158 56.9453 185.72 56.9453ZM195.052 58.1406C197.13 58.1406 198.505 56.4922 198.505 53.9375C198.505 51.3906 197.122 49.7344 195.075 49.7344C193.927 49.7344 192.982 50.3047 192.474 51.2344H192.443V46.7266H191.083V58H192.38V56.625H192.411C192.935 57.5625 193.864 58.1406 195.052 58.1406ZM194.786 50.9297C196.224 50.9297 197.114 52.0938 197.114 53.9375C197.114 55.7969 196.224 56.9453 194.786 56.9453C193.411 56.9453 192.435 55.75 192.435 53.9375C192.435 52.1328 193.411 50.9297 194.786 50.9297ZM204.161 61.0391C205.63 61.0391 206.302 60.4688 206.997 58.5703L210.192 49.875H208.763L206.513 56.6406H206.489L204.239 49.875H202.786L205.786 58.0078L205.598 58.5781C205.286 59.5234 204.864 59.8906 204.106 59.8906C203.934 59.8906 203.723 59.8828 203.575 59.8516V60.9922C203.723 61.0234 203.997 61.0391 204.161 61.0391ZM214.563 58.1406C216.805 58.1406 218.321 56.5234 218.321 53.9375C218.321 51.3438 216.805 49.7344 214.563 49.7344C212.313 49.7344 210.798 51.3438 210.798 53.9375C210.798 56.5234 212.313 58.1406 214.563 58.1406ZM214.563 56.9453C213.126 56.9453 212.18 55.8516 212.18 53.9375C212.18 52.0234 213.126 50.9297 214.563 50.9297C216.001 50.9297 216.938 52.0234 216.938 53.9375C216.938 55.8516 216.001 56.9453 214.563 56.9453ZM226.528 49.875H225.168V54.6484C225.168 56.0312 224.372 56.9375 223.051 56.9375C221.793 56.9375 221.176 56.2266 221.176 54.9062V49.875H219.817V55.1484C219.817 56.9922 220.856 58.1406 222.629 58.1406C223.879 58.1406 224.723 57.6172 225.208 56.6797H225.239V58H226.528V49.875ZM242.231 49.875H240.887L239.262 56.4844H239.231L237.387 49.875H236.074L234.238 56.4844H234.207L232.582 49.875H231.231L233.504 58H234.887L236.715 51.7109H236.746L238.582 58H239.965L242.231 49.875ZM246.031 56.9844C245.055 56.9844 244.406 56.4766 244.406 55.7031C244.406 54.9375 245.031 54.4531 246.125 54.3828L248.297 54.25V54.9141C248.297 56.0859 247.312 56.9844 246.031 56.9844ZM245.727 58.1406C246.82 58.1406 247.852 57.5312 248.336 56.6016H248.367V58H249.656V52.3828C249.656 50.7656 248.453 49.7344 246.547 49.7344C244.625 49.7344 243.422 50.8125 243.328 52.2188H244.641C244.812 51.4219 245.469 50.9297 246.516 50.9297C247.641 50.9297 248.297 51.5234 248.297 52.5156V53.1953L245.969 53.3281C244.094 53.4375 243.023 54.3125 243.023 55.7031C243.023 57.1641 244.109 58.1406 245.727 58.1406ZM251.543 58H252.902V53.2188C252.902 51.8438 253.738 50.9375 255.019 50.9375C256.269 50.9375 256.887 51.6562 256.887 52.9688V58H258.246V52.7266C258.246 50.8828 257.215 49.7344 255.433 49.7344C254.176 49.7344 253.308 50.2969 252.855 51.1719H252.824V49.875H251.543V58ZM260.578 47.9141V49.875H259.367V50.9922H260.578V55.8906C260.578 57.4531 261.156 58.0625 262.648 58.0625C262.968 58.0625 263.343 58.0391 263.508 58V56.8594C263.414 56.875 263.101 56.8984 262.945 56.8984C262.25 56.8984 261.937 56.5625 261.937 55.8203V50.9922H263.515V49.875H261.937V47.9141H260.578ZM269.007 47.9141V49.875H267.796V50.9922H269.007V55.8906C269.007 57.4531 269.585 58.0625 271.078 58.0625C271.398 58.0625 271.773 58.0391 271.937 58V56.8594C271.843 56.875 271.531 56.8984 271.374 56.8984C270.679 56.8984 270.367 56.5625 270.367 55.8203V50.9922H271.945V49.875H270.367V47.9141H269.007ZM276.691 58.1406C278.933 58.1406 280.448 56.5234 280.448 53.9375C280.448 51.3438 278.933 49.7344 276.691 49.7344C274.441 49.7344 272.925 51.3438 272.925 53.9375C272.925 56.5234 274.441 58.1406 276.691 58.1406ZM276.691 56.9453C275.253 56.9453 274.308 55.8516 274.308 53.9375C274.308 52.0234 275.253 50.9297 276.691 50.9297C278.128 50.9297 279.066 52.0234 279.066 53.9375C279.066 55.8516 278.128 56.9453 276.691 56.9453ZM285.284 52.1172C285.284 53.2266 285.987 53.9609 287.417 54.3281L288.847 54.6953C289.761 54.9375 290.097 55.25 290.097 55.8281C290.097 56.5625 289.417 57.0312 288.315 57.0312C287.214 57.0312 286.573 56.5781 286.425 55.7344H285.065C285.206 57.1719 286.448 58.1406 288.229 58.1406C290.128 58.1406 291.464 57.1406 291.464 55.7266C291.464 54.5312 290.87 53.9375 289.229 53.5234L287.972 53.2188C287.05 52.9844 286.62 52.6094 286.62 52.0469C286.62 51.3359 287.276 50.8438 288.268 50.8438C289.268 50.8438 289.901 51.3281 289.995 52.1094H291.292C291.229 50.7344 289.995 49.7344 288.315 49.7344C286.526 49.7344 285.284 50.7266 285.284 52.1172ZM295.718 56.9844C294.741 56.9844 294.093 56.4766 294.093 55.7031C294.093 54.9375 294.718 54.4531 295.811 54.3828L297.983 54.25V54.9141C297.983 56.0859 296.999 56.9844 295.718 56.9844ZM295.413 58.1406C296.507 58.1406 297.538 57.5312 298.022 56.6016H298.053V58H299.343V52.3828C299.343 50.7656 298.139 49.7344 296.233 49.7344C294.311 49.7344 293.108 50.8125 293.014 52.2188H294.327C294.499 51.4219 295.155 50.9297 296.202 50.9297C297.327 50.9297 297.983 51.5234 297.983 52.5156V53.1953L295.655 53.3281C293.78 53.4375 292.71 54.3125 292.71 55.7031C292.71 57.1641 293.796 58.1406 295.413 58.1406ZM307.893 49.875H306.479L304.229 56.5547H304.198L301.956 49.875H300.526L303.518 58H304.909L307.893 49.875ZM312.147 50.9141C313.428 50.9141 314.28 51.8828 314.311 53.2422H309.897C309.983 51.8906 310.873 50.9141 312.147 50.9141ZM314.28 55.6719C314.053 56.4375 313.295 56.9609 312.264 56.9609C310.803 56.9609 309.889 55.9375 309.889 54.3828V54.3047H315.717V53.7891C315.717 51.3281 314.366 49.7344 312.17 49.7344C309.928 49.7344 308.491 51.4453 308.491 53.9688C308.491 56.5234 309.905 58.1406 312.233 58.1406C314.006 58.1406 315.381 57.0938 315.616 55.6719H314.28ZM318.401 58.0781C318.901 58.0781 319.291 57.6875 319.291 57.1875C319.291 56.6875 318.901 56.2969 318.401 56.2969C317.901 56.2969 317.51 56.6875 317.51 57.1875C317.51 57.6875 317.901 58.0781 318.401 58.0781Z" fill="#6B7280"/>
</svg>
