<svg width="273" height="88" viewBox="0 0 273 88" fill="none" xmlns="http://www.w3.org/2000/svg">
<path d="M47.2312 21.2891C47.3953 24.3477 49.9266 26.2812 53.6766 26.2812C57.6844 26.2812 60.2039 24.3008 60.2039 21.1367C60.2039 18.6641 58.7625 17.2695 55.2937 16.4492L53.4305 15.9922C51.2508 15.4531 50.3602 14.75 50.3602 13.5547C50.3602 12.0547 51.7547 11.0234 53.7937 11.0234C55.8328 11.0234 57.2273 12.043 57.3797 13.7305H59.9344C59.8523 10.8125 57.4031 8.80859 53.8289 8.80859C50.2195 8.80859 47.6766 10.8125 47.6766 13.7305C47.6766 16.0859 49.118 17.5391 52.2234 18.2891L54.4148 18.8164C56.6062 19.3555 57.532 20.1406 57.532 21.4531C57.532 22.9648 55.9969 24.0664 53.8641 24.0664C51.6375 24.0664 50.0086 22.9648 49.8211 21.2891H47.2312ZM67.6509 15.4883C69.4205 15.4883 70.6158 16.8125 70.6744 18.6992H64.5103C64.6392 16.8359 65.8814 15.4883 67.6509 15.4883ZM70.6627 22.3789C70.3228 23.457 69.2564 24.1836 67.815 24.1836C65.7877 24.1836 64.4986 22.7656 64.4986 20.6211V20.4688H73.2056V19.6016C73.2056 15.8633 71.0728 13.4492 67.6509 13.4492C64.1705 13.4492 61.9439 16.0273 61.9439 19.8945C61.9439 23.7852 64.1353 26.2344 67.7564 26.2344C70.5806 26.2344 72.7134 24.6289 73.065 22.3789H70.6627ZM79.7269 24.207C78.3675 24.207 77.4769 23.5039 77.4769 22.4258C77.4769 21.3711 78.3323 20.7031 79.8441 20.5977L82.8792 20.4102V21.3828C82.8792 22.9883 81.4964 24.207 79.7269 24.207ZM79.0237 26.2109C80.6409 26.2109 82.1995 25.3438 82.9144 23.9727H82.973V26H85.3987V17.5039C85.3987 15.0312 83.4886 13.4492 80.5003 13.4492C77.4534 13.4492 75.555 15.0898 75.4144 17.3164H77.805C78.0276 16.2148 78.9417 15.5117 80.4066 15.5117C81.9534 15.5117 82.8792 16.332 82.8792 17.7031V18.6523L79.5042 18.8516C76.5745 19.0156 74.9222 20.3398 74.9222 22.4961C74.9222 24.7109 76.6097 26.2109 79.0237 26.2109ZM88.0997 26H90.6309V18.6172C90.6309 16.8711 91.6387 15.7812 93.2677 15.7812C93.7598 15.7812 94.2052 15.8398 94.4044 15.9219V13.5664C94.2169 13.5312 93.9005 13.4727 93.5372 13.4727C92.0841 13.4727 90.9825 14.3281 90.5723 15.7695H90.5137V13.6719H88.0997V26ZM106.258 17.9141C106.035 15.4883 104.101 13.4492 100.926 13.4492C97.4217 13.4492 95.1248 15.9219 95.1248 19.8359C95.1248 23.8203 97.4217 26.2344 100.949 26.2344C103.914 26.2344 106.012 24.4531 106.281 21.8281H103.844C103.551 23.2578 102.531 24.1133 100.972 24.1133C99.0037 24.1133 97.703 22.543 97.703 19.8359C97.703 17.1875 98.992 15.5586 100.949 15.5586C102.601 15.5586 103.586 16.6016 103.844 17.9141H106.258ZM108.408 26H110.939V18.875C110.939 16.9297 112.087 15.6406 113.962 15.6406C115.744 15.6406 116.658 16.7305 116.658 18.5469V26H119.201V18.0547C119.201 15.2656 117.584 13.4609 114.877 13.4609C113.002 13.4609 111.654 14.293 110.974 15.7344H110.916V9.08984H108.408V26ZM127.005 26H129.536V18.8164C129.536 16.9062 130.685 15.6406 132.466 15.6406C134.224 15.6406 135.091 16.6602 135.091 18.5117V26H137.634V18.0195C137.634 15.1953 136.075 13.4609 133.357 13.4609C131.458 13.4609 130.146 14.3281 129.478 15.7344H129.419V13.6719H127.005V26ZM145.62 26.2344C149.147 26.2344 151.468 23.8086 151.468 19.8359C151.468 15.875 149.136 13.4492 145.62 13.4492C142.104 13.4492 139.772 15.875 139.772 19.8359C139.772 23.8086 142.093 26.2344 145.62 26.2344ZM145.62 24.1484C143.64 24.1484 142.35 22.5781 142.35 19.8359C142.35 17.1055 143.64 15.5352 145.62 15.5352C147.6 15.5352 148.89 17.1055 148.89 19.8359C148.89 22.5781 147.612 24.1484 145.62 24.1484ZM154.403 10.7539V13.6719H152.61V15.6758H154.403V22.7539C154.403 25.1328 155.376 26.082 157.872 26.082C158.434 26.082 158.997 26.0352 159.278 25.9648V23.9609C159.114 23.9961 158.704 24.0195 158.446 24.0195C157.415 24.0195 156.946 23.5391 156.946 22.4727V15.6758H159.29V13.6719H156.946V10.7539H154.403ZM167.469 26H170.012V15.6758H172.473V13.6953H169.977V12.5352C169.977 11.4453 170.492 10.8945 171.594 10.8945C171.934 10.8945 172.274 10.918 172.52 10.9648V9.08984C172.192 9.03125 171.617 8.97266 171.102 8.97266C168.594 8.97266 167.469 10.0977 167.469 12.4883V13.6953H165.77V15.6758H167.469V26ZM179.486 26.2344C183.014 26.2344 185.334 23.8086 185.334 19.8359C185.334 15.875 183.002 13.4492 179.486 13.4492C175.971 13.4492 173.639 15.875 173.639 19.8359C173.639 23.8086 175.959 26.2344 179.486 26.2344ZM179.486 24.1484C177.506 24.1484 176.217 22.5781 176.217 19.8359C176.217 17.1055 177.506 15.5352 179.486 15.5352C181.467 15.5352 182.756 17.1055 182.756 19.8359C182.756 22.5781 181.478 24.1484 179.486 24.1484ZM198.101 13.6719H195.57V20.8555C195.57 22.7773 194.468 24.043 192.64 24.043C190.894 24.043 190.004 23.0352 190.004 21.1602V13.6719H187.472V21.6523C187.472 24.4766 189.113 26.2227 191.797 26.2227C193.683 26.2227 194.937 25.3906 195.617 23.9141H195.675V26H198.101V13.6719ZM200.849 26H203.38V18.8164C203.38 16.9062 204.529 15.6406 206.31 15.6406C208.068 15.6406 208.935 16.6602 208.935 18.5117V26H211.478V18.0195C211.478 15.1953 209.919 13.4609 207.201 13.4609C205.302 13.4609 203.99 14.3281 203.322 15.7344H203.263V13.6719H200.849V26ZM218.796 26.2109C220.589 26.2109 221.995 25.3086 222.722 23.9023H222.769V26H225.23V9.08984H222.687V15.7227H222.64C221.948 14.3633 220.542 13.4727 218.773 13.4727C215.679 13.4727 213.616 15.9453 213.616 19.8359C213.616 23.7266 215.679 26.2109 218.796 26.2109ZM219.464 15.6055C221.409 15.6055 222.71 17.2812 222.71 19.8359C222.71 22.4141 221.409 24.0664 219.464 24.0664C217.46 24.0664 216.206 22.4375 216.206 19.8359C216.206 17.2461 217.46 15.6055 219.464 15.6055Z" fill="#111827"/>
<path d="M5.66719 62V51.9922H9.22188V50.7266H0.706253V51.9922H4.26094V62H5.66719ZM8.85844 62H10.2178V56.9375C10.2178 55.7891 10.9053 55.0312 11.96 55.0312C12.2881 55.0312 12.5772 55.0703 12.6866 55.1094V53.7891C12.5772 53.7734 12.3741 53.7344 12.1397 53.7344C11.1866 53.7344 10.4366 54.3047 10.1709 55.2031H10.1397V53.875H8.85844V62ZM14.6278 65.0391C16.0966 65.0391 16.7684 64.4688 17.4638 62.5703L20.6591 53.875H19.2294L16.9794 60.6406H16.9559L14.7059 53.875H13.2528L16.2528 62.0078L16.0653 62.5781C15.7528 63.5234 15.3309 63.8906 14.5731 63.8906C14.4013 63.8906 14.1903 63.8828 14.0419 63.8516V64.9922C14.1903 65.0234 14.4638 65.0391 14.6278 65.0391ZM25.1978 56.1172C25.1978 57.2266 25.9009 57.9609 27.3306 58.3281L28.7603 58.6953C29.6744 58.9375 30.0103 59.25 30.0103 59.8281C30.0103 60.5625 29.3306 61.0312 28.2291 61.0312C27.1275 61.0312 26.4869 60.5781 26.3384 59.7344H24.9791C25.1197 61.1719 26.3619 62.1406 28.1431 62.1406C30.0416 62.1406 31.3775 61.1406 31.3775 59.7266C31.3775 58.5312 30.7838 57.9375 29.1431 57.5234L27.8853 57.2188C26.9634 56.9844 26.5338 56.6094 26.5338 56.0469C26.5338 55.3359 27.19 54.8438 28.1822 54.8438C29.1822 54.8438 29.815 55.3281 29.9088 56.1094H31.2056C31.1431 54.7344 29.9088 53.7344 28.2291 53.7344C26.44 53.7344 25.1978 54.7266 25.1978 56.1172ZM36.2094 54.9141C37.4906 54.9141 38.3422 55.8828 38.3734 57.2422H33.9594C34.0453 55.8906 34.9359 54.9141 36.2094 54.9141ZM38.3422 59.6719C38.1156 60.4375 37.3578 60.9609 36.3266 60.9609C34.8656 60.9609 33.9516 59.9375 33.9516 58.3828V58.3047H39.7797V57.7891C39.7797 55.3281 38.4281 53.7344 36.2328 53.7344C33.9906 53.7344 32.5531 55.4453 32.5531 57.9688C32.5531 60.5234 33.9672 62.1406 36.2953 62.1406C38.0688 62.1406 39.4438 61.0938 39.6781 59.6719H38.3422ZM43.9944 60.9844C43.0178 60.9844 42.3694 60.4766 42.3694 59.7031C42.3694 58.9375 42.9944 58.4531 44.0881 58.3828L46.26 58.25V58.9141C46.26 60.0859 45.2756 60.9844 43.9944 60.9844ZM43.6897 62.1406C44.7834 62.1406 45.8147 61.5312 46.2991 60.6016H46.3303V62H47.6194V56.3828C47.6194 54.7656 46.4163 53.7344 44.51 53.7344C42.5881 53.7344 41.385 54.8125 41.2913 56.2188H42.6038C42.7756 55.4219 43.4319 54.9297 44.4788 54.9297C45.6038 54.9297 46.26 55.5234 46.26 56.5156V57.1953L43.9319 57.3281C42.0569 57.4375 40.9866 58.3125 40.9866 59.7031C40.9866 61.1641 42.0725 62.1406 43.6897 62.1406ZM49.5059 62H50.8653V56.9375C50.8653 55.7891 51.5528 55.0312 52.6075 55.0312C52.9356 55.0312 53.2247 55.0703 53.3341 55.1094V53.7891C53.2247 53.7734 53.0216 53.7344 52.7872 53.7344C51.8341 53.7344 51.0841 54.3047 50.8184 55.2031H50.7872V53.875H49.5059V62ZM60.9628 56.5391C60.7909 55.0781 59.58 53.7344 57.5488 53.7344C55.3066 53.7344 53.8144 55.375 53.8144 57.9375C53.8144 60.5547 55.3144 62.1406 57.5644 62.1406C59.4081 62.1406 60.7675 61 60.9784 59.3828H59.6425C59.4081 60.3594 58.6816 60.9453 57.5722 60.9453C56.1659 60.9453 55.1972 59.8281 55.1972 57.9375C55.1972 56.0938 56.1503 54.9297 57.5566 54.9297C58.7519 54.9297 59.4394 55.6562 59.6347 56.5391H60.9628ZM62.4588 62H63.8181V57.2656C63.8181 55.8594 64.6541 54.9375 66.0056 54.9375C67.2791 54.9375 67.9275 55.7109 67.9275 57V62H69.2869V56.75C69.2869 54.9375 68.2088 53.7344 66.4275 53.7344C65.1931 53.7344 64.3025 54.2656 63.8494 55.1719H63.8181V50.7266H62.4588V62ZM71.2438 62H72.6031V53.875H71.2438V62ZM71.9234 52.5078C72.3922 52.5078 72.775 52.125 72.775 51.6641C72.775 51.1953 72.3922 50.8203 71.9234 50.8203C71.4625 50.8203 71.0797 51.1953 71.0797 51.6641C71.0797 52.125 71.4625 52.5078 71.9234 52.5078ZM74.5991 62H75.9584V57.2188C75.9584 55.8438 76.7944 54.9375 78.0756 54.9375C79.3256 54.9375 79.9428 55.6562 79.9428 56.9688V62H81.3022V56.7266C81.3022 54.8828 80.2709 53.7344 78.4897 53.7344C77.2319 53.7344 76.3647 54.2969 75.9116 55.1719H75.8803V53.875H74.5991V62ZM86.5013 60.8672C85.1028 60.8672 84.1888 59.7266 84.1888 57.9062C84.1888 56.0859 85.1028 54.9297 86.5013 54.9297C87.9153 54.9297 88.8606 56.1172 88.8606 57.9062C88.8606 59.6953 87.9153 60.8672 86.5013 60.8672ZM86.5481 65.0625C88.7903 65.0625 90.22 63.7734 90.22 61.8359V53.875H88.9231V55.2422H88.8997C88.3606 54.2969 87.4075 53.7344 86.2591 53.7344C84.1575 53.7344 82.7981 55.3594 82.7981 57.9062C82.7981 60.4297 84.1575 62.0625 86.2278 62.0625C87.3684 62.0625 88.3294 61.4844 88.8294 60.6016H88.8606V61.8828C88.8606 63.0938 88.0091 63.9062 86.6028 63.9062C85.5872 63.9062 84.7825 63.4141 84.5169 62.6719H83.1184C83.345 64.0547 84.7591 65.0625 86.5481 65.0625ZM105.931 53.875H104.587L102.962 60.4844H102.931L101.087 53.875H99.7744L97.9384 60.4844H97.9072L96.2822 53.875H94.9306L97.2041 62H98.5869L100.415 55.7109H100.446L102.282 62H103.665L105.931 53.875ZM107.278 62H108.638V53.875H107.278V62ZM107.958 52.5078C108.427 52.5078 108.809 52.125 108.809 51.6641C108.809 51.1953 108.427 50.8203 107.958 50.8203C107.497 50.8203 107.114 51.1953 107.114 51.6641C107.114 52.125 107.497 52.5078 107.958 52.5078ZM111.071 51.9141V53.875H109.86V54.9922H111.071V59.8906C111.071 61.4531 111.649 62.0625 113.141 62.0625C113.462 62.0625 113.837 62.0391 114.001 62V60.8594C113.907 60.875 113.594 60.8984 113.438 60.8984C112.743 60.8984 112.43 60.5625 112.43 59.8203V54.9922H114.008V53.875H112.43V51.9141H111.071ZM115.692 62H117.051V57.2656C117.051 55.8594 117.887 54.9375 119.239 54.9375C120.512 54.9375 121.161 55.7109 121.161 57V62H122.52V56.75C122.52 54.9375 121.442 53.7344 119.661 53.7344C118.426 53.7344 117.536 54.2656 117.083 55.1719H117.051V50.7266H115.692V62ZM130.926 62.1406C132.098 62.1406 133.028 61.5625 133.551 60.625H133.574V62H134.871V50.7266H133.512V55.1953H133.481C132.996 54.3047 132.059 53.7344 130.895 53.7344C128.848 53.7344 127.449 55.3906 127.449 57.9375C127.449 60.4844 128.856 62.1406 130.926 62.1406ZM131.184 54.9297C132.582 54.9297 133.52 56.125 133.52 57.9375C133.52 59.7578 132.582 60.9453 131.184 60.9453C129.746 60.9453 128.84 59.7812 128.84 57.9375C128.84 56.1016 129.746 54.9297 131.184 54.9297ZM136.938 62H138.297V53.875H136.938V62ZM137.617 52.5078C138.086 52.5078 138.469 52.125 138.469 51.6641C138.469 51.1953 138.086 50.8203 137.617 50.8203C137.156 50.8203 136.773 51.1953 136.773 51.6641C136.773 52.125 137.156 52.5078 137.617 52.5078ZM140.73 62H142.09V54.9922H143.746V53.875H142.082V52.9766C142.082 52.1719 142.433 51.7812 143.168 51.7812C143.394 51.7812 143.621 51.8047 143.785 51.8281V50.7266C143.59 50.6953 143.262 50.6641 142.957 50.6641C141.457 50.6641 140.73 51.4062 140.73 52.9688V53.875H139.598V54.9922H140.73V62ZM145.75 62H147.109V54.9922H148.765V53.875H147.101V52.9766C147.101 52.1719 147.453 51.7812 148.187 51.7812C148.414 51.7812 148.64 51.8047 148.804 51.8281V50.7266C148.609 50.6953 148.281 50.6641 147.976 50.6641C146.476 50.6641 145.75 51.4062 145.75 52.9688V53.875H144.617V54.9922H145.75V62ZM153.199 54.9141C154.48 54.9141 155.332 55.8828 155.363 57.2422H150.949C151.035 55.8906 151.925 54.9141 153.199 54.9141ZM155.332 59.6719C155.105 60.4375 154.347 60.9609 153.316 60.9609C151.855 60.9609 150.941 59.9375 150.941 58.3828V58.3047H156.769V57.7891C156.769 55.3281 155.417 53.7344 153.222 53.7344C150.98 53.7344 149.542 55.4453 149.542 57.9688C149.542 60.5234 150.957 62.1406 153.285 62.1406C155.058 62.1406 156.433 61.0938 156.667 59.6719H155.332ZM158.304 62H159.663V56.9375C159.663 55.7891 160.351 55.0312 161.406 55.0312C161.734 55.0312 162.023 55.0703 162.132 55.1094V53.7891C162.023 53.7734 161.82 53.7344 161.585 53.7344C160.632 53.7344 159.882 54.3047 159.617 55.2031H159.585V53.875H158.304V62ZM166.269 54.9141C167.55 54.9141 168.402 55.8828 168.433 57.2422H164.019C164.105 55.8906 164.995 54.9141 166.269 54.9141ZM168.402 59.6719C168.175 60.4375 167.417 60.9609 166.386 60.9609C164.925 60.9609 164.011 59.9375 164.011 58.3828V58.3047H169.839V57.7891C169.839 55.3281 168.488 53.7344 166.292 53.7344C164.05 53.7344 162.613 55.4453 162.613 57.9688C162.613 60.5234 164.027 62.1406 166.355 62.1406C168.128 62.1406 169.503 61.0938 169.738 59.6719H168.402ZM171.374 62H172.733V57.2188C172.733 55.8438 173.569 54.9375 174.851 54.9375C176.101 54.9375 176.718 55.6562 176.718 56.9688V62H178.077V56.7266C178.077 54.8828 177.046 53.7344 175.265 53.7344C174.007 53.7344 173.14 54.2969 172.687 55.1719H172.655V53.875H171.374V62ZM180.409 51.9141V53.875H179.198V54.9922H180.409V59.8906C180.409 61.4531 180.987 62.0625 182.479 62.0625C182.8 62.0625 183.175 62.0391 183.339 62V60.8594C183.245 60.875 182.933 60.8984 182.776 60.8984C182.081 60.8984 181.768 60.5625 181.768 59.8203V54.9922H183.347V53.875H181.768V51.9141H180.409ZM189.831 57.4844V50.7266H188.471V62H189.831V58.9375L190.588 58.2188L193.604 62H195.182L191.549 57.3828L195.073 53.875H193.424L189.831 57.4844ZM199.194 54.9141C200.475 54.9141 201.327 55.8828 201.358 57.2422H196.944C197.03 55.8906 197.92 54.9141 199.194 54.9141ZM201.327 59.6719C201.1 60.4375 200.342 60.9609 199.311 60.9609C197.85 60.9609 196.936 59.9375 196.936 58.3828V58.3047H202.764V57.7891C202.764 55.3281 201.413 53.7344 199.217 53.7344C196.975 53.7344 195.538 55.4453 195.538 57.9688C195.538 60.5234 196.952 62.1406 199.28 62.1406C201.053 62.1406 202.428 61.0938 202.663 59.6719H201.327ZM204.971 65.0391C206.44 65.0391 207.112 64.4688 207.807 62.5703L211.002 53.875H209.573L207.323 60.6406H207.299L205.049 53.875H203.596L206.596 62.0078L206.408 62.5781C206.096 63.5234 205.674 63.8906 204.916 63.8906C204.744 63.8906 204.533 63.8828 204.385 63.8516V64.9922C204.533 65.0234 204.807 65.0391 204.971 65.0391ZM222.576 53.875H221.232L219.607 60.4844H219.576L217.732 53.875H216.42L214.584 60.4844H214.553L212.928 53.875H211.576L213.85 62H215.232L217.061 55.7109H217.092L218.928 62H220.311L222.576 53.875ZM227.221 62.1406C229.463 62.1406 230.978 60.5234 230.978 57.9375C230.978 55.3438 229.463 53.7344 227.221 53.7344C224.971 53.7344 223.455 55.3438 223.455 57.9375C223.455 60.5234 224.971 62.1406 227.221 62.1406ZM227.221 60.9453C225.783 60.9453 224.838 59.8516 224.838 57.9375C224.838 56.0234 225.783 54.9297 227.221 54.9297C228.658 54.9297 229.596 56.0234 229.596 57.9375C229.596 59.8516 228.658 60.9453 227.221 60.9453ZM232.513 62H233.873V56.9375C233.873 55.7891 234.56 55.0312 235.615 55.0312C235.943 55.0312 236.232 55.0703 236.342 55.1094V53.7891C236.232 53.7734 236.029 53.7344 235.795 53.7344C234.842 53.7344 234.092 54.3047 233.826 55.2031H233.795V53.875H232.513V62ZM240.298 62.1406C241.47 62.1406 242.4 61.5625 242.923 60.625H242.947V62H244.244V50.7266H242.884V55.1953H242.853C242.369 54.3047 241.431 53.7344 240.267 53.7344C238.22 53.7344 236.822 55.3906 236.822 57.9375C236.822 60.4844 238.228 62.1406 240.298 62.1406ZM240.556 54.9297C241.955 54.9297 242.892 56.125 242.892 57.9375C242.892 59.7578 241.955 60.9453 240.556 60.9453C239.119 60.9453 238.213 59.7812 238.213 57.9375C238.213 56.1016 239.119 54.9297 240.556 54.9297ZM246.099 56.1172C246.099 57.2266 246.802 57.9609 248.232 58.3281L249.662 58.6953C250.576 58.9375 250.912 59.25 250.912 59.8281C250.912 60.5625 250.232 61.0312 249.13 61.0312C248.029 61.0312 247.388 60.5781 247.24 59.7344H245.88C246.021 61.1719 247.263 62.1406 249.044 62.1406C250.943 62.1406 252.279 61.1406 252.279 59.7266C252.279 58.5312 251.685 57.9375 250.044 57.5234L248.787 57.2188C247.865 56.9844 247.435 56.6094 247.435 56.0469C247.435 55.3359 248.091 54.8438 249.083 54.8438C250.083 54.8438 250.716 55.3281 250.81 56.1094H252.107C252.044 54.7344 250.81 53.7344 249.13 53.7344C247.341 53.7344 246.099 54.7266 246.099 56.1172ZM257.153 56.1172C257.153 57.2266 257.857 57.9609 259.286 58.3281L260.716 58.6953C261.63 58.9375 261.966 59.25 261.966 59.8281C261.966 60.5625 261.286 61.0312 260.185 61.0312C259.083 61.0312 258.443 60.5781 258.294 59.7344H256.935C257.075 61.1719 258.318 62.1406 260.099 62.1406C261.997 62.1406 263.333 61.1406 263.333 59.7266C263.333 58.5312 262.739 57.9375 261.099 57.5234L259.841 57.2188C258.919 56.9844 258.489 56.6094 258.489 56.0469C258.489 55.3359 259.146 54.8438 260.138 54.8438C261.138 54.8438 261.771 55.3281 261.864 56.1094H263.161C263.099 54.7344 261.864 53.7344 260.185 53.7344C258.396 53.7344 257.153 54.7266 257.153 56.1172ZM268.274 62.1406C270.517 62.1406 272.032 60.5234 272.032 57.9375C272.032 55.3438 270.517 53.7344 268.274 53.7344C266.024 53.7344 264.509 55.3438 264.509 57.9375C264.509 60.5234 266.024 62.1406 268.274 62.1406ZM268.274 60.9453C266.837 60.9453 265.892 59.8516 265.892 57.9375C265.892 56.0234 266.837 54.9297 268.274 54.9297C269.712 54.9297 270.649 56.0234 270.649 57.9375C270.649 59.8516 269.712 60.9453 268.274 60.9453ZM89.3488 74.875H88.005L86.38 81.4844H86.3488L84.505 74.875H83.1925L81.3566 81.4844H81.3253L79.7003 74.875H78.3488L80.6222 83H82.005L83.8331 76.7109H83.8644L85.7003 83H87.0831L89.3488 74.875ZM93.8838 75.9141C95.165 75.9141 96.0166 76.8828 96.0478 78.2422H91.6338C91.7197 76.8906 92.6103 75.9141 93.8838 75.9141ZM96.0166 80.6719C95.79 81.4375 95.0322 81.9609 94.0009 81.9609C92.54 81.9609 91.6259 80.9375 91.6259 79.3828V79.3047H97.4541V78.7891C97.4541 76.3281 96.1025 74.7344 93.9072 74.7344C91.665 74.7344 90.2275 76.4453 90.2275 78.9688C90.2275 81.5234 91.6416 83.1406 93.9697 83.1406C95.7431 83.1406 97.1181 82.0938 97.3525 80.6719H96.0166ZM109.18 77.5391C109.008 76.0781 107.798 74.7344 105.766 74.7344C103.524 74.7344 102.032 76.375 102.032 78.9375C102.032 81.5547 103.532 83.1406 105.782 83.1406C107.626 83.1406 108.985 82 109.196 80.3828H107.86C107.626 81.3594 106.899 81.9453 105.79 81.9453C104.383 81.9453 103.415 80.8281 103.415 78.9375C103.415 77.0938 104.368 75.9297 105.774 75.9297C106.969 75.9297 107.657 76.6562 107.852 77.5391H109.18ZM113.286 81.9844C112.309 81.9844 111.661 81.4766 111.661 80.7031C111.661 79.9375 112.286 79.4531 113.379 79.3828L115.551 79.25V79.9141C115.551 81.0859 114.567 81.9844 113.286 81.9844ZM112.981 83.1406C114.075 83.1406 115.106 82.5312 115.59 81.6016H115.622V83H116.911V77.3828C116.911 75.7656 115.708 74.7344 113.801 74.7344C111.879 74.7344 110.676 75.8125 110.583 77.2188H111.895C112.067 76.4219 112.723 75.9297 113.77 75.9297C114.895 75.9297 115.551 76.5234 115.551 77.5156V78.1953L113.223 78.3281C111.348 78.4375 110.278 79.3125 110.278 80.7031C110.278 82.1641 111.364 83.1406 112.981 83.1406ZM118.797 83H120.157V78.2188C120.157 76.8438 120.993 75.9375 122.274 75.9375C123.524 75.9375 124.141 76.6562 124.141 77.9688V83H125.5V77.7266C125.5 75.8828 124.469 74.7344 122.688 74.7344C121.43 74.7344 120.563 75.2969 120.11 76.1719H120.078V74.875H118.797V83ZM130.695 77.1172C130.695 78.2266 131.398 78.9609 132.828 79.3281L134.258 79.6953C135.172 79.9375 135.508 80.25 135.508 80.8281C135.508 81.5625 134.828 82.0312 133.727 82.0312C132.625 82.0312 131.984 81.5781 131.836 80.7344H130.477C130.617 82.1719 131.859 83.1406 133.641 83.1406C135.539 83.1406 136.875 82.1406 136.875 80.7266C136.875 79.5312 136.281 78.9375 134.641 78.5234L133.383 78.2188C132.461 77.9844 132.031 77.6094 132.031 77.0469C132.031 76.3359 132.688 75.8438 133.68 75.8438C134.68 75.8438 135.312 76.3281 135.406 77.1094H136.703C136.641 75.7344 135.406 74.7344 133.727 74.7344C131.938 74.7344 130.695 75.7266 130.695 77.1172ZM138.519 83H139.879V78.2656C139.879 76.8594 140.715 75.9375 142.066 75.9375C143.34 75.9375 143.988 76.7109 143.988 78V83H145.348V77.75C145.348 75.9375 144.269 74.7344 142.488 74.7344C141.254 74.7344 140.363 75.2656 139.91 76.1719H139.879V71.7266H138.519V83ZM150.601 83.1406C152.843 83.1406 154.359 81.5234 154.359 78.9375C154.359 76.3438 152.843 74.7344 150.601 74.7344C148.351 74.7344 146.836 76.3438 146.836 78.9375C146.836 81.5234 148.351 83.1406 150.601 83.1406ZM150.601 81.9453C149.164 81.9453 148.218 80.8516 148.218 78.9375C148.218 77.0234 149.164 75.9297 150.601 75.9297C152.039 75.9297 152.976 77.0234 152.976 78.9375C152.976 80.8516 152.039 81.9453 150.601 81.9453ZM166.23 74.875H164.886L163.261 81.4844H163.23L161.386 74.875H160.074L158.238 81.4844H158.207L156.582 74.875H155.23L157.503 83H158.886L160.714 76.7109H160.746L162.582 83H163.964L166.23 74.875ZM171.62 86.0391C173.089 86.0391 173.761 85.4688 174.456 83.5703L177.652 74.875H176.222L173.972 81.6406H173.948L171.698 74.875H170.245L173.245 83.0078L173.058 83.5781C172.745 84.5234 172.323 84.8906 171.566 84.8906C171.394 84.8906 171.183 84.8828 171.034 84.8516V85.9922C171.183 86.0234 171.456 86.0391 171.62 86.0391ZM182.023 83.1406C184.265 83.1406 185.78 81.5234 185.78 78.9375C185.78 76.3438 184.265 74.7344 182.023 74.7344C179.773 74.7344 178.257 76.3438 178.257 78.9375C178.257 81.5234 179.773 83.1406 182.023 83.1406ZM182.023 81.9453C180.585 81.9453 179.64 80.8516 179.64 78.9375C179.64 77.0234 180.585 75.9297 182.023 75.9297C183.46 75.9297 184.398 77.0234 184.398 78.9375C184.398 80.8516 183.46 81.9453 182.023 81.9453ZM193.987 74.875H192.628V79.6484C192.628 81.0312 191.831 81.9375 190.511 81.9375C189.253 81.9375 188.636 81.2266 188.636 79.9062V74.875H187.276V80.1484C187.276 81.9922 188.315 83.1406 190.089 83.1406C191.339 83.1406 192.182 82.6172 192.667 81.6797H192.698V83H193.987V74.875Z" fill="#6B7280"/>
</svg>
