<svg width="312" height="73" viewBox="0 0 312 73" fill="none" xmlns="http://www.w3.org/2000/svg">
<path d="M2.17383 10V2.28223H2.23535L7.63574 10H8.83203V0.135742H7.61523V7.88086H7.55371L2.15332 0.135742H0.957031V10H2.17383ZM13.6478 10.123C15.6097 10.123 16.9359 8.70801 16.9359 6.44531C16.9359 4.17578 15.6097 2.76758 13.6478 2.76758C11.6791 2.76758 10.3529 4.17578 10.3529 6.44531C10.3529 8.70801 11.6791 10.123 13.6478 10.123ZM13.6478 9.07715C12.39 9.07715 11.5629 8.12012 11.5629 6.44531C11.5629 4.77051 12.39 3.81348 13.6478 3.81348C14.9056 3.81348 15.7259 4.77051 15.7259 6.44531C15.7259 8.12012 14.9056 9.07715 13.6478 9.07715ZM18.6618 1.1748V2.89062H17.6023V3.86816H18.6618V8.1543C18.6618 9.52148 19.1677 10.0547 20.4734 10.0547C20.7536 10.0547 21.0818 10.0342 21.2253 10V9.00195C21.1433 9.01562 20.8698 9.03613 20.7331 9.03613C20.1247 9.03613 19.8513 8.74219 19.8513 8.09277V3.86816H21.2321V2.89062H19.8513V1.1748H18.6618ZM25.2891 3.7998C26.4102 3.7998 27.1554 4.64746 27.1827 5.83691H23.3204C23.3956 4.6543 24.1749 3.7998 25.2891 3.7998ZM27.1554 7.96289C26.9571 8.63281 26.294 9.09082 25.3917 9.09082C24.1134 9.09082 23.3136 8.19531 23.3136 6.83496V6.7666H28.4132V6.31543C28.4132 4.16211 27.2305 2.76758 25.3096 2.76758C23.3477 2.76758 22.0899 4.26465 22.0899 6.47266C22.0899 8.70801 23.3272 10.123 25.3643 10.123C26.9161 10.123 28.1192 9.20703 28.3243 7.96289H27.1554ZM33.7723 10.0684C34.2098 10.0684 34.5516 9.72656 34.5516 9.28906C34.5516 8.85156 34.2098 8.50977 33.7723 8.50977C33.3348 8.50977 32.993 8.85156 32.993 9.28906C32.993 9.72656 33.3348 10.0684 33.7723 10.0684ZM33.7723 5.03711C34.2098 5.03711 34.5516 4.69531 34.5516 4.25781C34.5516 3.82031 34.2098 3.47852 33.7723 3.47852C33.3348 3.47852 32.993 3.82031 32.993 4.25781C32.993 4.69531 33.3348 5.03711 33.7723 5.03711ZM43.3833 10V1.24316H46.4937V0.135742H39.0425V1.24316H42.1529V10H43.3833ZM52.0409 2.89062H50.8514V7.06738C50.8514 8.27734 50.1542 9.07031 48.9989 9.07031C47.8983 9.07031 47.3583 8.44824 47.3583 7.29297V2.89062H46.1688V7.50488C46.1688 9.11816 47.078 10.123 48.6298 10.123C49.7235 10.123 50.4618 9.66504 50.8856 8.84473H50.913V10H52.0409V2.89062ZM53.7258 10H54.9153V5.57031C54.9153 4.56543 55.5168 3.90234 56.4397 3.90234C56.7268 3.90234 56.9797 3.93652 57.0754 3.9707V2.81543C56.9797 2.80176 56.802 2.76758 56.5969 2.76758C55.7629 2.76758 55.1067 3.2666 54.8743 4.05273H54.8469V2.89062H53.7258V10ZM58.1861 10H59.3756V5.81641C59.3756 4.61328 60.107 3.82031 61.2281 3.82031C62.3219 3.82031 62.8619 4.44922 62.8619 5.59766V10H64.0514V5.38574C64.0514 3.77246 63.149 2.76758 61.5904 2.76758C60.4898 2.76758 59.7311 3.25977 59.3346 4.02539H59.3072V2.89062H58.1861V10ZM65.7705 10H66.9599V2.89062H65.7705V10ZM66.3652 1.69434C66.7754 1.69434 67.1103 1.35938 67.1103 0.956055C67.1103 0.545898 66.7754 0.217773 66.3652 0.217773C65.9619 0.217773 65.6269 0.545898 65.6269 0.956055C65.6269 1.35938 65.9619 1.69434 66.3652 1.69434ZM68.7064 10H69.8958V5.81641C69.8958 4.61328 70.6273 3.82031 71.7484 3.82031C72.8421 3.82031 73.3821 4.44922 73.3821 5.59766V10H74.5716V5.38574C74.5716 3.77246 73.6693 2.76758 72.1107 2.76758C71.0101 2.76758 70.2513 3.25977 69.8548 4.02539H69.8275V2.89062H68.7064V10ZM79.1208 9.00879C77.8971 9.00879 77.0973 8.01074 77.0973 6.41797C77.0973 4.8252 77.8971 3.81348 79.1208 3.81348C80.3581 3.81348 81.1852 4.85254 81.1852 6.41797C81.1852 7.9834 80.3581 9.00879 79.1208 9.00879ZM79.1618 12.6797C81.1237 12.6797 82.3747 11.5518 82.3747 9.85645V2.89062H81.2399V4.08691H81.2194C80.7477 3.25977 79.9137 2.76758 78.9089 2.76758C77.07 2.76758 75.8805 4.18945 75.8805 6.41797C75.8805 8.62598 77.07 10.0547 78.8815 10.0547C79.8796 10.0547 80.7204 9.54883 81.1579 8.77637H81.1852V9.89746C81.1852 10.957 80.4401 11.668 79.2096 11.668C78.321 11.668 77.6169 11.2373 77.3845 10.5879H76.1608C76.3591 11.7979 77.5964 12.6797 79.1618 12.6797ZM87.4604 1.1748V2.89062H86.4008V3.86816H87.4604V8.1543C87.4604 9.52148 87.9662 10.0547 89.2719 10.0547C89.5521 10.0547 89.8803 10.0342 90.0238 10V9.00195C89.9418 9.01562 89.6684 9.03613 89.5316 9.03613C88.9232 9.03613 88.6498 8.74219 88.6498 8.09277V3.86816H90.0307V2.89062H88.6498V1.1748H87.4604ZM91.5037 10H92.6931V5.85742C92.6931 4.62695 93.4246 3.82031 94.6072 3.82031C95.7214 3.82031 96.2888 4.49707 96.2888 5.625V10H97.4783V5.40625C97.4783 3.82031 96.5349 2.76758 94.9763 2.76758C93.8962 2.76758 93.117 3.23242 92.7205 4.02539H92.6931V0.135742H91.5037V10ZM99.1905 10H100.38V2.89062H99.1905V10ZM99.7853 1.69434C100.195 1.69434 100.53 1.35938 100.53 0.956055C100.53 0.545898 100.195 0.217773 99.7853 0.217773C99.382 0.217773 99.047 0.545898 99.047 0.956055C99.047 1.35938 99.382 1.69434 99.7853 1.69434ZM102.003 4.85254C102.003 5.82324 102.619 6.46582 103.87 6.78711L105.121 7.1084C105.92 7.32031 106.214 7.59375 106.214 8.09961C106.214 8.74219 105.62 9.15234 104.656 9.15234C103.692 9.15234 103.131 8.75586 103.001 8.01758H101.812C101.935 9.27539 103.022 10.123 104.581 10.123C106.242 10.123 107.411 9.24805 107.411 8.01074C107.411 6.96484 106.891 6.44531 105.456 6.08301L104.355 5.81641C103.548 5.61133 103.172 5.2832 103.172 4.79102C103.172 4.16895 103.747 3.73828 104.615 3.73828C105.49 3.73828 106.043 4.16211 106.125 4.8457H107.26C107.206 3.64258 106.125 2.76758 104.656 2.76758C103.09 2.76758 102.003 3.63574 102.003 4.85254ZM112.182 10H113.371V3.86816H114.821V2.89062H113.364V2.10449C113.364 1.40039 113.672 1.05859 114.315 1.05859C114.513 1.05859 114.711 1.0791 114.855 1.09961V0.135742C114.684 0.108398 114.397 0.0810547 114.13 0.0810547C112.818 0.0810547 112.182 0.730469 112.182 2.09766V2.89062H111.191V3.86816H112.182V10ZM118.7 3.7998C119.821 3.7998 120.566 4.64746 120.593 5.83691H116.731C116.806 4.6543 117.586 3.7998 118.7 3.7998ZM120.566 7.96289C120.368 8.63281 119.705 9.09082 118.802 9.09082C117.524 9.09082 116.724 8.19531 116.724 6.83496V6.7666H121.824V6.31543C121.824 4.16211 120.641 2.76758 118.72 2.76758C116.758 2.76758 115.501 4.26465 115.501 6.47266C115.501 8.70801 116.738 10.123 118.775 10.123C120.327 10.123 121.53 9.20703 121.735 7.96289H120.566ZM125.512 9.11133C124.657 9.11133 124.09 8.66699 124.09 7.99023C124.09 7.32031 124.637 6.89648 125.594 6.83496L127.494 6.71875V7.2998C127.494 8.3252 126.633 9.11133 125.512 9.11133ZM125.245 10.123C126.202 10.123 127.104 9.58984 127.528 8.77637H127.556V10H128.684V5.08496C128.684 3.66992 127.631 2.76758 125.963 2.76758C124.281 2.76758 123.228 3.71094 123.146 4.94141H124.295C124.445 4.24414 125.019 3.81348 125.935 3.81348C126.92 3.81348 127.494 4.33301 127.494 5.20117V5.7959L125.457 5.91211C123.816 6.00781 122.88 6.77344 122.88 7.99023C122.88 9.26855 123.83 10.123 125.245 10.123ZM130.717 1.1748V2.89062H129.658V3.86816H130.717V8.1543C130.717 9.52148 131.223 10.0547 132.529 10.0547C132.809 10.0547 133.137 10.0342 133.281 10V9.00195C133.199 9.01562 132.925 9.03613 132.788 9.03613C132.18 9.03613 131.907 8.74219 131.907 8.09277V3.86816H133.287V2.89062H131.907V1.1748H130.717ZM140.537 2.89062H139.347V7.06738C139.347 8.27734 138.65 9.07031 137.495 9.07031C136.394 9.07031 135.854 8.44824 135.854 7.29297V2.89062H134.665V7.50488C134.665 9.11816 135.574 10.123 137.126 10.123C138.219 10.123 138.958 9.66504 139.381 8.84473H139.409V10H140.537V2.89062ZM142.222 10H143.411V5.57031C143.411 4.56543 144.013 3.90234 144.936 3.90234C145.223 3.90234 145.476 3.93652 145.571 3.9707V2.81543C145.476 2.80176 145.298 2.76758 145.093 2.76758C144.259 2.76758 143.603 3.2666 143.37 4.05273H143.343V2.89062H142.222V10ZM149.191 3.7998C150.312 3.7998 151.057 4.64746 151.084 5.83691H147.222C147.297 4.6543 148.077 3.7998 149.191 3.7998ZM151.057 7.96289C150.859 8.63281 150.196 9.09082 149.293 9.09082C148.015 9.09082 147.215 8.19531 147.215 6.83496V6.7666H152.315V6.31543C152.315 4.16211 151.132 2.76758 149.211 2.76758C147.249 2.76758 145.992 4.26465 145.992 6.47266C145.992 8.70801 147.229 10.123 149.266 10.123C150.818 10.123 152.021 9.20703 152.226 7.96289H151.057ZM165.713 2.89062H164.537L163.115 8.67383H163.088L161.475 2.89062H160.326L158.72 8.67383H158.692L157.271 2.89062H156.088L158.077 10H159.287L160.887 4.49707H160.914L162.521 10H163.731L165.713 2.89062ZM166.892 10H168.081V2.89062H166.892V10ZM167.487 1.69434C167.897 1.69434 168.232 1.35938 168.232 0.956055C168.232 0.545898 167.897 0.217773 167.487 0.217773C167.083 0.217773 166.748 0.545898 166.748 0.956055C166.748 1.35938 167.083 1.69434 167.487 1.69434ZM169.889 10H171.079V0.135742H169.889V10ZM172.887 10H174.076V0.135742H172.887V10ZM178.711 4.85254C178.711 5.82324 179.326 6.46582 180.577 6.78711L181.828 7.1084C182.628 7.32031 182.922 7.59375 182.922 8.09961C182.922 8.74219 182.327 9.15234 181.363 9.15234C180.399 9.15234 179.839 8.75586 179.709 8.01758H178.519C178.642 9.27539 179.729 10.123 181.288 10.123C182.949 10.123 184.118 9.24805 184.118 8.01074C184.118 6.96484 183.599 6.44531 182.163 6.08301L181.062 5.81641C180.256 5.61133 179.88 5.2832 179.88 4.79102C179.88 4.16895 180.454 3.73828 181.322 3.73828C182.197 3.73828 182.751 4.16211 182.833 4.8457H183.968C183.913 3.64258 182.833 2.76758 181.363 2.76758C179.798 2.76758 178.711 3.63574 178.711 4.85254ZM185.557 10H186.746V2.89062H185.557V10ZM186.152 1.69434C186.562 1.69434 186.897 1.35938 186.897 0.956055C186.897 0.545898 186.562 0.217773 186.152 0.217773C185.748 0.217773 185.413 0.545898 185.413 0.956055C185.413 1.35938 185.748 1.69434 186.152 1.69434ZM191.384 9.00879C190.161 9.00879 189.361 8.01074 189.361 6.41797C189.361 4.8252 190.161 3.81348 191.384 3.81348C192.622 3.81348 193.449 4.85254 193.449 6.41797C193.449 7.9834 192.622 9.00879 191.384 9.00879ZM191.425 12.6797C193.387 12.6797 194.638 11.5518 194.638 9.85645V2.89062H193.504V4.08691H193.483C193.011 3.25977 192.177 2.76758 191.172 2.76758C189.334 2.76758 188.144 4.18945 188.144 6.41797C188.144 8.62598 189.334 10.0547 191.145 10.0547C192.143 10.0547 192.984 9.54883 193.421 8.77637H193.449V9.89746C193.449 10.957 192.704 11.668 191.473 11.668C190.585 11.668 189.88 11.2373 189.648 10.5879H188.424C188.623 11.7979 189.86 12.6797 191.425 12.6797ZM196.33 10H197.519V5.81641C197.519 4.61328 198.251 3.82031 199.372 3.82031C200.466 3.82031 201.006 4.44922 201.006 5.59766V10H202.195V5.38574C202.195 3.77246 201.293 2.76758 199.734 2.76758C198.634 2.76758 197.875 3.25977 197.478 4.02539H197.451V2.89062H196.33V10ZM207.452 12.6592C208.737 12.6592 209.325 12.1602 209.933 10.499L212.729 2.89062H211.478L209.509 8.81055H209.489L207.52 2.89062H206.249L208.874 10.0068L208.71 10.5059C208.436 11.333 208.067 11.6543 207.404 11.6543C207.254 11.6543 207.069 11.6475 206.939 11.6201V12.6182C207.069 12.6455 207.308 12.6592 207.452 12.6592ZM216.554 10.123C218.516 10.123 219.842 8.70801 219.842 6.44531C219.842 4.17578 218.516 2.76758 216.554 2.76758C214.585 2.76758 213.259 4.17578 213.259 6.44531C213.259 8.70801 214.585 10.123 216.554 10.123ZM216.554 9.07715C215.296 9.07715 214.469 8.12012 214.469 6.44531C214.469 4.77051 215.296 3.81348 216.554 3.81348C217.812 3.81348 218.632 4.77051 218.632 6.44531C218.632 8.12012 217.812 9.07715 216.554 9.07715ZM227.023 2.89062H225.833V7.06738C225.833 8.27734 225.136 9.07031 223.981 9.07031C222.88 9.07031 222.34 8.44824 222.34 7.29297V2.89062H221.151V7.50488C221.151 9.11816 222.06 10.123 223.612 10.123C224.705 10.123 225.444 9.66504 225.868 8.84473H225.895V10H227.023V2.89062ZM234.665 10.123C236.627 10.123 237.953 8.70801 237.953 6.44531C237.953 4.17578 236.627 2.76758 234.665 2.76758C232.696 2.76758 231.37 4.17578 231.37 6.44531C231.37 8.70801 232.696 10.123 234.665 10.123ZM234.665 9.07715C233.407 9.07715 232.58 8.12012 232.58 6.44531C232.58 4.77051 233.407 3.81348 234.665 3.81348C235.923 3.81348 236.743 4.77051 236.743 6.44531C236.743 8.12012 235.923 9.07715 234.665 9.07715ZM245.134 2.89062H243.945V7.06738C243.945 8.27734 243.248 9.07031 242.092 9.07031C240.992 9.07031 240.452 8.44824 240.452 7.29297V2.89062H239.262V7.50488C239.262 9.11816 240.171 10.123 241.723 10.123C242.817 10.123 243.555 9.66504 243.979 8.84473H244.006V10H245.134V2.89062ZM247.202 1.1748V2.89062H246.142V3.86816H247.202V8.1543C247.202 9.52148 247.708 10.0547 249.014 10.0547C249.294 10.0547 249.622 10.0342 249.765 10V9.00195C249.683 9.01562 249.41 9.03613 249.273 9.03613C248.665 9.03613 248.391 8.74219 248.391 8.09277V3.86816H249.772V2.89062H248.391V1.1748H247.202ZM256.54 9.11133C255.685 9.11133 255.118 8.66699 255.118 7.99023C255.118 7.32031 255.665 6.89648 256.622 6.83496L258.522 6.71875V7.2998C258.522 8.3252 257.661 9.11133 256.54 9.11133ZM256.273 10.123C257.23 10.123 258.132 9.58984 258.556 8.77637H258.584V10H259.711V5.08496C259.711 3.66992 258.659 2.76758 256.991 2.76758C255.309 2.76758 254.256 3.71094 254.174 4.94141H255.323C255.473 4.24414 256.047 3.81348 256.963 3.81348C257.948 3.81348 258.522 4.33301 258.522 5.20117V5.7959L256.485 5.91211C254.844 6.00781 253.908 6.77344 253.908 7.99023C253.908 9.26855 254.858 10.123 256.273 10.123ZM261.362 10H262.552V5.81641C262.552 4.61328 263.283 3.82031 264.404 3.82031C265.498 3.82031 266.038 4.44922 266.038 5.59766V10H267.227V5.38574C267.227 3.77246 266.325 2.76758 264.767 2.76758C263.666 2.76758 262.907 3.25977 262.511 4.02539H262.483V2.89062H261.362V10ZM269.473 12.6592C270.758 12.6592 271.346 12.1602 271.954 10.499L274.75 2.89062H273.499L271.531 8.81055H271.51L269.541 2.89062H268.27L270.895 10.0068L270.731 10.5059C270.457 11.333 270.088 11.6543 269.425 11.6543C269.275 11.6543 269.09 11.6475 268.96 11.6201V12.6182C269.09 12.6455 269.329 12.6592 269.473 12.6592ZM284.878 2.89062H283.702L282.28 8.67383H282.253L280.639 2.89062H279.491L277.884 8.67383H277.857L276.435 2.89062H275.253L277.242 10H278.452L280.051 4.49707H280.079L281.685 10H282.895L284.878 2.89062ZM286.057 10H287.246V5.85742C287.246 4.62695 287.978 3.82031 289.16 3.82031C290.274 3.82031 290.842 4.49707 290.842 5.625V10H292.031V5.40625C292.031 3.82031 291.088 2.76758 289.529 2.76758C288.449 2.76758 287.67 3.23242 287.273 4.02539H287.246V0.135742H286.057V10ZM296.533 3.7998C297.654 3.7998 298.399 4.64746 298.426 5.83691H294.564C294.639 4.6543 295.418 3.7998 296.533 3.7998ZM298.399 7.96289C298.201 8.63281 297.537 9.09082 296.635 9.09082C295.357 9.09082 294.557 8.19531 294.557 6.83496V6.7666H299.657V6.31543C299.657 4.16211 298.474 2.76758 296.553 2.76758C294.591 2.76758 293.333 4.26465 293.333 6.47266C293.333 8.70801 294.571 10.123 296.608 10.123C298.16 10.123 299.363 9.20703 299.568 7.96289H298.399ZM301 10H302.189V5.57031C302.189 4.56543 302.791 3.90234 303.714 3.90234C304.001 3.90234 304.254 3.93652 304.349 3.9707V2.81543C304.254 2.80176 304.076 2.76758 303.871 2.76758C303.037 2.76758 302.381 3.2666 302.148 4.05273H302.121V2.89062H301V10ZM307.969 3.7998C309.09 3.7998 309.835 4.64746 309.862 5.83691H306C306.075 4.6543 306.855 3.7998 307.969 3.7998ZM309.835 7.96289C309.637 8.63281 308.974 9.09082 308.071 9.09082C306.793 9.09082 305.993 8.19531 305.993 6.83496V6.7666H311.093V6.31543C311.093 4.16211 309.91 2.76758 307.989 2.76758C306.027 2.76758 304.77 4.26465 304.77 6.47266C304.77 8.70801 306.007 10.123 308.044 10.123C309.596 10.123 310.799 9.20703 311.004 7.96289H309.835ZM1.36035 32.6592C2.64551 32.6592 3.2334 32.1602 3.8418 30.499L6.6377 22.8906H5.38672L3.41797 28.8105H3.39746L1.42871 22.8906H0.157227L2.78223 30.0068L2.61816 30.5059C2.34473 31.333 1.97559 31.6543 1.3125 31.6543C1.16211 31.6543 0.977539 31.6475 0.847656 31.6201V32.6182C0.977539 32.6455 1.2168 32.6592 1.36035 32.6592ZM10.4623 30.123C12.4242 30.123 13.7504 28.708 13.7504 26.4453C13.7504 24.1758 12.4242 22.7676 10.4623 22.7676C8.49352 22.7676 7.16734 24.1758 7.16734 26.4453C7.16734 28.708 8.49352 30.123 10.4623 30.123ZM10.4623 29.0771C9.20445 29.0771 8.3773 28.1201 8.3773 26.4453C8.3773 24.7705 9.20445 23.8135 10.4623 23.8135C11.7201 23.8135 12.5404 24.7705 12.5404 26.4453C12.5404 28.1201 11.7201 29.0771 10.4623 29.0771ZM20.9314 22.8906H19.7419V27.0674C19.7419 28.2773 19.0446 29.0703 17.8894 29.0703C16.7888 29.0703 16.2487 28.4482 16.2487 27.293V22.8906H15.0593V27.5049C15.0593 29.1182 15.9685 30.123 17.5202 30.123C18.614 30.123 19.3523 29.665 19.7761 28.8447H19.8034V30H20.9314V22.8906ZM23.71 23.6152L24.6466 20.1357H23.3819L22.7188 23.6152H23.71ZM25.9555 30H27.145V25.5703C27.145 24.5654 27.7465 23.9023 28.6694 23.9023C28.9565 23.9023 29.2094 23.9365 29.3051 23.9707V22.8154C29.2094 22.8018 29.0317 22.7676 28.8266 22.7676C27.9926 22.7676 27.3364 23.2666 27.1039 24.0527H27.0766V22.8906H25.9555V30ZM32.9246 23.7998C34.0457 23.7998 34.7908 24.6475 34.8182 25.8369H30.9559C31.0311 24.6543 31.8104 23.7998 32.9246 23.7998ZM34.7908 27.9629C34.5926 28.6328 33.9295 29.0908 33.0271 29.0908C31.7488 29.0908 30.949 28.1953 30.949 26.835V26.7666H36.0486V26.3154C36.0486 24.1621 34.866 22.7676 32.9451 22.7676C30.9832 22.7676 29.7254 24.2646 29.7254 26.4727C29.7254 28.708 30.9627 30.123 32.9998 30.123C34.5516 30.123 35.7547 29.207 35.9598 27.9629H34.7908ZM46.3091 25.2217C46.1587 23.9434 45.0991 22.7676 43.3218 22.7676C41.3599 22.7676 40.0542 24.2031 40.0542 26.4453C40.0542 28.7354 41.3667 30.123 43.3355 30.123C44.9487 30.123 46.1382 29.125 46.3228 27.71H45.1538C44.9487 28.5645 44.313 29.0771 43.3423 29.0771C42.1118 29.0771 41.2642 28.0996 41.2642 26.4453C41.2642 24.832 42.0982 23.8135 43.3286 23.8135C44.3745 23.8135 44.9761 24.4492 45.147 25.2217H46.3091ZM53.3944 22.8906H52.205V27.0674C52.205 28.2773 51.5077 29.0703 50.3524 29.0703C49.2518 29.0703 48.7118 28.4482 48.7118 27.293V22.8906H47.5223V27.5049C47.5223 29.1182 48.4315 30.123 49.9833 30.123C51.077 30.123 51.8153 29.665 52.2391 28.8447H52.2665V30H53.3944V22.8906ZM55.0793 30H56.2688V25.5703C56.2688 24.5654 56.8703 23.9023 57.7932 23.9023C58.0803 23.9023 58.3332 23.9365 58.4289 23.9707V22.8154C58.3332 22.8018 58.1555 22.7676 57.9504 22.7676C57.1164 22.7676 56.4602 23.2666 56.2278 24.0527H56.2004V22.8906H55.0793V30ZM59.5396 30H60.7291V25.5703C60.7291 24.5654 61.3307 23.9023 62.2535 23.9023C62.5406 23.9023 62.7936 23.9365 62.8893 23.9707V22.8154C62.7936 22.8018 62.6158 22.7676 62.4107 22.7676C61.5768 22.7676 60.9205 23.2666 60.6881 24.0527H60.6607V22.8906H59.5396V30ZM66.5088 23.7998C67.6298 23.7998 68.375 24.6475 68.4023 25.8369H64.54C64.6152 24.6543 65.3945 23.7998 66.5088 23.7998ZM68.375 27.9629C68.1767 28.6328 67.5136 29.0908 66.6113 29.0908C65.333 29.0908 64.5332 28.1953 64.5332 26.835V26.7666H69.6328V26.3154C69.6328 24.1621 68.4502 22.7676 66.5293 22.7676C64.5673 22.7676 63.3095 24.2646 63.3095 26.4727C63.3095 28.708 64.5468 30.123 66.5839 30.123C68.1357 30.123 69.3388 29.207 69.5439 27.9629H68.375ZM70.9759 30H72.1654V25.8164C72.1654 24.6133 72.8968 23.8203 74.0179 23.8203C75.1116 23.8203 75.6517 24.4492 75.6517 25.5977V30H76.8411V25.3857C76.8411 23.7725 75.9388 22.7676 74.3802 22.7676C73.2796 22.7676 72.5208 23.2598 72.1243 24.0254H72.097V22.8906H70.9759V30ZM78.8815 21.1748V22.8906H77.822V23.8682H78.8815V28.1543C78.8815 29.5215 79.3874 30.0547 80.693 30.0547C80.9733 30.0547 81.3014 30.0342 81.445 30V29.002C81.363 29.0156 81.0895 29.0361 80.9528 29.0361C80.3444 29.0361 80.071 28.7422 80.071 28.0928V23.8682H81.4518V22.8906H80.071V21.1748H78.8815ZM82.9248 30H84.1143V20.1357H82.9248V30ZM86.4486 32.6592C87.7338 32.6592 88.3217 32.1602 88.9301 30.499L91.726 22.8906H90.475L88.5062 28.8105H88.4857L86.517 22.8906H85.2455L87.8705 30.0068L87.7064 30.5059C87.433 31.333 87.0639 31.6543 86.4008 31.6543C86.2504 31.6543 86.0658 31.6475 85.9359 31.6201V32.6182C86.0658 32.6455 86.3051 32.6592 86.4486 32.6592ZM95.6974 24.8525C95.6974 25.8232 96.3126 26.4658 97.5636 26.7871L98.8146 27.1084C99.6144 27.3203 99.9083 27.5938 99.9083 28.0996C99.9083 28.7422 99.3136 29.1523 98.3497 29.1523C97.3859 29.1523 96.8253 28.7559 96.6954 28.0176H95.506C95.629 29.2754 96.7159 30.123 98.2745 30.123C99.9357 30.123 101.105 29.248 101.105 28.0107C101.105 26.9648 100.585 26.4453 99.1495 26.083L98.0489 25.8164C97.2423 25.6113 96.8663 25.2832 96.8663 24.791C96.8663 24.1689 97.4405 23.7383 98.3087 23.7383C99.1837 23.7383 99.7374 24.1621 99.8195 24.8457H100.954C100.9 23.6426 99.8195 22.7676 98.3497 22.7676C96.7843 22.7676 95.6974 23.6357 95.6974 24.8525ZM102.543 30H103.733V22.8906H102.543V30ZM103.138 21.6943C103.548 21.6943 103.883 21.3594 103.883 20.9561C103.883 20.5459 103.548 20.2178 103.138 20.2178C102.735 20.2178 102.4 20.5459 102.4 20.9561C102.4 21.3594 102.735 21.6943 103.138 21.6943ZM108.371 29.0088C107.147 29.0088 106.348 28.0107 106.348 26.418C106.348 24.8252 107.147 23.8135 108.371 23.8135C109.608 23.8135 110.435 24.8525 110.435 26.418C110.435 27.9834 109.608 29.0088 108.371 29.0088ZM108.412 32.6797C110.374 32.6797 111.625 31.5518 111.625 29.8564V22.8906H110.49V24.0869H110.47C109.998 23.2598 109.164 22.7676 108.159 22.7676C106.32 22.7676 105.131 24.1895 105.131 26.418C105.131 28.626 106.32 30.0547 108.132 30.0547C109.13 30.0547 109.971 29.5488 110.408 28.7764H110.435V29.8975C110.435 30.957 109.69 31.668 108.46 31.668C107.571 31.668 106.867 31.2373 106.635 30.5879H105.411C105.609 31.7979 106.847 32.6797 108.412 32.6797ZM113.317 30H114.506V25.8164C114.506 24.6133 115.238 23.8203 116.359 23.8203C117.452 23.8203 117.992 24.4492 117.992 25.5977V30H119.182V25.3857C119.182 23.7725 118.279 22.7676 116.721 22.7676C115.62 22.7676 114.862 23.2598 114.465 24.0254H114.438V22.8906H113.317V30ZM123.69 23.7998C124.811 23.7998 125.556 24.6475 125.584 25.8369H121.721C121.796 24.6543 122.576 23.7998 123.69 23.7998ZM125.556 27.9629C125.358 28.6328 124.695 29.0908 123.793 29.0908C122.514 29.0908 121.714 28.1953 121.714 26.835V26.7666H126.814V26.3154C126.814 24.1621 125.631 22.7676 123.711 22.7676C121.749 22.7676 120.491 24.2646 120.491 26.4727C120.491 28.708 121.728 30.123 123.765 30.123C125.317 30.123 126.52 29.207 126.725 27.9629H125.556ZM130.851 30.123C131.876 30.123 132.689 29.6172 133.147 28.7969H133.168V30H134.303V20.1357H133.113V24.0459H133.086C132.662 23.2666 131.842 22.7676 130.823 22.7676C129.032 22.7676 127.809 24.2168 127.809 26.4453C127.809 28.6738 129.039 30.123 130.851 30.123ZM131.076 23.8135C132.3 23.8135 133.12 24.8594 133.12 26.4453C133.12 28.0381 132.3 29.0771 131.076 29.0771C129.818 29.0771 129.025 28.0586 129.025 26.4453C129.025 24.8389 129.818 23.8135 131.076 23.8135ZM139.122 30H140.311V22.8906H139.122V30ZM139.716 21.6943C140.127 21.6943 140.462 21.3594 140.462 20.9561C140.462 20.5459 140.127 20.2178 139.716 20.2178C139.313 20.2178 138.978 20.5459 138.978 20.9561C138.978 21.3594 139.313 21.6943 139.716 21.6943ZM142.058 30H143.247V25.8164C143.247 24.6133 143.979 23.8203 145.1 23.8203C146.193 23.8203 146.733 24.4492 146.733 25.5977V30H147.923V25.3857C147.923 23.7725 147.021 22.7676 145.462 22.7676C144.361 22.7676 143.603 23.2598 143.206 24.0254H143.179V22.8906H142.058V30ZM150.585 30.0684C151.023 30.0684 151.365 29.7266 151.365 29.2891C151.365 28.8516 151.023 28.5098 150.585 28.5098C150.148 28.5098 149.806 28.8516 149.806 29.2891C149.806 29.7266 150.148 30.0684 150.585 30.0684ZM161.263 22.1729H161.331L163.607 30H164.77L167.456 20.1357H166.171L164.195 28.1885H164.141L161.919 20.1357H160.675L158.453 28.1885H158.399L156.423 20.1357H155.138L157.824 30H158.986L161.263 22.1729ZM170.775 23.7998C171.896 23.7998 172.641 24.6475 172.668 25.8369H168.806C168.881 24.6543 169.661 23.7998 170.775 23.7998ZM172.641 27.9629C172.443 28.6328 171.78 29.0908 170.877 29.0908C169.599 29.0908 168.799 28.1953 168.799 26.835V26.7666H173.899V26.3154C173.899 24.1621 172.716 22.7676 170.795 22.7676C168.833 22.7676 167.576 24.2646 167.576 26.4727C167.576 28.708 168.813 30.123 170.85 30.123C172.402 30.123 173.605 29.207 173.81 27.9629H172.641ZM187.297 22.8906H186.121L184.699 28.6738H184.672L183.059 22.8906H181.91L180.304 28.6738H180.277L178.855 22.8906H177.672L179.661 30H180.871L182.471 24.4971H182.498L184.105 30H185.315L187.297 22.8906ZM188.476 30H189.666V22.8906H188.476V30ZM189.071 21.6943C189.481 21.6943 189.816 21.3594 189.816 20.9561C189.816 20.5459 189.481 20.2178 189.071 20.2178C188.667 20.2178 188.333 20.5459 188.333 20.9561C188.333 21.3594 188.667 21.6943 189.071 21.6943ZM191.474 30H192.663V20.1357H191.474V30ZM194.471 30H195.66V20.1357H194.471V30ZM200.801 21.1748V22.8906H199.741V23.8682H200.801V28.1543C200.801 29.5215 201.307 30.0547 202.612 30.0547C202.893 30.0547 203.221 30.0342 203.364 30V29.002C203.282 29.0156 203.009 29.0361 202.872 29.0361C202.264 29.0361 201.99 28.7422 201.99 28.0928V23.8682H203.371V22.8906H201.99V21.1748H200.801ZM204.844 30H206.034V25.8574C206.034 24.627 206.765 23.8203 207.948 23.8203C209.062 23.8203 209.629 24.4971 209.629 25.625V30H210.819V25.4062C210.819 23.8203 209.875 22.7676 208.317 22.7676C207.237 22.7676 206.457 23.2324 206.061 24.0254H206.034V20.1357H204.844V30ZM215.32 23.7998C216.441 23.7998 217.186 24.6475 217.214 25.8369H213.351C213.426 24.6543 214.206 23.7998 215.32 23.7998ZM217.186 27.9629C216.988 28.6328 216.325 29.0908 215.423 29.0908C214.144 29.0908 213.344 28.1953 213.344 26.835V26.7666H218.444V26.3154C218.444 24.1621 217.261 22.7676 215.341 22.7676C213.379 22.7676 212.121 24.2646 212.121 26.4727C212.121 28.708 213.358 30.123 215.395 30.123C216.947 30.123 218.15 29.207 218.355 27.9629H217.186ZM219.787 30H220.977V25.8164C220.977 24.6133 221.708 23.8203 222.829 23.8203C223.923 23.8203 224.463 24.4492 224.463 25.5977V30H225.652V25.3857C225.652 23.7725 224.75 22.7676 223.191 22.7676C222.091 22.7676 221.332 23.2598 220.936 24.0254H220.908V22.8906H219.787V30ZM230.321 30H231.511V25.5703C231.511 24.5654 232.112 23.9023 233.035 23.9023C233.322 23.9023 233.575 23.9365 233.671 23.9707V22.8154C233.575 22.8018 233.397 22.7676 233.192 22.7676C232.358 22.7676 231.702 23.2666 231.469 24.0527H231.442V22.8906H230.321V30ZM237.29 23.7998C238.411 23.7998 239.156 24.6475 239.184 25.8369H235.321C235.397 24.6543 236.176 23.7998 237.29 23.7998ZM239.156 27.9629C238.958 28.6328 238.295 29.0908 237.393 29.0908C236.114 29.0908 235.315 28.1953 235.315 26.835V26.7666H240.414V26.3154C240.414 24.1621 239.232 22.7676 237.311 22.7676C235.349 22.7676 234.091 24.2646 234.091 26.4727C234.091 28.708 235.328 30.123 237.365 30.123C238.917 30.123 240.12 29.207 240.325 27.9629H239.156ZM244.437 22.7676C242.612 22.7676 241.409 24.21 241.409 26.4453C241.409 28.6738 242.612 30.123 244.41 30.123C245.415 30.123 246.242 29.624 246.686 28.8105H246.713V32.3721H247.903V22.8906H246.768V24.0938H246.741C246.283 23.2734 245.469 22.7676 244.437 22.7676ZM244.649 29.0771C243.405 29.0771 242.625 28.0654 242.625 26.4453C242.625 24.8184 243.405 23.8135 244.649 23.8135C245.866 23.8135 246.713 24.8594 246.713 26.4453C246.713 28.0312 245.866 29.0771 244.649 29.0771ZM255.432 22.8906H254.243V27.0674C254.243 28.2773 253.546 29.0703 252.39 29.0703C251.29 29.0703 250.75 28.4482 250.75 27.293V22.8906H249.56V27.5049C249.56 29.1182 250.47 30.123 252.021 30.123C253.115 30.123 253.853 29.665 254.277 28.8447H254.305V30H255.432V22.8906ZM257.179 30H258.368V22.8906H257.179V30ZM257.774 21.6943C258.184 21.6943 258.519 21.3594 258.519 20.9561C258.519 20.5459 258.184 20.2178 257.774 20.2178C257.37 20.2178 257.035 20.5459 257.035 20.9561C257.035 21.3594 257.37 21.6943 257.774 21.6943ZM260.115 30H261.304V25.5703C261.304 24.5654 261.906 23.9023 262.829 23.9023C263.116 23.9023 263.369 23.9365 263.464 23.9707V22.8154C263.369 22.8018 263.191 22.7676 262.986 22.7676C262.152 22.7676 261.496 23.2666 261.263 24.0527H261.236V22.8906H260.115V30ZM267.084 23.7998C268.205 23.7998 268.95 24.6475 268.977 25.8369H265.115C265.19 24.6543 265.97 23.7998 267.084 23.7998ZM268.95 27.9629C268.752 28.6328 268.089 29.0908 267.186 29.0908C265.908 29.0908 265.108 28.1953 265.108 26.835V26.7666H270.208V26.3154C270.208 24.1621 269.025 22.7676 267.104 22.7676C265.142 22.7676 263.885 24.2646 263.885 26.4727C263.885 28.708 265.122 30.123 267.159 30.123C268.711 30.123 269.914 29.207 270.119 27.9629H268.95ZM275.15 32.6592C276.435 32.6592 277.023 32.1602 277.631 30.499L280.427 22.8906H279.176L277.208 28.8105H277.187L275.218 22.8906H273.947L276.572 30.0068L276.408 30.5059C276.134 31.333 275.765 31.6543 275.102 31.6543C274.952 31.6543 274.767 31.6475 274.637 31.6201V32.6182C274.767 32.6455 275.006 32.6592 275.15 32.6592ZM284.252 30.123C286.214 30.123 287.54 28.708 287.54 26.4453C287.54 24.1758 286.214 22.7676 284.252 22.7676C282.283 22.7676 280.957 24.1758 280.957 26.4453C280.957 28.708 282.283 30.123 284.252 30.123ZM284.252 29.0771C282.994 29.0771 282.167 28.1201 282.167 26.4453C282.167 24.7705 282.994 23.8135 284.252 23.8135C285.51 23.8135 286.33 24.7705 286.33 26.4453C286.33 28.1201 285.51 29.0771 284.252 29.0771ZM294.721 22.8906H293.532V27.0674C293.532 28.2773 292.834 29.0703 291.679 29.0703C290.578 29.0703 290.038 28.4482 290.038 27.293V22.8906H288.849V27.5049C288.849 29.1182 289.758 30.123 291.31 30.123C292.404 30.123 293.142 29.665 293.566 28.8447H293.593V30H294.721V22.8906ZM299.8 21.1748V22.8906H298.74V23.8682H299.8V28.1543C299.8 29.5215 300.306 30.0547 301.611 30.0547C301.892 30.0547 302.22 30.0342 302.363 30V29.002C302.281 29.0156 302.008 29.0361 301.871 29.0361C301.263 29.0361 300.989 28.7422 300.989 28.0928V23.8682H302.37V22.8906H300.989V21.1748H299.8ZM306.523 30.123C308.485 30.123 309.811 28.708 309.811 26.4453C309.811 24.1758 308.485 22.7676 306.523 22.7676C304.554 22.7676 303.228 24.1758 303.228 26.4453C303.228 28.708 304.554 30.123 306.523 30.123ZM306.523 29.0771C305.265 29.0771 304.438 28.1201 304.438 26.4453C304.438 24.7705 305.265 23.8135 306.523 23.8135C307.781 23.8135 308.601 24.7705 308.601 26.4453C308.601 28.1201 307.781 29.0771 306.523 29.0771ZM3.62305 43.7998C4.74414 43.7998 5.48926 44.6475 5.5166 45.8369H1.6543C1.72949 44.6543 2.50879 43.7998 3.62305 43.7998ZM5.48926 47.9629C5.29102 48.6328 4.62793 49.0908 3.72559 49.0908C2.44727 49.0908 1.64746 48.1953 1.64746 46.835V46.7666H6.74707V46.3154C6.74707 44.1621 5.56445 42.7676 3.64355 42.7676C1.68164 42.7676 0.423828 44.2646 0.423828 46.4727C0.423828 48.708 1.66113 50.123 3.69824 50.123C5.25 50.123 6.45312 49.207 6.6582 47.9629H5.48926ZM8.0902 50H9.27965V45.8164C9.27965 44.6133 10.0111 43.8203 11.1322 43.8203C12.2259 43.8203 12.766 44.4492 12.766 45.5977V50H13.9554V45.3857C13.9554 43.7725 13.0531 42.7676 11.4945 42.7676C10.3939 42.7676 9.63512 43.2598 9.23863 44.0254H9.21129V42.8906H8.0902V50ZM15.9958 41.1748V42.8906H14.9362V43.8682H15.9958V48.1543C15.9958 49.5215 16.5017 50.0547 17.8073 50.0547C18.0876 50.0547 18.4157 50.0342 18.5593 50V49.002C18.4773 49.0156 18.2038 49.0361 18.0671 49.0361C17.4587 49.0361 17.1853 48.7422 17.1853 48.0928V43.8682H18.5661V42.8906H17.1853V41.1748H15.9958ZM22.6231 43.7998C23.7442 43.7998 24.4893 44.6475 24.5167 45.8369H20.6544C20.7296 44.6543 21.5089 43.7998 22.6231 43.7998ZM24.4893 47.9629C24.2911 48.6328 23.628 49.0908 22.7257 49.0908C21.4473 49.0908 20.6475 48.1953 20.6475 46.835V46.7666H25.7471V46.3154C25.7471 44.1621 24.5645 42.7676 22.6436 42.7676C20.6817 42.7676 19.4239 44.2646 19.4239 46.4727C19.4239 48.708 20.6612 50.123 22.6983 50.123C24.2501 50.123 25.4532 49.207 25.6583 47.9629H24.4893ZM27.0903 50H28.2797V45.5703C28.2797 44.5654 28.8813 43.9023 29.8041 43.9023C30.0912 43.9023 30.3442 43.9365 30.4399 43.9707V42.8154C30.3442 42.8018 30.1664 42.7676 29.9614 42.7676C29.1274 42.7676 28.4711 43.2666 28.2387 44.0527H28.2114V42.8906H27.0903V50ZM36.9064 49.1113C36.0519 49.1113 35.4845 48.667 35.4845 47.9902C35.4845 47.3203 36.0314 46.8965 36.9884 46.835L38.8888 46.7188V47.2998C38.8888 48.3252 38.0275 49.1113 36.9064 49.1113ZM36.6398 50.123C37.5968 50.123 38.4992 49.5898 38.923 48.7764H38.9504V50H40.0783V45.085C40.0783 43.6699 39.0255 42.7676 37.3576 42.7676C35.6759 42.7676 34.6232 43.7109 34.5412 44.9414H35.6896C35.84 44.2441 36.4142 43.8135 37.3302 43.8135C38.3146 43.8135 38.8888 44.333 38.8888 45.2012V45.7959L36.8517 45.9121C35.2111 46.0078 34.2746 46.7734 34.2746 47.9902C34.2746 49.2686 35.2248 50.123 36.6398 50.123ZM50.5712 42.8906H49.3339L47.3651 48.7354H47.3378L45.3759 42.8906H44.1249L46.743 50H47.9598L50.5712 42.8906ZM54.2932 43.7998C55.4143 43.7998 56.1594 44.6475 56.1868 45.8369H52.3245C52.3996 44.6543 53.1789 43.7998 54.2932 43.7998ZM56.1594 47.9629C55.9612 48.6328 55.2981 49.0908 54.3957 49.0908C53.1174 49.0908 52.3176 48.1953 52.3176 46.835V46.7666H57.4172V46.3154C57.4172 44.1621 56.2346 42.7676 54.3137 42.7676C52.3518 42.7676 51.094 44.2646 51.094 46.4727C51.094 48.708 52.3313 50.123 54.3684 50.123C55.9202 50.123 57.1233 49.207 57.3284 47.9629H56.1594ZM58.7604 50H59.9498V45.5703C59.9498 44.5654 60.5514 43.9023 61.4742 43.9023C61.7613 43.9023 62.0143 43.9365 62.11 43.9707V42.8154C62.0143 42.8018 61.8365 42.7676 61.6314 42.7676C60.7975 42.7676 60.1412 43.2666 59.9088 44.0527H59.8814V42.8906H58.7604V50ZM63.2822 50H64.4716V42.8906H63.2822V50ZM63.8769 41.6943C64.2871 41.6943 64.622 41.3594 64.622 40.9561C64.622 40.5459 64.2871 40.2178 63.8769 40.2178C63.4736 40.2178 63.1386 40.5459 63.1386 40.9561C63.1386 41.3594 63.4736 41.6943 63.8769 41.6943ZM66.6009 50H67.7904V43.8682H69.2396V42.8906H67.7835V42.1045C67.7835 41.4004 68.0911 41.0586 68.7337 41.0586C68.932 41.0586 69.1302 41.0791 69.2738 41.0996V40.1357C69.1029 40.1084 68.8157 40.0811 68.5491 40.0811C67.2366 40.0811 66.6009 40.7305 66.6009 42.0977V42.8906H65.6097V43.8682H66.6009V50ZM70.6716 50H71.861V42.8906H70.6716V50ZM71.2663 41.6943C71.6764 41.6943 72.0114 41.3594 72.0114 40.9561C72.0114 40.5459 71.6764 40.2178 71.2663 40.2178C70.863 40.2178 70.528 40.5459 70.528 40.9561C70.528 41.3594 70.863 41.6943 71.2663 41.6943ZM79.5137 45.2217C79.3633 43.9434 78.3037 42.7676 76.5264 42.7676C74.5645 42.7676 73.2588 44.2031 73.2588 46.4453C73.2588 48.7354 74.5713 50.123 76.5401 50.123C78.1534 50.123 79.3428 49.125 79.5274 47.71H78.3584C78.1534 48.5645 77.5176 49.0771 76.5469 49.0771C75.3164 49.0771 74.4688 48.0996 74.4688 46.4453C74.4688 44.832 75.3028 43.8135 76.5332 43.8135C77.5791 43.8135 78.1807 44.4492 78.3516 45.2217H79.5137ZM83.1059 49.1113C82.2514 49.1113 81.684 48.667 81.684 47.9902C81.684 47.3203 82.2309 46.8965 83.1879 46.835L85.0883 46.7188V47.2998C85.0883 48.3252 84.227 49.1113 83.1059 49.1113ZM82.8393 50.123C83.7963 50.123 84.6986 49.5898 85.1225 48.7764H85.1498V50H86.2777V45.085C86.2777 43.6699 85.225 42.7676 83.557 42.7676C81.8754 42.7676 80.8227 43.7109 80.7406 44.9414H81.8891C82.0395 44.2441 82.6137 43.8135 83.5297 43.8135C84.5141 43.8135 85.0883 44.333 85.0883 45.2012V45.7959L83.0512 45.9121C81.4105 46.0078 80.474 46.7734 80.474 47.9902C80.474 49.2686 81.4242 50.123 82.8393 50.123ZM88.3113 41.1748V42.8906H87.2517V43.8682H88.3113V48.1543C88.3113 49.5215 88.8171 50.0547 90.1228 50.0547C90.4031 50.0547 90.7312 50.0342 90.8748 50V49.002C90.7927 49.0156 90.5193 49.0361 90.3826 49.0361C89.7742 49.0361 89.5007 48.7422 89.5007 48.0928V43.8682H90.8816V42.8906H89.5007V41.1748H88.3113ZM92.3546 50H93.5441V42.8906H92.3546V50ZM92.9493 41.6943C93.3595 41.6943 93.6945 41.3594 93.6945 40.9561C93.6945 40.5459 93.3595 40.2178 92.9493 40.2178C92.546 40.2178 92.2111 40.5459 92.2111 40.9561C92.2111 41.3594 92.546 41.6943 92.9493 41.6943ZM98.2368 50.123C100.199 50.123 101.525 48.708 101.525 46.4453C101.525 44.1758 100.199 42.7676 98.2368 42.7676C96.268 42.7676 94.9419 44.1758 94.9419 46.4453C94.9419 48.708 96.268 50.123 98.2368 50.123ZM98.2368 49.0771C96.979 49.0771 96.1518 48.1201 96.1518 46.4453C96.1518 44.7705 96.979 43.8135 98.2368 43.8135C99.4946 43.8135 100.315 44.7705 100.315 46.4453C100.315 48.1201 99.4946 49.0771 98.2368 49.0771ZM102.868 50H104.057V45.8164C104.057 44.6133 104.789 43.8203 105.91 43.8203C107.004 43.8203 107.544 44.4492 107.544 45.5977V50H108.733V45.3857C108.733 43.7725 107.831 42.7676 106.272 42.7676C105.172 42.7676 104.413 43.2598 104.016 44.0254H103.989V42.8906H102.868V50ZM119.308 45.2217C119.158 43.9434 118.098 42.7676 116.321 42.7676C114.359 42.7676 113.053 44.2031 113.053 46.4453C113.053 48.7354 114.366 50.123 116.335 50.123C117.948 50.123 119.137 49.125 119.322 47.71H118.153C117.948 48.5645 117.312 49.0771 116.341 49.0771C115.111 49.0771 114.263 48.0996 114.263 46.4453C114.263 44.832 115.097 43.8135 116.328 43.8135C117.374 43.8135 117.975 44.4492 118.146 45.2217H119.308ZM123.502 50.123C125.464 50.123 126.79 48.708 126.79 46.4453C126.79 44.1758 125.464 42.7676 123.502 42.7676C121.533 42.7676 120.207 44.1758 120.207 46.4453C120.207 48.708 121.533 50.123 123.502 50.123ZM123.502 49.0771C122.244 49.0771 121.417 48.1201 121.417 46.4453C121.417 44.7705 122.244 43.8135 123.502 43.8135C124.76 43.8135 125.58 44.7705 125.58 46.4453C125.58 48.1201 124.76 49.0771 123.502 49.0771ZM130.826 50.123C131.852 50.123 132.665 49.6172 133.123 48.7969H133.144V50H134.279V40.1357H133.089V44.0459H133.062C132.638 43.2666 131.818 42.7676 130.799 42.7676C129.008 42.7676 127.784 44.2168 127.784 46.4453C127.784 48.6738 129.015 50.123 130.826 50.123ZM131.052 43.8135C132.276 43.8135 133.096 44.8594 133.096 46.4453C133.096 48.0381 132.276 49.0771 131.052 49.0771C129.794 49.0771 129.001 48.0586 129.001 46.4453C129.001 44.8389 129.794 43.8135 131.052 43.8135ZM138.876 43.7998C139.997 43.7998 140.742 44.6475 140.769 45.8369H136.907C136.982 44.6543 137.761 43.7998 138.876 43.7998ZM140.742 47.9629C140.544 48.6328 139.881 49.0908 138.978 49.0908C137.7 49.0908 136.9 48.1953 136.9 46.835V46.7666H142V46.3154C142 44.1621 140.817 42.7676 138.896 42.7676C136.934 42.7676 135.676 44.2646 135.676 46.4727C135.676 48.708 136.914 50.123 138.951 50.123C140.503 50.123 141.706 49.207 141.911 47.9629H140.742ZM146.737 41.1748V42.8906H145.677V43.8682H146.737V48.1543C146.737 49.5215 147.243 50.0547 148.548 50.0547C148.828 50.0547 149.157 50.0342 149.3 50V49.002C149.218 49.0156 148.945 49.0361 148.808 49.0361C148.2 49.0361 147.926 48.7422 147.926 48.0928V43.8682H149.307V42.8906H147.926V41.1748H146.737ZM150.78 50H151.969V45.8574C151.969 44.627 152.701 43.8203 153.884 43.8203C154.998 43.8203 155.565 44.4971 155.565 45.625V50H156.755V45.4062C156.755 43.8203 155.811 42.7676 154.253 42.7676C153.173 42.7676 152.393 43.2324 151.997 44.0254H151.969V40.1357H150.78V50ZM161.256 43.7998C162.377 43.7998 163.122 44.6475 163.149 45.8369H159.287C159.362 44.6543 160.142 43.7998 161.256 43.7998ZM163.122 47.9629C162.924 48.6328 162.261 49.0908 161.358 49.0908C160.08 49.0908 159.28 48.1953 159.28 46.835V46.7666H164.38V46.3154C164.38 44.1621 163.197 42.7676 161.276 42.7676C159.315 42.7676 158.057 44.2646 158.057 46.4727C158.057 48.708 159.294 50.123 161.331 50.123C162.883 50.123 164.086 49.207 164.291 47.9629H163.122ZM169.117 50H170.306V43.8682H171.756V42.8906H170.3V42.1045C170.3 41.4004 170.607 41.0586 171.25 41.0586C171.448 41.0586 171.646 41.0791 171.79 41.0996V40.1357C171.619 40.1084 171.332 40.0811 171.065 40.0811C169.753 40.0811 169.117 40.7305 169.117 42.0977V42.8906H168.126V43.8682H169.117V50ZM173.188 50H174.377V42.8906H173.188V50ZM173.782 41.6943C174.193 41.6943 174.527 41.3594 174.527 40.9561C174.527 40.5459 174.193 40.2178 173.782 40.2178C173.379 40.2178 173.044 40.5459 173.044 40.9561C173.044 41.3594 173.379 41.6943 173.782 41.6943ZM176.124 50H177.313V45.5703C177.313 44.5654 177.915 43.9023 178.837 43.9023C179.125 43.9023 179.377 43.9365 179.473 43.9707V42.8154C179.377 42.8018 179.2 42.7676 178.995 42.7676C178.161 42.7676 177.504 43.2666 177.272 44.0527H177.245V42.8906H176.124V50ZM180.461 44.8525C180.461 45.8232 181.076 46.4658 182.327 46.7871L183.578 47.1084C184.378 47.3203 184.672 47.5938 184.672 48.0996C184.672 48.7422 184.077 49.1523 183.113 49.1523C182.149 49.1523 181.589 48.7559 181.459 48.0176H180.269C180.392 49.2754 181.479 50.123 183.038 50.123C184.699 50.123 185.868 49.248 185.868 48.0107C185.868 46.9648 185.349 46.4453 183.913 46.083L182.812 45.8164C182.006 45.6113 181.63 45.2832 181.63 44.791C181.63 44.1689 182.204 43.7383 183.072 43.7383C183.947 43.7383 184.501 44.1621 184.583 44.8457H185.718C185.663 43.6426 184.583 42.7676 183.113 42.7676C181.548 42.7676 180.461 43.6357 180.461 44.8525ZM187.628 41.1748V42.8906H186.569V43.8682H187.628V48.1543C187.628 49.5215 188.134 50.0547 189.44 50.0547C189.72 50.0547 190.048 50.0342 190.192 50V49.002C190.11 49.0156 189.836 49.0361 189.699 49.0361C189.091 49.0361 188.818 48.7422 188.818 48.0928V43.8682H190.198V42.8906H188.818V41.1748H187.628ZM195.004 41.1748V42.8906H193.944V43.8682H195.004V48.1543C195.004 49.5215 195.51 50.0547 196.815 50.0547C197.096 50.0547 197.424 50.0342 197.567 50V49.002C197.485 49.0156 197.212 49.0361 197.075 49.0361C196.467 49.0361 196.193 48.7422 196.193 48.0928V43.8682H197.574V42.8906H196.193V41.1748H195.004ZM199.047 50H200.237V42.8906H199.047V50ZM199.642 41.6943C200.052 41.6943 200.387 41.3594 200.387 40.9561C200.387 40.5459 200.052 40.2178 199.642 40.2178C199.239 40.2178 198.904 40.5459 198.904 40.9561C198.904 41.3594 199.239 41.6943 199.642 41.6943ZM201.983 50H203.173V45.543C203.173 44.5586 203.856 43.8203 204.799 43.8203C205.681 43.8203 206.256 44.3809 206.256 45.2354V50H207.445V45.4814C207.445 44.5176 208.108 43.8203 209.051 43.8203C209.988 43.8203 210.528 44.3945 210.528 45.3652V50H211.717V45.0918C211.717 43.6836 210.808 42.7676 209.4 42.7676C208.402 42.7676 207.568 43.2734 207.172 44.1211H207.144C206.837 43.2598 206.119 42.7676 205.148 42.7676C204.191 42.7676 203.466 43.2734 203.132 44.0254H203.104V42.8906H201.983V50ZM216.226 43.7998C217.347 43.7998 218.092 44.6475 218.119 45.8369H214.257C214.332 44.6543 215.111 43.7998 216.226 43.7998ZM218.092 47.9629C217.894 48.6328 217.231 49.0908 216.328 49.0908C215.05 49.0908 214.25 48.1953 214.25 46.835V46.7666H219.35V46.3154C219.35 44.1621 218.167 42.7676 216.246 42.7676C214.284 42.7676 213.026 44.2646 213.026 46.4727C213.026 48.708 214.264 50.123 216.301 50.123C217.853 50.123 219.056 49.207 219.261 47.9629H218.092ZM224.292 52.6592C225.577 52.6592 226.165 52.1602 226.773 50.499L229.569 42.8906H228.318L226.349 48.8105H226.329L224.36 42.8906H223.089L225.714 50.0068L225.55 50.5059C225.276 51.333 224.907 51.6543 224.244 51.6543C224.094 51.6543 223.909 51.6475 223.779 51.6201V52.6182C223.909 52.6455 224.148 52.6592 224.292 52.6592ZM233.394 50.123C235.356 50.123 236.682 48.708 236.682 46.4453C236.682 44.1758 235.356 42.7676 233.394 42.7676C231.425 42.7676 230.099 44.1758 230.099 46.4453C230.099 48.708 231.425 50.123 233.394 50.123ZM233.394 49.0771C232.136 49.0771 231.309 48.1201 231.309 46.4453C231.309 44.7705 232.136 43.8135 233.394 43.8135C234.651 43.8135 235.472 44.7705 235.472 46.4453C235.472 48.1201 234.651 49.0771 233.394 49.0771ZM243.863 42.8906H242.673V47.0674C242.673 48.2773 241.976 49.0703 240.821 49.0703C239.72 49.0703 239.18 48.4482 239.18 47.293V42.8906H237.991V47.5049C237.991 49.1182 238.9 50.123 240.452 50.123C241.545 50.123 242.284 49.665 242.708 48.8447H242.735V50H243.863V42.8906ZM248.436 44.8525C248.436 45.8232 249.051 46.4658 250.302 46.7871L251.553 47.1084C252.353 47.3203 252.647 47.5938 252.647 48.0996C252.647 48.7422 252.052 49.1523 251.088 49.1523C250.124 49.1523 249.564 48.7559 249.434 48.0176H248.244C248.367 49.2754 249.454 50.123 251.013 50.123C252.674 50.123 253.843 49.248 253.843 48.0107C253.843 46.9648 253.323 46.4453 251.888 46.083L250.787 45.8164C249.981 45.6113 249.605 45.2832 249.605 44.791C249.605 44.1689 250.179 43.7383 251.047 43.7383C251.922 43.7383 252.476 44.1621 252.558 44.8457H253.693C253.638 43.6426 252.558 42.7676 251.088 42.7676C249.523 42.7676 248.436 43.6357 248.436 44.8525ZM255.282 50H256.471V42.8906H255.282V50ZM255.877 41.6943C256.287 41.6943 256.622 41.3594 256.622 40.9561C256.622 40.5459 256.287 40.2178 255.877 40.2178C255.473 40.2178 255.138 40.5459 255.138 40.9561C255.138 41.3594 255.473 41.6943 255.877 41.6943ZM261.109 49.0088C259.886 49.0088 259.086 48.0107 259.086 46.418C259.086 44.8252 259.886 43.8135 261.109 43.8135C262.347 43.8135 263.174 44.8525 263.174 46.418C263.174 47.9834 262.347 49.0088 261.109 49.0088ZM261.15 52.6797C263.112 52.6797 264.363 51.5518 264.363 49.8564V42.8906H263.228V44.0869H263.208C262.736 43.2598 261.902 42.7676 260.897 42.7676C259.059 42.7676 257.869 44.1895 257.869 46.418C257.869 48.626 259.059 50.0547 260.87 50.0547C261.868 50.0547 262.709 49.5488 263.146 48.7764H263.174V49.8975C263.174 50.957 262.429 51.668 261.198 51.668C260.309 51.668 259.605 51.2373 259.373 50.5879H258.149C258.348 51.7979 259.585 52.6797 261.15 52.6797ZM266.055 50H267.244V45.8164C267.244 44.6133 267.976 43.8203 269.097 43.8203C270.191 43.8203 270.731 44.4492 270.731 45.5977V50H271.92V45.3857C271.92 43.7725 271.018 42.7676 269.459 42.7676C268.359 42.7676 267.6 43.2598 267.203 44.0254H267.176V42.8906H266.055V50ZM285.633 42.8906H284.457L283.035 48.6738H283.008L281.395 42.8906H280.246L278.64 48.6738H278.612L277.19 42.8906H276.008L277.997 50H279.207L280.807 44.4971H280.834L282.44 50H283.65L285.633 42.8906ZM286.812 50H288.001V42.8906H286.812V50ZM287.407 41.6943C287.817 41.6943 288.152 41.3594 288.152 40.9561C288.152 40.5459 287.817 40.2178 287.407 40.2178C287.003 40.2178 286.668 40.5459 286.668 40.9561C286.668 41.3594 287.003 41.6943 287.407 41.6943ZM290.131 41.1748V42.8906H289.071V43.8682H290.131V48.1543C290.131 49.5215 290.636 50.0547 291.942 50.0547C292.222 50.0547 292.551 50.0342 292.694 50V49.002C292.612 49.0156 292.339 49.0361 292.202 49.0361C291.593 49.0361 291.32 48.7422 291.32 48.0928V43.8682H292.701V42.8906H291.32V41.1748H290.131ZM294.174 50H295.363V45.8574C295.363 44.627 296.095 43.8203 297.277 43.8203C298.392 43.8203 298.959 44.4971 298.959 45.625V50H300.149V45.4062C300.149 43.8203 299.205 42.7676 297.647 42.7676C296.566 42.7676 295.787 43.2324 295.391 44.0254H295.363V40.1357H294.174V50ZM307.155 49.1113C306.301 49.1113 305.733 48.667 305.733 47.9902C305.733 47.3203 306.28 46.8965 307.237 46.835L309.138 46.7188V47.2998C309.138 48.3252 308.276 49.1113 307.155 49.1113ZM306.888 50.123C307.846 50.123 308.748 49.5898 309.172 48.7764H309.199V50H310.327V45.085C310.327 43.6699 309.274 42.7676 307.606 42.7676C305.925 42.7676 304.872 43.7109 304.79 44.9414H305.938C306.089 44.2441 306.663 43.8135 307.579 43.8135C308.563 43.8135 309.138 44.333 309.138 45.2012V45.7959L307.1 45.9121C305.46 46.0078 304.523 46.7734 304.523 47.9902C304.523 49.2686 305.473 50.123 306.888 50.123ZM0.772461 70H1.96191V65.8164C1.96191 64.6133 2.69336 63.8203 3.81445 63.8203C4.9082 63.8203 5.44824 64.4492 5.44824 65.5977V70H6.6377V65.3857C6.6377 63.7725 5.73535 62.7676 4.17676 62.7676C3.07617 62.7676 2.31738 63.2598 1.9209 64.0254H1.89355V62.8906H0.772461V70ZM11.1459 63.7998C12.267 63.7998 13.0121 64.6475 13.0394 65.8369H9.17711C9.2523 64.6543 10.0316 63.7998 11.1459 63.7998ZM13.0121 67.9629C12.8138 68.6328 12.1507 69.0908 11.2484 69.0908C9.97008 69.0908 9.17027 68.1953 9.17027 66.835V66.7666H14.2699V66.3154C14.2699 64.1621 13.0873 62.7676 11.1664 62.7676C9.20445 62.7676 7.94664 64.2646 7.94664 66.4727C7.94664 68.708 9.18395 70.123 11.2211 70.123C12.7728 70.123 13.9759 69.207 14.181 67.9629H13.0121ZM24.657 62.8906H23.4812L22.0593 68.6738H22.032L20.4187 62.8906H19.2702L17.6638 68.6738H17.6364L16.2146 62.8906H15.032L17.0212 70H18.2312L19.8308 64.4971H19.8581L21.4646 70H22.6745L24.657 62.8906ZM31.4789 70.123C32.5043 70.123 33.3178 69.6172 33.7758 68.7969H33.7963V70H34.9311V60.1357H33.7416V64.0459H33.7143C33.2905 63.2666 32.4702 62.7676 31.4516 62.7676C29.6606 62.7676 28.437 64.2168 28.437 66.4453C28.437 68.6738 29.6674 70.123 31.4789 70.123ZM31.7045 63.8135C32.9282 63.8135 33.7485 64.8594 33.7485 66.4453C33.7485 68.0381 32.9282 69.0771 31.7045 69.0771C30.4467 69.0771 29.6537 68.0586 29.6537 66.4453C29.6537 64.8389 30.4467 63.8135 31.7045 63.8135ZM39.5281 63.7998C40.6492 63.7998 41.3943 64.6475 41.4217 65.8369H37.5594C37.6346 64.6543 38.4139 63.7998 39.5281 63.7998ZM41.3943 67.9629C41.1961 68.6328 40.533 69.0908 39.6307 69.0908C38.3523 69.0908 37.5525 68.1953 37.5525 66.835V66.7666H42.6521V66.3154C42.6521 64.1621 41.4695 62.7676 39.5486 62.7676C37.5867 62.7676 36.3289 64.2646 36.3289 66.4727C36.3289 68.708 37.5662 70.123 39.6033 70.123C41.1551 70.123 42.3582 69.207 42.5633 67.9629H41.3943ZM49.8263 62.8906H48.589L46.6203 68.7354H46.5929L44.631 62.8906H43.38L45.9982 70H47.215L49.8263 62.8906ZM50.9644 70H52.1538V62.8906H50.9644V70ZM51.5591 61.6943C51.9693 61.6943 52.3042 61.3594 52.3042 60.9561C52.3042 60.5459 51.9693 60.2178 51.5591 60.2178C51.1558 60.2178 50.8208 60.5459 50.8208 60.9561C50.8208 61.3594 51.1558 61.6943 51.5591 61.6943ZM59.8065 65.2217C59.6561 63.9434 58.5966 62.7676 56.8192 62.7676C54.8573 62.7676 53.5516 64.2031 53.5516 66.4453C53.5516 68.7354 54.8641 70.123 56.8329 70.123C58.4462 70.123 59.6356 69.125 59.8202 67.71H58.6512C58.4462 68.5645 57.8104 69.0771 56.8397 69.0771C55.6093 69.0771 54.7616 68.0996 54.7616 66.4453C54.7616 64.832 55.5956 63.8135 56.8261 63.8135C57.872 63.8135 58.4735 64.4492 58.6444 65.2217H59.8065ZM63.9045 63.7998C65.0256 63.7998 65.7707 64.6475 65.7981 65.8369H61.9358C62.011 64.6543 62.7903 63.7998 63.9045 63.7998ZM65.7707 67.9629C65.5725 68.6328 64.9094 69.0908 64.0071 69.0908C62.7287 69.0908 61.9289 68.1953 61.9289 66.835V66.7666H67.0286V66.3154C67.0286 64.1621 65.8459 62.7676 63.925 62.7676C61.9631 62.7676 60.7053 64.2646 60.7053 66.4727C60.7053 68.708 61.9426 70.123 63.9797 70.123C65.5315 70.123 66.7346 69.207 66.9397 67.9629H65.7707ZM74.3291 70.123C76.291 70.123 77.6171 68.708 77.6171 66.4453C77.6171 64.1758 76.291 62.7676 74.3291 62.7676C72.3603 62.7676 71.0341 64.1758 71.0341 66.4453C71.0341 68.708 72.3603 70.123 74.3291 70.123ZM74.3291 69.0771C73.0713 69.0771 72.2441 68.1201 72.2441 66.4453C72.2441 64.7705 73.0713 63.8135 74.3291 63.8135C75.5869 63.8135 76.4072 64.7705 76.4072 66.4453C76.4072 68.1201 75.5869 69.0771 74.3291 69.0771ZM78.9603 70H80.1497V65.5703C80.1497 64.5654 80.7513 63.9023 81.6741 63.9023C81.9613 63.9023 82.2142 63.9365 82.3099 63.9707V62.8154C82.2142 62.8018 82.0364 62.7676 81.8314 62.7676C80.9974 62.7676 80.3411 63.2666 80.1087 64.0527H80.0814V62.8906H78.9603V70ZM85.9463 67.6826C85.9463 69.1797 87.0948 70.2324 88.7354 70.2324C90.5537 70.2324 91.6338 69.125 91.6338 67.252V60.1357H90.4034V67.2451C90.4034 68.4482 89.8155 69.0977 88.7286 69.0977C87.833 69.0977 87.1973 68.5166 87.17 67.6826H85.9463ZM96.4496 70.123C98.4115 70.123 99.7377 68.708 99.7377 66.4453C99.7377 64.1758 98.4115 62.7676 96.4496 62.7676C94.4809 62.7676 93.1547 64.1758 93.1547 66.4453C93.1547 68.708 94.4809 70.123 96.4496 70.123ZM96.4496 69.0771C95.1918 69.0771 94.3646 68.1201 94.3646 66.4453C94.3646 64.7705 95.1918 63.8135 96.4496 63.8135C97.7074 63.8135 98.5277 64.7705 98.5277 66.4453C98.5277 68.1201 97.7074 69.0771 96.4496 69.0771ZM104.615 70.123C106.433 70.123 107.636 68.6807 107.636 66.4453C107.636 64.2168 106.427 62.7676 104.636 62.7676C103.631 62.7676 102.803 63.2666 102.359 64.0801H102.332V60.1357H101.142V70H102.277V68.7969H102.304C102.762 69.6172 103.576 70.123 104.615 70.123ZM104.383 63.8135C105.64 63.8135 106.42 64.832 106.42 66.4453C106.42 68.0723 105.64 69.0771 104.383 69.0771C103.179 69.0771 102.325 68.0312 102.325 66.4453C102.325 64.8662 103.179 63.8135 104.383 63.8135ZM109.369 72.6592C110.654 72.6592 111.242 72.1602 111.851 70.499L114.647 62.8906H113.396L111.427 68.8105H111.406L109.438 62.8906H108.166L110.791 70.0068L110.627 70.5059C110.354 71.333 109.984 71.6543 109.321 71.6543C109.171 71.6543 108.986 71.6475 108.857 71.6201V72.6182C108.986 72.6455 109.226 72.6592 109.369 72.6592ZM118.741 70H119.931V65.543C119.931 64.5586 120.614 63.8203 121.557 63.8203C122.439 63.8203 123.014 64.3809 123.014 65.2354V70H124.203V65.4814C124.203 64.5176 124.866 63.8203 125.809 63.8203C126.746 63.8203 127.286 64.3945 127.286 65.3652V70H128.475V65.0918C128.475 63.6836 127.566 62.7676 126.158 62.7676C125.16 62.7676 124.326 63.2734 123.93 64.1211H123.902C123.595 63.2598 122.877 62.7676 121.906 62.7676C120.949 62.7676 120.224 63.2734 119.889 64.0254H119.862V62.8906H118.741V70ZM133.079 70.123C135.041 70.123 136.367 68.708 136.367 66.4453C136.367 64.1758 135.041 62.7676 133.079 62.7676C131.111 62.7676 129.784 64.1758 129.784 66.4453C129.784 68.708 131.111 70.123 133.079 70.123ZM133.079 69.0771C131.821 69.0771 130.994 68.1201 130.994 66.4453C130.994 64.7705 131.821 63.8135 133.079 63.8135C134.337 63.8135 135.157 64.7705 135.157 66.4453C135.157 68.1201 134.337 69.0771 133.079 69.0771ZM141.245 70.123C143.063 70.123 144.266 68.6807 144.266 66.4453C144.266 64.2168 143.056 62.7676 141.265 62.7676C140.26 62.7676 139.433 63.2666 138.989 64.0801H138.961V60.1357H137.772V70H138.907V68.7969H138.934C139.392 69.6172 140.206 70.123 141.245 70.123ZM141.012 63.8135C142.27 63.8135 143.049 64.832 143.049 66.4453C143.049 68.0723 142.27 69.0771 141.012 69.0771C139.809 69.0771 138.955 68.0312 138.955 66.4453C138.955 64.8662 139.809 63.8135 141.012 63.8135ZM145.678 70H146.867V62.8906H145.678V70ZM146.272 61.6943C146.683 61.6943 147.018 61.3594 147.018 60.9561C147.018 60.5459 146.683 60.2178 146.272 60.2178C145.869 60.2178 145.534 60.5459 145.534 60.9561C145.534 61.3594 145.869 61.6943 146.272 61.6943ZM148.675 70H149.865V60.1357H148.675V70ZM154.462 63.7998C155.583 63.7998 156.328 64.6475 156.355 65.8369H152.493C152.568 64.6543 153.347 63.7998 154.462 63.7998ZM156.328 67.9629C156.13 68.6328 155.466 69.0908 154.564 69.0908C153.286 69.0908 152.486 68.1953 152.486 66.835V66.7666H157.586V66.3154C157.586 64.1621 156.403 62.7676 154.482 62.7676C152.52 62.7676 151.262 64.2646 151.262 66.4727C151.262 68.708 152.5 70.123 154.537 70.123C156.089 70.123 157.292 69.207 157.497 67.9629H156.328ZM164.285 69.1113C163.43 69.1113 162.863 68.667 162.863 67.9902C162.863 67.3203 163.41 66.8965 164.367 66.835L166.267 66.7188V67.2998C166.267 68.3252 165.406 69.1113 164.285 69.1113ZM164.018 70.123C164.975 70.123 165.877 69.5898 166.301 68.7764H166.328V70H167.456V65.085C167.456 63.6699 166.404 62.7676 164.736 62.7676C163.054 62.7676 162.001 63.7109 161.919 64.9414H163.068C163.218 64.2441 163.792 63.8135 164.708 63.8135C165.693 63.8135 166.267 64.333 166.267 65.2012V65.7959L164.23 65.9121C162.589 66.0078 161.653 66.7734 161.653 67.9902C161.653 69.2686 162.603 70.123 164.018 70.123ZM172.559 62.7676C171.527 62.7676 170.7 63.2939 170.262 64.0938H170.235V62.8906H169.107V72.3721H170.297V68.8447H170.324C170.748 69.624 171.568 70.123 172.587 70.123C174.378 70.123 175.601 68.6738 175.601 66.4453C175.601 64.2168 174.371 62.7676 172.559 62.7676ZM172.327 69.0771C171.11 69.0771 170.29 68.0312 170.29 66.4453C170.29 64.8662 171.11 63.8135 172.327 63.8135C173.592 63.8135 174.384 64.8389 174.384 66.4453C174.384 68.0586 173.592 69.0771 172.327 69.0771ZM180.397 62.7676C179.364 62.7676 178.537 63.2939 178.1 64.0938H178.072V62.8906H176.944V72.3721H178.134V68.8447H178.161C178.585 69.624 179.405 70.123 180.424 70.123C182.215 70.123 183.439 68.6738 183.439 66.4453C183.439 64.2168 182.208 62.7676 180.397 62.7676ZM180.164 69.0771C178.947 69.0771 178.127 68.0312 178.127 66.4453C178.127 64.8662 178.947 63.8135 180.164 63.8135C181.429 63.8135 182.222 64.8389 182.222 66.4453C182.222 68.0586 181.429 69.0771 180.164 69.0771ZM184.843 70H186.033V60.1357H184.843V70ZM187.841 70H189.03V62.8906H187.841V70ZM188.435 61.6943C188.846 61.6943 189.18 61.3594 189.18 60.9561C189.18 60.5459 188.846 60.2178 188.435 60.2178C188.032 60.2178 187.697 60.5459 187.697 60.9561C187.697 61.3594 188.032 61.6943 188.435 61.6943ZM196.683 65.2217C196.532 63.9434 195.473 62.7676 193.695 62.7676C191.734 62.7676 190.428 64.2031 190.428 66.4453C190.428 68.7354 191.74 70.123 193.709 70.123C195.322 70.123 196.512 69.125 196.696 67.71H195.527C195.322 68.5645 194.687 69.0771 193.716 69.0771C192.486 69.0771 191.638 68.0996 191.638 66.4453C191.638 64.832 192.472 63.8135 193.702 63.8135C194.748 63.8135 195.35 64.4492 195.521 65.2217H196.683ZM200.275 69.1113C199.42 69.1113 198.853 68.667 198.853 67.9902C198.853 67.3203 199.4 66.8965 200.357 66.835L202.257 66.7188V67.2998C202.257 68.3252 201.396 69.1113 200.275 69.1113ZM200.008 70.123C200.965 70.123 201.868 69.5898 202.292 68.7764H202.319V70H203.447V65.085C203.447 63.6699 202.394 62.7676 200.726 62.7676C199.044 62.7676 197.992 63.7109 197.91 64.9414H199.058C199.209 64.2441 199.783 63.8135 200.699 63.8135C201.683 63.8135 202.257 64.333 202.257 65.2012V65.7959L200.22 65.9121C198.58 66.0078 197.643 66.7734 197.643 67.9902C197.643 69.2686 198.593 70.123 200.008 70.123ZM205.48 61.1748V62.8906H204.421V63.8682H205.48V68.1543C205.48 69.5215 205.986 70.0547 207.292 70.0547C207.572 70.0547 207.9 70.0342 208.044 70V69.002C207.962 69.0156 207.688 69.0361 207.552 69.0361C206.943 69.0361 206.67 68.7422 206.67 68.0928V63.8682H208.051V62.8906H206.67V61.1748H205.48ZM209.524 70H210.713V62.8906H209.524V70ZM210.118 61.6943C210.529 61.6943 210.864 61.3594 210.864 60.9561C210.864 60.5459 210.529 60.2178 210.118 60.2178C209.715 60.2178 209.38 60.5459 209.38 60.9561C209.38 61.3594 209.715 61.6943 210.118 61.6943ZM215.406 70.123C217.368 70.123 218.694 68.708 218.694 66.4453C218.694 64.1758 217.368 62.7676 215.406 62.7676C213.437 62.7676 212.111 64.1758 212.111 66.4453C212.111 68.708 213.437 70.123 215.406 70.123ZM215.406 69.0771C214.148 69.0771 213.321 68.1201 213.321 66.4453C213.321 64.7705 214.148 63.8135 215.406 63.8135C216.664 63.8135 217.484 64.7705 217.484 66.4453C217.484 68.1201 216.664 69.0771 215.406 69.0771ZM220.037 70H221.227V65.8164C221.227 64.6133 221.958 63.8203 223.079 63.8203C224.173 63.8203 224.713 64.4492 224.713 65.5977V70H225.902V65.3857C225.902 63.7725 225 62.7676 223.441 62.7676C222.341 62.7676 221.582 63.2598 221.186 64.0254H221.158V62.8906H220.037V70ZM228.565 70.0684C229.002 70.0684 229.344 69.7266 229.344 69.2891C229.344 68.8516 229.002 68.5098 228.565 68.5098C228.127 68.5098 227.785 68.8516 227.785 69.2891C227.785 69.7266 228.127 70.0684 228.565 70.0684Z" fill="#6B7280"/>
</svg>
