<svg width="327" height="68" viewBox="0 0 327 68" fill="none" xmlns="http://www.w3.org/2000/svg">
<mask id="path-1-inside-1_137_3001" fill="white">
<path d="M0 0H327V68H0V0Z"/>
</mask>
<path d="M0 0H327V68H0V0Z" fill="white"/>
<rect y="14" width="40" height="40" rx="20" fill="#D6E4FF"/>
<path d="M13.295 38.6374L13.295 38.6374L13.293 38.6321C13.111 38.1489 13.1652 37.6003 13.4778 37.0839L13.4784 37.0829L14.4367 35.4912L14.4371 35.4906C14.5699 35.2693 14.6803 34.971 14.7571 34.6921C14.834 34.4129 14.8917 34.1001 14.8917 33.8417V31.4333C14.8917 28.6095 17.1929 26.3083 20.0167 26.3083C22.8406 26.3083 25.1417 28.6095 25.1417 31.4333V33.8417C25.1417 34.0963 25.1996 34.4091 25.276 34.689C25.3526 34.9694 25.4625 35.2703 25.5935 35.4942L25.5935 35.4943L25.5963 35.4989L26.5458 37.0814C26.5458 37.0815 26.5459 37.0816 26.546 37.0817C26.8263 37.5513 26.879 38.1186 26.689 38.636C26.5007 39.1491 26.0922 39.5388 25.5771 39.7084L25.5771 39.7084L25.574 39.7094C23.7936 40.3082 21.9059 40.6083 20.0167 40.6083C18.1284 40.6083 16.2413 40.3085 14.4528 39.71C13.8775 39.5108 13.4701 39.1191 13.295 38.6374ZM13.6967 37.2087L13.6967 37.2087L13.6953 37.2111C13.4587 37.609 13.3557 38.0943 13.5316 38.5498C13.6972 39.0095 14.0878 39.3138 14.5301 39.4648L14.5329 39.4658C18.1192 40.6669 21.9222 40.6669 25.5085 39.4659C25.952 39.3179 26.3012 38.9818 26.462 38.5365C26.6188 38.1023 26.5851 37.619 26.3363 37.2081C26.3362 37.2079 26.3361 37.2077 26.336 37.2075L25.3802 35.62C25.1084 35.1534 24.8917 34.3508 24.8917 33.8333V31.4333C24.8917 28.7405 22.7095 26.5583 20.0167 26.5583C17.3329 26.5583 15.1417 28.7399 15.1417 31.4333V33.8417C15.1417 34.3578 14.9174 35.1689 14.6535 35.6196L13.6967 37.2087Z" fill="#3366FF" stroke="#3366FF"/>
<path d="M21.5292 26.7776L21.5292 26.7776L21.5248 26.7763C21.2655 26.7048 21.0122 26.6503 20.7651 26.6137L20.7651 26.6137L20.756 26.6125C19.9832 26.5125 19.2289 26.5661 18.5154 26.7793L18.5154 26.7792L18.5055 26.7823C18.4676 26.7945 18.4201 26.7838 18.3876 26.7479C18.3535 26.7102 18.3466 26.6627 18.3632 26.622L18.3633 26.622L18.3659 26.6152C18.633 25.9313 19.2819 25.4833 20.0252 25.4833C20.7692 25.4833 21.4148 25.9231 21.6822 26.6095C21.7031 26.6683 21.6886 26.7167 21.6656 26.7446C21.6421 26.7676 21.6046 26.7833 21.5668 26.7833C21.5568 26.7833 21.5447 26.782 21.5292 26.7776Z" fill="#3366FF" stroke="#3366FF"/>
<path d="M18.1618 41.7381C17.7911 41.3674 17.5406 40.8921 17.4405 40.3833H17.6957C17.7921 40.8255 18.0143 41.2381 18.338 41.5619C18.7816 42.0054 19.392 42.2583 20.0166 42.2583C21.1546 42.2583 22.1084 41.4536 22.3386 40.3833H22.594C22.3602 41.5934 21.2945 42.5083 20.0166 42.5083C19.325 42.5083 18.652 42.2282 18.1618 41.7381Z" fill="#292D32" stroke="#3366FF"/>
<path d="M54.4844 39.5V30.6797H54.5547L60.7266 39.5H62.0938V28.2266H60.7031V37.0781H60.6328L54.4609 28.2266H53.0938V39.5H54.4844ZM67.5975 39.6406C69.8397 39.6406 71.3553 38.0234 71.3553 35.4375C71.3553 32.8438 69.8397 31.2344 67.5975 31.2344C65.3475 31.2344 63.8319 32.8438 63.8319 35.4375C63.8319 38.0234 65.3475 39.6406 67.5975 39.6406ZM67.5975 38.4453C66.16 38.4453 65.2147 37.3516 65.2147 35.4375C65.2147 33.5234 66.16 32.4297 67.5975 32.4297C69.035 32.4297 69.9725 33.5234 69.9725 35.4375C69.9725 37.3516 69.035 38.4453 67.5975 38.4453ZM73.3278 29.4141V31.375H72.1169V32.4922H73.3278V37.3906C73.3278 38.9531 73.9059 39.5625 75.3981 39.5625C75.7184 39.5625 76.0934 39.5391 76.2575 39.5V38.3594C76.1637 38.375 75.8512 38.3984 75.695 38.3984C74.9997 38.3984 74.6872 38.0625 74.6872 37.3203V32.4922H76.2653V31.375H74.6872V29.4141H73.3278ZM77.9487 39.5H79.3081V31.375H77.9487V39.5ZM78.6284 30.0078C79.0972 30.0078 79.48 29.625 79.48 29.1641C79.48 28.6953 79.0972 28.3203 78.6284 28.3203C78.1675 28.3203 77.7847 28.6953 77.7847 29.1641C77.7847 29.625 78.1675 30.0078 78.6284 30.0078ZM81.7416 39.5H83.1009V32.4922H84.7572V31.375H83.0931V30.4766C83.0931 29.6719 83.4447 29.2812 84.1791 29.2812C84.4056 29.2812 84.6322 29.3047 84.7962 29.3281V28.2266C84.6009 28.1953 84.2728 28.1641 83.9681 28.1641C82.4681 28.1641 81.7416 28.9062 81.7416 30.4688V31.375H80.6087V32.4922H81.7416V39.5ZM86.3937 39.5H87.7531V31.375H86.3937V39.5ZM87.0734 30.0078C87.5422 30.0078 87.925 29.625 87.925 29.1641C87.925 28.6953 87.5422 28.3203 87.0734 28.3203C86.6125 28.3203 86.2297 28.6953 86.2297 29.1641C86.2297 29.625 86.6125 30.0078 87.0734 30.0078ZM96.4991 34.0391C96.3272 32.5781 95.1162 31.2344 93.085 31.2344C90.8428 31.2344 89.3506 32.875 89.3506 35.4375C89.3506 38.0547 90.8506 39.6406 93.1006 39.6406C94.9444 39.6406 96.3037 38.5 96.5147 36.8828H95.1787C94.9444 37.8594 94.2178 38.4453 93.1084 38.4453C91.7022 38.4453 90.7334 37.3281 90.7334 35.4375C90.7334 33.5938 91.6866 32.4297 93.0928 32.4297C94.2881 32.4297 94.9756 33.1562 95.1709 34.0391H96.4991ZM100.604 38.4844C99.6278 38.4844 98.9794 37.9766 98.9794 37.2031C98.9794 36.4375 99.6044 35.9531 100.698 35.8828L102.87 35.75V36.4141C102.87 37.5859 101.886 38.4844 100.604 38.4844ZM100.3 39.6406C101.393 39.6406 102.425 39.0312 102.909 38.1016H102.94V39.5H104.229V33.8828C104.229 32.2656 103.026 31.2344 101.12 31.2344C99.1981 31.2344 97.995 32.3125 97.9012 33.7188H99.2137C99.3856 32.9219 100.042 32.4297 101.089 32.4297C102.214 32.4297 102.87 33.0234 102.87 34.0156V34.6953L100.542 34.8281C98.6669 34.9375 97.5966 35.8125 97.5966 37.2031C97.5966 38.6641 98.6825 39.6406 100.3 39.6406ZM106.553 29.4141V31.375H105.342V32.4922H106.553V37.3906C106.553 38.9531 107.132 39.5625 108.624 39.5625C108.944 39.5625 109.319 39.5391 109.483 39.5V38.3594C109.389 38.375 109.077 38.3984 108.921 38.3984C108.225 38.3984 107.913 38.0625 107.913 37.3203V32.4922H109.491V31.375H107.913V29.4141H106.553ZM111.174 39.5H112.534V31.375H111.174V39.5ZM111.854 30.0078C112.323 30.0078 112.706 29.625 112.706 29.1641C112.706 28.6953 112.323 28.3203 111.854 28.3203C111.393 28.3203 111.01 28.6953 111.01 29.1641C111.01 29.625 111.393 30.0078 111.854 30.0078ZM117.897 39.6406C120.139 39.6406 121.655 38.0234 121.655 35.4375C121.655 32.8438 120.139 31.2344 117.897 31.2344C115.647 31.2344 114.131 32.8438 114.131 35.4375C114.131 38.0234 115.647 39.6406 117.897 39.6406ZM117.897 38.4453C116.459 38.4453 115.514 37.3516 115.514 35.4375C115.514 33.5234 116.459 32.4297 117.897 32.4297C119.334 32.4297 120.272 33.5234 120.272 35.4375C120.272 37.3516 119.334 38.4453 117.897 38.4453ZM123.19 39.5H124.549V34.7188C124.549 33.3438 125.385 32.4375 126.666 32.4375C127.916 32.4375 128.533 33.1562 128.533 34.4688V39.5H129.893V34.2266C129.893 32.3828 128.862 31.2344 127.08 31.2344C125.823 31.2344 124.955 31.7969 124.502 32.6719H124.471V31.375H123.19V39.5Z" fill="#111827"/>
<path d="M320.62 38.5467C320.493 38.5467 320.367 38.5 320.267 38.4C320.073 38.2067 320.073 37.8867 320.267 37.6933L323.96 34L320.267 30.3067C320.073 30.1133 320.073 29.7933 320.267 29.6C320.46 29.4067 320.78 29.4067 320.973 29.6L325.02 33.6467C325.213 33.84 325.213 34.16 325.02 34.3533L320.973 38.4C320.873 38.5 320.747 38.5467 320.62 38.5467Z" fill="#111827"/>
<path d="M324.553 34.5H313.333C313.06 34.5 312.833 34.2733 312.833 34C312.833 33.7267 313.06 33.5 313.333 33.5H324.553C324.827 33.5 325.053 33.7267 325.053 34C325.053 34.2733 324.827 34.5 324.553 34.5Z" fill="#111827"/>
<path d="M327 67H0V69H327V67Z" fill="#E5E7EB" mask="url(#path-1-inside-1_137_3001)"/>
</svg>
