<svg width="375" height="36" viewBox="0 0 375 36" fill="none" xmlns="http://www.w3.org/2000/svg">
<rect x="0.5" y="0.5" width="374" height="35" fill="#F4F4F5"/>
<path d="M29.1748 12.9717C26.3311 12.9717 24.5537 14.9336 24.5537 18.0713C24.5537 21.209 26.3311 23.1641 29.1748 23.1641C32.0117 23.1641 33.7959 21.209 33.7959 18.0713C33.7959 14.9336 32.0117 12.9717 29.1748 12.9717ZM29.1748 14.3184C31.0479 14.3184 32.2236 15.7676 32.2236 18.0713C32.2236 20.3682 31.0479 21.8174 29.1748 21.8174C27.3018 21.8174 26.1191 20.3682 26.1191 18.0713C26.1191 15.7676 27.3018 14.3184 29.1748 14.3184ZM35.6517 14.1064V15.8086H34.6058V16.9775H35.6517V21.1064C35.6517 22.4941 36.2191 23.0479 37.6752 23.0479C38.0033 23.0479 38.3314 23.0205 38.4955 22.9795V21.8105C38.3998 21.8311 38.1605 21.8447 38.0101 21.8447C37.4086 21.8447 37.1351 21.5645 37.1351 20.9424V16.9775H38.5023V15.8086H37.1351V14.1064H35.6517ZM39.9138 23H41.3904V18.8438C41.3904 17.709 42.0603 16.957 43.154 16.957C44.1931 16.957 44.7263 17.5928 44.7263 18.6523V23H46.2097V18.3652C46.2097 16.7383 45.2663 15.6855 43.6872 15.6855C42.5935 15.6855 41.8073 16.1709 41.4109 17.0117H41.3767V13.1357H39.9138V23ZM50.7862 16.8682C51.8184 16.8682 52.5157 17.6406 52.5499 18.7412H48.9542C49.0294 17.6543 49.754 16.8682 50.7862 16.8682ZM52.543 20.8877C52.3448 21.5166 51.7227 21.9404 50.8819 21.9404C49.6993 21.9404 48.9473 21.1133 48.9473 19.8623V19.7734H54.0264V19.2676C54.0264 17.0869 52.7823 15.6787 50.7862 15.6787C48.7559 15.6787 47.4571 17.1826 47.4571 19.4385C47.4571 21.708 48.7354 23.1367 50.8477 23.1367C52.4952 23.1367 53.7393 22.2002 53.9444 20.8877H52.543ZM55.3149 23H56.7914V18.6934C56.7914 17.6748 57.3793 17.0391 58.3295 17.0391C58.6166 17.0391 58.8764 17.0732 58.9926 17.1211V15.7471C58.8832 15.7266 58.6987 15.6924 58.4868 15.6924C57.6391 15.6924 56.9965 16.1914 56.7573 17.0322H56.7231V15.8086H55.3149V23ZM59.9188 17.8457C59.9188 18.8506 60.575 19.5273 61.8738 19.8418L63.159 20.1562C63.9109 20.3477 64.1844 20.6006 64.1844 21.0586C64.1844 21.6396 63.6375 22.0088 62.7488 22.0088C61.8465 22.0088 61.3133 21.626 61.1971 20.9355H59.7342C59.8504 22.2549 60.9783 23.1367 62.6805 23.1367C64.4441 23.1367 65.6678 22.2344 65.6678 20.9219C65.6678 19.8623 65.1209 19.3154 63.6717 18.9668L62.4617 18.6865C61.7166 18.502 61.3611 18.2012 61.3611 17.7568C61.3611 17.1895 61.8943 16.7998 62.6941 16.7998C63.5213 16.7998 64.0477 17.2031 64.116 17.8525H65.5037C65.4559 16.5742 64.3348 15.6787 62.7352 15.6787C61.0535 15.6787 59.9188 16.5605 59.9188 17.8457Z" fill="#6B7280"/>
<rect x="0.5" y="0.5" width="374" height="35" stroke="#E5E7EB"/>
</svg>
