<svg width="327" height="254" viewBox="0 0 327 254" fill="none" xmlns="http://www.w3.org/2000/svg">
<path d="M5.91406 4.53906C2.66406 4.53906 0.632812 6.78125 0.632812 10.3672C0.632812 13.9531 2.66406 16.1875 5.91406 16.1875C9.15625 16.1875 11.1953 13.9531 11.1953 10.3672C11.1953 6.78125 9.15625 4.53906 5.91406 4.53906ZM5.91406 6.07812C8.05469 6.07812 9.39844 7.73438 9.39844 10.3672C9.39844 12.9922 8.05469 14.6484 5.91406 14.6484C3.77344 14.6484 2.42188 12.9922 2.42188 10.3672C2.42188 7.73438 3.77344 6.07812 5.91406 6.07812ZM13.3162 5.83594V7.78125H12.1209V9.11719H13.3162V13.8359C13.3162 15.4219 13.9647 16.0547 15.6287 16.0547C16.0037 16.0547 16.3787 16.0234 16.5662 15.9766V14.6406C16.4569 14.6641 16.1834 14.6797 16.0116 14.6797C15.3241 14.6797 15.0116 14.3594 15.0116 13.6484V9.11719H16.5741V7.78125H15.0116V5.83594H13.3162ZM18.1872 16H19.8747V11.25C19.8747 9.95312 20.6403 9.09375 21.8903 9.09375C23.0778 9.09375 23.6872 9.82031 23.6872 11.0312V16H25.3825V10.7031C25.3825 8.84375 24.3044 7.64062 22.4997 7.64062C21.2497 7.64062 20.3512 8.19531 19.8981 9.15625H19.8591V4.72656H18.1872V16ZM30.6128 8.99219C31.7925 8.99219 32.5894 9.875 32.6284 11.1328H28.5191C28.605 9.89062 29.4331 8.99219 30.6128 8.99219ZM32.6206 13.5859C32.3941 14.3047 31.6831 14.7891 30.7222 14.7891C29.3706 14.7891 28.5112 13.8438 28.5112 12.4141V12.3125H34.3159V11.7344C34.3159 9.24219 32.8941 7.63281 30.6128 7.63281C28.2925 7.63281 26.8081 9.35156 26.8081 11.9297C26.8081 14.5234 28.2691 16.1562 30.6831 16.1562C32.5659 16.1562 33.9878 15.0859 34.2222 13.5859H32.6206ZM35.7884 16H37.4759V11.0781C37.4759 9.91406 38.1478 9.1875 39.2337 9.1875C39.5619 9.1875 39.8587 9.22656 39.9916 9.28125V7.71094C39.8666 7.6875 39.6556 7.64844 39.4134 7.64844C38.4447 7.64844 37.7103 8.21875 37.4369 9.17969H37.3978V7.78125H35.7884V16ZM46.5616 16V11.2812H51.4053V9.80469H46.5616V6.23438H51.8506V4.72656H44.8116V16H46.5616ZM53.3856 16H55.0731V7.78125H53.3856V16ZM54.2294 6.57812C54.7762 6.57812 55.2137 6.14844 55.2137 5.61719C55.2137 5.07812 54.7762 4.64844 54.2294 4.64844C53.6903 4.64844 53.2528 5.07812 53.2528 5.61719C53.2528 6.14844 53.6903 6.57812 54.2294 6.57812ZM57.0222 16H58.7097V4.72656H57.0222V16ZM64.0416 8.99219C65.2212 8.99219 66.0181 9.875 66.0572 11.1328H61.9478C62.0337 9.89062 62.8619 8.99219 64.0416 8.99219ZM66.0494 13.5859C65.8228 14.3047 65.1119 14.7891 64.1509 14.7891C62.7994 14.7891 61.94 13.8438 61.94 12.4141V12.3125H67.7447V11.7344C67.7447 9.24219 66.3228 7.63281 64.0416 7.63281C61.7212 7.63281 60.2369 9.35156 60.2369 11.9297C60.2369 14.5234 61.6978 16.1562 64.1119 16.1562C65.9947 16.1562 67.4166 15.0859 67.6509 13.5859H66.0494Z" fill="#111827"/>
<rect x="0.75" y="33.75" width="325.5" height="219.5" rx="7.25" fill="#ECF2FF"/>
<rect x="135.5" y="49" width="56" height="56" rx="28" fill="#D6E4FF"/>
<path d="M174.833 74.5866H170.98C167.82 74.5866 165.247 72.0133 165.247 68.8533V65C165.247 64.2666 164.647 63.6666 163.913 63.6666H158.26C154.153 63.6666 150.833 66.3333 150.833 71.0933V82.9066C150.833 87.6666 154.153 90.3333 158.26 90.3333H168.74C172.847 90.3333 176.167 87.6666 176.167 82.9066V75.92C176.167 75.1866 175.567 74.5866 174.833 74.5866ZM162.873 79.04C162.673 79.24 162.42 79.3333 162.167 79.3333C161.913 79.3333 161.66 79.24 161.46 79.04L160.5 78.08V83.6666C160.5 84.2133 160.047 84.6666 159.5 84.6666C158.953 84.6666 158.5 84.2133 158.5 83.6666V78.08L157.54 79.04C157.153 79.4266 156.513 79.4266 156.127 79.04C155.74 78.6533 155.74 78.0133 156.127 77.6266L158.793 74.96C158.887 74.88 158.98 74.8133 159.087 74.76C159.113 74.7466 159.153 74.7333 159.18 74.72C159.26 74.6933 159.34 74.68 159.433 74.6666C159.473 74.6666 159.5 74.6666 159.54 74.6666C159.647 74.6666 159.753 74.6933 159.86 74.7333C159.873 74.7333 159.873 74.7333 159.887 74.7333C159.993 74.7733 160.1 74.8533 160.18 74.9333C160.193 74.9466 160.207 74.9466 160.207 74.96L162.873 77.6266C163.26 78.0133 163.26 78.6533 162.873 79.04Z" fill="#3366FF"/>
<path d="M170.74 72.7467C172.007 72.76 173.767 72.76 175.273 72.76C176.033 72.76 176.433 71.8667 175.9 71.3334C173.98 69.4 170.54 65.92 168.567 63.9467C168.02 63.4 167.073 63.7734 167.073 64.5334V69.1867C167.073 71.1334 168.727 72.7467 170.74 72.7467Z" fill="#3366FF"/>
<path d="M81.9284 126.317H79.9596V134.544C79.9596 137.277 81.9108 139.211 85.0924 139.211C88.2741 139.211 90.2252 137.277 90.2252 134.544V126.317H88.2653V134.377C88.2653 136.188 87.1139 137.462 85.0924 137.462C83.0709 137.462 81.9284 136.188 81.9284 134.377V126.317ZM97.331 129.604C95.9951 129.604 94.9316 130.281 94.3867 131.345H94.3515V129.754H92.5146V142.059H94.413V137.479H94.457C94.9843 138.508 96.039 139.158 97.3662 139.158C99.6865 139.158 101.225 137.304 101.225 134.377C101.225 131.45 99.6777 129.604 97.331 129.604ZM96.83 137.55C95.3711 137.55 94.4043 136.302 94.4043 134.377C94.4043 132.47 95.3798 131.204 96.83 131.204C98.333 131.204 99.2734 132.443 99.2734 134.377C99.2734 136.319 98.333 137.55 96.83 137.55ZM102.943 139H104.841V126.317H102.943V139ZM110.945 139.176C113.59 139.176 115.331 137.356 115.331 134.377C115.331 131.406 113.582 129.587 110.945 129.587C108.308 129.587 106.559 131.406 106.559 134.377C106.559 137.356 108.299 139.176 110.945 139.176ZM110.945 137.611C109.46 137.611 108.493 136.434 108.493 134.377C108.493 132.329 109.46 131.151 110.945 131.151C112.43 131.151 113.397 132.329 113.397 134.377C113.397 136.434 112.439 137.611 110.945 137.611ZM120.213 137.655C119.193 137.655 118.525 137.128 118.525 136.319C118.525 135.528 119.167 135.027 120.301 134.948L122.577 134.808V135.537C122.577 136.741 121.54 137.655 120.213 137.655ZM119.685 139.158C120.898 139.158 122.067 138.508 122.603 137.479H122.647V139H124.467V132.628C124.467 130.773 123.034 129.587 120.793 129.587C118.508 129.587 117.084 130.817 116.978 132.487H118.771C118.938 131.661 119.624 131.134 120.723 131.134C121.883 131.134 122.577 131.749 122.577 132.777V133.489L120.046 133.639C117.849 133.762 116.609 134.755 116.609 136.372C116.609 138.033 117.875 139.158 119.685 139.158ZM129.964 139.158C131.309 139.158 132.364 138.481 132.908 137.427H132.944V139H134.789V126.317H132.882V131.292H132.847C132.328 130.272 131.274 129.604 129.947 129.604C127.626 129.604 126.079 131.459 126.079 134.377C126.079 137.295 127.626 139.158 129.964 139.158ZM130.465 131.204C131.924 131.204 132.9 132.461 132.9 134.377C132.9 136.311 131.924 137.55 130.465 137.55C128.962 137.55 128.022 136.328 128.022 134.377C128.022 132.435 128.962 131.204 130.465 131.204ZM141.671 142.445C143.596 142.445 144.501 141.725 145.292 139.483L148.764 129.754H146.76L144.413 137.277H144.387L142.04 129.754H139.983L143.323 139.009C143.323 139.018 143.156 139.562 143.156 139.58C142.866 140.529 142.4 140.898 141.513 140.898C141.354 140.898 141.038 140.898 140.897 140.863V142.401C141.038 142.428 141.521 142.445 141.671 142.445ZM153.769 139.176C156.414 139.176 158.154 137.356 158.154 134.377C158.154 131.406 156.405 129.587 153.769 129.587C151.132 129.587 149.383 131.406 149.383 134.377C149.383 137.356 151.123 139.176 153.769 139.176ZM153.769 137.611C152.283 137.611 151.317 136.434 151.317 134.377C151.317 132.329 152.283 131.151 153.769 131.151C155.254 131.151 156.221 132.329 156.221 134.377C156.221 136.434 155.263 137.611 153.769 137.611ZM167.73 129.754H165.832V135.142C165.832 136.583 165.005 137.532 163.634 137.532C162.325 137.532 161.657 136.776 161.657 135.37V129.754H159.758V135.739C159.758 137.857 160.989 139.167 163.001 139.167C164.417 139.167 165.357 138.543 165.867 137.436H165.911V139H167.73V129.754ZM169.791 139H171.689V133.463C171.689 132.153 172.445 131.336 173.667 131.336C174.036 131.336 174.37 131.38 174.519 131.441V129.675C174.379 129.648 174.141 129.604 173.869 129.604C172.779 129.604 171.953 130.246 171.645 131.327H171.601V129.754H169.791V139ZM183.686 139.176C186.332 139.176 188.072 137.356 188.072 134.377C188.072 131.406 186.323 129.587 183.686 129.587C181.049 129.587 179.3 131.406 179.3 134.377C179.3 137.356 181.041 139.176 183.686 139.176ZM183.686 137.611C182.201 137.611 181.234 136.434 181.234 134.377C181.234 132.329 182.201 131.151 183.686 131.151C185.171 131.151 186.138 132.329 186.138 134.377C186.138 136.434 185.18 137.611 183.686 137.611ZM190.273 127.565V129.754H188.929V131.257H190.273V136.565C190.273 138.35 191.003 139.062 192.875 139.062C193.297 139.062 193.719 139.026 193.929 138.974V137.471C193.806 137.497 193.499 137.515 193.305 137.515C192.532 137.515 192.18 137.154 192.18 136.354V131.257H193.938V129.754H192.18V127.565H190.273ZM195.753 139H197.651V133.656C197.651 132.197 198.513 131.23 199.919 131.23C201.255 131.23 201.941 132.048 201.941 133.41V139H203.848V133.041C203.848 130.949 202.635 129.596 200.605 129.596C199.198 129.596 198.188 130.22 197.678 131.301H197.634V126.317H195.753V139ZM209.732 131.116C211.059 131.116 211.956 132.109 211.999 133.524H207.376C207.473 132.127 208.405 131.116 209.732 131.116ZM211.991 136.284C211.736 137.093 210.936 137.638 209.855 137.638C208.334 137.638 207.368 136.574 207.368 134.966V134.852H213.898V134.201C213.898 131.397 212.298 129.587 209.732 129.587C207.122 129.587 205.452 131.521 205.452 134.421C205.452 137.339 207.095 139.176 209.811 139.176C211.929 139.176 213.529 137.972 213.792 136.284H211.991ZM215.554 139H217.453V133.463C217.453 132.153 218.209 131.336 219.43 131.336C219.8 131.336 220.134 131.38 220.283 131.441V129.675C220.142 129.648 219.905 129.604 219.633 129.604C218.543 129.604 217.717 130.246 217.409 131.327H217.365V129.754H215.554V139ZM226.031 139H227.938V131.257H229.784V129.771H227.912V128.901C227.912 128.084 228.298 127.671 229.124 127.671C229.379 127.671 229.634 127.688 229.819 127.724V126.317C229.573 126.273 229.142 126.229 228.755 126.229C226.874 126.229 226.031 127.073 226.031 128.866V129.771H224.756V131.257H226.031V139ZM231.519 139H233.418V129.754H231.519V139ZM232.468 128.4C233.084 128.4 233.576 127.917 233.576 127.319C233.576 126.713 233.084 126.229 232.468 126.229C231.862 126.229 231.37 126.713 231.37 127.319C231.37 127.917 231.862 128.4 232.468 128.4ZM235.61 139H237.509V126.317H235.61V139ZM243.507 131.116C244.834 131.116 245.731 132.109 245.775 133.524H241.152C241.248 132.127 242.18 131.116 243.507 131.116ZM245.766 136.284C245.511 137.093 244.711 137.638 243.63 137.638C242.11 137.638 241.143 136.574 241.143 134.966V134.852H247.673V134.201C247.673 131.397 246.074 129.587 243.507 129.587C240.897 129.587 239.227 131.521 239.227 134.421C239.227 137.339 240.87 139.176 243.586 139.176C245.704 139.176 247.304 137.972 247.568 136.284H245.766Z" fill="#111827"/>
<path d="M122.587 165V156.545H121.362L118.444 163.6H118.397L115.479 156.545H114.255V165H115.239V158.484H115.28L117.975 164.941H118.866L121.561 158.484H121.602V165H122.587ZM126.023 164.238C125.291 164.238 124.804 163.857 124.804 163.277C124.804 162.703 125.273 162.34 126.093 162.287L127.722 162.188V162.686C127.722 163.564 126.984 164.238 126.023 164.238ZM125.794 165.105C126.615 165.105 127.388 164.648 127.751 163.951H127.775V165H128.742V160.787C128.742 159.574 127.839 158.801 126.41 158.801C124.968 158.801 124.066 159.609 123.996 160.664H124.98C125.109 160.066 125.601 159.697 126.386 159.697C127.23 159.697 127.722 160.143 127.722 160.887V161.396L125.976 161.496C124.57 161.578 123.767 162.234 123.767 163.277C123.767 164.373 124.582 165.105 125.794 165.105ZM132.313 162.68L133.772 165H134.903L132.875 161.912L134.932 158.906H133.795L132.348 161.191H132.325L130.86 158.906H129.723L131.762 161.953L129.688 165H130.819L132.289 162.68H132.313ZM136.775 165.059C137.15 165.059 137.443 164.766 137.443 164.391C137.443 164.016 137.15 163.723 136.775 163.723C136.4 163.723 136.107 164.016 136.107 164.391C136.107 164.766 136.4 165.059 136.775 165.059ZM141.403 165H142.423V159.744H143.665V158.906H142.417V158.232C142.417 157.629 142.681 157.336 143.231 157.336C143.401 157.336 143.571 157.354 143.694 157.371V156.545C143.548 156.521 143.302 156.498 143.073 156.498C141.948 156.498 141.403 157.055 141.403 158.227V158.906H140.554V159.744H141.403V165ZM144.893 165H145.912V158.906H144.893V165ZM145.402 157.881C145.754 157.881 146.041 157.594 146.041 157.248C146.041 156.896 145.754 156.615 145.402 156.615C145.057 156.615 144.769 156.896 144.769 157.248C144.769 157.594 145.057 157.881 145.402 157.881ZM147.462 165H148.481V156.545H147.462V165ZM152.422 159.686C153.383 159.686 154.021 160.412 154.045 161.432H150.734C150.799 160.418 151.466 159.686 152.422 159.686ZM154.021 163.254C153.851 163.828 153.283 164.221 152.509 164.221C151.414 164.221 150.728 163.453 150.728 162.287V162.229H155.099V161.842C155.099 159.996 154.086 158.801 152.439 158.801C150.758 158.801 149.679 160.084 149.679 161.977C149.679 163.893 150.74 165.105 152.486 165.105C153.816 165.105 154.847 164.32 155.023 163.254H154.021ZM158.726 160.588C158.726 161.42 159.253 161.971 160.326 162.246L161.398 162.521C162.083 162.703 162.335 162.938 162.335 163.371C162.335 163.922 161.826 164.273 160.999 164.273C160.173 164.273 159.693 163.934 159.581 163.301H158.562C158.667 164.379 159.599 165.105 160.935 165.105C162.359 165.105 163.361 164.355 163.361 163.295C163.361 162.398 162.915 161.953 161.685 161.643L160.742 161.414C160.05 161.238 159.728 160.957 159.728 160.535C159.728 160.002 160.22 159.633 160.964 159.633C161.714 159.633 162.189 159.996 162.259 160.582H163.232C163.185 159.551 162.259 158.801 160.999 158.801C159.658 158.801 158.726 159.545 158.726 160.588ZM164.594 165H165.614V158.906H164.594V165ZM165.104 157.881C165.455 157.881 165.742 157.594 165.742 157.248C165.742 156.896 165.455 156.615 165.104 156.615C164.758 156.615 164.471 156.896 164.471 157.248C164.471 157.594 164.758 157.881 165.104 157.881ZM166.982 165H171.529V164.162H168.159V164.145L171.511 159.65V158.906H166.988V159.744H170.357V159.762L166.982 164.273V165ZM175.053 159.686C176.014 159.686 176.652 160.412 176.676 161.432H173.365C173.43 160.418 174.098 159.686 175.053 159.686ZM176.652 163.254C176.482 163.828 175.914 164.221 175.141 164.221C174.045 164.221 173.359 163.453 173.359 162.287V162.229H177.731V161.842C177.731 159.996 176.717 158.801 175.07 158.801C173.389 158.801 172.311 160.084 172.311 161.977C172.311 163.893 173.371 165.105 175.117 165.105C176.447 165.105 177.479 164.32 177.654 163.254H176.652ZM183.642 165H184.662V156.545H183.631L181.381 158.162V159.275L183.619 157.664H183.642V165ZM189.885 165.141C191.854 165.141 192.991 163.436 192.991 160.764C192.991 158.109 191.848 156.404 189.885 156.404C187.923 156.404 186.768 158.121 186.768 160.77C186.768 163.441 187.911 165.141 189.885 165.141ZM189.885 164.221C188.561 164.221 187.829 162.873 187.829 160.764C187.829 158.701 188.579 157.33 189.885 157.33C191.192 157.33 191.93 158.689 191.93 160.77C191.93 162.879 191.204 164.221 189.885 164.221ZM205.372 165V156.545H204.147L201.229 163.6H201.182L198.264 156.545H197.04V165H198.024V158.484H198.065L200.76 164.941H201.651L204.346 158.484H204.387V165H205.372ZM210.326 165C212.124 165 213.191 164.115 213.191 162.627C213.191 161.502 212.452 160.693 211.304 160.547V160.5C212.119 160.354 212.763 159.533 212.763 158.654C212.763 157.389 211.785 156.545 210.337 156.545H207.132V165H210.326ZM208.187 157.477H210.097C211.122 157.477 211.697 157.939 211.697 158.777C211.697 159.691 211.017 160.189 209.769 160.189H208.187V157.477ZM208.187 164.068V161.098H210.068C211.415 161.098 212.107 161.596 212.107 162.574C212.107 163.553 211.439 164.068 210.167 164.068H208.187Z" fill="#6B7280"/>
<rect x="16.5" y="194.5" width="294" height="39" rx="19.5" fill="#D6E4FF"/>
<path d="M134.217 222.542H128.784C124.692 222.542 122.942 220.792 122.942 216.7V216.592C122.942 212.892 124.4 211.108 127.667 210.8C128 210.775 128.317 211.025 128.35 211.367C128.384 211.708 128.134 212.017 127.784 212.05C125.167 212.292 124.192 213.525 124.192 216.6V216.708C124.192 220.1 125.392 221.3 128.784 221.3H134.217C137.609 221.3 138.809 220.1 138.809 216.708V216.6C138.809 213.508 137.817 212.275 135.15 212.05C134.809 212.017 134.55 211.717 134.584 211.375C134.617 211.033 134.909 210.775 135.259 210.808C138.575 211.092 140.059 212.883 140.059 216.608V216.717C140.059 220.792 138.309 222.542 134.217 222.542Z" fill="#3366FF"/>
<path d="M131.5 217.125C131.158 217.125 130.875 216.842 130.875 216.5V207.017C130.875 206.675 131.158 206.392 131.5 206.392C131.842 206.392 132.125 206.675 132.125 207.017V216.5C132.125 216.842 131.842 217.125 131.5 217.125Z" fill="#3366FF"/>
<path d="M134.292 209.5C134.133 209.5 133.975 209.442 133.85 209.317L131.5 206.967L129.15 209.317C128.908 209.558 128.508 209.558 128.267 209.317C128.025 209.075 128.025 208.675 128.267 208.433L131.058 205.642C131.3 205.4 131.7 205.4 131.942 205.642L134.733 208.433C134.975 208.675 134.975 209.075 134.733 209.317C134.617 209.442 134.45 209.5 134.292 209.5Z" fill="#3366FF"/>
<path d="M160.198 219.5H162.049L157.979 208.227H156.088L152.018 219.5H153.838L154.87 216.453H159.167L160.198 219.5ZM156.995 210.102H157.042L158.721 215.047H155.315L156.995 210.102ZM166.116 219.641C167.311 219.641 168.248 219.039 168.733 218.102H168.764V219.5H170.405V208.227H168.709V212.648H168.678C168.217 211.742 167.28 211.148 166.1 211.148C164.038 211.148 162.663 212.797 162.663 215.391C162.663 217.984 164.038 219.641 166.116 219.641ZM166.561 212.57C167.858 212.57 168.725 213.688 168.725 215.391C168.725 217.109 167.858 218.211 166.561 218.211C165.225 218.211 164.389 217.125 164.389 215.391C164.389 213.664 165.225 212.57 166.561 212.57ZM175.385 219.641C176.58 219.641 177.518 219.039 178.002 218.102H178.033V219.5H179.674V208.227H177.979V212.648H177.948C177.487 211.742 176.549 211.148 175.369 211.148C173.307 211.148 171.932 212.797 171.932 215.391C171.932 217.984 173.307 219.641 175.385 219.641ZM175.83 212.57C177.127 212.57 177.994 213.688 177.994 215.391C177.994 217.109 177.127 218.211 175.83 218.211C174.494 218.211 173.658 217.125 173.658 215.391C173.658 213.664 174.494 212.57 175.83 212.57ZM185.471 219.5H187.166V212.617H188.807V211.297H187.143V210.523C187.143 209.797 187.486 209.43 188.221 209.43C188.447 209.43 188.674 209.445 188.838 209.477V208.227C188.619 208.188 188.236 208.148 187.893 208.148C186.221 208.148 185.471 208.898 185.471 210.492V211.297H184.338V212.617H185.471V219.5ZM190.349 219.5H192.037V211.281H190.349V219.5ZM191.193 210.078C191.74 210.078 192.177 209.648 192.177 209.117C192.177 208.578 191.74 208.148 191.193 208.148C190.654 208.148 190.217 208.578 190.217 209.117C190.217 209.648 190.654 210.078 191.193 210.078ZM193.986 219.5H195.673V208.227H193.986V219.5ZM201.005 212.492C202.185 212.492 202.982 213.375 203.021 214.633H198.912C198.997 213.391 199.826 212.492 201.005 212.492ZM203.013 217.086C202.787 217.805 202.076 218.289 201.115 218.289C199.763 218.289 198.904 217.344 198.904 215.914V215.812H204.708V215.234C204.708 212.742 203.287 211.133 201.005 211.133C198.685 211.133 197.201 212.852 197.201 215.43C197.201 218.023 198.662 219.656 201.076 219.656C202.958 219.656 204.38 218.586 204.615 217.086H203.013Z" fill="#3366FF"/>
<rect x="16.5" y="194.5" width="294" height="39" rx="19.5" stroke="#3366FF"/>
<rect x="0.75" y="33.75" width="325.5" height="219.5" rx="7.25" stroke="#6690FF" stroke-width="1.5" stroke-dasharray="5 5"/>
</svg>
