<svg width="375" height="37" viewBox="0 0 375 37" fill="none" xmlns="http://www.w3.org/2000/svg">
<rect x="0.5" y="0.5" width="374" height="36" fill="#F4F4F5"/>
<path d="M29.9141 12.5391C26.6641 12.5391 24.6328 14.7812 24.6328 18.3672C24.6328 21.9531 26.6641 24.1875 29.9141 24.1875C33.1562 24.1875 35.1953 21.9531 35.1953 18.3672C35.1953 14.7812 33.1562 12.5391 29.9141 12.5391ZM29.9141 14.0781C32.0547 14.0781 33.3984 15.7344 33.3984 18.3672C33.3984 20.9922 32.0547 22.6484 29.9141 22.6484C27.7734 22.6484 26.4219 20.9922 26.4219 18.3672C26.4219 15.7344 27.7734 14.0781 29.9141 14.0781ZM37.3162 13.8359V15.7812H36.1209V17.1172H37.3162V21.8359C37.3162 23.4219 37.9647 24.0547 39.6287 24.0547C40.0037 24.0547 40.3787 24.0234 40.5662 23.9766V22.6406C40.4569 22.6641 40.1834 22.6797 40.0116 22.6797C39.3241 22.6797 39.0116 22.3594 39.0116 21.6484V17.1172H40.5741V15.7812H39.0116V13.8359H37.3162ZM42.1872 24H43.8747V19.25C43.8747 17.9531 44.6403 17.0938 45.8903 17.0938C47.0778 17.0938 47.6872 17.8203 47.6872 19.0312V24H49.3825V18.7031C49.3825 16.8438 48.3044 15.6406 46.4997 15.6406C45.2497 15.6406 44.3512 16.1953 43.8981 17.1562H43.8591V12.7266H42.1872V24ZM54.6128 16.9922C55.7925 16.9922 56.5894 17.875 56.6284 19.1328H52.5191C52.605 17.8906 53.4331 16.9922 54.6128 16.9922ZM56.6206 21.5859C56.3941 22.3047 55.6831 22.7891 54.7222 22.7891C53.3706 22.7891 52.5112 21.8438 52.5112 20.4141V20.3125H58.3159V19.7344C58.3159 17.2422 56.8941 15.6328 54.6128 15.6328C52.2925 15.6328 50.8081 17.3516 50.8081 19.9297C50.8081 22.5234 52.2691 24.1562 54.6831 24.1562C56.5659 24.1562 57.9878 23.0859 58.2222 21.5859H56.6206ZM59.7884 24H61.4759V19.0781C61.4759 17.9141 62.1478 17.1875 63.2337 17.1875C63.5619 17.1875 63.8587 17.2266 63.9916 17.2812V15.7109C63.8666 15.6875 63.6556 15.6484 63.4134 15.6484C62.4447 15.6484 61.7103 16.2188 61.4369 17.1797H61.3978V15.7812H59.7884V24ZM68.6084 24H70.2959V19.2109C70.2959 17.9375 71.0616 17.0938 72.2491 17.0938C73.4209 17.0938 73.9991 17.7734 73.9991 19.0078V24H75.6944V18.6797C75.6944 16.7969 74.6553 15.6406 72.8428 15.6406C71.5772 15.6406 70.7022 16.2188 70.2569 17.1562H70.2178V15.7812H68.6084V24ZM81.0184 24.1562C83.37 24.1562 84.9169 22.5391 84.9169 19.8906C84.9169 17.25 83.3622 15.6328 81.0184 15.6328C78.6747 15.6328 77.12 17.25 77.12 19.8906C77.12 22.5391 78.6669 24.1562 81.0184 24.1562ZM81.0184 22.7656C79.6981 22.7656 78.8387 21.7188 78.8387 19.8906C78.8387 18.0703 79.6981 17.0234 81.0184 17.0234C82.3387 17.0234 83.1981 18.0703 83.1981 19.8906C83.1981 21.7188 82.3466 22.7656 81.0184 22.7656ZM86.8737 13.8359V15.7812H85.6784V17.1172H86.8737V21.8359C86.8737 23.4219 87.5222 24.0547 89.1862 24.0547C89.5612 24.0547 89.9362 24.0234 90.1237 23.9766V22.6406C90.0144 22.6641 89.7409 22.6797 89.5691 22.6797C88.8816 22.6797 88.5691 22.3594 88.5691 21.6484V17.1172H90.1316V15.7812H88.5691V13.8359H86.8737ZM91.7369 24H93.4244V15.7812H91.7369V24ZM92.5806 14.5781C93.1275 14.5781 93.565 14.1484 93.565 13.6172C93.565 13.0781 93.1275 12.6484 92.5806 12.6484C92.0416 12.6484 91.6041 13.0781 91.6041 13.6172C91.6041 14.1484 92.0416 14.5781 92.5806 14.5781ZM95.8031 24H97.4984V17.1172H99.1391V15.7969H97.475V15.0234C97.475 14.2969 97.8187 13.9297 98.5531 13.9297C98.7797 13.9297 99.0062 13.9453 99.1703 13.9766V12.7266C98.9516 12.6875 98.5687 12.6484 98.225 12.6484C96.5531 12.6484 95.8031 13.3984 95.8031 14.9922V15.7969H94.6703V17.1172H95.8031V24ZM100.682 24H102.369V15.7812H100.682V24ZM101.526 14.5781C102.073 14.5781 102.51 14.1484 102.51 13.6172C102.51 13.0781 102.073 12.6484 101.526 12.6484C100.987 12.6484 100.549 13.0781 100.549 13.6172C100.549 14.1484 100.987 14.5781 101.526 14.5781ZM111.311 18.6094C111.162 16.9922 109.873 15.6328 107.756 15.6328C105.42 15.6328 103.889 17.2812 103.889 19.8906C103.889 22.5469 105.42 24.1562 107.772 24.1562C109.748 24.1562 111.147 22.9688 111.326 21.2188H109.701C109.506 22.1719 108.826 22.7422 107.787 22.7422C106.475 22.7422 105.607 21.6953 105.607 19.8906C105.607 18.125 106.467 17.0391 107.772 17.0391C108.873 17.0391 109.529 17.7344 109.701 18.6094H111.311ZM115.557 22.8047C114.65 22.8047 114.057 22.3359 114.057 21.6172C114.057 20.9141 114.627 20.4688 115.635 20.3984L117.658 20.2734V20.9219C117.658 21.9922 116.736 22.8047 115.557 22.8047ZM115.088 24.1406C116.166 24.1406 117.205 23.5625 117.682 22.6484H117.721V24H119.338V18.3359C119.338 16.6875 118.064 15.6328 116.072 15.6328C114.041 15.6328 112.775 16.7266 112.682 18.2109H114.275C114.424 17.4766 115.033 17.0078 116.01 17.0078C117.041 17.0078 117.658 17.5547 117.658 18.4688V19.1016L115.408 19.2344C113.455 19.3438 112.353 20.2266 112.353 21.6641C112.353 23.1406 113.478 24.1406 115.088 24.1406ZM121.631 13.8359V15.7812H120.435V17.1172H121.631V21.8359C121.631 23.4219 122.279 24.0547 123.943 24.0547C124.318 24.0547 124.693 24.0234 124.881 23.9766V22.6406C124.771 22.6641 124.498 22.6797 124.326 22.6797C123.638 22.6797 123.326 22.3594 123.326 21.6484V17.1172H124.888V15.7812H123.326V13.8359H121.631ZM126.494 24H128.181V15.7812H126.494V24ZM127.338 14.5781C127.884 14.5781 128.322 14.1484 128.322 13.6172C128.322 13.0781 127.884 12.6484 127.338 12.6484C126.798 12.6484 126.361 13.0781 126.361 13.6172C126.361 14.1484 126.798 14.5781 127.338 14.5781ZM133.599 24.1562C135.951 24.1562 137.497 22.5391 137.497 19.8906C137.497 17.25 135.943 15.6328 133.599 15.6328C131.255 15.6328 129.701 17.25 129.701 19.8906C129.701 22.5391 131.247 24.1562 133.599 24.1562ZM133.599 22.7656C132.279 22.7656 131.419 21.7188 131.419 19.8906C131.419 18.0703 132.279 17.0234 133.599 17.0234C134.919 17.0234 135.779 18.0703 135.779 19.8906C135.779 21.7188 134.927 22.7656 133.599 22.7656ZM138.962 24H140.65V19.2109C140.65 17.9375 141.415 17.0938 142.603 17.0938C143.775 17.0938 144.353 17.7734 144.353 19.0078V24H146.048V18.6797C146.048 16.7969 145.009 15.6406 143.197 15.6406C141.931 15.6406 141.056 16.2188 140.611 17.1562H140.572V15.7812H138.962V24Z" fill="#6B7280"/>
<rect x="0.5" y="0.5" width="374" height="36" stroke="#E5E7EB"/>
</svg>
