<svg width="327" height="143" viewBox="0 0 327 143" fill="none" xmlns="http://www.w3.org/2000/svg">
<path d="M64.7597 9.08984V26H67.3847V20.2227H71.0175C74.3339 20.2227 76.6659 17.9492 76.6659 14.6445C76.6659 11.3516 74.3808 9.08984 71.0995 9.08984H64.7597ZM67.3847 11.3047H70.4081C72.6816 11.3047 73.9823 12.5234 73.9823 14.6562C73.9823 16.7891 72.6816 18.0195 70.3964 18.0195H67.3847V11.3047ZM82.2262 24.207C80.8669 24.207 79.9762 23.5039 79.9762 22.4258C79.9762 21.3711 80.8317 20.7031 82.3434 20.5977L85.3786 20.4102V21.3828C85.3786 22.9883 83.9958 24.207 82.2262 24.207ZM81.5231 26.2109C83.1403 26.2109 84.6989 25.3438 85.4137 23.9727H85.4723V26H87.8981V17.5039C87.8981 15.0312 85.988 13.4492 82.9997 13.4492C79.9528 13.4492 78.0544 15.0898 77.9137 17.3164H80.3044C80.527 16.2148 81.4411 15.5117 82.9059 15.5117C84.4528 15.5117 85.3786 16.332 85.3786 17.7031V18.6523L82.0036 18.8516C79.0739 19.0156 77.4216 20.3398 77.4216 22.4961C77.4216 24.7109 79.1091 26.2109 81.5231 26.2109ZM90.3764 17.1641C90.3764 18.8867 91.5014 20.0469 93.728 20.5859L95.9311 21.125C97.2202 21.4531 97.6889 21.8867 97.6889 22.6719C97.6889 23.668 96.7514 24.3008 95.228 24.3008C93.6811 24.3008 92.767 23.6445 92.5678 22.4609H90.06C90.2592 24.7227 92.1928 26.2344 95.1108 26.2344C98.1342 26.2344 100.232 24.6875 100.232 22.4375C100.232 20.6211 99.2944 19.6836 96.81 19.0859L94.7358 18.6055C93.4584 18.2891 92.8491 17.7734 92.8491 17.0117C92.8491 16.0391 93.7631 15.3711 95.1342 15.3711C96.5522 15.3711 97.4545 16.0625 97.5717 17.1758H99.9506C99.8686 14.9844 97.9467 13.4492 95.2045 13.4492C92.3217 13.4492 90.3764 14.9609 90.3764 17.1641ZM102.218 17.1641C102.218 18.8867 103.343 20.0469 105.57 20.5859L107.773 21.125C109.062 21.4531 109.53 21.8867 109.53 22.6719C109.53 23.668 108.593 24.3008 107.07 24.3008C105.523 24.3008 104.609 23.6445 104.409 22.4609H101.902C102.101 24.7227 104.034 26.2344 106.952 26.2344C109.976 26.2344 112.073 24.6875 112.073 22.4375C112.073 20.6211 111.136 19.6836 108.652 19.0859L106.577 18.6055C105.3 18.2891 104.691 17.7734 104.691 17.0117C104.691 16.0391 105.605 15.3711 106.976 15.3711C108.394 15.3711 109.296 16.0625 109.413 17.1758H111.792C111.71 14.9844 109.788 13.4492 107.046 13.4492C104.163 13.4492 102.218 14.9609 102.218 17.1641ZM130.548 13.6719H128.04L125.79 23.375H125.731L123.153 13.6719H120.716L118.149 23.375H118.103L115.853 13.6719H113.321L116.708 26H119.321L121.888 16.7656H121.946L124.536 26H127.173L130.548 13.6719ZM137.561 26.2344C141.089 26.2344 143.409 23.8086 143.409 19.8359C143.409 15.875 141.077 13.4492 137.561 13.4492C134.046 13.4492 131.714 15.875 131.714 19.8359C131.714 23.8086 134.034 26.2344 137.561 26.2344ZM137.561 24.1484C135.581 24.1484 134.292 22.5781 134.292 19.8359C134.292 17.1055 135.581 15.5352 137.561 15.5352C139.542 15.5352 140.831 17.1055 140.831 19.8359C140.831 22.5781 139.553 24.1484 137.561 24.1484ZM145.606 26H148.137V18.6172C148.137 16.8711 149.145 15.7812 150.774 15.7812C151.266 15.7812 151.711 15.8398 151.911 15.9219V13.5664C151.723 13.5312 151.407 13.4727 151.043 13.4727C149.59 13.4727 148.489 14.3281 148.079 15.7695H148.02V13.6719H145.606V26ZM157.811 26.2109C159.604 26.2109 161.01 25.3086 161.737 23.9023H161.783V26H164.244V9.08984H161.701V15.7227H161.655C160.963 14.3633 159.557 13.4727 157.787 13.4727C154.694 13.4727 152.631 15.9453 152.631 19.8359C152.631 23.7266 154.694 26.2109 157.811 26.2109ZM158.479 15.6055C160.424 15.6055 161.725 17.2812 161.725 19.8359C161.725 22.4141 160.424 24.0664 158.479 24.0664C156.475 24.0664 155.221 22.4375 155.221 19.8359C155.221 17.2461 156.475 15.6055 158.479 15.6055ZM182.783 17.9141C182.56 15.4883 180.627 13.4492 177.451 13.4492C173.947 13.4492 171.65 15.9219 171.65 19.8359C171.65 23.8203 173.947 26.2344 177.474 26.2344C180.439 26.2344 182.537 24.4531 182.806 21.8281H180.369C180.076 23.2578 179.056 24.1133 177.498 24.1133C175.529 24.1133 174.228 22.543 174.228 19.8359C174.228 17.1875 175.517 15.5586 177.474 15.5586C179.127 15.5586 180.111 16.6016 180.369 17.9141H182.783ZM184.933 26H187.464V18.875C187.464 16.9297 188.613 15.6406 190.488 15.6406C192.269 15.6406 193.183 16.7305 193.183 18.5469V26H195.726V18.0547C195.726 15.2656 194.109 13.4609 191.402 13.4609C189.527 13.4609 188.179 14.293 187.5 15.7344H187.441V9.08984H184.933V26ZM202.728 24.207C201.368 24.207 200.478 23.5039 200.478 22.4258C200.478 21.3711 201.333 20.7031 202.845 20.5977L205.88 20.4102V21.3828C205.88 22.9883 204.497 24.207 202.728 24.207ZM202.025 26.2109C203.642 26.2109 205.2 25.3438 205.915 23.9727H205.974V26H208.4V17.5039C208.4 15.0312 206.49 13.4492 203.501 13.4492C200.454 13.4492 198.556 15.0898 198.415 17.3164H200.806C201.029 16.2148 201.943 15.5117 203.408 15.5117C204.954 15.5117 205.88 16.332 205.88 17.7031V18.6523L202.505 18.8516C199.575 19.0156 197.923 20.3398 197.923 22.4961C197.923 24.7109 199.611 26.2109 202.025 26.2109ZM211.101 26H213.632V18.8164C213.632 16.9062 214.78 15.6406 216.562 15.6406C218.319 15.6406 219.187 16.6602 219.187 18.5117V26H221.73V18.0195C221.73 15.1953 220.171 13.4609 217.452 13.4609C215.554 13.4609 214.241 14.3281 213.573 15.7344H213.515V13.6719H211.101V26ZM229.669 23.9492C227.723 23.9492 226.458 22.3789 226.458 19.8008C226.458 17.2344 227.723 15.6055 229.669 15.6055C231.649 15.6055 232.95 17.2695 232.95 19.8008C232.95 22.3438 231.649 23.9492 229.669 23.9492ZM229.692 30.6406C233.208 30.6406 235.481 28.7188 235.481 25.7773V13.6719H233.02V15.7812H232.973C232.223 14.3516 230.794 13.4727 229.048 13.4727C225.884 13.4727 223.868 15.9102 223.868 19.7891C223.868 23.6328 225.895 26.0469 228.989 26.0469C230.747 26.0469 232.2 25.168 232.891 23.832H232.938V25.8594C232.938 27.5469 231.766 28.6719 229.786 28.6719C228.345 28.6719 227.22 27.9922 226.856 26.9609H224.313C224.63 29.0938 226.786 30.6406 229.692 30.6406ZM243.385 15.4883C245.155 15.4883 246.35 16.8125 246.409 18.6992H240.245C240.374 16.8359 241.616 15.4883 243.385 15.4883ZM246.397 22.3789C246.057 23.457 244.991 24.1836 243.549 24.1836C241.522 24.1836 240.233 22.7656 240.233 20.6211V20.4688H248.94V19.6016C248.94 15.8633 246.807 13.4492 243.385 13.4492C239.905 13.4492 237.678 16.0273 237.678 19.8945C237.678 23.7852 239.87 26.2344 243.491 26.2344C246.315 26.2344 248.448 24.6289 248.799 22.3789H246.397ZM255.778 26.2109C257.571 26.2109 258.977 25.3086 259.703 23.9023H259.75V26H262.211V9.08984H259.668V15.7227H259.621C258.93 14.3633 257.524 13.4727 255.754 13.4727C252.66 13.4727 250.598 15.9453 250.598 19.8359C250.598 23.7266 252.66 26.2109 255.778 26.2109ZM256.446 15.6055C258.391 15.6055 259.692 17.2812 259.692 19.8359C259.692 22.4141 258.391 24.0664 256.446 24.0664C254.442 24.0664 253.188 22.4375 253.188 19.8359C253.188 17.2461 254.442 15.6055 256.446 15.6055ZM101.196 51.1641C101.196 52.8867 102.321 54.0469 104.547 54.5859L106.75 55.125C108.039 55.4531 108.508 55.8867 108.508 56.6719C108.508 57.668 107.571 58.3008 106.047 58.3008C104.5 58.3008 103.586 57.6445 103.387 56.4609H100.879C101.078 58.7227 103.012 60.2344 105.93 60.2344C108.953 60.2344 111.051 58.6875 111.051 56.4375C111.051 54.6211 110.114 53.6836 107.629 53.0859L105.555 52.6055C104.278 52.2891 103.668 51.7734 103.668 51.0117C103.668 50.0391 104.582 49.3711 105.953 49.3711C107.371 49.3711 108.274 50.0625 108.391 51.1758H110.77C110.688 48.9844 108.766 47.4492 106.024 47.4492C103.141 47.4492 101.196 48.9609 101.196 51.1641ZM123.83 47.6719H121.299V54.8555C121.299 56.7773 120.197 58.043 118.369 58.043C116.623 58.043 115.732 57.0352 115.732 55.1602V47.6719H113.201V55.6523C113.201 58.4766 114.842 60.2227 117.525 60.2227C119.412 60.2227 120.666 59.3906 121.346 57.9141H121.404V60H123.83V47.6719ZM137.16 51.9141C136.937 49.4883 135.004 47.4492 131.828 47.4492C128.324 47.4492 126.027 49.9219 126.027 53.8359C126.027 57.8203 128.324 60.2344 131.851 60.2344C134.816 60.2344 136.914 58.4531 137.183 55.8281H134.746C134.453 57.2578 133.433 58.1133 131.875 58.1133C129.906 58.1133 128.605 56.543 128.605 53.8359C128.605 51.1875 129.894 49.5586 131.851 49.5586C133.504 49.5586 134.488 50.6016 134.746 51.9141H137.16ZM149.798 51.9141C149.576 49.4883 147.642 47.4492 144.466 47.4492C140.962 47.4492 138.666 49.9219 138.666 53.8359C138.666 57.8203 140.962 60.2344 144.49 60.2344C147.455 60.2344 149.552 58.4531 149.822 55.8281H147.384C147.091 57.2578 146.072 58.1133 144.513 58.1133C142.545 58.1133 141.244 56.543 141.244 53.8359C141.244 51.1875 142.533 49.5586 144.49 49.5586C146.142 49.5586 147.127 50.6016 147.384 51.9141H149.798ZM157.011 49.4883C158.781 49.4883 159.976 50.8125 160.035 52.6992H153.87C153.999 50.8359 155.242 49.4883 157.011 49.4883ZM160.023 56.3789C159.683 57.457 158.617 58.1836 157.175 58.1836C155.148 58.1836 153.859 56.7656 153.859 54.6211V54.4688H162.566V53.6016C162.566 49.8633 160.433 47.4492 157.011 47.4492C153.531 47.4492 151.304 50.0273 151.304 53.8945C151.304 57.7852 153.495 60.2344 157.117 60.2344C159.941 60.2344 162.074 58.6289 162.425 56.3789H160.023ZM164.552 51.1641C164.552 52.8867 165.677 54.0469 167.903 54.5859L170.107 55.125C171.396 55.4531 171.864 55.8867 171.864 56.6719C171.864 57.668 170.927 58.3008 169.403 58.3008C167.857 58.3008 166.943 57.6445 166.743 56.4609H164.235C164.435 58.7227 166.368 60.2344 169.286 60.2344C172.31 60.2344 174.407 58.6875 174.407 56.4375C174.407 54.6211 173.47 53.6836 170.985 53.0859L168.911 52.6055C167.634 52.2891 167.025 51.7734 167.025 51.0117C167.025 50.0391 167.939 49.3711 169.31 49.3711C170.728 49.3711 171.63 50.0625 171.747 51.1758H174.126C174.044 48.9844 172.122 47.4492 169.38 47.4492C166.497 47.4492 164.552 48.9609 164.552 51.1641ZM177.354 60H179.897V49.6758H182.358V47.6953H179.862V46.5352C179.862 45.4453 180.378 44.8945 181.479 44.8945C181.819 44.8945 182.159 44.918 182.405 44.9648V43.0898C182.077 43.0312 181.503 42.9727 180.987 42.9727C178.479 42.9727 177.354 44.0977 177.354 46.4883V47.6953H175.655V49.6758H177.354V60ZM195.161 47.6719H192.63V54.8555C192.63 56.7773 191.528 58.043 189.7 58.043C187.954 58.043 187.063 57.0352 187.063 55.1602V47.6719H184.532V55.6523C184.532 58.4766 186.173 60.2227 188.856 60.2227C190.743 60.2227 191.997 59.3906 192.676 57.9141H192.735V60H195.161V47.6719ZM198.002 60H200.534V43.0898H198.002V60ZM203.469 60H206V43.0898H203.469V60ZM210.06 64.5938C212.627 64.5938 213.834 63.6328 214.889 60.6445L219.518 47.6719H216.846L213.717 57.7031H213.682L210.553 47.6719H207.81L212.264 60.0117C212.264 60.0234 212.041 60.75 212.041 60.7734C211.654 62.0391 211.033 62.5312 209.85 62.5312C209.639 62.5312 209.217 62.5312 209.029 62.4844V64.5352C209.217 64.5703 209.861 64.5938 210.06 64.5938ZM222.101 43.0898L222.289 54.3984H224.527L224.715 43.0898H222.101ZM223.402 60.1758C224.281 60.1758 224.949 59.5195 224.949 58.6641C224.949 57.8086 224.281 57.1523 223.402 57.1523C222.547 57.1523 221.867 57.8086 221.867 58.6641C221.867 59.5195 222.547 60.1758 223.402 60.1758Z" fill="#111827"/>
<path d="M8.96437 96V91.1484L12.9644 84.7266H11.3628L8.28468 89.7891H8.23781L5.15968 84.7266H3.55812L7.55812 91.1484V96H8.96437ZM16.0853 96.1406C18.3275 96.1406 19.8431 94.5234 19.8431 91.9375C19.8431 89.3438 18.3275 87.7344 16.0853 87.7344C13.8353 87.7344 12.3197 89.3438 12.3197 91.9375C12.3197 94.5234 13.8353 96.1406 16.0853 96.1406ZM16.0853 94.9453C14.6478 94.9453 13.7025 93.8516 13.7025 91.9375C13.7025 90.0234 14.6478 88.9297 16.0853 88.9297C17.5228 88.9297 18.4603 90.0234 18.4603 91.9375C18.4603 93.8516 17.5228 94.9453 16.0853 94.9453ZM28.05 87.875H26.6906V92.6484C26.6906 94.0312 25.8937 94.9375 24.5734 94.9375C23.3156 94.9375 22.6984 94.2266 22.6984 92.9062V87.875H21.3391V93.1484C21.3391 94.9922 22.3781 96.1406 24.1516 96.1406C25.4016 96.1406 26.2453 95.6172 26.7297 94.6797H26.7609V96H28.05V87.875ZM29.9756 96H31.335V90.9375C31.335 89.7891 32.0225 89.0312 33.0772 89.0312C33.4053 89.0312 33.6944 89.0703 33.8037 89.1094V87.7891C33.6944 87.7734 33.4912 87.7344 33.2569 87.7344C32.3037 87.7344 31.5537 88.3047 31.2881 89.2031H31.2569V87.875H29.9756V96ZM42.4597 87.7344C41.28 87.7344 40.3347 88.3359 39.8347 89.25H39.8034V87.875H38.5144V98.7109H39.8737V94.6797H39.905C40.3894 95.5703 41.3269 96.1406 42.4909 96.1406C44.5378 96.1406 45.9362 94.4844 45.9362 91.9375C45.9362 89.3906 44.53 87.7344 42.4597 87.7344ZM42.1941 94.9453C40.8034 94.9453 39.8659 93.75 39.8659 91.9375C39.8659 90.1328 40.8034 88.9297 42.1941 88.9297C43.6394 88.9297 44.5456 90.1016 44.5456 91.9375C44.5456 93.7812 43.6394 94.9453 42.1941 94.9453ZM50.1509 94.9844C49.1744 94.9844 48.5259 94.4766 48.5259 93.7031C48.5259 92.9375 49.1509 92.4531 50.2447 92.3828L52.4166 92.25V92.9141C52.4166 94.0859 51.4322 94.9844 50.1509 94.9844ZM49.8462 96.1406C50.94 96.1406 51.9712 95.5312 52.4556 94.6016H52.4869V96H53.7759V90.3828C53.7759 88.7656 52.5728 87.7344 50.6666 87.7344C48.7447 87.7344 47.5416 88.8125 47.4478 90.2188H48.7603C48.9322 89.4219 49.5884 88.9297 50.6353 88.9297C51.7603 88.9297 52.4166 89.5234 52.4166 90.5156V91.1953L50.0884 91.3281C48.2134 91.4375 47.1431 92.3125 47.1431 93.7031C47.1431 95.1641 48.2291 96.1406 49.8462 96.1406ZM55.5219 90.1172C55.5219 91.2266 56.225 91.9609 57.6547 92.3281L59.0844 92.6953C59.9984 92.9375 60.3344 93.25 60.3344 93.8281C60.3344 94.5625 59.6547 95.0312 58.5531 95.0312C57.4516 95.0312 56.8109 94.5781 56.6625 93.7344H55.3031C55.4437 95.1719 56.6859 96.1406 58.4672 96.1406C60.3656 96.1406 61.7016 95.1406 61.7016 93.7266C61.7016 92.5312 61.1078 91.9375 59.4672 91.5234L58.2094 91.2188C57.2875 90.9844 56.8578 90.6094 56.8578 90.0469C56.8578 89.3359 57.5141 88.8438 58.5062 88.8438C59.5062 88.8438 60.1391 89.3281 60.2328 90.1094H61.5297C61.4672 88.7344 60.2328 87.7344 58.5531 87.7344C56.7641 87.7344 55.5219 88.7266 55.5219 90.1172ZM63.135 90.1172C63.135 91.2266 63.8381 91.9609 65.2678 92.3281L66.6975 92.6953C67.6116 92.9375 67.9475 93.25 67.9475 93.8281C67.9475 94.5625 67.2678 95.0312 66.1662 95.0312C65.0647 95.0312 64.4241 94.5781 64.2756 93.7344H62.9162C63.0569 95.1719 64.2991 96.1406 66.0803 96.1406C67.9787 96.1406 69.3147 95.1406 69.3147 93.7266C69.3147 92.5312 68.7209 91.9375 67.0803 91.5234L65.8225 91.2188C64.9006 90.9844 64.4709 90.6094 64.4709 90.0469C64.4709 89.3359 65.1272 88.8438 66.1194 88.8438C67.1194 88.8438 67.7522 89.3281 67.8459 90.1094H69.1428C69.0803 88.7344 67.8459 87.7344 66.1662 87.7344C64.3772 87.7344 63.135 88.7266 63.135 90.1172ZM81.2247 87.875H79.8809L78.2559 94.4844H78.2247L76.3809 87.875H75.0684L73.2325 94.4844H73.2012L71.5762 87.875H70.2247L72.4981 96H73.8809L75.7091 89.7109H75.7403L77.5762 96H78.9591L81.2247 87.875ZM85.8691 96.1406C88.1112 96.1406 89.6269 94.5234 89.6269 91.9375C89.6269 89.3438 88.1112 87.7344 85.8691 87.7344C83.6191 87.7344 82.1034 89.3438 82.1034 91.9375C82.1034 94.5234 83.6191 96.1406 85.8691 96.1406ZM85.8691 94.9453C84.4316 94.9453 83.4862 93.8516 83.4862 91.9375C83.4862 90.0234 84.4316 88.9297 85.8691 88.9297C87.3066 88.9297 88.2441 90.0234 88.2441 91.9375C88.2441 93.8516 87.3066 94.9453 85.8691 94.9453ZM91.1619 96H92.5212V90.9375C92.5212 89.7891 93.2087 89.0312 94.2634 89.0312C94.5916 89.0312 94.8806 89.0703 94.99 89.1094V87.7891C94.8806 87.7734 94.6775 87.7344 94.4431 87.7344C93.49 87.7344 92.74 88.3047 92.4744 89.2031H92.4431V87.875H91.1619V96ZM98.9469 96.1406C100.119 96.1406 101.048 95.5625 101.572 94.625H101.595V96H102.892V84.7266H101.533V89.1953H101.502C101.017 88.3047 100.08 87.7344 98.9156 87.7344C96.8687 87.7344 95.4703 89.3906 95.4703 91.9375C95.4703 94.4844 96.8766 96.1406 98.9469 96.1406ZM99.2047 88.9297C100.603 88.9297 101.541 90.125 101.541 91.9375C101.541 93.7578 100.603 94.9453 99.2047 94.9453C97.7672 94.9453 96.8609 93.7812 96.8609 91.9375C96.8609 90.1016 97.7672 88.9297 99.2047 88.9297ZM108.4 96H109.759V91.2656C109.759 89.8594 110.595 88.9375 111.947 88.9375C113.22 88.9375 113.868 89.7109 113.868 91V96H115.228V90.75C115.228 88.9375 114.15 87.7344 112.368 87.7344C111.134 87.7344 110.243 88.2656 109.79 89.1719H109.759V84.7266H108.4V96ZM119.794 94.9844C118.817 94.9844 118.169 94.4766 118.169 93.7031C118.169 92.9375 118.794 92.4531 119.888 92.3828L122.06 92.25V92.9141C122.06 94.0859 121.075 94.9844 119.794 94.9844ZM119.489 96.1406C120.583 96.1406 121.614 95.5312 122.099 94.6016H122.13V96H123.419V90.3828C123.419 88.7656 122.216 87.7344 120.31 87.7344C118.388 87.7344 117.185 88.8125 117.091 90.2188H118.403C118.575 89.4219 119.232 88.9297 120.278 88.9297C121.403 88.9297 122.06 89.5234 122.06 90.5156V91.1953L119.732 91.3281C117.857 91.4375 116.786 92.3125 116.786 93.7031C116.786 95.1641 117.872 96.1406 119.489 96.1406ZM125.165 90.1172C125.165 91.2266 125.868 91.9609 127.298 92.3281L128.727 92.6953C129.642 92.9375 129.977 93.25 129.977 93.8281C129.977 94.5625 129.298 95.0312 128.196 95.0312C127.095 95.0312 126.454 94.5781 126.306 93.7344H124.946C125.087 95.1719 126.329 96.1406 128.11 96.1406C130.009 96.1406 131.345 95.1406 131.345 93.7266C131.345 92.5312 130.751 91.9375 129.11 91.5234L127.852 91.2188C126.931 90.9844 126.501 90.6094 126.501 90.0469C126.501 89.3359 127.157 88.8438 128.149 88.8438C129.149 88.8438 129.782 89.3281 129.876 90.1094H131.173C131.11 88.7344 129.876 87.7344 128.196 87.7344C126.407 87.7344 125.165 88.7266 125.165 90.1172ZM140.399 96.1406C142.477 96.1406 143.852 94.4922 143.852 91.9375C143.852 89.3906 142.469 87.7344 140.423 87.7344C139.274 87.7344 138.329 88.3047 137.821 89.2344H137.79V84.7266H136.43V96H137.727V94.625H137.758C138.282 95.5625 139.212 96.1406 140.399 96.1406ZM140.133 88.9297C141.571 88.9297 142.462 90.0938 142.462 91.9375C142.462 93.7969 141.571 94.9453 140.133 94.9453C138.758 94.9453 137.782 93.75 137.782 91.9375C137.782 90.1328 138.758 88.9297 140.133 88.9297ZM148.653 88.9141C149.934 88.9141 150.786 89.8828 150.817 91.2422H146.403C146.489 89.8906 147.379 88.9141 148.653 88.9141ZM150.786 93.6719C150.559 94.4375 149.801 94.9609 148.77 94.9609C147.309 94.9609 146.395 93.9375 146.395 92.3828V92.3047H152.223V91.7891C152.223 89.3281 150.872 87.7344 148.676 87.7344C146.434 87.7344 144.997 89.4453 144.997 91.9688C144.997 94.5234 146.411 96.1406 148.739 96.1406C150.512 96.1406 151.887 95.0938 152.122 93.6719H150.786ZM157.016 88.9141C158.297 88.9141 159.149 89.8828 159.18 91.2422H154.766C154.852 89.8906 155.742 88.9141 157.016 88.9141ZM159.149 93.6719C158.922 94.4375 158.164 94.9609 157.133 94.9609C155.672 94.9609 154.758 93.9375 154.758 92.3828V92.3047H160.586V91.7891C160.586 89.3281 159.235 87.7344 157.039 87.7344C154.797 87.7344 153.36 89.4453 153.36 91.9688C153.36 94.5234 154.774 96.1406 157.102 96.1406C158.875 96.1406 160.25 95.0938 160.485 93.6719H159.149ZM162.121 96H163.481V91.2188C163.481 89.8438 164.317 88.9375 165.598 88.9375C166.848 88.9375 167.465 89.6562 167.465 90.9688V96H168.824V90.7266C168.824 88.8828 167.793 87.7344 166.012 87.7344C164.754 87.7344 163.887 88.2969 163.434 89.1719H163.402V87.875H162.121V96ZM180.91 90.5391C180.738 89.0781 179.527 87.7344 177.496 87.7344C175.254 87.7344 173.762 89.375 173.762 91.9375C173.762 94.5547 175.262 96.1406 177.512 96.1406C179.355 96.1406 180.715 95 180.926 93.3828H179.59C179.355 94.3594 178.629 94.9453 177.519 94.9453C176.113 94.9453 175.144 93.8281 175.144 91.9375C175.144 90.0938 176.097 88.9297 177.504 88.9297C178.699 88.9297 179.387 89.6562 179.582 90.5391H180.91ZM182.406 96H183.765V91.2656C183.765 89.8594 184.601 88.9375 185.953 88.9375C187.226 88.9375 187.875 89.7109 187.875 91V96H189.234V90.75C189.234 88.9375 188.156 87.7344 186.375 87.7344C185.14 87.7344 184.25 88.2656 183.797 89.1719H183.765V84.7266H182.406V96ZM193.8 94.9844C192.824 94.9844 192.175 94.4766 192.175 93.7031C192.175 92.9375 192.8 92.4531 193.894 92.3828L196.066 92.25V92.9141C196.066 94.0859 195.082 94.9844 193.8 94.9844ZM193.496 96.1406C194.589 96.1406 195.621 95.5312 196.105 94.6016H196.136V96H197.425V90.3828C197.425 88.7656 196.222 87.7344 194.316 87.7344C192.394 87.7344 191.191 88.8125 191.097 90.2188H192.41C192.582 89.4219 193.238 88.9297 194.285 88.9297C195.41 88.9297 196.066 89.5234 196.066 90.5156V91.1953L193.738 91.3281C191.863 91.4375 190.792 92.3125 190.792 93.7031C190.792 95.1641 191.878 96.1406 193.496 96.1406ZM199.312 96H200.671V91.2188C200.671 89.8438 201.507 88.9375 202.788 88.9375C204.038 88.9375 204.656 89.6562 204.656 90.9688V96H206.015V90.7266C206.015 88.8828 204.984 87.7344 203.202 87.7344C201.945 87.7344 201.077 88.2969 200.624 89.1719H200.593V87.875H199.312V96ZM211.214 94.8672C209.816 94.8672 208.902 93.7266 208.902 91.9062C208.902 90.0859 209.816 88.9297 211.214 88.9297C212.628 88.9297 213.573 90.1172 213.573 91.9062C213.573 93.6953 212.628 94.8672 211.214 94.8672ZM211.261 99.0625C213.503 99.0625 214.933 97.7734 214.933 95.8359V87.875H213.636V89.2422H213.613C213.073 88.2969 212.12 87.7344 210.972 87.7344C208.87 87.7344 207.511 89.3594 207.511 91.9062C207.511 94.4297 208.87 96.0625 210.941 96.0625C212.081 96.0625 213.042 95.4844 213.542 94.6016H213.573V95.8828C213.573 97.0938 212.722 97.9062 211.316 97.9062C210.3 97.9062 209.495 97.4141 209.23 96.6719H207.831C208.058 98.0547 209.472 99.0625 211.261 99.0625ZM220.124 88.9141C221.405 88.9141 222.257 89.8828 222.288 91.2422H217.874C217.96 89.8906 218.851 88.9141 220.124 88.9141ZM222.257 93.6719C222.03 94.4375 221.272 94.9609 220.241 94.9609C218.78 94.9609 217.866 93.9375 217.866 92.3828V92.3047H223.694V91.7891C223.694 89.3281 222.343 87.7344 220.147 87.7344C217.905 87.7344 216.468 89.4453 216.468 91.9688C216.468 94.5234 217.882 96.1406 220.21 96.1406C221.983 96.1406 223.358 95.0938 223.593 93.6719H222.257ZM228.307 96.1406C229.479 96.1406 230.409 95.5625 230.932 94.625H230.956V96H232.253V84.7266H230.893V89.1953H230.862C230.378 88.3047 229.44 87.7344 228.276 87.7344C226.229 87.7344 224.831 89.3906 224.831 91.9375C224.831 94.4844 226.237 96.1406 228.307 96.1406ZM228.565 88.9297C229.964 88.9297 230.901 90.125 230.901 91.9375C230.901 93.7578 229.964 94.9453 228.565 94.9453C227.128 94.9453 226.222 93.7812 226.222 91.9375C226.222 90.1016 227.128 88.9297 228.565 88.9297ZM237.549 90.1172C237.549 91.2266 238.253 91.9609 239.682 92.3281L241.112 92.6953C242.026 92.9375 242.362 93.25 242.362 93.8281C242.362 94.5625 241.682 95.0312 240.581 95.0312C239.479 95.0312 238.838 94.5781 238.69 93.7344H237.331C237.471 95.1719 238.713 96.1406 240.495 96.1406C242.393 96.1406 243.729 95.1406 243.729 93.7266C243.729 92.5312 243.135 91.9375 241.495 91.5234L240.237 91.2188C239.315 90.9844 238.885 90.6094 238.885 90.0469C238.885 89.3359 239.542 88.8438 240.534 88.8438C241.534 88.8438 242.167 89.3281 242.26 90.1094H243.557C243.495 88.7344 242.26 87.7344 240.581 87.7344C238.792 87.7344 237.549 88.7266 237.549 90.1172ZM251.975 87.875H250.616V92.6484C250.616 94.0312 249.819 94.9375 248.498 94.9375C247.241 94.9375 246.623 94.2266 246.623 92.9062V87.875H245.264V93.1484C245.264 94.9922 246.303 96.1406 248.077 96.1406C249.327 96.1406 250.17 95.6172 250.655 94.6797H250.686V96H251.975V87.875ZM260.651 90.5391C260.479 89.0781 259.268 87.7344 257.237 87.7344C254.994 87.7344 253.502 89.375 253.502 91.9375C253.502 94.5547 255.002 96.1406 257.252 96.1406C259.096 96.1406 260.455 95 260.666 93.3828H259.33C259.096 94.3594 258.369 94.9453 257.26 94.9453C255.854 94.9453 254.885 93.8281 254.885 91.9375C254.885 90.0938 255.838 88.9297 257.244 88.9297C258.44 88.9297 259.127 89.6562 259.322 90.5391H260.651ZM268.826 90.5391C268.654 89.0781 267.443 87.7344 265.412 87.7344C263.17 87.7344 261.678 89.375 261.678 91.9375C261.678 94.5547 263.178 96.1406 265.428 96.1406C267.272 96.1406 268.631 95 268.842 93.3828H267.506C267.272 94.3594 266.545 94.9453 265.436 94.9453C264.029 94.9453 263.061 93.8281 263.061 91.9375C263.061 90.0938 264.014 88.9297 265.42 88.9297C266.615 88.9297 267.303 89.6562 267.498 90.5391H268.826ZM273.51 88.9141C274.791 88.9141 275.643 89.8828 275.674 91.2422H271.26C271.346 89.8906 272.236 88.9141 273.51 88.9141ZM275.643 93.6719C275.416 94.4375 274.658 94.9609 273.627 94.9609C272.166 94.9609 271.252 93.9375 271.252 92.3828V92.3047H277.08V91.7891C277.08 89.3281 275.728 87.7344 273.533 87.7344C271.291 87.7344 269.853 89.4453 269.853 91.9688C269.853 94.5234 271.268 96.1406 273.596 96.1406C275.369 96.1406 276.744 95.0938 276.978 93.6719H275.643ZM278.474 90.1172C278.474 91.2266 279.177 91.9609 280.607 92.3281L282.037 92.6953C282.951 92.9375 283.287 93.25 283.287 93.8281C283.287 94.5625 282.607 95.0312 281.506 95.0312C280.404 95.0312 279.763 94.5781 279.615 93.7344H278.256C278.396 95.1719 279.638 96.1406 281.42 96.1406C283.318 96.1406 284.654 95.1406 284.654 93.7266C284.654 92.5312 284.06 91.9375 282.42 91.5234L281.162 91.2188C280.24 90.9844 279.81 90.6094 279.81 90.0469C279.81 89.3359 280.467 88.8438 281.459 88.8438C282.459 88.8438 283.092 89.3281 283.185 90.1094H284.482C284.42 88.7344 283.185 87.7344 281.506 87.7344C279.717 87.7344 278.474 88.7266 278.474 90.1172ZM286.088 90.1172C286.088 91.2266 286.791 91.9609 288.22 92.3281L289.65 92.6953C290.564 92.9375 290.9 93.25 290.9 93.8281C290.9 94.5625 290.22 95.0312 289.119 95.0312C288.017 95.0312 287.377 94.5781 287.228 93.7344H285.869C286.009 95.1719 287.252 96.1406 289.033 96.1406C290.931 96.1406 292.267 95.1406 292.267 93.7266C292.267 92.5312 291.673 91.9375 290.033 91.5234L288.775 91.2188C287.853 90.9844 287.423 90.6094 287.423 90.0469C287.423 89.3359 288.08 88.8438 289.072 88.8438C290.072 88.8438 290.705 89.3281 290.798 90.1094H292.095C292.033 88.7344 290.798 87.7344 289.119 87.7344C287.33 87.7344 286.088 88.7266 286.088 90.1172ZM294.279 96H295.638V88.9922H297.294V87.875H295.63V86.9766C295.63 86.1719 295.982 85.7812 296.716 85.7812C296.943 85.7812 297.169 85.8047 297.333 85.8281V84.7266C297.138 84.6953 296.81 84.6641 296.505 84.6641C295.005 84.6641 294.279 85.4062 294.279 86.9688V87.875H293.146V88.9922H294.279V96ZM305.532 87.875H304.173V92.6484C304.173 94.0312 303.376 94.9375 302.056 94.9375C300.798 94.9375 300.181 94.2266 300.181 92.9062V87.875H298.822V93.1484C298.822 94.9922 299.861 96.1406 301.634 96.1406C302.884 96.1406 303.728 95.6172 304.212 94.6797H304.243V96H305.532V87.875ZM307.528 96H308.888V84.7266H307.528V96ZM310.954 96H312.313V84.7266H310.954V96ZM314.981 99.0391C316.45 99.0391 317.122 98.4688 317.817 96.5703L321.013 87.875H319.583L317.333 94.6406H317.309L315.059 87.875H313.606L316.606 96.0078L316.419 96.5781C316.106 97.5234 315.684 97.8906 314.927 97.8906C314.755 97.8906 314.544 97.8828 314.395 97.8516V98.9922C314.544 99.0234 314.817 99.0391 314.981 99.0391ZM322.008 98.2422L323.079 94.2656H321.633L320.876 98.2422H322.008ZM17.3103 108.875H15.9666L14.3416 115.484H14.3103L12.4666 108.875H11.1541L9.31813 115.484H9.28688L7.66188 108.875H6.31032L8.58376 117H9.96657L11.7947 110.711H11.8259L13.6619 117H15.0447L17.3103 108.875ZM21.8453 109.914C23.1266 109.914 23.9781 110.883 24.0094 112.242H19.5953C19.6813 110.891 20.5719 109.914 21.8453 109.914ZM23.9781 114.672C23.7516 115.438 22.9938 115.961 21.9625 115.961C20.5016 115.961 19.5875 114.938 19.5875 113.383V113.305H25.4156V112.789C25.4156 110.328 24.0641 108.734 21.8688 108.734C19.6266 108.734 18.1891 110.445 18.1891 112.969C18.1891 115.523 19.6031 117.141 21.9313 117.141C23.7047 117.141 25.0797 116.094 25.3141 114.672H23.9781ZM40.7278 108.875H39.3841L37.7591 115.484H37.7278L35.8841 108.875H34.5716L32.7356 115.484H32.7044L31.0794 108.875H29.7278L32.0013 117H33.3841L35.2122 110.711H35.2434L37.0794 117H38.4622L40.7278 108.875ZM42.0753 117H43.4347V108.875H42.0753V117ZM42.755 107.508C43.2238 107.508 43.6066 107.125 43.6066 106.664C43.6066 106.195 43.2238 105.82 42.755 105.82C42.2941 105.82 41.9113 106.195 41.9113 106.664C41.9113 107.125 42.2941 107.508 42.755 107.508ZM45.5009 117H46.8603V105.727H45.5009V117ZM48.9266 117H50.2859V105.727H48.9266V117ZM55.7934 117H57.1528V105.727H55.7934V117ZM62.4066 109.914C63.6878 109.914 64.5394 110.883 64.5706 112.242H60.1566C60.2425 110.891 61.1331 109.914 62.4066 109.914ZM64.5394 114.672C64.3128 115.438 63.555 115.961 62.5238 115.961C61.0628 115.961 60.1488 114.938 60.1488 113.383V113.305H65.9769V112.789C65.9769 110.328 64.6253 108.734 62.43 108.734C60.1878 108.734 58.7503 110.445 58.7503 112.969C58.7503 115.523 60.1644 117.141 62.4925 117.141C64.2659 117.141 65.6409 116.094 65.8753 114.672H64.5394ZM67.9494 106.914V108.875H66.7384V109.992H67.9494V114.891C67.9494 116.453 68.5275 117.062 70.0197 117.062C70.34 117.062 70.715 117.039 70.8791 117V115.859C70.7853 115.875 70.4728 115.898 70.3166 115.898C69.6213 115.898 69.3088 115.562 69.3088 114.82V109.992H70.8869V108.875H69.3088V106.914H67.9494ZM76.6131 120.039C78.0819 120.039 78.7538 119.469 79.4491 117.57L82.6444 108.875H81.2147L78.9647 115.641H78.9413L76.6913 108.875H75.2381L78.2381 117.008L78.0506 117.578C77.7381 118.523 77.3163 118.891 76.5584 118.891C76.3866 118.891 76.1756 118.883 76.0272 118.852V119.992C76.1756 120.023 76.4491 120.039 76.6131 120.039ZM87.0153 117.141C89.2575 117.141 90.7731 115.523 90.7731 112.938C90.7731 110.344 89.2575 108.734 87.0153 108.734C84.7653 108.734 83.2497 110.344 83.2497 112.938C83.2497 115.523 84.7653 117.141 87.0153 117.141ZM87.0153 115.945C85.5778 115.945 84.6325 114.852 84.6325 112.938C84.6325 111.023 85.5778 109.93 87.0153 109.93C88.4528 109.93 89.3903 111.023 89.3903 112.938C89.3903 114.852 88.4528 115.945 87.0153 115.945ZM98.98 108.875H97.6206V113.648C97.6206 115.031 96.8238 115.938 95.5034 115.938C94.2456 115.938 93.6284 115.227 93.6284 113.906V108.875H92.2691V114.148C92.2691 115.992 93.3081 117.141 95.0816 117.141C96.3316 117.141 97.1753 116.617 97.6597 115.68H97.6909V117H98.98V108.875ZM105.777 112.484V105.727H104.417V117H105.777V113.938L106.534 113.219L109.55 117H111.128L107.495 112.383L111.019 108.875H109.37L105.777 112.484ZM112.273 117H113.632V112.219C113.632 110.844 114.468 109.938 115.749 109.938C116.999 109.938 117.616 110.656 117.616 111.969V117H118.976V111.727C118.976 109.883 117.944 108.734 116.163 108.734C114.905 108.734 114.038 109.297 113.585 110.172H113.554V108.875H112.273V117ZM124.237 117.141C126.479 117.141 127.995 115.523 127.995 112.938C127.995 110.344 126.479 108.734 124.237 108.734C121.987 108.734 120.472 110.344 120.472 112.938C120.472 115.523 121.987 117.141 124.237 117.141ZM124.237 115.945C122.8 115.945 121.854 114.852 121.854 112.938C121.854 111.023 122.8 109.93 124.237 109.93C125.675 109.93 126.612 111.023 126.612 112.938C126.612 114.852 125.675 115.945 124.237 115.945ZM139.866 108.875H138.522L136.897 115.484H136.866L135.022 108.875H133.71L131.874 115.484H131.842L130.217 108.875H128.866L131.139 117H132.522L134.35 110.711H134.382L136.217 117H137.6L139.866 108.875ZM144.655 117H146.014V108.875H144.655V117ZM145.334 107.508C145.803 107.508 146.186 107.125 146.186 106.664C146.186 106.195 145.803 105.82 145.334 105.82C144.873 105.82 144.491 106.195 144.491 106.664C144.491 107.125 144.873 107.508 145.334 107.508ZM148.448 117H149.807V109.992H151.463V108.875H149.799V107.977C149.799 107.172 150.151 106.781 150.885 106.781C151.112 106.781 151.338 106.805 151.502 106.828V105.727C151.307 105.695 150.979 105.664 150.674 105.664C149.174 105.664 148.448 106.406 148.448 107.969V108.875H147.315V109.992H148.448V117ZM156.908 106.914V108.875H155.697V109.992H156.908V114.891C156.908 116.453 157.486 117.062 158.978 117.062C159.299 117.062 159.674 117.039 159.838 117V115.859C159.744 115.875 159.432 115.898 159.275 115.898C158.58 115.898 158.268 115.562 158.268 114.82V109.992H159.846V108.875H158.268V106.914H156.908ZM161.529 117H162.888V112.266C162.888 110.859 163.724 109.938 165.076 109.938C166.349 109.938 166.998 110.711 166.998 112V117H168.357V111.75C168.357 109.938 167.279 108.734 165.498 108.734C164.263 108.734 163.373 109.266 162.92 110.172H162.888V105.727H161.529V117ZM173.502 109.914C174.783 109.914 175.634 110.883 175.666 112.242H171.252C171.338 110.891 172.228 109.914 173.502 109.914ZM175.634 114.672C175.408 115.438 174.65 115.961 173.619 115.961C172.158 115.961 171.244 114.938 171.244 113.383V113.305H177.072V112.789C177.072 110.328 175.72 108.734 173.525 108.734C171.283 108.734 169.845 110.445 169.845 112.969C169.845 115.523 171.259 117.141 173.588 117.141C175.361 117.141 176.736 116.094 176.97 114.672H175.634ZM178.607 117H179.966V111.938C179.966 110.789 180.654 110.031 181.708 110.031C182.037 110.031 182.326 110.07 182.435 110.109V108.789C182.326 108.773 182.123 108.734 181.888 108.734C180.935 108.734 180.185 109.305 179.919 110.203H179.888V108.875H178.607V117ZM186.572 109.914C187.853 109.914 188.704 110.883 188.736 112.242H184.322C184.408 110.891 185.298 109.914 186.572 109.914ZM188.704 114.672C188.478 115.438 187.72 115.961 186.689 115.961C185.228 115.961 184.314 114.938 184.314 113.383V113.305H190.142V112.789C190.142 110.328 188.79 108.734 186.595 108.734C184.353 108.734 182.915 110.445 182.915 112.969C182.915 115.523 184.329 117.141 186.658 117.141C188.431 117.141 189.806 116.094 190.04 114.672H188.704ZM197.798 115.984C196.821 115.984 196.173 115.477 196.173 114.703C196.173 113.938 196.798 113.453 197.892 113.383L200.063 113.25V113.914C200.063 115.086 199.079 115.984 197.798 115.984ZM197.493 117.141C198.587 117.141 199.618 116.531 200.103 115.602H200.134V117H201.423V111.383C201.423 109.766 200.22 108.734 198.313 108.734C196.392 108.734 195.188 109.812 195.095 111.219H196.407C196.579 110.422 197.235 109.93 198.282 109.93C199.407 109.93 200.063 110.523 200.063 111.516V112.195L197.735 112.328C195.86 112.438 194.79 113.312 194.79 114.703C194.79 116.164 195.876 117.141 197.493 117.141ZM203.309 117H204.669V111.938C204.669 110.789 205.356 110.031 206.411 110.031C206.739 110.031 207.028 110.07 207.138 110.109V108.789C207.028 108.773 206.825 108.734 206.591 108.734C205.638 108.734 204.888 109.305 204.622 110.203H204.591V108.875H203.309V117ZM211.274 109.914C212.555 109.914 213.407 110.883 213.438 112.242H209.024C209.11 110.891 210.001 109.914 211.274 109.914ZM213.407 114.672C213.18 115.438 212.423 115.961 211.391 115.961C209.93 115.961 209.016 114.938 209.016 113.383V113.305H214.844V112.789C214.844 110.328 213.493 108.734 211.298 108.734C209.055 108.734 207.618 110.445 207.618 112.969C207.618 115.523 209.032 117.141 211.36 117.141C213.133 117.141 214.508 116.094 214.743 114.672H213.407ZM219.821 117H221.18V111.906C221.18 110.781 221.961 109.938 223.039 109.938C224.047 109.938 224.703 110.578 224.703 111.555V117H226.063V111.836C226.063 110.734 226.821 109.938 227.899 109.938C228.969 109.938 229.586 110.594 229.586 111.703V117H230.946V111.391C230.946 109.781 229.907 108.734 228.297 108.734C227.157 108.734 226.203 109.312 225.75 110.281H225.719C225.368 109.297 224.547 108.734 223.438 108.734C222.344 108.734 221.516 109.312 221.133 110.172H221.102V108.875H219.821V117ZM236.207 117.141C238.449 117.141 239.965 115.523 239.965 112.938C239.965 110.344 238.449 108.734 236.207 108.734C233.957 108.734 232.442 110.344 232.442 112.938C232.442 115.523 233.957 117.141 236.207 117.141ZM236.207 115.945C234.77 115.945 233.824 114.852 233.824 112.938C233.824 111.023 234.77 109.93 236.207 109.93C237.645 109.93 238.582 111.023 238.582 112.938C238.582 114.852 237.645 115.945 236.207 115.945ZM241.5 117H242.859V111.938C242.859 110.789 243.547 110.031 244.602 110.031C244.93 110.031 245.219 110.07 245.328 110.109V108.789C245.219 108.773 245.016 108.734 244.781 108.734C243.828 108.734 243.078 109.305 242.812 110.203H242.781V108.875H241.5V117ZM249.465 109.914C250.746 109.914 251.598 110.883 251.629 112.242H247.215C247.301 110.891 248.191 109.914 249.465 109.914ZM251.598 114.672C251.371 115.438 250.613 115.961 249.582 115.961C248.121 115.961 247.207 114.938 247.207 113.383V113.305H253.035V112.789C253.035 110.328 251.683 108.734 249.488 108.734C247.246 108.734 245.808 110.445 245.808 112.969C245.808 115.523 247.223 117.141 249.551 117.141C251.324 117.141 252.699 116.094 252.933 114.672H251.598ZM261.957 108.734C260.777 108.734 259.832 109.336 259.332 110.25H259.3V108.875H258.011V119.711H259.371V115.68H259.402C259.886 116.57 260.824 117.141 261.988 117.141C264.035 117.141 265.433 115.484 265.433 112.938C265.433 110.391 264.027 108.734 261.957 108.734ZM261.691 115.945C260.3 115.945 259.363 114.75 259.363 112.938C259.363 111.133 260.3 109.93 261.691 109.93C263.136 109.93 264.043 111.102 264.043 112.938C264.043 114.781 263.136 115.945 261.691 115.945ZM266.968 117H268.328V111.938C268.328 110.789 269.015 110.031 270.07 110.031C270.398 110.031 270.687 110.07 270.796 110.109V108.789C270.687 108.773 270.484 108.734 270.249 108.734C269.296 108.734 268.546 109.305 268.281 110.203H268.249V108.875H266.968V117ZM275.042 117.141C277.284 117.141 278.8 115.523 278.8 112.938C278.8 110.344 277.284 108.734 275.042 108.734C272.792 108.734 271.277 110.344 271.277 112.938C271.277 115.523 272.792 117.141 275.042 117.141ZM275.042 115.945C273.605 115.945 272.659 114.852 272.659 112.938C272.659 111.023 273.605 109.93 275.042 109.93C276.48 109.93 277.417 111.023 277.417 112.938C277.417 114.852 276.48 115.945 275.042 115.945ZM284.374 117.141C286.452 117.141 287.827 115.492 287.827 112.938C287.827 110.391 286.444 108.734 284.398 108.734C283.249 108.734 282.304 109.305 281.796 110.234H281.765V105.727H280.405V117H281.702V115.625H281.733C282.257 116.562 283.187 117.141 284.374 117.141ZM284.108 109.93C285.546 109.93 286.437 111.094 286.437 112.938C286.437 114.797 285.546 115.945 284.108 115.945C282.733 115.945 281.757 114.75 281.757 112.938C281.757 111.133 282.733 109.93 284.108 109.93ZM289.44 117H290.8V105.727H289.44V117ZM296.053 109.914C297.335 109.914 298.186 110.883 298.218 112.242H293.803C293.889 110.891 294.78 109.914 296.053 109.914ZM298.186 114.672C297.96 115.438 297.202 115.961 296.171 115.961C294.71 115.961 293.796 114.938 293.796 113.383V113.305H299.624V112.789C299.624 110.328 298.272 108.734 296.077 108.734C293.835 108.734 292.397 110.445 292.397 112.969C292.397 115.523 293.811 117.141 296.139 117.141C297.913 117.141 299.288 116.094 299.522 114.672H298.186ZM301.159 117H302.518V111.906C302.518 110.781 303.299 109.938 304.378 109.938C305.385 109.938 306.042 110.578 306.042 111.555V117H307.401V111.836C307.401 110.734 308.159 109.938 309.237 109.938C310.307 109.938 310.924 110.594 310.924 111.703V117H312.284V111.391C312.284 109.781 311.245 108.734 309.635 108.734C308.495 108.734 307.542 109.312 307.088 110.281H307.057C306.706 109.297 305.885 108.734 304.776 108.734C303.682 108.734 302.854 109.312 302.471 110.172H302.44V108.875H301.159V117ZM314.037 111.117C314.037 112.227 314.741 112.961 316.17 113.328L317.6 113.695C318.514 113.938 318.85 114.25 318.85 114.828C318.85 115.562 318.17 116.031 317.069 116.031C315.967 116.031 315.327 115.578 315.178 114.734H313.819C313.959 116.172 315.202 117.141 316.983 117.141C318.881 117.141 320.217 116.141 320.217 114.727C320.217 113.531 319.623 112.938 317.983 112.523L316.725 112.219C315.803 111.984 315.373 111.609 315.373 111.047C315.373 110.336 316.03 109.844 317.022 109.844C318.022 109.844 318.655 110.328 318.748 111.109H320.045C319.983 109.734 318.748 108.734 317.069 108.734C315.28 108.734 314.037 109.727 314.037 111.117ZM114.228 129.875H112.884L111.259 136.484H111.228L109.384 129.875H108.072L106.236 136.484H106.204L104.579 129.875H103.228L105.501 138H106.884L108.712 131.711H108.743L110.579 138H111.962L114.228 129.875ZM115.575 138H116.935V129.875H115.575V138ZM116.255 128.508C116.724 128.508 117.107 128.125 117.107 127.664C117.107 127.195 116.724 126.82 116.255 126.82C115.794 126.82 115.411 127.195 115.411 127.664C115.411 128.125 115.794 128.508 116.255 128.508ZM119.368 127.914V129.875H118.157V130.992H119.368V135.891C119.368 137.453 119.946 138.062 121.438 138.062C121.759 138.062 122.134 138.039 122.298 138V136.859C122.204 136.875 121.892 136.898 121.735 136.898C121.04 136.898 120.728 136.562 120.728 135.82V130.992H122.306V129.875H120.728V127.914H119.368ZM123.989 138H125.348V133.266C125.348 131.859 126.184 130.938 127.536 130.938C128.809 130.938 129.458 131.711 129.458 133V138H130.817V132.75C130.817 130.938 129.739 129.734 127.958 129.734C126.723 129.734 125.833 130.266 125.38 131.172H125.348V126.727H123.989V138ZM136.817 141.039C138.286 141.039 138.958 140.469 139.653 138.57L142.848 129.875H141.418L139.168 136.641H139.145L136.895 129.875H135.442L138.442 138.008L138.254 138.578C137.942 139.523 137.52 139.891 136.762 139.891C136.59 139.891 136.379 139.883 136.231 139.852V140.992C136.379 141.023 136.653 141.039 136.817 141.039ZM147.219 138.141C149.461 138.141 150.977 136.523 150.977 133.938C150.977 131.344 149.461 129.734 147.219 129.734C144.969 129.734 143.453 131.344 143.453 133.938C143.453 136.523 144.969 138.141 147.219 138.141ZM147.219 136.945C145.782 136.945 144.836 135.852 144.836 133.938C144.836 132.023 145.782 130.93 147.219 130.93C148.657 130.93 149.594 132.023 149.594 133.938C149.594 135.852 148.657 136.945 147.219 136.945ZM159.184 129.875H157.824V134.648C157.824 136.031 157.027 136.938 155.707 136.938C154.449 136.938 153.832 136.227 153.832 134.906V129.875H152.473V135.148C152.473 136.992 153.512 138.141 155.285 138.141C156.535 138.141 157.379 137.617 157.863 136.68H157.895V138H159.184V129.875ZM161.109 138H162.469V132.938C162.469 131.789 163.156 131.031 164.211 131.031C164.539 131.031 164.828 131.07 164.938 131.109V129.789C164.828 129.773 164.625 129.734 164.391 129.734C163.438 129.734 162.688 130.305 162.422 131.203H162.391V129.875H161.109V138ZM172.328 136.984C171.351 136.984 170.703 136.477 170.703 135.703C170.703 134.938 171.328 134.453 172.422 134.383L174.593 134.25V134.914C174.593 136.086 173.609 136.984 172.328 136.984ZM172.023 138.141C173.117 138.141 174.148 137.531 174.633 136.602H174.664V138H175.953V132.383C175.953 130.766 174.75 129.734 172.843 129.734C170.922 129.734 169.718 130.812 169.625 132.219H170.937C171.109 131.422 171.765 130.93 172.812 130.93C173.937 130.93 174.593 131.523 174.593 132.516V133.195L172.265 133.328C170.39 133.438 169.32 134.312 169.32 135.703C169.32 137.164 170.406 138.141 172.023 138.141ZM184.589 132.539C184.418 131.078 183.207 129.734 181.175 129.734C178.933 129.734 177.441 131.375 177.441 133.938C177.441 136.555 178.941 138.141 181.191 138.141C183.035 138.141 184.394 137 184.605 135.383H183.269C183.035 136.359 182.308 136.945 181.199 136.945C179.793 136.945 178.824 135.828 178.824 133.938C178.824 132.094 179.777 130.93 181.183 130.93C182.378 130.93 183.066 131.656 183.261 132.539H184.589ZM192.765 132.539C192.593 131.078 191.382 129.734 189.351 129.734C187.109 129.734 185.617 131.375 185.617 133.938C185.617 136.555 187.117 138.141 189.367 138.141C191.21 138.141 192.57 137 192.781 135.383H191.445C191.21 136.359 190.484 136.945 189.374 136.945C187.968 136.945 186.999 135.828 186.999 133.938C186.999 132.094 187.952 130.93 189.359 130.93C190.554 130.93 191.242 131.656 191.437 132.539H192.765ZM197.558 138.141C199.8 138.141 201.316 136.523 201.316 133.938C201.316 131.344 199.8 129.734 197.558 129.734C195.308 129.734 193.792 131.344 193.792 133.938C193.792 136.523 195.308 138.141 197.558 138.141ZM197.558 136.945C196.12 136.945 195.175 135.852 195.175 133.938C195.175 132.023 196.12 130.93 197.558 130.93C198.995 130.93 199.933 132.023 199.933 133.938C199.933 135.852 198.995 136.945 197.558 136.945ZM209.522 129.875H208.163V134.648C208.163 136.031 207.366 136.938 206.046 136.938C204.788 136.938 204.171 136.227 204.171 134.906V129.875H202.812V135.148C202.812 136.992 203.851 138.141 205.624 138.141C206.874 138.141 207.718 137.617 208.202 136.68H208.233V138H209.522V129.875ZM211.448 138H212.807V133.219C212.807 131.844 213.643 130.938 214.925 130.938C216.175 130.938 216.792 131.656 216.792 132.969V138H218.151V132.727C218.151 130.883 217.12 129.734 215.339 129.734C214.081 129.734 213.214 130.297 212.761 131.172H212.729V129.875H211.448V138ZM220.483 127.914V129.875H219.272V130.992H220.483V135.891C220.483 137.453 221.061 138.062 222.553 138.062C222.874 138.062 223.249 138.039 223.413 138V136.859C223.319 136.875 223.007 136.898 222.85 136.898C222.155 136.898 221.842 136.562 221.842 135.82V130.992H223.421V129.875H221.842V127.914H220.483Z" fill="#6B7280"/>
</svg>
