<svg width="327" height="68" viewBox="0 0 327 68" fill="none" xmlns="http://www.w3.org/2000/svg">
<mask id="path-1-inside-1_228_5057" fill="white">
<path d="M0 0H327V68H0V0Z"/>
</mask>
<path d="M0 0H327V68H0V0Z" fill="white"/>
<rect y="14" width="40" height="40" rx="20" fill="#D6E4FF"/>
<path d="M20.0002 38.9C19.7919 38.9 19.5752 38.825 19.4085 38.675L17.2585 36.7917C16.4502 36.0833 16.3419 34.8667 17.0169 34.025C17.7002 33.175 18.9169 33.0167 19.7919 33.675L20.0002 33.8333L20.2169 33.6667C21.0919 33.0083 22.3085 33.1667 22.9919 34.0167C23.6669 34.8583 23.5585 36.075 22.7502 36.7833L20.6002 38.6667C20.4252 38.825 20.2085 38.9 20.0002 38.9ZM18.0752 35.85L20.0002 37.5333L21.9252 35.85C22.2335 35.5833 22.2752 35.125 22.0169 34.8083C21.7585 34.4833 21.3002 34.425 20.9669 34.675L20.3752 35.1167C20.1502 35.2833 19.8502 35.2833 19.6252 35.1167L19.0335 34.675C18.7085 34.425 18.2419 34.4833 17.9835 34.8083C17.7335 35.125 17.7752 35.5833 18.0752 35.85Z" fill="#3366FF"/>
<path d="M24.1665 42.9583H15.8332C12.1582 42.9583 11.0415 41.8417 11.0415 38.1667V29.8333C11.0415 26.1583 12.1582 25.0417 15.8332 25.0417H17.0832C18.5415 25.0417 18.9998 25.5167 19.5832 26.2917L20.8332 27.9583C21.1082 28.325 21.1498 28.375 21.6665 28.375H24.1665C27.8415 28.375 28.9582 29.4917 28.9582 33.1667V38.1667C28.9582 41.8417 27.8415 42.9583 24.1665 42.9583ZM15.8332 26.2917C12.8498 26.2917 12.2915 26.8583 12.2915 29.8333V38.1667C12.2915 41.1417 12.8498 41.7083 15.8332 41.7083H24.1665C27.1498 41.7083 27.7082 41.1417 27.7082 38.1667V33.1667C27.7082 30.1917 27.1498 29.625 24.1665 29.625H21.6665C20.5998 29.625 20.2498 29.2583 19.8332 28.7083L18.5832 27.0417C18.1498 26.4667 18.0165 26.2917 17.0832 26.2917H15.8332Z" fill="#3366FF"/>
<path d="M53.0938 28.2266V39.5H54.5V35.4766H57.1016C59.2188 35.4766 60.7266 33.9844 60.7266 31.8438C60.7266 29.7109 59.2344 28.2266 57.1172 28.2266H53.0938ZM54.5 29.4766H56.75C58.3672 29.4766 59.2812 30.3516 59.2812 31.8438C59.2812 33.3438 58.3594 34.2266 56.75 34.2266H54.5V29.4766ZM65.2694 39.6406C67.5116 39.6406 69.0272 38.0234 69.0272 35.4375C69.0272 32.8438 67.5116 31.2344 65.2694 31.2344C63.0194 31.2344 61.5037 32.8438 61.5037 35.4375C61.5037 38.0234 63.0194 39.6406 65.2694 39.6406ZM65.2694 38.4453C63.8319 38.4453 62.8866 37.3516 62.8866 35.4375C62.8866 33.5234 63.8319 32.4297 65.2694 32.4297C66.7069 32.4297 67.6444 33.5234 67.6444 35.4375C67.6444 37.3516 66.7069 38.4453 65.2694 38.4453ZM70.5622 39.5H71.9216V34.4375C71.9216 33.2891 72.6091 32.5312 73.6637 32.5312C73.9919 32.5312 74.2809 32.5703 74.3903 32.6094V31.2891C74.2809 31.2734 74.0778 31.2344 73.8434 31.2344C72.8903 31.2344 72.1403 31.8047 71.8747 32.7031H71.8434V31.375H70.5622V39.5ZM76.0972 29.4141V31.375H74.8862V32.4922H76.0972V37.3906C76.0972 38.9531 76.6753 39.5625 78.1675 39.5625C78.4878 39.5625 78.8628 39.5391 79.0269 39.5V38.3594C78.9331 38.375 78.6206 38.3984 78.4644 38.3984C77.7691 38.3984 77.4566 38.0625 77.4566 37.3203V32.4922H79.0347V31.375H77.4566V29.4141H76.0972ZM81.0853 39.5H82.4447V32.4922H84.1009V31.375H82.4369V30.4766C82.4369 29.6719 82.7884 29.2812 83.5228 29.2812C83.7494 29.2812 83.9759 29.3047 84.14 29.3281V28.2266C83.9447 28.1953 83.6166 28.1641 83.3119 28.1641C81.8119 28.1641 81.0853 28.9062 81.0853 30.4688V31.375H79.9525V32.4922H81.0853V39.5ZM88.6437 39.6406C90.8859 39.6406 92.4016 38.0234 92.4016 35.4375C92.4016 32.8438 90.8859 31.2344 88.6437 31.2344C86.3937 31.2344 84.8781 32.8438 84.8781 35.4375C84.8781 38.0234 86.3937 39.6406 88.6437 39.6406ZM88.6437 38.4453C87.2062 38.4453 86.2609 37.3516 86.2609 35.4375C86.2609 33.5234 87.2062 32.4297 88.6437 32.4297C90.0812 32.4297 91.0187 33.5234 91.0187 35.4375C91.0187 37.3516 90.0812 38.4453 88.6437 38.4453ZM94.0069 39.5H95.3662V28.2266H94.0069V39.5ZM97.4325 39.5H98.7919V31.375H97.4325V39.5ZM98.1122 30.0078C98.5809 30.0078 98.9637 29.625 98.9637 29.1641C98.9637 28.6953 98.5809 28.3203 98.1122 28.3203C97.6512 28.3203 97.2684 28.6953 97.2684 29.1641C97.2684 29.625 97.6512 30.0078 98.1122 30.0078ZM104.155 39.6406C106.397 39.6406 107.913 38.0234 107.913 35.4375C107.913 32.8438 106.397 31.2344 104.155 31.2344C101.905 31.2344 100.389 32.8438 100.389 35.4375C100.389 38.0234 101.905 39.6406 104.155 39.6406ZM104.155 38.4453C102.717 38.4453 101.772 37.3516 101.772 35.4375C101.772 33.5234 102.717 32.4297 104.155 32.4297C105.592 32.4297 106.53 33.5234 106.53 35.4375C106.53 37.3516 105.592 38.4453 104.155 38.4453Z" fill="#111827"/>
<path d="M320.62 38.5467C320.493 38.5467 320.367 38.5 320.267 38.4C320.073 38.2067 320.073 37.8867 320.267 37.6933L323.96 34L320.267 30.3067C320.073 30.1133 320.073 29.7933 320.267 29.6C320.46 29.4067 320.78 29.4067 320.973 29.6L325.02 33.6467C325.213 33.84 325.213 34.16 325.02 34.3533L320.973 38.4C320.873 38.5 320.747 38.5467 320.62 38.5467Z" fill="#111827"/>
<path d="M324.553 34.5H313.333C313.06 34.5 312.833 34.2733 312.833 34C312.833 33.7267 313.06 33.5 313.333 33.5H324.553C324.827 33.5 325.053 33.7267 325.053 34C325.053 34.2733 324.827 34.5 324.553 34.5Z" fill="#111827"/>
<path d="M327 67H0V69H327V67Z" fill="#E5E7EB" mask="url(#path-1-inside-1_228_5057)"/>
</svg>
