<svg width="327" height="49" viewBox="0 0 327 49" fill="none" xmlns="http://www.w3.org/2000/svg">
<mask id="path-1-inside-1_233_5275" fill="white">
<path d="M0 0H327V49H0V0Z"/>
</mask>
<path d="M0 0H327V49H0V0Z" fill="white"/>
<path d="M1.09375 18.7266V30H2.5V25.9766H5.10156C7.21875 25.9766 8.72656 24.4844 8.72656 22.3438C8.72656 20.2109 7.23438 18.7266 5.11719 18.7266H1.09375ZM2.5 19.9766H4.75C6.36719 19.9766 7.28125 20.8516 7.28125 22.3438C7.28125 23.8438 6.35938 24.7266 4.75 24.7266H2.5V19.9766ZM10.2928 30H11.6522V24.9375C11.6522 23.7891 12.3397 23.0312 13.3944 23.0312C13.7225 23.0312 14.0116 23.0703 14.1209 23.1094V21.7891C14.0116 21.7734 13.8084 21.7344 13.5741 21.7344C12.6209 21.7344 11.8709 22.3047 11.6053 23.2031H11.5741V21.875H10.2928V30ZM15.4606 30H16.82V21.875H15.4606V30ZM16.1403 20.5078C16.6091 20.5078 16.9919 20.125 16.9919 19.6641C16.9919 19.1953 16.6091 18.8203 16.1403 18.8203C15.6794 18.8203 15.2966 19.1953 15.2966 19.6641C15.2966 20.125 15.6794 20.5078 16.1403 20.5078ZM25.48 21.875H24.0659L21.8159 28.5547H21.7847L19.5425 21.875H18.1128L21.105 30H22.4956L25.48 21.875ZM29.2337 28.9844C28.2572 28.9844 27.6087 28.4766 27.6087 27.7031C27.6087 26.9375 28.2337 26.4531 29.3275 26.3828L31.4994 26.25V26.9141C31.4994 28.0859 30.515 28.9844 29.2337 28.9844ZM28.9291 30.1406C30.0228 30.1406 31.0541 29.5312 31.5384 28.6016H31.5697V30H32.8587V24.3828C32.8587 22.7656 31.6556 21.7344 29.7494 21.7344C27.8275 21.7344 26.6244 22.8125 26.5306 24.2188H27.8431C28.015 23.4219 28.6712 22.9297 29.7181 22.9297C30.8431 22.9297 31.4994 23.5234 31.4994 24.5156V25.1953L29.1712 25.3281C27.2962 25.4375 26.2259 26.3125 26.2259 27.7031C26.2259 29.1641 27.3119 30.1406 28.9291 30.1406ZM41.4953 24.5391C41.3234 23.0781 40.1125 21.7344 38.0812 21.7344C35.8391 21.7344 34.3469 23.375 34.3469 25.9375C34.3469 28.5547 35.8469 30.1406 38.0969 30.1406C39.9406 30.1406 41.3 29 41.5109 27.3828H40.175C39.9406 28.3594 39.2141 28.9453 38.1047 28.9453C36.6984 28.9453 35.7297 27.8281 35.7297 25.9375C35.7297 24.0938 36.6828 22.9297 38.0891 22.9297C39.2844 22.9297 39.9719 23.6562 40.1672 24.5391H41.4953ZM43.5928 33.0391C45.0616 33.0391 45.7334 32.4688 46.4287 30.5703L49.6241 21.875H48.1944L45.9444 28.6406H45.9209L43.6709 21.875H42.2178L45.2178 30.0078L45.0303 30.5781C44.7178 31.5234 44.2959 31.8906 43.5381 31.8906C43.3662 31.8906 43.1553 31.8828 43.0069 31.8516V32.9922C43.1553 33.0234 43.4287 33.0391 43.5928 33.0391ZM54.5144 18.7266V30H55.9206V25.9766H58.5222C60.6394 25.9766 62.1472 24.4844 62.1472 22.3438C62.1472 20.2109 60.655 18.7266 58.5378 18.7266H54.5144ZM55.9206 19.9766H58.1706C59.7878 19.9766 60.7019 20.8516 60.7019 22.3438C60.7019 23.8438 59.78 24.7266 58.1706 24.7266H55.9206V19.9766ZM66.69 30.1406C68.9322 30.1406 70.4478 28.5234 70.4478 25.9375C70.4478 23.3438 68.9322 21.7344 66.69 21.7344C64.44 21.7344 62.9244 23.3438 62.9244 25.9375C62.9244 28.5234 64.44 30.1406 66.69 30.1406ZM66.69 28.9453C65.2525 28.9453 64.3072 27.8516 64.3072 25.9375C64.3072 24.0234 65.2525 22.9297 66.69 22.9297C68.1275 22.9297 69.065 24.0234 69.065 25.9375C69.065 27.8516 68.1275 28.9453 66.69 28.9453ZM72.0531 30H73.4125V18.7266H72.0531V30ZM75.4788 30H76.8381V21.875H75.4788V30ZM76.1584 20.5078C76.6272 20.5078 77.01 20.125 77.01 19.6641C77.01 19.1953 76.6272 18.8203 76.1584 18.8203C75.6975 18.8203 75.3147 19.1953 75.3147 19.6641C75.3147 20.125 75.6975 20.5078 76.1584 20.5078ZM85.5841 24.5391C85.4122 23.0781 84.2012 21.7344 82.17 21.7344C79.9278 21.7344 78.4356 23.375 78.4356 25.9375C78.4356 28.5547 79.9356 30.1406 82.1856 30.1406C84.0294 30.1406 85.3887 29 85.5997 27.3828H84.2637C84.0294 28.3594 83.3028 28.9453 82.1934 28.9453C80.7872 28.9453 79.8184 27.8281 79.8184 25.9375C79.8184 24.0938 80.7716 22.9297 82.1778 22.9297C83.3731 22.9297 84.0606 23.6562 84.2559 24.5391H85.5841ZM87.6816 33.0391C89.1503 33.0391 89.8222 32.4688 90.5175 30.5703L93.7128 21.875H92.2831L90.0331 28.6406H90.0097L87.7597 21.875H86.3066L89.3066 30.0078L89.1191 30.5781C88.8066 31.5234 88.3847 31.8906 87.6269 31.8906C87.455 31.8906 87.2441 31.8828 87.0956 31.8516V32.9922C87.2441 33.0234 87.5175 33.0391 87.6816 33.0391Z" fill="#111827"/>
<path d="M320.62 29.0467C320.493 29.0467 320.367 29 320.267 28.9C320.073 28.7067 320.073 28.3867 320.267 28.1934L323.96 24.5L320.267 20.8067C320.073 20.6134 320.073 20.2934 320.267 20.1C320.46 19.9067 320.78 19.9067 320.973 20.1L325.02 24.1467C325.213 24.34 325.213 24.66 325.02 24.8534L320.973 28.9C320.873 29 320.747 29.0467 320.62 29.0467Z" fill="#111827"/>
<path d="M324.553 25H313.333C313.06 25 312.833 24.7733 312.833 24.5C312.833 24.2267 313.06 24 313.333 24H324.553C324.827 24 325.053 24.2267 325.053 24.5C325.053 24.7733 324.827 25 324.553 25Z" fill="#111827"/>
<path d="M327 48H0V50H327V48Z" fill="#E5E7EB" mask="url(#path-1-inside-1_233_5275)"/>
</svg>
