<svg width="327" height="68" viewBox="0 0 327 68" fill="none" xmlns="http://www.w3.org/2000/svg">
<rect width="327" height="68" rx="8" fill="#FAFAFA"/>
<path d="M32.207 23H33.8271L30.2655 13.1357H28.6112L25.0497 23H26.6425L27.5448 20.334H31.3046L32.207 23ZM29.4042 14.7764H29.4452L30.915 19.1035H27.9345L29.4042 14.7764ZM38.6223 15.6924C37.5833 15.6924 36.7561 16.2188 36.3323 17.0459H36.305V15.8086H34.8763V25.3789H36.3528V21.8174H36.387C36.7971 22.6172 37.6175 23.123 38.6497 23.123C40.4544 23.123 41.6507 21.6807 41.6507 19.4043C41.6507 17.1279 40.4475 15.6924 38.6223 15.6924ZM38.2327 21.8721C37.0979 21.8721 36.346 20.9014 36.346 19.4043C36.346 17.9209 37.1048 16.9365 38.2327 16.9365C39.4016 16.9365 40.1331 17.9004 40.1331 19.4043C40.1331 20.915 39.4016 21.8721 38.2327 21.8721ZM46.6784 15.6924C45.6393 15.6924 44.8121 16.2188 44.3883 17.0459H44.361V15.8086H42.9323V25.3789H44.4088V21.8174H44.443C44.8532 22.6172 45.6735 23.123 46.7057 23.123C48.5104 23.123 49.7067 21.6807 49.7067 19.4043C49.7067 17.1279 48.5036 15.6924 46.6784 15.6924ZM46.2887 21.8721C45.1539 21.8721 44.402 20.9014 44.402 19.4043C44.402 17.9209 45.1608 16.9365 46.2887 16.9365C47.4577 16.9365 48.1891 17.9004 48.1891 19.4043C48.1891 20.915 47.4577 21.8721 46.2887 21.8721ZM51.043 23H52.5195V13.1357H51.043V23ZM54.225 23H55.7015V15.8086H54.225V23ZM54.9632 14.7559C55.4418 14.7559 55.8246 14.3799 55.8246 13.915C55.8246 13.4434 55.4418 13.0674 54.9632 13.0674C54.4916 13.0674 54.1087 13.4434 54.1087 13.915C54.1087 14.3799 54.4916 14.7559 54.9632 14.7559ZM60.3601 16.8682C61.3923 16.8682 62.0896 17.6406 62.1237 18.7412H58.528C58.6032 17.6543 59.3279 16.8682 60.3601 16.8682ZM62.1169 20.8877C61.9187 21.5166 61.2966 21.9404 60.4558 21.9404C59.2732 21.9404 58.5212 21.1133 58.5212 19.8623V19.7734H63.6003V19.2676C63.6003 17.0869 62.3562 15.6787 60.3601 15.6787C58.3298 15.6787 57.031 17.1826 57.031 19.4385C57.031 21.708 58.3093 23.1367 60.4216 23.1367C62.0691 23.1367 63.3132 22.2002 63.5183 20.8877H62.1169ZM67.5889 23.123C68.6348 23.123 69.4552 22.5967 69.879 21.7764H69.9063V23H71.3419V13.1357H69.8585V17.0049H69.8311C69.4278 16.2119 68.6075 15.6924 67.5753 15.6924C65.7706 15.6924 64.5675 17.1348 64.5675 19.4043C64.5675 21.6738 65.7706 23.123 67.5889 23.123ZM67.9786 16.9365C69.1134 16.9365 69.8721 17.9141 69.8721 19.4043C69.8721 20.9082 69.1134 21.8721 67.9786 21.8721C66.8096 21.8721 66.0782 20.9219 66.0782 19.4043C66.0782 17.8936 66.8096 16.9365 67.9786 16.9365Z" fill="#6B7280"/>
<path d="M43.8297 55H45.9293V52.2168H47.8629V50.3809H45.9293V40.9082H42.7652C39.5914 45.498 37.9898 48.0273 36.7789 50.3027V52.2168H43.8297V55ZM38.8199 50.3613C39.943 48.3203 41.3688 46.123 43.8102 42.5977H43.8492V50.4102H38.8199V50.3613ZM55.0551 55.2734C58.0434 55.2734 60.2016 53.2227 60.2016 50.4004C60.2016 47.7246 58.2094 45.7422 55.5238 45.7422C53.766 45.7422 52.2719 46.6602 51.6566 48.0273H51.6176C51.6273 44.4824 52.9164 42.4707 55.1332 42.4707C56.4223 42.4707 57.477 43.2227 57.8188 44.375H60.0063C59.5766 42.1289 57.643 40.6348 55.1527 40.6348C51.6273 40.6348 49.518 43.4277 49.518 48.1445C49.518 49.7949 49.8109 51.1816 50.3871 52.3047C51.3051 54.209 52.975 55.2734 55.0551 55.2734ZM55.0355 53.4277C53.3559 53.4277 52.057 52.0996 52.057 50.4297C52.057 48.7598 53.3363 47.5293 55.0551 47.5293C56.7836 47.5293 58.0238 48.7598 58.0238 50.4688C58.0238 52.1191 56.6957 53.4277 55.0355 53.4277Z" fill="#111827"/>
<path d="M106 12V56" stroke="#D1D5DB"/>
<path d="M135.919 14.4209H138.025C139.207 14.4209 139.925 15.0908 139.925 16.1914C139.925 17.3193 139.248 17.9688 138.066 17.9688H135.919V14.4209ZM135.919 19.2061H138.025L140.034 23H141.798L139.59 18.9668C140.793 18.5635 141.504 17.4834 141.504 16.1504C141.504 14.3115 140.239 13.1357 138.209 13.1357H134.388V23H135.919V19.2061ZM145.93 16.8682C146.963 16.8682 147.66 17.6406 147.694 18.7412H144.098C144.173 17.6543 144.898 16.8682 145.93 16.8682ZM147.687 20.8877C147.489 21.5166 146.867 21.9404 146.026 21.9404C144.843 21.9404 144.091 21.1133 144.091 19.8623V19.7734H149.171V19.2676C149.171 17.0869 147.926 15.6787 145.93 15.6787C143.9 15.6787 142.601 17.1826 142.601 19.4385C142.601 21.708 143.879 23.1367 145.992 23.1367C147.639 23.1367 148.883 22.2002 149.088 20.8877H147.687ZM156.557 15.8086H155.012L153.207 21.5576H153.18L151.375 15.8086H149.803L152.394 23H153.979L156.557 15.8086ZM157.592 23H159.069V15.8086H157.592V23ZM158.33 14.7559C158.809 14.7559 159.192 14.3799 159.192 13.915C159.192 13.4434 158.809 13.0674 158.33 13.0674C157.859 13.0674 157.476 13.4434 157.476 13.915C157.476 14.3799 157.859 14.7559 158.33 14.7559ZM163.727 16.8682C164.759 16.8682 165.457 17.6406 165.491 18.7412H161.895C161.97 17.6543 162.695 16.8682 163.727 16.8682ZM165.484 20.8877C165.286 21.5166 164.664 21.9404 163.823 21.9404C162.64 21.9404 161.888 21.1133 161.888 19.8623V19.7734H166.967V19.2676C166.967 17.0869 165.723 15.6787 163.727 15.6787C161.697 15.6787 160.398 17.1826 160.398 19.4385C160.398 21.708 161.676 23.1367 163.789 23.1367C165.436 23.1367 166.68 22.2002 166.885 20.8877H165.484ZM177.744 15.8086H176.281L174.969 21.4688H174.935L173.431 15.8086H172.009L170.512 21.4688H170.484L169.172 15.8086H167.695L169.671 23H171.195L172.692 17.6133H172.727L174.237 23H175.775L177.744 15.8086ZM181.753 16.8682C182.786 16.8682 183.483 17.6406 183.517 18.7412H179.921C179.996 17.6543 180.721 16.8682 181.753 16.8682ZM183.51 20.8877C183.312 21.5166 182.69 21.9404 181.849 21.9404C180.666 21.9404 179.914 21.1133 179.914 19.8623V19.7734H184.994V19.2676C184.994 17.0869 183.749 15.6787 181.753 15.6787C179.723 15.6787 178.424 17.1826 178.424 19.4385C178.424 21.708 179.703 23.1367 181.815 23.1367C183.462 23.1367 184.706 22.2002 184.912 20.8877H183.51ZM188.982 23.123C190.028 23.123 190.848 22.5967 191.272 21.7764H191.3V23H192.735V13.1357H191.252V17.0049H191.224C190.821 16.2119 190.001 15.6924 188.969 15.6924C187.164 15.6924 185.961 17.1348 185.961 19.4043C185.961 21.6738 187.164 23.123 188.982 23.123ZM189.372 16.9365C190.507 16.9365 191.265 17.9141 191.265 19.4043C191.265 20.9082 190.507 21.8721 189.372 21.8721C188.203 21.8721 187.471 20.9219 187.471 19.4043C187.471 17.8936 188.203 16.9365 189.372 16.9365Z" fill="#6B7280"/>
<path d="M152.531 45.0391V45.0586H154.601V45.0293C154.601 43.5645 155.763 42.4512 157.306 42.4512C158.771 42.4512 159.904 43.4473 159.904 44.6973C159.904 45.8008 159.455 46.543 157.736 48.3301L152.648 53.5156V55H162.287V53.1543H155.597V53.1055L159.123 49.5605C161.183 47.4512 162.062 46.2305 162.062 44.5898C162.062 42.3535 160.06 40.6445 157.375 40.6445C154.572 40.6445 152.531 42.5 152.531 45.0391ZM167.496 48.623H169.254C171.11 48.623 172.262 49.5605 172.262 51.084C172.262 52.4609 171.032 53.4375 169.313 53.4375C167.536 53.4375 166.422 52.5098 166.286 51.1621H164.186C164.323 53.5938 166.276 55.2637 169.313 55.2637C172.252 55.2637 174.489 53.5742 174.489 51.1133C174.489 49.1406 173.121 47.8418 171.002 47.6953V47.6562C172.75 47.3438 173.903 46.084 173.903 44.3262C173.903 42.1582 171.959 40.6445 169.293 40.6445C166.5 40.6445 164.635 42.2363 164.469 44.707H166.53C166.657 43.3203 167.672 42.4414 169.196 42.4414C170.866 42.4414 171.764 43.3105 171.764 44.6191C171.764 45.9473 170.719 46.9043 169.196 46.9043H167.496V48.623Z" fill="#111827"/>
<path d="M221 12V56" stroke="#D1D5DB"/>
<path d="M251.225 23.1641C253.495 23.1641 255.04 21.9678 255.416 19.9307H253.891C253.584 21.1201 252.606 21.8242 251.232 21.8242C249.42 21.8242 248.272 20.3682 248.272 18.0645C248.272 15.7812 249.434 14.3115 251.225 14.3115C252.565 14.3115 253.618 15.1387 253.891 16.4033H255.409C255.149 14.3457 253.461 12.9717 251.225 12.9717C248.47 12.9717 246.707 14.9404 246.707 18.0645C246.707 21.209 248.457 23.1641 251.225 23.1641ZM259.849 23.1367C261.906 23.1367 263.26 21.7217 263.26 19.4043C263.26 17.0938 261.899 15.6787 259.849 15.6787C257.798 15.6787 256.437 17.0938 256.437 19.4043C256.437 21.7217 257.791 23.1367 259.849 23.1367ZM259.849 21.9199C258.693 21.9199 257.941 21.0039 257.941 19.4043C257.941 17.8115 258.693 16.8955 259.849 16.8955C261.004 16.8955 261.756 17.8115 261.756 19.4043C261.756 21.0039 261.011 21.9199 259.849 21.9199ZM264.541 23H266.018V18.8096C266.018 17.6953 266.688 16.957 267.727 16.957C268.752 16.957 269.258 17.5518 269.258 18.6318V23H270.741V18.3447C270.741 16.6973 269.832 15.6855 268.246 15.6855C267.139 15.6855 266.373 16.1914 265.984 17.0117H265.949V15.8086H264.541V23ZM272.741 14.1064V15.8086H271.695V16.9775H272.741V21.1064C272.741 22.4941 273.308 23.0479 274.764 23.0479C275.092 23.0479 275.421 23.0205 275.585 22.9795V21.8105C275.489 21.8311 275.25 21.8447 275.099 21.8447C274.498 21.8447 274.224 21.5645 274.224 20.9424V16.9775H275.591V15.8086H274.224V14.1064H272.741ZM279.354 21.9541C278.562 21.9541 278.042 21.5439 278.042 20.915C278.042 20.2998 278.541 19.9102 279.423 19.8486L281.193 19.7393V20.3066C281.193 21.2432 280.387 21.9541 279.354 21.9541ZM278.944 23.123C279.888 23.123 280.797 22.6172 281.214 21.8174H281.248V23H282.663V18.0439C282.663 16.6016 281.549 15.6787 279.806 15.6787C278.028 15.6787 276.921 16.6357 276.839 17.9346H278.233C278.363 17.292 278.896 16.8818 279.751 16.8818C280.653 16.8818 281.193 17.3604 281.193 18.1602V18.7139L279.225 18.8301C277.516 18.9258 276.552 19.6982 276.552 20.9561C276.552 22.248 277.536 23.123 278.944 23.123ZM290.411 18.2832C290.282 16.8682 289.154 15.6787 287.301 15.6787C285.257 15.6787 283.917 17.1211 283.917 19.4043C283.917 21.7285 285.257 23.1367 287.315 23.1367C289.044 23.1367 290.268 22.0977 290.425 20.5664H289.003C288.832 21.4004 288.238 21.8994 287.328 21.8994C286.18 21.8994 285.421 20.9834 285.421 19.4043C285.421 17.8594 286.173 16.9092 287.315 16.9092C288.279 16.9092 288.853 17.5176 289.003 18.2832H290.411ZM292.042 14.1064V15.8086H290.996V16.9775H292.042V21.1064C292.042 22.4941 292.609 23.0479 294.065 23.0479C294.393 23.0479 294.721 23.0205 294.885 22.9795V21.8105C294.79 21.8311 294.551 21.8447 294.4 21.8447C293.799 21.8447 293.525 21.5645 293.525 20.9424V16.9775H294.892V15.8086H293.525V14.1064H292.042ZM299.079 16.8682C300.111 16.8682 300.809 17.6406 300.843 18.7412H297.247C297.322 17.6543 298.047 16.8682 299.079 16.8682ZM300.836 20.8877C300.638 21.5166 300.016 21.9404 299.175 21.9404C297.992 21.9404 297.24 21.1133 297.24 19.8623V19.7734H302.319V19.2676C302.319 17.0869 301.075 15.6787 299.079 15.6787C297.049 15.6787 295.75 17.1826 295.75 19.4385C295.75 21.708 297.028 23.1367 299.141 23.1367C300.788 23.1367 302.032 22.2002 302.237 20.8877H300.836ZM306.308 23.123C307.354 23.123 308.174 22.5967 308.598 21.7764H308.625V23H310.061V13.1357H308.578V17.0049H308.55C308.147 16.2119 307.327 15.6924 306.294 15.6924C304.49 15.6924 303.287 17.1348 303.287 19.4043C303.287 21.6738 304.49 23.123 306.308 23.123ZM306.698 16.9365C307.832 16.9365 308.591 17.9141 308.591 19.4043C308.591 20.9082 307.832 21.8721 306.698 21.8721C305.529 21.8721 304.797 20.9219 304.797 19.4043C304.797 17.8936 305.529 16.9365 306.698 16.9365Z" fill="#6B7280"/>
<path d="M272.336 55H274.474V40.9082H272.316L268.605 43.5449V45.6934L272.287 43.0762H272.336V55ZM283.414 55.2734C286.403 55.2734 288.561 53.2227 288.561 50.4004C288.561 47.7246 286.569 45.7422 283.883 45.7422C282.125 45.7422 280.631 46.6602 280.016 48.0273H279.977C279.987 44.4824 281.276 42.4707 283.493 42.4707C284.782 42.4707 285.836 43.2227 286.178 44.375H288.366C287.936 42.1289 286.002 40.6348 283.512 40.6348C279.987 40.6348 277.877 43.4277 277.877 48.1445C277.877 49.7949 278.17 51.1816 278.746 52.3047C279.664 54.209 281.334 55.2734 283.414 55.2734ZM283.395 53.4277C281.715 53.4277 280.416 52.0996 280.416 50.4297C280.416 48.7598 281.696 47.5293 283.414 47.5293C285.143 47.5293 286.383 48.7598 286.383 50.4688C286.383 52.1191 285.055 53.4277 283.395 53.4277Z" fill="#111827"/>
</svg>
