<svg width="314" height="170" viewBox="0 0 314 170" fill="none" xmlns="http://www.w3.org/2000/svg">
<path d="M207 50C207 77.6142 184.614 100 157 100C129.386 100 107 77.6142 107 50C107 22.3858 129.386 0 157 0C184.614 0 207 22.3858 207 50ZM114.485 50C114.485 73.4804 133.52 92.515 157 92.515C180.48 92.515 199.515 73.4804 199.515 50C199.515 26.5196 180.48 7.48504 157 7.48504C133.52 7.48504 114.485 26.5196 114.485 50Z" fill="#E5E7EB"/>
<path d="M207 50C207 77.6142 184.614 100 157 100C129.386 100 107 77.6142 107 50C107 22.3858 129.386 0 157 0C184.614 0 207 22.3858 207 50ZM114.506 50C114.506 73.4687 133.531 92.4939 157 92.4939C180.469 92.4939 199.494 73.4687 199.494 50C199.494 26.5313 180.469 7.50612 157 7.50612C133.531 7.50612 114.506 26.5313 114.506 50Z" fill="#3366FF"/>
<path d="M132.652 59H135.218V42.0898H132.628L128.175 45.2539V47.832L132.593 44.6914H132.652V59ZM145.747 59.3164C149.802 59.3164 152.181 55.9062 152.181 50.5156C152.181 45.1602 149.79 41.7734 145.747 41.7734C141.716 41.7734 139.29 45.1719 139.29 50.5273C139.29 55.918 141.692 59.3164 145.747 59.3164ZM145.747 57.1133C143.333 57.1133 141.95 54.6055 141.95 50.5273C141.95 46.5078 143.357 43.9766 145.747 43.9766C148.138 43.9766 149.532 46.4961 149.532 50.5273C149.532 54.6172 148.161 57.1133 145.747 57.1133ZM160.94 59.3164C164.995 59.3164 167.374 55.9062 167.374 50.5156C167.374 45.1602 164.983 41.7734 160.94 41.7734C156.909 41.7734 154.483 45.1719 154.483 50.5273C154.483 55.918 156.886 59.3164 160.94 59.3164ZM160.94 57.1133C158.526 57.1133 157.143 54.6055 157.143 50.5273C157.143 46.5078 158.55 43.9766 160.94 43.9766C163.331 43.9766 164.725 46.4961 164.725 50.5273C164.725 54.6172 163.354 57.1133 160.94 57.1133ZM176.544 46.1094C176.544 43.5078 175.102 41.8438 172.887 41.8438C170.661 41.8438 169.219 43.5078 169.219 46.1094C169.219 48.7109 170.661 50.375 172.887 50.375C175.102 50.375 176.544 48.7109 176.544 46.1094ZM172.887 48.7227C171.95 48.7227 171.364 47.7266 171.364 46.0977C171.364 44.4805 171.95 43.4844 172.887 43.4844C173.813 43.4844 174.399 44.4805 174.399 46.0977C174.399 47.7266 173.813 48.7227 172.887 48.7227ZM172.782 59L178.77 50.8086L185.133 42.0898H182.825L177.001 50.0586L170.462 59H172.782ZM186.376 54.9336C186.376 52.3203 184.946 50.6562 182.719 50.6562C180.493 50.6562 179.063 52.3203 179.063 54.9336C179.063 57.5352 180.493 59.1992 182.719 59.1992C184.946 59.1992 186.376 57.5352 186.376 54.9336ZM182.719 57.5352C181.782 57.5352 181.208 56.5508 181.208 54.9219C181.208 53.293 181.782 52.3086 182.719 52.3086C183.657 52.3086 184.231 53.293 184.231 54.9219C184.231 56.5508 183.657 57.5352 182.719 57.5352Z" fill="#3366FF"/>
<path d="M121.522 136.188C124.116 136.188 125.882 134.82 126.311 132.492H124.569C124.217 133.852 123.1 134.656 121.53 134.656C119.46 134.656 118.147 132.992 118.147 130.359C118.147 127.75 119.475 126.07 121.522 126.07C123.053 126.07 124.257 127.016 124.569 128.461H126.303C126.007 126.109 124.077 124.539 121.522 124.539C118.374 124.539 116.358 126.789 116.358 130.359C116.358 133.953 118.358 136.188 121.522 136.188ZM131.378 136.156C133.729 136.156 135.276 134.539 135.276 131.891C135.276 129.25 133.721 127.633 131.378 127.633C129.034 127.633 127.479 129.25 127.479 131.891C127.479 134.539 129.026 136.156 131.378 136.156ZM131.378 134.766C130.057 134.766 129.198 133.719 129.198 131.891C129.198 130.07 130.057 129.023 131.378 129.023C132.698 129.023 133.557 130.07 133.557 131.891C133.557 133.719 132.706 134.766 131.378 134.766ZM136.741 136H138.428V130.922C138.428 129.867 139.139 129.086 140.139 129.086C141.092 129.086 141.694 129.688 141.694 130.633V136H143.35V130.867C143.35 129.828 144.045 129.086 145.045 129.086C146.045 129.086 146.616 129.695 146.616 130.758V136H148.311V130.352C148.311 128.719 147.248 127.641 145.623 127.641C144.452 127.641 143.483 128.25 143.061 129.25H143.022C142.694 128.227 141.866 127.641 140.725 127.641C139.616 127.641 138.756 128.25 138.389 129.164H138.35V127.781H136.741V136ZM154.385 127.648C153.197 127.648 152.252 128.25 151.768 129.195H151.737V127.781H150.104V138.719H151.791V134.648H151.83C152.299 135.562 153.237 136.141 154.416 136.141C156.479 136.141 157.846 134.492 157.846 131.891C157.846 129.289 156.471 127.648 154.385 127.648ZM153.94 134.711C152.643 134.711 151.783 133.602 151.783 131.891C151.783 130.195 152.651 129.07 153.94 129.07C155.276 129.07 156.112 130.172 156.112 131.891C156.112 133.617 155.276 134.711 153.94 134.711ZM159.373 136H161.061V124.727H159.373V136ZM166.393 128.992C167.572 128.992 168.369 129.875 168.408 131.133H164.299C164.385 129.891 165.213 128.992 166.393 128.992ZM168.4 133.586C168.174 134.305 167.463 134.789 166.502 134.789C165.15 134.789 164.291 133.844 164.291 132.414V132.312H170.096V131.734C170.096 129.242 168.674 127.633 166.393 127.633C164.072 127.633 162.588 129.352 162.588 131.93C162.588 134.523 164.049 136.156 166.463 136.156C168.346 136.156 169.768 135.086 170.002 133.586H168.4ZM172.06 125.836V127.781H170.865V129.117H172.06V133.836C172.06 135.422 172.709 136.055 174.373 136.055C174.748 136.055 175.123 136.023 175.31 135.977V134.641C175.201 134.664 174.927 134.68 174.756 134.68C174.068 134.68 173.756 134.359 173.756 133.648V129.117H175.318V127.781H173.756V125.836H172.06ZM180.103 128.992C181.283 128.992 182.08 129.875 182.119 131.133H178.009C178.095 129.891 178.923 128.992 180.103 128.992ZM182.111 133.586C181.884 134.305 181.173 134.789 180.212 134.789C178.861 134.789 178.002 133.844 178.002 132.414V132.312H183.806V131.734C183.806 129.242 182.384 127.633 180.103 127.633C177.783 127.633 176.298 129.352 176.298 131.93C176.298 134.523 177.759 136.156 180.173 136.156C182.056 136.156 183.478 135.086 183.712 133.586H182.111ZM188.365 136.141C189.56 136.141 190.497 135.539 190.982 134.602H191.013V136H192.654V124.727H190.958V129.148H190.927C190.466 128.242 189.529 127.648 188.349 127.648C186.287 127.648 184.912 129.297 184.912 131.891C184.912 134.484 186.287 136.141 188.365 136.141ZM188.81 129.07C190.107 129.07 190.974 130.188 190.974 131.891C190.974 133.609 190.107 134.711 188.81 134.711C187.474 134.711 186.638 133.625 186.638 131.891C186.638 130.164 187.474 129.07 188.81 129.07ZM195.118 124.727L195.243 132.266H196.736L196.861 124.727H195.118ZM195.986 136.117C196.572 136.117 197.017 135.68 197.017 135.109C197.017 134.539 196.572 134.102 195.986 134.102C195.415 134.102 194.962 134.539 194.962 135.109C194.962 135.68 195.415 136.117 195.986 136.117Z" fill="#3366FF"/>
<path d="M6.16376 165.188C8.65594 165.188 10.3278 163.945 10.8434 161.719H9.42157C9.01532 163.094 7.82782 163.891 6.17157 163.891C3.94501 163.891 2.53094 162.125 2.53094 159.359C2.53094 156.617 3.96063 154.836 6.16376 154.836C7.77313 154.836 9.06219 155.805 9.42157 157.281H10.8434C10.4841 155.031 8.61688 153.539 6.16376 153.539C3.07782 153.539 1.08563 155.82 1.08563 159.359C1.08563 162.93 3.05438 165.188 6.16376 165.188ZM15.8238 165.141C18.0659 165.141 19.5816 163.523 19.5816 160.938C19.5816 158.344 18.0659 156.734 15.8238 156.734C13.5738 156.734 12.0581 158.344 12.0581 160.938C12.0581 163.523 13.5738 165.141 15.8238 165.141ZM15.8238 163.945C14.3863 163.945 13.4409 162.852 13.4409 160.938C13.4409 159.023 14.3863 157.93 15.8238 157.93C17.2613 157.93 18.1988 159.023 18.1988 160.938C18.1988 162.852 17.2613 163.945 15.8238 163.945ZM21.1166 165H22.4759V159.906C22.4759 158.781 23.2572 157.938 24.3353 157.938C25.3431 157.938 25.9994 158.578 25.9994 159.555V165H27.3588V159.836C27.3588 158.734 28.1166 157.938 29.1947 157.938C30.265 157.938 30.8822 158.594 30.8822 159.703V165H32.2416V159.391C32.2416 157.781 31.2025 156.734 29.5931 156.734C28.4525 156.734 27.4994 157.312 27.0463 158.281H27.015C26.6634 157.297 25.8431 156.734 24.7338 156.734C23.64 156.734 22.8119 157.312 22.4291 158.172H22.3978V156.875H21.1166V165ZM38.0813 156.734C36.9016 156.734 35.9563 157.336 35.4563 158.25H35.425V156.875H34.1359V167.711H35.4953V163.68H35.5266C36.0109 164.57 36.9484 165.141 38.1125 165.141C40.1594 165.141 41.5578 163.484 41.5578 160.938C41.5578 158.391 40.1516 156.734 38.0813 156.734ZM37.8156 163.945C36.425 163.945 35.4875 162.75 35.4875 160.938C35.4875 159.133 36.425 157.93 37.8156 157.93C39.2609 157.93 40.1672 159.102 40.1672 160.938C40.1672 162.781 39.2609 163.945 37.8156 163.945ZM43.1631 165H44.5225V153.727H43.1631V165ZM49.7763 157.914C51.0575 157.914 51.9091 158.883 51.9403 160.242H47.5263C47.6122 158.891 48.5028 157.914 49.7763 157.914ZM51.9091 162.672C51.6825 163.438 50.9247 163.961 49.8934 163.961C48.4325 163.961 47.5184 162.938 47.5184 161.383V161.305H53.3466V160.789C53.3466 158.328 51.995 156.734 49.7997 156.734C47.5575 156.734 46.12 158.445 46.12 160.969C46.12 163.523 47.5341 165.141 49.8622 165.141C51.6356 165.141 53.0106 164.094 53.245 162.672H51.9091ZM55.3191 154.914V156.875H54.1081V157.992H55.3191V162.891C55.3191 164.453 55.8972 165.062 57.3894 165.062C57.7097 165.062 58.0847 165.039 58.2488 165V163.859C58.155 163.875 57.8425 163.898 57.6863 163.898C56.9909 163.898 56.6784 163.562 56.6784 162.82V157.992H58.2566V156.875H56.6784V154.914H55.3191ZM62.8931 157.914C64.1744 157.914 65.0259 158.883 65.0572 160.242H60.6431C60.7291 158.891 61.6197 157.914 62.8931 157.914ZM65.0259 162.672C64.7994 163.438 64.0416 163.961 63.0103 163.961C61.5494 163.961 60.6353 162.938 60.6353 161.383V161.305H66.4634V160.789C66.4634 158.328 65.1119 156.734 62.9166 156.734C60.6744 156.734 59.2369 158.445 59.2369 160.969C59.2369 163.523 60.6509 165.141 62.9791 165.141C64.7525 165.141 66.1275 164.094 66.3619 162.672H65.0259ZM72.1116 168.039C73.5803 168.039 74.2522 167.469 74.9475 165.57L78.1428 156.875H76.7131L74.4631 163.641H74.4397L72.1897 156.875H70.7366L73.7366 165.008L73.5491 165.578C73.2366 166.523 72.8147 166.891 72.0569 166.891C71.885 166.891 71.6741 166.883 71.5256 166.852V167.992C71.6741 168.023 71.9475 168.039 72.1116 168.039ZM82.5138 165.141C84.7559 165.141 86.2716 163.523 86.2716 160.938C86.2716 158.344 84.7559 156.734 82.5138 156.734C80.2638 156.734 78.7481 158.344 78.7481 160.938C78.7481 163.523 80.2638 165.141 82.5138 165.141ZM82.5138 163.945C81.0763 163.945 80.1309 162.852 80.1309 160.938C80.1309 159.023 81.0763 157.93 82.5138 157.93C83.9513 157.93 84.8888 159.023 84.8888 160.938C84.8888 162.852 83.9513 163.945 82.5138 163.945ZM94.4784 156.875H93.1191V161.648C93.1191 163.031 92.3222 163.938 91.0019 163.938C89.7441 163.938 89.1269 163.227 89.1269 161.906V156.875H87.7675V162.148C87.7675 163.992 88.8066 165.141 90.58 165.141C91.83 165.141 92.6738 164.617 93.1581 163.68H93.1894V165H94.4784V156.875ZM96.4041 165H97.7634V159.938C97.7634 158.789 98.4509 158.031 99.5056 158.031C99.8338 158.031 100.123 158.07 100.232 158.109V156.789C100.123 156.773 99.9197 156.734 99.6853 156.734C98.7322 156.734 97.9822 157.305 97.7166 158.203H97.6853V156.875H96.4041V165ZM108.888 156.734C107.708 156.734 106.763 157.336 106.263 158.25H106.232V156.875H104.943V167.711H106.302V163.68H106.333C106.818 164.57 107.755 165.141 108.919 165.141C110.966 165.141 112.365 163.484 112.365 160.938C112.365 158.391 110.958 156.734 108.888 156.734ZM108.623 163.945C107.232 163.945 106.294 162.75 106.294 160.938C106.294 159.133 107.232 157.93 108.623 157.93C110.068 157.93 110.974 159.102 110.974 160.938C110.974 162.781 110.068 163.945 108.623 163.945ZM113.9 165H115.259V159.938C115.259 158.789 115.947 158.031 117.001 158.031C117.329 158.031 117.618 158.07 117.728 158.109V156.789C117.618 156.773 117.415 156.734 117.181 156.734C116.228 156.734 115.478 157.305 115.212 158.203H115.181V156.875H113.9V165ZM121.974 165.141C124.216 165.141 125.732 163.523 125.732 160.938C125.732 158.344 124.216 156.734 121.974 156.734C119.724 156.734 118.208 158.344 118.208 160.938C118.208 163.523 119.724 165.141 121.974 165.141ZM121.974 163.945C120.536 163.945 119.591 162.852 119.591 160.938C119.591 159.023 120.536 157.93 121.974 157.93C123.411 157.93 124.349 159.023 124.349 160.938C124.349 162.852 123.411 163.945 121.974 163.945ZM127.704 165H129.063V157.992H130.72V156.875H129.056V155.977C129.056 155.172 129.407 154.781 130.142 154.781C130.368 154.781 130.595 154.805 130.759 154.828V153.727C130.563 153.695 130.235 153.664 129.931 153.664C128.431 153.664 127.704 154.406 127.704 155.969V156.875H126.571V157.992H127.704V165ZM132.356 165H133.716V156.875H132.356V165ZM133.036 155.508C133.505 155.508 133.888 155.125 133.888 154.664C133.888 154.195 133.505 153.82 133.036 153.82C132.575 153.82 132.192 154.195 132.192 154.664C132.192 155.125 132.575 155.508 133.036 155.508ZM135.782 165H137.141V153.727H135.782V165ZM142.395 157.914C143.676 157.914 144.528 158.883 144.559 160.242H140.145C140.231 158.891 141.122 157.914 142.395 157.914ZM144.528 162.672C144.301 163.438 143.543 163.961 142.512 163.961C141.051 163.961 140.137 162.938 140.137 161.383V161.305H145.965V160.789C145.965 158.328 144.614 156.734 142.418 156.734C140.176 156.734 138.739 158.445 138.739 160.969C138.739 163.523 140.153 165.141 142.481 165.141C144.254 165.141 145.629 164.094 145.864 162.672H144.528ZM154.981 165.141C157.059 165.141 158.434 163.492 158.434 160.938C158.434 158.391 157.051 156.734 155.004 156.734C153.856 156.734 152.91 157.305 152.403 158.234H152.371V153.727H151.012V165H152.309V163.625H152.34C152.863 164.562 153.793 165.141 154.981 165.141ZM154.715 157.93C156.153 157.93 157.043 159.094 157.043 160.938C157.043 162.797 156.153 163.945 154.715 163.945C153.34 163.945 152.363 162.75 152.363 160.938C152.363 159.133 153.34 157.93 154.715 157.93ZM163.234 157.914C164.516 157.914 165.367 158.883 165.398 160.242H160.984C161.07 158.891 161.961 157.914 163.234 157.914ZM165.367 162.672C165.141 163.438 164.383 163.961 163.352 163.961C161.891 163.961 160.977 162.938 160.977 161.383V161.305H166.805V160.789C166.805 158.328 165.453 156.734 163.258 156.734C161.016 156.734 159.578 158.445 159.578 160.969C159.578 163.523 160.992 165.141 163.32 165.141C165.094 165.141 166.469 164.094 166.703 162.672H165.367ZM168.777 165H170.137V157.992H171.793V156.875H170.129V155.977C170.129 155.172 170.48 154.781 171.215 154.781C171.441 154.781 171.668 154.805 171.832 154.828V153.727C171.637 153.695 171.308 153.664 171.004 153.664C169.504 153.664 168.777 154.406 168.777 155.969V156.875H167.644V157.992H168.777V165ZM176.336 165.141C178.578 165.141 180.093 163.523 180.093 160.938C180.093 158.344 178.578 156.734 176.336 156.734C174.086 156.734 172.57 158.344 172.57 160.938C172.57 163.523 174.086 165.141 176.336 165.141ZM176.336 163.945C174.898 163.945 173.953 162.852 173.953 160.938C173.953 159.023 174.898 157.93 176.336 157.93C177.773 157.93 178.711 159.023 178.711 160.938C178.711 162.852 177.773 163.945 176.336 163.945ZM181.628 165H182.988V159.938C182.988 158.789 183.675 158.031 184.73 158.031C185.058 158.031 185.347 158.07 185.457 158.109V156.789C185.347 156.773 185.144 156.734 184.91 156.734C183.957 156.734 183.207 157.305 182.941 158.203H182.91V156.875H181.628V165ZM189.593 157.914C190.874 157.914 191.726 158.883 191.757 160.242H187.343C187.429 158.891 188.32 157.914 189.593 157.914ZM191.726 162.672C191.499 163.438 190.742 163.961 189.71 163.961C188.249 163.961 187.335 162.938 187.335 161.383V161.305H193.163V160.789C193.163 158.328 191.812 156.734 189.617 156.734C187.374 156.734 185.937 158.445 185.937 160.969C185.937 163.523 187.351 165.141 189.679 165.141C191.453 165.141 192.828 164.094 193.062 162.672H191.726ZM200.819 163.984C199.843 163.984 199.194 163.477 199.194 162.703C199.194 161.938 199.819 161.453 200.913 161.383L203.085 161.25V161.914C203.085 163.086 202.101 163.984 200.819 163.984ZM200.515 165.141C201.608 165.141 202.64 164.531 203.124 163.602H203.155V165H204.444V159.383C204.444 157.766 203.241 156.734 201.335 156.734C199.413 156.734 198.21 157.812 198.116 159.219H199.429C199.601 158.422 200.257 157.93 201.304 157.93C202.429 157.93 203.085 158.523 203.085 159.516V160.195L200.757 160.328C198.882 160.438 197.812 161.312 197.812 162.703C197.812 164.164 198.898 165.141 200.515 165.141ZM210.276 156.734C209.097 156.734 208.151 157.336 207.651 158.25H207.62V156.875H206.331V167.711H207.69V163.68H207.722C208.206 164.57 209.143 165.141 210.308 165.141C212.354 165.141 213.753 163.484 213.753 160.938C213.753 158.391 212.347 156.734 210.276 156.734ZM210.011 163.945C208.62 163.945 207.683 162.75 207.683 160.938C207.683 159.133 208.62 157.93 210.011 157.93C211.456 157.93 212.362 159.102 212.362 160.938C212.362 162.781 211.456 163.945 210.011 163.945ZM219.233 156.734C218.053 156.734 217.108 157.336 216.608 158.25H216.577V156.875H215.288V167.711H216.647V163.68H216.678C217.163 164.57 218.1 165.141 219.264 165.141C221.311 165.141 222.71 163.484 222.71 160.938C222.71 158.391 221.303 156.734 219.233 156.734ZM218.968 163.945C217.577 163.945 216.639 162.75 216.639 160.938C216.639 159.133 217.577 157.93 218.968 157.93C220.413 157.93 221.319 159.102 221.319 160.938C221.319 162.781 220.413 163.945 218.968 163.945ZM224.315 165H225.674V153.727H224.315V165ZM228.342 168.039C229.811 168.039 230.483 167.469 231.178 165.57L234.373 156.875H232.944L230.694 163.641H230.67L228.42 156.875H226.967L229.967 165.008L229.78 165.578C229.467 166.523 229.045 166.891 228.288 166.891C228.116 166.891 227.905 166.883 227.756 166.852V167.992C227.905 168.023 228.178 168.039 228.342 168.039ZM235.682 165H237.041V156.875H235.682V165ZM236.362 155.508C236.83 155.508 237.213 155.125 237.213 154.664C237.213 154.195 236.83 153.82 236.362 153.82C235.901 153.82 235.518 154.195 235.518 154.664C235.518 155.125 235.901 155.508 236.362 155.508ZM239.037 165H240.397V160.219C240.397 158.844 241.233 157.938 242.514 157.938C243.764 157.938 244.381 158.656 244.381 159.969V165H245.74V159.727C245.74 157.883 244.709 156.734 242.928 156.734C241.67 156.734 240.803 157.297 240.35 158.172H240.318V156.875H239.037V165ZM250.939 163.867C249.541 163.867 248.627 162.727 248.627 160.906C248.627 159.086 249.541 157.93 250.939 157.93C252.353 157.93 253.299 159.117 253.299 160.906C253.299 162.695 252.353 163.867 250.939 163.867ZM250.986 168.062C253.228 168.062 254.658 166.773 254.658 164.836V156.875H253.361V158.242H253.338C252.799 157.297 251.846 156.734 250.697 156.734C248.596 156.734 247.236 158.359 247.236 160.906C247.236 163.43 248.596 165.062 250.666 165.062C251.807 165.062 252.768 164.484 253.268 163.602H253.299V164.883C253.299 166.094 252.447 166.906 251.041 166.906C250.025 166.906 249.221 166.414 248.955 165.672H247.557C247.783 167.055 249.197 168.062 250.986 168.062ZM260.47 165H261.83V157.992H263.486V156.875H261.822V155.977C261.822 155.172 262.173 154.781 262.908 154.781C263.134 154.781 263.361 154.805 263.525 154.828V153.727C263.33 153.695 263.002 153.664 262.697 153.664C261.197 153.664 260.47 154.406 260.47 155.969V156.875H259.337V157.992H260.47V165ZM268.029 165.141C270.271 165.141 271.787 163.523 271.787 160.938C271.787 158.344 270.271 156.734 268.029 156.734C265.779 156.734 264.263 158.344 264.263 160.938C264.263 163.523 265.779 165.141 268.029 165.141ZM268.029 163.945C266.591 163.945 265.646 162.852 265.646 160.938C265.646 159.023 266.591 157.93 268.029 157.93C269.466 157.93 270.404 159.023 270.404 160.938C270.404 162.852 269.466 163.945 268.029 163.945ZM273.322 165H274.681V159.938C274.681 158.789 275.368 158.031 276.423 158.031C276.751 158.031 277.04 158.07 277.15 158.109V156.789C277.04 156.773 276.837 156.734 276.603 156.734C275.65 156.734 274.9 157.305 274.634 158.203H274.603V156.875H273.322V165ZM284.54 163.984C283.563 163.984 282.915 163.477 282.915 162.703C282.915 161.938 283.54 161.453 284.634 161.383L286.806 161.25V161.914C286.806 163.086 285.821 163.984 284.54 163.984ZM284.235 165.141C285.329 165.141 286.36 164.531 286.845 163.602H286.876V165H288.165V159.383C288.165 157.766 286.962 156.734 285.056 156.734C283.134 156.734 281.931 157.812 281.837 159.219H283.149C283.321 158.422 283.978 157.93 285.024 157.93C286.149 157.93 286.806 158.523 286.806 159.516V160.195L284.478 160.328C282.603 160.438 281.532 161.312 281.532 162.703C281.532 164.164 282.618 165.141 284.235 165.141ZM294.923 156.875H293.563V165.414C293.563 166.32 293.243 166.656 292.36 166.656C292.352 166.656 292.165 166.656 292.149 166.656V167.789C292.165 167.797 292.383 167.797 292.407 167.797C294.141 167.797 294.923 167.047 294.923 165.398V156.875ZM294.243 155.508C294.712 155.508 295.094 155.125 295.094 154.664C295.094 154.195 294.712 153.82 294.243 153.82C293.782 153.82 293.399 154.195 293.399 154.664C293.399 155.125 293.782 155.508 294.243 155.508ZM300.286 165.141C302.528 165.141 304.043 163.523 304.043 160.938C304.043 158.344 302.528 156.734 300.286 156.734C298.036 156.734 296.52 158.344 296.52 160.938C296.52 163.523 298.036 165.141 300.286 165.141ZM300.286 163.945C298.848 163.945 297.903 162.852 297.903 160.938C297.903 159.023 298.848 157.93 300.286 157.93C301.723 157.93 302.661 159.023 302.661 160.938C302.661 162.852 301.723 163.945 300.286 163.945ZM309.617 165.141C311.696 165.141 313.071 163.492 313.071 160.938C313.071 158.391 311.688 156.734 309.641 156.734C308.492 156.734 307.547 157.305 307.039 158.234H307.008V153.727H305.649V165H306.946V163.625H306.977C307.5 164.562 308.43 165.141 309.617 165.141ZM309.352 157.93C310.789 157.93 311.68 159.094 311.68 160.938C311.68 162.797 310.789 163.945 309.352 163.945C307.977 163.945 307 162.75 307 160.938C307 159.133 307.977 157.93 309.352 157.93Z" fill="#6B7280"/>
</svg>
