<svg width="328" height="110" viewBox="0 0 328 110" fill="none" xmlns="http://www.w3.org/2000/svg">
<path d="M5.88086 11.8418H10.0918C12.457 11.8418 13.8926 13.1816 13.8926 15.3828C13.8926 17.6387 12.5391 18.9375 10.1738 18.9375H5.88086V11.8418ZM5.88086 21.4121H10.0918L14.1113 29H17.6387L13.2227 20.9336C15.6289 20.127 17.0508 17.9668 17.0508 15.3008C17.0508 11.623 14.5215 9.27148 10.4609 9.27148H2.81836V29H5.88086V21.4121ZM25.903 16.7363C27.9675 16.7363 29.362 18.2812 29.4304 20.4824H22.239C22.3894 18.3086 23.8386 16.7363 25.903 16.7363ZM29.4167 24.7754C29.0202 26.0332 27.7761 26.8809 26.0945 26.8809C23.7292 26.8809 22.2253 25.2266 22.2253 22.7246V22.5469H32.3835V21.5352C32.3835 17.1738 29.8952 14.3574 25.903 14.3574C21.8425 14.3574 19.2448 17.3652 19.2448 21.877C19.2448 26.416 21.8015 29.2734 26.0261 29.2734C29.321 29.2734 31.8093 27.4004 32.2195 24.7754H29.4167ZM34.7006 18.6914C34.7006 20.7012 36.0131 22.0547 38.6108 22.6836L41.1811 23.3125C42.685 23.6953 43.2319 24.2012 43.2319 25.1172C43.2319 26.2793 42.1381 27.0176 40.3608 27.0176C38.5561 27.0176 37.4897 26.252 37.2573 24.8711H34.3315C34.5639 27.5098 36.8198 29.2734 40.2241 29.2734C43.7514 29.2734 46.1987 27.4688 46.1987 24.8438C46.1987 22.7246 45.1049 21.6309 42.2065 20.9336L39.7866 20.373C38.2963 20.0039 37.5854 19.4023 37.5854 18.5137C37.5854 17.3789 38.6518 16.5996 40.2514 16.5996C41.9057 16.5996 42.9584 17.4062 43.0952 18.7051H45.8705C45.7748 16.1484 43.5327 14.3574 40.3334 14.3574C36.9702 14.3574 34.7006 16.1211 34.7006 18.6914ZM54.7912 16.7363C56.8556 16.7363 58.2502 18.2812 58.3185 20.4824H51.1271C51.2775 18.3086 52.7267 16.7363 54.7912 16.7363ZM58.3048 24.7754C57.9084 26.0332 56.6642 26.8809 54.9826 26.8809C52.6173 26.8809 51.1134 25.2266 51.1134 22.7246V22.5469H61.2716V21.5352C61.2716 17.1738 58.7834 14.3574 54.7912 14.3574C50.7306 14.3574 48.133 17.3652 48.133 21.877C48.133 26.416 50.6896 29.2734 54.9142 29.2734C58.2091 29.2734 60.6974 27.4004 61.1076 24.7754H58.3048ZM64.7098 11.2129V14.6172H62.618V16.9551H64.7098V25.2129C64.7098 27.9883 65.8446 29.0957 68.7567 29.0957C69.413 29.0957 70.0692 29.041 70.3973 28.959V26.6211C70.2059 26.6621 69.7274 26.6895 69.4266 26.6895C68.2235 26.6895 67.6766 26.1289 67.6766 24.8848V16.9551H70.411V14.6172H67.6766V11.2129H64.7098ZM79.4476 9.27148V29H82.5101V22.2598H86.7484C90.6175 22.2598 93.3382 19.6074 93.3382 15.752C93.3382 11.9102 90.6722 9.27148 86.8441 9.27148H79.4476ZM82.5101 11.8555H86.0374C88.6898 11.8555 90.2073 13.2773 90.2073 15.7656C90.2073 18.2539 88.6898 19.6895 86.0238 19.6895H82.5101V11.8555ZM99.8252 26.9082C98.2393 26.9082 97.2002 26.0879 97.2002 24.8301C97.2002 23.5996 98.1983 22.8203 99.962 22.6973L103.503 22.4785V23.6133C103.503 25.4863 101.89 26.9082 99.8252 26.9082ZM99.0049 29.2461C100.892 29.2461 102.71 28.2344 103.544 26.6348H103.612V29H106.442V19.0879C106.442 16.2031 104.214 14.3574 100.728 14.3574C97.1729 14.3574 94.958 16.2715 94.794 18.8691H97.583C97.8428 17.584 98.9092 16.7637 100.618 16.7637C102.423 16.7637 103.503 17.7207 103.503 19.3203V20.4277L99.5655 20.6602C96.1475 20.8516 94.2198 22.3965 94.2198 24.9121C94.2198 27.4961 96.1885 29.2461 99.0049 29.2461ZM109.334 18.6914C109.334 20.7012 110.646 22.0547 113.244 22.6836L115.814 23.3125C117.318 23.6953 117.865 24.2012 117.865 25.1172C117.865 26.2793 116.771 27.0176 114.994 27.0176C113.189 27.0176 112.123 26.252 111.89 24.8711H108.965C109.197 27.5098 111.453 29.2734 114.857 29.2734C118.385 29.2734 120.832 27.4688 120.832 24.8438C120.832 22.7246 119.738 21.6309 116.84 20.9336L114.42 20.373C112.929 20.0039 112.219 19.4023 112.219 18.5137C112.219 17.3789 113.285 16.5996 114.885 16.5996C116.539 16.5996 117.592 17.4062 117.728 18.7051H120.504C120.408 16.1484 118.166 14.3574 114.967 14.3574C111.603 14.3574 109.334 16.1211 109.334 18.6914ZM123.149 18.6914C123.149 20.7012 124.461 22.0547 127.059 22.6836L129.629 23.3125C131.133 23.6953 131.68 24.2012 131.68 25.1172C131.68 26.2793 130.586 27.0176 128.809 27.0176C127.004 27.0176 125.938 26.252 125.706 24.8711H122.78C123.012 27.5098 125.268 29.2734 128.672 29.2734C132.2 29.2734 134.647 27.4688 134.647 24.8438C134.647 22.7246 133.553 21.6309 130.655 20.9336L128.235 20.373C126.745 20.0039 126.034 19.4023 126.034 18.5137C126.034 17.3789 127.1 16.5996 128.7 16.5996C130.354 16.5996 131.407 17.4062 131.543 18.7051H134.319C134.223 16.1484 131.981 14.3574 128.782 14.3574C125.418 14.3574 123.149 16.1211 123.149 18.6914ZM156.2 14.6172H153.275L150.65 25.9375H150.581L147.573 14.6172H144.73L141.736 25.9375H141.681L139.056 14.6172H136.103L140.054 29H143.103L146.097 18.2266H146.165L149.187 29H152.263L156.2 14.6172ZM164.383 29.2734C168.498 29.2734 171.205 26.4434 171.205 21.8086C171.205 17.1875 168.484 14.3574 164.383 14.3574C160.281 14.3574 157.56 17.1875 157.56 21.8086C157.56 26.4434 160.268 29.2734 164.383 29.2734ZM164.383 26.8398C162.072 26.8398 160.568 25.0078 160.568 21.8086C160.568 18.623 162.072 16.791 164.383 16.791C166.693 16.791 168.197 18.623 168.197 21.8086C168.197 25.0078 166.707 26.8398 164.383 26.8398ZM173.768 29H176.721V20.3867C176.721 18.3496 177.897 17.0781 179.798 17.0781C180.372 17.0781 180.891 17.1465 181.124 17.2422V14.4941C180.905 14.4531 180.536 14.3848 180.112 14.3848C178.417 14.3848 177.131 15.3828 176.653 17.0645H176.585V14.6172H173.768V29ZM188.007 29.2461C190.099 29.2461 191.74 28.1934 192.587 26.5527H192.642V29H195.513V9.27148H192.546V17.0098H192.492C191.685 15.4238 190.044 14.3848 187.98 14.3848C184.37 14.3848 181.964 17.2695 181.964 21.8086C181.964 26.3477 184.37 29.2461 188.007 29.2461ZM188.786 16.873C191.056 16.873 192.574 18.8281 192.574 21.8086C192.574 24.8164 191.056 26.7441 188.786 26.7441C186.449 26.7441 184.986 24.8438 184.986 21.8086C184.986 18.7871 186.449 16.873 188.786 16.873Z" fill="#111827"/>
<path d="M9.07812 61.7344H3.5V57.8594H8.78906V56.6094H3.5V52.9922H9.07812V51.7266H2.09375V63H9.07812V61.7344ZM10.8866 63H12.2459V58.2188C12.2459 56.8438 13.0819 55.9375 14.3631 55.9375C15.6131 55.9375 16.2303 56.6562 16.2303 57.9688V63H17.5897V57.7266C17.5897 55.8828 16.5584 54.7344 14.7772 54.7344C13.5194 54.7344 12.6522 55.2969 12.1991 56.1719H12.1678V54.875H10.8866V63ZM19.9216 52.9141V54.875H18.7106V55.9922H19.9216V60.8906C19.9216 62.4531 20.4997 63.0625 21.9919 63.0625C22.3122 63.0625 22.6872 63.0391 22.8512 63V61.8594C22.7575 61.875 22.445 61.8984 22.2887 61.8984C21.5934 61.8984 21.2809 61.5625 21.2809 60.8203V55.9922H22.8591V54.875H21.2809V52.9141H19.9216ZM27.4956 55.9141C28.7769 55.9141 29.6284 56.8828 29.6597 58.2422H25.2456C25.3316 56.8906 26.2222 55.9141 27.4956 55.9141ZM29.6284 60.6719C29.4019 61.4375 28.6441 61.9609 27.6128 61.9609C26.1519 61.9609 25.2378 60.9375 25.2378 59.3828V59.3047H31.0659V58.7891C31.0659 56.3281 29.7144 54.7344 27.5191 54.7344C25.2769 54.7344 23.8394 56.4453 23.8394 58.9688C23.8394 61.5234 25.2534 63.1406 27.5816 63.1406C29.355 63.1406 30.73 62.0938 30.9644 60.6719H29.6284ZM32.6009 63H33.9603V57.9375C33.9603 56.7891 34.6478 56.0312 35.7025 56.0312C36.0306 56.0312 36.3197 56.0703 36.4291 56.1094V54.7891C36.3197 54.7734 36.1166 54.7344 35.8822 54.7344C34.9291 54.7344 34.1791 55.3047 33.9134 56.2031H33.8822V54.875H32.6009V63ZM41.5772 52.9141V54.875H40.3662V55.9922H41.5772V60.8906C41.5772 62.4531 42.1553 63.0625 43.6475 63.0625C43.9678 63.0625 44.3428 63.0391 44.5069 63V61.8594C44.4131 61.875 44.1006 61.8984 43.9444 61.8984C43.2491 61.8984 42.9366 61.5625 42.9366 60.8203V55.9922H44.5147V54.875H42.9366V52.9141H41.5772ZM46.1981 63H47.5575V58.2656C47.5575 56.8594 48.3934 55.9375 49.745 55.9375C51.0184 55.9375 51.6669 56.7109 51.6669 58V63H53.0262V57.75C53.0262 55.9375 51.9481 54.7344 50.1669 54.7344C48.9325 54.7344 48.0419 55.2656 47.5887 56.1719H47.5575V51.7266H46.1981V63ZM58.1706 55.9141C59.4519 55.9141 60.3034 56.8828 60.3347 58.2422H55.9206C56.0066 56.8906 56.8972 55.9141 58.1706 55.9141ZM60.3034 60.6719C60.0769 61.4375 59.3191 61.9609 58.2878 61.9609C56.8269 61.9609 55.9128 60.9375 55.9128 59.3828V59.3047H61.7409V58.7891C61.7409 56.3281 60.3894 54.7344 58.1941 54.7344C55.9519 54.7344 54.5144 56.4453 54.5144 58.9688C54.5144 61.5234 55.9284 63.1406 58.2566 63.1406C60.03 63.1406 61.405 62.0938 61.6394 60.6719H60.3034ZM69.975 55.9141C71.2562 55.9141 72.1078 56.8828 72.1391 58.2422H67.725C67.8109 56.8906 68.7016 55.9141 69.975 55.9141ZM72.1078 60.6719C71.8812 61.4375 71.1234 61.9609 70.0922 61.9609C68.6312 61.9609 67.7172 60.9375 67.7172 59.3828V59.3047H73.5453V58.7891C73.5453 56.3281 72.1937 54.7344 69.9984 54.7344C67.7562 54.7344 66.3187 56.4453 66.3187 58.9688C66.3187 61.5234 67.7328 63.1406 70.0609 63.1406C71.8344 63.1406 73.2094 62.0938 73.4437 60.6719H72.1078ZM75.0803 63H76.4397V57.9062C76.4397 56.7812 77.2209 55.9375 78.2991 55.9375C79.3069 55.9375 79.9631 56.5781 79.9631 57.5547V63H81.3225V57.8359C81.3225 56.7344 82.0803 55.9375 83.1584 55.9375C84.2288 55.9375 84.8459 56.5938 84.8459 57.7031V63H86.2053V57.3906C86.2053 55.7812 85.1663 54.7344 83.5569 54.7344C82.4163 54.7344 81.4631 55.3125 81.01 56.2812H80.9788C80.6272 55.2969 79.8069 54.7344 78.6975 54.7344C77.6038 54.7344 76.7756 55.3125 76.3928 56.1719H76.3616V54.875H75.0803V63ZM90.7794 61.9844C89.8028 61.9844 89.1544 61.4766 89.1544 60.7031C89.1544 59.9375 89.7794 59.4531 90.8731 59.3828L93.045 59.25V59.9141C93.045 61.0859 92.0606 61.9844 90.7794 61.9844ZM90.4747 63.1406C91.5684 63.1406 92.5997 62.5312 93.0841 61.6016H93.1153V63H94.4044V57.3828C94.4044 55.7656 93.2012 54.7344 91.295 54.7344C89.3731 54.7344 88.17 55.8125 88.0762 57.2188H89.3887C89.5606 56.4219 90.2169 55.9297 91.2637 55.9297C92.3887 55.9297 93.045 56.5234 93.045 57.5156V58.1953L90.7169 58.3281C88.8419 58.4375 87.7716 59.3125 87.7716 60.7031C87.7716 62.1641 88.8575 63.1406 90.4747 63.1406ZM96.3613 63H97.7206V54.875H96.3613V63ZM97.0409 53.5078C97.5097 53.5078 97.8925 53.125 97.8925 52.6641C97.8925 52.1953 97.5097 51.8203 97.0409 51.8203C96.58 51.8203 96.1972 52.1953 96.1972 52.6641C96.1972 53.125 96.58 53.5078 97.0409 53.5078ZM99.7869 63H101.146V51.7266H99.7869V63ZM109.263 61.9844C108.287 61.9844 107.638 61.4766 107.638 60.7031C107.638 59.9375 108.263 59.4531 109.357 59.3828L111.529 59.25V59.9141C111.529 61.0859 110.544 61.9844 109.263 61.9844ZM108.958 63.1406C110.052 63.1406 111.083 62.5312 111.568 61.6016H111.599V63H112.888V57.3828C112.888 55.7656 111.685 54.7344 109.779 54.7344C107.857 54.7344 106.654 55.8125 106.56 57.2188H107.872C108.044 56.4219 108.701 55.9297 109.747 55.9297C110.872 55.9297 111.529 56.5234 111.529 57.5156V58.1953L109.201 58.3281C107.326 58.4375 106.255 59.3125 106.255 60.7031C106.255 62.1641 107.341 63.1406 108.958 63.1406ZM117.853 63.1406C119.025 63.1406 119.954 62.5625 120.478 61.625H120.501V63H121.798V51.7266H120.439V56.1953H120.408C119.923 55.3047 118.986 54.7344 117.822 54.7344C115.775 54.7344 114.376 56.3906 114.376 58.9375C114.376 61.4844 115.783 63.1406 117.853 63.1406ZM118.111 55.9297C119.509 55.9297 120.447 57.125 120.447 58.9375C120.447 60.7578 119.509 61.9453 118.111 61.9453C116.673 61.9453 115.767 60.7812 115.767 58.9375C115.767 57.1016 116.673 55.9297 118.111 55.9297ZM126.872 63.1406C128.044 63.1406 128.974 62.5625 129.497 61.625H129.521V63H130.817V51.7266H129.458V56.1953H129.427C128.942 55.3047 128.005 54.7344 126.841 54.7344C124.794 54.7344 123.396 56.3906 123.396 58.9375C123.396 61.4844 124.802 63.1406 126.872 63.1406ZM127.13 55.9297C128.528 55.9297 129.466 57.125 129.466 58.9375C129.466 60.7578 128.528 61.9453 127.13 61.9453C125.692 61.9453 124.786 60.7812 124.786 58.9375C124.786 57.1016 125.692 55.9297 127.13 55.9297ZM132.813 63H134.173V57.9375C134.173 56.7891 134.86 56.0312 135.915 56.0312C136.243 56.0312 136.532 56.0703 136.642 56.1094V54.7891C136.532 54.7734 136.329 54.7344 136.095 54.7344C135.142 54.7344 134.392 55.3047 134.126 56.2031H134.095V54.875H132.813V63ZM140.778 55.9141C142.059 55.9141 142.911 56.8828 142.942 58.2422H138.528C138.614 56.8906 139.505 55.9141 140.778 55.9141ZM142.911 60.6719C142.684 61.4375 141.927 61.9609 140.895 61.9609C139.434 61.9609 138.52 60.9375 138.52 59.3828V59.3047H144.348V58.7891C144.348 56.3281 142.997 54.7344 140.802 54.7344C138.559 54.7344 137.122 56.4453 137.122 58.9688C137.122 61.5234 138.536 63.1406 140.864 63.1406C142.637 63.1406 144.012 62.0938 144.247 60.6719H142.911ZM145.743 57.1172C145.743 58.2266 146.446 58.9609 147.876 59.3281L149.305 59.6953C150.219 59.9375 150.555 60.25 150.555 60.8281C150.555 61.5625 149.876 62.0312 148.774 62.0312C147.673 62.0312 147.032 61.5781 146.883 60.7344H145.524C145.665 62.1719 146.907 63.1406 148.688 63.1406C150.587 63.1406 151.923 62.1406 151.923 60.7266C151.923 59.5312 151.329 58.9375 149.688 58.5234L148.43 58.2188C147.508 57.9844 147.079 57.6094 147.079 57.0469C147.079 56.3359 147.735 55.8438 148.727 55.8438C149.727 55.8438 150.36 56.3281 150.454 57.1094H151.751C151.688 55.7344 150.454 54.7344 148.774 54.7344C146.985 54.7344 145.743 55.7266 145.743 57.1172ZM153.356 57.1172C153.356 58.2266 154.059 58.9609 155.489 59.3281L156.918 59.6953C157.833 59.9375 158.168 60.25 158.168 60.8281C158.168 61.5625 157.489 62.0312 156.387 62.0312C155.286 62.0312 154.645 61.5781 154.497 60.7344H153.137C153.278 62.1719 154.52 63.1406 156.301 63.1406C158.2 63.1406 159.536 62.1406 159.536 60.7266C159.536 59.5312 158.942 58.9375 157.301 58.5234L156.043 58.2188C155.122 57.9844 154.692 57.6094 154.692 57.0469C154.692 56.3359 155.348 55.8438 156.34 55.8438C157.34 55.8438 157.973 56.3281 158.067 57.1094H159.364C159.301 55.7344 158.067 54.7344 156.387 54.7344C154.598 54.7344 153.356 55.7266 153.356 57.1172ZM165.223 66.0391C166.692 66.0391 167.363 65.4688 168.059 63.5703L171.254 54.875H169.824L167.574 61.6406H167.551L165.301 54.875H163.848L166.848 63.0078L166.66 63.5781C166.348 64.5234 165.926 64.8906 165.168 64.8906C164.996 64.8906 164.785 64.8828 164.637 64.8516V65.9922C164.785 66.0234 165.059 66.0391 165.223 66.0391ZM175.625 63.1406C177.867 63.1406 179.383 61.5234 179.383 58.9375C179.383 56.3438 177.867 54.7344 175.625 54.7344C173.375 54.7344 171.859 56.3438 171.859 58.9375C171.859 61.5234 173.375 63.1406 175.625 63.1406ZM175.625 61.9453C174.188 61.9453 173.242 60.8516 173.242 58.9375C173.242 57.0234 174.188 55.9297 175.625 55.9297C177.062 55.9297 178 57.0234 178 58.9375C178 60.8516 177.062 61.9453 175.625 61.9453ZM187.59 54.875H186.23V59.6484C186.23 61.0312 185.433 61.9375 184.113 61.9375C182.855 61.9375 182.238 61.2266 182.238 59.9062V54.875H180.879V60.1484C180.879 61.9922 181.918 63.1406 183.691 63.1406C184.941 63.1406 185.785 62.6172 186.269 61.6797H186.301V63H187.59V54.875ZM199.628 54.875H198.269V59.6484C198.269 61.0312 197.472 61.9375 196.152 61.9375C194.894 61.9375 194.277 61.2266 194.277 59.9062V54.875H192.917V60.1484C192.917 61.9922 193.957 63.1406 195.73 63.1406C196.98 63.1406 197.824 62.6172 198.308 61.6797H198.339V63H199.628V54.875ZM201.413 57.1172C201.413 58.2266 202.117 58.9609 203.546 59.3281L204.976 59.6953C205.89 59.9375 206.226 60.25 206.226 60.8281C206.226 61.5625 205.546 62.0312 204.445 62.0312C203.343 62.0312 202.702 61.5781 202.554 60.7344H201.195C201.335 62.1719 202.577 63.1406 204.359 63.1406C206.257 63.1406 207.593 62.1406 207.593 60.7266C207.593 59.5312 206.999 58.9375 205.359 58.5234L204.101 58.2188C203.179 57.9844 202.749 57.6094 202.749 57.0469C202.749 56.3359 203.406 55.8438 204.398 55.8438C205.398 55.8438 206.031 56.3281 206.124 57.1094H207.421C207.359 55.7344 206.124 54.7344 204.445 54.7344C202.656 54.7344 201.413 55.7266 201.413 57.1172ZM212.425 55.9141C213.706 55.9141 214.558 56.8828 214.589 58.2422H210.175C210.261 56.8906 211.152 55.9141 212.425 55.9141ZM214.558 60.6719C214.331 61.4375 213.573 61.9609 212.542 61.9609C211.081 61.9609 210.167 60.9375 210.167 59.3828V59.3047H215.995V58.7891C215.995 56.3281 214.644 54.7344 212.448 54.7344C210.206 54.7344 208.769 56.4453 208.769 58.9688C208.769 61.5234 210.183 63.1406 212.511 63.1406C214.284 63.1406 215.659 62.0938 215.894 60.6719H214.558ZM220.608 63.1406C221.78 63.1406 222.71 62.5625 223.233 61.625H223.257V63H224.554V51.7266H223.194V56.1953H223.163C222.679 55.3047 221.741 54.7344 220.577 54.7344C218.53 54.7344 217.132 56.3906 217.132 58.9375C217.132 61.4844 218.538 63.1406 220.608 63.1406ZM220.866 55.9297C222.265 55.9297 223.202 57.125 223.202 58.9375C223.202 60.7578 222.265 61.9453 220.866 61.9453C219.429 61.9453 218.523 60.7812 218.523 58.9375C218.523 57.1016 219.429 55.9297 220.866 55.9297ZM240.327 54.875H238.983L237.358 61.4844H237.327L235.483 54.875H234.171L232.335 61.4844H232.303L230.678 54.875H229.327L231.6 63H232.983L234.811 56.7109H234.842L236.678 63H238.061L240.327 54.875ZM241.674 63H243.034V58.2656C243.034 56.8594 243.87 55.9375 245.221 55.9375C246.495 55.9375 247.143 56.7109 247.143 58V63H248.503V57.75C248.503 55.9375 247.424 54.7344 245.643 54.7344C244.409 54.7344 243.518 55.2656 243.065 56.1719H243.034V51.7266H241.674V63ZM253.647 55.9141C254.928 55.9141 255.78 56.8828 255.811 58.2422H251.397C251.483 56.8906 252.373 55.9141 253.647 55.9141ZM255.78 60.6719C255.553 61.4375 254.795 61.9609 253.764 61.9609C252.303 61.9609 251.389 60.9375 251.389 59.3828V59.3047H257.217V58.7891C257.217 56.3281 255.866 54.7344 253.67 54.7344C251.428 54.7344 249.991 56.4453 249.991 58.9688C249.991 61.5234 251.405 63.1406 253.733 63.1406C255.506 63.1406 256.881 62.0938 257.116 60.6719H255.78ZM258.752 63H260.112V58.2188C260.112 56.8438 260.948 55.9375 262.229 55.9375C263.479 55.9375 264.096 56.6562 264.096 57.9688V63H265.455V57.7266C265.455 55.8828 264.424 54.7344 262.643 54.7344C261.385 54.7344 260.518 55.2969 260.065 56.1719H260.033V54.875H258.752V63ZM271.463 66.0391C272.932 66.0391 273.603 65.4688 274.299 63.5703L277.494 54.875H276.064L273.814 61.6406H273.791L271.541 54.875H270.088L273.088 63.0078L272.9 63.5781C272.588 64.5234 272.166 64.8906 271.408 64.8906C271.236 64.8906 271.025 64.8828 270.877 64.8516V65.9922C271.025 66.0234 271.299 66.0391 271.463 66.0391ZM281.865 63.1406C284.107 63.1406 285.623 61.5234 285.623 58.9375C285.623 56.3438 284.107 54.7344 281.865 54.7344C279.615 54.7344 278.099 56.3438 278.099 58.9375C278.099 61.5234 279.615 63.1406 281.865 63.1406ZM281.865 61.9453C280.427 61.9453 279.482 60.8516 279.482 58.9375C279.482 57.0234 280.427 55.9297 281.865 55.9297C283.302 55.9297 284.24 57.0234 284.24 58.9375C284.24 60.8516 283.302 61.9453 281.865 61.9453ZM293.83 54.875H292.47V59.6484C292.47 61.0312 291.673 61.9375 290.353 61.9375C289.095 61.9375 288.478 61.2266 288.478 59.9062V54.875H287.119V60.1484C287.119 61.9922 288.158 63.1406 289.931 63.1406C291.181 63.1406 292.025 62.6172 292.509 61.6797H292.541V63H293.83V54.875ZM3.3125 75.875H1.95312V84.4141C1.95312 85.3203 1.63281 85.6562 0.75 85.6562C0.742188 85.6562 0.554688 85.6562 0.539062 85.6562V86.7891C0.554688 86.7969 0.773438 86.7969 0.796875 86.7969C2.53125 86.7969 3.3125 86.0469 3.3125 84.3984V75.875ZM2.63281 74.5078C3.10156 74.5078 3.48438 74.125 3.48438 73.6641C3.48438 73.1953 3.10156 72.8203 2.63281 72.8203C2.17188 72.8203 1.78906 73.1953 1.78906 73.6641C1.78906 74.125 2.17188 74.5078 2.63281 74.5078ZM8.67563 84.1406C10.9178 84.1406 12.4334 82.5234 12.4334 79.9375C12.4334 77.3438 10.9178 75.7344 8.67563 75.7344C6.42563 75.7344 4.91 77.3438 4.91 79.9375C4.91 82.5234 6.42563 84.1406 8.67563 84.1406ZM8.67563 82.9453C7.23813 82.9453 6.29281 81.8516 6.29281 79.9375C6.29281 78.0234 7.23813 76.9297 8.67563 76.9297C10.1131 76.9297 11.0506 78.0234 11.0506 79.9375C11.0506 81.8516 10.1131 82.9453 8.67563 82.9453ZM14.0387 84H15.3981V75.875H14.0387V84ZM14.7184 74.5078C15.1872 74.5078 15.57 74.125 15.57 73.6641C15.57 73.1953 15.1872 72.8203 14.7184 72.8203C14.2575 72.8203 13.8747 73.1953 13.8747 73.6641C13.8747 74.125 14.2575 74.5078 14.7184 74.5078ZM17.3941 84H18.7534V79.2188C18.7534 77.8438 19.5894 76.9375 20.8706 76.9375C22.1206 76.9375 22.7378 77.6562 22.7378 78.9688V84H24.0972V78.7266C24.0972 76.8828 23.0659 75.7344 21.2847 75.7344C20.0269 75.7344 19.1597 76.2969 18.7066 77.1719H18.6753V75.875H17.3941V84ZM29.2494 76.9141C30.5306 76.9141 31.3822 77.8828 31.4134 79.2422H26.9994C27.0853 77.8906 27.9759 76.9141 29.2494 76.9141ZM31.3822 81.6719C31.1556 82.4375 30.3978 82.9609 29.3666 82.9609C27.9056 82.9609 26.9916 81.9375 26.9916 80.3828V80.3047H32.8197V79.7891C32.8197 77.3281 31.4681 75.7344 29.2728 75.7344C27.0306 75.7344 25.5931 77.4453 25.5931 79.9688C25.5931 82.5234 27.0072 84.1406 29.3353 84.1406C31.1087 84.1406 32.4837 83.0938 32.7181 81.6719H31.3822ZM37.4328 84.1406C38.6047 84.1406 39.5344 83.5625 40.0578 82.625H40.0812V84H41.3781V72.7266H40.0187V77.1953H39.9875C39.5031 76.3047 38.5656 75.7344 37.4016 75.7344C35.3547 75.7344 33.9562 77.3906 33.9562 79.9375C33.9562 82.4844 35.3625 84.1406 37.4328 84.1406ZM37.6906 76.9297C39.0891 76.9297 40.0266 78.125 40.0266 79.9375C40.0266 81.7578 39.0891 82.9453 37.6906 82.9453C36.2531 82.9453 35.3469 81.7812 35.3469 79.9375C35.3469 78.1016 36.2531 76.9297 37.6906 76.9297ZM49.495 82.9844C48.5184 82.9844 47.87 82.4766 47.87 81.7031C47.87 80.9375 48.495 80.4531 49.5887 80.3828L51.7606 80.25V80.9141C51.7606 82.0859 50.7762 82.9844 49.495 82.9844ZM49.1903 84.1406C50.2841 84.1406 51.3153 83.5312 51.7997 82.6016H51.8309V84H53.12V78.3828C53.12 76.7656 51.9169 75.7344 50.0106 75.7344C48.0887 75.7344 46.8856 76.8125 46.7919 78.2188H48.1044C48.2762 77.4219 48.9325 76.9297 49.9794 76.9297C51.1044 76.9297 51.7606 77.5234 51.7606 78.5156V79.1953L49.4325 79.3281C47.5575 79.4375 46.4872 80.3125 46.4872 81.7031C46.4872 83.1641 47.5731 84.1406 49.1903 84.1406ZM55.0066 84H56.3659V79.2188C56.3659 77.8438 57.2019 76.9375 58.4831 76.9375C59.7331 76.9375 60.3503 77.6562 60.3503 78.9688V84H61.7097V78.7266C61.7097 76.8828 60.6784 75.7344 58.8972 75.7344C57.6394 75.7344 56.7722 76.2969 56.3191 77.1719H56.2878V75.875H55.0066V84ZM66.6822 84.1406C67.8541 84.1406 68.7837 83.5625 69.3072 82.625H69.3306V84H70.6275V72.7266H69.2681V77.1953H69.2369C68.7525 76.3047 67.815 75.7344 66.6509 75.7344C64.6041 75.7344 63.2056 77.3906 63.2056 79.9375C63.2056 82.4844 64.6119 84.1406 66.6822 84.1406ZM66.94 76.9297C68.3384 76.9297 69.2759 78.125 69.2759 79.9375C69.2759 81.7578 68.3384 82.9453 66.94 82.9453C65.5025 82.9453 64.5962 81.7812 64.5962 79.9375C64.5962 78.1016 65.5025 76.9297 66.94 76.9297ZM86.4006 75.875H85.0569L83.4319 82.4844H83.4006L81.5569 75.875H80.2444L78.4084 82.4844H78.3772L76.7522 75.875H75.4006L77.6741 84H79.0569L80.885 77.7109H80.9163L82.7522 84H84.135L86.4006 75.875ZM90.9356 76.9141C92.2169 76.9141 93.0684 77.8828 93.0997 79.2422H88.6856C88.7716 77.8906 89.6622 76.9141 90.9356 76.9141ZM93.0684 81.6719C92.8419 82.4375 92.0841 82.9609 91.0528 82.9609C89.5919 82.9609 88.6778 81.9375 88.6778 80.3828V80.3047H94.5059V79.7891C94.5059 77.3281 93.1544 75.7344 90.9591 75.7344C88.7169 75.7344 87.2794 77.4453 87.2794 79.9688C87.2794 82.5234 88.6934 84.1406 91.0216 84.1406C92.795 84.1406 94.17 83.0938 94.4044 81.6719H93.0684ZM96.6659 76.7031L97.7363 72.7266H96.2909L95.5331 76.7031H96.6659ZM99.615 84H100.974V72.7266H99.615V84ZM103.041 84H104.4V72.7266H103.041V84ZM109.697 78.1172C109.697 79.2266 110.4 79.9609 111.829 80.3281L113.259 80.6953C114.173 80.9375 114.509 81.25 114.509 81.8281C114.509 82.5625 113.829 83.0312 112.728 83.0312C111.626 83.0312 110.986 82.5781 110.837 81.7344H109.478C109.618 83.1719 110.861 84.1406 112.642 84.1406C114.54 84.1406 115.876 83.1406 115.876 81.7266C115.876 80.5312 115.283 79.9375 113.642 79.5234L112.384 79.2188C111.462 78.9844 111.033 78.6094 111.033 78.0469C111.033 77.3359 111.689 76.8438 112.681 76.8438C113.681 76.8438 114.314 77.3281 114.408 78.1094H115.704C115.642 76.7344 114.408 75.7344 112.728 75.7344C110.939 75.7344 109.697 76.7266 109.697 78.1172ZM120.708 76.9141C121.989 76.9141 122.841 77.8828 122.872 79.2422H118.458C118.544 77.8906 119.435 76.9141 120.708 76.9141ZM122.841 81.6719C122.614 82.4375 121.857 82.9609 120.825 82.9609C119.364 82.9609 118.45 81.9375 118.45 80.3828V80.3047H124.278V79.7891C124.278 77.3281 122.927 75.7344 120.732 75.7344C118.489 75.7344 117.052 77.4453 117.052 79.9688C117.052 82.5234 118.466 84.1406 120.794 84.1406C122.567 84.1406 123.942 83.0938 124.177 81.6719H122.841ZM125.813 84H127.173V79.2188C127.173 77.8438 128.009 76.9375 129.29 76.9375C130.54 76.9375 131.157 77.6562 131.157 78.9688V84H132.517V78.7266C132.517 76.8828 131.485 75.7344 129.704 75.7344C128.446 75.7344 127.579 76.2969 127.126 77.1719H127.095V75.875H125.813V84ZM137.489 84.1406C138.661 84.1406 139.591 83.5625 140.114 82.625H140.137V84H141.434V72.7266H140.075V77.1953H140.044C139.559 76.3047 138.622 75.7344 137.458 75.7344C135.411 75.7344 134.012 77.3906 134.012 79.9375C134.012 82.4844 135.419 84.1406 137.489 84.1406ZM137.747 76.9297C139.145 76.9297 140.083 78.125 140.083 79.9375C140.083 81.7578 139.145 82.9453 137.747 82.9453C136.309 82.9453 135.403 81.7812 135.403 79.9375C135.403 78.1016 136.309 76.9297 137.747 76.9297ZM147.543 87.0391C149.012 87.0391 149.684 86.4688 150.379 84.5703L153.575 75.875H152.145L149.895 82.6406H149.872L147.622 75.875H146.168L149.168 84.0078L148.981 84.5781C148.668 85.5234 148.247 85.8906 147.489 85.8906C147.317 85.8906 147.106 85.8828 146.958 85.8516V86.9922C147.106 87.0234 147.379 87.0391 147.543 87.0391ZM157.946 84.1406C160.188 84.1406 161.703 82.5234 161.703 79.9375C161.703 77.3438 160.188 75.7344 157.946 75.7344C155.696 75.7344 154.18 77.3438 154.18 79.9375C154.18 82.5234 155.696 84.1406 157.946 84.1406ZM157.946 82.9453C156.508 82.9453 155.563 81.8516 155.563 79.9375C155.563 78.0234 156.508 76.9297 157.946 76.9297C159.383 76.9297 160.321 78.0234 160.321 79.9375C160.321 81.8516 159.383 82.9453 157.946 82.9453ZM169.91 75.875H168.551V80.6484C168.551 82.0312 167.754 82.9375 166.434 82.9375C165.176 82.9375 164.559 82.2266 164.559 80.9062V75.875H163.199V81.1484C163.199 82.9922 164.238 84.1406 166.012 84.1406C167.262 84.1406 168.106 83.6172 168.59 82.6797H168.621V84H169.91V75.875ZM175.348 84H176.707V75.875H175.348V84ZM176.027 74.5078C176.496 74.5078 176.879 74.125 176.879 73.6641C176.879 73.1953 176.496 72.8203 176.027 72.8203C175.566 72.8203 175.183 73.1953 175.183 73.6641C175.183 74.125 175.566 74.5078 176.027 74.5078ZM178.703 84H180.062V79.2188C180.062 77.8438 180.898 76.9375 182.179 76.9375C183.429 76.9375 184.047 77.6562 184.047 78.9688V84H185.406V78.7266C185.406 76.8828 184.375 75.7344 182.593 75.7344C181.336 75.7344 180.468 76.2969 180.015 77.1719H179.984V75.875H178.703V84ZM187.16 78.1172C187.16 79.2266 187.863 79.9609 189.292 80.3281L190.722 80.6953C191.636 80.9375 191.972 81.25 191.972 81.8281C191.972 82.5625 191.292 83.0312 190.191 83.0312C189.089 83.0312 188.449 82.5781 188.3 81.7344H186.941C187.082 83.1719 188.324 84.1406 190.105 84.1406C192.003 84.1406 193.339 83.1406 193.339 81.7266C193.339 80.5312 192.746 79.9375 191.105 79.5234L189.847 79.2188C188.925 78.9844 188.496 78.6094 188.496 78.0469C188.496 77.3359 189.152 76.8438 190.144 76.8438C191.144 76.8438 191.777 77.3281 191.871 78.1094H193.167C193.105 76.7344 191.871 75.7344 190.191 75.7344C188.402 75.7344 187.16 76.7266 187.16 78.1172ZM195.351 73.9141V75.875H194.14V76.9922H195.351V81.8906C195.351 83.4531 195.929 84.0625 197.421 84.0625C197.742 84.0625 198.117 84.0391 198.281 84V82.8594C198.187 82.875 197.874 82.8984 197.718 82.8984C197.023 82.8984 196.71 82.5625 196.71 81.8203V76.9922H198.288V75.875H196.71V73.9141H195.351ZM199.902 84H201.261V78.9375C201.261 77.7891 201.948 77.0312 203.003 77.0312C203.331 77.0312 203.62 77.0703 203.73 77.1094V75.7891C203.62 75.7734 203.417 75.7344 203.183 75.7344C202.23 75.7344 201.48 76.3047 201.214 77.2031H201.183V75.875H199.902V84ZM211.671 75.875H210.312V80.6484C210.312 82.0312 209.515 82.9375 208.194 82.9375C206.937 82.9375 206.319 82.2266 206.319 80.9062V75.875H204.96V81.1484C204.96 82.9922 205.999 84.1406 207.773 84.1406C209.023 84.1406 209.866 83.6172 210.351 82.6797H210.382V84H211.671V75.875ZM220.347 78.5391C220.175 77.0781 218.964 75.7344 216.932 75.7344C214.69 75.7344 213.198 77.375 213.198 79.9375C213.198 82.5547 214.698 84.1406 216.948 84.1406C218.792 84.1406 220.151 83 220.362 81.3828H219.026C218.792 82.3594 218.065 82.9453 216.956 82.9453C215.55 82.9453 214.581 81.8281 214.581 79.9375C214.581 78.0938 215.534 76.9297 216.94 76.9297C218.136 76.9297 218.823 77.6562 219.018 78.5391H220.347ZM222.21 73.9141V75.875H220.999V76.9922H222.21V81.8906C222.21 83.4531 222.788 84.0625 224.28 84.0625C224.6 84.0625 224.975 84.0391 225.139 84V82.8594C225.046 82.875 224.733 82.8984 224.577 82.8984C223.882 82.8984 223.569 82.5625 223.569 81.8203V76.9922H225.147V75.875H223.569V73.9141H222.21ZM226.831 84H228.19V75.875H226.831V84ZM227.51 74.5078C227.979 74.5078 228.362 74.125 228.362 73.6641C228.362 73.1953 227.979 72.8203 227.51 72.8203C227.049 72.8203 226.667 73.1953 226.667 73.6641C226.667 74.125 227.049 74.5078 227.51 74.5078ZM233.553 84.1406C235.795 84.1406 237.311 82.5234 237.311 79.9375C237.311 77.3438 235.795 75.7344 233.553 75.7344C231.303 75.7344 229.788 77.3438 229.788 79.9375C229.788 82.5234 231.303 84.1406 233.553 84.1406ZM233.553 82.9453C232.116 82.9453 231.17 81.8516 231.17 79.9375C231.17 78.0234 232.116 76.9297 233.553 76.9297C234.991 76.9297 235.928 78.0234 235.928 79.9375C235.928 81.8516 234.991 82.9453 233.553 82.9453ZM238.846 84H240.205V79.2188C240.205 77.8438 241.041 76.9375 242.322 76.9375C243.572 76.9375 244.19 77.6562 244.19 78.9688V84H245.549V78.7266C245.549 76.8828 244.518 75.7344 242.737 75.7344C241.479 75.7344 240.612 76.2969 240.158 77.1719H240.127V75.875H238.846V84ZM247.303 78.1172C247.303 79.2266 248.006 79.9609 249.436 80.3281L250.865 80.6953C251.779 80.9375 252.115 81.25 252.115 81.8281C252.115 82.5625 251.436 83.0312 250.334 83.0312C249.232 83.0312 248.592 82.5781 248.443 81.7344H247.084C247.225 83.1719 248.467 84.1406 250.248 84.1406C252.147 84.1406 253.482 83.1406 253.482 81.7266C253.482 80.5312 252.889 79.9375 251.248 79.5234L249.99 79.2188C249.068 78.9844 248.639 78.6094 248.639 78.0469C248.639 77.3359 249.295 76.8438 250.287 76.8438C251.287 76.8438 251.92 77.3281 252.014 78.1094H253.311C253.248 76.7344 252.014 75.7344 250.334 75.7344C248.545 75.7344 247.303 76.7266 247.303 78.1172ZM258.935 73.9141V75.875H257.724V76.9922H258.935V81.8906C258.935 83.4531 259.513 84.0625 261.006 84.0625C261.326 84.0625 261.701 84.0391 261.865 84V82.8594C261.771 82.875 261.459 82.8984 261.302 82.8984C260.607 82.8984 260.295 82.5625 260.295 81.8203V76.9922H261.873V75.875H260.295V73.9141H258.935ZM266.619 84.1406C268.861 84.1406 270.377 82.5234 270.377 79.9375C270.377 77.3438 268.861 75.7344 266.619 75.7344C264.369 75.7344 262.853 77.3438 262.853 79.9375C262.853 82.5234 264.369 84.1406 266.619 84.1406ZM266.619 82.9453C265.181 82.9453 264.236 81.8516 264.236 79.9375C264.236 78.0234 265.181 76.9297 266.619 76.9297C268.056 76.9297 268.994 78.0234 268.994 79.9375C268.994 81.8516 268.056 82.9453 266.619 82.9453ZM275.353 84H276.712V78.9375C276.712 77.7891 277.4 77.0312 278.454 77.0312C278.783 77.0312 279.072 77.0703 279.181 77.1094V75.7891C279.072 75.7734 278.868 75.7344 278.634 75.7344C277.681 75.7344 276.931 76.3047 276.665 77.2031H276.634V75.875H275.353V84ZM283.318 76.9141C284.599 76.9141 285.45 77.8828 285.482 79.2422H281.068C281.153 77.8906 282.044 76.9141 283.318 76.9141ZM285.45 81.6719C285.224 82.4375 284.466 82.9609 283.435 82.9609C281.974 82.9609 281.06 81.9375 281.06 80.3828V80.3047H286.888V79.7891C286.888 77.3281 285.536 75.7344 283.341 75.7344C281.099 75.7344 279.661 77.4453 279.661 79.9688C279.661 82.5234 281.075 84.1406 283.403 84.1406C285.177 84.1406 286.552 83.0938 286.786 81.6719H285.45ZM288.282 78.1172C288.282 79.2266 288.985 79.9609 290.415 80.3281L291.845 80.6953C292.759 80.9375 293.095 81.25 293.095 81.8281C293.095 82.5625 292.415 83.0312 291.313 83.0312C290.212 83.0312 289.571 82.5781 289.423 81.7344H288.063C288.204 83.1719 289.446 84.1406 291.228 84.1406C293.126 84.1406 294.462 83.1406 294.462 81.7266C294.462 80.5312 293.868 79.9375 292.228 79.5234L290.97 79.2188C290.048 78.9844 289.618 78.6094 289.618 78.0469C289.618 77.3359 290.274 76.8438 291.267 76.8438C292.267 76.8438 292.899 77.3281 292.993 78.1094H294.29C294.228 76.7344 292.993 75.7344 291.313 75.7344C289.524 75.7344 288.282 76.7266 288.282 78.1172ZM299.294 76.9141C300.575 76.9141 301.427 77.8828 301.458 79.2422H297.044C297.13 77.8906 298.02 76.9141 299.294 76.9141ZM301.427 81.6719C301.2 82.4375 300.442 82.9609 299.411 82.9609C297.95 82.9609 297.036 81.9375 297.036 80.3828V80.3047H302.864V79.7891C302.864 77.3281 301.513 75.7344 299.317 75.7344C297.075 75.7344 295.638 77.4453 295.638 79.9688C295.638 82.5234 297.052 84.1406 299.38 84.1406C301.153 84.1406 302.528 83.0938 302.763 81.6719H301.427ZM304.837 73.9141V75.875H303.626V76.9922H304.837V81.8906C304.837 83.4531 305.415 84.0625 306.907 84.0625C307.227 84.0625 307.602 84.0391 307.766 84V82.8594C307.672 82.875 307.36 82.8984 307.204 82.8984C306.508 82.8984 306.196 82.5625 306.196 81.8203V76.9922H307.774V75.875H306.196V73.9141H304.837ZM2.55469 108.039C4.02344 108.039 4.69531 107.469 5.39062 105.57L8.58594 96.875H7.15625L4.90625 103.641H4.88281L2.63281 96.875H1.17969L4.17969 105.008L3.99219 105.578C3.67969 106.523 3.25781 106.891 2.5 106.891C2.32812 106.891 2.11719 106.883 1.96875 106.852V107.992C2.11719 108.023 2.39062 108.039 2.55469 108.039ZM12.9569 105.141C15.1991 105.141 16.7147 103.523 16.7147 100.938C16.7147 98.3438 15.1991 96.7344 12.9569 96.7344C10.7069 96.7344 9.19125 98.3438 9.19125 100.938C9.19125 103.523 10.7069 105.141 12.9569 105.141ZM12.9569 103.945C11.5194 103.945 10.5741 102.852 10.5741 100.938C10.5741 99.0234 11.5194 97.9297 12.9569 97.9297C14.3944 97.9297 15.3319 99.0234 15.3319 100.938C15.3319 102.852 14.3944 103.945 12.9569 103.945ZM24.9216 96.875H23.5622V101.648C23.5622 103.031 22.7653 103.938 21.445 103.938C20.1872 103.938 19.57 103.227 19.57 101.906V96.875H18.2106V102.148C18.2106 103.992 19.2497 105.141 21.0231 105.141C22.2731 105.141 23.1169 104.617 23.6012 103.68H23.6325V105H24.9216V96.875ZM26.8472 105H28.2066V99.9375C28.2066 98.7891 28.8941 98.0312 29.9487 98.0312C30.2769 98.0312 30.5659 98.0703 30.6753 98.1094V96.7891C30.5659 96.7734 30.3628 96.7344 30.1284 96.7344C29.1753 96.7344 28.4253 97.3047 28.1597 98.2031H28.1284V96.875H26.8472V105ZM39.3312 96.7344C38.1516 96.7344 37.2062 97.3359 36.7062 98.25H36.675V96.875H35.3859V107.711H36.7453V103.68H36.7766C37.2609 104.57 38.1984 105.141 39.3625 105.141C41.4094 105.141 42.8078 103.484 42.8078 100.938C42.8078 98.3906 41.4016 96.7344 39.3312 96.7344ZM39.0656 103.945C37.675 103.945 36.7375 102.75 36.7375 100.938C36.7375 99.1328 37.675 97.9297 39.0656 97.9297C40.5109 97.9297 41.4172 99.1016 41.4172 100.938C41.4172 102.781 40.5109 103.945 39.0656 103.945ZM47.0225 103.984C46.0459 103.984 45.3975 103.477 45.3975 102.703C45.3975 101.938 46.0225 101.453 47.1162 101.383L49.2881 101.25V101.914C49.2881 103.086 48.3037 103.984 47.0225 103.984ZM46.7178 105.141C47.8116 105.141 48.8428 104.531 49.3272 103.602H49.3584V105H50.6475V99.3828C50.6475 97.7656 49.4444 96.7344 47.5381 96.7344C45.6162 96.7344 44.4131 97.8125 44.3194 99.2188H45.6319C45.8037 98.4219 46.46 97.9297 47.5069 97.9297C48.6319 97.9297 49.2881 98.5234 49.2881 99.5156V100.195L46.96 100.328C45.085 100.438 44.0147 101.312 44.0147 102.703C44.0147 104.164 45.1006 105.141 46.7178 105.141ZM52.3934 99.1172C52.3934 100.227 53.0966 100.961 54.5262 101.328L55.9559 101.695C56.87 101.938 57.2059 102.25 57.2059 102.828C57.2059 103.562 56.5262 104.031 55.4247 104.031C54.3231 104.031 53.6825 103.578 53.5341 102.734H52.1747C52.3153 104.172 53.5575 105.141 55.3387 105.141C57.2372 105.141 58.5731 104.141 58.5731 102.727C58.5731 101.531 57.9794 100.938 56.3387 100.523L55.0809 100.219C54.1591 99.9844 53.7294 99.6094 53.7294 99.0469C53.7294 98.3359 54.3856 97.8438 55.3778 97.8438C56.3778 97.8438 57.0106 98.3281 57.1044 99.1094H58.4012C58.3387 97.7344 57.1044 96.7344 55.4247 96.7344C53.6356 96.7344 52.3934 97.7266 52.3934 99.1172ZM60.0066 99.1172C60.0066 100.227 60.7097 100.961 62.1394 101.328L63.5691 101.695C64.4831 101.938 64.8191 102.25 64.8191 102.828C64.8191 103.562 64.1394 104.031 63.0378 104.031C61.9362 104.031 61.2956 103.578 61.1472 102.734H59.7878C59.9284 104.172 61.1706 105.141 62.9519 105.141C64.8503 105.141 66.1862 104.141 66.1862 102.727C66.1862 101.531 65.5925 100.938 63.9519 100.523L62.6941 100.219C61.7722 99.9844 61.3425 99.6094 61.3425 99.0469C61.3425 98.3359 61.9987 97.8438 62.9909 97.8438C63.9909 97.8438 64.6237 98.3281 64.7175 99.1094H66.0144C65.9519 97.7344 64.7175 96.7344 63.0378 96.7344C61.2487 96.7344 60.0066 97.7266 60.0066 99.1172ZM78.0963 96.875H76.7525L75.1275 103.484H75.0963L73.2525 96.875H71.94L70.1041 103.484H70.0728L68.4478 96.875H67.0963L69.3697 105H70.7525L72.5806 98.7109H72.6119L74.4478 105H75.8306L78.0963 96.875ZM82.7406 105.141C84.9828 105.141 86.4984 103.523 86.4984 100.938C86.4984 98.3438 84.9828 96.7344 82.7406 96.7344C80.4906 96.7344 78.975 98.3438 78.975 100.938C78.975 103.523 80.4906 105.141 82.7406 105.141ZM82.7406 103.945C81.3031 103.945 80.3578 102.852 80.3578 100.938C80.3578 99.0234 81.3031 97.9297 82.7406 97.9297C84.1781 97.9297 85.1156 99.0234 85.1156 100.938C85.1156 102.852 84.1781 103.945 82.7406 103.945ZM88.0334 105H89.3928V99.9375C89.3928 98.7891 90.0803 98.0312 91.135 98.0312C91.4631 98.0312 91.7522 98.0703 91.8616 98.1094V96.7891C91.7522 96.7734 91.5491 96.7344 91.3147 96.7344C90.3616 96.7344 89.6116 97.3047 89.3459 98.2031H89.3147V96.875H88.0334V105ZM95.8184 105.141C96.9903 105.141 97.92 104.562 98.4434 103.625H98.4669V105H99.7637V93.7266H98.4044V98.1953H98.3731C97.8887 97.3047 96.9512 96.7344 95.7872 96.7344C93.7403 96.7344 92.3419 98.3906 92.3419 100.938C92.3419 103.484 93.7481 105.141 95.8184 105.141ZM96.0762 97.9297C97.4747 97.9297 98.4122 99.125 98.4122 100.938C98.4122 102.758 97.4747 103.945 96.0762 103.945C94.6387 103.945 93.7325 102.781 93.7325 100.938C93.7325 99.1016 94.6387 97.9297 96.0762 97.9297ZM102.908 105.078C103.408 105.078 103.799 104.688 103.799 104.188C103.799 103.688 103.408 103.297 102.908 103.297C102.408 103.297 102.018 103.688 102.018 104.188C102.018 104.688 102.408 105.078 102.908 105.078Z" fill="#6B7280"/>
</svg>
