<svg width="327" height="68" viewBox="0 0 327 68" fill="none" xmlns="http://www.w3.org/2000/svg">
<mask id="path-1-inside-1_228_5015" fill="white">
<path d="M0 0H327V68H0V0Z"/>
</mask>
<path d="M0 0H327V68H0V0Z" fill="white"/>
<rect y="14" width="40" height="40" rx="20" fill="#D6E4FF"/>
<path d="M25 32.9583C24.6583 32.9583 24.375 32.675 24.375 32.3333V30.6667C24.375 28.0417 23.6333 26.2917 20 26.2917C16.3667 26.2917 15.625 28.0417 15.625 30.6667V32.3333C15.625 32.675 15.3417 32.9583 15 32.9583C14.6583 32.9583 14.375 32.675 14.375 32.3333V30.6667C14.375 28.25 14.9583 25.0417 20 25.0417C25.0417 25.0417 25.625 28.25 25.625 30.6667V32.3333C25.625 32.675 25.3417 32.9583 25 32.9583Z" fill="#3366FF"/>
<path d="M19.9998 40.0417C18.5082 40.0417 17.2915 38.825 17.2915 37.3333C17.2915 35.8417 18.5082 34.625 19.9998 34.625C21.4915 34.625 22.7082 35.8417 22.7082 37.3333C22.7082 38.825 21.4915 40.0417 19.9998 40.0417ZM19.9998 35.875C19.1998 35.875 18.5415 36.5333 18.5415 37.3333C18.5415 38.1333 19.1998 38.7917 19.9998 38.7917C20.7998 38.7917 21.4582 38.1333 21.4582 37.3333C21.4582 36.5333 20.7998 35.875 19.9998 35.875Z" fill="#3366FF"/>
<path d="M24.1665 42.9583H15.8332C12.1582 42.9583 11.0415 41.8417 11.0415 38.1667V36.5C11.0415 32.825 12.1582 31.7083 15.8332 31.7083H24.1665C27.8415 31.7083 28.9582 32.825 28.9582 36.5V38.1667C28.9582 41.8417 27.8415 42.9583 24.1665 42.9583ZM15.8332 32.9583C12.8498 32.9583 12.2915 33.525 12.2915 36.5V38.1667C12.2915 41.1417 12.8498 41.7083 15.8332 41.7083H24.1665C27.1498 41.7083 27.7082 41.1417 27.7082 38.1667V36.5C27.7082 33.525 27.1498 32.9583 24.1665 32.9583H15.8332Z" fill="#3366FF"/>
<path d="M59.9375 38.2344H54.5V28.2266H53.0938V39.5H59.9375V38.2344ZM64.5662 39.6406C66.8084 39.6406 68.3241 38.0234 68.3241 35.4375C68.3241 32.8438 66.8084 31.2344 64.5662 31.2344C62.3162 31.2344 60.8006 32.8438 60.8006 35.4375C60.8006 38.0234 62.3162 39.6406 64.5662 39.6406ZM64.5662 38.4453C63.1287 38.4453 62.1834 37.3516 62.1834 35.4375C62.1834 33.5234 63.1287 32.4297 64.5662 32.4297C66.0037 32.4297 66.9412 33.5234 66.9412 35.4375C66.9412 37.3516 66.0037 38.4453 64.5662 38.4453ZM73.1637 38.3672C71.7653 38.3672 70.8512 37.2266 70.8512 35.4062C70.8512 33.5859 71.7653 32.4297 73.1637 32.4297C74.5778 32.4297 75.5231 33.6172 75.5231 35.4062C75.5231 37.1953 74.5778 38.3672 73.1637 38.3672ZM73.2106 42.5625C75.4528 42.5625 76.8825 41.2734 76.8825 39.3359V31.375H75.5856V32.7422H75.5622C75.0231 31.7969 74.07 31.2344 72.9216 31.2344C70.82 31.2344 69.4606 32.8594 69.4606 35.4062C69.4606 37.9297 70.82 39.5625 72.8903 39.5625C74.0309 39.5625 74.9919 38.9844 75.4919 38.1016H75.5231V39.3828C75.5231 40.5938 74.6716 41.4062 73.2653 41.4062C72.2497 41.4062 71.445 40.9141 71.1794 40.1719H69.7809C70.0075 41.5547 71.4216 42.5625 73.2106 42.5625ZM78.8862 39.5H80.2456V31.375H78.8862V39.5ZM79.5659 30.0078C80.0347 30.0078 80.4175 29.625 80.4175 29.1641C80.4175 28.6953 80.0347 28.3203 79.5659 28.3203C79.105 28.3203 78.7222 28.6953 78.7222 29.1641C78.7222 29.625 79.105 30.0078 79.5659 30.0078ZM82.2416 39.5H83.6009V34.7188C83.6009 33.3438 84.4369 32.4375 85.7181 32.4375C86.9681 32.4375 87.5853 33.1562 87.5853 34.4688V39.5H88.9447V34.2266C88.9447 32.3828 87.9134 31.2344 86.1322 31.2344C84.8744 31.2344 84.0072 31.7969 83.5541 32.6719H83.5228V31.375H82.2416V39.5ZM96.96 38.4844C95.9834 38.4844 95.335 37.9766 95.335 37.2031C95.335 36.4375 95.96 35.9531 97.0537 35.8828L99.2256 35.75V36.4141C99.2256 37.5859 98.2412 38.4844 96.96 38.4844ZM96.6553 39.6406C97.7491 39.6406 98.7803 39.0312 99.2647 38.1016H99.2959V39.5H100.585V33.8828C100.585 32.2656 99.3819 31.2344 97.4756 31.2344C95.5537 31.2344 94.3506 32.3125 94.2569 33.7188H95.5694C95.7412 32.9219 96.3975 32.4297 97.4444 32.4297C98.5694 32.4297 99.2256 33.0234 99.2256 34.0156V34.6953L96.8975 34.8281C95.0225 34.9375 93.9522 35.8125 93.9522 37.2031C93.9522 38.6641 95.0381 39.6406 96.6553 39.6406ZM102.472 39.5H103.831V34.7188C103.831 33.3438 104.667 32.4375 105.948 32.4375C107.198 32.4375 107.815 33.1562 107.815 34.4688V39.5H109.175V34.2266C109.175 32.3828 108.143 31.2344 106.362 31.2344C105.104 31.2344 104.237 31.7969 103.784 32.6719H103.753V31.375H102.472V39.5ZM114.147 39.6406C115.319 39.6406 116.249 39.0625 116.772 38.125H116.796V39.5H118.092V28.2266H116.733V32.6953H116.702C116.217 31.8047 115.28 31.2344 114.116 31.2344C112.069 31.2344 110.671 32.8906 110.671 35.4375C110.671 37.9844 112.077 39.6406 114.147 39.6406ZM114.405 32.4297C115.803 32.4297 116.741 33.625 116.741 35.4375C116.741 37.2578 115.803 38.4453 114.405 38.4453C112.967 38.4453 112.061 37.2812 112.061 35.4375C112.061 33.6016 112.967 32.4297 114.405 32.4297ZM123.389 33.6172C123.389 34.7266 124.092 35.4609 125.522 35.8281L126.952 36.1953C127.866 36.4375 128.202 36.75 128.202 37.3281C128.202 38.0625 127.522 38.5312 126.42 38.5312C125.319 38.5312 124.678 38.0781 124.53 37.2344H123.17C123.311 38.6719 124.553 39.6406 126.334 39.6406C128.233 39.6406 129.569 38.6406 129.569 37.2266C129.569 36.0312 128.975 35.4375 127.334 35.0234L126.077 34.7188C125.155 34.4844 124.725 34.1094 124.725 33.5469C124.725 32.8359 125.381 32.3438 126.373 32.3438C127.373 32.3438 128.006 32.8281 128.1 33.6094H129.397C129.334 32.2344 128.1 31.2344 126.42 31.2344C124.631 31.2344 123.389 32.2266 123.389 33.6172ZM134.401 32.4141C135.682 32.4141 136.533 33.3828 136.565 34.7422H132.151C132.237 33.3906 133.127 32.4141 134.401 32.4141ZM136.533 37.1719C136.307 37.9375 135.549 38.4609 134.518 38.4609C133.057 38.4609 132.143 37.4375 132.143 35.8828V35.8047H137.971V35.2891C137.971 32.8281 136.619 31.2344 134.424 31.2344C132.182 31.2344 130.744 32.9453 130.744 35.4688C130.744 38.0234 132.158 39.6406 134.487 39.6406C136.26 39.6406 137.635 38.5938 137.869 37.1719H136.533ZM146.256 34.0391C146.084 32.5781 144.873 31.2344 142.842 31.2344C140.6 31.2344 139.107 32.875 139.107 35.4375C139.107 38.0547 140.607 39.6406 142.857 39.6406C144.701 39.6406 146.061 38.5 146.272 36.8828H144.936C144.701 37.8594 143.975 38.4453 142.865 38.4453C141.459 38.4453 140.49 37.3281 140.49 35.4375C140.49 33.5938 141.443 32.4297 142.85 32.4297C144.045 32.4297 144.732 33.1562 144.928 34.0391H146.256ZM154.353 31.375H152.994V36.1484C152.994 37.5312 152.197 38.4375 150.877 38.4375C149.619 38.4375 149.002 37.7266 149.002 36.4062V31.375H147.643V36.6484C147.643 38.4922 148.682 39.6406 150.455 39.6406C151.705 39.6406 152.549 39.1172 153.033 38.1797H153.064V39.5H154.353V31.375ZM156.279 39.5H157.638V34.4375C157.638 33.2891 158.326 32.5312 159.381 32.5312C159.709 32.5312 159.998 32.5703 160.107 32.6094V31.2891C159.998 31.2734 159.795 31.2344 159.56 31.2344C158.607 31.2344 157.857 31.8047 157.592 32.7031H157.56V31.375H156.279V39.5ZM161.447 39.5H162.806V31.375H161.447V39.5ZM162.127 30.0078C162.595 30.0078 162.978 29.625 162.978 29.1641C162.978 28.6953 162.595 28.3203 162.127 28.3203C161.666 28.3203 161.283 28.6953 161.283 29.1641C161.283 29.625 161.666 30.0078 162.127 30.0078ZM165.24 29.4141V31.375H164.029V32.4922H165.24V37.3906C165.24 38.9531 165.818 39.5625 167.31 39.5625C167.63 39.5625 168.005 39.5391 168.169 39.5V38.3594C168.076 38.375 167.763 38.3984 167.607 38.3984C166.912 38.3984 166.599 38.0625 166.599 37.3203V32.4922H168.177V31.375H166.599V29.4141H165.24ZM170.462 42.5391C171.931 42.5391 172.603 41.9688 173.298 40.0703L176.493 31.375H175.064L172.814 38.1406H172.79L170.54 31.375H169.087L172.087 39.5078L171.9 40.0781C171.587 41.0234 171.165 41.3906 170.408 41.3906C170.236 41.3906 170.025 41.3828 169.876 41.3516V42.4922C170.025 42.5234 170.298 42.5391 170.462 42.5391Z" fill="#111827"/>
<path d="M320.62 38.5467C320.493 38.5467 320.367 38.5 320.267 38.4C320.073 38.2067 320.073 37.8867 320.267 37.6933L323.96 34L320.267 30.3067C320.073 30.1133 320.073 29.7933 320.267 29.6C320.46 29.4067 320.78 29.4067 320.973 29.6L325.02 33.6467C325.213 33.84 325.213 34.16 325.02 34.3533L320.973 38.4C320.873 38.5 320.747 38.5467 320.62 38.5467Z" fill="#111827"/>
<path d="M324.553 34.5H313.333C313.06 34.5 312.833 34.2733 312.833 34C312.833 33.7267 313.06 33.5 313.333 33.5H324.553C324.827 33.5 325.053 33.7267 325.053 34C325.053 34.2733 324.827 34.5 324.553 34.5Z" fill="#111827"/>
<path d="M327 67H0V69H327V67Z" fill="#E5E7EB" mask="url(#path-1-inside-1_228_5015)"/>
</svg>
