<svg width="220" height="148" viewBox="0 0 220 148" fill="none" xmlns="http://www.w3.org/2000/svg">
<rect x="86" width="48" height="48" rx="10" fill="#6690FF"/>
<path d="M105.789 36C102.554 36 99.5382 35.0591 97 33.4356C99.155 33.5751 102.958 33.2411 105.324 30.9848C101.765 30.8215 100.16 28.0923 99.9509 26.926C100.253 27.0426 101.695 27.1826 102.509 26.856C98.4159 25.8296 97.7879 22.2373 97.9275 21.141C98.695 21.6775 99.9975 21.8641 100.509 21.8174C96.6948 19.0882 98.067 14.9828 98.7415 14.0963C101.479 17.8887 105.581 20.0186 110.656 20.137C110.561 19.7174 110.51 19.2804 110.51 18.8316C110.51 15.6109 113.113 13 116.325 13C118.003 13 119.514 13.7128 120.576 14.8528C121.697 14.5901 123.384 13.9751 124.209 13.4432C123.793 14.9361 122.499 16.1815 121.716 16.6431C121.71 16.6273 121.722 16.6588 121.716 16.6431C122.404 16.539 124.265 16.1814 125 15.6826C124.636 16.5213 123.264 17.9157 122.138 18.6964C122.347 27.9381 115.276 36 105.789 36Z" fill="white"/>
<path d="M28.9836 75.0742C29.1203 77.623 31.2297 79.2344 34.3547 79.2344C37.6945 79.2344 39.7941 77.584 39.7941 74.9473C39.7941 72.8867 38.593 71.7246 35.7023 71.041L34.1496 70.6602C32.3332 70.2109 31.591 69.625 31.591 68.6289C31.591 67.3789 32.7531 66.5195 34.4523 66.5195C36.1516 66.5195 37.3137 67.3691 37.4406 68.7754H39.5695C39.5012 66.3438 37.4602 64.6738 34.4816 64.6738C31.4738 64.6738 29.3547 66.3438 29.3547 68.7754C29.3547 70.7383 30.5559 71.9492 33.1438 72.5742L34.9699 73.0137C36.7961 73.4629 37.5676 74.1172 37.5676 75.2109C37.5676 76.4707 36.2883 77.3887 34.5109 77.3887C32.6555 77.3887 31.298 76.4707 31.1418 75.0742H28.9836ZM46 70.2402C47.4746 70.2402 48.4707 71.3438 48.5195 72.916H43.3828C43.4902 71.3633 44.5254 70.2402 46 70.2402ZM48.5098 75.9824C48.2266 76.8809 47.3379 77.4863 46.1367 77.4863C44.4473 77.4863 43.3731 76.3047 43.3731 74.5176V74.3906H50.6289V73.668C50.6289 70.5527 48.8516 68.541 46 68.541C43.0996 68.541 41.2441 70.6895 41.2441 73.9121C41.2441 77.1543 43.0703 79.1953 46.0879 79.1953C48.4414 79.1953 50.2188 77.8574 50.5117 75.9824H48.5098ZM52.4695 79H54.5789V73.0137C54.5789 71.4219 55.5359 70.3672 57.0203 70.3672C58.4852 70.3672 59.2078 71.2168 59.2078 72.7598V79H61.327V72.3496C61.327 69.9961 60.0281 68.5508 57.7625 68.5508C56.1805 68.5508 55.0867 69.2734 54.5301 70.4453H54.4813V68.7266H52.4695V79ZM63.6363 79H65.7457V68.7266H63.6363V79ZM64.691 67.2227C65.3746 67.2227 65.9215 66.6855 65.9215 66.0215C65.9215 65.3477 65.3746 64.8105 64.691 64.8105C64.0172 64.8105 63.4703 65.3477 63.4703 66.0215C63.4703 66.6855 64.0172 67.2227 64.691 67.2227ZM72.518 79.1953C75.4574 79.1953 77.391 77.1738 77.391 73.8633C77.391 70.5625 75.4477 68.541 72.518 68.541C69.5883 68.541 67.6449 70.5625 67.6449 73.8633C67.6449 77.1738 69.5785 79.1953 72.518 79.1953ZM72.518 77.457C70.8676 77.457 69.7934 76.1484 69.7934 73.8633C69.7934 71.5879 70.8676 70.2793 72.518 70.2793C74.1684 70.2793 75.2426 71.5879 75.2426 73.8633C75.2426 76.1484 74.1781 77.457 72.518 77.457ZM79.2219 79H81.3313V72.8477C81.3313 71.3926 82.1711 70.4844 83.5285 70.4844C83.9387 70.4844 84.3098 70.5332 84.4758 70.6016V68.6387C84.3195 68.6094 84.0559 68.5605 83.7531 68.5605C82.5422 68.5605 81.6242 69.2734 81.2824 70.4746H81.2336V68.7266H79.2219V79ZM92.6883 64.9082H90.5008V74.0488C90.5008 77.0859 92.6688 79.2344 96.2039 79.2344C99.7391 79.2344 101.907 77.0859 101.907 74.0488V64.9082H99.7293V73.8633C99.7293 75.875 98.45 77.291 96.2039 77.291C93.9578 77.291 92.6883 75.875 92.6883 73.8633V64.9082ZM106.892 79V64.9082H104.705V79H106.892ZM113.952 64.9082V79H118.923C123.122 79 125.593 76.3828 125.593 71.9297C125.593 67.4863 123.113 64.9082 118.923 64.9082H113.952ZM116.14 66.793H118.718C121.696 66.793 123.357 68.6289 123.357 71.9492C123.357 75.2793 121.706 77.1055 118.718 77.1055H116.14V66.793ZM131.926 70.2402C133.4 70.2402 134.396 71.3438 134.445 72.916H129.309C129.416 71.3633 130.451 70.2402 131.926 70.2402ZM134.436 75.9824C134.152 76.8809 133.264 77.4863 132.062 77.4863C130.373 77.4863 129.299 76.3047 129.299 74.5176V74.3906H136.555V73.668C136.555 70.5527 134.777 68.541 131.926 68.541C129.025 68.541 127.17 70.6895 127.17 73.9121C127.17 77.1543 128.996 79.1953 132.014 79.1953C134.367 79.1953 136.145 77.8574 136.438 75.9824H134.436ZM138.21 71.6367C138.21 73.0723 139.147 74.0391 141.003 74.4883L142.839 74.9375C143.913 75.2109 144.304 75.5723 144.304 76.2266C144.304 77.0566 143.522 77.584 142.253 77.584C140.964 77.584 140.202 77.0371 140.036 76.0508H137.946C138.112 77.9355 139.723 79.1953 142.155 79.1953C144.675 79.1953 146.423 77.9062 146.423 76.0312C146.423 74.5176 145.641 73.7363 143.571 73.2383L141.843 72.8379C140.778 72.5742 140.27 72.1445 140.27 71.5098C140.27 70.6992 141.032 70.1426 142.175 70.1426C143.356 70.1426 144.108 70.7188 144.206 71.6465H146.188C146.12 69.8203 144.518 68.541 142.233 68.541C139.831 68.541 138.21 69.8008 138.21 71.6367ZM148.332 79H150.441V68.7266H148.332V79ZM149.386 67.2227C150.07 67.2227 150.617 66.6855 150.617 66.0215C150.617 65.3477 150.07 64.8105 149.386 64.8105C148.712 64.8105 148.166 65.3477 148.166 66.0215C148.166 66.6855 148.712 67.2227 149.386 67.2227ZM157.174 77.291C155.553 77.291 154.498 75.9824 154.498 73.834C154.498 71.6953 155.553 70.3379 157.174 70.3379C158.825 70.3379 159.909 71.7246 159.909 73.834C159.909 75.9531 158.825 77.291 157.174 77.291ZM157.194 82.8672C160.123 82.8672 162.018 81.2656 162.018 78.8145V68.7266H159.967V70.4844H159.928C159.303 69.293 158.112 68.5605 156.657 68.5605C154.02 68.5605 152.34 70.5918 152.34 73.8242C152.34 77.0273 154.03 79.0391 156.608 79.0391C158.073 79.0391 159.284 78.3066 159.86 77.1934H159.899V78.8828C159.899 80.2891 158.922 81.2266 157.272 81.2266C156.071 81.2266 155.133 80.6602 154.83 79.8008H152.711C152.975 81.5781 154.772 82.8672 157.194 82.8672ZM164.308 79H166.417V73.0137C166.417 71.4219 167.374 70.3672 168.859 70.3672C170.323 70.3672 171.046 71.2168 171.046 72.7598V79H173.165V72.3496C173.165 69.9961 171.866 68.5508 169.601 68.5508C168.019 68.5508 166.925 69.2734 166.368 70.4453H166.32V68.7266H164.308V79ZM179.703 70.2402C181.178 70.2402 182.174 71.3438 182.223 72.916H177.086C177.193 71.3633 178.229 70.2402 179.703 70.2402ZM182.213 75.9824C181.93 76.8809 181.041 77.4863 179.84 77.4863C178.15 77.4863 177.076 76.3047 177.076 74.5176V74.3906H184.332V73.668C184.332 70.5527 182.555 68.541 179.703 68.541C176.803 68.541 174.947 70.6895 174.947 73.9121C174.947 77.1543 176.773 79.1953 179.791 79.1953C182.145 79.1953 183.922 77.8574 184.215 75.9824H182.213ZM186.173 79H188.282V72.8477C188.282 71.3926 189.122 70.4844 190.479 70.4844C190.889 70.4844 191.261 70.5332 191.427 70.6016V68.6387C191.27 68.6094 191.007 68.5605 190.704 68.5605C189.493 68.5605 188.575 69.2734 188.233 70.4746H188.184V68.7266H186.173V79Z" fill="#111827"/>
<path d="M44.822 101V93.4941H47.488V92.5449H41.1012V93.4941H43.7673V101H44.822ZM55.1431 94.9062H54.1353L52.9166 99.8633H52.8931L51.5103 94.9062H50.5259L49.149 99.8633H49.1255L47.9068 94.9062H46.8931L48.5982 101H49.6353L51.0064 96.2832H51.0298L52.4068 101H53.4439L55.1431 94.9062ZM56.1537 101H57.1733V94.9062H56.1537V101ZM56.6635 93.8809C57.0151 93.8809 57.3022 93.5938 57.3022 93.248C57.3022 92.8965 57.0151 92.6152 56.6635 92.6152C56.3178 92.6152 56.0307 92.8965 56.0307 93.248C56.0307 93.5938 56.3178 93.8809 56.6635 93.8809ZM58.9984 93.4355V94.9062H58.0902V95.7441H58.9984V99.418C58.9984 100.59 59.432 101.047 60.5511 101.047C60.7913 101.047 61.0726 101.029 61.1956 101V100.145C61.1253 100.156 60.8909 100.174 60.7738 100.174C60.2523 100.174 60.0179 99.9219 60.0179 99.3652V95.7441H61.2015V94.9062H60.0179V93.4355H58.9984ZM62.7395 93.4355V94.9062H61.8312V95.7441H62.7395V99.418C62.7395 100.59 63.173 101.047 64.2922 101.047C64.5324 101.047 64.8137 101.029 64.9367 101V100.145C64.8664 100.156 64.632 100.174 64.5148 100.174C63.9934 100.174 63.759 99.9219 63.759 99.3652V95.7441H64.9426V94.9062H63.759V93.4355H62.7395ZM68.42 95.6855C69.3809 95.6855 70.0196 96.4121 70.043 97.4316H66.7325C66.797 96.418 67.4649 95.6855 68.42 95.6855ZM70.0196 99.2539C69.8497 99.8281 69.2813 100.221 68.5079 100.221C67.4122 100.221 66.7266 99.4531 66.7266 98.2871V98.2285H71.0977V97.8418C71.0977 95.9961 70.0841 94.8008 68.4376 94.8008C66.7559 94.8008 65.6778 96.084 65.6778 97.9766C65.6778 99.8926 66.7384 101.105 68.4845 101.105C69.8145 101.105 70.8458 100.32 71.0216 99.2539H70.0196ZM72.249 101H73.2685V97.2031C73.2685 96.3418 73.7841 95.7734 74.5752 95.7734C74.8213 95.7734 75.038 95.8027 75.1201 95.832V94.8418C75.038 94.8301 74.8857 94.8008 74.7099 94.8008C73.9951 94.8008 73.4326 95.2285 73.2334 95.9023H73.2099V94.9062H72.249V101ZM80.8855 99.5059C81.864 99.5059 82.6667 98.7031 82.6667 97.7246C82.6667 96.7461 81.864 95.9434 80.8855 95.9434C79.907 95.9434 79.1042 96.7461 79.1042 97.7246C79.1042 98.7031 79.907 99.5059 80.8855 99.5059ZM86.727 99.0137C86.727 100.297 87.7114 101.199 89.1177 101.199C90.6763 101.199 91.602 100.25 91.602 98.6445V92.5449H90.5473V98.6387C90.5473 99.6699 90.0434 100.227 89.1118 100.227C88.3442 100.227 87.7993 99.7285 87.7759 99.0137H86.727ZM95.2142 100.238C94.4818 100.238 93.9955 99.8574 93.9955 99.2773C93.9955 98.7031 94.4642 98.3398 95.2845 98.2871L96.9134 98.1875V98.6855C96.9134 99.5645 96.1752 100.238 95.2142 100.238ZM94.9857 101.105C95.806 101.105 96.5795 100.648 96.9427 99.9512H96.9662V101H97.933V96.7871C97.933 95.5742 97.0306 94.8008 95.6009 94.8008C94.1595 94.8008 93.2572 95.6094 93.1869 96.6641H94.1712C94.3002 96.0664 94.7923 95.6973 95.5775 95.6973C96.4212 95.6973 96.9134 96.1426 96.9134 96.8867V97.3965L95.1673 97.4961C93.7611 97.5781 92.9584 98.2344 92.9584 99.2773C92.9584 100.373 93.7728 101.105 94.9857 101.105ZM100.42 97.6133V92.5449H99.4006V101H100.42V98.7031L100.989 98.1641L103.25 101H104.434L101.709 97.5371L104.352 94.9062H103.115L100.42 97.6133ZM107.302 100.238C106.569 100.238 106.083 99.8574 106.083 99.2773C106.083 98.7031 106.552 98.3398 107.372 98.2871L109.001 98.1875V98.6855C109.001 99.5645 108.263 100.238 107.302 100.238ZM107.073 101.105C107.894 101.105 108.667 100.648 109.03 99.9512H109.054V101H110.021V96.7871C110.021 95.5742 109.118 94.8008 107.689 94.8008C106.247 94.8008 105.345 95.6094 105.275 96.6641H106.259C106.388 96.0664 106.88 95.6973 107.665 95.6973C108.509 95.6973 109.001 96.1426 109.001 96.8867V97.3965L107.255 97.4961C105.849 97.5781 105.046 98.2344 105.046 99.2773C105.046 100.373 105.86 101.105 107.073 101.105ZM111.436 101H112.455V97.2031C112.455 96.3418 112.971 95.7734 113.762 95.7734C114.008 95.7734 114.225 95.8027 114.307 95.832V94.8418C114.225 94.8301 114.072 94.8008 113.896 94.8008C113.182 94.8008 112.619 95.2285 112.42 95.9023H112.396V94.9062H111.436V101ZM115.587 93.4355V94.9062H114.679V95.7441H115.587V99.418C115.587 100.59 116.02 101.047 117.14 101.047C117.38 101.047 117.661 101.029 117.784 101V100.145C117.714 100.156 117.479 100.174 117.362 100.174C116.841 100.174 116.606 99.9219 116.606 99.3652V95.7441H117.79V94.9062H116.606V93.4355H115.587ZM120.892 100.238C120.16 100.238 119.674 99.8574 119.674 99.2773C119.674 98.7031 120.142 98.3398 120.963 98.2871L122.592 98.1875V98.6855C122.592 99.5645 121.853 100.238 120.892 100.238ZM120.664 101.105C121.484 101.105 122.258 100.648 122.621 99.9512H122.644V101H123.611V96.7871C123.611 95.5742 122.709 94.8008 121.279 94.8008C119.838 94.8008 118.935 95.6094 118.865 96.6641H119.849C119.978 96.0664 120.47 95.6973 121.256 95.6973C122.099 95.6973 122.592 96.1426 122.592 96.8867V97.3965L120.845 97.4961C119.439 97.5781 118.636 98.2344 118.636 99.2773C118.636 100.373 119.451 101.105 120.664 101.105ZM125.723 102.682L126.526 99.6992H125.442L124.874 102.682H125.723ZM131.401 101V92.5449H130.346V101H131.401ZM133.003 101H134.023V97.4141C134.023 96.3828 134.65 95.7031 135.611 95.7031C136.548 95.7031 137.011 96.2422 137.011 97.2266V101H138.031V97.0449C138.031 95.6621 137.257 94.8008 135.921 94.8008C134.978 94.8008 134.327 95.2227 133.988 95.8789H133.964V94.9062H133.003V101ZM141.76 101.105C142.639 101.105 143.336 100.672 143.729 99.9688H143.746V101H144.719V92.5449H143.699V95.8965H143.676C143.313 95.2285 142.61 94.8008 141.736 94.8008C140.201 94.8008 139.152 96.043 139.152 97.9531C139.152 99.8633 140.207 101.105 141.76 101.105ZM141.953 95.6973C143.002 95.6973 143.705 96.5938 143.705 97.9531C143.705 99.3184 143.002 100.209 141.953 100.209C140.875 100.209 140.195 99.3359 140.195 97.9531C140.195 96.5762 140.875 95.6973 141.953 95.6973ZM148.741 101.105C150.423 101.105 151.56 99.8926 151.56 97.9531C151.56 96.0078 150.423 94.8008 148.741 94.8008C147.054 94.8008 145.917 96.0078 145.917 97.9531C145.917 99.8926 147.054 101.105 148.741 101.105ZM148.741 100.209C147.663 100.209 146.954 99.3887 146.954 97.9531C146.954 96.5176 147.663 95.6973 148.741 95.6973C149.819 95.6973 150.522 96.5176 150.522 97.9531C150.522 99.3887 149.819 100.209 148.741 100.209ZM152.711 101H153.73V97.4141C153.73 96.3828 154.357 95.7031 155.318 95.7031C156.256 95.7031 156.719 96.2422 156.719 97.2266V101H157.738V97.0449C157.738 95.6621 156.965 94.8008 155.629 94.8008C154.685 94.8008 154.035 95.2227 153.695 95.8789H153.672V94.9062H152.711V101ZM161.602 95.6855C162.563 95.6855 163.202 96.4121 163.225 97.4316H159.915C159.979 96.418 160.647 95.6855 161.602 95.6855ZM163.202 99.2539C163.032 99.8281 162.464 100.221 161.69 100.221C160.595 100.221 159.909 99.4531 159.909 98.2871V98.2285H164.28V97.8418C164.28 95.9961 163.266 94.8008 161.62 94.8008C159.938 94.8008 158.86 96.084 158.86 97.9766C158.86 99.8926 159.921 101.105 161.667 101.105C162.997 101.105 164.028 100.32 164.204 99.2539H163.202ZM165.326 96.5879C165.326 97.4199 165.853 97.9707 166.925 98.2461L167.998 98.5215C168.683 98.7031 168.935 98.9375 168.935 99.3711C168.935 99.9219 168.425 100.273 167.599 100.273C166.773 100.273 166.293 99.9336 166.181 99.3008H165.162C165.267 100.379 166.199 101.105 167.535 101.105C168.959 101.105 169.961 100.355 169.961 99.2949C169.961 98.3984 169.515 97.9531 168.285 97.6426L167.341 97.4141C166.65 97.2383 166.328 96.957 166.328 96.5352C166.328 96.002 166.82 95.6328 167.564 95.6328C168.314 95.6328 168.789 95.9961 168.859 96.582H169.832C169.785 95.5508 168.859 94.8008 167.599 94.8008C166.258 94.8008 165.326 95.5449 165.326 96.5879ZM171.194 101H172.213V94.9062H171.194V101ZM171.704 93.8809C172.055 93.8809 172.342 93.5938 172.342 93.248C172.342 92.8965 172.055 92.6152 171.704 92.6152C171.358 92.6152 171.071 92.8965 171.071 93.248C171.071 93.5938 171.358 93.8809 171.704 93.8809ZM175.72 100.238C174.988 100.238 174.501 99.8574 174.501 99.2773C174.501 98.7031 174.97 98.3398 175.79 98.2871L177.419 98.1875V98.6855C177.419 99.5645 176.681 100.238 175.72 100.238ZM175.492 101.105C176.312 101.105 177.085 100.648 177.449 99.9512H177.472V101H178.439V96.7871C178.439 95.5742 177.537 94.8008 176.107 94.8008C174.665 94.8008 173.763 95.6094 173.693 96.6641H174.677C174.806 96.0664 175.298 95.6973 176.083 95.6973C176.927 95.6973 177.419 96.1426 177.419 96.8867V97.3965L175.673 97.4961C174.267 97.5781 173.464 98.2344 173.464 99.2773C173.464 100.373 174.279 101.105 175.492 101.105Z" fill="#374151"/>
<rect y="122" width="73" height="26" rx="13" fill="#D6E4FF"/>
<path d="M17.875 139V135.338H21.6191V134.4H17.875V131.494H21.9531V130.545H16.8203V139H17.875ZM28.1259 132.906H27.1063V136.486C27.1063 137.523 26.5087 138.203 25.5184 138.203C24.5751 138.203 24.1122 137.67 24.1122 136.68V132.906H23.0927V136.861C23.0927 138.244 23.872 139.105 25.202 139.105C26.1395 139.105 26.7723 138.713 27.1356 138.01H27.1591V139H28.1259V132.906ZM29.6228 139H30.6423V130.545H29.6228V139ZM32.192 139H33.2116V130.545H32.192V139ZM35.0366 131.436V132.906H34.1284V133.744H35.0366V137.418C35.0366 138.59 35.4702 139.047 36.5894 139.047C36.8296 139.047 37.1109 139.029 37.2339 139V138.145C37.1636 138.156 36.9292 138.174 36.812 138.174C36.2905 138.174 36.0562 137.922 36.0562 137.365V133.744H37.2398V132.906H36.0562V131.436H35.0366ZM38.5023 139H39.5219V132.906H38.5023V139ZM39.0121 131.881C39.3637 131.881 39.6508 131.594 39.6508 131.248C39.6508 130.896 39.3637 130.615 39.0121 130.615C38.6664 130.615 38.3793 130.896 38.3793 131.248C38.3793 131.594 38.6664 131.881 39.0121 131.881ZM41.0188 139H42.0384V135.18C42.0384 134.336 42.6243 133.703 43.4329 133.703C44.1887 133.703 44.6809 134.184 44.6809 134.916V139H45.7005V135.127C45.7005 134.301 46.2688 133.703 47.0774 133.703C47.8802 133.703 48.343 134.195 48.343 135.027V139H49.3626V134.793C49.3626 133.586 48.5833 132.801 47.3762 132.801C46.5208 132.801 45.8059 133.234 45.4661 133.961H45.4427C45.179 133.223 44.5637 132.801 43.7317 132.801C42.9114 132.801 42.2903 133.234 42.0032 133.879H41.9798V132.906H41.0188V139ZM53.2267 133.686C54.1877 133.686 54.8263 134.412 54.8498 135.432H51.5392C51.6037 134.418 52.2716 133.686 53.2267 133.686ZM54.8263 137.254C54.6564 137.828 54.088 138.221 53.3146 138.221C52.2189 138.221 51.5334 137.453 51.5334 136.287V136.229H55.9045V135.842C55.9045 133.996 54.8908 132.801 53.2443 132.801C51.5627 132.801 50.4845 134.084 50.4845 135.977C50.4845 137.893 51.5451 139.105 53.2912 139.105C54.6213 139.105 55.6525 138.32 55.8283 137.254H54.8263Z" fill="#3366FF"/>
<rect x="81" y="122" width="66" height="26" rx="13" fill="#D6E4FF"/>
<path d="M101.389 130.404C98.9922 130.404 97.4922 132.092 97.4922 134.775C97.4922 137.459 98.9922 139.141 101.389 139.141C103.785 139.141 105.285 137.459 105.285 134.775C105.285 132.092 103.785 130.404 101.389 130.404ZM101.389 131.377C103.117 131.377 104.201 132.689 104.201 134.775C104.201 136.855 103.117 138.168 101.389 138.168C99.6602 138.168 98.5762 136.855 98.5762 134.775C98.5762 132.689 99.6602 131.377 101.389 131.377ZM106.559 139H107.579V135.414C107.579 134.383 108.206 133.703 109.167 133.703C110.104 133.703 110.567 134.242 110.567 135.227V139H111.587V135.045C111.587 133.662 110.813 132.801 109.477 132.801C108.534 132.801 107.884 133.223 107.544 133.879H107.52V132.906H106.559V139ZM112.902 134.588C112.902 135.42 113.429 135.971 114.502 136.246L115.574 136.521C116.26 136.703 116.511 136.938 116.511 137.371C116.511 137.922 116.002 138.273 115.176 138.273C114.349 138.273 113.869 137.934 113.758 137.301H112.738C112.844 138.379 113.775 139.105 115.111 139.105C116.535 139.105 117.537 138.355 117.537 137.295C117.537 136.398 117.092 135.953 115.861 135.643L114.918 135.414C114.226 135.238 113.904 134.957 113.904 134.535C113.904 134.002 114.396 133.633 115.14 133.633C115.89 133.633 116.365 133.996 116.435 134.582H117.408C117.361 133.551 116.435 132.801 115.176 132.801C113.834 132.801 112.902 133.545 112.902 134.588ZM118.77 139H119.79V132.906H118.77V139ZM119.28 131.881C119.631 131.881 119.919 131.594 119.919 131.248C119.919 130.896 119.631 130.615 119.28 130.615C118.934 130.615 118.647 130.896 118.647 131.248C118.647 131.594 118.934 131.881 119.28 131.881ZM121.615 131.436V132.906H120.707V133.744H121.615V137.418C121.615 138.59 122.048 139.047 123.167 139.047C123.408 139.047 123.689 139.029 123.812 139V138.145C123.742 138.156 123.507 138.174 123.39 138.174C122.869 138.174 122.634 137.922 122.634 137.365V133.744H123.818V132.906H122.634V131.436H121.615ZM127.295 133.686C128.256 133.686 128.895 134.412 128.918 135.432H125.608C125.672 134.418 126.34 133.686 127.295 133.686ZM128.895 137.254C128.725 137.828 128.157 138.221 127.383 138.221C126.288 138.221 125.602 137.453 125.602 136.287V136.229H129.973V135.842C129.973 133.996 128.959 132.801 127.313 132.801C125.631 132.801 124.553 134.084 124.553 135.977C124.553 137.893 125.614 139.105 127.36 139.105C128.69 139.105 129.721 138.32 129.897 137.254H128.895Z" fill="#3366FF"/>
<rect x="155" y="122" width="65" height="26" rx="13" fill="#D6E4FF"/>
<path d="M171.416 136.674C171.516 138.168 172.758 139.141 174.551 139.141C176.496 139.141 177.715 138.174 177.715 136.627C177.715 135.414 177.006 134.74 175.254 134.301L174.369 134.066C173.221 133.768 172.752 133.387 172.752 132.748C172.752 131.922 173.514 131.354 174.609 131.354C175.711 131.354 176.443 131.91 176.537 132.818H177.592C177.545 131.4 176.326 130.404 174.645 130.404C172.887 130.404 171.656 131.389 171.656 132.795C171.656 133.943 172.348 134.629 173.906 135.027L174.99 135.309C176.127 135.602 176.625 136.041 176.625 136.756C176.625 137.588 175.793 138.191 174.65 138.191C173.443 138.191 172.576 137.588 172.477 136.674H171.416ZM181.35 133.686C182.311 133.686 182.95 134.412 182.974 135.432H179.663C179.727 134.418 180.395 133.686 181.35 133.686ZM182.95 137.254C182.78 137.828 182.212 138.221 181.438 138.221C180.343 138.221 179.657 137.453 179.657 136.287V136.229H184.028V135.842C184.028 133.996 183.015 132.801 181.368 132.801C179.686 132.801 178.608 134.084 178.608 135.977C178.608 137.893 179.669 139.105 181.415 139.105C182.745 139.105 183.776 138.32 183.952 137.254H182.95ZM185.179 139H186.199V135.414C186.199 134.383 186.826 133.703 187.787 133.703C188.724 133.703 189.187 134.242 189.187 135.227V139H190.207V135.045C190.207 133.662 189.433 132.801 188.097 132.801C187.154 132.801 186.504 133.223 186.164 133.879H186.14V132.906H185.179V139ZM191.68 139H192.7V132.906H191.68V139ZM192.19 131.881C192.542 131.881 192.829 131.594 192.829 131.248C192.829 130.896 192.542 130.615 192.19 130.615C191.844 130.615 191.557 130.896 191.557 131.248C191.557 131.594 191.844 131.881 192.19 131.881ZM196.722 139.105C198.404 139.105 199.541 137.893 199.541 135.953C199.541 134.008 198.404 132.801 196.722 132.801C195.035 132.801 193.898 134.008 193.898 135.953C193.898 137.893 195.035 139.105 196.722 139.105ZM196.722 138.209C195.644 138.209 194.935 137.389 194.935 135.953C194.935 134.518 195.644 133.697 196.722 133.697C197.8 133.697 198.503 134.518 198.503 135.953C198.503 137.389 197.8 138.209 196.722 138.209ZM200.692 139H201.711V135.203C201.711 134.342 202.227 133.773 203.018 133.773C203.264 133.773 203.481 133.803 203.563 133.832V132.842C203.481 132.83 203.329 132.801 203.153 132.801C202.438 132.801 201.875 133.229 201.676 133.902H201.653V132.906H200.692V139Z" fill="#3366FF"/>
</svg>
