<svg width="35" height="183" viewBox="0 0 35 183" fill="none" xmlns="http://www.w3.org/2000/svg">
<rect width="300" height="183" rx="12" fill="#F4F4F5"/>
<rect x="16" y="20.5" width="40" height="40" rx="8" fill="white"/>
<path d="M25.4998 42.0002C24.1192 42.0002 23 43.1194 23 44.5C23 45.8806 24.1193 46.9998 25.4999 46.9998C26.8806 46.9998 28 45.8805 28 44.4998V42.0002H25.4998ZM32.5 42.0002C31.1193 42.0002 30 43.1195 30 44.5002V51.4998C30 52.8805 31.1193 53.9998 32.5 53.9998C33.8807 53.9998 35 52.8805 35 51.4998V44.5002C35 43.1195 33.8807 42.0002 32.5 42.0002Z" fill="#E01E5A"/>
<path d="M34.9998 30.4998C34.9998 29.1192 33.8806 28 32.5 28C31.1194 28 30.0002 29.1193 30.0002 30.4999C30.0002 31.8806 31.1195 33 32.5002 33L34.9998 33L34.9998 30.4998ZM34.9998 37.5C34.9998 36.1193 33.8805 35 32.4998 35L25.5002 35C24.1195 35 23.0002 36.1193 23.0002 37.5C23.0002 38.8807 24.1195 40 25.5002 40L32.4998 40C33.8805 40 34.9998 38.8807 34.9998 37.5Z" fill="#36C5F0"/>
<rect x="16" y="83" width="87" height="30" rx="15" fill="#D6E4FF"/>
<path d="M22.9043 157.338V156.039C25.7656 155.805 27.416 154.311 27.416 151.938C27.416 149.906 26.2344 148.686 23.8125 148.08L22.9043 147.875V143.51C24.2031 143.676 25.0918 144.545 25.1309 145.648H27.1719C27.1133 143.49 25.4531 141.947 22.9043 141.732V140.375H21.5664V141.732C18.9199 141.977 17.3086 143.461 17.3086 145.688C17.3086 147.582 18.5098 148.891 20.6973 149.438L21.5664 149.662V154.281C20.0918 154.115 19.1543 153.285 19.0566 152.084H16.9863C16.9961 154.34 18.7832 155.863 21.5664 156.049V157.338H22.9043ZM25.3457 152.133C25.3457 153.422 24.457 154.223 22.9043 154.311V149.916C24.584 150.268 25.3457 150.971 25.3457 152.133ZM19.3984 145.541C19.3984 144.418 20.3164 143.578 21.5664 143.51V147.592C20.1602 147.299 19.3984 146.596 19.3984 145.541ZM33.2605 156H35.3992V141.908H33.241L29.5301 144.545V146.693L33.2117 144.076H33.2605V156ZM38.9195 146.039V146.059H40.9898V146.029C40.9898 144.564 42.152 143.451 43.6949 143.451C45.1598 143.451 46.2926 144.447 46.2926 145.697C46.2926 146.801 45.8434 147.543 44.1246 149.33L39.0367 154.516V156H48.6754V154.154H41.9859V154.105L45.5113 150.561C47.5719 148.451 48.4508 147.23 48.4508 145.59C48.4508 143.354 46.4488 141.645 43.7633 141.645C40.9605 141.645 38.9195 143.5 38.9195 146.039ZM53.2113 156V151.303L54.6566 149.652L59.5395 156H62.2543L56.1996 148.148L61.7855 141.908H59.1879L53.2992 148.617H53.2113V141.908H51.0238V156H53.2113ZM74.3633 151.234V149.33H67.957V151.234H74.3633ZM84.6168 156H86.7555V141.908H84.5973L80.8863 144.545V146.693L84.568 144.076H84.6168V156ZM95.4418 156.264C98.4789 156.264 100.608 154.262 100.608 151.371C100.608 148.637 98.6645 146.654 95.9594 146.654C94.5824 146.654 93.4301 147.191 92.8148 148.08H92.766L93.1566 143.754H99.7875V141.908H91.3988L90.6566 149.877H92.6586C93.2055 148.949 94.2602 148.393 95.4809 148.393C97.2387 148.393 98.4691 149.662 98.4691 151.43C98.4691 153.197 97.2387 154.438 95.4613 154.438C93.8891 154.438 92.6879 153.48 92.5316 152.084H90.4418C90.5687 154.545 92.6293 156.264 95.4418 156.264ZM104.978 156V151.303L106.423 149.652L111.306 156H114.021L107.966 148.148L113.552 141.908H110.954L105.066 148.617H104.978V141.908H102.79V156H104.978Z" fill="#111827"/>
<path d="M115.453 157.805L118.453 147.545H117.328L114.328 157.805H115.453ZM127.931 156V147.545H126.407L123.677 154.219H123.63L120.893 147.545H119.376V156H120.571V149.777H120.612L123.167 155.936H124.14L126.688 149.777H126.729V156H127.931ZM132.105 156.117C133.869 156.117 135.029 154.904 135.029 152.918C135.029 150.938 133.863 149.725 132.105 149.725C130.347 149.725 129.181 150.938 129.181 152.918C129.181 154.904 130.342 156.117 132.105 156.117ZM132.105 155.074C131.115 155.074 130.47 154.289 130.47 152.918C130.47 151.553 131.115 150.768 132.105 150.768C133.095 150.768 133.74 151.553 133.74 152.918C133.74 154.289 133.101 155.074 132.105 155.074ZM136.128 156H137.393V152.408C137.393 151.453 137.967 150.82 138.858 150.82C139.737 150.82 140.171 151.33 140.171 152.256V156H141.442V152.01C141.442 150.598 140.663 149.73 139.303 149.73C138.354 149.73 137.698 150.164 137.364 150.867H137.335V149.836H136.128V156ZM143.156 148.377V149.836H142.259V150.838H143.156V154.377C143.156 155.566 143.642 156.041 144.89 156.041C145.171 156.041 145.453 156.018 145.593 155.982V154.98C145.511 154.998 145.306 155.01 145.177 155.01C144.662 155.01 144.427 154.77 144.427 154.236V150.838H145.599V149.836H144.427V148.377H143.156ZM146.809 156H148.075V152.438C148.075 151.465 148.649 150.82 149.586 150.82C150.477 150.82 150.934 151.365 150.934 152.273V156H152.205V152.027C152.205 150.633 151.397 149.73 150.043 149.73C149.106 149.73 148.432 150.146 148.092 150.867H148.063V147.545H146.809V156Z" fill="#6B7280"/>
</svg>
