<svg width="303" height="45" viewBox="0 0 303 45" fill="none" xmlns="http://www.w3.org/2000/svg">
<rect y="2.5" width="40" height="40" rx="8" fill="url(#paint0_linear_106_1449)"/>
<path d="M6 18.6C6 15.2397 6 13.5595 6.65396 12.2761C7.2292 11.1471 8.14708 10.2292 9.27606 9.65396C10.5595 9 12.2397 9 15.6 9H24.4C27.7603 9 29.4405 9 30.7239 9.65396C31.8529 10.2292 32.7708 11.1471 33.346 12.2761C34 13.5595 34 15.2397 34 18.6V27.4C34 30.7603 34 32.4405 33.346 33.7239C32.7708 34.8529 31.8529 35.7708 30.7239 36.346C29.4405 37 27.7603 37 24.4 37H15.6C12.2397 37 10.5595 37 9.27606 36.346C8.14708 35.7708 7.2292 34.8529 6.65396 33.7239C6 32.4405 6 30.7603 6 27.4V18.6Z" fill="url(#paint1_linear_106_1449)"/>
<path fill-rule="evenodd" clip-rule="evenodd" d="M13.2451 17.68C13.2451 16.8875 13.8876 16.245 14.6801 16.245C21.3103 16.245 26.6851 21.6198 26.6851 28.25C26.6851 29.0619 26.027 29.72 25.2151 29.72H21.5051C20.6933 29.72 20.0351 29.0619 20.0351 28.25C20.0351 25.2925 17.6376 22.895 14.6801 22.895C13.8876 22.895 13.2451 22.2525 13.2451 21.46V17.68Z" fill="white"/>
<path d="M59.1377 5.31738H57.1689V13.5439C57.1689 16.2773 59.1201 18.2109 62.3018 18.2109C65.4834 18.2109 67.4346 16.2773 67.4346 13.5439V5.31738H65.4746V13.377C65.4746 15.1875 64.3232 16.4619 62.3018 16.4619C60.2803 16.4619 59.1377 15.1875 59.1377 13.377V5.31738ZM71.9212 18V5.31738H69.9525V18H71.9212ZM74.9577 20.707L79.4577 5.31738H77.7702L73.2702 20.707H74.9577ZM82.8281 5.31738H80.8593V13.5439C80.8593 16.2773 82.8105 18.2109 85.9921 18.2109C89.1738 18.2109 91.125 16.2773 91.125 13.5439V5.31738H89.165V13.377C89.165 15.1875 88.0136 16.4619 85.9921 16.4619C83.9707 16.4619 82.8281 15.1875 82.8281 13.377V5.31738ZM92.8606 18H95.0403L98.2395 13.166H98.3011L101.456 18H103.759L99.5403 11.707V11.6543L103.838 5.31738H101.615L98.4505 10.2217H98.3802L95.2513 5.31738H92.9046L97.0706 11.584V11.6455L92.8606 18ZM109.419 5.31738V18H113.893C117.672 18 119.895 15.6445 119.895 11.6367C119.895 7.6377 117.663 5.31738 113.893 5.31738H109.419ZM111.388 7.01367H113.708C116.389 7.01367 117.883 8.66602 117.883 11.6543C117.883 14.6514 116.397 16.2949 113.708 16.2949H111.388V7.01367ZM125.595 10.1162C126.922 10.1162 127.819 11.1094 127.863 12.5244H123.239C123.336 11.127 124.268 10.1162 125.595 10.1162ZM127.854 15.2842C127.599 16.0928 126.799 16.6377 125.718 16.6377C124.198 16.6377 123.231 15.5742 123.231 13.9658V13.8516H129.761V13.2012C129.761 10.3975 128.161 8.58691 125.595 8.58691C122.985 8.58691 121.315 10.5205 121.315 13.4209C121.315 16.3389 122.958 18.1758 125.674 18.1758C127.792 18.1758 129.392 16.9717 129.656 15.2842H127.854ZM131.251 11.373C131.251 12.665 132.094 13.5352 133.764 13.9395L135.417 14.3438C136.383 14.5898 136.735 14.915 136.735 15.5039C136.735 16.251 136.032 16.7256 134.889 16.7256C133.729 16.7256 133.044 16.2334 132.894 15.3457H131.013C131.163 17.042 132.613 18.1758 134.801 18.1758C137.069 18.1758 138.642 17.0156 138.642 15.3281C138.642 13.9658 137.939 13.2627 136.076 12.8145L134.52 12.4541C133.562 12.2168 133.105 11.8301 133.105 11.2588C133.105 10.5293 133.791 10.0283 134.819 10.0283C135.882 10.0283 136.559 10.5469 136.647 11.3818H138.431C138.37 9.73828 136.928 8.58691 134.872 8.58691C132.71 8.58691 131.251 9.7207 131.251 11.373ZM140.36 18H142.259V8.75391H140.36V18ZM141.309 7.40039C141.925 7.40039 142.417 6.91699 142.417 6.31934C142.417 5.71289 141.925 5.22949 141.309 5.22949C140.703 5.22949 140.211 5.71289 140.211 6.31934C140.211 6.91699 140.703 7.40039 141.309 7.40039ZM148.319 16.4619C146.86 16.4619 145.91 15.2842 145.91 13.3506C145.91 11.4258 146.86 10.2041 148.319 10.2041C149.804 10.2041 150.779 11.4521 150.779 13.3506C150.779 15.2578 149.804 16.4619 148.319 16.4619ZM148.336 21.4805C150.973 21.4805 152.678 20.0391 152.678 17.833V8.75391H150.832V10.3359H150.797C150.235 9.26367 149.162 8.60449 147.853 8.60449C145.48 8.60449 143.968 10.4326 143.968 13.3418C143.968 16.2246 145.488 18.0352 147.809 18.0352C149.127 18.0352 150.217 17.376 150.736 16.374H150.771V17.8945C150.771 19.1602 149.892 20.0039 148.406 20.0039C147.325 20.0039 146.482 19.4941 146.209 18.7207H144.302C144.539 20.3203 146.156 21.4805 148.336 21.4805ZM154.739 18H156.637V12.6123C156.637 11.1797 157.499 10.2305 158.834 10.2305C160.153 10.2305 160.803 10.9951 160.803 12.3838V18H162.71V12.0146C162.71 9.89648 161.542 8.5957 159.502 8.5957C158.079 8.5957 157.094 9.24609 156.593 10.3008H156.549V8.75391H154.739V18ZM168.595 10.1162C169.922 10.1162 170.818 11.1094 170.862 12.5244H166.239C166.336 11.127 167.267 10.1162 168.595 10.1162ZM170.853 15.2842C170.598 16.0928 169.799 16.6377 168.718 16.6377C167.197 16.6377 166.23 15.5742 166.23 13.9658V13.8516H172.761V13.2012C172.761 10.3975 171.161 8.58691 168.595 8.58691C165.984 8.58691 164.314 10.5205 164.314 13.4209C164.314 16.3389 165.958 18.1758 168.674 18.1758C170.792 18.1758 172.391 16.9717 172.655 15.2842H170.853ZM174.417 18H176.316V12.4629C176.316 11.1533 177.071 10.3359 178.293 10.3359C178.662 10.3359 178.996 10.3799 179.146 10.4414V8.6748C179.005 8.64844 178.768 8.60449 178.495 8.60449C177.405 8.60449 176.579 9.24609 176.272 10.3271H176.228V8.75391H174.417V18Z" fill="#111827"/>
<path d="M56.416 37.6738C56.5156 39.168 57.7578 40.1406 59.5508 40.1406C61.4961 40.1406 62.7148 39.1738 62.7148 37.627C62.7148 36.4141 62.0059 35.7402 60.2539 35.3008L59.3691 35.0664C58.2207 34.7676 57.752 34.3867 57.752 33.748C57.752 32.9219 58.5137 32.3535 59.6094 32.3535C60.7109 32.3535 61.4434 32.9102 61.5371 33.8184H62.5918C62.5449 32.4004 61.3262 31.4043 59.6445 31.4043C57.8867 31.4043 56.6562 32.3887 56.6562 33.7949C56.6562 34.9434 57.3477 35.6289 58.9062 36.0273L59.9902 36.3086C61.127 36.6016 61.625 37.041 61.625 37.7559C61.625 38.5879 60.793 39.1914 59.6504 39.1914C58.4434 39.1914 57.5762 38.5879 57.4766 37.6738H56.416ZM66.8661 33.8008C65.9813 33.8008 65.2723 34.252 64.8973 34.9375H64.8739V33.9062H63.9071V42.0332H64.9266V39.0098H64.9501C65.3134 39.6777 66.0165 40.1055 66.8895 40.1055C68.4247 40.1055 69.4735 38.8633 69.4735 36.9531C69.4735 35.043 68.4188 33.8008 66.8661 33.8008ZM66.6669 39.209C65.6239 39.209 64.9208 38.3125 64.9208 36.9531C64.9208 35.5996 65.6239 34.6973 66.6669 34.6973C67.7509 34.6973 68.4305 35.5762 68.4305 36.9531C68.4305 38.3359 67.7509 39.209 66.6669 39.209ZM73.0681 34.6855C74.0291 34.6855 74.6677 35.4121 74.6912 36.4316H71.3806C71.4451 35.418 72.113 34.6855 73.0681 34.6855ZM74.6677 38.2539C74.4978 38.8281 73.9295 39.2207 73.156 39.2207C72.0603 39.2207 71.3748 38.4531 71.3748 37.2871V37.2285H75.7459V36.8418C75.7459 34.9961 74.7322 33.8008 73.0857 33.8008C71.4041 33.8008 70.3259 35.084 70.3259 36.9766C70.3259 38.8926 71.3865 40.1055 73.1326 40.1055C74.4627 40.1055 75.4939 39.3203 75.6697 38.2539H74.6677ZM81.9596 35.9043C81.8307 34.8086 80.9225 33.8008 79.3991 33.8008C77.7174 33.8008 76.5983 35.0312 76.5983 36.9531C76.5983 38.916 77.7233 40.1055 79.4108 40.1055C80.7936 40.1055 81.8131 39.25 81.9713 38.0371H80.9694C80.7936 38.7695 80.2487 39.209 79.4166 39.209C78.362 39.209 77.6354 38.3711 77.6354 36.9531C77.6354 35.5703 78.3502 34.6973 79.4049 34.6973C80.3014 34.6973 80.817 35.2422 80.9635 35.9043H81.9596ZM83.357 32.4355V33.9062H82.4487V34.7441H83.357V38.418C83.357 39.5898 83.7905 40.0469 84.9097 40.0469C85.1499 40.0469 85.4312 40.0293 85.5542 40V39.1445C85.4839 39.1562 85.2495 39.1738 85.1323 39.1738C84.6109 39.1738 84.3765 38.9219 84.3765 38.3652V34.7441H85.5601V33.9062H84.3765V32.4355H83.357ZM86.7699 40H87.7895V36.2031C87.7895 35.3418 88.3051 34.7734 89.0961 34.7734C89.3422 34.7734 89.559 34.8027 89.641 34.832V33.8418C89.559 33.8301 89.4066 33.8008 89.2309 33.8008C88.516 33.8008 87.9535 34.2285 87.7543 34.9023H87.7309V33.9062H86.7699V40ZM95.597 33.9062H94.5774V37.4863C94.5774 38.5234 93.9798 39.2031 92.9895 39.2031C92.0462 39.2031 91.5833 38.6699 91.5833 37.6797V33.9062H90.5638V37.8613C90.5638 39.2441 91.343 40.1055 92.6731 40.1055C93.6106 40.1055 94.2434 39.7129 94.6067 39.0098H94.6302V40H95.597V33.9062ZM97.0412 40H98.0607V36.1797C98.0607 35.3359 98.6466 34.7031 99.4552 34.7031C100.211 34.7031 100.703 35.1836 100.703 35.916V40H101.723V36.127C101.723 35.3008 102.291 34.7031 103.1 34.7031C103.903 34.7031 104.365 35.1953 104.365 36.0273V40H105.385V35.793C105.385 34.5859 104.606 33.8008 103.399 33.8008C102.543 33.8008 101.828 34.2344 101.488 34.9609H101.465C101.201 34.2227 100.586 33.8008 99.7541 33.8008C98.9338 33.8008 98.3127 34.2344 98.0255 34.8789H98.0021V33.9062H97.0412V40ZM111.619 38.5059C112.598 38.5059 113.4 37.7031 113.4 36.7246C113.4 35.7461 112.598 34.9434 111.619 34.9434C110.641 34.9434 109.838 35.7461 109.838 36.7246C109.838 37.7031 110.641 38.5059 111.619 38.5059ZM117.461 38.0137C117.461 39.2969 118.445 40.1992 119.851 40.1992C121.41 40.1992 122.336 39.25 122.336 37.6445V31.5449H121.281V37.6387C121.281 38.6699 120.777 39.2266 119.845 39.2266C119.078 39.2266 118.533 38.7285 118.509 38.0137H117.461ZM125.948 39.2383C125.215 39.2383 124.729 38.8574 124.729 38.2773C124.729 37.7031 125.198 37.3398 126.018 37.2871L127.647 37.1875V37.6855C127.647 38.5645 126.909 39.2383 125.948 39.2383ZM125.719 40.1055C126.54 40.1055 127.313 39.6484 127.676 38.9512H127.7V40H128.667V35.7871C128.667 34.5742 127.764 33.8008 126.335 33.8008C124.893 33.8008 123.991 34.6094 123.92 35.6641H124.905C125.034 35.0664 125.526 34.6973 126.311 34.6973C127.155 34.6973 127.647 35.1426 127.647 35.8867V36.3965L125.901 36.4961C124.495 36.5781 123.692 37.2344 123.692 38.2773C123.692 39.373 124.506 40.1055 125.719 40.1055ZM131.154 36.6133V31.5449H130.134V40H131.154V37.7031L131.722 37.1641L133.984 40H135.167L132.443 36.5371L135.085 33.9062H133.849L131.154 36.6133ZM138.035 39.2383C137.303 39.2383 136.817 38.8574 136.817 38.2773C136.817 37.7031 137.285 37.3398 138.106 37.2871L139.735 37.1875V37.6855C139.735 38.5645 138.996 39.2383 138.035 39.2383ZM137.807 40.1055C138.627 40.1055 139.401 39.6484 139.764 38.9512H139.787V40H140.754V35.7871C140.754 34.5742 139.852 33.8008 138.422 33.8008C136.981 33.8008 136.078 34.6094 136.008 35.6641H136.993C137.121 35.0664 137.614 34.6973 138.399 34.6973C139.243 34.6973 139.735 35.1426 139.735 35.8867V36.3965L137.989 36.4961C136.582 36.5781 135.78 37.2344 135.78 38.2773C135.78 39.373 136.594 40.1055 137.807 40.1055ZM142.169 40H143.189V36.2031C143.189 35.3418 143.704 34.7734 144.495 34.7734C144.741 34.7734 144.958 34.8027 145.04 34.832V33.8418C144.958 33.8301 144.806 33.8008 144.63 33.8008C143.915 33.8008 143.353 34.2285 143.154 34.9023H143.13V33.9062H142.169V40ZM146.32 32.4355V33.9062H145.412V34.7441H146.32V38.418C146.32 39.5898 146.754 40.0469 147.873 40.0469C148.113 40.0469 148.395 40.0293 148.518 40V39.1445C148.447 39.1562 148.213 39.1738 148.096 39.1738C147.574 39.1738 147.34 38.9219 147.34 38.3652V34.7441H148.524V33.9062H147.34V32.4355H146.32ZM151.626 39.2383C150.894 39.2383 150.407 38.8574 150.407 38.2773C150.407 37.7031 150.876 37.3398 151.696 37.2871L153.325 37.1875V37.6855C153.325 38.5645 152.587 39.2383 151.626 39.2383ZM151.397 40.1055C152.218 40.1055 152.991 39.6484 153.354 38.9512H153.378V40H154.345V35.7871C154.345 34.5742 153.442 33.8008 152.013 33.8008C150.571 33.8008 149.669 34.6094 149.599 35.6641H150.583C150.712 35.0664 151.204 34.6973 151.989 34.6973C152.833 34.6973 153.325 35.1426 153.325 35.8867V36.3965L151.579 36.4961C150.173 36.5781 149.37 37.2344 149.37 38.2773C149.37 39.373 150.185 40.1055 151.397 40.1055ZM156.457 41.6816L157.26 38.6992H156.176L155.607 41.6816H156.457ZM162.134 40V31.5449H161.08V40H162.134ZM163.737 40H164.756V36.4141C164.756 35.3828 165.383 34.7031 166.344 34.7031C167.282 34.7031 167.745 35.2422 167.745 36.2266V40H168.764V36.0449C168.764 34.6621 167.991 33.8008 166.655 33.8008C165.711 33.8008 165.061 34.2227 164.721 34.8789H164.698V33.9062H163.737V40ZM172.494 40.1055C173.372 40.1055 174.07 39.6719 174.462 38.9688H174.48V40H175.452V31.5449H174.433V34.8965H174.41C174.046 34.2285 173.343 33.8008 172.47 33.8008C170.935 33.8008 169.886 35.043 169.886 36.9531C169.886 38.8633 170.941 40.1055 172.494 40.1055ZM172.687 34.6973C173.736 34.6973 174.439 35.5938 174.439 36.9531C174.439 38.3184 173.736 39.209 172.687 39.209C171.609 39.209 170.929 38.3359 170.929 36.9531C170.929 35.5762 171.609 34.6973 172.687 34.6973ZM179.475 40.1055C181.156 40.1055 182.293 38.8926 182.293 36.9531C182.293 35.0078 181.156 33.8008 179.475 33.8008C177.787 33.8008 176.651 35.0078 176.651 36.9531C176.651 38.8926 177.787 40.1055 179.475 40.1055ZM179.475 39.209C178.397 39.209 177.688 38.3887 177.688 36.9531C177.688 35.5176 178.397 34.6973 179.475 34.6973C180.553 34.6973 181.256 35.5176 181.256 36.9531C181.256 38.3887 180.553 39.209 179.475 39.209ZM183.444 40H184.464V36.4141C184.464 35.3828 185.091 34.7031 186.052 34.7031C186.989 34.7031 187.452 35.2422 187.452 36.2266V40H188.472V36.0449C188.472 34.6621 187.698 33.8008 186.362 33.8008C185.419 33.8008 184.769 34.2227 184.429 34.8789H184.405V33.9062H183.444V40ZM192.336 34.6855C193.297 34.6855 193.936 35.4121 193.959 36.4316H190.648C190.713 35.418 191.381 34.6855 192.336 34.6855ZM193.936 38.2539C193.766 38.8281 193.197 39.2207 192.424 39.2207C191.328 39.2207 190.643 38.4531 190.643 37.2871V37.2285H195.014V36.8418C195.014 34.9961 194 33.8008 192.354 33.8008C190.672 33.8008 189.594 35.084 189.594 36.9766C189.594 38.8926 190.654 40.1055 192.4 40.1055C193.73 40.1055 194.762 39.3203 194.938 38.2539H193.936ZM196.059 35.5879C196.059 36.4199 196.587 36.9707 197.659 37.2461L198.731 37.5215C199.417 37.7031 199.669 37.9375 199.669 38.3711C199.669 38.9219 199.159 39.2734 198.333 39.2734C197.507 39.2734 197.026 38.9336 196.915 38.3008H195.895C196.001 39.3789 196.932 40.1055 198.268 40.1055C199.692 40.1055 200.694 39.3555 200.694 38.2949C200.694 37.3984 200.249 36.9531 199.018 36.6426L198.075 36.4141C197.384 36.2383 197.061 35.957 197.061 35.5352C197.061 35.002 197.554 34.6328 198.298 34.6328C199.048 34.6328 199.522 34.9961 199.593 35.582H200.565C200.518 34.5508 199.593 33.8008 198.333 33.8008C196.991 33.8008 196.059 34.5449 196.059 35.5879ZM201.928 40H202.947V33.9062H201.928V40ZM202.437 32.8809C202.789 32.8809 203.076 32.5938 203.076 32.248C203.076 31.8965 202.789 31.6152 202.437 31.6152C202.092 31.6152 201.804 31.8965 201.804 32.248C201.804 32.5938 202.092 32.8809 202.437 32.8809ZM206.454 39.2383C205.721 39.2383 205.235 38.8574 205.235 38.2773C205.235 37.7031 205.704 37.3398 206.524 37.2871L208.153 37.1875V37.6855C208.153 38.5645 207.415 39.2383 206.454 39.2383ZM206.225 40.1055C207.046 40.1055 207.819 39.6484 208.182 38.9512H208.206V40H209.173V35.7871C209.173 34.5742 208.27 33.8008 206.84 33.8008C205.399 33.8008 204.497 34.6094 204.426 35.6641H205.411C205.54 35.0664 206.032 34.6973 206.817 34.6973C207.661 34.6973 208.153 35.1426 208.153 35.8867V36.3965L206.407 36.4961C205.001 36.5781 204.198 37.2344 204.198 38.2773C204.198 39.373 205.012 40.1055 206.225 40.1055Z" fill="#374151"/>
<defs>
<linearGradient id="paint0_linear_106_1449" x1="2.23517e-07" y1="3" x2="40" y2="43" gradientUnits="userSpaceOnUse">
<stop offset="0.0424777" stop-color="#793CF8"/>
<stop offset="0.933454" stop-color="#3D35DE"/>
</linearGradient>
<linearGradient id="paint1_linear_106_1449" x1="34" y1="37" x2="6" y2="9" gradientUnits="userSpaceOnUse">
<stop stop-color="#3D35DE"/>
<stop offset="0.265" stop-color="#5137E8"/>
<stop offset="1" stop-color="#793CF8"/>
</linearGradient>
</defs>
</svg>
