<svg width="327" height="49" viewBox="0 0 327 49" fill="none" xmlns="http://www.w3.org/2000/svg">
<mask id="path-1-inside-1_233_5264" fill="white">
<path d="M0 0H327V49H0V0Z"/>
</mask>
<path d="M0 0H327V49H0V0Z" fill="white"/>
<path d="M5.35156 30V19.9922H8.90625V18.7266H0.390625V19.9922H3.94531V30H5.35156ZM11.4881 22.9141C12.7694 22.9141 13.6209 23.8828 13.6522 25.2422H9.23812C9.32406 23.8906 10.2147 22.9141 11.4881 22.9141ZM13.6209 27.6719C13.3944 28.4375 12.6366 28.9609 11.6053 28.9609C10.1444 28.9609 9.23031 27.9375 9.23031 26.3828V26.3047H15.0584V25.7891C15.0584 23.3281 13.7069 21.7344 11.5116 21.7344C9.26937 21.7344 7.83187 23.4453 7.83187 25.9688C7.83187 28.5234 9.24594 30.1406 11.5741 30.1406C13.3475 30.1406 14.7225 29.0938 14.9569 27.6719H13.6209ZM16.5934 30H17.9528V24.9375C17.9528 23.7891 18.6403 23.0312 19.695 23.0312C20.0231 23.0312 20.3122 23.0703 20.4216 23.1094V21.7891C20.3122 21.7734 20.1091 21.7344 19.8747 21.7344C18.9216 21.7344 18.1716 22.3047 17.9059 23.2031H17.8747V21.875H16.5934V30ZM21.6909 30H23.0503V24.9062C23.0503 23.7812 23.8316 22.9375 24.9097 22.9375C25.9175 22.9375 26.5737 23.5781 26.5737 24.5547V30H27.9331V24.8359C27.9331 23.7344 28.6909 22.9375 29.7691 22.9375C30.8394 22.9375 31.4566 23.5938 31.4566 24.7031V30H32.8159V24.3906C32.8159 22.7812 31.7769 21.7344 30.1675 21.7344C29.0269 21.7344 28.0737 22.3125 27.6206 23.2812H27.5894C27.2378 22.2969 26.4175 21.7344 25.3081 21.7344C24.2144 21.7344 23.3862 22.3125 23.0034 23.1719H22.9722V21.875H21.6909V30ZM34.5697 24.1172C34.5697 25.2266 35.2728 25.9609 36.7025 26.3281L38.1322 26.6953C39.0462 26.9375 39.3822 27.25 39.3822 27.8281C39.3822 28.5625 38.7025 29.0312 37.6009 29.0312C36.4994 29.0312 35.8587 28.5781 35.7103 27.7344H34.3509C34.4916 29.1719 35.7337 30.1406 37.515 30.1406C39.4134 30.1406 40.7494 29.1406 40.7494 27.7266C40.7494 26.5312 40.1556 25.9375 38.515 25.5234L37.2572 25.2188C36.3353 24.9844 35.9056 24.6094 35.9056 24.0469C35.9056 23.3359 36.5619 22.8438 37.5541 22.8438C38.5541 22.8438 39.1869 23.3281 39.2806 24.1094H40.5775C40.515 22.7344 39.2806 21.7344 37.6009 21.7344C35.8119 21.7344 34.5697 22.7266 34.5697 24.1172ZM53.9522 30H55.7178L53.7412 27.8984C54.3584 26.9297 54.6709 25.6797 54.6709 23.9609V23.6172H53.3741V23.9531C53.3741 25.3438 53.2022 26.2656 52.835 26.9531L50.0459 23.9453C51.7647 23.0391 52.46 22.2031 52.46 21.0547C52.46 19.5938 51.2647 18.5391 49.6084 18.5391C47.9834 18.5391 46.7647 19.6094 46.7647 21.0391C46.7647 21.8594 47.1553 22.5859 48.1631 23.6562C48.1006 23.6797 47.96 23.7578 47.7334 23.875C46.2412 24.6641 45.5225 25.6797 45.5225 27C45.5225 28.875 47.0772 30.1875 49.3037 30.1875C50.6397 30.1875 51.9522 29.7109 52.9053 28.8672L53.9522 30ZM48.5381 24.6953C48.6084 24.6484 48.8116 24.5391 48.9131 24.4922L52.085 27.9688C51.4834 28.6094 50.4366 29.0156 49.4287 29.0156C47.9287 29.0156 46.9131 28.1641 46.9131 26.9062C46.9131 26.0391 47.3741 25.4062 48.5381 24.6953ZM49.2959 23.1562C48.4209 22.2812 48.0928 21.7344 48.0928 21.1172C48.0928 20.2578 48.7256 19.6406 49.6162 19.6406C50.5303 19.6406 51.1475 20.2422 51.1475 21.1016C51.1475 21.9062 50.6475 22.4688 49.2959 23.1562ZM64.9206 30.1875C67.4128 30.1875 69.0847 28.9453 69.6003 26.7188H68.1784C67.7722 28.0938 66.5847 28.8906 64.9284 28.8906C62.7019 28.8906 61.2878 27.125 61.2878 24.3594C61.2878 21.6172 62.7175 19.8359 64.9206 19.8359C66.53 19.8359 67.8191 20.8047 68.1784 22.2812H69.6003C69.2409 20.0312 67.3737 18.5391 64.9206 18.5391C61.8347 18.5391 59.8425 20.8203 59.8425 24.3594C59.8425 27.9297 61.8112 30.1875 64.9206 30.1875ZM74.5806 30.1406C76.8228 30.1406 78.3384 28.5234 78.3384 25.9375C78.3384 23.3438 76.8228 21.7344 74.5806 21.7344C72.3306 21.7344 70.815 23.3438 70.815 25.9375C70.815 28.5234 72.3306 30.1406 74.5806 30.1406ZM74.5806 28.9453C73.1431 28.9453 72.1978 27.8516 72.1978 25.9375C72.1978 24.0234 73.1431 22.9297 74.5806 22.9297C76.0181 22.9297 76.9556 24.0234 76.9556 25.9375C76.9556 27.8516 76.0181 28.9453 74.5806 28.9453ZM79.8734 30H81.2328V25.2188C81.2328 23.8438 82.0687 22.9375 83.35 22.9375C84.6 22.9375 85.2172 23.6562 85.2172 24.9688V30H86.5766V24.7266C86.5766 22.8828 85.5453 21.7344 83.7641 21.7344C82.5062 21.7344 81.6391 22.2969 81.1859 23.1719H81.1547V21.875H79.8734V30ZM91.5491 30.1406C92.7209 30.1406 93.6506 29.5625 94.1741 28.625H94.1975V30H95.4944V18.7266H94.135V23.1953H94.1038C93.6194 22.3047 92.6819 21.7344 91.5178 21.7344C89.4709 21.7344 88.0725 23.3906 88.0725 25.9375C88.0725 28.4844 89.4788 30.1406 91.5491 30.1406ZM91.8069 22.9297C93.2053 22.9297 94.1428 24.125 94.1428 25.9375C94.1428 27.7578 93.2053 28.9453 91.8069 28.9453C90.3694 28.9453 89.4631 27.7812 89.4631 25.9375C89.4631 24.1016 90.3694 22.9297 91.8069 22.9297ZM97.5606 30H98.92V21.875H97.5606V30ZM98.2403 20.5078C98.7091 20.5078 99.0919 20.125 99.0919 19.6641C99.0919 19.1953 98.7091 18.8203 98.2403 18.8203C97.7794 18.8203 97.3966 19.1953 97.3966 19.6641C97.3966 20.125 97.7794 20.5078 98.2403 20.5078ZM101.353 19.9141V21.875H100.143V22.9922H101.353V27.8906C101.353 29.4531 101.932 30.0625 103.424 30.0625C103.744 30.0625 104.119 30.0391 104.283 30V28.8594C104.189 28.875 103.877 28.8984 103.721 28.8984C103.025 28.8984 102.713 28.5625 102.713 27.8203V22.9922H104.291V21.875H102.713V19.9141H101.353ZM105.974 30H107.334V21.875H105.974V30ZM106.654 20.5078C107.123 20.5078 107.506 20.125 107.506 19.6641C107.506 19.1953 107.123 18.8203 106.654 18.8203C106.193 18.8203 105.81 19.1953 105.81 19.6641C105.81 20.125 106.193 20.5078 106.654 20.5078ZM112.697 30.1406C114.939 30.1406 116.455 28.5234 116.455 25.9375C116.455 23.3438 114.939 21.7344 112.697 21.7344C110.447 21.7344 108.931 23.3438 108.931 25.9375C108.931 28.5234 110.447 30.1406 112.697 30.1406ZM112.697 28.9453C111.259 28.9453 110.314 27.8516 110.314 25.9375C110.314 24.0234 111.259 22.9297 112.697 22.9297C114.134 22.9297 115.072 24.0234 115.072 25.9375C115.072 27.8516 114.134 28.9453 112.697 28.9453ZM117.99 30H119.349V25.2188C119.349 23.8438 120.185 22.9375 121.466 22.9375C122.716 22.9375 123.333 23.6562 123.333 24.9688V30H124.693V24.7266C124.693 22.8828 123.662 21.7344 121.88 21.7344C120.622 21.7344 119.755 22.2969 119.302 23.1719H119.271V21.875H117.99V30ZM126.447 24.1172C126.447 25.2266 127.15 25.9609 128.579 26.3281L130.009 26.6953C130.923 26.9375 131.259 27.25 131.259 27.8281C131.259 28.5625 130.579 29.0312 129.478 29.0312C128.376 29.0312 127.736 28.5781 127.587 27.7344H126.228C126.368 29.1719 127.611 30.1406 129.392 30.1406C131.29 30.1406 132.626 29.1406 132.626 27.7266C132.626 26.5312 132.033 25.9375 130.392 25.5234L129.134 25.2188C128.212 24.9844 127.783 24.6094 127.783 24.0469C127.783 23.3359 128.439 22.8438 129.431 22.8438C130.431 22.8438 131.064 23.3281 131.158 24.1094H132.454C132.392 22.7344 131.158 21.7344 129.478 21.7344C127.689 21.7344 126.447 22.7266 126.447 24.1172Z" fill="#111827"/>
<path d="M320.62 29.0467C320.493 29.0467 320.367 29 320.267 28.9C320.073 28.7067 320.073 28.3867 320.267 28.1934L323.96 24.5L320.267 20.8067C320.073 20.6134 320.073 20.2934 320.267 20.1C320.46 19.9067 320.78 19.9067 320.973 20.1L325.02 24.1467C325.213 24.34 325.213 24.66 325.02 24.8534L320.973 28.9C320.873 29 320.747 29.0467 320.62 29.0467Z" fill="#111827"/>
<path d="M324.553 25H313.333C313.06 25 312.833 24.7733 312.833 24.5C312.833 24.2267 313.06 24 313.333 24H324.553C324.827 24 325.053 24.2267 325.053 24.5C325.053 24.7733 324.827 25 324.553 25Z" fill="#111827"/>
<path d="M327 48H0V50H327V48Z" fill="#E5E7EB" mask="url(#path-1-inside-1_233_5264)"/>
</svg>
