<svg width="327" height="180" viewBox="0 0 327 180" fill="none" xmlns="http://www.w3.org/2000/svg">
<path d="M21.5 22.625V20.3281H12.2188V23.1562H18.0469V23.5469C18 26.9688 15.4688 29.3125 11.8125 29.3125C7.51562 29.3125 4.84375 25.9844 4.84375 20.5938C4.84375 15.2969 7.4375 12.1406 11.75 12.1406C14.6875 12.1406 16.8906 13.75 17.7344 16.5469H21.3281C20.5469 12.0469 16.75 9.07812 11.7344 9.07812C5.3125 9.07812 1.26562 13.5156 1.26562 20.625C1.26562 27.8594 5.32812 32.375 11.7812 32.375C17.8906 32.375 21.5 28.7344 21.5 22.625ZM31.3906 17.9844C33.75 17.9844 35.3438 19.75 35.4219 22.2656H27.2031C27.375 19.7812 29.0312 17.9844 31.3906 17.9844ZM35.4062 27.1719C34.9531 28.6094 33.5312 29.5781 31.6094 29.5781C28.9062 29.5781 27.1875 27.6875 27.1875 24.8281V24.625H38.7969V23.4688C38.7969 18.4844 35.9531 15.2656 31.3906 15.2656C26.75 15.2656 23.7812 18.7031 23.7812 23.8594C23.7812 29.0469 26.7031 32.3125 31.5312 32.3125C35.2969 32.3125 38.1406 30.1719 38.6094 27.1719H35.4062ZM42.4062 11.6719V15.5625H40.0156V18.2344H42.4062V27.6719C42.4062 30.8438 43.7031 32.1094 47.0312 32.1094C47.7812 32.1094 48.5312 32.0469 48.9062 31.9531V29.2812C48.6875 29.3281 48.1406 29.3594 47.7969 29.3594C46.4219 29.3594 45.7969 28.7188 45.7969 27.2969V18.2344H48.9219V15.5625H45.7969V11.6719H42.4062ZM59.1875 11.6719V15.5625H56.7969V18.2344H59.1875V27.6719C59.1875 30.8438 60.4844 32.1094 63.8125 32.1094C64.5625 32.1094 65.3125 32.0469 65.6875 31.9531V29.2812C65.4688 29.3281 64.9219 29.3594 64.5781 29.3594C63.2031 29.3594 62.5781 28.7188 62.5781 27.2969V18.2344H65.7031V15.5625H62.5781V11.6719H59.1875ZM68.6094 32H71.9844V22.5C71.9844 19.9062 73.5156 18.1875 76.0156 18.1875C78.3906 18.1875 79.6094 19.6406 79.6094 22.0625V32H83V21.4062C83 17.6875 80.8438 15.2812 77.2344 15.2812C74.7344 15.2812 72.9375 16.3906 72.0312 18.3125H71.9531V9.45312H68.6094V32ZM93.1406 17.9844C95.5 17.9844 97.0938 19.75 97.1719 22.2656H88.9531C89.125 19.7812 90.7812 17.9844 93.1406 17.9844ZM97.1562 27.1719C96.7031 28.6094 95.2812 29.5781 93.3594 29.5781C90.6562 29.5781 88.9375 27.6875 88.9375 24.8281V24.625H100.547V23.4688C100.547 18.4844 97.7031 15.2656 93.1406 15.2656C88.5 15.2656 85.5312 18.7031 85.5312 23.8594C85.5312 29.0469 88.4531 32.3125 93.2812 32.3125C97.0469 32.3125 99.8906 30.1719 100.359 27.1719H97.1562ZM118.422 32.2812C122.594 32.2812 125.281 29 125.281 23.7812C125.281 18.5781 122.578 15.2969 118.438 15.2969C116.109 15.2969 114.234 16.4531 113.25 18.3594H113.172V9.45312H109.797V32H113.078V29.2031H113.141C114.156 31.1094 116.016 32.2812 118.422 32.2812ZM117.516 18.1406C120.172 18.1406 121.812 20.3281 121.812 23.7812C121.812 27.2656 120.172 29.4219 117.516 29.4219C114.953 29.4219 113.156 27.2031 113.156 23.7812C113.156 20.3906 114.953 18.1406 117.516 18.1406ZM134.797 17.9844C137.156 17.9844 138.75 19.75 138.828 22.2656H130.609C130.781 19.7812 132.438 17.9844 134.797 17.9844ZM138.812 27.1719C138.359 28.6094 136.938 29.5781 135.016 29.5781C132.312 29.5781 130.594 27.6875 130.594 24.8281V24.625H142.203V23.4688C142.203 18.4844 139.359 15.2656 134.797 15.2656C130.156 15.2656 127.188 18.7031 127.188 23.8594C127.188 29.0469 130.109 32.3125 134.938 32.3125C138.703 32.3125 141.547 30.1719 142.016 27.1719H138.812ZM144.531 20.2188C144.531 22.5156 146.031 24.0625 149 24.7812L151.938 25.5C153.656 25.9375 154.281 26.5156 154.281 27.5625C154.281 28.8906 153.031 29.7344 151 29.7344C148.938 29.7344 147.719 28.8594 147.453 27.2812H144.109C144.375 30.2969 146.953 32.3125 150.844 32.3125C154.875 32.3125 157.672 30.25 157.672 27.25C157.672 24.8281 156.422 23.5781 153.109 22.7812L150.344 22.1406C148.641 21.7188 147.828 21.0312 147.828 20.0156C147.828 18.7188 149.047 17.8281 150.875 17.8281C152.766 17.8281 153.969 18.75 154.125 20.2344H157.297C157.188 17.3125 154.625 15.2656 150.969 15.2656C147.125 15.2656 144.531 17.2812 144.531 20.2188ZM161.281 11.6719V15.5625H158.891V18.2344H161.281V27.6719C161.281 30.8438 162.578 32.1094 165.906 32.1094C166.656 32.1094 167.406 32.0469 167.781 31.9531V29.2812C167.562 29.3281 167.016 29.3594 166.672 29.3594C165.297 29.3594 164.672 28.7188 164.672 27.2969V18.2344H167.797V15.5625H164.672V11.6719H161.281ZM103.922 80.125C107.344 80.125 108.953 78.8438 110.359 74.8594L116.531 57.5625H112.969L108.797 70.9375H108.75L104.578 57.5625H100.922L106.859 74.0156C106.859 74.0312 106.562 75 106.562 75.0312C106.047 76.7188 105.219 77.375 103.641 77.375C103.359 77.375 102.797 77.375 102.547 77.3125V80.0469C102.797 80.0938 103.656 80.125 103.922 80.125ZM125.109 74.3125C129.812 74.3125 132.906 71.0781 132.906 65.7812C132.906 60.5 129.797 57.2656 125.109 57.2656C120.422 57.2656 117.312 60.5 117.312 65.7812C117.312 71.0781 120.406 74.3125 125.109 74.3125ZM125.109 71.5312C122.469 71.5312 120.75 69.4375 120.75 65.7812C120.75 62.1406 122.469 60.0469 125.109 60.0469C127.75 60.0469 129.469 62.1406 129.469 65.7812C129.469 69.4375 127.766 71.5312 125.109 71.5312ZM149.609 57.5625H146.234V67.1406C146.234 69.7031 144.766 71.3906 142.328 71.3906C140 71.3906 138.812 70.0469 138.812 67.5469V57.5625H135.438V68.2031C135.438 71.9688 137.625 74.2969 141.203 74.2969C143.719 74.2969 145.391 73.1875 146.297 71.2188H146.375V74H149.609V57.5625ZM156.25 59.7031V51.4531H153.234V59.7031H156.25ZM174.016 57.5625H170.484L166.359 70.7031H166.297L162.172 57.5625H158.578L164.5 74H168.125L174.016 57.5625ZM182.359 59.9844C184.719 59.9844 186.312 61.75 186.391 64.2656H178.172C178.344 61.7812 180 59.9844 182.359 59.9844ZM186.375 69.1719C185.922 70.6094 184.5 71.5781 182.578 71.5781C179.875 71.5781 178.156 69.6875 178.156 66.8281V66.625H189.766V65.4688C189.766 60.4844 186.922 57.2656 182.359 57.2656C177.719 57.2656 174.75 60.7031 174.75 65.8594C174.75 71.0469 177.672 74.3125 182.5 74.3125C186.266 74.3125 189.109 72.1719 189.578 69.1719H186.375ZM204.641 71.6094C202.828 71.6094 201.641 70.6719 201.641 69.2344C201.641 67.8281 202.781 66.9375 204.797 66.7969L208.844 66.5469V67.8438C208.844 69.9844 207 71.6094 204.641 71.6094ZM203.703 74.2812C205.859 74.2812 207.938 73.125 208.891 71.2969H208.969V74H212.203V62.6719C212.203 59.375 209.656 57.2656 205.672 57.2656C201.609 57.2656 199.078 59.4531 198.891 62.4219H202.078C202.375 60.9531 203.594 60.0156 205.547 60.0156C207.609 60.0156 208.844 61.1094 208.844 62.9375V64.2031L204.344 64.4688C200.438 64.6875 198.234 66.4531 198.234 69.3281C198.234 72.2812 200.484 74.2812 203.703 74.2812ZM215.609 74H218.984V51.4531H215.609V74ZM244.141 57.5625H240.797L237.797 70.5H237.719L234.281 57.5625H231.031L227.609 70.5H227.547L224.547 57.5625H221.172L225.688 74H229.172L232.594 61.6875H232.672L236.125 74H239.641L244.141 57.5625ZM251.672 71.6094C249.859 71.6094 248.672 70.6719 248.672 69.2344C248.672 67.8281 249.812 66.9375 251.828 66.7969L255.875 66.5469V67.8438C255.875 69.9844 254.031 71.6094 251.672 71.6094ZM250.734 74.2812C252.891 74.2812 254.969 73.125 255.922 71.2969H256V74H259.234V62.6719C259.234 59.375 256.688 57.2656 252.703 57.2656C248.641 57.2656 246.109 59.4531 245.922 62.4219H249.109C249.406 60.9531 250.625 60.0156 252.578 60.0156C254.641 60.0156 255.875 61.1094 255.875 62.9375V64.2031L251.375 64.4688C247.469 64.6875 245.266 66.4531 245.266 69.3281C245.266 72.2812 247.516 74.2812 250.734 74.2812ZM264.141 80.125C267.562 80.125 269.172 78.8438 270.578 74.8594L276.75 57.5625H273.188L269.016 70.9375H268.969L264.797 57.5625H261.141L267.078 74.0156C267.078 74.0312 266.781 75 266.781 75.0312C266.266 76.7188 265.438 77.375 263.859 77.375C263.578 77.375 263.016 77.375 262.766 77.3125V80.0469C263.016 80.0938 263.875 80.125 264.141 80.125ZM278.438 62.2188C278.438 64.5156 279.938 66.0625 282.906 66.7812L285.844 67.5C287.562 67.9375 288.188 68.5156 288.188 69.5625C288.188 70.8906 286.938 71.7344 284.906 71.7344C282.844 71.7344 281.625 70.8594 281.359 69.2812H278.016C278.281 72.2969 280.859 74.3125 284.75 74.3125C288.781 74.3125 291.578 72.25 291.578 69.25C291.578 66.8281 290.328 65.5781 287.016 64.7812L284.25 64.1406C282.547 63.7188 281.734 63.0312 281.734 62.0156C281.734 60.7188 282.953 59.8281 284.781 59.8281C286.672 59.8281 287.875 60.75 288.031 62.2344H291.203C291.094 59.3125 288.531 57.2656 284.875 57.2656C281.031 57.2656 278.438 59.2812 278.438 62.2188ZM7.84375 116.281C10.2344 116.281 12.1094 115.078 13.0781 113.203H13.1406V116H16.4219V93.4531H13.0312V102.297H12.9688C12.0469 100.484 10.1719 99.2969 7.8125 99.2969C3.6875 99.2969 0.9375 102.594 0.9375 107.781C0.9375 112.969 3.6875 116.281 7.84375 116.281ZM8.73438 102.141C11.3281 102.141 13.0625 104.375 13.0625 107.781C13.0625 111.219 11.3281 113.422 8.73438 113.422C6.0625 113.422 4.39062 111.25 4.39062 107.781C4.39062 104.328 6.0625 102.141 8.73438 102.141ZM19.8906 116H23.2656V106.156C23.2656 103.828 24.6094 102.375 26.7812 102.375C27.4375 102.375 28.0312 102.453 28.2969 102.562V99.4219C28.0469 99.375 27.625 99.2969 27.1406 99.2969C25.2031 99.2969 23.7344 100.438 23.1875 102.359H23.1094V99.5625H19.8906V116ZM36.5469 101.984C38.9062 101.984 40.5 103.75 40.5781 106.266H32.3594C32.5312 103.781 34.1875 101.984 36.5469 101.984ZM40.5625 111.172C40.1094 112.609 38.6875 113.578 36.7656 113.578C34.0625 113.578 32.3438 111.688 32.3438 108.828V108.625H43.9531V107.469C43.9531 102.484 41.1094 99.2656 36.5469 99.2656C31.9062 99.2656 28.9375 102.703 28.9375 107.859C28.9375 113.047 31.8594 116.312 36.6875 116.312C40.4531 116.312 43.2969 114.172 43.7656 111.172H40.5625ZM52.3281 113.609C50.5156 113.609 49.3281 112.672 49.3281 111.234C49.3281 109.828 50.4688 108.938 52.4844 108.797L56.5312 108.547V109.844C56.5312 111.984 54.6875 113.609 52.3281 113.609ZM51.3906 116.281C53.5469 116.281 55.625 115.125 56.5781 113.297H56.6562V116H59.8906V104.672C59.8906 101.375 57.3438 99.2656 53.3594 99.2656C49.2969 99.2656 46.7656 101.453 46.5781 104.422H49.7656C50.0625 102.953 51.2812 102.016 53.2344 102.016C55.2969 102.016 56.5312 103.109 56.5312 104.938V106.203L52.0312 106.469C48.125 106.688 45.9219 108.453 45.9219 111.328C45.9219 114.281 48.1719 116.281 51.3906 116.281ZM63.1719 116H66.5469V105.844C66.5469 103.734 67.9688 102.172 69.9688 102.172C71.875 102.172 73.0781 103.375 73.0781 105.266V116H76.3906V105.734C76.3906 103.656 77.7812 102.172 79.7812 102.172C81.7812 102.172 82.9219 103.391 82.9219 105.516V116H86.3125V104.703C86.3125 101.438 84.1875 99.2812 80.9375 99.2812C78.5938 99.2812 76.6562 100.5 75.8125 102.5H75.7344C75.0781 100.453 73.4219 99.2812 71.1406 99.2812C68.9219 99.2812 67.2031 100.5 66.4688 102.328H66.3906V99.5625H63.1719V116ZM96.4531 101.984C98.8125 101.984 100.406 103.75 100.484 106.266H92.2656C92.4375 103.781 94.0938 101.984 96.4531 101.984ZM100.469 111.172C100.016 112.609 98.5938 113.578 96.6719 113.578C93.9688 113.578 92.25 111.688 92.25 108.828V108.625H103.859V107.469C103.859 102.484 101.016 99.2656 96.4531 99.2656C91.8125 99.2656 88.8438 102.703 88.8438 107.859C88.8438 113.047 91.7656 116.312 96.5938 116.312C100.359 116.312 103.203 114.172 103.672 111.172H100.469ZM112.656 116.281C115.047 116.281 116.922 115.078 117.891 113.203H117.953V116H121.234V93.4531H117.844V102.297H117.781C116.859 100.484 114.984 99.2969 112.625 99.2969C108.5 99.2969 105.75 102.594 105.75 107.781C105.75 112.969 108.5 116.281 112.656 116.281ZM113.547 102.141C116.141 102.141 117.875 104.375 117.875 107.781C117.875 111.219 116.141 113.422 113.547 113.422C110.875 113.422 109.203 111.25 109.203 107.781C109.203 104.328 110.875 102.141 113.547 102.141ZM138.266 116.312C142.969 116.312 146.062 113.078 146.062 107.781C146.062 102.5 142.953 99.2656 138.266 99.2656C133.578 99.2656 130.469 102.5 130.469 107.781C130.469 113.078 133.562 116.312 138.266 116.312ZM138.266 113.531C135.625 113.531 133.906 111.438 133.906 107.781C133.906 104.141 135.625 102.047 138.266 102.047C140.906 102.047 142.625 104.141 142.625 107.781C142.625 111.438 140.922 113.531 138.266 113.531ZM149.656 116H153.047V102.234H156.328V99.5938H153V98.0469C153 96.5938 153.688 95.8594 155.156 95.8594C155.609 95.8594 156.062 95.8906 156.391 95.9531V93.4531C155.953 93.375 155.188 93.2969 154.5 93.2969C151.156 93.2969 149.656 94.7969 149.656 97.9844V99.5938H147.391V102.234H149.656V116Z" fill="#101520"/>
<path d="M191.188 21.2188C190.891 17.9844 188.312 15.2656 184.078 15.2656C179.406 15.2656 176.344 18.5625 176.344 23.7812C176.344 29.0938 179.406 32.3125 184.109 32.3125C188.062 32.3125 190.859 29.9375 191.219 26.4375H187.969C187.578 28.3438 186.219 29.4844 184.141 29.4844C181.516 29.4844 179.781 27.3906 179.781 23.7812C179.781 20.25 181.5 18.0781 184.109 18.0781C186.312 18.0781 187.625 19.4688 187.969 21.2188H191.188ZM193.734 32H197.109V22.5C197.109 19.9062 198.641 18.1875 201.141 18.1875C203.516 18.1875 204.734 19.6406 204.734 22.0625V32H208.125V21.4062C208.125 17.6875 205.969 15.2812 202.359 15.2812C199.859 15.2812 198.062 16.3906 197.156 18.3125H197.078V9.45312H193.734V32ZM218.453 32.3125C223.156 32.3125 226.25 29.0781 226.25 23.7812C226.25 18.5 223.141 15.2656 218.453 15.2656C213.766 15.2656 210.656 18.5 210.656 23.7812C210.656 29.0781 213.75 32.3125 218.453 32.3125ZM218.453 29.5312C215.812 29.5312 214.094 27.4375 214.094 23.7812C214.094 20.1406 215.812 18.0469 218.453 18.0469C221.094 18.0469 222.812 20.1406 222.812 23.7812C222.812 27.4375 221.109 29.5312 218.453 29.5312ZM228.969 32H232.344V15.5625H228.969V32ZM230.656 13.1562C231.75 13.1562 232.625 12.2969 232.625 11.2344C232.625 10.1562 231.75 9.29688 230.656 9.29688C229.578 9.29688 228.703 10.1562 228.703 11.2344C228.703 12.2969 229.578 13.1562 230.656 13.1562ZM249.906 21.2188C249.609 17.9844 247.031 15.2656 242.797 15.2656C238.125 15.2656 235.062 18.5625 235.062 23.7812C235.062 29.0938 238.125 32.3125 242.828 32.3125C246.781 32.3125 249.578 29.9375 249.938 26.4375H246.688C246.297 28.3438 244.938 29.4844 242.859 29.4844C240.234 29.4844 238.5 27.3906 238.5 23.7812C238.5 20.25 240.219 18.0781 242.828 18.0781C245.031 18.0781 246.344 19.4688 246.688 21.2188H249.906ZM259.203 17.9844C261.562 17.9844 263.156 19.75 263.234 22.2656H255.016C255.188 19.7812 256.844 17.9844 259.203 17.9844ZM263.219 27.1719C262.766 28.6094 261.344 29.5781 259.422 29.5781C256.719 29.5781 255 27.6875 255 24.8281V24.625H266.609V23.4688C266.609 18.4844 263.766 15.2656 259.203 15.2656C254.562 15.2656 251.594 18.7031 251.594 23.8594C251.594 29.0469 254.516 32.3125 259.344 32.3125C263.109 32.3125 265.953 30.1719 266.422 27.1719H263.219ZM276.719 32H280.109V18.2344H283.391V15.5938H280.062V14.0469C280.062 12.5938 280.75 11.8594 282.219 11.8594C282.672 11.8594 283.125 11.8906 283.453 11.9531V9.45312C283.016 9.375 282.25 9.29688 281.562 9.29688C278.219 9.29688 276.719 10.7969 276.719 13.9844V15.5938H274.453V18.2344H276.719V32ZM292.422 32.3125C297.125 32.3125 300.219 29.0781 300.219 23.7812C300.219 18.5 297.109 15.2656 292.422 15.2656C287.734 15.2656 284.625 18.5 284.625 23.7812C284.625 29.0781 287.719 32.3125 292.422 32.3125ZM292.422 29.5312C289.781 29.5312 288.062 27.4375 288.062 23.7812C288.062 20.1406 289.781 18.0469 292.422 18.0469C295.062 18.0469 296.781 20.1406 296.781 23.7812C296.781 27.4375 295.078 29.5312 292.422 29.5312ZM302.828 32H306.203V22.1562C306.203 19.8281 307.547 18.375 309.719 18.375C310.375 18.375 310.969 18.4531 311.234 18.5625V15.4219C310.984 15.375 310.562 15.2969 310.078 15.2969C308.141 15.2969 306.672 16.4375 306.125 18.3594H306.047V15.5625H302.828V32ZM2.65625 53.6719V57.5625H0.265625V60.2344H2.65625V69.6719C2.65625 72.8438 3.95312 74.1094 7.28125 74.1094C8.03125 74.1094 8.78125 74.0469 9.15625 73.9531V71.2812C8.9375 71.3281 8.39062 71.3594 8.04688 71.3594C6.67188 71.3594 6.04688 70.7188 6.04688 69.2969V60.2344H9.17188V57.5625H6.04688V53.6719H2.65625ZM12.0781 74H15.4531V64.5C15.4531 61.9062 16.9844 60.1875 19.4844 60.1875C21.8594 60.1875 23.0781 61.6406 23.0781 64.0625V74H26.4688V63.4062C26.4688 59.6875 24.3125 57.2812 20.7031 57.2812C18.2031 57.2812 16.4062 58.3906 15.5 60.3125H15.4219V51.4531H12.0781V74ZM36.6094 59.9844C38.9688 59.9844 40.5625 61.75 40.6406 64.2656H32.4219C32.5938 61.7812 34.25 59.9844 36.6094 59.9844ZM40.625 69.1719C40.1719 70.6094 38.75 71.5781 36.8281 71.5781C34.125 71.5781 32.4062 69.6875 32.4062 66.8281V66.625H44.0156V65.4688C44.0156 60.4844 41.1719 57.2656 36.6094 57.2656C31.9688 57.2656 29 60.7031 29 65.8594C29 71.0469 31.9219 74.3125 36.75 74.3125C40.5156 74.3125 43.3594 72.1719 43.8281 69.1719H40.625ZM56.625 57.5625H53.25V74.7656C53.25 76.4219 52.625 77.0469 50.9531 77.0469C50.8906 77.0469 50.5312 77.0312 50.4688 77.0312V79.6875C50.5625 79.7188 51.0938 79.7188 51.25 79.7188C54.8906 79.7188 56.625 78.125 56.625 74.7812V57.5625ZM54.9375 55.1562C56.0312 55.1562 56.9062 54.2969 56.9062 53.2344C56.9062 52.1562 56.0312 51.2969 54.9375 51.2969C53.8594 51.2969 52.9844 52.1562 52.9844 53.2344C52.9844 54.2969 53.8594 55.1562 54.9375 55.1562ZM67.1406 74.3125C71.8438 74.3125 74.9375 71.0781 74.9375 65.7812C74.9375 60.5 71.8281 57.2656 67.1406 57.2656C62.4531 57.2656 59.3438 60.5 59.3438 65.7812C59.3438 71.0781 62.4375 74.3125 67.1406 74.3125ZM67.1406 71.5312C64.5 71.5312 62.7812 69.4375 62.7812 65.7812C62.7812 62.1406 64.5 60.0469 67.1406 60.0469C69.7812 60.0469 71.5 62.1406 71.5 65.7812C71.5 69.4375 69.7969 71.5312 67.1406 71.5312ZM86.2969 74.2812C90.4688 74.2812 93.1562 71 93.1562 65.7812C93.1562 60.5781 90.4531 57.2969 86.3125 57.2969C83.9844 57.2969 82.1094 58.4531 81.125 60.3594H81.0469V51.4531H77.6719V74H80.9531V71.2031H81.0156C82.0312 73.1094 83.8906 74.2812 86.2969 74.2812ZM85.3906 60.1406C88.0469 60.1406 89.6875 62.3281 89.6875 65.7812C89.6875 69.2656 88.0469 71.4219 85.3906 71.4219C82.8281 71.4219 81.0312 69.2031 81.0312 65.7812C81.0312 62.3906 82.8281 60.1406 85.3906 60.1406Z" fill="#3366FF"/>
<path d="M5.35156 154V143.992H8.90625V142.727H0.390625V143.992H3.94531V154H5.35156ZM10.41 154H11.7694V149.266C11.7694 147.859 12.6053 146.938 13.9569 146.938C15.2303 146.938 15.8787 147.711 15.8787 149V154H17.2381V148.75C17.2381 146.938 16.16 145.734 14.3787 145.734C13.1444 145.734 12.2537 146.266 11.8006 147.172H11.7694V142.727H10.41V154ZM22.3825 146.914C23.6637 146.914 24.5153 147.883 24.5466 149.242H20.1325C20.2184 147.891 21.1091 146.914 22.3825 146.914ZM24.5153 151.672C24.2887 152.438 23.5309 152.961 22.4997 152.961C21.0387 152.961 20.1247 151.938 20.1247 150.383V150.305H25.9528V149.789C25.9528 147.328 24.6012 145.734 22.4059 145.734C20.1637 145.734 18.7262 147.445 18.7262 149.969C18.7262 152.523 20.1403 154.141 22.4684 154.141C24.2419 154.141 25.6169 153.094 25.8512 151.672H24.5153ZM34.9681 154.141C37.0462 154.141 38.4212 152.492 38.4212 149.938C38.4212 147.391 37.0384 145.734 34.9916 145.734C33.8431 145.734 32.8978 146.305 32.39 147.234H32.3587V142.727H30.9994V154H32.2962V152.625H32.3275C32.8509 153.562 33.7806 154.141 34.9681 154.141ZM34.7025 146.93C36.14 146.93 37.0306 148.094 37.0306 149.938C37.0306 151.797 36.14 152.945 34.7025 152.945C33.3275 152.945 32.3509 151.75 32.3509 149.938C32.3509 148.133 33.3275 146.93 34.7025 146.93ZM43.2219 146.914C44.5031 146.914 45.3547 147.883 45.3859 149.242H40.9719C41.0578 147.891 41.9484 146.914 43.2219 146.914ZM45.3547 151.672C45.1281 152.438 44.3703 152.961 43.3391 152.961C41.8781 152.961 40.9641 151.938 40.9641 150.383V150.305H46.7922V149.789C46.7922 147.328 45.4406 145.734 43.2453 145.734C41.0031 145.734 39.5656 147.445 39.5656 149.969C39.5656 152.523 40.9797 154.141 43.3078 154.141C45.0812 154.141 46.4562 153.094 46.6906 151.672H45.3547ZM48.7647 143.914V145.875H47.5537V146.992H48.7647V151.891C48.7647 153.453 49.3428 154.062 50.835 154.062C51.1553 154.062 51.5303 154.039 51.6944 154V152.859C51.6006 152.875 51.2881 152.898 51.1319 152.898C50.4366 152.898 50.1241 152.562 50.1241 151.82V146.992H51.7022V145.875H50.1241V143.914H48.7647ZM53.7528 143.914V145.875H52.5419V146.992H53.7528V151.891C53.7528 153.453 54.3309 154.062 55.8231 154.062C56.1434 154.062 56.5184 154.039 56.6825 154V152.859C56.5887 152.875 56.2762 152.898 56.12 152.898C55.4247 152.898 55.1122 152.562 55.1122 151.82V146.992H56.6903V145.875H55.1122V143.914H53.7528ZM61.3269 146.914C62.6081 146.914 63.4597 147.883 63.4909 149.242H59.0769C59.1628 147.891 60.0534 146.914 61.3269 146.914ZM63.4597 151.672C63.2331 152.438 62.4753 152.961 61.4441 152.961C59.9831 152.961 59.0691 151.938 59.0691 150.383V150.305H64.8972V149.789C64.8972 147.328 63.5456 145.734 61.3503 145.734C59.1081 145.734 57.6706 147.445 57.6706 149.969C57.6706 152.523 59.0847 154.141 61.4128 154.141C63.1862 154.141 64.5612 153.094 64.7956 151.672H63.4597ZM66.4322 154H67.7916V148.938C67.7916 147.789 68.4791 147.031 69.5338 147.031C69.8619 147.031 70.1509 147.07 70.2603 147.109V145.789C70.1509 145.773 69.9478 145.734 69.7134 145.734C68.7603 145.734 68.0103 146.305 67.7447 147.203H67.7134V145.875H66.4322V154ZM75.4084 143.914V145.875H74.1975V146.992H75.4084V151.891C75.4084 153.453 75.9866 154.062 77.4788 154.062C77.7991 154.062 78.1741 154.039 78.3381 154V152.859C78.2444 152.875 77.9319 152.898 77.7756 152.898C77.0803 152.898 76.7678 152.562 76.7678 151.82V146.992H78.3459V145.875H76.7678V143.914H75.4084ZM80.0294 154H81.3887V149.266C81.3887 147.859 82.2247 146.938 83.5762 146.938C84.8497 146.938 85.4981 147.711 85.4981 149V154H86.8575V148.75C86.8575 146.938 85.7794 145.734 83.9981 145.734C82.7637 145.734 81.8731 146.266 81.42 147.172H81.3887V142.727H80.0294V154ZM92.0019 146.914C93.2831 146.914 94.1347 147.883 94.1659 149.242H89.7519C89.8378 147.891 90.7284 146.914 92.0019 146.914ZM94.1347 151.672C93.9081 152.438 93.1503 152.961 92.1191 152.961C90.6581 152.961 89.7441 151.938 89.7441 150.383V150.305H95.5722V149.789C95.5722 147.328 94.2206 145.734 92.0253 145.734C89.7831 145.734 88.3456 147.445 88.3456 149.969C88.3456 152.523 89.7597 154.141 92.0878 154.141C93.8613 154.141 95.2363 153.094 95.4706 151.672H94.1347ZM100.408 148.117C100.408 149.227 101.111 149.961 102.541 150.328L103.97 150.695C104.884 150.938 105.22 151.25 105.22 151.828C105.22 152.562 104.541 153.031 103.439 153.031C102.338 153.031 101.697 152.578 101.548 151.734H100.189C100.33 153.172 101.572 154.141 103.353 154.141C105.252 154.141 106.588 153.141 106.588 151.727C106.588 150.531 105.994 149.938 104.353 149.523L103.095 149.219C102.173 148.984 101.744 148.609 101.744 148.047C101.744 147.336 102.4 146.844 103.392 146.844C104.392 146.844 105.025 147.328 105.119 148.109H106.416C106.353 146.734 105.119 145.734 103.439 145.734C101.65 145.734 100.408 146.727 100.408 148.117ZM109.591 149.484V142.727H108.232V154H109.591V150.938L110.349 150.219L113.365 154H114.943L111.31 149.383L114.833 145.875H113.185L109.591 149.484ZM116.158 154H117.517V145.875H116.158V154ZM116.837 144.508C117.306 144.508 117.689 144.125 117.689 143.664C117.689 143.195 117.306 142.82 116.837 142.82C116.376 142.82 115.993 143.195 115.993 143.664C115.993 144.125 116.376 144.508 116.837 144.508ZM119.583 154H120.942V142.727H119.583V154ZM123.009 154H124.368V142.727H123.009V154ZM126.223 148.117C126.223 149.227 126.927 149.961 128.356 150.328L129.786 150.695C130.7 150.938 131.036 151.25 131.036 151.828C131.036 152.562 130.356 153.031 129.255 153.031C128.153 153.031 127.512 152.578 127.364 151.734H126.005C126.145 153.172 127.387 154.141 129.169 154.141C131.067 154.141 132.403 153.141 132.403 151.727C132.403 150.531 131.809 149.938 130.169 149.523L128.911 149.219C127.989 148.984 127.559 148.609 127.559 148.047C127.559 147.336 128.216 146.844 129.208 146.844C130.208 146.844 130.841 147.328 130.934 148.109H132.231C132.169 146.734 130.934 145.734 129.255 145.734C127.466 145.734 126.223 146.727 126.223 148.117ZM138.09 157.039C139.559 157.039 140.231 156.469 140.926 154.57L144.122 145.875H142.692L140.442 152.641H140.418L138.168 145.875H136.715L139.715 154.008L139.528 154.578C139.215 155.523 138.793 155.891 138.036 155.891C137.864 155.891 137.653 155.883 137.504 155.852V156.992C137.653 157.023 137.926 157.039 138.09 157.039ZM148.492 154.141C150.735 154.141 152.25 152.523 152.25 149.938C152.25 147.344 150.735 145.734 148.492 145.734C146.242 145.734 144.727 147.344 144.727 149.938C144.727 152.523 146.242 154.141 148.492 154.141ZM148.492 152.945C147.055 152.945 146.11 151.852 146.11 149.938C146.11 148.023 147.055 146.93 148.492 146.93C149.93 146.93 150.867 148.023 150.867 149.938C150.867 151.852 149.93 152.945 148.492 152.945ZM160.457 145.875H159.098V150.648C159.098 152.031 158.301 152.938 156.981 152.938C155.723 152.938 155.106 152.227 155.106 150.906V145.875H153.746V151.148C153.746 152.992 154.785 154.141 156.559 154.141C157.809 154.141 158.652 153.617 159.137 152.68H159.168V154H160.457V145.875ZM165.894 154H167.254V149.266C167.254 147.859 168.09 146.938 169.441 146.938C170.715 146.938 171.363 147.711 171.363 149V154H172.723V148.75C172.723 146.938 171.644 145.734 169.863 145.734C168.629 145.734 167.738 146.266 167.285 147.172H167.254V142.727H165.894V154ZM177.289 152.984C176.312 152.984 175.664 152.477 175.664 151.703C175.664 150.938 176.289 150.453 177.383 150.383L179.554 150.25V150.914C179.554 152.086 178.57 152.984 177.289 152.984ZM176.984 154.141C178.078 154.141 179.109 153.531 179.593 152.602H179.625V154H180.914V148.383C180.914 146.766 179.711 145.734 177.804 145.734C175.883 145.734 174.679 146.812 174.586 148.219H175.898C176.07 147.422 176.726 146.93 177.773 146.93C178.898 146.93 179.554 147.523 179.554 148.516V149.195L177.226 149.328C175.351 149.438 174.281 150.312 174.281 151.703C174.281 153.164 175.367 154.141 176.984 154.141ZM189.464 145.875H188.05L185.8 152.555H185.769L183.527 145.875H182.097L185.089 154H186.48L189.464 145.875ZM193.718 146.914C194.999 146.914 195.851 147.883 195.882 149.242H191.468C191.554 147.891 192.445 146.914 193.718 146.914ZM195.851 151.672C195.624 152.438 194.867 152.961 193.835 152.961C192.374 152.961 191.46 151.938 191.46 150.383V150.305H197.288V149.789C197.288 147.328 195.937 145.734 193.742 145.734C191.499 145.734 190.062 147.445 190.062 149.969C190.062 152.523 191.476 154.141 193.804 154.141C195.577 154.141 196.952 153.094 197.187 151.672H195.851ZM199.753 156.242L200.823 152.266H199.378L198.62 156.242H199.753ZM206.143 143.914V145.875H204.932V146.992H206.143V151.891C206.143 153.453 206.722 154.062 208.214 154.062C208.534 154.062 208.909 154.039 209.073 154V152.859C208.979 152.875 208.667 152.898 208.511 152.898C207.815 152.898 207.503 152.562 207.503 151.82V146.992H209.081V145.875H207.503V143.914H206.143ZM210.764 154H212.124V149.266C212.124 147.859 212.96 146.938 214.311 146.938C215.585 146.938 216.233 147.711 216.233 149V154H217.592V148.75C217.592 146.938 216.514 145.734 214.733 145.734C213.499 145.734 212.608 146.266 212.155 147.172H212.124V142.727H210.764V154ZM222.737 146.914C224.018 146.914 224.87 147.883 224.901 149.242H220.487C220.573 147.891 221.463 146.914 222.737 146.914ZM224.87 151.672C224.643 152.438 223.885 152.961 222.854 152.961C221.393 152.961 220.479 151.938 220.479 150.383V150.305H226.307V149.789C226.307 147.328 224.956 145.734 222.76 145.734C220.518 145.734 219.081 147.445 219.081 149.969C219.081 152.523 220.495 154.141 222.823 154.141C224.596 154.141 225.971 153.094 226.206 151.672H224.87ZM234.588 152.867C233.19 152.867 232.276 151.727 232.276 149.906C232.276 148.086 233.19 146.93 234.588 146.93C236.002 146.93 236.947 148.117 236.947 149.906C236.947 151.695 236.002 152.867 234.588 152.867ZM234.635 157.062C236.877 157.062 238.307 155.773 238.307 153.836V145.875H237.01V147.242H236.987C236.447 146.297 235.494 145.734 234.346 145.734C232.244 145.734 230.885 147.359 230.885 149.906C230.885 152.43 232.244 154.062 234.315 154.062C235.455 154.062 236.416 153.484 236.916 152.602H236.947V153.883C236.947 155.094 236.096 155.906 234.69 155.906C233.674 155.906 232.869 155.414 232.604 154.672H231.205C231.432 156.055 232.846 157.062 234.635 157.062ZM240.24 154H241.6V148.938C241.6 147.789 242.287 147.031 243.342 147.031C243.67 147.031 243.959 147.07 244.068 147.109V145.789C243.959 145.773 243.756 145.734 243.522 145.734C242.568 145.734 241.818 146.305 241.553 147.203H241.522V145.875H240.24V154ZM248.205 146.914C249.486 146.914 250.338 147.883 250.369 149.242H245.955C246.041 147.891 246.932 146.914 248.205 146.914ZM250.338 151.672C250.111 152.438 249.353 152.961 248.322 152.961C246.861 152.961 245.947 151.938 245.947 150.383V150.305H251.775V149.789C251.775 147.328 250.424 145.734 248.228 145.734C245.986 145.734 244.549 147.445 244.549 149.969C244.549 152.523 245.963 154.141 248.291 154.141C250.064 154.141 251.439 153.094 251.674 151.672H250.338ZM255.99 152.984C255.013 152.984 254.365 152.477 254.365 151.703C254.365 150.938 254.99 150.453 256.084 150.383L258.256 150.25V150.914C258.256 152.086 257.271 152.984 255.99 152.984ZM255.685 154.141C256.779 154.141 257.81 153.531 258.295 152.602H258.326V154H259.615V148.383C259.615 146.766 258.412 145.734 256.506 145.734C254.584 145.734 253.381 146.812 253.287 148.219H254.599C254.771 147.422 255.428 146.93 256.474 146.93C257.599 146.93 258.256 147.523 258.256 148.516V149.195L255.928 149.328C254.053 149.438 252.982 150.312 252.982 151.703C252.982 153.164 254.068 154.141 255.685 154.141ZM261.939 143.914V145.875H260.728V146.992H261.939V151.891C261.939 153.453 262.517 154.062 264.009 154.062C264.33 154.062 264.705 154.039 264.869 154V152.859C264.775 152.875 264.462 152.898 264.306 152.898C263.611 152.898 263.298 152.562 263.298 151.82V146.992H264.877V145.875H263.298V143.914H261.939ZM269.513 146.914C270.794 146.914 271.646 147.883 271.677 149.242H267.263C267.349 147.891 268.24 146.914 269.513 146.914ZM271.646 151.672C271.419 152.438 270.662 152.961 269.63 152.961C268.169 152.961 267.255 151.938 267.255 150.383V150.305H273.083V149.789C273.083 147.328 271.732 145.734 269.537 145.734C267.294 145.734 265.857 147.445 265.857 149.969C265.857 152.523 267.271 154.141 269.599 154.141C271.372 154.141 272.747 153.094 272.982 151.672H271.646ZM274.618 154H275.978V148.938C275.978 147.789 276.665 147.031 277.72 147.031C278.048 147.031 278.337 147.07 278.447 147.109V145.789C278.337 145.773 278.134 145.734 277.9 145.734C276.947 145.734 276.197 146.305 275.931 147.203H275.9V145.875H274.618V154ZM283.595 143.914V145.875H282.384V146.992H283.595V151.891C283.595 153.453 284.173 154.062 285.665 154.062C285.985 154.062 286.36 154.039 286.524 154V152.859C286.431 152.875 286.118 152.898 285.962 152.898C285.267 152.898 284.954 152.562 284.954 151.82V146.992H286.532V145.875H284.954V143.914H283.595ZM288.216 154H289.575V149.266C289.575 147.859 290.411 146.938 291.763 146.938C293.036 146.938 293.684 147.711 293.684 149V154H295.044V148.75C295.044 146.938 293.966 145.734 292.184 145.734C290.95 145.734 290.059 146.266 289.606 147.172H289.575V142.727H288.216V154ZM300.188 146.914C301.469 146.914 302.321 147.883 302.352 149.242H297.938C298.024 147.891 298.915 146.914 300.188 146.914ZM302.321 151.672C302.094 152.438 301.337 152.961 300.305 152.961C298.844 152.961 297.93 151.938 297.93 150.383V150.305H303.758V149.789C303.758 147.328 302.407 145.734 300.212 145.734C297.969 145.734 296.532 147.445 296.532 149.969C296.532 152.523 297.946 154.141 300.274 154.141C302.047 154.141 303.422 153.094 303.657 151.672H302.321ZM4.1875 173.867C2.78906 173.867 1.875 172.727 1.875 170.906C1.875 169.086 2.78906 167.93 4.1875 167.93C5.60156 167.93 6.54688 169.117 6.54688 170.906C6.54688 172.695 5.60156 173.867 4.1875 173.867ZM4.23438 178.062C6.47656 178.062 7.90625 176.773 7.90625 174.836V166.875H6.60938V168.242H6.58594C6.04688 167.297 5.09375 166.734 3.94531 166.734C1.84375 166.734 0.484375 168.359 0.484375 170.906C0.484375 173.43 1.84375 175.062 3.91406 175.062C5.05469 175.062 6.01562 174.484 6.51562 173.602H6.54688V174.883C6.54688 176.094 5.69531 176.906 4.28906 176.906C3.27344 176.906 2.46875 176.414 2.20312 175.672H0.804688C1.03125 177.055 2.44531 178.062 4.23438 178.062ZM13.2069 175.141C15.4491 175.141 16.9647 173.523 16.9647 170.938C16.9647 168.344 15.4491 166.734 13.2069 166.734C10.9569 166.734 9.44125 168.344 9.44125 170.938C9.44125 173.523 10.9569 175.141 13.2069 175.141ZM13.2069 173.945C11.7694 173.945 10.8241 172.852 10.8241 170.938C10.8241 169.023 11.7694 167.93 13.2069 167.93C14.6444 167.93 15.5819 169.023 15.5819 170.938C15.5819 172.852 14.6444 173.945 13.2069 173.945ZM21.8669 175.141C24.1091 175.141 25.6247 173.523 25.6247 170.938C25.6247 168.344 24.1091 166.734 21.8669 166.734C19.6169 166.734 18.1012 168.344 18.1012 170.938C18.1012 173.523 19.6169 175.141 21.8669 175.141ZM21.8669 173.945C20.4294 173.945 19.4841 172.852 19.4841 170.938C19.4841 169.023 20.4294 167.93 21.8669 167.93C23.3044 167.93 24.2419 169.023 24.2419 170.938C24.2419 172.852 23.3044 173.945 21.8669 173.945ZM30.2378 175.141C31.4097 175.141 32.3394 174.562 32.8628 173.625H32.8862V175H34.1831V163.727H32.8237V168.195H32.7925C32.3081 167.305 31.3706 166.734 30.2066 166.734C28.1597 166.734 26.7612 168.391 26.7612 170.938C26.7612 173.484 28.1675 175.141 30.2378 175.141ZM30.4956 167.93C31.8941 167.93 32.8316 169.125 32.8316 170.938C32.8316 172.758 31.8941 173.945 30.4956 173.945C29.0581 173.945 28.1519 172.781 28.1519 170.938C28.1519 169.102 29.0581 167.93 30.4956 167.93ZM41.05 166.875H39.6906V175.414C39.6906 176.32 39.3703 176.656 38.4875 176.656C38.4797 176.656 38.2922 176.656 38.2766 176.656V177.789C38.2922 177.797 38.5109 177.797 38.5344 177.797C40.2687 177.797 41.05 177.047 41.05 175.398V166.875ZM40.3703 165.508C40.8391 165.508 41.2219 165.125 41.2219 164.664C41.2219 164.195 40.8391 163.82 40.3703 163.82C39.9094 163.82 39.5266 164.195 39.5266 164.664C39.5266 165.125 39.9094 165.508 40.3703 165.508ZM46.4131 175.141C48.6553 175.141 50.1709 173.523 50.1709 170.938C50.1709 168.344 48.6553 166.734 46.4131 166.734C44.1631 166.734 42.6475 168.344 42.6475 170.938C42.6475 173.523 44.1631 175.141 46.4131 175.141ZM46.4131 173.945C44.9756 173.945 44.0303 172.852 44.0303 170.938C44.0303 169.023 44.9756 167.93 46.4131 167.93C47.8506 167.93 48.7881 169.023 48.7881 170.938C48.7881 172.852 47.8506 173.945 46.4131 173.945ZM55.745 175.141C57.8231 175.141 59.1981 173.492 59.1981 170.938C59.1981 168.391 57.8153 166.734 55.7684 166.734C54.62 166.734 53.6747 167.305 53.1669 168.234H53.1356V163.727H51.7762V175H53.0731V173.625H53.1044C53.6278 174.562 54.5575 175.141 55.745 175.141ZM55.4794 167.93C56.9169 167.93 57.8075 169.094 57.8075 170.938C57.8075 172.797 56.9169 173.945 55.4794 173.945C54.1044 173.945 53.1278 172.75 53.1278 170.938C53.1278 169.133 54.1044 167.93 55.4794 167.93ZM67.5494 175.141C69.7916 175.141 71.3072 173.523 71.3072 170.938C71.3072 168.344 69.7916 166.734 67.5494 166.734C65.2994 166.734 63.7837 168.344 63.7837 170.938C63.7837 173.523 65.2994 175.141 67.5494 175.141ZM67.5494 173.945C66.1119 173.945 65.1666 172.852 65.1666 170.938C65.1666 169.023 66.1119 167.93 67.5494 167.93C68.9869 167.93 69.9244 169.023 69.9244 170.938C69.9244 172.852 68.9869 173.945 67.5494 173.945ZM76.7875 166.734C75.6078 166.734 74.6625 167.336 74.1625 168.25H74.1312V166.875H72.8422V177.711H74.2016V173.68H74.2328C74.7172 174.57 75.6547 175.141 76.8187 175.141C78.8656 175.141 80.2641 173.484 80.2641 170.938C80.2641 168.391 78.8578 166.734 76.7875 166.734ZM76.5219 173.945C75.1312 173.945 74.1937 172.75 74.1937 170.938C74.1937 169.133 75.1312 167.93 76.5219 167.93C77.9672 167.93 78.8734 169.102 78.8734 170.938C78.8734 172.781 77.9672 173.945 76.5219 173.945ZM85.7444 166.734C84.5647 166.734 83.6194 167.336 83.1194 168.25H83.0881V166.875H81.7991V177.711H83.1584V173.68H83.1897C83.6741 174.57 84.6116 175.141 85.7756 175.141C87.8225 175.141 89.2209 173.484 89.2209 170.938C89.2209 168.391 87.8147 166.734 85.7444 166.734ZM85.4788 173.945C84.0881 173.945 83.1506 172.75 83.1506 170.938C83.1506 169.133 84.0881 167.93 85.4788 167.93C86.9241 167.93 87.8303 169.102 87.8303 170.938C87.8303 172.781 86.9241 173.945 85.4788 173.945ZM94.1231 175.141C96.3653 175.141 97.8809 173.523 97.8809 170.938C97.8809 168.344 96.3653 166.734 94.1231 166.734C91.8731 166.734 90.3575 168.344 90.3575 170.938C90.3575 173.523 91.8731 175.141 94.1231 175.141ZM94.1231 173.945C92.6856 173.945 91.7403 172.852 91.7403 170.938C91.7403 169.023 92.6856 167.93 94.1231 167.93C95.5606 167.93 96.4981 169.023 96.4981 170.938C96.4981 172.852 95.5606 173.945 94.1231 173.945ZM99.4159 175H100.775V169.938C100.775 168.789 101.463 168.031 102.518 168.031C102.846 168.031 103.135 168.07 103.244 168.109V166.789C103.135 166.773 102.932 166.734 102.697 166.734C101.744 166.734 100.994 167.305 100.728 168.203H100.697V166.875H99.4159V175ZM104.951 164.914V166.875H103.74V167.992H104.951V172.891C104.951 174.453 105.529 175.062 107.021 175.062C107.342 175.062 107.717 175.039 107.881 175V173.859C107.787 173.875 107.474 173.898 107.318 173.898C106.623 173.898 106.31 173.562 106.31 172.82V167.992H107.888V166.875H106.31V164.914H104.951ZM116.173 166.875H114.814V171.648C114.814 173.031 114.017 173.938 112.697 173.938C111.439 173.938 110.822 173.227 110.822 171.906V166.875H109.463V172.148C109.463 173.992 110.502 175.141 112.275 175.141C113.525 175.141 114.369 174.617 114.853 173.68H114.884V175H116.173V166.875ZM118.099 175H119.458V170.219C119.458 168.844 120.294 167.938 121.576 167.938C122.826 167.938 123.443 168.656 123.443 169.969V175H124.802V169.727C124.802 167.883 123.771 166.734 121.99 166.734C120.732 166.734 119.865 167.297 119.412 168.172H119.38V166.875H118.099V175ZM126.767 175H128.126V166.875H126.767V175ZM127.447 165.508C127.915 165.508 128.298 165.125 128.298 164.664C128.298 164.195 127.915 163.82 127.447 163.82C126.986 163.82 126.603 164.195 126.603 164.664C126.603 165.125 126.986 165.508 127.447 165.508ZM130.56 164.914V166.875H129.349V167.992H130.56V172.891C130.56 174.453 131.138 175.062 132.63 175.062C132.95 175.062 133.325 175.039 133.489 175V173.859C133.396 173.875 133.083 173.898 132.927 173.898C132.232 173.898 131.919 173.562 131.919 172.82V167.992H133.497V166.875H131.919V164.914H130.56ZM135.181 175H136.54V166.875H135.181V175ZM135.86 165.508C136.329 165.508 136.712 165.125 136.712 164.664C136.712 164.195 136.329 163.82 135.86 163.82C135.399 163.82 135.017 164.195 135.017 164.664C135.017 165.125 135.399 165.508 135.86 165.508ZM141.794 167.914C143.075 167.914 143.927 168.883 143.958 170.242H139.544C139.63 168.891 140.52 167.914 141.794 167.914ZM143.927 172.672C143.7 173.438 142.942 173.961 141.911 173.961C140.45 173.961 139.536 172.938 139.536 171.383V171.305H145.364V170.789C145.364 168.328 144.012 166.734 141.817 166.734C139.575 166.734 138.137 168.445 138.137 170.969C138.137 173.523 139.552 175.141 141.88 175.141C143.653 175.141 145.028 174.094 145.262 172.672H143.927ZM146.758 169.117C146.758 170.227 147.462 170.961 148.891 171.328L150.321 171.695C151.235 171.938 151.571 172.25 151.571 172.828C151.571 173.562 150.891 174.031 149.79 174.031C148.688 174.031 148.048 173.578 147.899 172.734H146.54C146.68 174.172 147.923 175.141 149.704 175.141C151.602 175.141 152.938 174.141 152.938 172.727C152.938 171.531 152.344 170.938 150.704 170.523L149.446 170.219C148.524 169.984 148.094 169.609 148.094 169.047C148.094 168.336 148.751 167.844 149.743 167.844C150.743 167.844 151.376 168.328 151.469 169.109H152.766C152.704 167.734 151.469 166.734 149.79 166.734C148.001 166.734 146.758 167.727 146.758 169.117ZM158.391 175H159.75V167.992H161.407V166.875H159.742V165.977C159.742 165.172 160.094 164.781 160.828 164.781C161.055 164.781 161.282 164.805 161.446 164.828V163.727C161.25 163.695 160.922 163.664 160.617 163.664C159.117 163.664 158.391 164.406 158.391 165.969V166.875H157.258V167.992H158.391V175ZM165.949 175.141C168.192 175.141 169.707 173.523 169.707 170.938C169.707 168.344 168.192 166.734 165.949 166.734C163.699 166.734 162.184 168.344 162.184 170.938C162.184 173.523 163.699 175.141 165.949 175.141ZM165.949 173.945C164.512 173.945 163.567 172.852 163.567 170.938C163.567 169.023 164.512 167.93 165.949 167.93C167.387 167.93 168.324 169.023 168.324 170.938C168.324 172.852 167.387 173.945 165.949 173.945ZM171.242 175H172.602V169.938C172.602 168.789 173.289 168.031 174.344 168.031C174.672 168.031 174.961 168.07 175.07 168.109V166.789C174.961 166.773 174.758 166.734 174.523 166.734C173.57 166.734 172.82 167.305 172.555 168.203H172.523V166.875H171.242V175ZM180.453 178.039C181.922 178.039 182.593 177.469 183.289 175.57L186.484 166.875H185.054L182.804 173.641H182.781L180.531 166.875H179.078L182.078 175.008L181.89 175.578C181.578 176.523 181.156 176.891 180.398 176.891C180.226 176.891 180.015 176.883 179.867 176.852V177.992C180.015 178.023 180.289 178.039 180.453 178.039ZM190.855 175.141C193.097 175.141 194.613 173.523 194.613 170.938C194.613 168.344 193.097 166.734 190.855 166.734C188.605 166.734 187.089 168.344 187.089 170.938C187.089 173.523 188.605 175.141 190.855 175.141ZM190.855 173.945C189.417 173.945 188.472 172.852 188.472 170.938C188.472 169.023 189.417 167.93 190.855 167.93C192.292 167.93 193.23 169.023 193.23 170.938C193.23 172.852 192.292 173.945 190.855 173.945ZM202.82 166.875H201.46V171.648C201.46 173.031 200.663 173.938 199.343 173.938C198.085 173.938 197.468 173.227 197.468 171.906V166.875H196.109V172.148C196.109 173.992 197.148 175.141 198.921 175.141C200.171 175.141 201.015 174.617 201.499 173.68H201.531V175H202.82V166.875ZM205.894 175.078C206.394 175.078 206.784 174.688 206.784 174.188C206.784 173.688 206.394 173.297 205.894 173.297C205.394 173.297 205.003 173.688 205.003 174.188C205.003 174.688 205.394 175.078 205.894 175.078Z" fill="#6B7280"/>
</svg>
