<svg width="375" height="44" viewBox="0 0 375 44" fill="none" xmlns="http://www.w3.org/2000/svg">
<g clip-path="url(#clip0_330_7555)">
<rect opacity="0.35" x="336.5" y="17.8333" width="21" height="10.3333" rx="2.16667" stroke="#111827"/>
<path opacity="0.4" d="M359 21V25C359.805 24.6612 360.328 23.8731 360.328 23C360.328 22.1269 359.805 21.3388 359 21Z" fill="#111827"/>
<rect x="338" y="19.3333" width="18" height="7.33333" rx="1.33333" fill="#111827"/>
<path fill-rule="evenodd" clip-rule="evenodd" d="M323.33 19.608C325.546 19.6081 327.677 20.4596 329.283 21.9863C329.404 22.1042 329.598 22.1027 329.717 21.983L330.873 20.8163C330.933 20.7556 330.967 20.6734 330.966 20.5878C330.966 20.5022 330.931 20.4204 330.87 20.3603C326.655 16.3208 320.005 16.3208 315.79 20.3603C315.729 20.4203 315.694 20.5021 315.694 20.5877C315.693 20.6733 315.727 20.7556 315.787 20.8163L316.943 21.983C317.062 22.1029 317.256 22.1044 317.377 21.9863C318.983 20.4595 321.114 19.608 323.33 19.608ZM323.33 23.4037C324.548 23.4036 325.722 23.8561 326.624 24.6733C326.746 24.7893 326.939 24.7868 327.058 24.6677L328.212 23.501C328.273 23.4398 328.307 23.3568 328.306 23.2705C328.305 23.1843 328.27 23.102 328.208 23.042C325.459 20.4856 321.204 20.4856 318.455 23.042C318.393 23.102 318.358 23.1843 318.357 23.2706C318.356 23.3569 318.39 23.4399 318.451 23.501L319.605 24.6677C319.724 24.7868 319.917 24.7893 320.039 24.6733C320.941 23.8567 322.114 23.4042 323.33 23.4037ZM325.643 25.9575C325.645 26.044 325.611 26.1274 325.549 26.188L323.552 28.2037C323.493 28.2629 323.414 28.2963 323.33 28.2963C323.247 28.2963 323.167 28.2629 323.109 28.2037L321.111 26.188C321.049 26.1274 321.015 26.0439 321.017 25.9574C321.019 25.8709 321.056 25.789 321.121 25.731C322.396 24.6521 324.264 24.6521 325.54 25.731C325.604 25.7891 325.642 25.871 325.643 25.9575Z" fill="#111827"/>
<path fill-rule="evenodd" clip-rule="evenodd" d="M309.667 17.6667H308.667C308.114 17.6667 307.667 18.1144 307.667 18.6667V27.3334C307.667 27.8856 308.114 28.3334 308.667 28.3334H309.667C310.219 28.3334 310.667 27.8856 310.667 27.3334V18.6667C310.667 18.1144 310.219 17.6667 309.667 17.6667ZM304 20H305C305.552 20 306 20.4477 306 21V27.3334C306 27.8856 305.552 28.3334 305 28.3334H304C303.448 28.3334 303 27.8856 303 27.3334V21C303 20.4477 303.448 20 304 20ZM300.333 22.3334H299.333C298.781 22.3334 298.333 22.7811 298.333 23.3334V27.3334C298.333 27.8856 298.781 28.3334 299.333 28.3334H300.333C300.886 28.3334 301.333 27.8856 301.333 27.3334V23.3334C301.333 22.7811 300.886 22.3334 300.333 22.3334ZM295.667 24.3334H294.667C294.114 24.3334 293.667 24.7811 293.667 25.3334V27.3334C293.667 27.8856 294.114 28.3334 294.667 28.3334H295.667C296.219 28.3334 296.667 27.8856 296.667 27.3334V25.3334C296.667 24.7811 296.219 24.3334 295.667 24.3334Z" fill="#111827"/>
<path d="M36.9318 29.1846C39.4064 29.1846 40.8693 27.2295 40.8693 23.9277C40.8693 22.7725 40.6643 21.8018 40.2609 21.0156C39.6252 19.6895 38.4494 18.9443 36.9865 18.9443C34.9016 18.9443 33.384 20.3799 33.384 22.3555C33.384 24.2285 34.7854 25.6162 36.6584 25.6162C37.9299 25.6162 38.9689 24.9736 39.3654 24.0029H39.3723H39.3791C39.3859 24.0029 39.3928 24.0029 39.3928 24.0029C39.3928 26.4912 38.4904 27.9131 36.9523 27.9131C36.0432 27.9131 35.2912 27.373 35.0588 26.5664H33.5207C33.8146 28.1318 35.175 29.1846 36.9318 29.1846ZM36.9865 24.3652C35.7902 24.3652 34.9084 23.4902 34.9084 22.3076C34.9084 21.1592 35.8313 20.25 37.007 20.25C38.1828 20.25 39.0988 21.166 39.0988 22.335C39.0988 23.4971 38.1965 24.3652 36.9865 24.3652ZM43.6098 27.4756C44.1088 27.4756 44.5053 27.0791 44.5053 26.5801C44.5053 26.0811 44.1088 25.6846 43.6098 25.6846C43.1107 25.6846 42.7143 26.0811 42.7143 26.5801C42.7143 27.0791 43.1107 27.4756 43.6098 27.4756ZM43.6098 22.4922C44.1088 22.4922 44.5053 22.1025 44.5053 21.5967C44.5053 21.0977 44.1088 20.7012 43.6098 20.7012C43.1107 20.7012 42.7143 21.0977 42.7143 21.5967C42.7143 22.1025 43.1107 22.4922 43.6098 22.4922ZM51.2037 29H52.6734V27.0518H54.027V25.7666H52.6734V19.1357H50.4586C48.2369 22.3486 47.1158 24.1191 46.2682 25.7119V27.0518H51.2037V29ZM47.6969 25.7529C48.483 24.3242 49.4811 22.7861 51.19 20.3184H51.2174V25.7871H47.6969V25.7529ZM58.0047 29H59.5018V19.1357H57.991L55.3934 20.9814V22.4854L57.9705 20.6533H58.0047V29Z" fill="#111827"/>
</g>
<defs>
<clipPath id="clip0_330_7555">
<rect width="375" height="44" fill="white"/>
</clipPath>
</defs>
</svg>
