<svg width="303" height="45" viewBox="0 0 303 45" fill="none" xmlns="http://www.w3.org/2000/svg">
<rect y="2.5" width="40" height="40" rx="8" fill="#6690FF"/>
<path d="M15.7887 35C12.5537 35 9.53817 34.0591 7 32.4356C9.15499 32.5751 12.9581 32.2411 15.3236 29.9848C11.7651 29.8215 10.1603 27.0923 9.95094 25.926C10.2533 26.0426 11.6953 26.1826 12.5093 25.856C8.4159 24.8296 7.78793 21.2373 7.92748 20.141C8.695 20.6775 9.99745 20.8641 10.5091 20.8174C6.69479 18.0882 8.06703 13.9828 8.74151 13.0963C11.4788 16.8887 15.5812 19.0186 20.6564 19.137C20.5607 18.7174 20.5102 18.2804 20.5102 17.8316C20.5102 14.6109 23.1134 12 26.3247 12C28.0025 12 29.5144 12.7128 30.5757 13.8528C31.6969 13.5901 33.3843 12.9751 34.2092 12.4432C33.7934 13.9361 32.4989 15.1815 31.7159 15.6431C31.7095 15.6273 31.7224 15.6588 31.7159 15.6431C32.4037 15.539 34.2648 15.1814 35 14.6826C34.6364 15.5213 33.264 16.9157 32.1377 17.6964C32.3473 26.9381 25.2765 35 15.7887 35Z" fill="white"/>
<path d="M59.1377 5.31738H57.1689V13.5439C57.1689 16.2773 59.1201 18.2109 62.3018 18.2109C65.4834 18.2109 67.4346 16.2773 67.4346 13.5439V5.31738H65.4746V13.377C65.4746 15.1875 64.3232 16.4619 62.3018 16.4619C60.2803 16.4619 59.1377 15.1875 59.1377 13.377V5.31738ZM71.9212 18V5.31738H69.9525V18H71.9212ZM74.9577 20.707L79.4577 5.31738H77.7702L73.2702 20.707H74.9577ZM82.8281 5.31738H80.8593V13.5439C80.8593 16.2773 82.8105 18.2109 85.9921 18.2109C89.1738 18.2109 91.125 16.2773 91.125 13.5439V5.31738H89.165V13.377C89.165 15.1875 88.0136 16.4619 85.9921 16.4619C83.9707 16.4619 82.8281 15.1875 82.8281 13.377V5.31738ZM92.8606 18H95.0403L98.2395 13.166H98.3011L101.456 18H103.759L99.5403 11.707V11.6543L103.838 5.31738H101.615L98.4505 10.2217H98.3802L95.2513 5.31738H92.9046L97.0706 11.584V11.6455L92.8606 18ZM109.419 5.31738V18H113.893C117.672 18 119.895 15.6445 119.895 11.6367C119.895 7.6377 117.663 5.31738 113.893 5.31738H109.419ZM111.388 7.01367H113.708C116.389 7.01367 117.883 8.66602 117.883 11.6543C117.883 14.6514 116.397 16.2949 113.708 16.2949H111.388V7.01367ZM125.595 10.1162C126.922 10.1162 127.819 11.1094 127.863 12.5244H123.239C123.336 11.127 124.268 10.1162 125.595 10.1162ZM127.854 15.2842C127.599 16.0928 126.799 16.6377 125.718 16.6377C124.198 16.6377 123.231 15.5742 123.231 13.9658V13.8516H129.761V13.2012C129.761 10.3975 128.161 8.58691 125.595 8.58691C122.985 8.58691 121.315 10.5205 121.315 13.4209C121.315 16.3389 122.958 18.1758 125.674 18.1758C127.792 18.1758 129.392 16.9717 129.656 15.2842H127.854ZM131.251 11.373C131.251 12.665 132.094 13.5352 133.764 13.9395L135.417 14.3438C136.383 14.5898 136.735 14.915 136.735 15.5039C136.735 16.251 136.032 16.7256 134.889 16.7256C133.729 16.7256 133.044 16.2334 132.894 15.3457H131.013C131.163 17.042 132.613 18.1758 134.801 18.1758C137.069 18.1758 138.642 17.0156 138.642 15.3281C138.642 13.9658 137.939 13.2627 136.076 12.8145L134.52 12.4541C133.562 12.2168 133.105 11.8301 133.105 11.2588C133.105 10.5293 133.791 10.0283 134.819 10.0283C135.882 10.0283 136.559 10.5469 136.647 11.3818H138.431C138.37 9.73828 136.928 8.58691 134.872 8.58691C132.71 8.58691 131.251 9.7207 131.251 11.373ZM140.36 18H142.259V8.75391H140.36V18ZM141.309 7.40039C141.925 7.40039 142.417 6.91699 142.417 6.31934C142.417 5.71289 141.925 5.22949 141.309 5.22949C140.703 5.22949 140.211 5.71289 140.211 6.31934C140.211 6.91699 140.703 7.40039 141.309 7.40039ZM148.319 16.4619C146.86 16.4619 145.91 15.2842 145.91 13.3506C145.91 11.4258 146.86 10.2041 148.319 10.2041C149.804 10.2041 150.779 11.4521 150.779 13.3506C150.779 15.2578 149.804 16.4619 148.319 16.4619ZM148.336 21.4805C150.973 21.4805 152.678 20.0391 152.678 17.833V8.75391H150.832V10.3359H150.797C150.235 9.26367 149.162 8.60449 147.853 8.60449C145.48 8.60449 143.968 10.4326 143.968 13.3418C143.968 16.2246 145.488 18.0352 147.809 18.0352C149.127 18.0352 150.217 17.376 150.736 16.374H150.771V17.8945C150.771 19.1602 149.892 20.0039 148.406 20.0039C147.325 20.0039 146.482 19.4941 146.209 18.7207H144.302C144.539 20.3203 146.156 21.4805 148.336 21.4805ZM154.739 18H156.637V12.6123C156.637 11.1797 157.499 10.2305 158.834 10.2305C160.153 10.2305 160.803 10.9951 160.803 12.3838V18H162.71V12.0146C162.71 9.89648 161.542 8.5957 159.502 8.5957C158.079 8.5957 157.094 9.24609 156.593 10.3008H156.549V8.75391H154.739V18ZM168.595 10.1162C169.922 10.1162 170.818 11.1094 170.862 12.5244H166.239C166.336 11.127 167.267 10.1162 168.595 10.1162ZM170.853 15.2842C170.598 16.0928 169.799 16.6377 168.718 16.6377C167.197 16.6377 166.23 15.5742 166.23 13.9658V13.8516H172.761V13.2012C172.761 10.3975 171.161 8.58691 168.595 8.58691C165.984 8.58691 164.314 10.5205 164.314 13.4209C164.314 16.3389 165.958 18.1758 168.674 18.1758C170.792 18.1758 172.391 16.9717 172.655 15.2842H170.853ZM174.417 18H176.316V12.4629C176.316 11.1533 177.071 10.3359 178.293 10.3359C178.662 10.3359 178.996 10.3799 179.146 10.4414V8.6748C179.005 8.64844 178.768 8.60449 178.495 8.60449C177.405 8.60449 176.579 9.24609 176.272 10.3271H176.228V8.75391H174.417V18Z" fill="#111827"/>
<path d="M60.0137 40V32.4941H62.6797V31.5449H56.293V32.4941H58.959V40H60.0137ZM70.3348 33.9062H69.327L68.1083 38.8633H68.0848L66.702 33.9062H65.7177L64.3407 38.8633H64.3173L63.0985 33.9062H62.0848L63.7899 40H64.827L66.1981 35.2832H66.2216L67.5985 40H68.6356L70.3348 33.9062ZM71.3455 40H72.365V33.9062H71.3455V40ZM71.8552 32.8809C72.2068 32.8809 72.4939 32.5938 72.4939 32.248C72.4939 31.8965 72.2068 31.6152 71.8552 31.6152C71.5095 31.6152 71.2224 31.8965 71.2224 32.248C71.2224 32.5938 71.5095 32.8809 71.8552 32.8809ZM74.1901 32.4355V33.9062H73.2819V34.7441H74.1901V38.418C74.1901 39.5898 74.6237 40.0469 75.7428 40.0469C75.983 40.0469 76.2643 40.0293 76.3873 40V39.1445C76.317 39.1562 76.0827 39.1738 75.9655 39.1738C75.444 39.1738 75.2096 38.9219 75.2096 38.3652V34.7441H76.3932V33.9062H75.2096V32.4355H74.1901ZM77.9312 32.4355V33.9062H77.023V34.7441H77.9312V38.418C77.9312 39.5898 78.3648 40.0469 79.4839 40.0469C79.7241 40.0469 80.0054 40.0293 80.1284 40V39.1445C80.0581 39.1562 79.8237 39.1738 79.7066 39.1738C79.1851 39.1738 78.9507 38.9219 78.9507 38.3652V34.7441H80.1343V33.9062H78.9507V32.4355H77.9312ZM83.6117 34.6855C84.5727 34.6855 85.2113 35.4121 85.2348 36.4316H81.9242C81.9887 35.418 82.6566 34.6855 83.6117 34.6855ZM85.2113 38.2539C85.0414 38.8281 84.473 39.2207 83.6996 39.2207C82.6039 39.2207 81.9184 38.4531 81.9184 37.2871V37.2285H86.2895V36.8418C86.2895 34.9961 85.2758 33.8008 83.6293 33.8008C81.9477 33.8008 80.8695 35.084 80.8695 36.9766C80.8695 38.8926 81.9301 40.1055 83.6762 40.1055C85.0063 40.1055 86.0375 39.3203 86.2133 38.2539H85.2113ZM87.4407 40H88.4602V36.2031C88.4602 35.3418 88.9759 34.7734 89.7669 34.7734C90.013 34.7734 90.2298 34.8027 90.3118 34.832V33.8418C90.2298 33.8301 90.0774 33.8008 89.9016 33.8008C89.1868 33.8008 88.6243 34.2285 88.4251 34.9023H88.4016V33.9062H87.4407V40ZM96.0772 38.5059C97.0557 38.5059 97.8584 37.7031 97.8584 36.7246C97.8584 35.7461 97.0557 34.9434 96.0772 34.9434C95.0987 34.9434 94.2959 35.7461 94.2959 36.7246C94.2959 37.7031 95.0987 38.5059 96.0772 38.5059ZM101.919 38.0137C101.919 39.2969 102.903 40.1992 104.309 40.1992C105.868 40.1992 106.794 39.25 106.794 37.6445V31.5449H105.739V37.6387C105.739 38.6699 105.235 39.2266 104.304 39.2266C103.536 39.2266 102.991 38.7285 102.968 38.0137H101.919ZM110.406 39.2383C109.674 39.2383 109.187 38.8574 109.187 38.2773C109.187 37.7031 109.656 37.3398 110.476 37.2871L112.105 37.1875V37.6855C112.105 38.5645 111.367 39.2383 110.406 39.2383ZM110.177 40.1055C110.998 40.1055 111.771 39.6484 112.134 38.9512H112.158V40H113.125V35.7871C113.125 34.5742 112.222 33.8008 110.793 33.8008C109.351 33.8008 108.449 34.6094 108.379 35.6641H109.363C109.492 35.0664 109.984 34.6973 110.769 34.6973C111.613 34.6973 112.105 35.1426 112.105 35.8867V36.3965L110.359 36.4961C108.953 36.5781 108.15 37.2344 108.15 38.2773C108.15 39.373 108.965 40.1055 110.177 40.1055ZM115.612 36.6133V31.5449H114.592V40H115.612V37.7031L116.18 37.1641L118.442 40H119.626L116.901 36.5371L119.544 33.9062H118.307L115.612 36.6133ZM122.494 39.2383C121.761 39.2383 121.275 38.8574 121.275 38.2773C121.275 37.7031 121.744 37.3398 122.564 37.2871L124.193 37.1875V37.6855C124.193 38.5645 123.455 39.2383 122.494 39.2383ZM122.265 40.1055C123.085 40.1055 123.859 39.6484 124.222 38.9512H124.246V40H125.212V35.7871C125.212 34.5742 124.31 33.8008 122.88 33.8008C121.439 33.8008 120.537 34.6094 120.466 35.6641H121.451C121.58 35.0664 122.072 34.6973 122.857 34.6973C123.701 34.6973 124.193 35.1426 124.193 35.8867V36.3965L122.447 36.4961C121.04 36.5781 120.238 37.2344 120.238 38.2773C120.238 39.373 121.052 40.1055 122.265 40.1055ZM126.627 40H127.647V36.2031C127.647 35.3418 128.162 34.7734 128.953 34.7734C129.2 34.7734 129.416 34.8027 129.498 34.832V33.8418C129.416 33.8301 129.264 33.8008 129.088 33.8008C128.373 33.8008 127.811 34.2285 127.612 34.9023H127.588V33.9062H126.627V40ZM130.779 32.4355V33.9062H129.87V34.7441H130.779V38.418C130.779 39.5898 131.212 40.0469 132.331 40.0469C132.571 40.0469 132.853 40.0293 132.976 40V39.1445C132.905 39.1562 132.671 39.1738 132.554 39.1738C132.032 39.1738 131.798 38.9219 131.798 38.3652V34.7441H132.982V33.9062H131.798V32.4355H130.779ZM136.084 39.2383C135.352 39.2383 134.865 38.8574 134.865 38.2773C134.865 37.7031 135.334 37.3398 136.154 37.2871L137.783 37.1875V37.6855C137.783 38.5645 137.045 39.2383 136.084 39.2383ZM135.856 40.1055C136.676 40.1055 137.449 39.6484 137.813 38.9512H137.836V40H138.803V35.7871C138.803 34.5742 137.9 33.8008 136.471 33.8008C135.029 33.8008 134.127 34.6094 134.057 35.6641H135.041C135.17 35.0664 135.662 34.6973 136.447 34.6973C137.291 34.6973 137.783 35.1426 137.783 35.8867V36.3965L136.037 36.4961C134.631 36.5781 133.828 37.2344 133.828 38.2773C133.828 39.373 134.643 40.1055 135.856 40.1055ZM140.915 41.6816L141.718 38.6992H140.634L140.065 41.6816H140.915ZM146.592 40V31.5449H145.538V40H146.592ZM148.195 40H149.214V36.4141C149.214 35.3828 149.841 34.7031 150.802 34.7031C151.74 34.7031 152.203 35.2422 152.203 36.2266V40H153.222V36.0449C153.222 34.6621 152.449 33.8008 151.113 33.8008C150.17 33.8008 149.519 34.2227 149.179 34.8789H149.156V33.9062H148.195V40ZM156.952 40.1055C157.831 40.1055 158.528 39.6719 158.92 38.9688H158.938V40H159.911V31.5449H158.891V34.8965H158.868C158.504 34.2285 157.801 33.8008 156.928 33.8008C155.393 33.8008 154.344 35.043 154.344 36.9531C154.344 38.8633 155.399 40.1055 156.952 40.1055ZM157.145 34.6973C158.194 34.6973 158.897 35.5938 158.897 36.9531C158.897 38.3184 158.194 39.209 157.145 39.209C156.067 39.209 155.387 38.3359 155.387 36.9531C155.387 35.5762 156.067 34.6973 157.145 34.6973ZM163.933 40.1055C165.615 40.1055 166.751 38.8926 166.751 36.9531C166.751 35.0078 165.615 33.8008 163.933 33.8008C162.245 33.8008 161.109 35.0078 161.109 36.9531C161.109 38.8926 162.245 40.1055 163.933 40.1055ZM163.933 39.209C162.855 39.209 162.146 38.3887 162.146 36.9531C162.146 35.5176 162.855 34.6973 163.933 34.6973C165.011 34.6973 165.714 35.5176 165.714 36.9531C165.714 38.3887 165.011 39.209 163.933 39.209ZM167.903 40H168.922V36.4141C168.922 35.3828 169.549 34.7031 170.51 34.7031C171.448 34.7031 171.91 35.2422 171.91 36.2266V40H172.93V36.0449C172.93 34.6621 172.156 33.8008 170.821 33.8008C169.877 33.8008 169.227 34.2227 168.887 34.8789H168.864V33.9062H167.903V40ZM176.794 34.6855C177.755 34.6855 178.394 35.4121 178.417 36.4316H175.107C175.171 35.418 175.839 34.6855 176.794 34.6855ZM178.394 38.2539C178.224 38.8281 177.655 39.2207 176.882 39.2207C175.786 39.2207 175.101 38.4531 175.101 37.2871V37.2285H179.472V36.8418C179.472 34.9961 178.458 33.8008 176.812 33.8008C175.13 33.8008 174.052 35.084 174.052 36.9766C174.052 38.8926 175.112 40.1055 176.859 40.1055C178.189 40.1055 179.22 39.3203 179.396 38.2539H178.394ZM180.518 35.5879C180.518 36.4199 181.045 36.9707 182.117 37.2461L183.189 37.5215C183.875 37.7031 184.127 37.9375 184.127 38.3711C184.127 38.9219 183.617 39.2734 182.791 39.2734C181.965 39.2734 181.484 38.9336 181.373 38.3008H180.354C180.459 39.3789 181.391 40.1055 182.727 40.1055C184.15 40.1055 185.152 39.3555 185.152 38.2949C185.152 37.3984 184.707 36.9531 183.477 36.6426L182.533 36.4141C181.842 36.2383 181.52 35.957 181.52 35.5352C181.52 35.002 182.012 34.6328 182.756 34.6328C183.506 34.6328 183.98 34.9961 184.051 35.582H185.023C184.977 34.5508 184.051 33.8008 182.791 33.8008C181.449 33.8008 180.518 34.5449 180.518 35.5879ZM186.386 40H187.405V33.9062H186.386V40ZM186.895 32.8809C187.247 32.8809 187.534 32.5938 187.534 32.248C187.534 31.8965 187.247 31.6152 186.895 31.6152C186.55 31.6152 186.263 31.8965 186.263 32.248C186.263 32.5938 186.55 32.8809 186.895 32.8809ZM190.912 39.2383C190.179 39.2383 189.693 38.8574 189.693 38.2773C189.693 37.7031 190.162 37.3398 190.982 37.2871L192.611 37.1875V37.6855C192.611 38.5645 191.873 39.2383 190.912 39.2383ZM190.683 40.1055C191.504 40.1055 192.277 39.6484 192.64 38.9512H192.664V40H193.631V35.7871C193.631 34.5742 192.728 33.8008 191.299 33.8008C189.857 33.8008 188.955 34.6094 188.885 35.6641H189.869C189.998 35.0664 190.49 34.6973 191.275 34.6973C192.119 34.6973 192.611 35.1426 192.611 35.8867V36.3965L190.865 36.4961C189.459 36.5781 188.656 37.2344 188.656 38.2773C188.656 39.373 189.47 40.1055 190.683 40.1055Z" fill="#374151"/>
</svg>
