<svg width="303" height="45" viewBox="0 0 303 45" fill="none" xmlns="http://www.w3.org/2000/svg">
<rect y="2.5" width="40" height="40" rx="8" fill="#6690FF"/>
<path d="M15.7887 35C12.5537 35 9.53817 34.0591 7 32.4356C9.15499 32.5751 12.9581 32.2411 15.3236 29.9848C11.7651 29.8215 10.1603 27.0923 9.95094 25.926C10.2533 26.0426 11.6953 26.1826 12.5093 25.856C8.4159 24.8296 7.78793 21.2373 7.92748 20.141C8.695 20.6775 9.99745 20.8641 10.5091 20.8174C6.69479 18.0882 8.06703 13.9828 8.74151 13.0963C11.4788 16.8887 15.5812 19.0186 20.6564 19.137C20.5607 18.7174 20.5102 18.2804 20.5102 17.8316C20.5102 14.6109 23.1134 12 26.3247 12C28.0025 12 29.5144 12.7128 30.5757 13.8528C31.6969 13.5901 33.3843 12.9751 34.2092 12.4432C33.7934 13.9361 32.4989 15.1815 31.7159 15.6431C31.7095 15.6273 31.7224 15.6588 31.7159 15.6431C32.4037 15.539 34.2648 15.1814 35 14.6826C34.6364 15.5213 33.264 16.9157 32.1377 17.6964C32.3473 26.9381 25.2765 35 15.7887 35Z" fill="white"/>
<path d="M56.6064 14.4668C56.7295 16.7607 58.6279 18.2109 61.4404 18.2109C64.4463 18.2109 66.3359 16.7256 66.3359 14.3525C66.3359 12.498 65.2549 11.4521 62.6533 10.8369L61.2559 10.4941C59.6211 10.0898 58.9531 9.5625 58.9531 8.66602C58.9531 7.54102 59.999 6.76758 61.5283 6.76758C63.0576 6.76758 64.1035 7.53223 64.2178 8.79785H66.1338C66.0723 6.60938 64.2354 5.10645 61.5547 5.10645C58.8477 5.10645 56.9404 6.60938 56.9404 8.79785C56.9404 10.5645 58.0215 11.6543 60.3506 12.2168L61.9941 12.6123C63.6377 13.0166 64.332 13.6055 64.332 14.5898C64.332 15.7236 63.1807 16.5498 61.5811 16.5498C59.9111 16.5498 58.6895 15.7236 58.5488 14.4668H56.6064ZM71.9212 10.1162C73.2484 10.1162 74.1448 11.1094 74.1888 12.5244H69.5657C69.6624 11.127 70.5941 10.1162 71.9212 10.1162ZM74.18 15.2842C73.9251 16.0928 73.1253 16.6377 72.0443 16.6377C70.5238 16.6377 69.557 15.5742 69.557 13.9658V13.8516H76.0872V13.2012C76.0872 10.3975 74.4876 8.58691 71.9212 8.58691C69.3109 8.58691 67.6409 10.5205 67.6409 13.4209C67.6409 16.3389 69.2845 18.1758 72.0003 18.1758C74.1185 18.1758 75.7181 16.9717 75.9818 15.2842H74.18ZM77.7438 18H79.6422V12.6123C79.6422 11.1797 80.5036 10.2305 81.8395 10.2305C83.1579 10.2305 83.8082 10.9951 83.8082 12.3838V18H85.7155V12.0146C85.7155 9.89648 84.5465 8.5957 82.5075 8.5957C81.0836 8.5957 80.0993 9.24609 79.5983 10.3008H79.5543V8.75391H77.7438V18ZM87.7939 18H89.6923V8.75391H87.7939V18ZM88.7431 7.40039C89.3584 7.40039 89.8505 6.91699 89.8505 6.31934C89.8505 5.71289 89.3584 5.22949 88.7431 5.22949C88.1367 5.22949 87.6445 5.71289 87.6445 6.31934C87.6445 6.91699 88.1367 7.40039 88.7431 7.40039ZM95.7874 18.1758C98.4329 18.1758 100.173 16.3564 100.173 13.377C100.173 10.4062 98.4241 8.58691 95.7874 8.58691C93.1507 8.58691 91.4016 10.4062 91.4016 13.377C91.4016 16.3564 93.1419 18.1758 95.7874 18.1758ZM95.7874 16.6113C94.302 16.6113 93.3352 15.4336 93.3352 13.377C93.3352 11.3291 94.302 10.1514 95.7874 10.1514C97.2727 10.1514 98.2395 11.3291 98.2395 13.377C98.2395 15.4336 97.2815 16.6113 95.7874 16.6113ZM101.821 18H103.719V12.4629C103.719 11.1533 104.475 10.3359 105.697 10.3359C106.066 10.3359 106.4 10.3799 106.549 10.4414V8.6748C106.409 8.64844 106.171 8.60449 105.899 8.60449C104.809 8.60449 103.983 9.24609 103.675 10.3271H103.631V8.75391H101.821V18ZM113.941 5.31738H111.972V13.5439C111.972 16.2773 113.923 18.2109 117.105 18.2109C120.286 18.2109 122.238 16.2773 122.238 13.5439V5.31738H120.278V13.377C120.278 15.1875 119.126 16.4619 117.105 16.4619C115.083 16.4619 113.941 15.1875 113.941 13.377V5.31738ZM126.724 18V5.31738H124.755V18H126.724ZM133.078 5.31738V18H137.552C141.331 18 143.555 15.6445 143.555 11.6367C143.555 7.6377 141.322 5.31738 137.552 5.31738H133.078ZM135.047 7.01367H137.367C140.048 7.01367 141.542 8.66602 141.542 11.6543C141.542 14.6514 140.057 16.2949 137.367 16.2949H135.047V7.01367ZM149.254 10.1162C150.582 10.1162 151.478 11.1094 151.522 12.5244H146.899C146.996 11.127 147.927 10.1162 149.254 10.1162ZM151.513 15.2842C151.258 16.0928 150.459 16.6377 149.377 16.6377C147.857 16.6377 146.89 15.5742 146.89 13.9658V13.8516H153.42V13.2012C153.42 10.3975 151.821 8.58691 149.254 8.58691C146.644 8.58691 144.974 10.5205 144.974 13.4209C144.974 16.3389 146.618 18.1758 149.334 18.1758C151.452 18.1758 153.051 16.9717 153.315 15.2842H151.513ZM154.91 11.373C154.91 12.665 155.754 13.5352 157.424 13.9395L159.076 14.3438C160.043 14.5898 160.394 14.915 160.394 15.5039C160.394 16.251 159.691 16.7256 158.549 16.7256C157.389 16.7256 156.703 16.2334 156.554 15.3457H154.673C154.822 17.042 156.272 18.1758 158.461 18.1758C160.728 18.1758 162.302 17.0156 162.302 15.3281C162.302 13.9658 161.598 13.2627 159.735 12.8145L158.18 12.4541C157.222 12.2168 156.764 11.8301 156.764 11.2588C156.764 10.5293 157.45 10.0283 158.478 10.0283C159.542 10.0283 160.219 10.5469 160.306 11.3818H162.091C162.029 9.73828 160.588 8.58691 158.531 8.58691C156.369 8.58691 154.91 9.7207 154.91 11.373ZM164.02 18H165.918V8.75391H164.02V18ZM164.969 7.40039C165.584 7.40039 166.076 6.91699 166.076 6.31934C166.076 5.71289 165.584 5.22949 164.969 5.22949C164.362 5.22949 163.87 5.71289 163.87 6.31934C163.87 6.91699 164.362 7.40039 164.969 7.40039ZM171.978 16.4619C170.519 16.4619 169.57 15.2842 169.57 13.3506C169.57 11.4258 170.519 10.2041 171.978 10.2041C173.463 10.2041 174.439 11.4521 174.439 13.3506C174.439 15.2578 173.463 16.4619 171.978 16.4619ZM171.996 21.4805C174.632 21.4805 176.337 20.0391 176.337 17.833V8.75391H174.492V10.3359H174.457C173.894 9.26367 172.822 8.60449 171.512 8.60449C169.139 8.60449 167.627 10.4326 167.627 13.3418C167.627 16.2246 169.148 18.0352 171.468 18.0352C172.787 18.0352 173.876 17.376 174.395 16.374H174.43V17.8945C174.43 19.1602 173.551 20.0039 172.066 20.0039C170.985 20.0039 170.141 19.4941 169.869 18.7207H167.961C168.199 20.3203 169.816 21.4805 171.996 21.4805ZM178.398 18H180.297V12.6123C180.297 11.1797 181.158 10.2305 182.494 10.2305C183.812 10.2305 184.463 10.9951 184.463 12.3838V18H186.37V12.0146C186.37 9.89648 185.201 8.5957 183.162 8.5957C181.738 8.5957 180.754 9.24609 180.253 10.3008H180.209V8.75391H178.398V18ZM192.254 10.1162C193.581 10.1162 194.478 11.1094 194.522 12.5244H189.899C189.995 11.127 190.927 10.1162 192.254 10.1162ZM194.513 15.2842C194.258 16.0928 193.458 16.6377 192.377 16.6377C190.857 16.6377 189.89 15.5742 189.89 13.9658V13.8516H196.42V13.2012C196.42 10.3975 194.82 8.58691 192.254 8.58691C189.644 8.58691 187.974 10.5205 187.974 13.4209C187.974 16.3389 189.617 18.1758 192.333 18.1758C194.451 18.1758 196.051 16.9717 196.315 15.2842H194.513ZM198.077 18H199.975V12.4629C199.975 11.1533 200.731 10.3359 201.953 10.3359C202.322 10.3359 202.656 10.3799 202.805 10.4414V8.6748C202.664 8.64844 202.427 8.60449 202.155 8.60449C201.065 8.60449 200.239 9.24609 199.931 10.3271H199.887V8.75391H198.077V18Z" fill="#111827"/>
<path d="M60.0137 40V32.4941H62.6797V31.5449H56.293V32.4941H58.959V40H60.0137ZM70.3348 33.9062H69.327L68.1083 38.8633H68.0848L66.702 33.9062H65.7177L64.3407 38.8633H64.3173L63.0985 33.9062H62.0848L63.7899 40H64.827L66.1981 35.2832H66.2216L67.5985 40H68.6356L70.3348 33.9062ZM71.3455 40H72.365V33.9062H71.3455V40ZM71.8552 32.8809C72.2068 32.8809 72.4939 32.5938 72.4939 32.248C72.4939 31.8965 72.2068 31.6152 71.8552 31.6152C71.5095 31.6152 71.2224 31.8965 71.2224 32.248C71.2224 32.5938 71.5095 32.8809 71.8552 32.8809ZM74.1901 32.4355V33.9062H73.2819V34.7441H74.1901V38.418C74.1901 39.5898 74.6237 40.0469 75.7428 40.0469C75.983 40.0469 76.2643 40.0293 76.3873 40V39.1445C76.317 39.1562 76.0827 39.1738 75.9655 39.1738C75.444 39.1738 75.2096 38.9219 75.2096 38.3652V34.7441H76.3932V33.9062H75.2096V32.4355H74.1901ZM77.9312 32.4355V33.9062H77.023V34.7441H77.9312V38.418C77.9312 39.5898 78.3648 40.0469 79.4839 40.0469C79.7241 40.0469 80.0054 40.0293 80.1284 40V39.1445C80.0581 39.1562 79.8237 39.1738 79.7066 39.1738C79.1851 39.1738 78.9507 38.9219 78.9507 38.3652V34.7441H80.1343V33.9062H78.9507V32.4355H77.9312ZM83.6117 34.6855C84.5727 34.6855 85.2113 35.4121 85.2348 36.4316H81.9242C81.9887 35.418 82.6566 34.6855 83.6117 34.6855ZM85.2113 38.2539C85.0414 38.8281 84.473 39.2207 83.6996 39.2207C82.6039 39.2207 81.9184 38.4531 81.9184 37.2871V37.2285H86.2895V36.8418C86.2895 34.9961 85.2758 33.8008 83.6293 33.8008C81.9477 33.8008 80.8695 35.084 80.8695 36.9766C80.8695 38.8926 81.9301 40.1055 83.6762 40.1055C85.0063 40.1055 86.0375 39.3203 86.2133 38.2539H85.2113ZM87.4407 40H88.4602V36.2031C88.4602 35.3418 88.9759 34.7734 89.7669 34.7734C90.013 34.7734 90.2298 34.8027 90.3118 34.832V33.8418C90.2298 33.8301 90.0774 33.8008 89.9016 33.8008C89.1868 33.8008 88.6243 34.2285 88.4251 34.9023H88.4016V33.9062H87.4407V40ZM96.0772 38.5059C97.0557 38.5059 97.8584 37.7031 97.8584 36.7246C97.8584 35.7461 97.0557 34.9434 96.0772 34.9434C95.0987 34.9434 94.2959 35.7461 94.2959 36.7246C94.2959 37.7031 95.0987 38.5059 96.0772 38.5059ZM101.919 38.0137C101.919 39.2969 102.903 40.1992 104.309 40.1992C105.868 40.1992 106.794 39.25 106.794 37.6445V31.5449H105.739V37.6387C105.739 38.6699 105.235 39.2266 104.304 39.2266C103.536 39.2266 102.991 38.7285 102.968 38.0137H101.919ZM110.406 39.2383C109.674 39.2383 109.187 38.8574 109.187 38.2773C109.187 37.7031 109.656 37.3398 110.476 37.2871L112.105 37.1875V37.6855C112.105 38.5645 111.367 39.2383 110.406 39.2383ZM110.177 40.1055C110.998 40.1055 111.771 39.6484 112.134 38.9512H112.158V40H113.125V35.7871C113.125 34.5742 112.222 33.8008 110.793 33.8008C109.351 33.8008 108.449 34.6094 108.379 35.6641H109.363C109.492 35.0664 109.984 34.6973 110.769 34.6973C111.613 34.6973 112.105 35.1426 112.105 35.8867V36.3965L110.359 36.4961C108.953 36.5781 108.15 37.2344 108.15 38.2773C108.15 39.373 108.965 40.1055 110.177 40.1055ZM115.612 36.6133V31.5449H114.592V40H115.612V37.7031L116.18 37.1641L118.442 40H119.626L116.901 36.5371L119.544 33.9062H118.307L115.612 36.6133ZM122.494 39.2383C121.761 39.2383 121.275 38.8574 121.275 38.2773C121.275 37.7031 121.744 37.3398 122.564 37.2871L124.193 37.1875V37.6855C124.193 38.5645 123.455 39.2383 122.494 39.2383ZM122.265 40.1055C123.085 40.1055 123.859 39.6484 124.222 38.9512H124.246V40H125.212V35.7871C125.212 34.5742 124.31 33.8008 122.88 33.8008C121.439 33.8008 120.537 34.6094 120.466 35.6641H121.451C121.58 35.0664 122.072 34.6973 122.857 34.6973C123.701 34.6973 124.193 35.1426 124.193 35.8867V36.3965L122.447 36.4961C121.04 36.5781 120.238 37.2344 120.238 38.2773C120.238 39.373 121.052 40.1055 122.265 40.1055ZM126.627 40H127.647V36.2031C127.647 35.3418 128.162 34.7734 128.953 34.7734C129.2 34.7734 129.416 34.8027 129.498 34.832V33.8418C129.416 33.8301 129.264 33.8008 129.088 33.8008C128.373 33.8008 127.811 34.2285 127.612 34.9023H127.588V33.9062H126.627V40ZM130.779 32.4355V33.9062H129.87V34.7441H130.779V38.418C130.779 39.5898 131.212 40.0469 132.331 40.0469C132.571 40.0469 132.853 40.0293 132.976 40V39.1445C132.905 39.1562 132.671 39.1738 132.554 39.1738C132.032 39.1738 131.798 38.9219 131.798 38.3652V34.7441H132.982V33.9062H131.798V32.4355H130.779ZM136.084 39.2383C135.352 39.2383 134.865 38.8574 134.865 38.2773C134.865 37.7031 135.334 37.3398 136.154 37.2871L137.783 37.1875V37.6855C137.783 38.5645 137.045 39.2383 136.084 39.2383ZM135.856 40.1055C136.676 40.1055 137.449 39.6484 137.813 38.9512H137.836V40H138.803V35.7871C138.803 34.5742 137.9 33.8008 136.471 33.8008C135.029 33.8008 134.127 34.6094 134.057 35.6641H135.041C135.17 35.0664 135.662 34.6973 136.447 34.6973C137.291 34.6973 137.783 35.1426 137.783 35.8867V36.3965L136.037 36.4961C134.631 36.5781 133.828 37.2344 133.828 38.2773C133.828 39.373 134.643 40.1055 135.856 40.1055ZM140.915 41.6816L141.718 38.6992H140.634L140.065 41.6816H140.915ZM146.592 40V31.5449H145.538V40H146.592ZM148.195 40H149.214V36.4141C149.214 35.3828 149.841 34.7031 150.802 34.7031C151.74 34.7031 152.203 35.2422 152.203 36.2266V40H153.222V36.0449C153.222 34.6621 152.449 33.8008 151.113 33.8008C150.17 33.8008 149.519 34.2227 149.179 34.8789H149.156V33.9062H148.195V40ZM156.952 40.1055C157.831 40.1055 158.528 39.6719 158.92 38.9688H158.938V40H159.911V31.5449H158.891V34.8965H158.868C158.504 34.2285 157.801 33.8008 156.928 33.8008C155.393 33.8008 154.344 35.043 154.344 36.9531C154.344 38.8633 155.399 40.1055 156.952 40.1055ZM157.145 34.6973C158.194 34.6973 158.897 35.5938 158.897 36.9531C158.897 38.3184 158.194 39.209 157.145 39.209C156.067 39.209 155.387 38.3359 155.387 36.9531C155.387 35.5762 156.067 34.6973 157.145 34.6973ZM163.933 40.1055C165.615 40.1055 166.751 38.8926 166.751 36.9531C166.751 35.0078 165.615 33.8008 163.933 33.8008C162.245 33.8008 161.109 35.0078 161.109 36.9531C161.109 38.8926 162.245 40.1055 163.933 40.1055ZM163.933 39.209C162.855 39.209 162.146 38.3887 162.146 36.9531C162.146 35.5176 162.855 34.6973 163.933 34.6973C165.011 34.6973 165.714 35.5176 165.714 36.9531C165.714 38.3887 165.011 39.209 163.933 39.209ZM167.903 40H168.922V36.4141C168.922 35.3828 169.549 34.7031 170.51 34.7031C171.448 34.7031 171.91 35.2422 171.91 36.2266V40H172.93V36.0449C172.93 34.6621 172.156 33.8008 170.821 33.8008C169.877 33.8008 169.227 34.2227 168.887 34.8789H168.864V33.9062H167.903V40ZM176.794 34.6855C177.755 34.6855 178.394 35.4121 178.417 36.4316H175.107C175.171 35.418 175.839 34.6855 176.794 34.6855ZM178.394 38.2539C178.224 38.8281 177.655 39.2207 176.882 39.2207C175.786 39.2207 175.101 38.4531 175.101 37.2871V37.2285H179.472V36.8418C179.472 34.9961 178.458 33.8008 176.812 33.8008C175.13 33.8008 174.052 35.084 174.052 36.9766C174.052 38.8926 175.112 40.1055 176.859 40.1055C178.189 40.1055 179.22 39.3203 179.396 38.2539H178.394ZM180.518 35.5879C180.518 36.4199 181.045 36.9707 182.117 37.2461L183.189 37.5215C183.875 37.7031 184.127 37.9375 184.127 38.3711C184.127 38.9219 183.617 39.2734 182.791 39.2734C181.965 39.2734 181.484 38.9336 181.373 38.3008H180.354C180.459 39.3789 181.391 40.1055 182.727 40.1055C184.15 40.1055 185.152 39.3555 185.152 38.2949C185.152 37.3984 184.707 36.9531 183.477 36.6426L182.533 36.4141C181.842 36.2383 181.52 35.957 181.52 35.5352C181.52 35.002 182.012 34.6328 182.756 34.6328C183.506 34.6328 183.98 34.9961 184.051 35.582H185.023C184.977 34.5508 184.051 33.8008 182.791 33.8008C181.449 33.8008 180.518 34.5449 180.518 35.5879ZM186.386 40H187.405V33.9062H186.386V40ZM186.895 32.8809C187.247 32.8809 187.534 32.5938 187.534 32.248C187.534 31.8965 187.247 31.6152 186.895 31.6152C186.55 31.6152 186.263 31.8965 186.263 32.248C186.263 32.5938 186.55 32.8809 186.895 32.8809ZM190.912 39.2383C190.179 39.2383 189.693 38.8574 189.693 38.2773C189.693 37.7031 190.162 37.3398 190.982 37.2871L192.611 37.1875V37.6855C192.611 38.5645 191.873 39.2383 190.912 39.2383ZM190.683 40.1055C191.504 40.1055 192.277 39.6484 192.64 38.9512H192.664V40H193.631V35.7871C193.631 34.5742 192.728 33.8008 191.299 33.8008C189.857 33.8008 188.955 34.6094 188.885 35.6641H189.869C189.998 35.0664 190.49 34.6973 191.275 34.6973C192.119 34.6973 192.611 35.1426 192.611 35.8867V36.3965L190.865 36.4961C189.459 36.5781 188.656 37.2344 188.656 38.2773C188.656 39.373 189.47 40.1055 190.683 40.1055Z" fill="#374151"/>
</svg>
