<svg width="226" height="26" viewBox="0 0 226 26" fill="none" xmlns="http://www.w3.org/2000/svg">
<rect width="73" height="26" rx="13" fill="#D6E4FF"/>
<path d="M17.875 17V13.3379H21.6191V12.4004H17.875V9.49414H21.9531V8.54492H16.8203V17H17.875ZM28.1259 10.9062H27.1063V14.4863C27.1063 15.5234 26.5087 16.2031 25.5184 16.2031C24.5751 16.2031 24.1122 15.6699 24.1122 14.6797V10.9062H23.0927V14.8613C23.0927 16.2441 23.872 17.1055 25.202 17.1055C26.1395 17.1055 26.7723 16.7129 27.1356 16.0098H27.1591V17H28.1259V10.9062ZM29.6228 17H30.6423V8.54492H29.6228V17ZM32.192 17H33.2116V8.54492H32.192V17ZM35.0366 9.43555V10.9062H34.1284V11.7441H35.0366V15.418C35.0366 16.5898 35.4702 17.0469 36.5894 17.0469C36.8296 17.0469 37.1109 17.0293 37.2339 17V16.1445C37.1636 16.1562 36.9292 16.1738 36.812 16.1738C36.2905 16.1738 36.0562 15.9219 36.0562 15.3652V11.7441H37.2398V10.9062H36.0562V9.43555H35.0366ZM38.5023 17H39.5219V10.9062H38.5023V17ZM39.0121 9.88086C39.3637 9.88086 39.6508 9.59375 39.6508 9.24805C39.6508 8.89648 39.3637 8.61523 39.0121 8.61523C38.6664 8.61523 38.3793 8.89648 38.3793 9.24805C38.3793 9.59375 38.6664 9.88086 39.0121 9.88086ZM41.0188 17H42.0384V13.1797C42.0384 12.3359 42.6243 11.7031 43.4329 11.7031C44.1887 11.7031 44.6809 12.1836 44.6809 12.916V17H45.7005V13.127C45.7005 12.3008 46.2688 11.7031 47.0774 11.7031C47.8802 11.7031 48.343 12.1953 48.343 13.0273V17H49.3626V12.793C49.3626 11.5859 48.5833 10.8008 47.3762 10.8008C46.5208 10.8008 45.8059 11.2344 45.4661 11.9609H45.4427C45.179 11.2227 44.5637 10.8008 43.7317 10.8008C42.9114 10.8008 42.2903 11.2344 42.0032 11.8789H41.9798V10.9062H41.0188V17ZM53.2267 11.6855C54.1877 11.6855 54.8263 12.4121 54.8498 13.4316H51.5392C51.6037 12.418 52.2716 11.6855 53.2267 11.6855ZM54.8263 15.2539C54.6564 15.8281 54.088 16.2207 53.3146 16.2207C52.2189 16.2207 51.5334 15.4531 51.5334 14.2871V14.2285H55.9045V13.8418C55.9045 11.9961 54.8908 10.8008 53.2443 10.8008C51.5627 10.8008 50.4845 12.084 50.4845 13.9766C50.4845 15.8926 51.5451 17.1055 53.2912 17.1055C54.6213 17.1055 55.6525 16.3203 55.8283 15.2539H54.8263Z" fill="#3366FF"/>
<rect x="81" width="72" height="26" rx="13" fill="#D6E4FF"/>
<path d="M98.875 9.48242H100.85C101.939 9.48242 102.596 10.0859 102.596 11.0996C102.596 12.1367 101.98 12.7227 100.896 12.7227H98.875V9.48242ZM98.875 13.6543H100.896L102.707 17H103.943L101.986 13.4902C103.047 13.1562 103.686 12.2422 103.686 11.0645C103.686 9.54102 102.619 8.54492 100.99 8.54492H97.8203V17H98.875V13.6543ZM107.421 11.6855C108.382 11.6855 109.02 12.4121 109.044 13.4316H105.733C105.798 12.418 106.466 11.6855 107.421 11.6855ZM109.02 15.2539C108.85 15.8281 108.282 16.2207 107.509 16.2207C106.413 16.2207 105.727 15.4531 105.727 14.2871V14.2285H110.099V13.8418C110.099 11.9961 109.085 10.8008 107.438 10.8008C105.757 10.8008 104.679 12.084 104.679 13.9766C104.679 15.8926 105.739 17.1055 107.485 17.1055C108.815 17.1055 109.847 16.3203 110.022 15.2539H109.02ZM111.25 17H112.269V13.1797C112.269 12.3359 112.855 11.7031 113.664 11.7031C114.42 11.7031 114.912 12.1836 114.912 12.916V17H115.931V13.127C115.931 12.3008 116.5 11.7031 117.308 11.7031C118.111 11.7031 118.574 12.1953 118.574 13.0273V17H119.594V12.793C119.594 11.5859 118.814 10.8008 117.607 10.8008C116.752 10.8008 116.037 11.2344 115.697 11.9609H115.674C115.41 11.2227 114.795 10.8008 113.963 10.8008C113.142 10.8008 112.521 11.2344 112.234 11.8789H112.211V10.9062H111.25V17ZM123.54 17.1055C125.221 17.1055 126.358 15.8926 126.358 13.9531C126.358 12.0078 125.221 10.8008 123.54 10.8008C121.852 10.8008 120.715 12.0078 120.715 13.9531C120.715 15.8926 121.852 17.1055 123.54 17.1055ZM123.54 16.209C122.462 16.209 121.753 15.3887 121.753 13.9531C121.753 12.5176 122.462 11.6973 123.54 11.6973C124.618 11.6973 125.321 12.5176 125.321 13.9531C125.321 15.3887 124.618 16.209 123.54 16.209ZM127.837 9.43555V10.9062H126.929V11.7441H127.837V15.418C127.837 16.5898 128.271 17.0469 129.39 17.0469C129.63 17.0469 129.912 17.0293 130.035 17V16.1445C129.964 16.1562 129.73 16.1738 129.613 16.1738C129.091 16.1738 128.857 15.9219 128.857 15.3652V11.7441H130.041V10.9062H128.857V9.43555H127.837ZM133.518 11.6855C134.479 11.6855 135.118 12.4121 135.141 13.4316H131.83C131.895 12.418 132.563 11.6855 133.518 11.6855ZM135.118 15.2539C134.948 15.8281 134.379 16.2207 133.606 16.2207C132.51 16.2207 131.825 15.4531 131.825 14.2871V14.2285H136.196V13.8418C136.196 11.9961 135.182 10.8008 133.536 10.8008C131.854 10.8008 130.776 12.084 130.776 13.9766C130.776 15.8926 131.836 17.1055 133.582 17.1055C134.912 17.1055 135.944 16.3203 136.12 15.2539H135.118Z" fill="#3366FF"/>
<rect x="161" width="65" height="26" rx="13" fill="#D6E4FF"/>
<path d="M177.416 14.6738C177.516 16.168 178.758 17.1406 180.551 17.1406C182.496 17.1406 183.715 16.1738 183.715 14.627C183.715 13.4141 183.006 12.7402 181.254 12.3008L180.369 12.0664C179.221 11.7676 178.752 11.3867 178.752 10.748C178.752 9.92188 179.514 9.35352 180.609 9.35352C181.711 9.35352 182.443 9.91016 182.537 10.8184H183.592C183.545 9.40039 182.326 8.4043 180.645 8.4043C178.887 8.4043 177.656 9.38867 177.656 10.7949C177.656 11.9434 178.348 12.6289 179.906 13.0273L180.99 13.3086C182.127 13.6016 182.625 14.041 182.625 14.7559C182.625 15.5879 181.793 16.1914 180.65 16.1914C179.443 16.1914 178.576 15.5879 178.477 14.6738H177.416ZM187.35 11.6855C188.311 11.6855 188.95 12.4121 188.974 13.4316H185.663C185.727 12.418 186.395 11.6855 187.35 11.6855ZM188.95 15.2539C188.78 15.8281 188.212 16.2207 187.438 16.2207C186.343 16.2207 185.657 15.4531 185.657 14.2871V14.2285H190.028V13.8418C190.028 11.9961 189.015 10.8008 187.368 10.8008C185.686 10.8008 184.608 12.084 184.608 13.9766C184.608 15.8926 185.669 17.1055 187.415 17.1055C188.745 17.1055 189.776 16.3203 189.952 15.2539H188.95ZM191.179 17H192.199V13.4141C192.199 12.3828 192.826 11.7031 193.787 11.7031C194.724 11.7031 195.187 12.2422 195.187 13.2266V17H196.207V13.0449C196.207 11.6621 195.433 10.8008 194.097 10.8008C193.154 10.8008 192.504 11.2227 192.164 11.8789H192.14V10.9062H191.179V17ZM197.68 17H198.7V10.9062H197.68V17ZM198.19 9.88086C198.542 9.88086 198.829 9.59375 198.829 9.24805C198.829 8.89648 198.542 8.61523 198.19 8.61523C197.844 8.61523 197.557 8.89648 197.557 9.24805C197.557 9.59375 197.844 9.88086 198.19 9.88086ZM202.722 17.1055C204.404 17.1055 205.541 15.8926 205.541 13.9531C205.541 12.0078 204.404 10.8008 202.722 10.8008C201.035 10.8008 199.898 12.0078 199.898 13.9531C199.898 15.8926 201.035 17.1055 202.722 17.1055ZM202.722 16.209C201.644 16.209 200.935 15.3887 200.935 13.9531C200.935 12.5176 201.644 11.6973 202.722 11.6973C203.8 11.6973 204.503 12.5176 204.503 13.9531C204.503 15.3887 203.8 16.209 202.722 16.209ZM206.692 17H207.711V13.2031C207.711 12.3418 208.227 11.7734 209.018 11.7734C209.264 11.7734 209.481 11.8027 209.563 11.832V10.8418C209.481 10.8301 209.329 10.8008 209.153 10.8008C208.438 10.8008 207.875 11.2285 207.676 11.9023H207.653V10.9062H206.692V17Z" fill="#3366FF"/>
</svg>
