<svg width="327" height="45" viewBox="0 0 327 45" fill="none" xmlns="http://www.w3.org/2000/svg">
<path d="M8.38281 16H10.2344L6.16406 4.72656H4.27344L0.203125 16H2.02344L3.05469 12.9531H7.35156L8.38281 16ZM5.17969 6.60156H5.22656L6.90625 11.5469H3.5L5.17969 6.60156ZM14.3006 16.1406C15.4959 16.1406 16.4334 15.5391 16.9178 14.6016H16.9491V16H18.5897V4.72656H16.8944V9.14844H16.8631C16.4022 8.24219 15.4647 7.64844 14.285 7.64844C12.2225 7.64844 10.8475 9.29688 10.8475 11.8906C10.8475 14.4844 12.2225 16.1406 14.3006 16.1406ZM14.7459 9.07031C16.0428 9.07031 16.91 10.1875 16.91 11.8906C16.91 13.6094 16.0428 14.7109 14.7459 14.7109C13.41 14.7109 12.5741 13.625 12.5741 11.8906C12.5741 10.1641 13.41 9.07031 14.7459 9.07031ZM23.57 16.1406C24.7653 16.1406 25.7028 15.5391 26.1872 14.6016H26.2184V16H27.8591V4.72656H26.1637V9.14844H26.1325C25.6716 8.24219 24.7341 7.64844 23.5544 7.64844C21.4919 7.64844 20.1169 9.29688 20.1169 11.8906C20.1169 14.4844 21.4919 16.1406 23.57 16.1406ZM24.0153 9.07031C25.3122 9.07031 26.1794 10.1875 26.1794 11.8906C26.1794 13.6094 25.3122 14.7109 24.0153 14.7109C22.6794 14.7109 21.8434 13.625 21.8434 11.8906C21.8434 10.1641 22.6794 9.07031 24.0153 9.07031ZM37.4447 7.64844C36.2572 7.64844 35.3119 8.25 34.8275 9.19531H34.7962V7.78125H33.1634V18.7188H34.8509V14.6484H34.89C35.3587 15.5625 36.2962 16.1406 37.4759 16.1406C39.5384 16.1406 40.9056 14.4922 40.9056 11.8906C40.9056 9.28906 39.5306 7.64844 37.4447 7.64844ZM36.9994 14.7109C35.7025 14.7109 34.8431 13.6016 34.8431 11.8906C34.8431 10.1953 35.7103 9.07031 36.9994 9.07031C38.3353 9.07031 39.1712 10.1719 39.1712 11.8906C39.1712 13.6172 38.3353 14.7109 36.9994 14.7109ZM42.4328 16H44.1203V11.25C44.1203 9.95312 44.8859 9.09375 46.1359 9.09375C47.3234 9.09375 47.9328 9.82031 47.9328 11.0312V16H49.6281V10.7031C49.6281 8.84375 48.55 7.64062 46.7453 7.64062C45.4953 7.64062 44.5969 8.19531 44.1437 9.15625H44.1047V4.72656H42.4328V16ZM54.9522 16.1562C57.3037 16.1562 58.8506 14.5391 58.8506 11.8906C58.8506 9.25 57.2959 7.63281 54.9522 7.63281C52.6084 7.63281 51.0537 9.25 51.0537 11.8906C51.0537 14.5391 52.6006 16.1562 54.9522 16.1562ZM54.9522 14.7656C53.6319 14.7656 52.7725 13.7188 52.7725 11.8906C52.7725 10.0703 53.6319 9.02344 54.9522 9.02344C56.2725 9.02344 57.1319 10.0703 57.1319 11.8906C57.1319 13.7188 56.2803 14.7656 54.9522 14.7656ZM60.3153 16H62.0028V11.2109C62.0028 9.9375 62.7684 9.09375 63.9559 9.09375C65.1278 9.09375 65.7059 9.77344 65.7059 11.0078V16H67.4012V10.6797C67.4012 8.79688 66.3622 7.64062 64.5497 7.64062C63.2841 7.64062 62.4091 8.21875 61.9637 9.15625H61.9247V7.78125H60.3153V16ZM72.6316 8.99219C73.8112 8.99219 74.6081 9.875 74.6472 11.1328H70.5378C70.6237 9.89062 71.4519 8.99219 72.6316 8.99219ZM74.6394 13.5859C74.4128 14.3047 73.7019 14.7891 72.7409 14.7891C71.3894 14.7891 70.53 13.8438 70.53 12.4141V12.3125H76.3347V11.7344C76.3347 9.24219 74.9128 7.63281 72.6316 7.63281C70.3112 7.63281 68.8269 9.35156 68.8269 11.9297C68.8269 14.5234 70.2878 16.1562 72.7019 16.1562C74.5847 16.1562 76.0066 15.0859 76.2409 13.5859H74.6394ZM81.2172 16H82.9047V11.2109C82.9047 9.9375 83.6703 9.09375 84.8578 9.09375C86.0297 9.09375 86.6078 9.77344 86.6078 11.0078V16H88.3031V10.6797C88.3031 8.79688 87.2641 7.64062 85.4516 7.64062C84.1859 7.64062 83.3109 8.21875 82.8656 9.15625H82.8266V7.78125H81.2172V16ZM97.1428 7.78125H95.4553V12.5703C95.4553 13.8516 94.7209 14.6953 93.5022 14.6953C92.3381 14.6953 91.7444 14.0234 91.7444 12.7734V7.78125H90.0569V13.1016C90.0569 14.9844 91.1506 16.1484 92.9397 16.1484C94.1975 16.1484 95.0334 15.5938 95.4866 14.6094H95.5256V16H97.1428V7.78125ZM98.9747 16H100.662V10.9219C100.662 9.86719 101.373 9.08594 102.373 9.08594C103.326 9.08594 103.928 9.6875 103.928 10.6328V16H105.584V10.8672C105.584 9.82812 106.279 9.08594 107.279 9.08594C108.279 9.08594 108.85 9.69531 108.85 10.7578V16H110.545V10.3516C110.545 8.71875 109.482 7.64062 107.857 7.64062C106.686 7.64062 105.717 8.25 105.295 9.25H105.256C104.928 8.22656 104.1 7.64062 102.959 7.64062C101.85 7.64062 100.99 8.25 100.623 9.16406H100.584V7.78125H98.9747V16ZM116.713 16.1406C118.799 16.1406 120.143 14.5 120.143 11.8906C120.143 9.28906 118.791 7.64844 116.721 7.64844C115.557 7.64844 114.619 8.22656 114.127 9.17969H114.088V4.72656H112.4V16H114.041V14.6016H114.072C114.58 15.5547 115.51 16.1406 116.713 16.1406ZM116.26 9.07031C117.588 9.07031 118.408 10.1641 118.408 11.8906C118.408 13.6328 117.588 14.7109 116.26 14.7109C114.978 14.7109 114.08 13.6016 114.08 11.8906C114.08 10.1953 114.978 9.07031 116.26 9.07031ZM125.06 8.99219C126.24 8.99219 127.037 9.875 127.076 11.1328H122.967C123.052 9.89062 123.881 8.99219 125.06 8.99219ZM127.068 13.5859C126.842 14.3047 126.131 14.7891 125.17 14.7891C123.818 14.7891 122.959 13.8438 122.959 12.4141V12.3125H128.763V11.7344C128.763 9.24219 127.342 7.63281 125.06 7.63281C122.74 7.63281 121.256 9.35156 121.256 11.9297C121.256 14.5234 122.717 16.1562 125.131 16.1562C127.013 16.1562 128.435 15.0859 128.67 13.5859H127.068ZM130.236 16H131.923V11.0781C131.923 9.91406 132.595 9.1875 133.681 9.1875C134.009 9.1875 134.306 9.22656 134.439 9.28125V7.71094C134.314 7.6875 134.103 7.64844 133.861 7.64844C132.892 7.64844 132.158 8.21875 131.884 9.17969H131.845V7.78125H130.236V16Z" fill="#111827"/>
<path d="M6.43262 32.1729H6.50098L8.77734 40H9.93945L12.626 30.1357H11.3408L9.36523 38.1885H9.31055L7.08887 30.1357H5.84473L3.62305 38.1885H3.56836L1.59277 30.1357H0.307617L2.99414 40H4.15625L6.43262 32.1729ZM15.9447 33.7998C17.0658 33.7998 17.8109 34.6475 17.8382 35.8369H13.9759C14.0511 34.6543 14.8304 33.7998 15.9447 33.7998ZM17.8109 37.9629C17.6127 38.6328 16.9496 39.0908 16.0472 39.0908C14.7689 39.0908 13.9691 38.1953 13.9691 36.835V36.7666H19.0687V36.3154C19.0687 34.1621 17.8861 32.7676 15.9652 32.7676C14.0033 32.7676 12.7455 34.2646 12.7455 36.4727C12.7455 38.708 13.9828 40.123 16.0199 40.123C17.5716 40.123 18.7748 39.207 18.9798 37.9629H17.8109ZM32.4669 32.8906H31.2911L29.8692 38.6738H29.8419L28.2286 32.8906H27.0802L25.4737 38.6738H25.4464L24.0245 32.8906H22.8419L24.8311 40H26.0411L27.6407 34.4971H27.668L29.2745 40H30.4845L32.4669 32.8906ZM33.6459 40H34.8354V32.8906H33.6459V40ZM34.2407 31.6943C34.6508 31.6943 34.9858 31.3594 34.9858 30.9561C34.9858 30.5459 34.6508 30.2178 34.2407 30.2178C33.8373 30.2178 33.5024 30.5459 33.5024 30.9561C33.5024 31.3594 33.8373 31.6943 34.2407 31.6943ZM36.6434 40H37.8328V30.1357H36.6434V40ZM39.6408 40H40.8302V30.1357H39.6408V40ZM45.4647 34.8525C45.4647 35.8232 46.08 36.4658 47.3309 36.7871L48.5819 37.1084C49.3817 37.3203 49.6757 37.5938 49.6757 38.0996C49.6757 38.7422 49.0809 39.1523 48.1171 39.1523C47.1532 39.1523 46.5927 38.7559 46.4628 38.0176H45.2733C45.3964 39.2754 46.4833 40.123 48.0419 40.123C49.703 40.123 50.872 39.248 50.872 38.0107C50.872 36.9648 50.3524 36.4453 48.9169 36.083L47.8163 35.8164C47.0096 35.6113 46.6337 35.2832 46.6337 34.791C46.6337 34.1689 47.2079 33.7383 48.0761 33.7383C48.9511 33.7383 49.5048 34.1621 49.5868 34.8457H50.7216C50.6669 33.6426 49.5868 32.7676 48.1171 32.7676C46.5516 32.7676 45.4647 33.6357 45.4647 34.8525ZM55.0998 33.7998C56.2209 33.7998 56.9661 34.6475 56.9934 35.8369H53.1311C53.2063 34.6543 53.9856 33.7998 55.0998 33.7998ZM56.9661 37.9629C56.7678 38.6328 56.1047 39.0908 55.2024 39.0908C53.9241 39.0908 53.1243 38.1953 53.1243 36.835V36.7666H58.2239V36.3154C58.2239 34.1621 57.0412 32.7676 55.1203 32.7676C53.1584 32.7676 51.9006 34.2646 51.9006 36.4727C51.9006 38.708 53.1379 40.123 55.175 40.123C56.7268 40.123 57.9299 39.207 58.135 37.9629H56.9661ZM59.567 40H60.7564V35.8164C60.7564 34.6133 61.4879 33.8203 62.609 33.8203C63.7027 33.8203 64.2428 34.4492 64.2428 35.5977V40H65.4322V35.3857C65.4322 33.7725 64.5299 32.7676 62.9713 32.7676C61.8707 32.7676 61.1119 33.2598 60.7154 34.0254H60.6881V32.8906H59.567V40ZM69.7832 40.123C70.8086 40.123 71.622 39.6172 72.08 38.7969H72.1005V40H73.2353V30.1357H72.0459V34.0459H72.0185C71.5947 33.2666 70.7744 32.7676 69.7558 32.7676C67.9648 32.7676 66.7412 34.2168 66.7412 36.4453C66.7412 38.6738 67.9716 40.123 69.7832 40.123ZM70.0088 33.8135C71.2324 33.8135 72.0527 34.8594 72.0527 36.4453C72.0527 38.0381 71.2324 39.0771 70.0088 39.0771C68.7509 39.0771 67.958 38.0586 67.958 36.4453C67.958 34.8389 68.7509 33.8135 70.0088 33.8135ZM80.3376 39.1113C79.4831 39.1113 78.9157 38.667 78.9157 37.9902C78.9157 37.3203 79.4626 36.8965 80.4196 36.835L82.32 36.7188V37.2998C82.32 38.3252 81.4587 39.1113 80.3376 39.1113ZM80.071 40.123C81.028 40.123 81.9304 39.5898 82.3542 38.7764H82.3815V40H83.5095V35.085C83.5095 33.6699 82.4567 32.7676 80.7887 32.7676C79.1071 32.7676 78.0544 33.7109 77.9723 34.9414H79.1208C79.2712 34.2441 79.8454 33.8135 80.7614 33.8135C81.7458 33.8135 82.32 34.333 82.32 35.2012V35.7959L80.2829 35.9121C78.6423 36.0078 77.7057 36.7734 77.7057 37.9902C77.7057 39.2686 78.6559 40.123 80.071 40.123ZM94.0023 32.8906H92.765L90.7963 38.7354H90.7689L88.807 32.8906H87.5561L90.1742 40H91.391L94.0023 32.8906ZM97.7244 33.7998C98.8455 33.7998 99.5906 34.6475 99.6179 35.8369H95.7556C95.8308 34.6543 96.6101 33.7998 97.7244 33.7998ZM99.5906 37.9629C99.3923 38.6328 98.7293 39.0908 97.8269 39.0908C96.5486 39.0908 95.7488 38.1953 95.7488 36.835V36.7666H100.848V36.3154C100.848 34.1621 99.6658 32.7676 97.7449 32.7676C95.783 32.7676 94.5252 34.2646 94.5252 36.4727C94.5252 38.708 95.7625 40.123 97.7996 40.123C99.3513 40.123 100.554 39.207 100.76 37.9629H99.5906ZM102.192 40H103.381V35.5703C103.381 34.5654 103.983 33.9023 104.905 33.9023C105.192 33.9023 105.445 33.9365 105.541 33.9707V32.8154C105.445 32.8018 105.268 32.7676 105.063 32.7676C104.229 32.7676 103.572 33.2666 103.34 34.0527H103.313V32.8906H102.192V40ZM106.713 40H107.903V32.8906H106.713V40ZM107.308 31.6943C107.718 31.6943 108.053 31.3594 108.053 30.9561C108.053 30.5459 107.718 30.2178 107.308 30.2178C106.905 30.2178 106.57 30.5459 106.57 30.9561C106.57 31.3594 106.905 31.6943 107.308 31.6943ZM110.032 40H111.222V33.8682H112.671V32.8906H111.215V32.1045C111.215 31.4004 111.522 31.0586 112.165 31.0586C112.363 31.0586 112.561 31.0791 112.705 31.0996V30.1357C112.534 30.1084 112.247 30.0811 111.98 30.0811C110.668 30.0811 110.032 30.7305 110.032 32.0977V32.8906H109.041V33.8682H110.032V40ZM114.103 40H115.292V32.8906H114.103V40ZM114.697 31.6943C115.108 31.6943 115.443 31.3594 115.443 30.9561C115.443 30.5459 115.108 30.2178 114.697 30.2178C114.294 30.2178 113.959 30.5459 113.959 30.9561C113.959 31.3594 114.294 31.6943 114.697 31.6943ZM122.945 35.2217C122.794 33.9434 121.735 32.7676 119.958 32.7676C117.996 32.7676 116.69 34.2031 116.69 36.4453C116.69 38.7354 118.003 40.123 119.971 40.123C121.585 40.123 122.774 39.125 122.959 37.71H121.79C121.585 38.5645 120.949 39.0771 119.978 39.0771C118.748 39.0771 117.9 38.0996 117.9 36.4453C117.9 34.832 118.734 33.8135 119.964 33.8135C121.01 33.8135 121.612 34.4492 121.783 35.2217H122.945ZM126.537 39.1113C125.683 39.1113 125.115 38.667 125.115 37.9902C125.115 37.3203 125.662 36.8965 126.619 36.835L128.519 36.7188V37.2998C128.519 38.3252 127.658 39.1113 126.537 39.1113ZM126.27 40.123C127.227 40.123 128.13 39.5898 128.554 38.7764H128.581V40H129.709V35.085C129.709 33.6699 128.656 32.7676 126.988 32.7676C125.307 32.7676 124.254 33.7109 124.172 34.9414H125.32C125.471 34.2441 126.045 33.8135 126.961 33.8135C127.945 33.8135 128.519 34.333 128.519 35.2012V35.7959L126.482 35.9121C124.842 36.0078 123.905 36.7734 123.905 37.9902C123.905 39.2686 124.855 40.123 126.27 40.123ZM131.742 31.1748V32.8906H130.683V33.8682H131.742V38.1543C131.742 39.5215 132.248 40.0547 133.554 40.0547C133.834 40.0547 134.162 40.0342 134.306 40V39.002C134.224 39.0156 133.95 39.0361 133.814 39.0361C133.205 39.0361 132.932 38.7422 132.932 38.0928V33.8682H134.313V32.8906H132.932V31.1748H131.742ZM135.786 40H136.975V32.8906H135.786V40ZM136.381 31.6943C136.791 31.6943 137.126 31.3594 137.126 30.9561C137.126 30.5459 136.791 30.2178 136.381 30.2178C135.977 30.2178 135.642 30.5459 135.642 30.9561C135.642 31.3594 135.977 31.6943 136.381 31.6943ZM141.668 40.123C143.63 40.123 144.956 38.708 144.956 36.4453C144.956 34.1758 143.63 32.7676 141.668 32.7676C139.699 32.7676 138.373 34.1758 138.373 36.4453C138.373 38.708 139.699 40.123 141.668 40.123ZM141.668 39.0771C140.41 39.0771 139.583 38.1201 139.583 36.4453C139.583 34.7705 140.41 33.8135 141.668 33.8135C142.926 33.8135 143.746 34.7705 143.746 36.4453C143.746 38.1201 142.926 39.0771 141.668 39.0771ZM146.299 40H147.489V35.8164C147.489 34.6133 148.22 33.8203 149.341 33.8203C150.435 33.8203 150.975 34.4492 150.975 35.5977V40H152.164V35.3857C152.164 33.7725 151.262 32.7676 149.703 32.7676C148.603 32.7676 147.844 33.2598 147.448 34.0254H147.42V32.8906H146.299V40ZM162.739 35.2217C162.589 33.9434 161.529 32.7676 159.752 32.7676C157.79 32.7676 156.484 34.2031 156.484 36.4453C156.484 38.7354 157.797 40.123 159.766 40.123C161.379 40.123 162.568 39.125 162.753 37.71H161.584C161.379 38.5645 160.743 39.0771 159.773 39.0771C158.542 39.0771 157.694 38.0996 157.694 36.4453C157.694 34.832 158.528 33.8135 159.759 33.8135C160.805 33.8135 161.406 34.4492 161.577 35.2217H162.739ZM166.933 40.123C168.895 40.123 170.221 38.708 170.221 36.4453C170.221 34.1758 168.895 32.7676 166.933 32.7676C164.964 32.7676 163.638 34.1758 163.638 36.4453C163.638 38.708 164.964 40.123 166.933 40.123ZM166.933 39.0771C165.675 39.0771 164.848 38.1201 164.848 36.4453C164.848 34.7705 165.675 33.8135 166.933 33.8135C168.191 33.8135 169.011 34.7705 169.011 36.4453C169.011 38.1201 168.191 39.0771 166.933 39.0771ZM174.258 40.123C175.283 40.123 176.096 39.6172 176.554 38.7969H176.575V40H177.71V30.1357H176.52V34.0459H176.493C176.069 33.2666 175.249 32.7676 174.23 32.7676C172.439 32.7676 171.216 34.2168 171.216 36.4453C171.216 38.6738 172.446 40.123 174.258 40.123ZM174.483 33.8135C175.707 33.8135 176.527 34.8594 176.527 36.4453C176.527 38.0381 175.707 39.0771 174.483 39.0771C173.225 39.0771 172.432 38.0586 172.432 36.4453C172.432 34.8389 173.225 33.8135 174.483 33.8135ZM182.307 33.7998C183.428 33.7998 184.173 34.6475 184.2 35.8369H180.338C180.413 34.6543 181.193 33.7998 182.307 33.7998ZM184.173 37.9629C183.975 38.6328 183.312 39.0908 182.409 39.0908C181.131 39.0908 180.331 38.1953 180.331 36.835V36.7666H185.431V36.3154C185.431 34.1621 184.248 32.7676 182.327 32.7676C180.365 32.7676 179.108 34.2646 179.108 36.4727C179.108 38.708 180.345 40.123 182.382 40.123C183.934 40.123 185.137 39.207 185.342 37.9629H184.173ZM190.168 31.1748V32.8906H189.108V33.8682H190.168V38.1543C190.168 39.5215 190.674 40.0547 191.979 40.0547C192.26 40.0547 192.588 40.0342 192.731 40V39.002C192.649 39.0156 192.376 39.0361 192.239 39.0361C191.631 39.0361 191.357 38.7422 191.357 38.0928V33.8682H192.738V32.8906H191.357V31.1748H190.168ZM196.891 40.123C198.853 40.123 200.179 38.708 200.179 36.4453C200.179 34.1758 198.853 32.7676 196.891 32.7676C194.922 32.7676 193.596 34.1758 193.596 36.4453C193.596 38.708 194.922 40.123 196.891 40.123ZM196.891 39.0771C195.633 39.0771 194.806 38.1201 194.806 36.4453C194.806 34.7705 195.633 33.8135 196.891 33.8135C198.149 33.8135 198.969 34.7705 198.969 36.4453C198.969 38.1201 198.149 39.0771 196.891 39.0771ZM204.916 31.1748V32.8906H203.856V33.8682H204.916V38.1543C204.916 39.5215 205.422 40.0547 206.727 40.0547C207.008 40.0547 207.336 40.0342 207.479 40V39.002C207.397 39.0156 207.124 39.0361 206.987 39.0361C206.379 39.0361 206.105 38.7422 206.105 38.0928V33.8682H207.486V32.8906H206.105V31.1748H204.916ZM208.959 40H210.149V35.8574C210.149 34.627 210.88 33.8203 212.063 33.8203C213.177 33.8203 213.744 34.4971 213.744 35.625V40H214.934V35.4062C214.934 33.8203 213.991 32.7676 212.432 32.7676C211.352 32.7676 210.573 33.2324 210.176 34.0254H210.149V30.1357H208.959V40ZM216.646 40H217.836V32.8906H216.646V40ZM217.241 31.6943C217.651 31.6943 217.986 31.3594 217.986 30.9561C217.986 30.5459 217.651 30.2178 217.241 30.2178C216.838 30.2178 216.503 30.5459 216.503 30.9561C216.503 31.3594 216.838 31.6943 217.241 31.6943ZM219.459 34.8525C219.459 35.8232 220.074 36.4658 221.325 36.7871L222.576 37.1084C223.376 37.3203 223.67 37.5938 223.67 38.0996C223.67 38.7422 223.075 39.1523 222.111 39.1523C221.148 39.1523 220.587 38.7559 220.457 38.0176H219.268C219.391 39.2754 220.478 40.123 222.036 40.123C223.697 40.123 224.866 39.248 224.866 38.0107C224.866 36.9648 224.347 36.4453 222.911 36.083L221.811 35.8164C221.004 35.6113 220.628 35.2832 220.628 34.791C220.628 34.1689 221.202 33.7383 222.07 33.7383C222.945 33.7383 223.499 34.1621 223.581 34.8457H224.716C224.661 33.6426 223.581 32.7676 222.111 32.7676C220.546 32.7676 219.459 33.6357 219.459 34.8525ZM229.255 40H230.444V35.8164C230.444 34.6133 231.176 33.8203 232.297 33.8203C233.39 33.8203 233.93 34.4492 233.93 35.5977V40H235.12V35.3857C235.12 33.7725 234.218 32.7676 232.659 32.7676C231.558 32.7676 230.8 33.2598 230.403 34.0254H230.376V32.8906H229.255V40ZM242.615 32.8906H241.426V37.0674C241.426 38.2773 240.729 39.0703 239.573 39.0703C238.473 39.0703 237.933 38.4482 237.933 37.293V32.8906H236.743V37.5049C236.743 39.1182 237.652 40.123 239.204 40.123C240.298 40.123 241.036 39.665 241.46 38.8447H241.487V40H242.615V32.8906ZM244.3 40H245.49V35.543C245.49 34.5586 246.173 33.8203 247.117 33.8203C247.999 33.8203 248.573 34.3809 248.573 35.2354V40H249.762V35.4814C249.762 34.5176 250.425 33.8203 251.369 33.8203C252.305 33.8203 252.845 34.3945 252.845 35.3652V40H254.035V35.0918C254.035 33.6836 253.125 32.7676 251.717 32.7676C250.719 32.7676 249.885 33.2734 249.489 34.1211H249.461C249.154 33.2598 248.436 32.7676 247.465 32.7676C246.508 32.7676 245.784 33.2734 245.449 34.0254H245.421V32.8906H244.3V40ZM259.226 40.123C261.045 40.123 262.248 38.6807 262.248 36.4453C262.248 34.2168 261.038 32.7676 259.247 32.7676C258.242 32.7676 257.415 33.2666 256.971 34.0801H256.943V30.1357H255.754V40H256.889V38.7969H256.916C257.374 39.6172 258.187 40.123 259.226 40.123ZM258.994 33.8135C260.252 33.8135 261.031 34.832 261.031 36.4453C261.031 38.0723 260.252 39.0771 258.994 39.0771C257.791 39.0771 256.936 38.0312 256.936 36.4453C256.936 34.8662 257.791 33.8135 258.994 33.8135ZM266.448 33.7998C267.57 33.7998 268.315 34.6475 268.342 35.8369H264.48C264.555 34.6543 265.334 33.7998 266.448 33.7998ZM268.315 37.9629C268.116 38.6328 267.453 39.0908 266.551 39.0908C265.273 39.0908 264.473 38.1953 264.473 36.835V36.7666H269.572V36.3154C269.572 34.1621 268.39 32.7676 266.469 32.7676C264.507 32.7676 263.249 34.2646 263.249 36.4727C263.249 38.708 264.487 40.123 266.524 40.123C268.075 40.123 269.279 39.207 269.484 37.9629H268.315ZM270.916 40H272.105V35.5703C272.105 34.5654 272.707 33.9023 273.629 33.9023C273.917 33.9023 274.169 33.9365 274.265 33.9707V32.8154C274.169 32.8018 273.992 32.7676 273.787 32.7676C272.953 32.7676 272.296 33.2666 272.064 34.0527H272.037V32.8906H270.916V40Z" fill="#6B7280"/>
</svg>
