<svg width="327" height="60" viewBox="0 0 327 60" fill="none" xmlns="http://www.w3.org/2000/svg">
<circle cx="22" cy="30" r="22" fill="#D6E4FF"/>
<path d="M26 40.75H19C15.56 40.75 13.25 38.44 13.25 35V25C13.25 21.56 15.56 19.25 19 19.25H26C29.44 19.25 31.75 21.56 31.75 25V35C31.75 38.44 29.44 40.75 26 40.75ZM19 20.75C16.42 20.75 14.75 22.42 14.75 25V35C14.75 37.58 16.42 39.25 19 39.25H26C28.58 39.25 30.25 37.58 30.25 35V25C30.25 22.42 28.58 20.75 26 20.75H19Z" fill="#3366FF"/>
<path d="M31 33.75H14C13.59 33.75 13.25 33.41 13.25 33C13.25 32.59 13.59 32.25 14 32.25H31C31.41 32.25 31.75 32.59 31.75 33C31.75 33.41 31.41 33.75 31 33.75Z" fill="#3366FF"/>
<path d="M18 30.75H17C16.59 30.75 16.25 30.41 16.25 30C16.25 29.59 16.59 29.25 17 29.25H18C18.41 29.25 18.75 29.59 18.75 30C18.75 30.41 18.41 30.75 18 30.75Z" fill="#3366FF"/>
<path d="M18 28.25H17C16.59 28.25 16.25 27.91 16.25 27.5C16.25 27.09 16.59 26.75 17 26.75H18C18.41 26.75 18.75 27.09 18.75 27.5C18.75 27.91 18.41 28.25 18 28.25Z" fill="#3366FF"/>
<path d="M18 25.75H17C16.59 25.75 16.25 25.41 16.25 25C16.25 24.59 16.59 24.25 17 24.25H18C18.41 24.25 18.75 24.59 18.75 25C18.75 25.41 18.41 25.75 18 25.75Z" fill="#3366FF"/>
<path d="M27 37.5C26.74 37.5 26.48 37.39 26.29 37.21C26.11 37.02 26 36.76 26 36.5C26 36.23 26.11 35.98 26.29 35.79C26.57 35.51 27.01 35.42 27.38 35.58C27.5 35.63 27.61 35.7 27.71 35.79C27.89 35.98 28 36.24 28 36.5C28 36.76 27.89 37.02 27.71 37.21C27.61 37.3 27.51 37.37 27.38 37.42C27.26 37.47 27.13 37.5 27 37.5Z" fill="#3366FF"/>
<path d="M63.3691 15H64.6611L61.0244 5.13574H59.8076L56.1709 15H57.4629L58.4541 12.1768H62.3779L63.3691 15ZM60.3955 6.63281H60.4365L62.0156 11.1309H58.8164L60.3955 6.63281ZM68.3011 15.123C69.3265 15.123 70.14 14.6172 70.598 13.7969H70.6185V15H71.7533V5.13574H70.5638V9.0459H70.5365C70.1127 8.2666 69.2923 7.76758 68.2738 7.76758C66.4828 7.76758 65.2591 9.2168 65.2591 11.4453C65.2591 13.6738 66.4896 15.123 68.3011 15.123ZM68.5267 8.81348C69.7504 8.81348 70.5707 9.85938 70.5707 11.4453C70.5707 13.0381 69.7504 14.0771 68.5267 14.0771C67.2689 14.0771 66.4759 13.0586 66.4759 11.4453C66.4759 9.83887 67.2689 8.81348 68.5267 8.81348ZM76.1931 15.123C77.2185 15.123 78.032 14.6172 78.49 13.7969H78.5105V15H79.6452V5.13574H78.4558V9.0459H78.4284C78.0046 8.2666 77.1843 7.76758 76.1657 7.76758C74.3747 7.76758 73.1511 9.2168 73.1511 11.4453C73.1511 13.6738 74.3816 15.123 76.1931 15.123ZM76.4187 8.81348C77.6423 8.81348 78.4626 9.85938 78.4626 11.4453C78.4626 13.0381 77.6423 14.0771 76.4187 14.0771C75.1609 14.0771 74.3679 13.0586 74.3679 11.4453C74.3679 9.83887 75.1609 8.81348 76.4187 8.81348ZM81.4532 15H82.6427V7.89062H81.4532V15ZM82.0479 6.69434C82.4581 6.69434 82.793 6.35938 82.793 5.95605C82.793 5.5459 82.4581 5.21777 82.0479 5.21777C81.6446 5.21777 81.3096 5.5459 81.3096 5.95605C81.3096 6.35938 81.6446 6.69434 82.0479 6.69434ZM84.3891 15H85.5786V10.8164C85.5786 9.61328 86.31 8.82031 87.4311 8.82031C88.5248 8.82031 89.0649 9.44922 89.0649 10.5977V15H90.2543V10.3857C90.2543 8.77246 89.352 7.76758 87.7934 7.76758C86.6928 7.76758 85.934 8.25977 85.5375 9.02539H85.5102V7.89062H84.3891V15ZM94.8035 14.0088C93.5799 14.0088 92.7801 13.0107 92.7801 11.418C92.7801 9.8252 93.5799 8.81348 94.8035 8.81348C96.0408 8.81348 96.868 9.85254 96.868 11.418C96.868 12.9834 96.0408 14.0088 94.8035 14.0088ZM94.8445 17.6797C96.8064 17.6797 98.0574 16.5518 98.0574 14.8564V7.89062H96.9227V9.08691H96.9021C96.4305 8.25977 95.5965 7.76758 94.5916 7.76758C92.7527 7.76758 91.5633 9.18945 91.5633 11.418C91.5633 13.626 92.7527 15.0547 94.5643 15.0547C95.5623 15.0547 96.4031 14.5488 96.8406 13.7764H96.868V14.8975C96.868 15.957 96.1229 16.668 94.8924 16.668C94.0037 16.668 93.2996 16.2373 93.0672 15.5879H91.8436C92.0418 16.7979 93.2791 17.6797 94.8445 17.6797ZM105.105 14.1113C104.251 14.1113 103.683 13.667 103.683 12.9902C103.683 12.3203 104.23 11.8965 105.187 11.835L107.087 11.7188V12.2998C107.087 13.3252 106.226 14.1113 105.105 14.1113ZM104.838 15.123C105.795 15.123 106.698 14.5898 107.122 13.7764H107.149V15H108.277V10.085C108.277 8.66992 107.224 7.76758 105.556 7.76758C103.875 7.76758 102.822 8.71094 102.74 9.94141H103.888C104.039 9.24414 104.613 8.81348 105.529 8.81348C106.513 8.81348 107.087 9.33301 107.087 10.2012V10.7959L105.05 10.9121C103.41 11.0078 102.473 11.7734 102.473 12.9902C102.473 14.2686 103.423 15.123 104.838 15.123ZM116.391 7.76758C115.359 7.76758 114.531 8.29395 114.094 9.09375H114.067V7.89062H112.939V17.3721H114.128V13.8447H114.156C114.579 14.624 115.4 15.123 116.418 15.123C118.209 15.123 119.433 13.6738 119.433 11.4453C119.433 9.2168 118.202 7.76758 116.391 7.76758ZM116.158 14.0771C114.942 14.0771 114.121 13.0312 114.121 11.4453C114.121 9.86621 114.942 8.81348 116.158 8.81348C117.423 8.81348 118.216 9.83887 118.216 11.4453C118.216 13.0586 117.423 14.0771 116.158 14.0771ZM120.838 15H122.027V10.8574C122.027 9.62695 122.758 8.82031 123.941 8.82031C125.055 8.82031 125.623 9.49707 125.623 10.625V15H126.812V10.4062C126.812 8.82031 125.869 7.76758 124.31 7.76758C123.23 7.76758 122.451 8.23242 122.054 9.02539H122.027V5.13574H120.838V15ZM131.409 15.123C133.371 15.123 134.697 13.708 134.697 11.4453C134.697 9.17578 133.371 7.76758 131.409 7.76758C129.44 7.76758 128.114 9.17578 128.114 11.4453C128.114 13.708 129.44 15.123 131.409 15.123ZM131.409 14.0771C130.151 14.0771 129.324 13.1201 129.324 11.4453C129.324 9.77051 130.151 8.81348 131.409 8.81348C132.667 8.81348 133.487 9.77051 133.487 11.4453C133.487 13.1201 132.667 14.0771 131.409 14.0771ZM136.04 15H137.23V10.8164C137.23 9.61328 137.961 8.82031 139.082 8.82031C140.176 8.82031 140.716 9.44922 140.716 10.5977V15H141.906V10.3857C141.906 8.77246 141.003 7.76758 139.445 7.76758C138.344 7.76758 137.585 8.25977 137.189 9.02539H137.161V7.89062H136.04V15ZM146.414 8.7998C147.535 8.7998 148.28 9.64746 148.307 10.8369H144.445C144.52 9.6543 145.299 8.7998 146.414 8.7998ZM148.28 12.9629C148.082 13.6328 147.419 14.0908 146.516 14.0908C145.238 14.0908 144.438 13.1953 144.438 11.835V11.7666H149.538V11.3154C149.538 9.16211 148.355 7.76758 146.434 7.76758C144.472 7.76758 143.215 9.26465 143.215 11.4727C143.215 13.708 144.452 15.123 146.489 15.123C148.041 15.123 149.244 14.207 149.449 12.9629H148.28ZM153.892 15H155.081V10.8164C155.081 9.61328 155.813 8.82031 156.934 8.82031C158.028 8.82031 158.568 9.44922 158.568 10.5977V15H159.757V10.3857C159.757 8.77246 158.855 7.76758 157.296 7.76758C156.196 7.76758 155.437 8.25977 155.04 9.02539H155.013V7.89062H153.892V15ZM167.253 7.89062H166.063V12.0674C166.063 13.2773 165.366 14.0703 164.211 14.0703C163.11 14.0703 162.57 13.4482 162.57 12.293V7.89062H161.381V12.5049C161.381 14.1182 162.29 15.123 163.842 15.123C164.935 15.123 165.674 14.665 166.097 13.8447H166.125V15H167.253V7.89062ZM168.938 15H170.127V10.543C170.127 9.55859 170.811 8.82031 171.754 8.82031C172.636 8.82031 173.21 9.38086 173.21 10.2354V15H174.4V10.4814C174.4 9.51758 175.063 8.82031 176.006 8.82031C176.942 8.82031 177.483 9.39453 177.483 10.3652V15H178.672V10.0918C178.672 8.68359 177.763 7.76758 176.355 7.76758C175.357 7.76758 174.523 8.27344 174.126 9.12109H174.099C173.791 8.25977 173.073 7.76758 172.103 7.76758C171.146 7.76758 170.421 8.27344 170.086 9.02539H170.059V7.89062H168.938V15ZM183.864 15.123C185.682 15.123 186.885 13.6807 186.885 11.4453C186.885 9.2168 185.675 7.76758 183.884 7.76758C182.879 7.76758 182.052 8.2666 181.608 9.08008H181.581V5.13574H180.391V15H181.526V13.7969H181.553C182.011 14.6172 182.825 15.123 183.864 15.123ZM183.631 8.81348C184.889 8.81348 185.668 9.83203 185.668 11.4453C185.668 13.0723 184.889 14.0771 183.631 14.0771C182.428 14.0771 181.574 13.0312 181.574 11.4453C181.574 9.86621 182.428 8.81348 183.631 8.81348ZM191.086 8.7998C192.207 8.7998 192.952 9.64746 192.979 10.8369H189.117C189.192 9.6543 189.972 8.7998 191.086 8.7998ZM192.952 12.9629C192.754 13.6328 192.091 14.0908 191.188 14.0908C189.91 14.0908 189.11 13.1953 189.11 11.835V11.7666H194.21V11.3154C194.21 9.16211 193.027 7.76758 191.106 7.76758C189.144 7.76758 187.887 9.26465 187.887 11.4727C187.887 13.708 189.124 15.123 191.161 15.123C192.713 15.123 193.916 14.207 194.121 12.9629H192.952ZM195.553 15H196.742V10.5703C196.742 9.56543 197.344 8.90234 198.267 8.90234C198.554 8.90234 198.807 8.93652 198.903 8.9707V7.81543C198.807 7.80176 198.629 7.76758 198.424 7.76758C197.59 7.76758 196.934 8.2666 196.701 9.05273H196.674V7.89062H195.553V15ZM205.971 15.123C207.933 15.123 209.259 13.708 209.259 11.4453C209.259 9.17578 207.933 7.76758 205.971 7.76758C204.002 7.76758 202.676 9.17578 202.676 11.4453C202.676 13.708 204.002 15.123 205.971 15.123ZM205.971 14.0771C204.713 14.0771 203.886 13.1201 203.886 11.4453C203.886 9.77051 204.713 8.81348 205.971 8.81348C207.228 8.81348 208.049 9.77051 208.049 11.4453C208.049 13.1201 207.228 14.0771 205.971 14.0771ZM210.602 15H211.791V10.5703C211.791 9.56543 212.393 8.90234 213.316 8.90234C213.603 8.90234 213.856 8.93652 213.951 8.9707V7.81543C213.856 7.80176 213.678 7.76758 213.473 7.76758C212.639 7.76758 211.983 8.2666 211.75 9.05273H211.723V7.89062H210.602V15ZM223.911 7.89062H222.722V12.0674C222.722 13.2773 222.024 14.0703 220.869 14.0703C219.769 14.0703 219.229 13.4482 219.229 12.293V7.89062H218.039V12.5049C218.039 14.1182 218.948 15.123 220.5 15.123C221.594 15.123 222.332 14.665 222.756 13.8447H222.783V15H223.911V7.89062ZM225.473 9.85254C225.473 10.8232 226.088 11.4658 227.339 11.7871L228.59 12.1084C229.39 12.3203 229.684 12.5938 229.684 13.0996C229.684 13.7422 229.089 14.1523 228.125 14.1523C227.161 14.1523 226.601 13.7559 226.471 13.0176H225.282C225.405 14.2754 226.492 15.123 228.05 15.123C229.711 15.123 230.88 14.248 230.88 13.0107C230.88 11.9648 230.361 11.4453 228.925 11.083L227.825 10.8164C227.018 10.6113 226.642 10.2832 226.642 9.79102C226.642 9.16895 227.216 8.73828 228.084 8.73828C228.959 8.73828 229.513 9.16211 229.595 9.8457H230.73C230.675 8.64258 229.595 7.76758 228.125 7.76758C226.56 7.76758 225.473 8.63574 225.473 9.85254ZM232.319 15H233.509V7.89062H232.319V15ZM232.914 6.69434C233.324 6.69434 233.659 6.35938 233.659 5.95605C233.659 5.5459 233.324 5.21777 232.914 5.21777C232.51 5.21777 232.176 5.5459 232.176 5.95605C232.176 6.35938 232.51 6.69434 232.914 6.69434ZM235.255 15H236.444V10.8164C236.444 9.61328 237.176 8.82031 238.297 8.82031C239.391 8.82031 239.931 9.44922 239.931 10.5977V15H241.12V10.3857C241.12 8.77246 240.218 7.76758 238.659 7.76758C237.559 7.76758 236.8 8.25977 236.403 9.02539H236.376V7.89062H235.255V15ZM245.669 14.0088C244.446 14.0088 243.646 13.0107 243.646 11.418C243.646 9.8252 244.446 8.81348 245.669 8.81348C246.907 8.81348 247.734 9.85254 247.734 11.418C247.734 12.9834 246.907 14.0088 245.669 14.0088ZM245.71 17.6797C247.672 17.6797 248.923 16.5518 248.923 14.8564V7.89062H247.789V9.08691H247.768C247.296 8.25977 246.462 7.76758 245.457 7.76758C243.619 7.76758 242.429 9.18945 242.429 11.418C242.429 13.626 243.619 15.0547 245.43 15.0547C246.428 15.0547 247.269 14.5488 247.706 13.7764H247.734V14.8975C247.734 15.957 246.989 16.668 245.758 16.668C244.87 16.668 244.165 16.2373 243.933 15.5879H242.709C242.908 16.7979 244.145 17.6797 245.71 17.6797ZM255.971 14.1113C255.116 14.1113 254.549 13.667 254.549 12.9902C254.549 12.3203 255.096 11.8965 256.053 11.835L257.953 11.7188V12.2998C257.953 13.3252 257.092 14.1113 255.971 14.1113ZM255.704 15.123C256.661 15.123 257.564 14.5898 257.987 13.7764H258.015V15H259.143V10.085C259.143 8.66992 258.09 7.76758 256.422 7.76758C254.74 7.76758 253.688 8.71094 253.606 9.94141H254.754C254.904 9.24414 255.479 8.81348 256.395 8.81348C257.379 8.81348 257.953 9.33301 257.953 10.2012V10.7959L255.916 10.9121C254.276 11.0078 253.339 11.7734 253.339 12.9902C253.339 14.2686 254.289 15.123 255.704 15.123ZM260.793 15H261.983V10.8164C261.983 9.61328 262.714 8.82031 263.835 8.82031C264.929 8.82031 265.469 9.44922 265.469 10.5977V15H266.659V10.3857C266.659 8.77246 265.756 7.76758 264.198 7.76758C263.097 7.76758 262.338 8.25977 261.942 9.02539H261.915V7.89062H260.793V15ZM59.1172 34.1113C58.2627 34.1113 57.6953 33.667 57.6953 32.9902C57.6953 32.3203 58.2422 31.8965 59.1992 31.835L61.0996 31.7188V32.2998C61.0996 33.3252 60.2383 34.1113 59.1172 34.1113ZM58.8506 35.123C59.8076 35.123 60.71 34.5898 61.1338 33.7764H61.1611V35H62.2891V30.085C62.2891 28.6699 61.2363 27.7676 59.5684 27.7676C57.8867 27.7676 56.834 28.7109 56.752 29.9414H57.9004C58.0508 29.2441 58.625 28.8135 59.541 28.8135C60.5254 28.8135 61.0996 29.333 61.0996 30.2012V30.7959L59.0625 30.9121C57.4219 31.0078 56.4854 31.7734 56.4854 32.9902C56.4854 34.2686 57.4355 35.123 58.8506 35.123ZM69.7777 27.8906H68.5882V32.0674C68.5882 33.2773 67.891 34.0703 66.7357 34.0703C65.6351 34.0703 65.0951 33.4482 65.0951 32.293V27.8906H63.9056V32.5049C63.9056 34.1182 64.8148 35.123 66.3666 35.123C67.4603 35.123 68.1986 34.665 68.6224 33.8447H68.6498V35H69.7777V27.8906ZM71.8454 26.1748V27.8906H70.7859V28.8682H71.8454V33.1543C71.8454 34.5215 72.3513 35.0547 73.657 35.0547C73.9372 35.0547 74.2654 35.0342 74.4089 35V34.002C74.3269 34.0156 74.0534 34.0361 73.9167 34.0361C73.3083 34.0361 73.0349 33.7422 73.0349 33.0928V28.8682H74.4157V27.8906H73.0349V26.1748H71.8454ZM75.8888 35H77.0782V30.8574C77.0782 29.627 77.8096 28.8203 78.9923 28.8203C80.1065 28.8203 80.6739 29.4971 80.6739 30.625V35H81.8634V30.4062C81.8634 28.8203 80.92 27.7676 79.3614 27.7676C78.2813 27.7676 77.502 28.2324 77.1055 29.0254H77.0782V25.1357H75.8888V35ZM86.3647 28.7998C87.4858 28.7998 88.2309 29.6475 88.2582 30.8369H84.3959C84.4711 29.6543 85.2504 28.7998 86.3647 28.7998ZM88.2309 32.9629C88.0327 33.6328 87.3696 34.0908 86.4672 34.0908C85.1889 34.0908 84.3891 33.1953 84.3891 31.835V31.7666H89.4887V31.3154C89.4887 29.1621 88.3061 27.7676 86.3852 27.7676C84.4233 27.7676 83.1655 29.2646 83.1655 31.4727C83.1655 33.708 84.4028 35.123 86.4399 35.123C87.9916 35.123 89.1948 34.207 89.3998 32.9629H88.2309ZM90.8318 35H92.0213V30.8164C92.0213 29.6133 92.7527 28.8203 93.8738 28.8203C94.9676 28.8203 95.5076 29.4492 95.5076 30.5977V35H96.6971V30.3857C96.6971 28.7725 95.7947 27.7676 94.2361 27.7676C93.1355 27.7676 92.3768 28.2598 91.9803 29.0254H91.9529V27.8906H90.8318V35ZM98.7375 26.1748V27.8906H97.6779V28.8682H98.7375V33.1543C98.7375 34.5215 99.2433 35.0547 100.549 35.0547C100.829 35.0547 101.157 35.0342 101.301 35V34.002C101.219 34.0156 100.945 34.0361 100.809 34.0361C100.2 34.0361 99.9269 33.7422 99.9269 33.0928V28.8682H101.308V27.8906H99.9269V26.1748H98.7375ZM102.781 35H103.97V27.8906H102.781V35ZM103.376 26.6943C103.786 26.6943 104.121 26.3594 104.121 25.9561C104.121 25.5459 103.786 25.2178 103.376 25.2178C102.972 25.2178 102.637 25.5459 102.637 25.9561C102.637 26.3594 102.972 26.6943 103.376 26.6943ZM111.623 30.2217C111.473 28.9434 110.413 27.7676 108.636 27.7676C106.674 27.7676 105.368 29.2031 105.368 31.4453C105.368 33.7354 106.681 35.123 108.649 35.123C110.263 35.123 111.452 34.125 111.637 32.71H110.468C110.263 33.5645 109.627 34.0771 108.656 34.0771C107.426 34.0771 106.578 33.0996 106.578 31.4453C106.578 29.832 107.412 28.8135 108.642 28.8135C109.688 28.8135 110.29 29.4492 110.461 30.2217H111.623ZM115.215 34.1113C114.361 34.1113 113.793 33.667 113.793 32.9902C113.793 32.3203 114.34 31.8965 115.297 31.835L117.197 31.7188V32.2998C117.197 33.3252 116.336 34.1113 115.215 34.1113ZM114.948 35.123C115.906 35.123 116.808 34.5898 117.232 33.7764H117.259V35H118.387V30.085C118.387 28.6699 117.334 27.7676 115.666 27.7676C113.985 27.7676 112.932 28.7109 112.85 29.9414H113.998C114.149 29.2441 114.723 28.8135 115.639 28.8135C116.623 28.8135 117.197 29.333 117.197 30.2012V30.7959L115.16 30.9121C113.52 31.0078 112.583 31.7734 112.583 32.9902C112.583 34.2686 113.533 35.123 114.948 35.123ZM120.421 26.1748V27.8906H119.361V28.8682H120.421V33.1543C120.421 34.5215 120.926 35.0547 122.232 35.0547C122.512 35.0547 122.84 35.0342 122.984 35V34.002C122.902 34.0156 122.629 34.0361 122.492 34.0361C121.883 34.0361 121.61 33.7422 121.61 33.0928V28.8682H122.991V27.8906H121.61V26.1748H120.421ZM127.144 35.123C129.105 35.123 130.432 33.708 130.432 31.4453C130.432 29.1758 129.105 27.7676 127.144 27.7676C125.175 27.7676 123.849 29.1758 123.849 31.4453C123.849 33.708 125.175 35.123 127.144 35.123ZM127.144 34.0771C125.886 34.0771 125.059 33.1201 125.059 31.4453C125.059 29.7705 125.886 28.8135 127.144 28.8135C128.401 28.8135 129.222 29.7705 129.222 31.4453C129.222 33.1201 128.401 34.0771 127.144 34.0771ZM131.775 35H132.964V30.5703C132.964 29.5654 133.566 28.9023 134.489 28.9023C134.776 28.9023 135.029 28.9365 135.124 28.9707V27.8154C135.029 27.8018 134.851 27.7676 134.646 27.7676C133.812 27.7676 133.156 28.2666 132.923 29.0527H132.896V27.8906H131.775V35ZM148.29 27.8906H147.114L145.692 33.6738H145.665L144.052 27.8906H142.903L141.297 33.6738H141.27L139.848 27.8906H138.665L140.654 35H141.864L143.464 29.4971H143.491L145.098 35H146.308L148.29 27.8906ZM149.469 35H150.659V27.8906H149.469V35ZM150.064 26.6943C150.474 26.6943 150.809 26.3594 150.809 25.9561C150.809 25.5459 150.474 25.2178 150.064 25.2178C149.661 25.2178 149.326 25.5459 149.326 25.9561C149.326 26.3594 149.661 26.6943 150.064 26.6943ZM152.467 35H153.656V25.1357H152.467V35ZM155.464 35H156.653V25.1357H155.464V35ZM161.473 35H162.662V30.8574C162.662 29.627 163.393 28.8203 164.576 28.8203C165.69 28.8203 166.258 29.4971 166.258 30.625V35H167.447V30.4062C167.447 28.8203 166.504 27.7676 164.945 27.7676C163.865 27.7676 163.086 28.2324 162.689 29.0254H162.662V25.1357H161.473V35ZM171.948 28.7998C173.07 28.7998 173.815 29.6475 173.842 30.8369H169.98C170.055 29.6543 170.834 28.7998 171.948 28.7998ZM173.815 32.9629C173.616 33.6328 172.953 34.0908 172.051 34.0908C170.773 34.0908 169.973 33.1953 169.973 31.835V31.7666H175.072V31.3154C175.072 29.1621 173.89 27.7676 171.969 27.7676C170.007 27.7676 168.749 29.2646 168.749 31.4727C168.749 33.708 169.987 35.123 172.024 35.123C173.575 35.123 174.779 34.207 174.984 32.9629H173.815ZM176.477 35H177.667V25.1357H176.477V35ZM182.865 27.7676C181.833 27.7676 181.006 28.2939 180.568 29.0938H180.541V27.8906H179.413V37.3721H180.602V33.8447H180.63C181.054 34.624 181.874 35.123 182.893 35.123C184.684 35.123 185.907 33.6738 185.907 31.4453C185.907 29.2168 184.677 27.7676 182.865 27.7676ZM182.633 34.0771C181.416 34.0771 180.596 33.0312 180.596 31.4453C180.596 29.8662 181.416 28.8135 182.633 28.8135C183.897 28.8135 184.69 29.8389 184.69 31.4453C184.69 33.0586 183.897 34.0771 182.633 34.0771ZM191.512 31.0488V25.1357H190.323V35H191.512V32.3203L192.175 31.6914L194.814 35H196.195L193.016 30.96L196.099 27.8906H194.657L191.512 31.0488ZM199.705 28.7998C200.826 28.7998 201.571 29.6475 201.599 30.8369H197.736C197.812 29.6543 198.591 28.7998 199.705 28.7998ZM201.571 32.9629C201.373 33.6328 200.71 34.0908 199.808 34.0908C198.529 34.0908 197.729 33.1953 197.729 31.835V31.7666H202.829V31.3154C202.829 29.1621 201.646 27.7676 199.726 27.7676C197.764 27.7676 196.506 29.2646 196.506 31.4727C196.506 33.708 197.743 35.123 199.78 35.123C201.332 35.123 202.535 34.207 202.74 32.9629H201.571ZM207.023 28.7998C208.144 28.7998 208.889 29.6475 208.916 30.8369H205.054C205.129 29.6543 205.909 28.7998 207.023 28.7998ZM208.889 32.9629C208.691 33.6328 208.028 34.0908 207.125 34.0908C205.847 34.0908 205.047 33.1953 205.047 31.835V31.7666H210.147V31.3154C210.147 29.1621 208.964 27.7676 207.043 27.7676C205.081 27.7676 203.824 29.2646 203.824 31.4727C203.824 33.708 205.061 35.123 207.098 35.123C208.65 35.123 209.853 34.207 210.058 32.9629H208.889ZM214.942 27.7676C213.91 27.7676 213.083 28.2939 212.645 29.0938H212.618V27.8906H211.49V37.3721H212.679V33.8447H212.707C213.131 34.624 213.951 35.123 214.969 35.123C216.76 35.123 217.984 33.6738 217.984 31.4453C217.984 29.2168 216.754 27.7676 214.942 27.7676ZM214.71 34.0771C213.493 34.0771 212.673 33.0312 212.673 31.4453C212.673 29.8662 213.493 28.8135 214.71 28.8135C215.974 28.8135 216.767 29.8389 216.767 31.4453C216.767 33.0586 215.974 34.0771 214.71 34.0771ZM222.926 37.6592C224.211 37.6592 224.799 37.1602 225.408 35.499L228.204 27.8906H226.953L224.984 33.8105H224.963L222.995 27.8906H221.723L224.348 35.0068L224.184 35.5059C223.911 36.333 223.541 36.6543 222.878 36.6543C222.728 36.6543 222.543 36.6475 222.414 36.6201V37.6182C222.543 37.6455 222.783 37.6592 222.926 37.6592ZM232.028 35.123C233.99 35.123 235.316 33.708 235.316 31.4453C235.316 29.1758 233.99 27.7676 232.028 27.7676C230.059 27.7676 228.733 29.1758 228.733 31.4453C228.733 33.708 230.059 35.123 232.028 35.123ZM232.028 34.0771C230.77 34.0771 229.943 33.1201 229.943 31.4453C229.943 29.7705 230.77 28.8135 232.028 28.8135C233.286 28.8135 234.106 29.7705 234.106 31.4453C234.106 33.1201 233.286 34.0771 232.028 34.0771ZM242.497 27.8906H241.308V32.0674C241.308 33.2773 240.611 34.0703 239.455 34.0703C238.355 34.0703 237.815 33.4482 237.815 32.293V27.8906H236.625V32.5049C236.625 34.1182 237.534 35.123 239.086 35.123C240.18 35.123 240.918 34.665 241.342 33.8447H241.369V35H242.497V27.8906ZM244.182 35H245.372V30.5703C245.372 29.5654 245.973 28.9023 246.896 28.9023C247.183 28.9023 247.436 28.9365 247.532 28.9707V27.8154C247.436 27.8018 247.258 27.7676 247.053 27.7676C246.219 27.7676 245.563 28.2666 245.331 29.0527H245.303V27.8906H244.182V35ZM253.998 34.1113C253.144 34.1113 252.576 33.667 252.576 32.9902C252.576 32.3203 253.123 31.8965 254.08 31.835L255.981 31.7188V32.2998C255.981 33.3252 255.119 34.1113 253.998 34.1113ZM253.732 35.123C254.689 35.123 255.591 34.5898 256.015 33.7764H256.042V35H257.17V30.085C257.17 28.6699 256.117 27.7676 254.449 27.7676C252.768 27.7676 251.715 28.7109 251.633 29.9414H252.781C252.932 29.2441 253.506 28.8135 254.422 28.8135C255.406 28.8135 255.981 29.333 255.981 30.2012V30.7959L253.944 30.9121C252.303 31.0078 251.366 31.7734 251.366 32.9902C251.366 34.2686 252.317 35.123 253.732 35.123ZM264.727 30.2217C264.577 28.9434 263.517 27.7676 261.74 27.7676C259.778 27.7676 258.472 29.2031 258.472 31.4453C258.472 33.7354 259.785 35.123 261.754 35.123C263.367 35.123 264.556 34.125 264.741 32.71H263.572C263.367 33.5645 262.731 34.0771 261.76 34.0771C260.53 34.0771 259.682 33.0996 259.682 31.4453C259.682 29.832 260.516 28.8135 261.747 28.8135C262.793 28.8135 263.394 29.4492 263.565 30.2217H264.727ZM271.881 30.2217C271.73 28.9434 270.671 27.7676 268.894 27.7676C266.932 27.7676 265.626 29.2031 265.626 31.4453C265.626 33.7354 266.938 35.123 268.907 35.123C270.52 35.123 271.71 34.125 271.894 32.71H270.726C270.52 33.5645 269.885 34.0771 268.914 34.0771C267.684 34.0771 266.836 33.0996 266.836 31.4453C266.836 29.832 267.67 28.8135 268.9 28.8135C269.946 28.8135 270.548 29.4492 270.719 30.2217H271.881ZM276.075 35.123C278.036 35.123 279.363 33.708 279.363 31.4453C279.363 29.1758 278.036 27.7676 276.075 27.7676C274.106 27.7676 272.78 29.1758 272.78 31.4453C272.78 33.708 274.106 35.123 276.075 35.123ZM276.075 34.0771C274.817 34.0771 273.99 33.1201 273.99 31.4453C273.99 29.7705 274.817 28.8135 276.075 28.8135C277.332 28.8135 278.153 29.7705 278.153 31.4453C278.153 33.1201 277.332 34.0771 276.075 34.0771ZM286.544 27.8906H285.354V32.0674C285.354 33.2773 284.657 34.0703 283.502 34.0703C282.401 34.0703 281.861 33.4482 281.861 32.293V27.8906H280.672V32.5049C280.672 34.1182 281.581 35.123 283.133 35.123C284.226 35.123 284.965 34.665 285.388 33.8447H285.416V35H286.544V27.8906ZM288.229 35H289.418V30.8164C289.418 29.6133 290.149 28.8203 291.271 28.8203C292.364 28.8203 292.904 29.4492 292.904 30.5977V35H294.094V30.3857C294.094 28.7725 293.191 27.7676 291.633 27.7676C290.532 27.7676 289.773 28.2598 289.377 29.0254H289.35V27.8906H288.229V35ZM296.134 26.1748V27.8906H295.075V28.8682H296.134V33.1543C296.134 34.5215 296.64 35.0547 297.946 35.0547C298.226 35.0547 298.554 35.0342 298.698 35V34.002C298.616 34.0156 298.342 34.0361 298.205 34.0361C297.597 34.0361 297.324 33.7422 297.324 33.0928V28.8682H298.704V27.8906H297.324V26.1748H296.134ZM56.6494 49.8525C56.6494 50.8232 57.2646 51.4658 58.5156 51.7871L59.7666 52.1084C60.5664 52.3203 60.8604 52.5938 60.8604 53.0996C60.8604 53.7422 60.2656 54.1523 59.3018 54.1523C58.3379 54.1523 57.7773 53.7559 57.6475 53.0176H56.458C56.5811 54.2754 57.668 55.123 59.2266 55.123C60.8877 55.123 62.0566 54.248 62.0566 53.0107C62.0566 51.9648 61.5371 51.4453 60.1016 51.083L59.001 50.8164C58.1943 50.6113 57.8184 50.2832 57.8184 49.791C57.8184 49.1689 58.3926 48.7383 59.2607 48.7383C60.1357 48.7383 60.6895 49.1621 60.7715 49.8457H61.9062C61.8516 48.6426 60.7715 47.7676 59.3018 47.7676C57.7363 47.7676 56.6494 48.6357 56.6494 49.8525ZM65.7787 54.1113C64.9242 54.1113 64.3568 53.667 64.3568 52.9902C64.3568 52.3203 64.9037 51.8965 65.8607 51.835L67.7611 51.7188V52.2998C67.7611 53.3252 66.8998 54.1113 65.7787 54.1113ZM65.5121 55.123C66.4691 55.123 67.3714 54.5898 67.7953 53.7764H67.8226V55H68.9505V50.085C68.9505 48.6699 67.8978 47.7676 66.2298 47.7676C64.5482 47.7676 63.4955 48.7109 63.4134 49.9414H64.5619C64.7123 49.2441 65.2865 48.8135 66.2025 48.8135C67.1869 48.8135 67.7611 49.333 67.7611 50.2012V50.7959L65.724 50.9121C64.0834 51.0078 63.1468 51.7734 63.1468 52.9902C63.1468 54.2686 64.097 55.123 65.5121 55.123ZM70.9841 55H72.1736V48.8682H73.6228V47.8906H72.1667V47.1045C72.1667 46.4004 72.4743 46.0586 73.1169 46.0586C73.3152 46.0586 73.5134 46.0791 73.657 46.0996V45.1357C73.4861 45.1084 73.1989 45.0811 72.9323 45.0811C71.6198 45.0811 70.9841 45.7305 70.9841 47.0977V47.8906H69.9929V48.8682H70.9841V55ZM77.502 48.7998C78.6231 48.7998 79.3682 49.6475 79.3956 50.8369H75.5333C75.6085 49.6543 76.3878 48.7998 77.502 48.7998ZM79.3682 52.9629C79.17 53.6328 78.5069 54.0908 77.6046 54.0908C76.3263 54.0908 75.5264 53.1953 75.5264 51.835V51.7666H80.6261V51.3154C80.6261 49.1621 79.4434 47.7676 77.5225 47.7676C75.5606 47.7676 74.3028 49.2646 74.3028 51.4727C74.3028 53.708 75.5401 55.123 77.5772 55.123C79.129 55.123 80.3321 54.207 80.5372 52.9629H79.3682ZM85.3631 55H86.5525V48.8682H88.0018V47.8906H86.5457V47.1045C86.5457 46.4004 86.8533 46.0586 87.4959 46.0586C87.6941 46.0586 87.8924 46.0791 88.0359 46.0996V45.1357C87.865 45.1084 87.5779 45.0811 87.3113 45.0811C85.9988 45.0811 85.3631 45.7305 85.3631 47.0977V47.8906H84.3719V48.8682H85.3631V55ZM89.3722 55H90.5617V50.5703C90.5617 49.5654 91.1632 48.9023 92.0861 48.9023C92.3732 48.9023 92.6261 48.9365 92.7218 48.9707V47.8154C92.6261 47.8018 92.4484 47.7676 92.2433 47.7676C91.4093 47.7676 90.7531 48.2666 90.5207 49.0527H90.4933V47.8906H89.3722V55ZM96.437 55.123C98.3989 55.123 99.7251 53.708 99.7251 51.4453C99.7251 49.1758 98.3989 47.7676 96.437 47.7676C94.4683 47.7676 93.1421 49.1758 93.1421 51.4453C93.1421 53.708 94.4683 55.123 96.437 55.123ZM96.437 54.0771C95.1792 54.0771 94.3521 53.1201 94.3521 51.4453C94.3521 49.7705 95.1792 48.8135 96.437 48.8135C97.6948 48.8135 98.5152 49.7705 98.5152 51.4453C98.5152 53.1201 97.6948 54.0771 96.437 54.0771ZM101.068 55H102.258V50.543C102.258 49.5586 102.941 48.8203 103.885 48.8203C104.766 48.8203 105.341 49.3809 105.341 50.2354V55H106.53V50.4814C106.53 49.5176 107.193 48.8203 108.137 48.8203C109.073 48.8203 109.613 49.3945 109.613 50.3652V55H110.803V50.0918C110.803 48.6836 109.893 47.7676 108.485 47.7676C107.487 47.7676 106.653 48.2734 106.257 49.1211H106.229C105.922 48.2598 105.204 47.7676 104.233 47.7676C103.276 47.7676 102.552 48.2734 102.217 49.0254H102.189V47.8906H101.068V55ZM115.533 55H116.722V50.8574C116.722 49.627 117.454 48.8203 118.636 48.8203C119.751 48.8203 120.318 49.4971 120.318 50.625V55H121.507V50.4062C121.507 48.8203 120.564 47.7676 119.005 47.7676C117.925 47.7676 117.146 48.2324 116.75 49.0254H116.722V45.1357H115.533V55ZM125.503 54.1113C124.648 54.1113 124.081 53.667 124.081 52.9902C124.081 52.3203 124.628 51.8965 125.585 51.835L127.485 51.7188V52.2998C127.485 53.3252 126.624 54.1113 125.503 54.1113ZM125.236 55.123C126.193 55.123 127.096 54.5898 127.519 53.7764H127.547V55H128.675V50.085C128.675 48.6699 127.622 47.7676 125.954 47.7676C124.272 47.7676 123.22 48.7109 123.138 49.9414H124.286C124.436 49.2441 125.011 48.8135 125.927 48.8135C126.911 48.8135 127.485 49.333 127.485 50.2012V50.7959L125.448 50.9121C123.808 51.0078 122.871 51.7734 122.871 52.9902C122.871 54.2686 123.821 55.123 125.236 55.123ZM130.326 55H131.515V50.5703C131.515 49.5654 132.117 48.9023 133.039 48.9023C133.326 48.9023 133.579 48.9365 133.675 48.9707V47.8154C133.579 47.8018 133.402 47.7676 133.197 47.7676C132.363 47.7676 131.706 48.2666 131.474 49.0527H131.447V47.8906H130.326V55ZM134.786 55H135.975V50.543C135.975 49.5586 136.659 48.8203 137.602 48.8203C138.484 48.8203 139.058 49.3809 139.058 50.2354V55H140.248V50.4814C140.248 49.5176 140.911 48.8203 141.854 48.8203C142.791 48.8203 143.331 49.3945 143.331 50.3652V55H144.52V50.0918C144.52 48.6836 143.611 47.7676 142.203 47.7676C141.205 47.7676 140.371 48.2734 139.974 49.1211H139.947C139.639 48.2598 138.922 47.7676 137.951 47.7676C136.994 47.7676 136.269 48.2734 135.934 49.0254H135.907V47.8906H134.786V55ZM147.183 55.0684C147.62 55.0684 147.962 54.7266 147.962 54.2891C147.962 53.8516 147.62 53.5098 147.183 53.5098C146.745 53.5098 146.403 53.8516 146.403 54.2891C146.403 54.7266 146.745 55.0684 147.183 55.0684Z" fill="#6B7280"/>
</svg>
