<svg width="327" height="60" viewBox="0 0 327 60" fill="none" xmlns="http://www.w3.org/2000/svg">
<circle cx="22" cy="30" r="22" fill="#D6E4FF"/>
<path d="M28 28.75C27.59 28.75 27.25 28.41 27.25 28V26C27.25 22.85 26.36 20.75 22 20.75C17.64 20.75 16.75 22.85 16.75 26V28C16.75 28.41 16.41 28.75 16 28.75C15.59 28.75 15.25 28.41 15.25 28V26C15.25 23.1 15.95 19.25 22 19.25C28.05 19.25 28.75 23.1 28.75 26V28C28.75 28.41 28.41 28.75 28 28.75Z" fill="#3366FF"/>
<path d="M22 37.25C20.21 37.25 18.75 35.79 18.75 34C18.75 32.21 20.21 30.75 22 30.75C23.79 30.75 25.25 32.21 25.25 34C25.25 35.79 23.79 37.25 22 37.25ZM22 32.25C21.04 32.25 20.25 33.04 20.25 34C20.25 34.96 21.04 35.75 22 35.75C22.96 35.75 23.75 34.96 23.75 34C23.75 33.04 22.96 32.25 22 32.25Z" fill="#3366FF"/>
<path d="M27 40.75H17C12.59 40.75 11.25 39.41 11.25 35V33C11.25 28.59 12.59 27.25 17 27.25H27C31.41 27.25 32.75 28.59 32.75 33V35C32.75 39.41 31.41 40.75 27 40.75ZM17 28.75C13.42 28.75 12.75 29.43 12.75 33V35C12.75 38.57 13.42 39.25 17 39.25H27C30.58 39.25 31.25 38.57 31.25 35V33C31.25 29.43 30.58 28.75 27 28.75H17Z" fill="#3366FF"/>
<path d="M60.6826 15V6.24316H63.793V5.13574H56.3418V6.24316H59.4521V15H60.6826ZM72.724 7.89062H71.5482L70.1263 13.6738H70.099L68.4857 7.89062H67.3373L65.7308 13.6738H65.7035L64.2816 7.89062H63.099L65.0882 15H66.2982L67.8978 9.49707H67.9252L69.5316 15H70.7416L72.724 7.89062ZM76.7878 15.123C78.7497 15.123 80.0759 13.708 80.0759 11.4453C80.0759 9.17578 78.7497 7.76758 76.7878 7.76758C74.8191 7.76758 73.4929 9.17578 73.4929 11.4453C73.4929 13.708 74.8191 15.123 76.7878 15.123ZM76.7878 14.0771C75.53 14.0771 74.7029 13.1201 74.7029 11.4453C74.7029 9.77051 75.53 8.81348 76.7878 8.81348C78.0456 8.81348 78.8659 9.77051 78.8659 11.4453C78.8659 13.1201 78.0456 14.0771 76.7878 14.0771ZM85.8897 11.5547V10.4473H81.4054V11.5547H85.8897ZM87.4379 9.85254C87.4379 10.8232 88.0532 11.4658 89.3041 11.7871L90.5551 12.1084C91.3549 12.3203 91.6489 12.5938 91.6489 13.0996C91.6489 13.7422 91.0541 14.1523 90.0903 14.1523C89.1264 14.1523 88.5659 13.7559 88.436 13.0176H87.2465C87.3696 14.2754 88.4565 15.123 90.0151 15.123C91.6762 15.123 92.8452 14.248 92.8452 13.0107C92.8452 11.9648 92.3256 11.4453 90.8901 11.083L89.7895 10.8164C88.9829 10.6113 88.6069 10.2832 88.6069 9.79102C88.6069 9.16895 89.1811 8.73828 90.0493 8.73828C90.9243 8.73828 91.478 9.16211 91.56 9.8457H92.6948C92.6401 8.64258 91.56 7.76758 90.0903 7.76758C88.5248 7.76758 87.4379 8.63574 87.4379 9.85254ZM94.6053 6.1748V7.89062H93.5457V8.86816H94.6053V13.1543C94.6053 14.5215 95.1111 15.0547 96.4168 15.0547C96.6971 15.0547 97.0252 15.0342 97.1688 15V14.002C97.0867 14.0156 96.8133 14.0361 96.6766 14.0361C96.0682 14.0361 95.7947 13.7422 95.7947 13.0928V8.86816H97.1756V7.89062H95.7947V6.1748H94.6053ZM101.233 8.7998C102.354 8.7998 103.099 9.64746 103.126 10.8369H99.2638C99.339 9.6543 100.118 8.7998 101.233 8.7998ZM103.099 12.9629C102.901 13.6328 102.237 14.0908 101.335 14.0908C100.057 14.0908 99.257 13.1953 99.257 11.835V11.7666H104.357V11.3154C104.357 9.16211 103.174 7.76758 101.253 7.76758C99.2912 7.76758 98.0334 9.26465 98.0334 11.4727C98.0334 13.708 99.2707 15.123 101.308 15.123C102.86 15.123 104.063 14.207 104.268 12.9629H103.099ZM109.152 7.76758C108.12 7.76758 107.292 8.29395 106.855 9.09375H106.828V7.89062H105.7V17.3721H106.889V13.8447H106.917C107.34 14.624 108.161 15.123 109.179 15.123C110.97 15.123 112.194 13.6738 112.194 11.4453C112.194 9.2168 110.963 7.76758 109.152 7.76758ZM108.919 14.0771C107.703 14.0771 106.882 13.0312 106.882 11.4453C106.882 9.86621 107.703 8.81348 108.919 8.81348C110.184 8.81348 110.977 9.83887 110.977 11.4453C110.977 13.0586 110.184 14.0771 108.919 14.0771ZM122.379 7.89062H121.142L119.173 13.7354H119.146L117.184 7.89062H115.933L118.551 15H119.768L122.379 7.89062ZM126.101 8.7998C127.222 8.7998 127.967 9.64746 127.995 10.8369H124.132C124.208 9.6543 124.987 8.7998 126.101 8.7998ZM127.967 12.9629C127.769 13.6328 127.106 14.0908 126.204 14.0908C124.925 14.0908 124.126 13.1953 124.126 11.835V11.7666H129.225V11.3154C129.225 9.16211 128.043 7.76758 126.122 7.76758C124.16 7.76758 122.902 9.26465 122.902 11.4727C122.902 13.708 124.139 15.123 126.176 15.123C127.728 15.123 128.931 14.207 129.136 12.9629H127.967ZM130.568 15H131.758V10.5703C131.758 9.56543 132.359 8.90234 133.282 8.90234C133.569 8.90234 133.822 8.93652 133.918 8.9707V7.81543C133.822 7.80176 133.644 7.76758 133.439 7.76758C132.605 7.76758 131.949 8.2666 131.717 9.05273H131.689V7.89062H130.568V15ZM135.09 15H136.28V7.89062H135.09V15ZM135.685 6.69434C136.095 6.69434 136.43 6.35938 136.43 5.95605C136.43 5.5459 136.095 5.21777 135.685 5.21777C135.282 5.21777 134.947 5.5459 134.947 5.95605C134.947 6.35938 135.282 6.69434 135.685 6.69434ZM138.409 15H139.598V8.86816H141.048V7.89062H139.591V7.10449C139.591 6.40039 139.899 6.05859 140.542 6.05859C140.74 6.05859 140.938 6.0791 141.082 6.09961V5.13574C140.911 5.1084 140.624 5.08105 140.357 5.08105C139.045 5.08105 138.409 5.73047 138.409 7.09766V7.89062H137.418V8.86816H138.409V15ZM142.48 15H143.669V7.89062H142.48V15ZM143.074 6.69434C143.484 6.69434 143.819 6.35938 143.819 5.95605C143.819 5.5459 143.484 5.21777 143.074 5.21777C142.671 5.21777 142.336 5.5459 142.336 5.95605C142.336 6.35938 142.671 6.69434 143.074 6.69434ZM151.322 10.2217C151.171 8.94336 150.112 7.76758 148.334 7.76758C146.372 7.76758 145.067 9.20312 145.067 11.4453C145.067 13.7354 146.379 15.123 148.348 15.123C149.961 15.123 151.151 14.125 151.335 12.71H150.166C149.961 13.5645 149.326 14.0771 148.355 14.0771C147.124 14.0771 146.277 13.0996 146.277 11.4453C146.277 9.83203 147.111 8.81348 148.341 8.81348C149.387 8.81348 149.989 9.44922 150.16 10.2217H151.322ZM154.914 14.1113C154.059 14.1113 153.492 13.667 153.492 12.9902C153.492 12.3203 154.039 11.8965 154.996 11.835L156.896 11.7188V12.2998C156.896 13.3252 156.035 14.1113 154.914 14.1113ZM154.647 15.123C155.604 15.123 156.507 14.5898 156.93 13.7764H156.958V15H158.086V10.085C158.086 8.66992 157.033 7.76758 155.365 7.76758C153.683 7.76758 152.631 8.71094 152.549 9.94141H153.697C153.847 9.24414 154.422 8.81348 155.338 8.81348C156.322 8.81348 156.896 9.33301 156.896 10.2012V10.7959L154.859 10.9121C153.219 11.0078 152.282 11.7734 152.282 12.9902C152.282 14.2686 153.232 15.123 154.647 15.123ZM160.119 6.1748V7.89062H159.06V8.86816H160.119V13.1543C160.119 14.5215 160.625 15.0547 161.931 15.0547C162.211 15.0547 162.539 15.0342 162.683 15V14.002C162.601 14.0156 162.327 14.0361 162.191 14.0361C161.582 14.0361 161.309 13.7422 161.309 13.0928V8.86816H162.69V7.89062H161.309V6.1748H160.119ZM164.163 15H165.352V7.89062H164.163V15ZM164.757 6.69434C165.167 6.69434 165.502 6.35938 165.502 5.95605C165.502 5.5459 165.167 5.21777 164.757 5.21777C164.354 5.21777 164.019 5.5459 164.019 5.95605C164.019 6.35938 164.354 6.69434 164.757 6.69434ZM170.045 15.123C172.007 15.123 173.333 13.708 173.333 11.4453C173.333 9.17578 172.007 7.76758 170.045 7.76758C168.076 7.76758 166.75 9.17578 166.75 11.4453C166.75 13.708 168.076 15.123 170.045 15.123ZM170.045 14.0771C168.787 14.0771 167.96 13.1201 167.96 11.4453C167.96 9.77051 168.787 8.81348 170.045 8.81348C171.303 8.81348 172.123 9.77051 172.123 11.4453C172.123 13.1201 171.303 14.0771 170.045 14.0771ZM174.676 15H175.865V10.8164C175.865 9.61328 176.597 8.82031 177.718 8.82031C178.812 8.82031 179.352 9.44922 179.352 10.5977V15H180.541V10.3857C180.541 8.77246 179.639 7.76758 178.08 7.76758C176.98 7.76758 176.221 8.25977 175.824 9.02539H175.797V7.89062H174.676V15ZM188.662 7.76758C187.63 7.76758 186.803 8.29395 186.365 9.09375H186.338V7.89062H185.21V17.3721H186.399V13.8447H186.427C186.851 14.624 187.671 15.123 188.689 15.123C190.48 15.123 191.704 13.6738 191.704 11.4453C191.704 9.2168 190.474 7.76758 188.662 7.76758ZM188.43 14.0771C187.213 14.0771 186.393 13.0312 186.393 11.4453C186.393 9.86621 187.213 8.81348 188.43 8.81348C189.694 8.81348 190.487 9.83887 190.487 11.4453C190.487 13.0586 189.694 14.0771 188.43 14.0771ZM193.047 15H194.237V10.5703C194.237 9.56543 194.838 8.90234 195.761 8.90234C196.048 8.90234 196.301 8.93652 196.397 8.9707V7.81543C196.301 7.80176 196.123 7.76758 195.918 7.76758C195.084 7.76758 194.428 8.2666 194.196 9.05273H194.168V7.89062H193.047V15ZM200.112 15.123C202.074 15.123 203.4 13.708 203.4 11.4453C203.4 9.17578 202.074 7.76758 200.112 7.76758C198.143 7.76758 196.817 9.17578 196.817 11.4453C196.817 13.708 198.143 15.123 200.112 15.123ZM200.112 14.0771C198.854 14.0771 198.027 13.1201 198.027 11.4453C198.027 9.77051 198.854 8.81348 200.112 8.81348C201.37 8.81348 202.19 9.77051 202.19 11.4453C202.19 13.1201 201.37 14.0771 200.112 14.0771ZM210.369 7.89062H209.132L207.163 13.7354H207.136L205.174 7.89062H203.923L206.541 15H207.758L210.369 7.89062ZM211.507 15H212.697V7.89062H211.507V15ZM212.102 6.69434C212.512 6.69434 212.847 6.35938 212.847 5.95605C212.847 5.5459 212.512 5.21777 212.102 5.21777C211.699 5.21777 211.364 5.5459 211.364 5.95605C211.364 6.35938 211.699 6.69434 212.102 6.69434ZM217.136 15.123C218.162 15.123 218.975 14.6172 219.433 13.7969H219.454V15H220.589V5.13574H219.399V9.0459H219.372C218.948 8.2666 218.128 7.76758 217.109 7.76758C215.318 7.76758 214.094 9.2168 214.094 11.4453C214.094 13.6738 215.325 15.123 217.136 15.123ZM217.362 8.81348C218.586 8.81348 219.406 9.85938 219.406 11.4453C219.406 13.0381 218.586 14.0771 217.362 14.0771C216.104 14.0771 215.311 13.0586 215.311 11.4453C215.311 9.83887 216.104 8.81348 217.362 8.81348ZM225.186 8.7998C226.307 8.7998 227.052 9.64746 227.079 10.8369H223.217C223.292 9.6543 224.071 8.7998 225.186 8.7998ZM227.052 12.9629C226.854 13.6328 226.191 14.0908 225.288 14.0908C224.01 14.0908 223.21 13.1953 223.21 11.835V11.7666H228.31V11.3154C228.31 9.16211 227.127 7.76758 225.206 7.76758C223.244 7.76758 221.986 9.26465 221.986 11.4727C221.986 13.708 223.224 15.123 225.261 15.123C226.813 15.123 228.016 14.207 228.221 12.9629H227.052ZM229.53 9.85254C229.53 10.8232 230.145 11.4658 231.396 11.7871L232.647 12.1084C233.447 12.3203 233.741 12.5938 233.741 13.0996C233.741 13.7422 233.146 14.1523 232.182 14.1523C231.218 14.1523 230.658 13.7559 230.528 13.0176H229.338C229.461 14.2754 230.548 15.123 232.107 15.123C233.768 15.123 234.937 14.248 234.937 13.0107C234.937 11.9648 234.417 11.4453 232.982 11.083L231.881 10.8164C231.075 10.6113 230.699 10.2832 230.699 9.79102C230.699 9.16895 231.273 8.73828 232.141 8.73828C233.016 8.73828 233.57 9.16211 233.652 9.8457H234.787C234.732 8.64258 233.652 7.76758 232.182 7.76758C230.617 7.76758 229.53 8.63574 229.53 9.85254ZM241.67 14.1113C240.816 14.1113 240.248 13.667 240.248 12.9902C240.248 12.3203 240.795 11.8965 241.752 11.835L243.652 11.7188V12.2998C243.652 13.3252 242.791 14.1113 241.67 14.1113ZM241.403 15.123C242.361 15.123 243.263 14.5898 243.687 13.7764H243.714V15H244.842V10.085C244.842 8.66992 243.789 7.76758 242.121 7.76758C240.44 7.76758 239.387 8.71094 239.305 9.94141H240.453C240.604 9.24414 241.178 8.81348 242.094 8.81348C243.078 8.81348 243.652 9.33301 243.652 10.2012V10.7959L241.615 10.9121C239.975 11.0078 239.038 11.7734 239.038 12.9902C239.038 14.2686 239.988 15.123 241.403 15.123ZM249.186 15.123C250.211 15.123 251.025 14.6172 251.483 13.7969H251.503V15H252.638V5.13574H251.449V9.0459H251.421C250.998 8.2666 250.177 7.76758 249.159 7.76758C247.368 7.76758 246.144 9.2168 246.144 11.4453C246.144 13.6738 247.375 15.123 249.186 15.123ZM249.412 8.81348C250.635 8.81348 251.456 9.85938 251.456 11.4453C251.456 13.0381 250.635 14.0771 249.412 14.0771C248.154 14.0771 247.361 13.0586 247.361 11.4453C247.361 9.83887 248.154 8.81348 249.412 8.81348ZM257.078 15.123C258.103 15.123 258.917 14.6172 259.375 13.7969H259.395V15H260.53V5.13574H259.341V9.0459H259.313C258.89 8.2666 258.069 7.76758 257.051 7.76758C255.26 7.76758 254.036 9.2168 254.036 11.4453C254.036 13.6738 255.266 15.123 257.078 15.123ZM257.304 8.81348C258.527 8.81348 259.348 9.85938 259.348 11.4453C259.348 13.0381 258.527 14.0771 257.304 14.0771C256.046 14.0771 255.253 13.0586 255.253 11.4453C255.253 9.83887 256.046 8.81348 257.304 8.81348ZM262.338 15H263.528V7.89062H262.338V15ZM262.933 6.69434C263.343 6.69434 263.678 6.35938 263.678 5.95605C263.678 5.5459 263.343 5.21777 262.933 5.21777C262.53 5.21777 262.195 5.5459 262.195 5.95605C262.195 6.35938 262.53 6.69434 262.933 6.69434ZM265.657 6.1748V7.89062H264.597V8.86816H265.657V13.1543C265.657 14.5215 266.163 15.0547 267.468 15.0547C267.749 15.0547 268.077 15.0342 268.22 15V14.002C268.138 14.0156 267.865 14.0361 267.728 14.0361C267.12 14.0361 266.846 13.7422 266.846 13.0928V8.86816H268.227V7.89062H266.846V6.1748H265.657ZM269.7 15H270.89V7.89062H269.7V15ZM270.295 6.69434C270.705 6.69434 271.04 6.35938 271.04 5.95605C271.04 5.5459 270.705 5.21777 270.295 5.21777C269.892 5.21777 269.557 5.5459 269.557 5.95605C269.557 6.35938 269.892 6.69434 270.295 6.69434ZM275.582 15.123C277.544 15.123 278.87 13.708 278.87 11.4453C278.87 9.17578 277.544 7.76758 275.582 7.76758C273.614 7.76758 272.287 9.17578 272.287 11.4453C272.287 13.708 273.614 15.123 275.582 15.123ZM275.582 14.0771C274.325 14.0771 273.497 13.1201 273.497 11.4453C273.497 9.77051 274.325 8.81348 275.582 8.81348C276.84 8.81348 277.66 9.77051 277.66 11.4453C277.66 13.1201 276.84 14.0771 275.582 14.0771ZM280.214 15H281.403V10.8164C281.403 9.61328 282.134 8.82031 283.256 8.82031C284.349 8.82031 284.889 9.44922 284.889 10.5977V15H286.079V10.3857C286.079 8.77246 285.176 7.76758 283.618 7.76758C282.517 7.76758 281.758 8.25977 281.362 9.02539H281.335V7.89062H280.214V15ZM290.081 14.1113C289.227 14.1113 288.659 13.667 288.659 12.9902C288.659 12.3203 289.206 11.8965 290.163 11.835L292.064 11.7188V12.2998C292.064 13.3252 291.202 14.1113 290.081 14.1113ZM289.814 15.123C290.772 15.123 291.674 14.5898 292.098 13.7764H292.125V15H293.253V10.085C293.253 8.66992 292.2 7.76758 290.532 7.76758C288.851 7.76758 287.798 8.71094 287.716 9.94141H288.864C289.015 9.24414 289.589 8.81348 290.505 8.81348C291.489 8.81348 292.064 9.33301 292.064 10.2012V10.7959L290.026 10.9121C288.386 11.0078 287.449 11.7734 287.449 12.9902C287.449 14.2686 288.399 15.123 289.814 15.123ZM294.965 15H296.155V5.13574H294.965V15ZM56.6494 29.8525C56.6494 30.8232 57.2646 31.4658 58.5156 31.7871L59.7666 32.1084C60.5664 32.3203 60.8604 32.5938 60.8604 33.0996C60.8604 33.7422 60.2656 34.1523 59.3018 34.1523C58.3379 34.1523 57.7773 33.7559 57.6475 33.0176H56.458C56.5811 34.2754 57.668 35.123 59.2266 35.123C60.8877 35.123 62.0566 34.248 62.0566 33.0107C62.0566 31.9648 61.5371 31.4453 60.1016 31.083L59.001 30.8164C58.1943 30.6113 57.8184 30.2832 57.8184 29.791C57.8184 29.1689 58.3926 28.7383 59.2607 28.7383C60.1357 28.7383 60.6895 29.1621 60.7715 29.8457H61.9062C61.8516 28.6426 60.7715 27.7676 59.3018 27.7676C57.7363 27.7676 56.6494 28.6357 56.6494 29.8525ZM66.2845 28.7998C67.4056 28.7998 68.1507 29.6475 68.1781 30.8369H64.3158C64.391 29.6543 65.1703 28.7998 66.2845 28.7998ZM68.1507 32.9629C67.9525 33.6328 67.2894 34.0908 66.3871 34.0908C65.1087 34.0908 64.3089 33.1953 64.3089 31.835V31.7666H69.4086V31.3154C69.4086 29.1621 68.2259 27.7676 66.305 27.7676C64.3431 27.7676 63.0853 29.2646 63.0853 31.4727C63.0853 33.708 64.3226 35.123 66.3597 35.123C67.9115 35.123 69.1146 34.207 69.3197 32.9629H68.1507ZM76.6579 30.2217C76.5075 28.9434 75.448 27.7676 73.6706 27.7676C71.7087 27.7676 70.403 29.2031 70.403 31.4453C70.403 33.7354 71.7155 35.123 73.6843 35.123C75.2976 35.123 76.487 34.125 76.6716 32.71H75.5027C75.2976 33.5645 74.6618 34.0771 73.6911 34.0771C72.4607 34.0771 71.613 33.0996 71.613 31.4453C71.613 29.832 72.447 28.8135 73.6775 28.8135C74.7234 28.8135 75.3249 29.4492 75.4958 30.2217H76.6579ZM83.7432 27.8906H82.5538V32.0674C82.5538 33.2773 81.8565 34.0703 80.7013 34.0703C79.6007 34.0703 79.0606 33.4482 79.0606 32.293V27.8906H77.8712V32.5049C77.8712 34.1182 78.7804 35.123 80.3321 35.123C81.4259 35.123 82.1641 34.665 82.588 33.8447H82.6153V35H83.7432V27.8906ZM85.4282 35H86.6176V30.5703C86.6176 29.5654 87.2192 28.9023 88.142 28.9023C88.4291 28.9023 88.6821 28.9365 88.7778 28.9707V27.8154C88.6821 27.8018 88.5043 27.7676 88.2993 27.7676C87.4653 27.7676 86.809 28.2666 86.5766 29.0527H86.5493V27.8906H85.4282V35ZM89.95 35H91.1395V27.8906H89.95V35ZM90.5447 26.6943C90.9549 26.6943 91.2898 26.3594 91.2898 25.9561C91.2898 25.5459 90.9549 25.2178 90.5447 25.2178C90.1414 25.2178 89.8064 25.5459 89.8064 25.9561C89.8064 26.3594 90.1414 26.6943 90.5447 26.6943ZM93.2687 26.1748V27.8906H92.2091V28.8682H93.2687V33.1543C93.2687 34.5215 93.7746 35.0547 95.0802 35.0547C95.3605 35.0547 95.6886 35.0342 95.8322 35V34.002C95.7502 34.0156 95.4767 34.0361 95.34 34.0361C94.7316 34.0361 94.4582 33.7422 94.4582 33.0928V28.8682H95.839V27.8906H94.4582V26.1748H93.2687ZM97.8384 37.6592C99.1236 37.6592 99.7114 37.1602 100.32 35.499L103.116 27.8906H101.865L99.896 33.8105H99.8755L97.9068 27.8906H96.6353L99.2603 35.0068L99.0962 35.5059C98.8228 36.333 98.4536 36.6543 97.7905 36.6543C97.6402 36.6543 97.4556 36.6475 97.3257 36.6201V37.6182C97.4556 37.6455 97.6948 37.6592 97.8384 37.6592ZM110.744 35.123C112.563 35.123 113.766 33.6807 113.766 31.4453C113.766 29.2168 112.556 27.7676 110.765 27.7676C109.76 27.7676 108.933 28.2666 108.489 29.0801H108.461V25.1357H107.272V35H108.406V33.7969H108.434C108.892 34.6172 109.705 35.123 110.744 35.123ZM110.512 28.8135C111.77 28.8135 112.549 29.832 112.549 31.4453C112.549 33.0723 111.77 34.0771 110.512 34.0771C109.309 34.0771 108.454 33.0312 108.454 31.4453C108.454 29.8662 109.309 28.8135 110.512 28.8135ZM115.499 37.6592C116.784 37.6592 117.372 37.1602 117.98 35.499L120.776 27.8906H119.525L117.556 33.8105H117.536L115.567 27.8906H114.296L116.921 35.0068L116.756 35.5059C116.483 36.333 116.114 36.6543 115.451 36.6543C115.3 36.6543 115.116 36.6475 114.986 36.6201V37.6182C115.116 37.6455 115.355 37.6592 115.499 37.6592ZM127.215 34.1113C126.361 34.1113 125.793 33.667 125.793 32.9902C125.793 32.3203 126.34 31.8965 127.297 31.835L129.198 31.7188V32.2998C129.198 33.3252 128.336 34.1113 127.215 34.1113ZM126.949 35.123C127.906 35.123 128.808 34.5898 129.232 33.7764H129.259V35H130.387V30.085C130.387 28.6699 129.334 27.7676 127.666 27.7676C125.985 27.7676 124.932 28.7109 124.85 29.9414H125.998C126.149 29.2441 126.723 28.8135 127.639 28.8135C128.623 28.8135 129.198 29.333 129.198 30.2012V30.7959L127.16 30.9121C125.52 31.0078 124.583 31.7734 124.583 32.9902C124.583 34.2686 125.534 35.123 126.949 35.123ZM131.915 29.8525C131.915 30.8232 132.53 31.4658 133.781 31.7871L135.032 32.1084C135.832 32.3203 136.126 32.5938 136.126 33.0996C136.126 33.7422 135.531 34.1523 134.567 34.1523C133.603 34.1523 133.043 33.7559 132.913 33.0176H131.723C131.846 34.2754 132.933 35.123 134.492 35.123C136.153 35.123 137.322 34.248 137.322 33.0107C137.322 31.9648 136.802 31.4453 135.367 31.083L134.266 30.8164C133.46 30.6113 133.084 30.2832 133.084 29.791C133.084 29.1689 133.658 28.7383 134.526 28.7383C135.401 28.7383 135.955 29.1621 136.037 29.8457H137.172C137.117 28.6426 136.037 27.7676 134.567 27.7676C133.002 27.7676 131.915 28.6357 131.915 29.8525ZM139.95 31.0488V25.1357H138.761V35H139.95V32.3203L140.613 31.6914L143.252 35H144.633L141.454 30.96L144.537 27.8906H143.095L139.95 31.0488ZM145.696 35H146.885V27.8906H145.696V35ZM146.29 26.6943C146.701 26.6943 147.036 26.3594 147.036 25.9561C147.036 25.5459 146.701 25.2178 146.29 25.2178C145.887 25.2178 145.552 25.5459 145.552 25.9561C145.552 26.3594 145.887 26.6943 146.29 26.6943ZM148.632 35H149.821V30.8164C149.821 29.6133 150.552 28.8203 151.674 28.8203C152.767 28.8203 153.307 29.4492 153.307 30.5977V35H154.497V30.3857C154.497 28.7725 153.594 27.7676 152.036 27.7676C150.935 27.7676 150.177 28.2598 149.78 29.0254H149.753V27.8906H148.632V35ZM159.046 34.0088C157.822 34.0088 157.023 33.0107 157.023 31.418C157.023 29.8252 157.822 28.8135 159.046 28.8135C160.283 28.8135 161.11 29.8525 161.11 31.418C161.11 32.9834 160.283 34.0088 159.046 34.0088ZM159.087 37.6797C161.049 37.6797 162.3 36.5518 162.3 34.8564V27.8906H161.165V29.0869H161.145C160.673 28.2598 159.839 27.7676 158.834 27.7676C156.995 27.7676 155.806 29.1895 155.806 31.418C155.806 33.626 156.995 35.0547 158.807 35.0547C159.805 35.0547 160.646 34.5488 161.083 33.7764H161.11V34.8975C161.11 35.957 160.365 36.668 159.135 36.668C158.246 36.668 157.542 36.2373 157.31 35.5879H156.086C156.284 36.7979 157.522 37.6797 159.087 37.6797ZM167.386 35H168.575V28.8682H170.024V27.8906H168.568V27.1045C168.568 26.4004 168.876 26.0586 169.518 26.0586C169.717 26.0586 169.915 26.0791 170.058 26.0996V25.1357C169.888 25.1084 169.6 25.0811 169.334 25.0811C168.021 25.0811 167.386 25.7305 167.386 27.0977V27.8906H166.394V28.8682H167.386V35ZM173.999 35.123C175.961 35.123 177.287 33.708 177.287 31.4453C177.287 29.1758 175.961 27.7676 173.999 27.7676C172.03 27.7676 170.704 29.1758 170.704 31.4453C170.704 33.708 172.03 35.123 173.999 35.123ZM173.999 34.0771C172.741 34.0771 171.914 33.1201 171.914 31.4453C171.914 29.7705 172.741 28.8135 173.999 28.8135C175.257 28.8135 176.077 29.7705 176.077 31.4453C176.077 33.1201 175.257 34.0771 173.999 34.0771ZM178.63 35H179.82V30.5703C179.82 29.5654 180.421 28.9023 181.344 28.9023C181.631 28.9023 181.884 28.9365 181.98 28.9707V27.8154C181.884 27.8018 181.707 27.7676 181.502 27.7676C180.668 27.7676 180.011 28.2666 179.779 29.0527H179.752V27.8906H178.63V35ZM188.447 34.1113C187.592 34.1113 187.025 33.667 187.025 32.9902C187.025 32.3203 187.572 31.8965 188.529 31.835L190.429 31.7188V32.2998C190.429 33.3252 189.568 34.1113 188.447 34.1113ZM188.18 35.123C189.137 35.123 190.039 34.5898 190.463 33.7764H190.491V35H191.618V30.085C191.618 28.6699 190.566 27.7676 188.898 27.7676C187.216 27.7676 186.163 28.7109 186.081 29.9414H187.23C187.38 29.2441 187.954 28.8135 188.87 28.8135C189.855 28.8135 190.429 29.333 190.429 30.2012V30.7959L188.392 30.9121C186.751 31.0078 185.815 31.7734 185.815 32.9902C185.815 34.2686 186.765 35.123 188.18 35.123ZM202.111 27.8906H200.874L198.905 33.7354H198.878L196.916 27.8906H195.665L198.283 35H199.5L202.111 27.8906ZM205.833 28.7998C206.954 28.7998 207.7 29.6475 207.727 30.8369H203.865C203.94 29.6543 204.719 28.7998 205.833 28.7998ZM207.7 32.9629C207.501 33.6328 206.838 34.0908 205.936 34.0908C204.658 34.0908 203.858 33.1953 203.858 31.835V31.7666H208.957V31.3154C208.957 29.1621 207.775 27.7676 205.854 27.7676C203.892 27.7676 202.634 29.2646 202.634 31.4727C202.634 33.708 203.871 35.123 205.909 35.123C207.46 35.123 208.663 34.207 208.869 32.9629H207.7ZM210.301 35H211.49V30.5703C211.49 29.5654 212.092 28.9023 213.014 28.9023C213.301 28.9023 213.554 28.9365 213.65 28.9707V27.8154C213.554 27.8018 213.377 27.7676 213.172 27.7676C212.338 27.7676 211.681 28.2666 211.449 29.0527H211.422V27.8906H210.301V35ZM214.822 35H216.012V27.8906H214.822V35ZM215.417 26.6943C215.827 26.6943 216.162 26.3594 216.162 25.9561C216.162 25.5459 215.827 25.2178 215.417 25.2178C215.014 25.2178 214.679 25.5459 214.679 25.9561C214.679 26.3594 215.014 26.6943 215.417 26.6943ZM218.141 35H219.331V28.8682H220.78V27.8906H219.324V27.1045C219.324 26.4004 219.631 26.0586 220.274 26.0586C220.472 26.0586 220.67 26.0791 220.814 26.0996V25.1357C220.643 25.1084 220.356 25.0811 220.089 25.0811C218.777 25.0811 218.141 25.7305 218.141 27.0977V27.8906H217.15V28.8682H218.141V35ZM222.212 35H223.401V27.8906H222.212V35ZM222.806 26.6943C223.217 26.6943 223.552 26.3594 223.552 25.9561C223.552 25.5459 223.217 25.2178 222.806 25.2178C222.403 25.2178 222.068 25.5459 222.068 25.9561C222.068 26.3594 222.403 26.6943 222.806 26.6943ZM231.054 30.2217C230.903 28.9434 229.844 27.7676 228.067 27.7676C226.105 27.7676 224.799 29.2031 224.799 31.4453C224.799 33.7354 226.111 35.123 228.08 35.123C229.694 35.123 230.883 34.125 231.068 32.71H229.899C229.694 33.5645 229.058 34.0771 228.087 34.0771C226.857 34.0771 226.009 33.0996 226.009 31.4453C226.009 29.832 226.843 28.8135 228.073 28.8135C229.119 28.8135 229.721 29.4492 229.892 30.2217H231.054ZM234.646 34.1113C233.792 34.1113 233.224 33.667 233.224 32.9902C233.224 32.3203 233.771 31.8965 234.728 31.835L236.628 31.7188V32.2998C236.628 33.3252 235.767 34.1113 234.646 34.1113ZM234.379 35.123C235.336 35.123 236.239 34.5898 236.663 33.7764H236.69V35H237.818V30.085C237.818 28.6699 236.765 27.7676 235.097 27.7676C233.416 27.7676 232.363 28.7109 232.281 29.9414H233.429C233.58 29.2441 234.154 28.8135 235.07 28.8135C236.054 28.8135 236.628 29.333 236.628 30.2012V30.7959L234.591 30.9121C232.951 31.0078 232.014 31.7734 232.014 32.9902C232.014 34.2686 232.964 35.123 234.379 35.123ZM239.851 26.1748V27.8906H238.792V28.8682H239.851V33.1543C239.851 34.5215 240.357 35.0547 241.663 35.0547C241.943 35.0547 242.271 35.0342 242.415 35V34.002C242.333 34.0156 242.059 34.0361 241.923 34.0361C241.314 34.0361 241.041 33.7422 241.041 33.0928V28.8682H242.422V27.8906H241.041V26.1748H239.851ZM243.895 35H245.084V27.8906H243.895V35ZM244.489 26.6943C244.9 26.6943 245.235 26.3594 245.235 25.9561C245.235 25.5459 244.9 25.2178 244.489 25.2178C244.086 25.2178 243.751 25.5459 243.751 25.9561C243.751 26.3594 244.086 26.6943 244.489 26.6943ZM249.777 35.123C251.739 35.123 253.065 33.708 253.065 31.4453C253.065 29.1758 251.739 27.7676 249.777 27.7676C247.808 27.7676 246.482 29.1758 246.482 31.4453C246.482 33.708 247.808 35.123 249.777 35.123ZM249.777 34.0771C248.519 34.0771 247.692 33.1201 247.692 31.4453C247.692 29.7705 248.519 28.8135 249.777 28.8135C251.035 28.8135 251.855 29.7705 251.855 31.4453C251.855 33.1201 251.035 34.0771 249.777 34.0771ZM254.408 35H255.598V30.8164C255.598 29.6133 256.329 28.8203 257.45 28.8203C258.544 28.8203 259.084 29.4492 259.084 30.5977V35H260.273V30.3857C260.273 28.7725 259.371 27.7676 257.812 27.7676C256.712 27.7676 255.953 28.2598 255.557 29.0254H255.529V27.8906H254.408V35ZM270.848 30.2217C270.698 28.9434 269.638 27.7676 267.861 27.7676C265.899 27.7676 264.593 29.2031 264.593 31.4453C264.593 33.7354 265.906 35.123 267.875 35.123C269.488 35.123 270.677 34.125 270.862 32.71H269.693C269.488 33.5645 268.852 34.0771 267.882 34.0771C266.651 34.0771 265.803 33.0996 265.803 31.4453C265.803 29.832 266.637 28.8135 267.868 28.8135C268.914 28.8135 269.515 29.4492 269.686 30.2217H270.848ZM275.042 35.123C277.004 35.123 278.33 33.708 278.33 31.4453C278.33 29.1758 277.004 27.7676 275.042 27.7676C273.073 27.7676 271.747 29.1758 271.747 31.4453C271.747 33.708 273.073 35.123 275.042 35.123ZM275.042 34.0771C273.784 34.0771 272.957 33.1201 272.957 31.4453C272.957 29.7705 273.784 28.8135 275.042 28.8135C276.3 28.8135 277.12 29.7705 277.12 31.4453C277.12 33.1201 276.3 34.0771 275.042 34.0771ZM282.367 35.123C283.392 35.123 284.205 34.6172 284.663 33.7969H284.684V35H285.819V25.1357H284.629V29.0459H284.602C284.178 28.2666 283.358 27.7676 282.339 27.7676C280.548 27.7676 279.325 29.2168 279.325 31.4453C279.325 33.6738 280.555 35.123 282.367 35.123ZM282.592 28.8135C283.816 28.8135 284.636 29.8594 284.636 31.4453C284.636 33.0381 283.816 34.0771 282.592 34.0771C281.334 34.0771 280.541 33.0586 280.541 31.4453C280.541 29.8389 281.334 28.8135 282.592 28.8135ZM290.416 28.7998C291.537 28.7998 292.282 29.6475 292.309 30.8369H288.447C288.522 29.6543 289.302 28.7998 290.416 28.7998ZM292.282 32.9629C292.084 33.6328 291.421 34.0908 290.518 34.0908C289.24 34.0908 288.44 33.1953 288.44 31.835V31.7666H293.54V31.3154C293.54 29.1621 292.357 27.7676 290.436 27.7676C288.474 27.7676 287.217 29.2646 287.217 31.4727C287.217 33.708 288.454 35.123 290.491 35.123C292.043 35.123 293.246 34.207 293.451 32.9629H292.282ZM59.623 48.7998C60.7441 48.7998 61.4893 49.6475 61.5166 50.8369H57.6543C57.7295 49.6543 58.5088 48.7998 59.623 48.7998ZM61.4893 52.9629C61.291 53.6328 60.6279 54.0908 59.7256 54.0908C58.4473 54.0908 57.6475 53.1953 57.6475 51.835V51.7666H62.7471V51.3154C62.7471 49.1621 61.5645 47.7676 59.6436 47.7676C57.6816 47.7676 56.4238 49.2646 56.4238 51.4727C56.4238 53.708 57.6611 55.123 59.6982 55.123C61.25 55.123 62.4531 54.207 62.6582 52.9629H61.4893ZM69.9212 47.8906H68.6839L66.7152 53.7354H66.6879L64.7259 47.8906H63.475L66.0931 55H67.3099L69.9212 47.8906ZM73.6433 48.7998C74.7644 48.7998 75.5095 49.6475 75.5368 50.8369H71.6745C71.7497 49.6543 72.529 48.7998 73.6433 48.7998ZM75.5095 52.9629C75.3112 53.6328 74.6482 54.0908 73.7458 54.0908C72.4675 54.0908 71.6677 53.1953 71.6677 51.835V51.7666H76.7673V51.3154C76.7673 49.1621 75.5847 47.7676 73.6638 47.7676C71.7019 47.7676 70.4441 49.2646 70.4441 51.4727C70.4441 53.708 71.6814 55.123 73.7185 55.123C75.2702 55.123 76.4734 54.207 76.6784 52.9629H75.5095ZM78.1104 55H79.2999V50.5703C79.2999 49.5654 79.9014 48.9023 80.8243 48.9023C81.1114 48.9023 81.3643 48.9365 81.46 48.9707V47.8154C81.3643 47.8018 81.1866 47.7676 80.9815 47.7676C80.1475 47.7676 79.4913 48.2666 79.2589 49.0527H79.2315V47.8906H78.1104V55ZM83.1586 57.6592C84.4438 57.6592 85.0317 57.1602 85.6401 55.499L88.436 47.8906H87.185L85.2162 53.8105H85.1957L83.227 47.8906H81.9555L84.5805 55.0068L84.4164 55.5059C84.143 56.333 83.7739 56.6543 83.1108 56.6543C82.9604 56.6543 82.7758 56.6475 82.6459 56.6201V57.6182C82.7758 57.6455 83.0151 57.6592 83.1586 57.6592ZM92.9132 46.1748V47.8906H91.8537V48.8682H92.9132V53.1543C92.9132 54.5215 93.4191 55.0547 94.7248 55.0547C95.005 55.0547 95.3332 55.0342 95.4767 55V54.002C95.3947 54.0156 95.1213 54.0361 94.9845 54.0361C94.3761 54.0361 94.1027 53.7422 94.1027 53.0928V48.8682H95.4836V47.8906H94.1027V46.1748H92.9132ZM96.9566 55H98.146V47.8906H96.9566V55ZM97.5513 46.6943C97.9614 46.6943 98.2964 46.3594 98.2964 45.9561C98.2964 45.5459 97.9614 45.2178 97.5513 45.2178C97.148 45.2178 96.813 45.5459 96.813 45.9561C96.813 46.3594 97.148 46.6943 97.5513 46.6943ZM99.8925 55H101.082V50.543C101.082 49.5586 101.766 48.8203 102.709 48.8203C103.591 48.8203 104.165 49.3809 104.165 50.2354V55H105.354V50.4814C105.354 49.5176 106.017 48.8203 106.961 48.8203C107.897 48.8203 108.437 49.3945 108.437 50.3652V55H109.627V50.0918C109.627 48.6836 108.718 47.7676 107.309 47.7676C106.311 47.7676 105.477 48.2734 105.081 49.1211H105.054C104.746 48.2598 104.028 47.7676 103.057 47.7676C102.1 47.7676 101.376 48.2734 101.041 49.0254H101.014V47.8906H99.8925V55ZM114.135 48.7998C115.256 48.7998 116.001 49.6475 116.029 50.8369H112.166C112.241 49.6543 113.021 48.7998 114.135 48.7998ZM116.001 52.9629C115.803 53.6328 115.14 54.0908 114.238 54.0908C112.959 54.0908 112.159 53.1953 112.159 51.835V51.7666H117.259V51.3154C117.259 49.1621 116.076 47.7676 114.156 47.7676C112.194 47.7676 110.936 49.2646 110.936 51.4727C110.936 53.708 112.173 55.123 114.21 55.123C115.762 55.123 116.965 54.207 117.17 52.9629H116.001ZM122.201 57.6592C123.486 57.6592 124.074 57.1602 124.683 55.499L127.478 47.8906H126.228L124.259 53.8105H124.238L122.269 47.8906H120.998L123.623 55.0068L123.459 55.5059C123.186 56.333 122.816 56.6543 122.153 56.6543C122.003 56.6543 121.818 56.6475 121.688 56.6201V57.6182C121.818 57.6455 122.058 57.6592 122.201 57.6592ZM131.303 55.123C133.265 55.123 134.591 53.708 134.591 51.4453C134.591 49.1758 133.265 47.7676 131.303 47.7676C129.334 47.7676 128.008 49.1758 128.008 51.4453C128.008 53.708 129.334 55.123 131.303 55.123ZM131.303 54.0771C130.045 54.0771 129.218 53.1201 129.218 51.4453C129.218 49.7705 130.045 48.8135 131.303 48.8135C132.561 48.8135 133.381 49.7705 133.381 51.4453C133.381 53.1201 132.561 54.0771 131.303 54.0771ZM141.772 47.8906H140.583V52.0674C140.583 53.2773 139.885 54.0703 138.73 54.0703C137.63 54.0703 137.09 53.4482 137.09 52.293V47.8906H135.9V52.5049C135.9 54.1182 136.809 55.123 138.361 55.123C139.455 55.123 140.193 54.665 140.617 53.8447H140.644V55H141.772V47.8906ZM146.53 55H147.719V45.1357H146.53V55ZM152.412 55.123C154.374 55.123 155.7 53.708 155.7 51.4453C155.7 49.1758 154.374 47.7676 152.412 47.7676C150.443 47.7676 149.117 49.1758 149.117 51.4453C149.117 53.708 150.443 55.123 152.412 55.123ZM152.412 54.0771C151.154 54.0771 150.327 53.1201 150.327 51.4453C150.327 49.7705 151.154 48.8135 152.412 48.8135C153.67 48.8135 154.49 49.7705 154.49 51.4453C154.49 53.1201 153.67 54.0771 152.412 54.0771ZM159.935 54.0088C158.711 54.0088 157.911 53.0107 157.911 51.418C157.911 49.8252 158.711 48.8135 159.935 48.8135C161.172 48.8135 161.999 49.8525 161.999 51.418C161.999 52.9834 161.172 54.0088 159.935 54.0088ZM159.976 57.6797C161.938 57.6797 163.189 56.5518 163.189 54.8564V47.8906H162.054V49.0869H162.033C161.562 48.2598 160.728 47.7676 159.723 47.7676C157.884 47.7676 156.694 49.1895 156.694 51.418C156.694 53.626 157.884 55.0547 159.695 55.0547C160.693 55.0547 161.534 54.5488 161.972 53.7764H161.999V54.8975C161.999 55.957 161.254 56.668 160.024 56.668C159.135 56.668 158.431 56.2373 158.198 55.5879H156.975C157.173 56.7979 158.41 57.6797 159.976 57.6797ZM167.953 55H169.142V47.8906H167.953V55ZM168.548 46.6943C168.958 46.6943 169.293 46.3594 169.293 45.9561C169.293 45.5459 168.958 45.2178 168.548 45.2178C168.144 45.2178 167.809 45.5459 167.809 45.9561C167.809 46.3594 168.144 46.6943 168.548 46.6943ZM170.889 55H172.078V50.8164C172.078 49.6133 172.81 48.8203 173.931 48.8203C175.025 48.8203 175.565 49.4492 175.565 50.5977V55H176.754V50.3857C176.754 48.7725 175.852 47.7676 174.293 47.7676C173.193 47.7676 172.434 48.2598 172.037 49.0254H172.01V47.8906H170.889V55ZM184.369 55.123C186.331 55.123 187.657 53.708 187.657 51.4453C187.657 49.1758 186.331 47.7676 184.369 47.7676C182.4 47.7676 181.074 49.1758 181.074 51.4453C181.074 53.708 182.4 55.123 184.369 55.123ZM184.369 54.0771C183.111 54.0771 182.284 53.1201 182.284 51.4453C182.284 49.7705 183.111 48.8135 184.369 48.8135C185.627 48.8135 186.447 49.7705 186.447 51.4453C186.447 53.1201 185.627 54.0771 184.369 54.0771ZM189 55H190.19V50.8164C190.19 49.6133 190.921 48.8203 192.042 48.8203C193.136 48.8203 193.676 49.4492 193.676 50.5977V55H194.866V50.3857C194.866 48.7725 193.963 47.7676 192.405 47.7676C191.304 47.7676 190.545 48.2598 190.149 49.0254H190.121V47.8906H189V55ZM201.879 54.1113C201.024 54.1113 200.457 53.667 200.457 52.9902C200.457 52.3203 201.004 51.8965 201.961 51.835L203.861 51.7188V52.2998C203.861 53.3252 203 54.1113 201.879 54.1113ZM201.612 55.123C202.569 55.123 203.472 54.5898 203.896 53.7764H203.923V55H205.051V50.085C205.051 48.6699 203.998 47.7676 202.33 47.7676C200.648 47.7676 199.596 48.7109 199.514 49.9414H200.662C200.812 49.2441 201.387 48.8135 202.303 48.8135C203.287 48.8135 203.861 49.333 203.861 50.2012V50.7959L201.824 50.9121C200.184 51.0078 199.247 51.7734 199.247 52.9902C199.247 54.2686 200.197 55.123 201.612 55.123ZM206.702 55H207.891V50.8164C207.891 49.6133 208.622 48.8203 209.744 48.8203C210.837 48.8203 211.377 49.4492 211.377 50.5977V55H212.567V50.3857C212.567 48.7725 211.664 47.7676 210.106 47.7676C209.005 47.7676 208.246 48.2598 207.85 49.0254H207.823V47.8906H206.702V55ZM217.171 55.123C219.133 55.123 220.459 53.708 220.459 51.4453C220.459 49.1758 219.133 47.7676 217.171 47.7676C215.202 47.7676 213.876 49.1758 213.876 51.4453C213.876 53.708 215.202 55.123 217.171 55.123ZM217.171 54.0771C215.913 54.0771 215.086 53.1201 215.086 51.4453C215.086 49.7705 215.913 48.8135 217.171 48.8135C218.428 48.8135 219.249 49.7705 219.249 51.4453C219.249 53.1201 218.428 54.0771 217.171 54.0771ZM222.185 46.1748V47.8906H221.125V48.8682H222.185V53.1543C222.185 54.5215 222.691 55.0547 223.996 55.0547C224.276 55.0547 224.605 55.0342 224.748 55V54.002C224.666 54.0156 224.393 54.0361 224.256 54.0361C223.648 54.0361 223.374 53.7422 223.374 53.0928V48.8682H224.755V47.8906H223.374V46.1748H222.185ZM226.228 55H227.417V50.8574C227.417 49.627 228.149 48.8203 229.331 48.8203C230.446 48.8203 231.013 49.4971 231.013 50.625V55H232.203V50.4062C232.203 48.8203 231.259 47.7676 229.701 47.7676C228.621 47.7676 227.841 48.2324 227.445 49.0254H227.417V45.1357H226.228V55ZM236.704 48.7998C237.825 48.7998 238.57 49.6475 238.597 50.8369H234.735C234.81 49.6543 235.59 48.7998 236.704 48.7998ZM238.57 52.9629C238.372 53.6328 237.709 54.0908 236.806 54.0908C235.528 54.0908 234.728 53.1953 234.728 51.835V51.7666H239.828V51.3154C239.828 49.1621 238.645 47.7676 236.724 47.7676C234.762 47.7676 233.505 49.2646 233.505 51.4727C233.505 53.708 234.742 55.123 236.779 55.123C238.331 55.123 239.534 54.207 239.739 52.9629H238.57ZM241.171 55H242.361V50.5703C242.361 49.5654 242.962 48.9023 243.885 48.9023C244.172 48.9023 244.425 48.9365 244.521 48.9707V47.8154C244.425 47.8018 244.247 47.7676 244.042 47.7676C243.208 47.7676 242.552 48.2666 242.319 49.0527H242.292V47.8906H241.171V55ZM251.336 55.123C252.361 55.123 253.175 54.6172 253.633 53.7969H253.653V55H254.788V45.1357H253.599V49.0459H253.571C253.147 48.2666 252.327 47.7676 251.308 47.7676C249.517 47.7676 248.294 49.2168 248.294 51.4453C248.294 53.6738 249.524 55.123 251.336 55.123ZM251.561 48.8135C252.785 48.8135 253.605 49.8594 253.605 51.4453C253.605 53.0381 252.785 54.0771 251.561 54.0771C250.304 54.0771 249.511 53.0586 249.511 51.4453C249.511 49.8389 250.304 48.8135 251.561 48.8135ZM259.385 48.7998C260.506 48.7998 261.251 49.6475 261.279 50.8369H257.416C257.491 49.6543 258.271 48.7998 259.385 48.7998ZM261.251 52.9629C261.053 53.6328 260.39 54.0908 259.488 54.0908C258.209 54.0908 257.409 53.1953 257.409 51.835V51.7666H262.509V51.3154C262.509 49.1621 261.326 47.7676 259.406 47.7676C257.444 47.7676 256.186 49.2646 256.186 51.4727C256.186 53.708 257.423 55.123 259.46 55.123C261.012 55.123 262.215 54.207 262.42 52.9629H261.251ZM269.683 47.8906H268.446L266.477 53.7354H266.45L264.488 47.8906H263.237L265.855 55H267.072L269.683 47.8906ZM270.821 55H272.011V47.8906H270.821V55ZM271.416 46.6943C271.826 46.6943 272.161 46.3594 272.161 45.9561C272.161 45.5459 271.826 45.2178 271.416 45.2178C271.013 45.2178 270.678 45.5459 270.678 45.9561C270.678 46.3594 271.013 46.6943 271.416 46.6943ZM279.663 50.2217C279.513 48.9434 278.453 47.7676 276.676 47.7676C274.714 47.7676 273.409 49.2031 273.409 51.4453C273.409 53.7354 274.721 55.123 276.69 55.123C278.303 55.123 279.492 54.125 279.677 52.71H278.508C278.303 53.5645 277.667 54.0771 276.697 54.0771C275.466 54.0771 274.618 53.0996 274.618 51.4453C274.618 49.832 275.452 48.8135 276.683 48.8135C277.729 48.8135 278.33 49.4492 278.501 50.2217H279.663ZM283.761 48.7998C284.883 48.7998 285.628 49.6475 285.655 50.8369H281.793C281.868 49.6543 282.647 48.7998 283.761 48.7998ZM285.628 52.9629C285.429 53.6328 284.766 54.0908 283.864 54.0908C282.586 54.0908 281.786 53.1953 281.786 51.835V51.7666H286.885V51.3154C286.885 49.1621 285.703 47.7676 283.782 47.7676C281.82 47.7676 280.562 49.2646 280.562 51.4727C280.562 53.708 281.799 55.123 283.837 55.123C285.388 55.123 286.591 54.207 286.797 52.9629H285.628ZM289.233 55.0684C289.671 55.0684 290.013 54.7266 290.013 54.2891C290.013 53.8516 289.671 53.5098 289.233 53.5098C288.796 53.5098 288.454 53.8516 288.454 54.2891C288.454 54.7266 288.796 55.0684 289.233 55.0684Z" fill="#6B7280"/>
</svg>
