<svg width="327" height="42" viewBox="0 0 327 42" fill="none" xmlns="http://www.w3.org/2000/svg">
<path d="M4.47754 15.1914C6.56934 15.1914 8.08008 13.7559 8.08008 11.7803C8.08008 9.90723 6.68555 8.51953 4.80566 8.51953C3.5752 8.51953 2.5293 9.16211 2.09863 10.1191H2.07129C2.07812 7.6377 2.98047 6.22949 4.53223 6.22949C5.43457 6.22949 6.17285 6.75586 6.41211 7.5625H7.94336C7.64258 5.99023 6.28906 4.94434 4.5459 4.94434C2.07812 4.94434 0.601562 6.89941 0.601562 10.2012C0.601562 11.3564 0.806641 12.3271 1.20996 13.1133C1.85254 14.4463 3.02148 15.1914 4.47754 15.1914ZM4.46387 13.8994C3.28809 13.8994 2.37891 12.9697 2.37891 11.8008C2.37891 10.6318 3.27441 9.77051 4.47754 9.77051C5.6875 9.77051 6.55566 10.6318 6.55566 11.8281C6.55566 12.9834 5.62598 13.8994 4.46387 13.8994ZM18.9079 13.6738H14.1775V10.6113H18.655V9.33984H14.1775V6.45508H18.9079V5.13574H12.6462V15H18.9079V13.6738ZM20.4425 15H21.919V10.5566C21.919 9.63379 22.5411 8.9502 23.4161 8.9502C24.2501 8.9502 24.7764 9.47656 24.7764 10.3037V15H26.2257V10.5088C26.2257 9.59961 26.8341 8.9502 27.7091 8.9502C28.5841 8.9502 29.0831 9.4834 29.0831 10.4131V15H30.5665V10.0576C30.5665 8.62891 29.6368 7.68555 28.2149 7.68555C27.1895 7.68555 26.3419 8.21875 25.9727 9.09375H25.9386C25.6514 8.19824 24.9268 7.68555 23.9288 7.68555C22.9581 7.68555 22.2061 8.21875 21.8848 9.01855H21.8507V7.80859H20.4425V15ZM35.8813 7.69238C34.8422 7.69238 34.0151 8.21875 33.5912 9.0459H33.5639V7.80859H32.1352V17.3789H33.6118V13.8174H33.6459C34.0561 14.6172 34.8764 15.123 35.9086 15.123C37.7133 15.123 38.9096 13.6807 38.9096 11.4043C38.9096 9.12793 37.7065 7.69238 35.8813 7.69238ZM35.4916 13.8721C34.3569 13.8721 33.6049 12.9014 33.6049 11.4043C33.6049 9.9209 34.3637 8.93652 35.4916 8.93652C36.6606 8.93652 37.392 9.90039 37.392 11.4043C37.392 12.915 36.6606 13.8721 35.4916 13.8721ZM40.2459 15H41.7225V5.13574H40.2459V15ZM46.4699 15.1367C48.5275 15.1367 49.881 13.7217 49.881 11.4043C49.881 9.09375 48.5207 7.67871 46.4699 7.67871C44.4191 7.67871 43.0588 9.09375 43.0588 11.4043C43.0588 13.7217 44.4123 15.1367 46.4699 15.1367ZM46.4699 13.9199C45.3146 13.9199 44.5627 13.0039 44.5627 11.4043C44.5627 9.81152 45.3146 8.89551 46.4699 8.89551C47.6252 8.89551 48.3771 9.81152 48.3771 11.4043C48.3771 13.0039 47.632 13.9199 46.4699 13.9199ZM51.6821 17.6797C53.1792 17.6797 53.8833 17.1191 54.4986 15.376L57.1987 7.80859H55.6402L53.815 13.6602H53.7945L51.9693 7.80859H50.3696L52.9673 15.0068C52.9673 15.0137 52.8374 15.4375 52.8374 15.4512C52.6118 16.1895 52.2495 16.4766 51.5591 16.4766C51.4361 16.4766 51.19 16.4766 51.0806 16.4492V17.6455C51.19 17.666 51.5659 17.6797 51.6821 17.6797ZM61.0096 8.86816C62.0419 8.86816 62.7391 9.64062 62.7733 10.7412H59.1776C59.2528 9.6543 59.9774 8.86816 61.0096 8.86816ZM62.7665 12.8877C62.5682 13.5166 61.9462 13.9404 61.1054 13.9404C59.9227 13.9404 59.1708 13.1133 59.1708 11.8623V11.7734H64.2499V11.2676C64.2499 9.08691 63.0057 7.67871 61.0096 7.67871C58.9794 7.67871 57.6805 9.18262 57.6805 11.4385C57.6805 13.708 58.9589 15.1367 61.0712 15.1367C62.7186 15.1367 63.9628 14.2002 64.1679 12.8877H62.7665ZM68.5461 8.86816C69.5784 8.86816 70.2756 9.64062 70.3098 10.7412H66.7141C66.7893 9.6543 67.5139 8.86816 68.5461 8.86816ZM70.303 12.8877C70.1047 13.5166 69.4827 13.9404 68.6418 13.9404C67.4592 13.9404 66.7073 13.1133 66.7073 11.8623V11.7734H71.7864V11.2676C71.7864 9.08691 70.5422 7.67871 68.5461 7.67871C66.5159 7.67871 65.217 9.18262 65.217 11.4385C65.217 13.708 66.4954 15.1367 68.6077 15.1367C70.2551 15.1367 71.4993 14.2002 71.7043 12.8877H70.303ZM72.9449 9.8457C72.9449 10.8506 73.6012 11.5273 74.9 11.8418L76.1852 12.1562C76.9371 12.3477 77.2105 12.6006 77.2105 13.0586C77.2105 13.6396 76.6637 14.0088 75.775 14.0088C74.8727 14.0088 74.3395 13.626 74.2232 12.9355H72.7604C72.8766 14.2549 74.0045 15.1367 75.7066 15.1367C77.4703 15.1367 78.6939 14.2344 78.6939 12.9219C78.6939 11.8623 78.1471 11.3154 76.6979 10.9668L75.4879 10.6865C74.7428 10.502 74.3873 10.2012 74.3873 9.75684C74.3873 9.18945 74.9205 8.7998 75.7203 8.7998C76.5475 8.7998 77.0738 9.20312 77.1422 9.85254H78.5299C78.482 8.57422 77.3609 7.67871 75.7613 7.67871C74.0797 7.67871 72.9449 8.56055 72.9449 9.8457ZM84.6751 15V10.8711H88.9134V9.5791H84.6751V6.45508H89.303V5.13574H83.1439V15H84.6751ZM93.4421 15.1367C95.4997 15.1367 96.8532 13.7217 96.8532 11.4043C96.8532 9.09375 95.4929 7.67871 93.4421 7.67871C91.3913 7.67871 90.0309 9.09375 90.0309 11.4043C90.0309 13.7217 91.3845 15.1367 93.4421 15.1367ZM93.4421 13.9199C92.2868 13.9199 91.5348 13.0039 91.5348 11.4043C91.5348 9.81152 92.2868 8.89551 93.4421 8.89551C94.5973 8.89551 95.3493 9.81152 95.3493 11.4043C95.3493 13.0039 94.6042 13.9199 93.4421 13.9199ZM98.1348 15H99.6114V10.6934C99.6114 9.6748 100.199 9.03906 101.149 9.03906C101.437 9.03906 101.696 9.07324 101.813 9.12109V7.74707C101.703 7.72656 101.519 7.69238 101.307 7.69238C100.459 7.69238 99.8164 8.19141 99.5772 9.03223H99.543V7.80859H98.1348V15Z" fill="#111827"/>
<path d="M1.875 28.5449H0.820312V34.0352C0.820312 35.8398 2.08008 37.1406 4.17773 37.1406C6.27539 37.1406 7.53516 35.8398 7.53516 34.0352V28.5449H6.48047V33.9648C6.48047 35.2422 5.64258 36.168 4.17773 36.168C2.71289 36.168 1.875 35.2422 1.875 33.9648V28.5449ZM10.3505 37V28.5449H9.29578V37H10.3505ZM12.1638 38.7988L15.158 28.5449H14.2849L11.2908 38.7988H12.1638ZM17.153 28.5449H16.0983V34.0352C16.0983 35.8398 17.358 37.1406 19.4557 37.1406C21.5534 37.1406 22.8131 35.8398 22.8131 34.0352V28.5449H21.7584V33.9648C21.7584 35.2422 20.9205 36.168 19.4557 36.168C17.9909 36.168 17.153 35.2422 17.153 33.9648V28.5449ZM24.0171 37H25.2124L27.4917 33.6309H27.5327L29.7769 37H31.0425L28.189 32.8105V32.7754L31.107 28.5449H29.9058L27.6206 31.9434H27.5796L25.3237 28.5449H24.0523L26.8941 32.7227V32.7637L24.0171 37ZM34.8919 28.5449V37H37.7337C40.2473 37 41.7239 35.4355 41.7239 32.7695C41.7239 30.1094 40.2415 28.5449 37.7337 28.5449H34.8919ZM35.9466 29.4941H37.6634C39.5852 29.4941 40.6458 30.666 40.6458 32.7812C40.6458 34.8789 39.5794 36.0508 37.6634 36.0508H35.9466V29.4941ZM45.4416 31.6855C46.4025 31.6855 47.0412 32.4121 47.0646 33.4316H43.7541C43.8185 32.418 44.4865 31.6855 45.4416 31.6855ZM47.0412 35.2539C46.8713 35.8281 46.3029 36.2207 45.5295 36.2207C44.4338 36.2207 43.7482 35.4531 43.7482 34.2871V34.2285H48.1193V33.8418C48.1193 31.9961 47.1056 30.8008 45.4591 30.8008C43.7775 30.8008 42.6994 32.084 42.6994 33.9766C42.6994 35.8926 43.7599 37.1055 45.506 37.1055C46.8361 37.1055 47.8673 36.3203 48.0431 35.2539H47.0412ZM49.1651 32.5879C49.1651 33.4199 49.6924 33.9707 50.7647 34.2461L51.837 34.5215C52.5225 34.7031 52.7745 34.9375 52.7745 35.3711C52.7745 35.9219 52.2647 36.2734 51.4385 36.2734C50.6123 36.2734 50.1319 35.9336 50.0205 35.3008H49.001C49.1065 36.3789 50.0381 37.1055 51.3741 37.1055C52.7979 37.1055 53.7998 36.3555 53.7998 35.2949C53.7998 34.3984 53.3545 33.9531 52.1241 33.6426L51.1807 33.4141C50.4893 33.2383 50.167 32.957 50.167 32.5352C50.167 32.002 50.6592 31.6328 51.4034 31.6328C52.1534 31.6328 52.628 31.9961 52.6983 32.582H53.6709C53.6241 31.5508 52.6983 30.8008 51.4385 30.8008C50.0967 30.8008 49.1651 31.5449 49.1651 32.5879ZM55.0331 37H56.0527V30.9062H55.0331V37ZM55.5429 29.8809C55.8945 29.8809 56.1816 29.5938 56.1816 29.248C56.1816 28.8965 55.8945 28.6152 55.5429 28.6152C55.1972 28.6152 54.9101 28.8965 54.9101 29.248C54.9101 29.5938 55.1972 29.8809 55.5429 29.8809ZM60.0281 36.1504C58.9793 36.1504 58.2938 35.2949 58.2938 33.9297C58.2938 32.5645 58.9793 31.6973 60.0281 31.6973C61.0887 31.6973 61.7977 32.5879 61.7977 33.9297C61.7977 35.2715 61.0887 36.1504 60.0281 36.1504ZM60.0633 39.2969C61.7449 39.2969 62.8172 38.3301 62.8172 36.877V30.9062H61.8445V31.9316H61.827C61.4227 31.2227 60.7078 30.8008 59.8465 30.8008C58.2703 30.8008 57.2508 32.0195 57.2508 33.9297C57.2508 35.8223 58.2703 37.0469 59.823 37.0469C60.6785 37.0469 61.3992 36.6133 61.7742 35.9512H61.7977V36.9121C61.7977 37.8203 61.159 38.4297 60.1043 38.4297C59.3426 38.4297 58.7391 38.0605 58.5398 37.5039H57.491C57.6609 38.541 58.7215 39.2969 60.0633 39.2969ZM64.2673 37H65.2868V33.4141C65.2868 32.3828 65.9137 31.7031 66.8747 31.7031C67.8122 31.7031 68.2751 32.2422 68.2751 33.2266V37H69.2946V33.0449C69.2946 31.6621 68.5212 30.8008 67.1852 30.8008C66.2419 30.8008 65.5915 31.2227 65.2516 31.8789H65.2282V30.9062H64.2673V37Z" fill="#6B7280"/>
<path d="M207.875 16.5449H206.82V22.0352C206.82 23.8398 208.08 25.1406 210.178 25.1406C212.275 25.1406 213.535 23.8398 213.535 22.0352V16.5449H212.48V21.9648C212.48 23.2422 211.643 24.168 210.178 24.168C208.713 24.168 207.875 23.2422 207.875 21.9648V16.5449ZM216.35 25V16.5449H215.296V25H216.35ZM218.164 26.7988L221.158 16.5449H220.285L217.291 26.7988H218.164ZM223.153 16.5449H222.098V22.0352C222.098 23.8398 223.358 25.1406 225.456 25.1406C227.553 25.1406 228.813 23.8398 228.813 22.0352V16.5449H227.758V21.9648C227.758 23.2422 226.921 24.168 225.456 24.168C223.991 24.168 223.153 23.2422 223.153 21.9648V16.5449ZM230.017 25H231.212L233.492 21.6309H233.533L235.777 25H237.042L234.189 20.8105V20.7754L237.107 16.5449H235.906L233.621 19.9434H233.58L231.324 16.5449H230.052L232.894 20.7227V20.7637L230.017 25ZM240.892 16.5449V25H243.734C246.247 25 247.724 23.4355 247.724 20.7695C247.724 18.1094 246.241 16.5449 243.734 16.5449H240.892ZM241.947 17.4941H243.663C245.585 17.4941 246.646 18.666 246.646 20.7812C246.646 22.8789 245.579 24.0508 243.663 24.0508H241.947V17.4941ZM251.442 19.6855C252.403 19.6855 253.041 20.4121 253.065 21.4316H249.754C249.819 20.418 250.486 19.6855 251.442 19.6855ZM253.041 23.2539C252.871 23.8281 252.303 24.2207 251.529 24.2207C250.434 24.2207 249.748 23.4531 249.748 22.2871V22.2285H254.119V21.8418C254.119 19.9961 253.106 18.8008 251.459 18.8008C249.778 18.8008 248.699 20.084 248.699 21.9766C248.699 23.8926 249.76 25.1055 251.506 25.1055C252.836 25.1055 253.867 24.3203 254.043 23.2539H253.041ZM255.165 20.5879C255.165 21.4199 255.692 21.9707 256.765 22.2461L257.837 22.5215C258.522 22.7031 258.774 22.9375 258.774 23.3711C258.774 23.9219 258.265 24.2734 257.439 24.2734C256.612 24.2734 256.132 23.9336 256.021 23.3008H255.001C255.106 24.3789 256.038 25.1055 257.374 25.1055C258.798 25.1055 259.8 24.3555 259.8 23.2949C259.8 22.3984 259.355 21.9531 258.124 21.6426L257.181 21.4141C256.489 21.2383 256.167 20.957 256.167 20.5352C256.167 20.002 256.659 19.6328 257.403 19.6328C258.153 19.6328 258.628 19.9961 258.698 20.582H259.671C259.624 19.5508 258.698 18.8008 257.439 18.8008C256.097 18.8008 255.165 19.5449 255.165 20.5879ZM261.033 25H262.053V18.9062H261.033V25ZM261.543 17.8809C261.894 17.8809 262.182 17.5938 262.182 17.248C262.182 16.8965 261.894 16.6152 261.543 16.6152C261.197 16.6152 260.91 16.8965 260.91 17.248C260.91 17.5938 261.197 17.8809 261.543 17.8809ZM266.028 24.1504C264.979 24.1504 264.294 23.2949 264.294 21.9297C264.294 20.5645 264.979 19.6973 266.028 19.6973C267.089 19.6973 267.798 20.5879 267.798 21.9297C267.798 23.2715 267.089 24.1504 266.028 24.1504ZM266.063 27.2969C267.745 27.2969 268.817 26.3301 268.817 24.877V18.9062H267.845V19.9316H267.827C267.423 19.2227 266.708 18.8008 265.846 18.8008C264.27 18.8008 263.251 20.0195 263.251 21.9297C263.251 23.8223 264.27 25.0469 265.823 25.0469C266.679 25.0469 267.399 24.6133 267.774 23.9512H267.798V24.9121C267.798 25.8203 267.159 26.4297 266.104 26.4297C265.343 26.4297 264.739 26.0605 264.54 25.5039H263.491C263.661 26.541 264.721 27.2969 266.063 27.2969ZM270.267 25H271.287V21.4141C271.287 20.3828 271.914 19.7031 272.875 19.7031C273.812 19.7031 274.275 20.2422 274.275 21.2266V25H275.295V21.0449C275.295 19.6621 274.521 18.8008 273.185 18.8008C272.242 18.8008 271.591 19.2227 271.252 19.8789H271.228V18.9062H270.267V25ZM279.159 19.6855C280.12 19.6855 280.758 20.4121 280.782 21.4316H277.471C277.536 20.418 278.204 19.6855 279.159 19.6855ZM280.758 23.2539C280.588 23.8281 280.02 24.2207 279.247 24.2207C278.151 24.2207 277.465 23.4531 277.465 22.2871V22.2285H281.836V21.8418C281.836 19.9961 280.823 18.8008 279.176 18.8008C277.495 18.8008 276.417 20.084 276.417 21.9766C276.417 23.8926 277.477 25.1055 279.223 25.1055C280.553 25.1055 281.585 24.3203 281.76 23.2539H280.758ZM282.988 25H284.007V21.2031C284.007 20.3418 284.523 19.7734 285.314 19.7734C285.56 19.7734 285.777 19.8027 285.859 19.832V18.8418C285.777 18.8301 285.624 18.8008 285.449 18.8008C284.734 18.8008 284.171 19.2285 283.972 19.9023H283.949V18.9062H282.988V25Z" fill="#111827"/>
<path d="M303 24.2C302.533 24.2 302.067 24.0201 301.713 23.6667L297.367 19.3201C297.173 19.1267 297.173 18.8067 297.367 18.6134C297.56 18.4201 297.88 18.4201 298.073 18.6134L302.42 22.9601C302.74 23.2801 303.26 23.2801 303.58 22.9601L307.927 18.6134C308.12 18.4201 308.44 18.4201 308.633 18.6134C308.827 18.8067 308.827 19.1267 308.633 19.3201L304.287 23.6667C303.933 24.0201 303.467 24.2 303 24.2Z" fill="#111827"/>
<rect x="190.5" y="2.5" width="136" height="37" rx="18.5" stroke="#D1D5DB"/>
</svg>
