<svg width="375" height="36" viewBox="0 0 375 36" fill="none" xmlns="http://www.w3.org/2000/svg">
<rect x="0.5" y="0.5" width="374" height="35" fill="#F4F4F5"/>
<path d="M26.4404 13.1357H24.9092V19.5342C24.9092 21.6602 26.4268 23.1641 28.9014 23.1641C31.376 23.1641 32.8936 21.6602 32.8936 19.5342V13.1357H31.3691V19.4043C31.3691 20.8125 30.4736 21.8037 28.9014 21.8037C27.3291 21.8037 26.4404 20.8125 26.4404 19.4043V13.1357ZM34.6742 23H36.1507V18.8096C36.1507 17.6953 36.8207 16.957 37.8597 16.957C38.8851 16.957 39.391 17.5518 39.391 18.6318V23H40.8744V18.3447C40.8744 16.6973 39.9652 15.6855 38.3793 15.6855C37.2718 15.6855 36.5062 16.1914 36.1166 17.0117H36.0824V15.8086H34.6742V23ZM42.4431 23H43.9196V18.6934C43.9196 17.6748 44.5075 17.0391 45.4577 17.0391C45.7448 17.0391 46.0046 17.0732 46.1208 17.1211V15.7471C46.0114 15.7266 45.8269 15.6924 45.615 15.6924C44.7673 15.6924 44.1247 16.1914 43.8855 17.0322H43.8513V15.8086H42.4431V23ZM49.8702 16.8682C50.9024 16.8682 51.5997 17.6406 51.6339 18.7412H48.0382C48.1134 17.6543 48.838 16.8682 49.8702 16.8682ZM51.627 20.8877C51.4288 21.5166 50.8067 21.9404 49.9659 21.9404C48.7833 21.9404 48.0313 21.1133 48.0313 19.8623V19.7734H53.1104V19.2676C53.1104 17.0869 51.8663 15.6787 49.8702 15.6787C47.8399 15.6787 46.5411 17.1826 46.5411 19.4385C46.5411 21.708 47.8194 23.1367 49.9317 23.1367C51.5792 23.1367 52.8233 22.2002 53.0284 20.8877H51.627ZM56.9145 21.9541C56.1215 21.9541 55.602 21.5439 55.602 20.915C55.602 20.2998 56.101 19.9102 56.9829 19.8486L58.7534 19.7393V20.3066C58.7534 21.2432 57.9467 21.9541 56.9145 21.9541ZM56.5043 23.123C57.4477 23.123 58.3569 22.6172 58.7739 21.8174H58.808V23H60.2231V18.0439C60.2231 16.6016 59.1088 15.6787 57.3657 15.6787C55.5883 15.6787 54.4809 16.6357 54.3989 17.9346H55.7934C55.9233 17.292 56.4565 16.8818 57.311 16.8818C58.2133 16.8818 58.7534 17.3604 58.7534 18.1602V18.7139L56.7846 18.8301C55.0756 18.9258 54.1118 19.6982 54.1118 20.9561C54.1118 22.248 55.0961 23.123 56.5043 23.123ZM64.4988 23.123C65.5447 23.123 66.365 22.5967 66.7889 21.7764H66.8162V23H68.2518V13.1357H66.7684V17.0049H66.741C66.3377 16.2119 65.5174 15.6924 64.4852 15.6924C62.6805 15.6924 61.4773 17.1348 61.4773 19.4043C61.4773 21.6738 62.6805 23.123 64.4988 23.123ZM64.8885 16.9365C66.0232 16.9365 66.782 17.9141 66.782 19.4043C66.782 20.9082 66.0232 21.8721 64.8885 21.8721C63.7195 21.8721 62.9881 20.9219 62.9881 19.4043C62.9881 17.8936 63.7195 16.9365 64.8885 16.9365Z" fill="#6B7280"/>
<path d="M238.44 14.4209H240.546C241.729 14.4209 242.446 15.0908 242.446 16.1914C242.446 17.3193 241.77 17.9688 240.587 17.9688H238.44V14.4209ZM238.44 19.2061H240.546L242.556 23H244.319L242.111 18.9668C243.314 18.5635 244.025 17.4834 244.025 16.1504C244.025 14.3115 242.761 13.1357 240.73 13.1357H236.909V23H238.44V19.2061ZM248.452 16.8682C249.484 16.8682 250.181 17.6406 250.215 18.7412H246.619C246.695 17.6543 247.419 16.8682 248.452 16.8682ZM250.208 20.8877C250.01 21.5166 249.388 21.9404 248.547 21.9404C247.365 21.9404 246.613 21.1133 246.613 19.8623V19.7734H251.692V19.2676C251.692 17.0869 250.448 15.6787 248.452 15.6787C246.421 15.6787 245.122 17.1826 245.122 19.4385C245.122 21.708 246.401 23.1367 248.513 23.1367C250.161 23.1367 251.405 22.2002 251.61 20.8877H250.208ZM255.496 21.9541C254.703 21.9541 254.183 21.5439 254.183 20.915C254.183 20.2998 254.682 19.9102 255.564 19.8486L257.335 19.7393V20.3066C257.335 21.2432 256.528 21.9541 255.496 21.9541ZM255.086 23.123C256.029 23.123 256.938 22.6172 257.355 21.8174H257.389V23H258.804V18.0439C258.804 16.6016 257.69 15.6787 255.947 15.6787C254.17 15.6787 253.062 16.6357 252.98 17.9346H254.375C254.505 17.292 255.038 16.8818 255.892 16.8818C256.795 16.8818 257.335 17.3604 257.335 18.1602V18.7139L255.366 18.8301C253.657 18.9258 252.693 19.6982 252.693 20.9561C252.693 22.248 253.677 23.123 255.086 23.123ZM263.08 23.123C264.126 23.123 264.946 22.5967 265.37 21.7764H265.398V23H266.833V13.1357H265.35V17.0049H265.322C264.919 16.2119 264.099 15.6924 263.066 15.6924C261.262 15.6924 260.059 17.1348 260.059 19.4043C260.059 21.6738 261.262 23.123 263.08 23.123ZM263.47 16.9365C264.605 16.9365 265.363 17.9141 265.363 19.4043C265.363 20.9082 264.605 21.8721 263.47 21.8721C262.301 21.8721 261.569 20.9219 261.569 19.4043C261.569 17.8936 262.301 16.9365 263.47 16.9365ZM273.99 21.9541C273.197 21.9541 272.678 21.5439 272.678 20.915C272.678 20.2998 273.177 19.9102 274.058 19.8486L275.829 19.7393V20.3066C275.829 21.2432 275.022 21.9541 273.99 21.9541ZM273.58 23.123C274.523 23.123 275.432 22.6172 275.849 21.8174H275.884V23H277.299V18.0439C277.299 16.6016 276.184 15.6787 274.441 15.6787C272.664 15.6787 271.556 16.6357 271.474 17.9346H272.869C272.999 17.292 273.532 16.8818 274.387 16.8818C275.289 16.8818 275.829 17.3604 275.829 18.1602V18.7139L273.86 18.8301C272.151 18.9258 271.187 19.6982 271.187 20.9561C271.187 22.248 272.172 23.123 273.58 23.123ZM278.929 23H280.405V13.1357H278.929V23ZM282.118 23H283.594V13.1357H282.118V23ZM288.236 23H289.712V18.5566C289.712 17.6338 290.334 16.9502 291.209 16.9502C292.043 16.9502 292.57 17.4766 292.57 18.3037V23H294.019V18.5088C294.019 17.5996 294.627 16.9502 295.502 16.9502C296.377 16.9502 296.876 17.4834 296.876 18.4131V23H298.36V18.0576C298.36 16.6289 297.43 15.6855 296.008 15.6855C294.983 15.6855 294.135 16.2188 293.766 17.0938H293.732C293.445 16.1982 292.72 15.6855 291.722 15.6855C290.751 15.6855 289.999 16.2188 289.678 17.0186H289.644V15.8086H288.236V23ZM302.936 16.8682C303.968 16.8682 304.666 17.6406 304.7 18.7412H301.104C301.179 17.6543 301.904 16.8682 302.936 16.8682ZM304.693 20.8877C304.495 21.5166 303.873 21.9404 303.032 21.9404C301.849 21.9404 301.097 21.1133 301.097 19.8623V19.7734H306.176V19.2676C306.176 17.0869 304.932 15.6787 302.936 15.6787C300.906 15.6787 299.607 17.1826 299.607 19.4385C299.607 21.708 300.885 23.1367 302.998 23.1367C304.645 23.1367 305.889 22.2002 306.094 20.8877H304.693ZM307.335 17.8457C307.335 18.8506 307.991 19.5273 309.29 19.8418L310.575 20.1562C311.327 20.3477 311.601 20.6006 311.601 21.0586C311.601 21.6396 311.054 22.0088 310.165 22.0088C309.263 22.0088 308.729 21.626 308.613 20.9355H307.15C307.267 22.2549 308.394 23.1367 310.097 23.1367C311.86 23.1367 313.084 22.2344 313.084 20.9219C313.084 19.8623 312.537 19.3154 311.088 18.9668L309.878 18.6865C309.133 18.502 308.777 18.2012 308.777 17.7568C308.777 17.1895 309.311 16.7998 310.11 16.7998C310.937 16.7998 311.464 17.2031 311.532 17.8525H312.92C312.872 16.5742 311.751 15.6787 310.151 15.6787C308.47 15.6787 307.335 16.5605 307.335 17.8457ZM314.243 17.8457C314.243 18.8506 314.899 19.5273 316.198 19.8418L317.483 20.1562C318.235 20.3477 318.508 20.6006 318.508 21.0586C318.508 21.6396 317.961 22.0088 317.073 22.0088C316.17 22.0088 315.637 21.626 315.521 20.9355H314.058C314.174 22.2549 315.302 23.1367 317.004 23.1367C318.768 23.1367 319.992 22.2344 319.992 20.9219C319.992 19.8623 319.445 19.3154 317.995 18.9668L316.785 18.6865C316.04 18.502 315.685 18.2012 315.685 17.7568C315.685 17.1895 316.218 16.7998 317.018 16.7998C317.845 16.7998 318.371 17.2031 318.44 17.8525H319.827C319.78 16.5742 318.659 15.6787 317.059 15.6787C315.377 15.6787 314.243 16.5605 314.243 17.8457ZM323.796 21.9541C323.003 21.9541 322.483 21.5439 322.483 20.915C322.483 20.2998 322.982 19.9102 323.864 19.8486L325.634 19.7393V20.3066C325.634 21.2432 324.828 21.9541 323.796 21.9541ZM323.385 23.123C324.329 23.123 325.238 22.6172 325.655 21.8174H325.689V23H327.104V18.0439C327.104 16.6016 325.99 15.6787 324.247 15.6787C322.469 15.6787 321.362 16.6357 321.28 17.9346H322.674C322.804 17.292 323.338 16.8818 324.192 16.8818C325.094 16.8818 325.634 17.3604 325.634 18.1602V18.7139L323.666 18.8301C321.957 18.9258 320.993 19.6982 320.993 20.9561C320.993 22.248 321.977 23.123 323.385 23.123ZM331.742 21.8037C330.607 21.8037 329.869 20.8877 329.869 19.3838C329.869 17.8867 330.607 16.9365 331.742 16.9365C332.897 16.9365 333.656 17.9072 333.656 19.3838C333.656 20.8672 332.897 21.8037 331.742 21.8037ZM331.756 25.707C333.807 25.707 335.133 24.5859 335.133 22.8701V15.8086H333.697V17.0391H333.67C333.232 16.2051 332.398 15.6924 331.38 15.6924C329.534 15.6924 328.358 17.1143 328.358 19.377C328.358 21.6191 329.541 23.0273 331.346 23.0273C332.371 23.0273 333.219 22.5146 333.622 21.7354H333.649V22.918C333.649 23.9023 332.966 24.5586 331.811 24.5586C330.97 24.5586 330.314 24.1621 330.102 23.5605H328.618C328.803 24.8047 330.061 25.707 331.756 25.707ZM339.744 16.8682C340.776 16.8682 341.473 17.6406 341.507 18.7412H337.912C337.987 17.6543 338.711 16.8682 339.744 16.8682ZM341.5 20.8877C341.302 21.5166 340.68 21.9404 339.839 21.9404C338.657 21.9404 337.905 21.1133 337.905 19.8623V19.7734H342.984V19.2676C342.984 17.0869 341.74 15.6787 339.744 15.6787C337.713 15.6787 336.414 17.1826 336.414 19.4385C336.414 21.708 337.693 23.1367 339.805 23.1367C341.453 23.1367 342.697 22.2002 342.902 20.8877H341.5ZM344.142 17.8457C344.142 18.8506 344.799 19.5273 346.097 19.8418L347.383 20.1562C348.135 20.3477 348.408 20.6006 348.408 21.0586C348.408 21.6396 347.861 22.0088 346.972 22.0088C346.07 22.0088 345.537 21.626 345.421 20.9355H343.958C344.074 22.2549 345.202 23.1367 346.904 23.1367C348.668 23.1367 349.891 22.2344 349.891 20.9219C349.891 19.8623 349.344 19.3154 347.895 18.9668L346.685 18.6865C345.94 18.502 345.585 18.2012 345.585 17.7568C345.585 17.1895 346.118 16.7998 346.918 16.7998C347.745 16.7998 348.271 17.2031 348.34 17.8525H349.727C349.679 16.5742 348.558 15.6787 346.959 15.6787C345.277 15.6787 344.142 16.5605 344.142 17.8457Z" fill="#3366FF"/>
<rect x="0.5" y="0.5" width="374" height="35" stroke="#E5E7EB"/>
</svg>
