<svg width="327" height="85" viewBox="0 0 327 85" fill="none" xmlns="http://www.w3.org/2000/svg">
<path d="M0.554688 12.8984C0.6875 14.8906 2.34375 16.1875 4.73438 16.1875C7.32812 16.1875 8.95312 14.8984 8.95312 12.8359C8.95312 11.2188 8.00781 10.3203 5.67188 9.73438L4.49219 9.42188C2.96094 9.02344 2.33594 8.51562 2.33594 7.66406C2.33594 6.5625 3.35156 5.80469 4.8125 5.80469C6.28125 5.80469 7.25781 6.54688 7.38281 7.75781H8.78906C8.72656 5.86719 7.10156 4.53906 4.85938 4.53906C2.51562 4.53906 0.875 5.85156 0.875 7.72656C0.875 9.25781 1.79688 10.1719 3.875 10.7031L5.32031 11.0781C6.83594 11.4688 7.5 12.0547 7.5 13.0078C7.5 14.1172 6.39062 14.9219 4.86719 14.9219C3.25781 14.9219 2.10156 14.1172 1.96875 12.8984H0.554688ZM13.8006 8.91406C15.0819 8.91406 15.9334 9.88281 15.9647 11.2422H11.5506C11.6366 9.89062 12.5272 8.91406 13.8006 8.91406ZM15.9334 13.6719C15.7069 14.4375 14.9491 14.9609 13.9178 14.9609C12.4569 14.9609 11.5428 13.9375 11.5428 12.3828V12.3047H17.3709V11.7891C17.3709 9.32812 16.0194 7.73438 13.8241 7.73438C11.5819 7.73438 10.1444 9.44531 10.1444 11.9688C10.1444 14.5234 11.5584 16.1406 13.8866 16.1406C15.66 16.1406 17.035 15.0938 17.2694 13.6719H15.9334ZM18.9762 16H20.3356V4.72656H18.9762V16ZM25.5894 8.91406C26.8706 8.91406 27.7222 9.88281 27.7534 11.2422H23.3394C23.4253 9.89062 24.3159 8.91406 25.5894 8.91406ZM27.7222 13.6719C27.4956 14.4375 26.7378 14.9609 25.7066 14.9609C24.2456 14.9609 23.3316 13.9375 23.3316 12.3828V12.3047H29.1597V11.7891C29.1597 9.32812 27.8081 7.73438 25.6128 7.73438C23.3706 7.73438 21.9331 9.44531 21.9331 11.9688C21.9331 14.5234 23.3472 16.1406 25.6753 16.1406C27.4487 16.1406 28.8237 15.0938 29.0581 13.6719H27.7222ZM37.4447 10.5391C37.2728 9.07812 36.0619 7.73438 34.0306 7.73438C31.7884 7.73438 30.2962 9.375 30.2962 11.9375C30.2962 14.5547 31.7962 16.1406 34.0462 16.1406C35.89 16.1406 37.2494 15 37.4603 13.3828H36.1244C35.89 14.3594 35.1634 14.9453 34.0541 14.9453C32.6478 14.9453 31.6791 13.8281 31.6791 11.9375C31.6791 10.0938 32.6322 8.92969 34.0384 8.92969C35.2337 8.92969 35.9212 9.65625 36.1166 10.5391H37.4447ZM39.3078 5.91406V7.875H38.0969V8.99219H39.3078V13.8906C39.3078 15.4531 39.8859 16.0625 41.3781 16.0625C41.6984 16.0625 42.0734 16.0391 42.2375 16V14.8594C42.1437 14.875 41.8312 14.8984 41.675 14.8984C40.9797 14.8984 40.6672 14.5625 40.6672 13.8203V8.99219H42.2453V7.875H40.6672V5.91406H39.3078ZM49.9794 14.9844C49.0028 14.9844 48.3544 14.4766 48.3544 13.7031C48.3544 12.9375 48.9794 12.4531 50.0731 12.3828L52.245 12.25V12.9141C52.245 14.0859 51.2606 14.9844 49.9794 14.9844ZM49.6747 16.1406C50.7684 16.1406 51.7997 15.5312 52.2841 14.6016H52.3153V16H53.6044V10.3828C53.6044 8.76562 52.4012 7.73438 50.495 7.73438C48.5731 7.73438 47.37 8.8125 47.2762 10.2188H48.5887C48.7606 9.42188 49.4169 8.92969 50.4637 8.92969C51.5887 8.92969 52.245 9.52344 52.245 10.5156V11.1953L49.9169 11.3281C48.0419 11.4375 46.9716 12.3125 46.9716 13.7031C46.9716 15.1641 48.0575 16.1406 49.6747 16.1406ZM65.5962 7.875H64.1822L61.9322 14.5547H61.9009L59.6587 7.875H58.2291L61.2212 16H62.6119L65.5962 7.875ZM69.85 8.91406C71.1312 8.91406 71.9828 9.88281 72.0141 11.2422H67.6C67.6859 9.89062 68.5766 8.91406 69.85 8.91406ZM71.9828 13.6719C71.7562 14.4375 70.9984 14.9609 69.9672 14.9609C68.5062 14.9609 67.5922 13.9375 67.5922 12.3828V12.3047H73.4203V11.7891C73.4203 9.32812 72.0687 7.73438 69.8734 7.73438C67.6312 7.73438 66.1937 9.44531 66.1937 11.9688C66.1937 14.5234 67.6078 16.1406 69.9359 16.1406C71.7094 16.1406 73.0844 15.0938 73.3187 13.6719H71.9828ZM74.9553 16H76.3147V10.9375C76.3147 9.78906 77.0022 9.03125 78.0569 9.03125C78.385 9.03125 78.6741 9.07031 78.7834 9.10938V7.78906C78.6741 7.77344 78.4709 7.73438 78.2366 7.73438C77.2834 7.73438 76.5334 8.30469 76.2678 9.20312H76.2366V7.875H74.9553V16ZM80.1231 16H81.4825V7.875H80.1231V16ZM80.8028 6.50781C81.2716 6.50781 81.6544 6.125 81.6544 5.66406C81.6544 5.19531 81.2716 4.82031 80.8028 4.82031C80.3419 4.82031 79.9591 5.19531 79.9591 5.66406C79.9591 6.125 80.3419 6.50781 80.8028 6.50781ZM83.9159 16H85.2753V8.99219H86.9316V7.875H85.2675V6.97656C85.2675 6.17188 85.6191 5.78125 86.3534 5.78125C86.58 5.78125 86.8066 5.80469 86.9706 5.82812V4.72656C86.7753 4.69531 86.4472 4.66406 86.1425 4.66406C84.6425 4.66406 83.9159 5.40625 83.9159 6.96875V7.875H82.7831V8.99219H83.9159V16ZM88.5681 16H89.9275V7.875H88.5681V16ZM89.2478 6.50781C89.7166 6.50781 90.0994 6.125 90.0994 5.66406C90.0994 5.19531 89.7166 4.82031 89.2478 4.82031C88.7869 4.82031 88.4041 5.19531 88.4041 5.66406C88.4041 6.125 88.7869 6.50781 89.2478 6.50781ZM98.6734 10.5391C98.5016 9.07812 97.2906 7.73438 95.2594 7.73438C93.0172 7.73438 91.525 9.375 91.525 11.9375C91.525 14.5547 93.025 16.1406 95.275 16.1406C97.1188 16.1406 98.4781 15 98.6891 13.3828H97.3531C97.1188 14.3594 96.3922 14.9453 95.2828 14.9453C93.8766 14.9453 92.9078 13.8281 92.9078 11.9375C92.9078 10.0938 93.8609 8.92969 95.2672 8.92969C96.4625 8.92969 97.15 9.65625 97.3453 10.5391H98.6734ZM102.779 14.9844C101.802 14.9844 101.154 14.4766 101.154 13.7031C101.154 12.9375 101.779 12.4531 102.872 12.3828L105.044 12.25V12.9141C105.044 14.0859 104.06 14.9844 102.779 14.9844ZM102.474 16.1406C103.568 16.1406 104.599 15.5312 105.083 14.6016H105.115V16H106.404V10.3828C106.404 8.76562 105.201 7.73438 103.294 7.73438C101.372 7.73438 100.169 8.8125 100.076 10.2188H101.388C101.56 9.42188 102.216 8.92969 103.263 8.92969C104.388 8.92969 105.044 9.52344 105.044 10.5156V11.1953L102.716 11.3281C100.841 11.4375 99.7709 12.3125 99.7709 13.7031C99.7709 15.1641 100.857 16.1406 102.474 16.1406ZM108.728 5.91406V7.875H107.517V8.99219H108.728V13.8906C108.728 15.4531 109.306 16.0625 110.798 16.0625C111.118 16.0625 111.493 16.0391 111.658 16V14.8594C111.564 14.875 111.251 14.8984 111.095 14.8984C110.4 14.8984 110.087 14.5625 110.087 13.8203V8.99219H111.665V7.875H110.087V5.91406H108.728ZM113.349 16H114.708V7.875H113.349V16ZM114.028 6.50781C114.497 6.50781 114.88 6.125 114.88 5.66406C114.88 5.19531 114.497 4.82031 114.028 4.82031C113.567 4.82031 113.185 5.19531 113.185 5.66406C113.185 6.125 113.567 6.50781 114.028 6.50781ZM120.071 16.1406C122.313 16.1406 123.829 14.5234 123.829 11.9375C123.829 9.34375 122.313 7.73438 120.071 7.73438C117.821 7.73438 116.306 9.34375 116.306 11.9375C116.306 14.5234 117.821 16.1406 120.071 16.1406ZM120.071 14.9453C118.634 14.9453 117.688 13.8516 117.688 11.9375C117.688 10.0234 118.634 8.92969 120.071 8.92969C121.509 8.92969 122.446 10.0234 122.446 11.9375C122.446 13.8516 121.509 14.9453 120.071 14.9453ZM125.364 16H126.723V11.2188C126.723 9.84375 127.559 8.9375 128.841 8.9375C130.091 8.9375 130.708 9.65625 130.708 10.9688V16H132.067V10.7266C132.067 8.88281 131.036 7.73438 129.255 7.73438C127.997 7.73438 127.13 8.29688 126.677 9.17188H126.645V7.875H125.364V16ZM137.403 16H138.762V10.9062C138.762 9.78125 139.543 8.9375 140.622 8.9375C141.629 8.9375 142.286 9.57812 142.286 10.5547V16H143.645V10.8359C143.645 9.73438 144.403 8.9375 145.481 8.9375C146.551 8.9375 147.168 9.59375 147.168 10.7031V16H148.528V10.3906C148.528 8.78125 147.489 7.73438 145.879 7.73438C144.739 7.73438 143.786 8.3125 143.333 9.28125H143.301C142.95 8.29688 142.129 7.73438 141.02 7.73438C139.926 7.73438 139.098 8.3125 138.715 9.17188H138.684V7.875H137.403V16ZM153.68 8.91406C154.961 8.91406 155.813 9.88281 155.844 11.2422H151.43C151.516 9.89062 152.407 8.91406 153.68 8.91406ZM155.813 13.6719C155.586 14.4375 154.828 14.9609 153.797 14.9609C152.336 14.9609 151.422 13.9375 151.422 12.3828V12.3047H157.25V11.7891C157.25 9.32812 155.899 7.73438 153.703 7.73438C151.461 7.73438 150.024 9.44531 150.024 11.9688C150.024 14.5234 151.438 16.1406 153.766 16.1406C155.539 16.1406 156.914 15.0938 157.149 13.6719H155.813ZM159.223 5.91406V7.875H158.012V8.99219H159.223V13.8906C159.223 15.4531 159.801 16.0625 161.293 16.0625C161.613 16.0625 161.988 16.0391 162.152 16V14.8594C162.059 14.875 161.746 14.8984 161.59 14.8984C160.895 14.8984 160.582 14.5625 160.582 13.8203V8.99219H162.16V7.875H160.582V5.91406H159.223ZM163.844 16H165.203V11.2656C165.203 9.85938 166.039 8.9375 167.391 8.9375C168.664 8.9375 169.312 9.71094 169.312 11V16H170.672V10.75C170.672 8.9375 169.594 7.73438 167.812 7.73438C166.578 7.73438 165.688 8.26562 165.234 9.17188H165.203V4.72656H163.844V16ZM175.926 16.1406C178.168 16.1406 179.683 14.5234 179.683 11.9375C179.683 9.34375 178.168 7.73438 175.926 7.73438C173.676 7.73438 172.16 9.34375 172.16 11.9375C172.16 14.5234 173.676 16.1406 175.926 16.1406ZM175.926 14.9453C174.488 14.9453 173.543 13.8516 173.543 11.9375C173.543 10.0234 174.488 8.92969 175.926 8.92969C177.363 8.92969 178.301 10.0234 178.301 11.9375C178.301 13.8516 177.363 14.9453 175.926 14.9453ZM184.297 16.1406C185.468 16.1406 186.398 15.5625 186.922 14.625H186.945V16H188.242V4.72656H186.883V9.19531H186.851C186.367 8.30469 185.429 7.73438 184.265 7.73438C182.218 7.73438 180.82 9.39062 180.82 11.9375C180.82 14.4844 182.226 16.1406 184.297 16.1406ZM184.554 8.92969C185.953 8.92969 186.89 10.125 186.89 11.9375C186.89 13.7578 185.953 14.9453 184.554 14.9453C183.117 14.9453 182.211 13.7812 182.211 11.9375C182.211 10.1016 183.117 8.92969 184.554 8.92969Z" fill="#111827"/>
<path d="M20.8877 62V53.4551H23.9023V52.1357H16.335V53.4551H19.3564V62H20.8877ZM26.5197 55.8682C27.552 55.8682 28.2492 56.6406 28.2834 57.7412H24.6877C24.7629 56.6543 25.4875 55.8682 26.5197 55.8682ZM28.2766 59.8877C28.0783 60.5166 27.4563 60.9404 26.6154 60.9404C25.4328 60.9404 24.6809 60.1133 24.6809 58.8623V58.7734H29.76V58.2676C29.76 56.0869 28.5158 54.6787 26.5197 54.6787C24.4895 54.6787 23.1906 56.1826 23.1906 58.4385C23.1906 60.708 24.4689 62.1367 26.5813 62.1367C28.2287 62.1367 29.4729 61.2002 29.6779 59.8877H28.2766ZM31.2631 62H32.7396V52.1357H31.2631V62ZM37.565 55.8682C38.5973 55.8682 39.2945 56.6406 39.3287 57.7412H35.733C35.8082 56.6543 36.5328 55.8682 37.565 55.8682ZM39.3219 59.8877C39.1236 60.5166 38.5016 60.9404 37.6607 60.9404C36.4781 60.9404 35.7262 60.1133 35.7262 58.8623V58.7734H40.8053V58.2676C40.8053 56.0869 39.5611 54.6787 37.565 54.6787C35.5348 54.6787 34.2359 56.1826 34.2359 58.4385C34.2359 60.708 35.5143 62.1367 37.6266 62.1367C39.274 62.1367 40.5182 61.2002 40.7232 59.8877H39.3219ZM45.9998 54.6924C44.9607 54.6924 44.1336 55.2188 43.7098 56.0459H43.6824V54.8086H42.2537V64.3789H43.7303V60.8174H43.7645C44.1746 61.6172 44.9949 62.123 46.0271 62.123C47.8318 62.123 49.0281 60.6807 49.0281 58.4043C49.0281 56.1279 47.825 54.6924 45.9998 54.6924ZM45.6102 60.8721C44.4754 60.8721 43.7234 59.9014 43.7234 58.4043C43.7234 56.9209 44.4822 55.9365 45.6102 55.9365C46.7791 55.9365 47.5105 56.9004 47.5105 58.4043C47.5105 59.915 46.7791 60.8721 45.6102 60.8721ZM50.5244 62H52.001V57.8438C52.001 56.709 52.6709 55.957 53.7646 55.957C54.8037 55.957 55.3369 56.5928 55.3369 57.6523V62H56.8203V57.3652C56.8203 55.7383 55.877 54.6855 54.2979 54.6855C53.2041 54.6855 52.418 55.1709 52.0215 56.0117H51.9873V52.1357H50.5244V62ZM61.6389 62.1367C63.6965 62.1367 65.05 60.7217 65.05 58.4043C65.05 56.0938 63.6896 54.6787 61.6389 54.6787C59.5881 54.6787 58.2277 56.0938 58.2277 58.4043C58.2277 60.7217 59.5812 62.1367 61.6389 62.1367ZM61.6389 60.9199C60.4836 60.9199 59.7316 60.0039 59.7316 58.4043C59.7316 56.8115 60.4836 55.8955 61.6389 55.8955C62.7941 55.8955 63.5461 56.8115 63.5461 58.4043C63.5461 60.0039 62.801 60.9199 61.6389 60.9199ZM66.4916 62H67.9682V57.8096C67.9682 56.6953 68.6381 55.957 69.6771 55.957C70.7025 55.957 71.2084 56.5518 71.2084 57.6318V62H72.6918V57.3447C72.6918 55.6973 71.7826 54.6855 70.1967 54.6855C69.0893 54.6855 68.3236 55.1914 67.934 56.0117H67.8998V54.8086H66.4916V62ZM77.4283 55.8682C78.4605 55.8682 79.1578 56.6406 79.192 57.7412H75.5963C75.6715 56.6543 76.3961 55.8682 77.4283 55.8682ZM79.1852 59.8877C78.9869 60.5166 78.3648 60.9404 77.524 60.9404C76.3414 60.9404 75.5895 60.1133 75.5895 58.8623V58.7734H80.6686V58.2676C80.6686 56.0869 79.4244 54.6787 77.4283 54.6787C75.398 54.6787 74.0992 56.1826 74.0992 58.4385C74.0992 60.708 75.3775 62.1367 77.4898 62.1367C79.1373 62.1367 80.3814 61.2002 80.5865 59.8877H79.1852ZM85.2607 62H86.7373V57.8096C86.7373 56.6953 87.4072 55.957 88.4463 55.957C89.4717 55.957 89.9775 56.5518 89.9775 57.6318V62H91.4609V57.3447C91.4609 55.6973 90.5518 54.6855 88.9658 54.6855C87.8584 54.6855 87.0928 55.1914 86.7031 56.0117H86.6689V54.8086H85.2607V62ZM99.3557 54.8086H97.8791V58.999C97.8791 60.1201 97.2365 60.8584 96.1701 60.8584C95.1516 60.8584 94.632 60.2705 94.632 59.1768V54.8086H93.1555V59.4639C93.1555 61.1113 94.1125 62.1299 95.6779 62.1299C96.7785 62.1299 97.51 61.6445 97.9064 60.7832H97.9406V62H99.3557V54.8086ZM101.119 62H102.595V57.5566C102.595 56.6338 103.217 55.9502 104.092 55.9502C104.926 55.9502 105.453 56.4766 105.453 57.3037V62H106.902V57.5088C106.902 56.5996 107.51 55.9502 108.385 55.9502C109.26 55.9502 109.759 56.4834 109.759 57.4131V62H111.243V57.0576C111.243 55.6289 110.313 54.6855 108.891 54.6855C107.866 54.6855 107.018 55.2188 106.649 56.0938H106.615C106.328 55.1982 105.603 54.6855 104.605 54.6855C103.634 54.6855 102.882 55.2188 102.561 56.0186H102.527V54.8086H101.119V62ZM116.799 62.123C118.625 62.123 119.8 60.6875 119.8 58.4043C119.8 56.1279 118.618 54.6924 116.806 54.6924C115.788 54.6924 114.967 55.1982 114.537 56.0322H114.503V52.1357H113.026V62H114.462V60.7764H114.489C114.933 61.6104 115.747 62.123 116.799 62.123ZM116.403 55.9365C117.565 55.9365 118.283 56.8936 118.283 58.4043C118.283 59.9287 117.565 60.8721 116.403 60.8721C115.282 60.8721 114.496 59.9014 114.496 58.4043C114.496 56.9209 115.282 55.9365 116.403 55.9365ZM124.263 55.8682C125.296 55.8682 125.993 56.6406 126.027 57.7412H122.431C122.507 56.6543 123.231 55.8682 124.263 55.8682ZM126.02 59.8877C125.822 60.5166 125.2 60.9404 124.359 60.9404C123.177 60.9404 122.425 60.1133 122.425 58.8623V58.7734H127.504V58.2676C127.504 56.0869 126.26 54.6787 124.263 54.6787C122.233 54.6787 120.934 56.1826 120.934 58.4385C120.934 60.708 122.213 62.1367 124.325 62.1367C125.972 62.1367 127.217 61.2002 127.422 59.8877H126.02ZM128.952 62H130.429V57.6934C130.429 56.6748 131.017 56.0391 131.967 56.0391C132.254 56.0391 132.514 56.0732 132.63 56.1211V54.7471C132.521 54.7266 132.336 54.6924 132.124 54.6924C131.276 54.6924 130.634 55.1914 130.395 56.0322H130.36V54.8086H128.952V62ZM137.537 58.124C137.537 60.5029 138.165 62.4307 139.512 64.1055H140.811C139.827 62.957 139.054 60.3662 139.054 58.1172C139.054 55.8682 139.827 53.2842 140.811 52.1357H139.512C138.165 53.8037 137.537 55.7314 137.537 58.124ZM141.842 59.252C141.938 61.0361 143.415 62.1641 145.602 62.1641C147.94 62.1641 149.41 61.0088 149.41 59.1631C149.41 57.7207 148.569 56.9072 146.546 56.4287L145.459 56.1621C144.187 55.8477 143.668 55.4375 143.668 54.7402C143.668 53.8652 144.481 53.2637 145.671 53.2637C146.86 53.2637 147.673 53.8584 147.762 54.8428H149.253C149.205 53.1406 147.776 51.9717 145.691 51.9717C143.586 51.9717 142.102 53.1406 142.102 54.8428C142.102 56.2168 142.943 57.0645 144.754 57.502L146.033 57.8096C147.311 58.124 147.851 58.582 147.851 59.3477C147.851 60.2295 146.956 60.8721 145.712 60.8721C144.413 60.8721 143.463 60.2295 143.353 59.252H141.842ZM161.064 62V52.1357H159.287L156.101 59.9219H156.047L152.854 52.1357H151.084V62H152.478V54.7402H152.526L155.507 61.9248H156.641L159.615 54.7402H159.663V62H161.064ZM162.745 59.252C162.841 61.0361 164.317 62.1641 166.505 62.1641C168.843 62.1641 170.312 61.0088 170.312 59.1631C170.312 57.7207 169.472 56.9072 167.448 56.4287L166.361 56.1621C165.09 55.8477 164.57 55.4375 164.57 54.7402C164.57 53.8652 165.384 53.2637 166.573 53.2637C167.763 53.2637 168.576 53.8584 168.665 54.8428H170.155C170.107 53.1406 168.679 51.9717 166.594 51.9717C164.488 51.9717 163.005 53.1406 163.005 54.8428C163.005 56.2168 163.846 57.0645 165.657 57.502L166.936 57.8096C168.214 58.124 168.754 58.582 168.754 59.3477C168.754 60.2295 167.858 60.8721 166.614 60.8721C165.315 60.8721 164.365 60.2295 164.256 59.252H162.745ZM174.612 58.124C174.612 55.123 173.641 53.373 172.636 52.1357H171.337C172.014 52.9219 173.094 55.1641 173.094 58.1172C173.094 61.0703 172.021 63.3125 171.337 64.1055H172.636C173.641 62.8613 174.612 61.1113 174.612 58.124Z" fill="#111827"/>
<path d="M301 61C300.417 61 299.834 60.775 299.392 60.3334L293.959 54.9C293.717 54.6584 293.717 54.2584 293.959 54.0167C294.2 53.775 294.6 53.775 294.842 54.0167L300.275 59.45C300.675 59.85 301.325 59.85 301.725 59.45L307.159 54.0167C307.4 53.775 307.8 53.775 308.042 54.0167C308.284 54.2584 308.284 54.6584 308.042 54.9L302.609 60.3334C302.167 60.775 301.584 61 301 61Z" fill="#111827"/>
<rect x="0.5" y="29.5" width="326" height="55" rx="7.5" stroke="#D1D5DB"/>
</svg>
