<svg width="303" height="45" viewBox="0 0 303 45" fill="none" xmlns="http://www.w3.org/2000/svg">
<rect y="2.5" width="40" height="40" rx="8" fill="#0077FF"/>
<path d="M19.4167 37H20.5833C26.93 37 30.0917 37 32.0517 35.04C34 33.08 34 29.9067 34 23.5833V22.3933C34 16.0933 34 12.92 32.0517 10.96C30.0917 9 26.9183 9 20.5833 9H19.4167C13.07 9 9.90833 9 7.94833 10.96C6 12.92 6 16.0933 6 22.4167V23.6067C6 29.9067 6 33.08 7.96 35.04C9.92 37 13.0933 37 19.4167 37Z" fill="#0077FF"/>
<path d="M20.8039 29C14.654 29 11.1462 24.8709 11 18H14.0806C14.1818 23.043 16.4528 25.1792 18.2517 25.6196V18H21.1524V22.3493C22.9288 22.1622 24.7951 20.1802 25.4247 18H28.3254C28.0882 19.1307 27.6152 20.2013 26.9362 21.1448C26.2572 22.0883 25.3867 22.8845 24.3791 23.4835C25.5038 24.0308 26.4972 24.8055 27.2937 25.7564C28.0902 26.7073 28.6718 27.8128 29 29H25.807C25.5124 27.9688 24.9135 27.0458 24.0855 26.3465C23.2575 25.6472 22.2372 25.2029 21.1524 25.0691V29H20.8039Z" fill="white"/>
<path d="M56.6064 14.4668C56.7295 16.7607 58.6279 18.2109 61.4404 18.2109C64.4463 18.2109 66.3359 16.7256 66.3359 14.3525C66.3359 12.498 65.2549 11.4521 62.6533 10.8369L61.2559 10.4941C59.6211 10.0898 58.9531 9.5625 58.9531 8.66602C58.9531 7.54102 59.999 6.76758 61.5283 6.76758C63.0576 6.76758 64.1035 7.53223 64.2178 8.79785H66.1338C66.0723 6.60938 64.2354 5.10645 61.5547 5.10645C58.8477 5.10645 56.9404 6.60938 56.9404 8.79785C56.9404 10.5645 58.0215 11.6543 60.3506 12.2168L61.9941 12.6123C63.6377 13.0166 64.332 13.6055 64.332 14.5898C64.332 15.7236 63.1807 16.5498 61.5811 16.5498C59.9111 16.5498 58.6895 15.7236 58.5488 14.4668H56.6064ZM71.9212 10.1162C73.2484 10.1162 74.1448 11.1094 74.1888 12.5244H69.5657C69.6624 11.127 70.5941 10.1162 71.9212 10.1162ZM74.18 15.2842C73.9251 16.0928 73.1253 16.6377 72.0443 16.6377C70.5238 16.6377 69.557 15.5742 69.557 13.9658V13.8516H76.0872V13.2012C76.0872 10.3975 74.4876 8.58691 71.9212 8.58691C69.3109 8.58691 67.6409 10.5205 67.6409 13.4209C67.6409 16.3389 69.2845 18.1758 72.0003 18.1758C74.1185 18.1758 75.7181 16.9717 75.9818 15.2842H74.18ZM77.7438 18H79.6422V12.6123C79.6422 11.1797 80.5036 10.2305 81.8395 10.2305C83.1579 10.2305 83.8082 10.9951 83.8082 12.3838V18H85.7155V12.0146C85.7155 9.89648 84.5465 8.5957 82.5075 8.5957C81.0836 8.5957 80.0993 9.24609 79.5983 10.3008H79.5543V8.75391H77.7438V18ZM87.7939 18H89.6923V8.75391H87.7939V18ZM88.7431 7.40039C89.3584 7.40039 89.8505 6.91699 89.8505 6.31934C89.8505 5.71289 89.3584 5.22949 88.7431 5.22949C88.1367 5.22949 87.6445 5.71289 87.6445 6.31934C87.6445 6.91699 88.1367 7.40039 88.7431 7.40039ZM95.7874 18.1758C98.4329 18.1758 100.173 16.3564 100.173 13.377C100.173 10.4062 98.4241 8.58691 95.7874 8.58691C93.1507 8.58691 91.4016 10.4062 91.4016 13.377C91.4016 16.3564 93.1419 18.1758 95.7874 18.1758ZM95.7874 16.6113C94.302 16.6113 93.3352 15.4336 93.3352 13.377C93.3352 11.3291 94.302 10.1514 95.7874 10.1514C97.2727 10.1514 98.2395 11.3291 98.2395 13.377C98.2395 15.4336 97.2815 16.6113 95.7874 16.6113ZM101.821 18H103.719V12.4629C103.719 11.1533 104.475 10.3359 105.697 10.3359C106.066 10.3359 106.4 10.3799 106.549 10.4414V8.6748C106.409 8.64844 106.171 8.60449 105.899 8.60449C104.809 8.60449 103.983 9.24609 103.675 10.3271H103.631V8.75391H101.821V18ZM113.941 5.31738H111.972V13.5439C111.972 16.2773 113.923 18.2109 117.105 18.2109C120.286 18.2109 122.238 16.2773 122.238 13.5439V5.31738H120.278V13.377C120.278 15.1875 119.126 16.4619 117.105 16.4619C115.083 16.4619 113.941 15.1875 113.941 13.377V5.31738ZM126.724 18V5.31738H124.755V18H126.724ZM133.078 5.31738V18H137.552C141.331 18 143.555 15.6445 143.555 11.6367C143.555 7.6377 141.322 5.31738 137.552 5.31738H133.078ZM135.047 7.01367H137.367C140.048 7.01367 141.542 8.66602 141.542 11.6543C141.542 14.6514 140.057 16.2949 137.367 16.2949H135.047V7.01367ZM149.254 10.1162C150.582 10.1162 151.478 11.1094 151.522 12.5244H146.899C146.996 11.127 147.927 10.1162 149.254 10.1162ZM151.513 15.2842C151.258 16.0928 150.459 16.6377 149.377 16.6377C147.857 16.6377 146.89 15.5742 146.89 13.9658V13.8516H153.42V13.2012C153.42 10.3975 151.821 8.58691 149.254 8.58691C146.644 8.58691 144.974 10.5205 144.974 13.4209C144.974 16.3389 146.618 18.1758 149.334 18.1758C151.452 18.1758 153.051 16.9717 153.315 15.2842H151.513ZM154.91 11.373C154.91 12.665 155.754 13.5352 157.424 13.9395L159.076 14.3438C160.043 14.5898 160.394 14.915 160.394 15.5039C160.394 16.251 159.691 16.7256 158.549 16.7256C157.389 16.7256 156.703 16.2334 156.554 15.3457H154.673C154.822 17.042 156.272 18.1758 158.461 18.1758C160.728 18.1758 162.302 17.0156 162.302 15.3281C162.302 13.9658 161.598 13.2627 159.735 12.8145L158.18 12.4541C157.222 12.2168 156.764 11.8301 156.764 11.2588C156.764 10.5293 157.45 10.0283 158.478 10.0283C159.542 10.0283 160.219 10.5469 160.306 11.3818H162.091C162.029 9.73828 160.588 8.58691 158.531 8.58691C156.369 8.58691 154.91 9.7207 154.91 11.373ZM164.02 18H165.918V8.75391H164.02V18ZM164.969 7.40039C165.584 7.40039 166.076 6.91699 166.076 6.31934C166.076 5.71289 165.584 5.22949 164.969 5.22949C164.362 5.22949 163.87 5.71289 163.87 6.31934C163.87 6.91699 164.362 7.40039 164.969 7.40039ZM171.978 16.4619C170.519 16.4619 169.57 15.2842 169.57 13.3506C169.57 11.4258 170.519 10.2041 171.978 10.2041C173.463 10.2041 174.439 11.4521 174.439 13.3506C174.439 15.2578 173.463 16.4619 171.978 16.4619ZM171.996 21.4805C174.632 21.4805 176.337 20.0391 176.337 17.833V8.75391H174.492V10.3359H174.457C173.894 9.26367 172.822 8.60449 171.512 8.60449C169.139 8.60449 167.627 10.4326 167.627 13.3418C167.627 16.2246 169.148 18.0352 171.468 18.0352C172.787 18.0352 173.876 17.376 174.395 16.374H174.43V17.8945C174.43 19.1602 173.551 20.0039 172.066 20.0039C170.985 20.0039 170.141 19.4941 169.869 18.7207H167.961C168.199 20.3203 169.816 21.4805 171.996 21.4805ZM178.398 18H180.297V12.6123C180.297 11.1797 181.158 10.2305 182.494 10.2305C183.812 10.2305 184.463 10.9951 184.463 12.3838V18H186.37V12.0146C186.37 9.89648 185.201 8.5957 183.162 8.5957C181.738 8.5957 180.754 9.24609 180.253 10.3008H180.209V8.75391H178.398V18ZM192.254 10.1162C193.581 10.1162 194.478 11.1094 194.522 12.5244H189.899C189.995 11.127 190.927 10.1162 192.254 10.1162ZM194.513 15.2842C194.258 16.0928 193.458 16.6377 192.377 16.6377C190.857 16.6377 189.89 15.5742 189.89 13.9658V13.8516H196.42V13.2012C196.42 10.3975 194.82 8.58691 192.254 8.58691C189.644 8.58691 187.974 10.5205 187.974 13.4209C187.974 16.3389 189.617 18.1758 192.333 18.1758C194.451 18.1758 196.051 16.9717 196.315 15.2842H194.513ZM198.077 18H199.975V12.4629C199.975 11.1533 200.731 10.3359 201.953 10.3359C202.322 10.3359 202.656 10.3799 202.805 10.4414V8.6748C202.664 8.64844 202.427 8.60449 202.155 8.60449C201.065 8.60449 200.239 9.24609 199.931 10.3271H199.887V8.75391H198.077V18Z" fill="#111827"/>
<path d="M60.3066 40L63.4238 31.5449H62.3164L59.8027 38.7168H59.7676L57.2539 31.5449H56.1465L59.2637 40H60.3066ZM65.5653 40V37.0469L66.4794 36.0391L69.6493 40H70.997L67.2118 35.2891L70.6864 31.5449H69.3563L65.6239 35.6699H65.5653V31.5449H64.5106V40H65.5653ZM76.6686 38.5059C77.6471 38.5059 78.4498 37.7031 78.4498 36.7246C78.4498 35.7461 77.6471 34.9434 76.6686 34.9434C75.6901 34.9434 74.8873 35.7461 74.8873 36.7246C74.8873 37.7031 75.6901 38.5059 76.6686 38.5059ZM86.4652 40V36.3613L89.4652 31.5449H88.2641L85.9555 35.3418H85.9203L83.6117 31.5449H82.4105L85.4105 36.3613V40H86.4652ZM91.8059 40.1055C93.4876 40.1055 94.6243 38.8926 94.6243 36.9531C94.6243 35.0078 93.4876 33.8008 91.8059 33.8008C90.1184 33.8008 88.9817 35.0078 88.9817 36.9531C88.9817 38.8926 90.1184 40.1055 91.8059 40.1055ZM91.8059 39.209C90.7278 39.209 90.0188 38.3887 90.0188 36.9531C90.0188 35.5176 90.7278 34.6973 91.8059 34.6973C92.8841 34.6973 93.5872 35.5176 93.5872 36.9531C93.5872 38.3887 92.8841 39.209 91.8059 39.209ZM98.2541 39.1504C97.2052 39.1504 96.5197 38.2949 96.5197 36.9297C96.5197 35.5645 97.2052 34.6973 98.2541 34.6973C99.3146 34.6973 100.024 35.5879 100.024 36.9297C100.024 38.2715 99.3146 39.1504 98.2541 39.1504ZM98.2892 42.2969C99.9709 42.2969 101.043 41.3301 101.043 39.877V33.9062H100.07V34.9316H100.053C99.6486 34.2227 98.9338 33.8008 98.0724 33.8008C96.4963 33.8008 95.4767 35.0195 95.4767 36.9297C95.4767 38.8223 96.4963 40.0469 98.049 40.0469C98.9045 40.0469 99.6252 39.6133 100 38.9512H100.024V39.9121C100.024 40.8203 99.3849 41.4297 98.3302 41.4297C97.5685 41.4297 96.965 41.0605 96.7658 40.5039H95.717C95.8869 41.541 96.9474 42.2969 98.2892 42.2969ZM102.997 42.2793C104.099 42.2793 104.603 41.8516 105.124 40.4277L107.521 33.9062H106.448L104.761 38.9805H104.743L103.056 33.9062H101.966L104.216 40.0059L104.075 40.4336C103.841 41.1426 103.524 41.418 102.956 41.418C102.827 41.418 102.669 41.4121 102.558 41.3887V42.2441C102.669 42.2676 102.874 42.2793 102.997 42.2793ZM110.342 39.2383C109.609 39.2383 109.123 38.8574 109.123 38.2773C109.123 37.7031 109.592 37.3398 110.412 37.2871L112.041 37.1875V37.6855C112.041 38.5645 111.303 39.2383 110.342 39.2383ZM110.113 40.1055C110.934 40.1055 111.707 39.6484 112.07 38.9512H112.094V40H113.06V35.7871C113.06 34.5742 112.158 33.8008 110.728 33.8008C109.287 33.8008 108.385 34.6094 108.314 35.6641H109.299C109.428 35.0664 109.92 34.6973 110.705 34.6973C111.549 34.6973 112.041 35.1426 112.041 35.8867V36.3965L110.295 36.4961C108.889 36.5781 108.086 37.2344 108.086 38.2773C108.086 39.373 108.9 40.1055 110.113 40.1055ZM115.548 36.6133V31.5449H114.528V40H115.548V37.7031L116.116 37.1641L118.378 40H119.561L116.837 36.5371L119.479 33.9062H118.243L115.548 36.6133ZM122.429 39.2383C121.697 39.2383 121.211 38.8574 121.211 38.2773C121.211 37.7031 121.679 37.3398 122.5 37.2871L124.129 37.1875V37.6855C124.129 38.5645 123.39 39.2383 122.429 39.2383ZM122.201 40.1055C123.021 40.1055 123.795 39.6484 124.158 38.9512H124.181V40H125.148V35.7871C125.148 34.5742 124.246 33.8008 122.816 33.8008C121.375 33.8008 120.472 34.6094 120.402 35.6641H121.386C121.515 35.0664 122.007 34.6973 122.793 34.6973C123.636 34.6973 124.129 35.1426 124.129 35.8867V36.3965L122.382 36.4961C120.976 36.5781 120.174 37.2344 120.174 38.2773C120.174 39.373 120.988 40.1055 122.201 40.1055ZM126.563 40H127.583V36.2031C127.583 35.3418 128.098 34.7734 128.889 34.7734C129.135 34.7734 129.352 34.8027 129.434 34.832V33.8418C129.352 33.8301 129.2 33.8008 129.024 33.8008C128.309 33.8008 127.747 34.2285 127.547 34.9023H127.524V33.9062H126.563V40ZM130.714 32.4355V33.9062H129.806V34.7441H130.714V38.418C130.714 39.5898 131.148 40.0469 132.267 40.0469C132.507 40.0469 132.789 40.0293 132.912 40V39.1445C132.841 39.1562 132.607 39.1738 132.49 39.1738C131.968 39.1738 131.734 38.9219 131.734 38.3652V34.7441H132.917V33.9062H131.734V32.4355H130.714ZM136.02 39.2383C135.287 39.2383 134.801 38.8574 134.801 38.2773C134.801 37.7031 135.27 37.3398 136.09 37.2871L137.719 37.1875V37.6855C137.719 38.5645 136.981 39.2383 136.02 39.2383ZM135.791 40.1055C136.612 40.1055 137.385 39.6484 137.748 38.9512H137.772V40H138.739V35.7871C138.739 34.5742 137.836 33.8008 136.407 33.8008C134.965 33.8008 134.063 34.6094 133.993 35.6641H134.977C135.106 35.0664 135.598 34.6973 136.383 34.6973C137.227 34.6973 137.719 35.1426 137.719 35.8867V36.3965L135.973 36.4961C134.567 36.5781 133.764 37.2344 133.764 38.2773C133.764 39.373 134.578 40.1055 135.791 40.1055ZM140.851 41.6816L141.654 38.6992H140.57L140.001 41.6816H140.851ZM146.528 40V31.5449H145.474V40H146.528ZM148.131 40H149.15V36.4141C149.15 35.3828 149.777 34.7031 150.738 34.7031C151.676 34.7031 152.139 35.2422 152.139 36.2266V40H153.158V36.0449C153.158 34.6621 152.385 33.8008 151.049 33.8008C150.105 33.8008 149.455 34.2227 149.115 34.8789H149.092V33.9062H148.131V40ZM156.887 40.1055C157.766 40.1055 158.464 39.6719 158.856 38.9688H158.874V40H159.846V31.5449H158.827V34.8965H158.803C158.44 34.2285 157.737 33.8008 156.864 33.8008C155.329 33.8008 154.28 35.043 154.28 36.9531C154.28 38.8633 155.335 40.1055 156.887 40.1055ZM157.081 34.6973C158.13 34.6973 158.833 35.5938 158.833 36.9531C158.833 38.3184 158.13 39.209 157.081 39.209C156.003 39.209 155.323 38.3359 155.323 36.9531C155.323 35.5762 156.003 34.6973 157.081 34.6973ZM163.869 40.1055C165.55 40.1055 166.687 38.8926 166.687 36.9531C166.687 35.0078 165.55 33.8008 163.869 33.8008C162.181 33.8008 161.045 35.0078 161.045 36.9531C161.045 38.8926 162.181 40.1055 163.869 40.1055ZM163.869 39.209C162.791 39.209 162.082 38.3887 162.082 36.9531C162.082 35.5176 162.791 34.6973 163.869 34.6973C164.947 34.6973 165.65 35.5176 165.65 36.9531C165.65 38.3887 164.947 39.209 163.869 39.209ZM167.838 40H168.858V36.4141C168.858 35.3828 169.485 34.7031 170.446 34.7031C171.383 34.7031 171.846 35.2422 171.846 36.2266V40H172.866V36.0449C172.866 34.6621 172.092 33.8008 170.756 33.8008C169.813 33.8008 169.163 34.2227 168.823 34.8789H168.799V33.9062H167.838V40ZM176.73 34.6855C177.691 34.6855 178.329 35.4121 178.353 36.4316H175.042C175.107 35.418 175.775 34.6855 176.73 34.6855ZM178.329 38.2539C178.16 38.8281 177.591 39.2207 176.818 39.2207C175.722 39.2207 175.036 38.4531 175.036 37.2871V37.2285H179.408V36.8418C179.408 34.9961 178.394 33.8008 176.747 33.8008C175.066 33.8008 173.988 35.084 173.988 36.9766C173.988 38.8926 175.048 40.1055 176.794 40.1055C178.124 40.1055 179.156 39.3203 179.331 38.2539H178.329ZM180.453 35.5879C180.453 36.4199 180.981 36.9707 182.053 37.2461L183.125 37.5215C183.811 37.7031 184.063 37.9375 184.063 38.3711C184.063 38.9219 183.553 39.2734 182.727 39.2734C181.901 39.2734 181.42 38.9336 181.309 38.3008H180.289C180.395 39.3789 181.326 40.1055 182.662 40.1055C184.086 40.1055 185.088 39.3555 185.088 38.2949C185.088 37.3984 184.643 36.9531 183.412 36.6426L182.469 36.4141C181.778 36.2383 181.455 35.957 181.455 35.5352C181.455 35.002 181.948 34.6328 182.692 34.6328C183.442 34.6328 183.916 34.9961 183.987 35.582H184.959C184.912 34.5508 183.987 33.8008 182.727 33.8008C181.385 33.8008 180.453 34.5449 180.453 35.5879ZM186.321 40H187.341V33.9062H186.321V40ZM186.831 32.8809C187.183 32.8809 187.47 32.5938 187.47 32.248C187.47 31.8965 187.183 31.6152 186.831 31.6152C186.485 31.6152 186.198 31.8965 186.198 32.248C186.198 32.5938 186.485 32.8809 186.831 32.8809ZM190.848 39.2383C190.115 39.2383 189.629 38.8574 189.629 38.2773C189.629 37.7031 190.098 37.3398 190.918 37.2871L192.547 37.1875V37.6855C192.547 38.5645 191.809 39.2383 190.848 39.2383ZM190.619 40.1055C191.439 40.1055 192.213 39.6484 192.576 38.9512H192.6V40H193.566V35.7871C193.566 34.5742 192.664 33.8008 191.234 33.8008C189.793 33.8008 188.891 34.6094 188.82 35.6641H189.805C189.934 35.0664 190.426 34.6973 191.211 34.6973C192.055 34.6973 192.547 35.1426 192.547 35.8867V36.3965L190.801 36.4961C189.395 36.5781 188.592 37.2344 188.592 38.2773C188.592 39.373 189.406 40.1055 190.619 40.1055Z" fill="#374151"/>
</svg>
