<svg width="300" height="183" viewBox="0 0 300 183" fill="none" xmlns="http://www.w3.org/2000/svg">
<rect width="300" height="183" rx="12" fill="#091A7A"/>
<rect x="16" y="20.5" width="40" height="40" rx="8" fill="white"/>
<path d="M22 36.1C22 32.7397 22 31.0595 22.654 29.7761C23.2292 28.6471 24.1471 27.7292 25.2761 27.154C26.5595 26.5 28.2397 26.5 31.6 26.5H40.4C43.7603 26.5 45.4405 26.5 46.7239 27.154C47.8529 27.7292 48.7708 28.6471 49.346 29.7761C50 31.0595 50 32.7397 50 36.1V44.9C50 48.2603 50 49.9405 49.346 51.2239C48.7708 52.3529 47.8529 53.2708 46.7239 53.846C45.4405 54.5 43.7603 54.5 40.4 54.5H31.6C28.2397 54.5 26.5595 54.5 25.2761 53.846C24.1471 53.2708 23.2292 52.3529 22.654 51.2239C22 49.9405 22 48.2603 22 44.9V36.1Z" fill="#4087FC"/>
<path d="M28.2667 34.5C27.5671 34.5 27 35.1396 27 35.9286V42.8571C27 44.869 28.4461 46.5 30.23 46.5L37.7333 46.4286C38.4329 46.4286 39 45.789 39 45V38C39 35.9881 37.2839 34.5 35.5 34.5L28.2667 34.5Z" fill="white"/>
<path d="M40.7122 37.2276C40.2596 37.6752 40 38.3211 40 39V41.8993C40 42.5782 40.2596 43.2242 40.7122 43.6717L43.5288 46.1525C44.1019 46.7191 45 46.2601 45 45.4005V35.6352C45 34.7755 44.1019 34.3165 43.5288 34.8832L40.7122 37.2276Z" fill="white"/>
<path d="M73.1689 23.3174V36H75.1377V31.667H77.8623C80.3496 31.667 82.0986 29.9619 82.0986 27.4834C82.0986 25.0137 80.3848 23.3174 77.9238 23.3174H73.1689ZM75.1377 24.9785H77.4053C79.1104 24.9785 80.0859 25.8926 80.0859 27.4922C80.0859 29.0918 79.1104 30.0146 77.3965 30.0146H75.1377V24.9785ZM83.7728 36H85.6712V30.4629C85.6712 29.1533 86.4271 28.3359 87.6488 28.3359C88.0179 28.3359 88.3519 28.3799 88.5013 28.4414V26.6748C88.3607 26.6484 88.1234 26.6045 87.8509 26.6045C86.7611 26.6045 85.9349 27.2461 85.6273 28.3271H85.5833V26.7539H83.7728V36ZM93.4274 36.1758C96.0729 36.1758 97.8131 34.3564 97.8131 31.377C97.8131 28.4062 96.0641 26.5869 93.4274 26.5869C90.7907 26.5869 89.0416 28.4062 89.0416 31.377C89.0416 34.3564 90.7819 36.1758 93.4274 36.1758ZM93.4274 34.6113C91.942 34.6113 90.9752 33.4336 90.9752 31.377C90.9752 29.3291 91.942 28.1514 93.4274 28.1514C94.9127 28.1514 95.8795 29.3291 95.8795 31.377C95.8795 33.4336 94.9215 34.6113 93.4274 34.6113ZM102.933 36.1582C104.277 36.1582 105.332 35.4814 105.877 34.4268H105.912V36H107.758V23.3174H105.851V28.292H105.815C105.297 27.2725 104.242 26.6045 102.915 26.6045C100.595 26.6045 99.0478 28.459 99.0478 31.377C99.0478 34.2949 100.595 36.1582 102.933 36.1582ZM103.434 28.2041C104.893 28.2041 105.868 29.4609 105.868 31.377C105.868 33.3105 104.893 34.5498 103.434 34.5498C101.931 34.5498 100.99 33.3281 100.99 31.377C100.99 29.4346 101.931 28.2041 103.434 28.2041ZM117.817 26.7539H115.918V32.1416C115.918 33.583 115.092 34.5322 113.721 34.5322C112.411 34.5322 111.743 33.7764 111.743 32.3701V26.7539H109.845V32.7393C109.845 34.8574 111.075 36.167 113.088 36.167C114.503 36.167 115.444 35.543 115.953 34.4355H115.997V36H117.817V26.7539ZM127.814 29.9355C127.647 28.1162 126.197 26.5869 123.815 26.5869C121.187 26.5869 119.464 28.4414 119.464 31.377C119.464 34.3652 121.187 36.1758 123.833 36.1758C126.056 36.1758 127.629 34.8398 127.832 32.8711H126.004C125.784 33.9434 125.019 34.585 123.85 34.585C122.374 34.585 121.398 33.4072 121.398 31.377C121.398 29.3906 122.365 28.1689 123.833 28.1689C125.072 28.1689 125.81 28.9512 126.004 29.9355H127.814ZM129.91 24.5654V26.7539H128.565V28.2568H129.91V33.5654C129.91 35.3496 130.64 36.0615 132.512 36.0615C132.934 36.0615 133.355 36.0264 133.566 35.9736V34.4707C133.443 34.4971 133.136 34.5146 132.942 34.5146C132.169 34.5146 131.817 34.1543 131.817 33.3545V28.2568H133.575V26.7539H131.817V24.5654H129.91ZM139.384 23.3174V36H143.858C147.637 36 149.861 33.6445 149.861 29.6367C149.861 25.6377 147.628 23.3174 143.858 23.3174H139.384ZM141.353 25.0137H143.673C146.354 25.0137 147.848 26.666 147.848 29.6543C147.848 32.6514 146.363 34.2949 143.673 34.2949H141.353V25.0137ZM155.56 28.1162C156.888 28.1162 157.784 29.1094 157.828 30.5244H153.205C153.302 29.127 154.233 28.1162 155.56 28.1162ZM157.819 33.2842C157.564 34.0928 156.765 34.6377 155.683 34.6377C154.163 34.6377 153.196 33.5742 153.196 31.9658V31.8516H159.726V31.2012C159.726 28.3975 158.127 26.5869 155.56 26.5869C152.95 26.5869 151.28 28.5205 151.28 31.4209C151.28 34.3389 152.924 36.1758 155.64 36.1758C157.758 36.1758 159.357 34.9717 159.621 33.2842H157.819ZM161.216 29.373C161.216 30.665 162.06 31.5352 163.73 31.9395L165.382 32.3438C166.349 32.5898 166.7 32.915 166.7 33.5039C166.7 34.251 165.997 34.7256 164.855 34.7256C163.695 34.7256 163.009 34.2334 162.86 33.3457H160.979C161.128 35.042 162.578 36.1758 164.767 36.1758C167.034 36.1758 168.608 35.0156 168.608 33.3281C168.608 31.9658 167.904 31.2627 166.041 30.8145L164.486 30.4541C163.528 30.2168 163.071 29.8301 163.071 29.2588C163.071 28.5293 163.756 28.0283 164.784 28.0283C165.848 28.0283 166.525 28.5469 166.613 29.3818H168.397C168.335 27.7383 166.894 26.5869 164.837 26.5869C162.675 26.5869 161.216 27.7207 161.216 29.373ZM170.326 36H172.224V26.7539H170.326V36ZM171.275 25.4004C171.89 25.4004 172.382 24.917 172.382 24.3193C172.382 23.7129 171.89 23.2295 171.275 23.2295C170.668 23.2295 170.176 23.7129 170.176 24.3193C170.176 24.917 170.668 25.4004 171.275 25.4004ZM178.284 34.4619C176.825 34.4619 175.876 33.2842 175.876 31.3506C175.876 29.4258 176.825 28.2041 178.284 28.2041C179.769 28.2041 180.745 29.4521 180.745 31.3506C180.745 33.2578 179.769 34.4619 178.284 34.4619ZM178.302 39.4805C180.938 39.4805 182.643 38.0391 182.643 35.833V26.7539H180.798V28.3359H180.763C180.2 27.2637 179.128 26.6045 177.818 26.6045C175.445 26.6045 173.933 28.4326 173.933 31.3418C173.933 34.2246 175.454 36.0352 177.774 36.0352C179.093 36.0352 180.182 35.376 180.701 34.374H180.736V35.8945C180.736 37.1602 179.857 38.0039 178.372 38.0039C177.291 38.0039 176.447 37.4941 176.175 36.7207H174.267C174.505 38.3203 176.122 39.4805 178.302 39.4805ZM184.704 36H186.603V30.6123C186.603 29.1797 187.464 28.2305 188.8 28.2305C190.118 28.2305 190.769 28.9951 190.769 30.3838V36H192.676V30.0146C192.676 27.8965 191.507 26.5957 189.468 26.5957C188.044 26.5957 187.06 27.2461 186.559 28.3008H186.515V26.7539H184.704V36ZM198.56 28.1162C199.887 28.1162 200.784 29.1094 200.828 30.5244H196.205C196.301 29.127 197.233 28.1162 198.56 28.1162ZM200.819 33.2842C200.564 34.0928 199.764 34.6377 198.683 34.6377C197.163 34.6377 196.196 33.5742 196.196 31.9658V31.8516H202.726V31.2012C202.726 28.3975 201.126 26.5869 198.56 26.5869C195.95 26.5869 194.28 28.5205 194.28 31.4209C194.28 34.3389 195.923 36.1758 198.639 36.1758C200.757 36.1758 202.357 34.9717 202.621 33.2842H200.819ZM204.383 36H206.281V30.4629C206.281 29.1533 207.037 28.3359 208.259 28.3359C208.628 28.3359 208.962 28.3799 209.111 28.4414V26.6748C208.971 26.6484 208.733 26.6045 208.461 26.6045C207.371 26.6045 206.545 27.2461 206.237 28.3271H206.193V26.7539H204.383V36Z" fill="white"/>
<path d="M72.5742 58H78.8262V57.0508H73.9277V57.0098L78.7266 50.2949V49.5449H72.7383V50.4941H77.3965V50.5352L72.5742 57.25V58ZM82.5966 58.1055C84.2782 58.1055 85.4149 56.8926 85.4149 54.9531C85.4149 53.0078 84.2782 51.8008 82.5966 51.8008C80.9091 51.8008 79.7723 53.0078 79.7723 54.9531C79.7723 56.8926 80.9091 58.1055 82.5966 58.1055ZM82.5966 57.209C81.5184 57.209 80.8095 56.3887 80.8095 54.9531C80.8095 53.5176 81.5184 52.6973 82.5966 52.6973C83.6747 52.6973 84.3778 53.5176 84.3778 54.9531C84.3778 56.3887 83.6747 57.209 82.5966 57.209ZM89.0916 58.1055C90.7732 58.1055 91.9099 56.8926 91.9099 54.9531C91.9099 53.0078 90.7732 51.8008 89.0916 51.8008C87.4041 51.8008 86.2673 53.0078 86.2673 54.9531C86.2673 56.8926 87.4041 58.1055 89.0916 58.1055ZM89.0916 57.209C88.0134 57.209 87.3045 56.3887 87.3045 54.9531C87.3045 53.5176 88.0134 52.6973 89.0916 52.6973C90.1697 52.6973 90.8728 53.5176 90.8728 54.9531C90.8728 56.3887 90.1697 57.209 89.0916 57.209ZM93.0612 58H94.0807V54.1797C94.0807 53.3359 94.6666 52.7031 95.4752 52.7031C96.2311 52.7031 96.7233 53.1836 96.7233 53.916V58H97.7428V54.127C97.7428 53.3008 98.3112 52.7031 99.1198 52.7031C99.9225 52.7031 100.385 53.1953 100.385 54.0273V58H101.405V53.793C101.405 52.5859 100.626 51.8008 99.4186 51.8008C98.5631 51.8008 97.8483 52.2344 97.5084 52.9609H97.485C97.2213 52.2227 96.6061 51.8008 95.7741 51.8008C94.9538 51.8008 94.3327 52.2344 94.0455 52.8789H94.0221V51.9062H93.0612V58ZM107.639 56.5059C108.618 56.5059 109.42 55.7031 109.42 54.7246C109.42 53.7461 108.618 52.9434 107.639 52.9434C106.661 52.9434 105.858 53.7461 105.858 54.7246C105.858 55.7031 106.661 56.5059 107.639 56.5059ZM115.11 49.5449H114.055V55.0352C114.055 56.8398 115.315 58.1406 117.412 58.1406C119.51 58.1406 120.77 56.8398 120.77 55.0352V49.5449H119.715V54.9648C119.715 56.2422 118.877 57.168 117.412 57.168C115.947 57.168 115.11 56.2422 115.11 54.9648V49.5449ZM122.372 58H123.392V54.4141C123.392 53.3828 124.019 52.7031 124.98 52.7031C125.917 52.7031 126.38 53.2422 126.38 54.2266V58H127.399V54.0449C127.399 52.6621 126.626 51.8008 125.29 51.8008C124.347 51.8008 123.696 52.2227 123.356 52.8789H123.333V51.9062H122.372V58ZM128.873 58H129.893V51.9062H128.873V58ZM129.383 50.8809C129.734 50.8809 130.021 50.5938 130.021 50.248C130.021 49.8965 129.734 49.6152 129.383 49.6152C129.037 49.6152 128.75 49.8965 128.75 50.248C128.75 50.5938 129.037 50.8809 129.383 50.8809ZM131.718 50.4355V51.9062H130.809V52.7441H131.718V56.418C131.718 57.5898 132.151 58.0469 133.27 58.0469C133.511 58.0469 133.792 58.0293 133.915 58V57.1445C133.845 57.1562 133.61 57.1738 133.493 57.1738C132.971 57.1738 132.737 56.9219 132.737 56.3652V52.7441H133.921V51.9062H132.737V50.4355H131.718ZM137.398 52.6855C138.359 52.6855 138.998 53.4121 139.021 54.4316H135.711C135.775 53.418 136.443 52.6855 137.398 52.6855ZM138.998 56.2539C138.828 56.8281 138.259 57.2207 137.486 57.2207C136.39 57.2207 135.705 56.4531 135.705 55.2871V55.2285H140.076V54.8418C140.076 52.9961 139.062 51.8008 137.416 51.8008C135.734 51.8008 134.656 53.084 134.656 54.9766C134.656 56.8926 135.716 58.1055 137.463 58.1055C138.793 58.1055 139.824 57.3203 140 56.2539H138.998ZM143.536 58.1055C144.415 58.1055 145.112 57.6719 145.504 56.9688H145.522V58H146.495V49.5449H145.475V52.8965H145.452C145.088 52.2285 144.385 51.8008 143.512 51.8008C141.977 51.8008 140.928 53.043 140.928 54.9531C140.928 56.8633 141.983 58.1055 143.536 58.1055ZM143.729 52.6973C144.778 52.6973 145.481 53.5938 145.481 54.9531C145.481 56.3184 144.778 57.209 143.729 57.209C142.651 57.209 141.971 56.3359 141.971 54.9531C141.971 53.5762 142.651 52.6973 143.729 52.6973ZM150.326 55.6738C150.426 57.168 151.668 58.1406 153.461 58.1406C155.407 58.1406 156.625 57.1738 156.625 55.627C156.625 54.4141 155.916 53.7402 154.164 53.3008L153.28 53.0664C152.131 52.7676 151.662 52.3867 151.662 51.748C151.662 50.9219 152.424 50.3535 153.52 50.3535C154.621 50.3535 155.354 50.9102 155.448 51.8184H156.502C156.455 50.4004 155.237 49.4043 153.555 49.4043C151.797 49.4043 150.567 50.3887 150.567 51.7949C150.567 52.9434 151.258 53.6289 152.817 54.0273L153.901 54.3086C155.037 54.6016 155.535 55.041 155.535 55.7559C155.535 56.5879 154.703 57.1914 153.561 57.1914C152.354 57.1914 151.487 56.5879 151.387 55.6738H150.326ZM158.146 50.4355V51.9062H157.238V52.7441H158.146V56.418C158.146 57.5898 158.579 58.0469 159.698 58.0469C159.939 58.0469 160.22 58.0293 160.343 58V57.1445C160.273 57.1562 160.038 57.1738 159.921 57.1738C159.4 57.1738 159.165 56.9219 159.165 56.3652V52.7441H160.349V51.9062H159.165V50.4355H158.146ZM163.451 57.2383C162.719 57.2383 162.232 56.8574 162.232 56.2773C162.232 55.7031 162.701 55.3398 163.522 55.2871L165.15 55.1875V55.6855C165.15 56.5645 164.412 57.2383 163.451 57.2383ZM163.223 58.1055C164.043 58.1055 164.816 57.6484 165.18 56.9512H165.203V58H166.17V53.7871C166.17 52.5742 165.268 51.8008 163.838 51.8008C162.397 51.8008 161.494 52.6094 161.424 53.6641H162.408C162.537 53.0664 163.029 52.6973 163.815 52.6973C164.658 52.6973 165.15 53.1426 165.15 53.8867V54.3965L163.404 54.4961C161.998 54.5781 161.195 55.2344 161.195 56.2773C161.195 57.373 162.01 58.1055 163.223 58.1055ZM167.913 50.4355V51.9062H167.005V52.7441H167.913V56.418C167.913 57.5898 168.347 58.0469 169.466 58.0469C169.706 58.0469 169.987 58.0293 170.11 58V57.1445C170.04 57.1562 169.806 57.1738 169.688 57.1738C169.167 57.1738 168.933 56.9219 168.933 56.3652V52.7441H170.116V51.9062H168.933V50.4355H167.913ZM173.594 52.6855C174.555 52.6855 175.193 53.4121 175.217 54.4316H171.906C171.971 53.418 172.639 52.6855 173.594 52.6855ZM175.193 56.2539C175.023 56.8281 174.455 57.2207 173.681 57.2207C172.586 57.2207 171.9 56.4531 171.9 55.2871V55.2285H176.271V54.8418C176.271 52.9961 175.258 51.8008 173.611 51.8008C171.93 51.8008 170.851 53.084 170.851 54.9766C170.851 56.8926 171.912 58.1055 173.658 58.1055C174.988 58.1055 176.019 57.3203 176.195 56.2539H175.193ZM177.317 53.5879C177.317 54.4199 177.844 54.9707 178.917 55.2461L179.989 55.5215C180.675 55.7031 180.926 55.9375 180.926 56.3711C180.926 56.9219 180.417 57.2734 179.591 57.2734C178.764 57.2734 178.284 56.9336 178.173 56.3008H177.153C177.259 57.3789 178.19 58.1055 179.526 58.1055C180.95 58.1055 181.952 57.3555 181.952 56.2949C181.952 55.3984 181.507 54.9531 180.276 54.6426L179.333 54.4141C178.641 54.2383 178.319 53.957 178.319 53.5352C178.319 53.002 178.811 52.6328 179.555 52.6328C180.305 52.6328 180.78 52.9961 180.85 53.582H181.823C181.776 52.5508 180.85 51.8008 179.591 51.8008C178.249 51.8008 177.317 52.5449 177.317 53.5879Z" fill="#9CA3AF"/>
<path d="M274.5 39.9H269.5C269.09 39.9 268.75 39.56 268.75 39.15C268.75 38.74 269.09 38.4 269.5 38.4H274.5C274.91 38.4 275.25 38.74 275.25 39.15C275.25 39.56 274.91 39.9 274.5 39.9Z" fill="white"/>
<path d="M264.93 51.25C264.51 51.25 264.12 51.15 263.77 50.95C263 50.5 262.56 49.59 262.56 48.46V34.36C262.56 31.82 264.63 29.75 267.17 29.75H276.82C279.36 29.75 281.43 31.82 281.43 34.36V48.45C281.43 49.58 280.99 50.49 280.22 50.94C279.45 51.39 278.44 51.34 277.45 50.79L272.57 48.08C272.28 47.92 271.71 47.92 271.42 48.08L266.54 50.79C266 51.09 265.45 51.25 264.93 51.25ZM267.18 31.25C265.47 31.25 264.07 32.65 264.07 34.36V48.45C264.07 49.04 264.24 49.48 264.54 49.65C264.84 49.83 265.31 49.77 265.82 49.48L270.7 46.77C271.44 46.36 272.56 46.36 273.3 46.77L278.18 49.48C278.69 49.77 279.16 49.83 279.46 49.65C279.76 49.47 279.93 49.03 279.93 48.45V34.36C279.93 32.65 278.53 31.25 276.82 31.25H267.18Z" fill="white"/>
<rect x="16" y="83" width="87" height="30" rx="15" fill="white" fill-opacity="0.14"/>
<path d="M40.875 102V98.3379H44.6191V97.4004H40.875V94.4941H44.9531V93.5449H39.8203V102H40.875ZM51.1259 95.9062H50.1063V99.4863C50.1063 100.523 49.5087 101.203 48.5184 101.203C47.5751 101.203 47.1122 100.67 47.1122 99.6797V95.9062H46.0927V99.8613C46.0927 101.244 46.872 102.105 48.202 102.105C49.1395 102.105 49.7723 101.713 50.1356 101.01H50.1591V102H51.1259V95.9062ZM52.6228 102H53.6423V93.5449H52.6228V102ZM55.192 102H56.2116V93.5449H55.192V102ZM58.0366 94.4355V95.9062H57.1284V96.7441H58.0366V100.418C58.0366 101.59 58.4702 102.047 59.5894 102.047C59.8296 102.047 60.1109 102.029 60.2339 102V101.145C60.1636 101.156 59.9292 101.174 59.812 101.174C59.2905 101.174 59.0562 100.922 59.0562 100.365V96.7441H60.2398V95.9062H59.0562V94.4355H58.0366ZM61.5023 102H62.5219V95.9062H61.5023V102ZM62.0121 94.8809C62.3637 94.8809 62.6508 94.5938 62.6508 94.248C62.6508 93.8965 62.3637 93.6152 62.0121 93.6152C61.6664 93.6152 61.3793 93.8965 61.3793 94.248C61.3793 94.5938 61.6664 94.8809 62.0121 94.8809ZM64.0188 102H65.0384V98.1797C65.0384 97.3359 65.6243 96.7031 66.4329 96.7031C67.1887 96.7031 67.6809 97.1836 67.6809 97.916V102H68.7005V98.127C68.7005 97.3008 69.2688 96.7031 70.0774 96.7031C70.8802 96.7031 71.343 97.1953 71.343 98.0273V102H72.3626V97.793C72.3626 96.5859 71.5833 95.8008 70.3762 95.8008C69.5208 95.8008 68.8059 96.2344 68.4661 96.9609H68.4427C68.179 96.2227 67.5637 95.8008 66.7317 95.8008C65.9114 95.8008 65.2903 96.2344 65.0032 96.8789H64.9798V95.9062H64.0188V102ZM76.2267 96.6855C77.1877 96.6855 77.8263 97.4121 77.8498 98.4316H74.5392C74.6037 97.418 75.2716 96.6855 76.2267 96.6855ZM77.8263 100.254C77.6564 100.828 77.088 101.221 76.3146 101.221C75.2189 101.221 74.5334 100.453 74.5334 99.2871V99.2285H78.9045V98.8418C78.9045 96.9961 77.8908 95.8008 76.2443 95.8008C74.5627 95.8008 73.4845 97.084 73.4845 98.9766C73.4845 100.893 74.5451 102.105 76.2912 102.105C77.6213 102.105 78.6525 101.32 78.8283 100.254H77.8263Z" fill="white"/>
<rect x="109.5" y="83" width="86" height="30" rx="15" fill="white" fill-opacity="0.14"/>
<path d="M134.375 94.4824H136.35C137.439 94.4824 138.096 95.0859 138.096 96.0996C138.096 97.1367 137.48 97.7227 136.396 97.7227H134.375V94.4824ZM134.375 98.6543H136.396L138.207 102H139.443L137.486 98.4902C138.547 98.1562 139.186 97.2422 139.186 96.0645C139.186 94.541 138.119 93.5449 136.49 93.5449H133.32V102H134.375V98.6543ZM142.921 96.6855C143.882 96.6855 144.52 97.4121 144.544 98.4316H141.233C141.298 97.418 141.966 96.6855 142.921 96.6855ZM144.52 100.254C144.35 100.828 143.782 101.221 143.009 101.221C141.913 101.221 141.227 100.453 141.227 99.2871V99.2285H145.599V98.8418C145.599 96.9961 144.585 95.8008 142.938 95.8008C141.257 95.8008 140.179 97.084 140.179 98.9766C140.179 100.893 141.239 102.105 142.985 102.105C144.315 102.105 145.347 101.32 145.522 100.254H144.52ZM146.75 102H147.769V98.1797C147.769 97.3359 148.355 96.7031 149.164 96.7031C149.92 96.7031 150.412 97.1836 150.412 97.916V102H151.431V98.127C151.431 97.3008 152 96.7031 152.808 96.7031C153.611 96.7031 154.074 97.1953 154.074 98.0273V102H155.094V97.793C155.094 96.5859 154.314 95.8008 153.107 95.8008C152.252 95.8008 151.537 96.2344 151.197 96.9609H151.174C150.91 96.2227 150.295 95.8008 149.463 95.8008C148.642 95.8008 148.021 96.2344 147.734 96.8789H147.711V95.9062H146.75V102ZM159.04 102.105C160.721 102.105 161.858 100.893 161.858 98.9531C161.858 97.0078 160.721 95.8008 159.04 95.8008C157.352 95.8008 156.215 97.0078 156.215 98.9531C156.215 100.893 157.352 102.105 159.04 102.105ZM159.04 101.209C157.962 101.209 157.253 100.389 157.253 98.9531C157.253 97.5176 157.962 96.6973 159.04 96.6973C160.118 96.6973 160.821 97.5176 160.821 98.9531C160.821 100.389 160.118 101.209 159.04 101.209ZM163.337 94.4355V95.9062H162.429V96.7441H163.337V100.418C163.337 101.59 163.771 102.047 164.89 102.047C165.13 102.047 165.412 102.029 165.535 102V101.145C165.464 101.156 165.23 101.174 165.113 101.174C164.591 101.174 164.357 100.922 164.357 100.365V96.7441H165.541V95.9062H164.357V94.4355H163.337ZM169.018 96.6855C169.979 96.6855 170.618 97.4121 170.641 98.4316H167.33C167.395 97.418 168.063 96.6855 169.018 96.6855ZM170.618 100.254C170.448 100.828 169.879 101.221 169.106 101.221C168.01 101.221 167.325 100.453 167.325 99.2871V99.2285H171.696V98.8418C171.696 96.9961 170.682 95.8008 169.036 95.8008C167.354 95.8008 166.276 97.084 166.276 98.9766C166.276 100.893 167.336 102.105 169.082 102.105C170.412 102.105 171.444 101.32 171.62 100.254H170.618Z" fill="white"/>
<rect x="202" y="83" width="82" height="30" rx="15" fill="white" fill-opacity="0.14"/>
<path d="M225.82 93.5449V102H228.662C231.176 102 232.652 100.436 232.652 97.7695C232.652 95.1094 231.17 93.5449 228.662 93.5449H225.82ZM226.875 94.4941H228.592C230.514 94.4941 231.574 95.666 231.574 97.7812C231.574 99.8789 230.508 101.051 228.592 101.051H226.875V94.4941ZM236.37 96.6855C237.331 96.6855 237.97 97.4121 237.993 98.4316H234.682C234.747 97.418 235.415 96.6855 236.37 96.6855ZM237.97 100.254C237.8 100.828 237.231 101.221 236.458 101.221C235.362 101.221 234.677 100.453 234.677 99.2871V99.2285H239.048V98.8418C239.048 96.9961 238.034 95.8008 236.388 95.8008C234.706 95.8008 233.628 97.084 233.628 98.9766C233.628 100.893 234.688 102.105 236.434 102.105C237.765 102.105 238.796 101.32 238.972 100.254H237.97ZM240.094 97.5879C240.094 98.4199 240.621 98.9707 241.693 99.2461L242.765 99.5215C243.451 99.7031 243.703 99.9375 243.703 100.371C243.703 100.922 243.193 101.273 242.367 101.273C241.541 101.273 241.06 100.934 240.949 100.301H239.929C240.035 101.379 240.967 102.105 242.302 102.105C243.726 102.105 244.728 101.355 244.728 100.295C244.728 99.3984 244.283 98.9531 243.052 98.6426L242.109 98.4141C241.418 98.2383 241.095 97.957 241.095 97.5352C241.095 97.002 241.588 96.6328 242.332 96.6328C243.082 96.6328 243.556 96.9961 243.627 97.582H244.599C244.552 96.5508 243.627 95.8008 242.367 95.8008C241.025 95.8008 240.094 96.5449 240.094 97.5879ZM245.962 102H246.981V95.9062H245.962V102ZM246.471 94.8809C246.823 94.8809 247.11 94.5938 247.11 94.248C247.11 93.8965 246.823 93.6152 246.471 93.6152C246.126 93.6152 245.839 93.8965 245.839 94.248C245.839 94.5938 246.126 94.8809 246.471 94.8809ZM250.957 101.15C249.908 101.15 249.222 100.295 249.222 98.9297C249.222 97.5645 249.908 96.6973 250.957 96.6973C252.017 96.6973 252.726 97.5879 252.726 98.9297C252.726 100.271 252.017 101.15 250.957 101.15ZM250.992 104.297C252.673 104.297 253.746 103.33 253.746 101.877V95.9062H252.773V96.9316H252.755C252.351 96.2227 251.636 95.8008 250.775 95.8008C249.199 95.8008 248.179 97.0195 248.179 98.9297C248.179 100.822 249.199 102.047 250.751 102.047C251.607 102.047 252.328 101.613 252.703 100.951H252.726V101.912C252.726 102.82 252.087 103.43 251.033 103.43C250.271 103.43 249.667 103.061 249.468 102.504H248.419C248.589 103.541 249.65 104.297 250.992 104.297ZM255.196 102H256.215V98.4141C256.215 97.3828 256.842 96.7031 257.803 96.7031C258.741 96.7031 259.204 97.2422 259.204 98.2266V102H260.223V98.0449C260.223 96.6621 259.45 95.8008 258.114 95.8008C257.17 95.8008 256.52 96.2227 256.18 96.8789H256.157V95.9062H255.196V102Z" fill="white"/>
<path d="M22.9043 157.338V156.039C25.7656 155.805 27.416 154.311 27.416 151.938C27.416 149.906 26.2344 148.686 23.8125 148.08L22.9043 147.875V143.51C24.2031 143.676 25.0918 144.545 25.1309 145.648H27.1719C27.1133 143.49 25.4531 141.947 22.9043 141.732V140.375H21.5664V141.732C18.9199 141.977 17.3086 143.461 17.3086 145.688C17.3086 147.582 18.5098 148.891 20.6973 149.438L21.5664 149.662V154.281C20.0918 154.115 19.1543 153.285 19.0566 152.084H16.9863C16.9961 154.34 18.7832 155.863 21.5664 156.049V157.338H22.9043ZM25.3457 152.133C25.3457 153.422 24.457 154.223 22.9043 154.311V149.916C24.584 150.268 25.3457 150.971 25.3457 152.133ZM19.3984 145.541C19.3984 144.418 20.3164 143.578 21.5664 143.51V147.592C20.1602 147.299 19.3984 146.596 19.3984 145.541ZM33.2605 156H35.3992V141.908H33.241L29.5301 144.545V146.693L33.2117 144.076H33.2605V156ZM38.9195 146.039V146.059H40.9898V146.029C40.9898 144.564 42.152 143.451 43.6949 143.451C45.1598 143.451 46.2926 144.447 46.2926 145.697C46.2926 146.801 45.8434 147.543 44.1246 149.33L39.0367 154.516V156H48.6754V154.154H41.9859V154.105L45.5113 150.561C47.5719 148.451 48.4508 147.23 48.4508 145.59C48.4508 143.354 46.4488 141.645 43.7633 141.645C40.9605 141.645 38.9195 143.5 38.9195 146.039ZM53.2113 156V151.303L54.6566 149.652L59.5395 156H62.2543L56.1996 148.148L61.7855 141.908H59.1879L53.2992 148.617H53.2113V141.908H51.0238V156H53.2113ZM68.8117 151.234V149.33H62.4055V151.234H68.8117ZM74.2559 156H76.3945V141.908H74.2363L70.5254 144.545V146.693L74.207 144.076H74.2559V156ZM85.0809 156.264C88.118 156.264 90.2469 154.262 90.2469 151.371C90.2469 148.637 88.3035 146.654 85.5984 146.654C84.2215 146.654 83.0691 147.191 82.4539 148.08H82.4051L82.7957 143.754H89.4266V141.908H81.0379L80.2957 149.877H82.2977C82.8445 148.949 83.8992 148.393 85.1199 148.393C86.8777 148.393 88.1082 149.662 88.1082 151.43C88.1082 153.197 86.8777 154.438 85.1004 154.438C83.5281 154.438 82.327 153.48 82.1707 152.084H80.0809C80.2078 154.545 82.2684 156.264 85.0809 156.264ZM94.6168 156V151.303L96.0621 149.652L100.945 156H103.66L97.6051 148.148L103.191 141.908H100.593L94.7047 148.617H94.6168V141.908H92.4293V156H94.6168Z" fill="white"/>
<path d="M105.092 157.805L108.092 147.545H106.967L103.967 157.805H105.092ZM117.57 156V147.545H116.046L113.316 154.219H113.269L110.533 147.545H109.015V156H110.21V149.777H110.251L112.806 155.936H113.779L116.327 149.777H116.368V156H117.57ZM121.744 156.117C123.508 156.117 124.668 154.904 124.668 152.918C124.668 150.938 123.502 149.725 121.744 149.725C119.986 149.725 118.82 150.938 118.82 152.918C118.82 154.904 119.981 156.117 121.744 156.117ZM121.744 155.074C120.754 155.074 120.11 154.289 120.11 152.918C120.11 151.553 120.754 150.768 121.744 150.768C122.735 150.768 123.379 151.553 123.379 152.918C123.379 154.289 122.74 155.074 121.744 155.074ZM125.767 156H127.032V152.408C127.032 151.453 127.606 150.82 128.497 150.82C129.376 150.82 129.81 151.33 129.81 152.256V156H131.081V152.01C131.081 150.598 130.302 149.73 128.942 149.73C127.993 149.73 127.337 150.164 127.003 150.867H126.974V149.836H125.767V156ZM132.795 148.377V149.836H131.898V150.838H132.795V154.377C132.795 155.566 133.281 156.041 134.529 156.041C134.81 156.041 135.092 156.018 135.232 155.982V154.98C135.15 154.998 134.945 155.01 134.816 155.01C134.301 155.01 134.066 154.77 134.066 154.236V150.838H135.238V149.836H134.066V148.377H132.795ZM136.448 156H137.714V152.438C137.714 151.465 138.288 150.82 139.225 150.82C140.116 150.82 140.573 151.365 140.573 152.273V156H141.845V152.027C141.845 150.633 141.036 149.73 139.682 149.73C138.745 149.73 138.071 150.146 137.731 150.867H137.702V147.545H136.448V156Z" fill="white" fill-opacity="0.5"/>
<rect x="188" y="133" width="96" height="32" rx="16" fill="#3366FF"/>
<path d="M214.555 153H215.944L212.891 144.545H211.473L208.42 153H209.786L210.559 150.715H213.782L214.555 153ZM212.153 145.951H212.188L213.448 149.66H210.893L212.153 145.951ZM220.054 146.736C219.163 146.736 218.454 147.188 218.091 147.896H218.068V146.836H216.843V155.039H218.109V151.986H218.138C218.49 152.672 219.193 153.105 220.078 153.105C221.624 153.105 222.65 151.869 222.65 149.918C222.65 147.967 221.619 146.736 220.054 146.736ZM219.72 152.033C218.747 152.033 218.103 151.201 218.103 149.918C218.103 148.646 218.753 147.803 219.72 147.803C220.722 147.803 221.349 148.629 221.349 149.918C221.349 151.213 220.722 152.033 219.72 152.033ZM226.959 146.736C226.069 146.736 225.36 147.188 224.996 147.896H224.973V146.836H223.748V155.039H225.014V151.986H225.043C225.395 152.672 226.098 153.105 226.983 153.105C228.53 153.105 229.555 151.869 229.555 149.918C229.555 147.967 228.524 146.736 226.959 146.736ZM226.625 152.033C225.653 152.033 225.008 151.201 225.008 149.918C225.008 148.646 225.658 147.803 226.625 147.803C227.627 147.803 228.254 148.629 228.254 149.918C228.254 151.213 227.627 152.033 226.625 152.033ZM230.7 153H231.966V144.545H230.7V153ZM233.996 155.297C235.279 155.297 235.883 154.816 236.41 153.322L238.725 146.836H237.389L235.824 151.852H235.807L234.242 146.836H232.871L235.098 153.006C235.098 153.012 234.986 153.375 234.986 153.387C234.793 154.02 234.482 154.266 233.891 154.266C233.785 154.266 233.574 154.266 233.48 154.242V155.268C233.574 155.285 233.896 155.297 233.996 155.297ZM242.146 153H243.412V149.408C243.412 148.453 243.986 147.82 244.877 147.82C245.756 147.82 246.189 148.33 246.189 149.256V153H247.461V149.01C247.461 147.598 246.681 146.73 245.322 146.73C244.373 146.73 243.717 147.164 243.383 147.867H243.353V146.836H242.146V153ZM251.454 153.117C253.217 153.117 254.378 151.904 254.378 149.918C254.378 147.938 253.212 146.725 251.454 146.725C249.696 146.725 248.53 147.938 248.53 149.918C248.53 151.904 249.69 153.117 251.454 153.117ZM251.454 152.074C250.464 152.074 249.819 151.289 249.819 149.918C249.819 148.553 250.464 147.768 251.454 147.768C252.444 147.768 253.089 148.553 253.089 149.918C253.089 151.289 252.45 152.074 251.454 152.074ZM263.585 146.836H262.332L261.207 151.688H261.177L259.888 146.836H258.669L257.386 151.688H257.363L256.238 146.836H254.972L256.666 153H257.972L259.255 148.383H259.285L260.58 153H261.898L263.585 146.836Z" fill="white"/>
</svg>
